<svg width="144" height="95" viewBox="0 0 144 95" fill="none" xmlns="http://www.w3.org/2000/svg">
<path d="M124.499 73.1603C111.698 110.517 24.4993 88.1603 24.4993 88.1603C5.05157 84.5405 -12.2035 39.3369 11.4993 20.1603C31.4772 3.99714 48.8044 1.53577 74.4993 1.16027C101.505 0.76561 125.318 -1.83015 140.999 20.1603C148.261 30.3439 136.565 37.9507 124.499 73.1603Z" fill="#9BD552"/>
<path d="M124.499 73.1603C111.698 110.517 24.4993 88.1603 24.4993 88.1603C5.05157 84.5405 -12.2035 39.3369 11.4993 20.1603C31.4772 3.99714 48.8044 1.53577 74.4993 1.16027C101.505 0.76561 125.318 -1.83015 140.999 20.1603C148.261 30.3439 136.565 37.9507 124.499 73.1603Z" fill="black" fill-opacity="0.05"/>
</svg>
