<svg width="237" height="270" viewBox="0 0 237 270" fill="none" xmlns="http://www.w3.org/2000/svg">
<ellipse cx="125" cy="256.311" rx="73.077" ry="13.6888" fill="#E6E4E4"/>
<path d="M98.0718 250.439L93.2299 253.305L97.3343 219.051L103.491 219.914L98.0718 250.439Z" fill="#FFC50C"/>
<path d="M84.5135 254.853C91.5087 251.549 97.5775 249.684 98.07 250.685C98.5625 251.687 93.4822 255.182 86.487 258.486C79.4918 261.791 73.2321 263.65 72.7395 262.648C72.247 261.647 77.5183 258.158 84.5135 254.853Z" fill="#FFC50C"/>
<path d="M85.3828 249.731C92.18 248.919 97.7982 249.221 97.9195 250.395C98.0409 251.57 92.6309 253.188 85.8336 253.999C79.0364 254.811 73.4183 254.51 73.2969 253.335C73.1697 252.154 78.5855 250.543 85.3828 249.731Z" fill="#FFC50C"/>
<path d="M94.8333 247.657C95.8712 247.214 98.369 250.622 100.41 255.262C102.45 259.902 103.655 265.527 102.612 265.97C102.612 267.185 98.6857 261.503 96.6452 256.863C94.6047 252.222 93.7896 248.1 94.8333 247.657Z" fill="#FFC50C"/>
<path d="M145.901 251.207L151.069 253.154L141.093 217.615L134.274 218.556L145.901 251.207Z" fill="#FFC50C"/>
<path d="M145.846 251.241C146.191 250.182 152.465 251.2 159.861 253.516C167.256 255.833 172.971 258.567 172.625 259.627C172.28 260.686 165.958 260.25 158.563 257.934C151.167 255.617 145.5 252.301 145.846 251.241Z" fill="#FFC50C"/>
<path d="M145.857 251.24C145.828 250.127 151.427 249.076 158.363 248.886C165.299 248.696 170.955 249.445 170.983 250.552C171.012 251.664 165.413 252.715 158.477 252.905C151.541 253.095 145.885 252.346 145.857 251.24Z" fill="#FFC50C"/>
<path d="M144.174 256.07C145.537 251.197 147.528 247.48 148.618 247.778C149.709 248.075 150.14 252.951 148.778 257.83C147.415 262.704 144.776 265.731 143.685 265.434C142.594 265.137 142.812 260.95 144.174 256.07Z" fill="#FFC50C"/>
<path d="M22 158C22 158 25.1218 184.382 55.7252 185.339C86.3286 186.297 54.8974 168.933 54.8974 168.933L22 158Z" fill="#007EC1"/>
<path d="M218.115 162C218.115 162 214.994 188.382 184.39 189.339C153.787 190.297 185.218 172.933 185.218 172.933L218.115 162Z" fill="#007EC1"/>
<path d="M202.884 158.767C202.884 220.816 174.646 222.797 108.075 222.797C41.5042 222.797 35.5765 196.112 35.5765 134.063C35.5765 72.0143 41.9327 21.7131 106.32 21.7131C170.707 21.7131 202.884 96.7186 202.884 158.767Z" fill="#97B9F5"/>
<path d="M108.173 22.9689C103.916 30.4126 98.1637 35.1735 95.3198 33.6077C92.476 32.0418 97.46 26.4345 101.723 18.9966C105.98 11.5529 107.903 5.09361 110.741 6.65949C113.579 8.22537 112.43 15.5252 108.173 22.9689Z" fill="#517EE4"/>
<path d="M100.848 20.4391C102.525 28.8154 104.044 29.7527 100.848 30.3687C97.6525 30.9847 89.9666 26.8004 88.2897 18.4241C86.6127 10.0478 91.5778 0.65722 94.7735 0.0412286C97.9691 -0.574762 99.1711 12.0628 100.848 20.4391Z" fill="#5C85EE"/>
<path d="M105.985 13.8166C107.649 23.4899 112.871 29.4438 109.699 30.1552C106.526 30.8666 95.8184 26.3685 94.1535 16.6951C92.4886 7.02173 108.675 0.711374 111.848 0C114.194 5.18124 104.32 4.14323 105.985 13.8166Z" fill="#007EC1"/>
<path d="M201.324 134.196C207.485 193.522 197.804 147.715 128.278 153.741C42.0308 162.705 35.5765 196.318 35.5765 134.196C35.5765 72.0739 41.9292 21.7131 106.28 21.7131C170.631 21.7131 192.817 84.2677 201.324 134.196Z" fill="#007EC1"/>
<path d="M123.668 124.519C123.668 130.929 118.457 141.62 110.645 141.62C102.833 141.62 97.7445 129.659 97.7445 123.249C97.7445 116.838 102.824 116.966 110.645 116.966C118.466 116.966 123.668 118.108 123.668 124.519Z" fill="#FFC50C"/>
<path d="M97.7708 123.958C97.7708 124.071 97.7883 124.191 97.7971 124.304C97.7971 124.397 97.8146 124.497 97.8233 124.59C97.8321 124.683 97.8408 124.776 97.8584 124.869C97.8759 124.982 97.8846 125.102 97.9021 125.215C97.9021 125.281 97.9197 125.341 97.9284 125.407C98.0335 126.099 98.1912 126.81 98.3838 127.534L116.684 132.697L123.344 127.342C123.554 126.338 123.668 125.361 123.668 124.437C123.668 120.681 121.846 118.754 118.737 117.81C116.557 117.165 113.789 116.966 110.645 116.966H109.918C106.1 116.966 102.973 116.986 100.854 117.85C100.591 117.956 100.337 118.082 100.1 118.215C99.8639 118.348 99.645 118.501 99.4523 118.667C98.3488 119.585 97.7445 121 97.7445 123.181C97.7445 123.36 97.7445 123.546 97.762 123.739C97.762 123.812 97.762 123.885 97.7708 123.952V123.958Z" fill="#F9AB10"/>
<path d="M127.596 122.143C127.596 115.253 120.036 107.079 110.707 107.079C101.377 107.079 93.817 115.253 93.817 122.143L116.685 127.516L127.596 122.143Z" fill="#FFC50C"/>
<path d="M123.668 124.519C123.668 130.929 118.457 141.62 110.645 141.62C102.833 141.62 97.7445 129.659 97.7445 123.249C97.7445 116.838 102.824 116.966 110.645 116.966C118.466 116.966 123.668 118.108 123.668 124.519Z" fill="#FFC50C"/>
<path d="M121.029 126.127C121.029 131.327 116.802 140 110.465 140C104.128 140 100 130.297 100 125.097C100 119.897 104.121 120 110.465 120C116.809 120 121.029 120.927 121.029 126.127Z" fill="#AF6105"/>
<path d="M97.7708 119.958C97.7708 120.071 97.7883 120.191 97.7971 120.304C97.7971 120.397 97.8146 120.497 97.8233 120.59C97.8321 120.683 97.8408 120.776 97.8584 120.869C97.8759 120.982 97.8846 121.102 97.9021 121.215C97.9021 121.281 97.9197 121.341 97.9284 121.407C98.0335 122.099 98.1912 122.81 98.3838 123.534L116.684 128.697L123.344 123.342C123.554 122.338 123.668 121.361 123.668 120.437C123.668 116.681 121.846 114.754 118.737 113.81C116.557 113.165 113.789 112.966 110.645 112.966H109.918C106.1 112.966 102.973 112.986 100.854 113.85C100.591 113.956 100.337 114.082 100.1 114.215C99.8639 114.348 99.645 114.501 99.4523 114.667C98.3488 115.585 97.7445 117 97.7445 119.181C97.7445 119.36 97.7445 119.546 97.762 119.739C97.762 119.812 97.762 119.885 97.7708 119.952V119.958Z" fill="#F9AB10"/>
<path d="M127.596 122.143C127.596 115.253 120.036 107.079 110.707 107.079C101.377 107.079 93.817 115.253 93.817 122.143L116.685 127.516L127.596 122.143Z" fill="#FFC50C"/>
<path d="M42.9647 174.007C59.4471 169.937 77.3427 161.44 76.7856 152.919C76.2286 144.399 57.4301 139.086 40.9477 143.156C24.4653 147.226 21.1524 137.675 18.889 146.823C19.4461 155.343 26.4823 178.077 42.9706 174.007H42.9647Z" fill="#5992F8"/>
<path d="M40.9472 143.156C57.4296 139.086 76.2281 144.399 76.7851 152.919C76.8438 153.852 76.6855 154.779 76.3336 155.706C72.4754 157.139 68.4237 158.377 64.4482 159.356C47.9658 163.426 34.5383 153.662 33.9813 145.142C33.9578 144.819 33.9578 144.503 33.9754 144.198C35.9925 144.111 38.3027 143.812 40.9472 143.156Z" fill="#2A5AC0"/>
<path d="M49.7956 160.72C66.278 156.65 84.1736 148.153 83.6165 139.633C83.0595 131.112 64.261 125.799 47.7786 129.869C31.2962 133.939 18.7716 137.986 19.3287 146.506C19.8857 155.027 33.3132 164.79 49.7956 160.72Z" fill="#5992F8"/>
<path d="M47.3265 152.109C30.979 156.145 20.1784 152.856 19.4572 144.446C20.9113 137.307 32.6794 133.599 47.7722 129.875C60.8537 126.645 75.3953 129.328 81.1181 134.831C80.2093 142.983 63.1171 148.211 47.3265 152.109Z" fill="#2A5AC0"/>
<path d="M47.1586 148.585C62.7662 140.812 88.501 127.849 86.2692 118.106C84.0374 108.363 58.8727 109.098 43.2593 116.871C27.6514 124.638 16.806 138.842 19.0378 148.585C21.2696 158.328 31.551 156.357 47.1586 148.585Z" fill="#5992F8"/>
<path d="M193.621 176.111C174.5 171.389 153.74 167.234 154.386 157.35C155.032 147.465 176.84 141.301 195.961 146.023C215.082 150.745 218.925 139.665 221.551 150.277C220.905 160.161 212.749 180.832 193.621 176.111Z" fill="#5992F8"/>
<path d="M195.967 146.023C176.846 141.301 155.038 147.465 154.392 157.35C154.324 158.431 154.508 159.507 154.916 160.582C159.392 162.245 164.099 163.681 168.704 164.816C187.825 169.538 203.402 158.211 204.055 148.327C204.082 147.953 204.082 147.586 204.062 147.232C201.722 147.131 199.042 146.784 195.967 146.023Z" fill="#2A5AC0"/>
<path d="M185.695 166.399C166.574 161.677 145.814 151.82 146.46 141.935C147.107 132.051 168.914 125.887 188.035 130.609C207.156 135.33 221.686 140.025 221.039 149.91C220.393 159.794 204.816 171.121 185.689 166.399H185.695Z" fill="#5992F8"/>
<path d="M188.56 159.587C207.524 164.269 220.054 157.276 220.891 147.519C219.204 139.238 205.552 134.937 188.043 130.616C172.867 126.869 155.998 129.981 149.359 136.366C150.413 145.823 170.242 155.072 188.56 159.594V159.587Z" fill="#2A5AC0"/>
<path d="M184.037 156.341C165.317 148.266 139.108 130.395 141.108 118.974C143.108 107.554 171.005 114.608 189.725 122.682C208.445 130.757 223.557 138.856 221.557 150.277C219.558 161.697 202.756 164.415 184.037 156.341Z" fill="#5992F8"/>
<path d="M65.8915 58.2959C67.9731 61.7213 69.5475 55.9634 74.1738 53.2518C78.7943 50.5461 84.7135 51.9115 82.6319 48.4861C80.5504 45.0607 75.1149 44.4735 70.4944 47.185C65.8739 49.8908 63.8158 54.8648 65.8974 58.2959H65.8915Z" fill="#4AAEE2"/>
<path d="M154.519 58.8853C152.479 62.0055 153.338 58.4098 148.805 55.5543C144.273 52.6989 136.073 51.6718 138.113 48.5458C140.154 45.4256 145.484 45.2068 150.01 48.0622C154.543 50.9177 156.56 55.765 154.514 58.8853H154.519Z" fill="#4AAEE2"/>
<path d="M104.563 115.018C102.968 114.339 103.662 111.77 105.985 110.74C109.102 109.357 115.132 110.623 116.324 111.906C117.517 113.19 116.948 116.352 114.903 116.185C112.857 116.018 106.158 115.697 104.563 115.018Z" fill="#FFD523"/>
<mask id="mask0_499_5191" style="mask-type:alpha" maskUnits="userSpaceOnUse" x="64" y="59" width="35" height="40">
<path d="M98.3562 84.6207C98.0214 89.7696 96.5465 94.4659 94.3105 98.2299C87.5942 92.4177 81.0786 85.1967 66.4785 90.4813C64.4917 86.3009 64.2895 87.9468 64.6484 82.4249C65.505 69.3126 73.7427 59.1719 83.0456 59.7792C92.3542 60.3866 99.2015 71.508 98.3506 84.6205L98.3562 84.6207Z" fill="white"/>
</mask>
<g mask="url(#mask0_499_5191)">
<ellipse cx="81.4601" cy="83.0635" rx="18.6818" ry="24.9091" transform="rotate(1.96 81.4601 83.0635)" fill="white"/>
<path d="M93.0518 91.9461C92.9765 94.1467 92.6329 96.2357 92.0635 98.1546L69.8504 97.3945C69.4135 95.4411 69.2138 93.325 69.2888 91.1329C69.6201 81.452 75.2092 73.7871 81.7673 74.0115C88.3253 74.2359 93.3831 82.2653 93.0518 91.9461Z" fill="#0B1254"/>
<path d="M75.505 73.7536C77.7865 71.6231 81.3713 71.7458 83.5117 74.0276C85.6422 76.3091 85.5195 79.8939 83.2377 82.0343C80.9561 84.1648 77.3714 84.0421 75.231 81.7603C73.1005 79.4788 73.2231 75.894 75.505 73.7536Z" fill="white"/>
<path d="M88.5845 86.0008C89.9534 84.7225 92.1042 84.7961 93.3885 86.1652C94.6668 87.5341 94.5932 89.685 93.2241 90.9692C91.8552 92.2475 89.7043 92.1739 88.4201 90.8048C87.1418 89.4359 87.2154 87.285 88.5845 86.0008Z" fill="white"/>
</g>
<path d="M64.5906 83.3009C63.8863 72.7635 69.7292 59.4367 81.7657 59.2879C94.4548 59.4332 99.8515 73.5469 98.3679 84.4568C97.8426 75.8062 95.0507 64.5697 86.0735 61.3963C79.9797 59.2108 73.698 62.1849 70.2918 67.3703C67.2956 71.6634 65.3111 78.1369 64.5908 83.2953L64.5906 83.3009Z" fill="#0B1254"/>
<mask id="mask1_499_5191" style="mask-type:alpha" maskUnits="userSpaceOnUse" x="118" y="58" width="35" height="41">
<path d="M152.017 81.7709C152.301 86.9229 151.806 85.2532 150.036 89.2576C138.383 84.2415 132.094 91.3544 122.684 98.081C120.212 94.1683 118.593 89.1481 118.289 83.6229C117.571 70.5024 124.536 59.4491 133.845 58.9392C143.159 58.4288 151.288 68.6513 152.011 81.7714L152.017 81.7709Z" fill="white"/>
</mask>
<g mask="url(#mask1_499_5191)">
<ellipse cx="135.056" cy="82.246" rx="18.6818" ry="24.9091" transform="rotate(-4.91 135.056 82.246)" fill="white"/>
<path d="M146.671 90.7463C146.859 92.9401 146.774 95.0546 146.449 97.027L124.784 98.8881C124.128 97.0001 123.682 94.9226 123.494 92.7373C122.665 83.0863 127.182 74.8176 133.579 74.2682C139.975 73.7187 145.842 81.0953 146.671 90.7463Z" fill="#0B1254"/>
<path d="M140.633 84.8739C141.84 83.441 143.984 83.2568 145.423 84.4624C146.855 85.6686 147.04 87.8128 145.834 89.2516C144.628 90.6845 142.484 90.8687 141.045 89.663C139.612 88.4569 139.428 86.3126 140.633 84.8739Z" fill="white"/>
<path d="M125.464 75.4269C127.475 73.0388 131.048 72.7318 133.446 74.7412C135.835 76.7515 136.142 80.3252 134.132 82.7232C132.122 85.1113 128.548 85.4183 126.15 83.4089C123.762 81.3986 123.455 77.8249 125.464 75.4269Z" fill="white"/>
</g>
<path d="M118.336 84.4993C116.376 74.1219 120.583 60.1918 132.515 58.6043C145.131 57.2307 152.177 70.5975 152.009 81.6066C150.453 73.0809 146.337 62.259 137.044 60.1822C130.733 58.7414 124.852 62.4456 122.091 68.0012C119.629 72.6218 118.434 79.2862 118.335 84.4937L118.336 84.4993Z" fill="#0B1254"/>
<path d="M7.54145 57.3066C9.85085 53.3066 15.6244 53.3066 17.9338 57.3066L18.5725 58.413C20.8819 62.413 17.9952 67.413 13.3764 67.413H12.0988C7.48001 67.413 4.59327 62.413 6.90267 58.413L7.54145 57.3066Z" fill="#D8F2FF"/>
<path d="M215.07 52.8382C219.463 54.2655 220.664 59.9128 217.231 63.0034L216.282 63.8583C212.849 66.9488 207.358 65.1647 206.398 60.6469L206.132 59.3972C205.172 54.8793 209.463 51.0161 213.855 52.4434L215.07 52.8382Z" fill="#857189" fill-opacity="0.7"/>
<rect x="34.7411" y="4.52905" width="23.7769" height="23.7769" rx="6" transform="rotate(45 34.7411 4.52905)" fill="#FFEAC8"/>
<rect x="222.126" y="73.595" width="23.7769" height="23.7769" rx="6" transform="rotate(45 222.126 73.595)" fill="#D1FFC8"/>
</svg>