<svg width="452" height="617" viewBox="0 0 452 617" fill="none" xmlns="http://www.w3.org/2000/svg">
<g clip-path="url(#clip0_1430_1319)">
<path d="M62.3618 282.896C62.3618 282.896 62.1622 327.846 113.339 335.762C164.516 343.678 115.332 308.039 115.332 308.039L62.3618 282.896Z" fill="#007EC1"/>
<path d="M411.176 257.709C411.176 257.709 409.023 302.609 357.502 307.835C305.981 313.062 356.962 280.045 356.962 280.045L411.176 257.709Z" fill="#007EC1"/>
<path d="M91.3134 420.474L81.6946 419.815L121.556 375.09L129.297 382.341L91.3134 420.474Z" fill="#FFC50C"/>
<path d="M67.9745 413.492C81.0393 415.633 91.3759 418.915 91.066 420.822C90.756 422.729 80.177 422.732 67.1122 420.591C54.0474 418.45 43.4498 414.973 43.7597 413.066C44.0696 411.158 54.9097 411.351 67.9745 413.492Z" fill="#FFC50C"/>
<path d="M74.2912 407.053C84.596 412.547 92.1444 418.472 91.1435 420.262C90.1427 422.052 80.9731 419.062 70.6683 413.568C60.3635 408.074 52.8151 402.149 53.8159 400.359C54.8148 398.554 63.9864 401.559 74.2912 407.053Z" fill="#FFC50C"/>
<path d="M89.5613 413.347C91.4528 413.732 91.5468 421.025 89.7745 429.623C88.0021 438.221 84.0821 447.403 82.1824 447.013C80.9721 448.742 81.1486 436.816 82.921 428.218C84.6934 419.619 87.6615 412.957 89.5613 413.347Z" fill="#FFC50C"/>
<path d="M370.656 410.018L380.045 409.031L336.859 361.751L327.24 368.486L370.656 410.018Z" fill="#FFC50C"/>
<path d="M370.599 410.115C370.289 408.208 380.625 404.925 393.69 402.785C406.755 400.644 417.595 400.451 417.905 402.359C418.215 404.266 408.266 408.485 395.201 410.626C382.136 412.767 370.909 412.022 370.599 410.115Z" fill="#FFC50C"/>
<path d="M370.615 410.104C369.694 408.405 377.373 402.442 387.763 396.778C398.153 391.114 407.337 387.894 408.253 389.585C409.174 391.284 401.495 397.246 391.105 402.91C380.714 408.574 371.53 411.794 370.615 410.104Z" fill="#FFC50C"/>
<path d="M371.867 418.883C370.095 410.285 370.189 402.992 372.081 402.607C373.972 402.223 378.473 409.436 380.251 418.042C382.024 426.641 380.399 433.369 378.508 433.754C376.616 434.138 373.645 427.49 371.867 418.883Z" fill="#FFC50C"/>
<path d="M372.24 286C372.24 393.75 324.137 397.19 210.737 397.19C97.3374 397.19 87.24 350.85 87.24 243.1C87.24 135.35 98.0674 48 207.747 48C317.427 48 372.24 178.25 372.24 286Z" fill="#97B9F5"/>
<path d="M210.722 49.8981C203.462 62.8281 193.652 71.0981 188.802 68.3781C183.952 65.6581 192.452 55.9181 199.722 42.9981C206.982 30.0681 210.262 18.8481 215.102 21.5681C219.942 24.2881 217.982 36.9681 210.722 49.8981Z" fill="#517EE4"/>
<path d="M198.232 45.4999C201.092 60.0499 203.682 61.6781 198.232 62.7481C192.782 63.8181 179.675 56.5499 176.815 41.9999C173.955 27.4499 182.422 11.1381 187.872 10.0681C193.322 8.99808 195.372 30.9499 198.232 45.4999Z" fill="#5C85EE"/>
<path d="M206.992 33.9999C209.832 50.8029 218.737 61.145 213.327 62.3807C207.916 63.6164 189.654 55.803 186.815 39C183.975 22.197 211.581 11.2357 216.992 10C220.992 19 204.153 17.1969 206.992 33.9999Z" fill="#007EC1"/>
<path d="M369.739 243.1C380.24 346 363.74 266.548 245.24 277C98.2401 292.548 87.2395 350.85 87.2395 243.1C87.2395 135.35 98.0669 48 207.747 48C317.427 48 355.239 156.5 369.739 243.1Z" fill="#007EC1"/>
<mask id="mask0_1430_1319" style="mask-type:alpha" maskUnits="userSpaceOnUse" x="136" y="114" width="61" height="68">
<path d="M196.331 157.728C196.051 166.838 193.731 175.218 190.011 181.998C171.806 175.46 160.799 168.137 141.662 174.854C137.902 167.594 136.391 165.658 136.691 155.888C137.411 132.688 151.341 114.288 167.801 114.798C184.271 115.308 197.031 134.528 196.321 157.728H196.331Z" fill="white"/>
</mask>
<g mask="url(#mask0_1430_1319)">
<ellipse cx="166.408" cy="156" rx="33" ry="44" fill="white"/>
<path d="M197.24 171.738C197.24 175.35 196.76 178.793 195.87 181.971H156.61C155.72 178.793 155.24 175.336 155.24 171.738C155.24 155.85 164.644 142.971 176.235 142.971C187.826 142.971 197.24 155.85 197.24 171.738Z" fill="#0B1254"/>
<path d="M187.826 152.725C190.165 150.386 193.967 150.386 196.316 152.725C198.656 155.065 198.656 158.866 196.316 161.216C193.977 163.556 190.175 163.556 187.826 161.216C185.486 158.877 185.486 155.075 187.826 152.725Z" fill="white"/>
</g>
<path d="M136.641 157.438C134.761 138.878 144.271 114.998 165.511 114.008C187.921 113.498 198.301 138.088 196.341 157.438C194.891 142.198 189.283 122.53 173.243 117.47C162.353 113.98 151.443 119.61 145.743 128.97C140.713 136.73 137.601 148.278 136.641 157.428V157.438Z" fill="#0B1254"/>
<mask id="mask1_1430_1319" style="mask-type:alpha" maskUnits="userSpaceOnUse" x="234" y="122" width="61" height="68">
<path d="M293.973 166.792C293.375 175.887 291.463 179.923 287.509 186.569C270.555 178.505 259.317 182.469 239.069 189.16C235.565 181.773 233.793 172.626 234.434 162.872C235.963 139.711 250.526 121.809 266.959 122.893C283.401 123.977 295.482 143.631 293.963 166.792L293.973 166.792Z" fill="white"/>
</mask>
<g mask="url(#mask1_1430_1319)">
<ellipse cx="264.129" cy="164.021" rx="33" ry="44" transform="rotate(2 264.129 164.021)" fill="white"/>
<path d="M292.614 183.792C292.478 187.679 291.879 191.369 290.89 194.759L252.503 193.418C251.753 189.968 251.414 186.23 251.549 182.358C252.146 165.258 261.824 151.718 273.158 152.114C284.491 152.51 293.211 166.692 292.614 183.792Z" fill="#0B1254"/>
<path d="M283.883 160.815C286.303 158.558 290.102 158.691 292.369 161.111C294.625 163.531 294.492 167.33 292.072 169.597C289.653 171.853 285.853 171.72 283.587 169.3C281.33 166.881 281.463 163.082 283.883 160.815Z" fill="white"/>
</g>
<path d="M234.329 164.419C233.098 145.805 243.436 122.272 264.698 122.023C287.112 122.296 296.627 147.233 293.993 166.503C293.076 151.222 288.158 131.37 272.304 125.753C261.543 121.885 250.443 127.131 244.42 136.286C239.122 143.866 235.609 155.299 234.33 164.409L234.329 164.419Z" fill="#0B1254"/>
<path d="M376.41 298.192C403.958 289.178 433.375 272.325 431.394 257.628C429.414 242.93 396.789 235.959 369.24 244.972C341.692 253.986 334.898 237.831 332.156 253.951C334.136 268.649 348.862 307.206 376.42 298.191L376.41 298.192Z" fill="#007EC1"/>
<path d="M369.24 244.973C396.789 235.959 429.414 242.93 431.394 257.628C431.607 259.237 431.45 260.862 430.964 262.51C424.574 265.453 417.83 268.079 411.186 270.248C383.637 279.262 359.61 263.94 357.63 249.243C357.551 248.687 357.513 248.138 357.505 247.607C360.927 247.218 364.821 246.424 369.24 244.973Z" fill="#2A5AC0"/>
<path d="M386.422 274.356C413.97 265.342 443.386 248.489 441.406 233.791C439.426 219.094 406.8 212.122 379.252 221.136C351.704 230.15 330.886 238.653 332.866 253.35C334.846 268.048 358.873 283.369 386.422 274.356Z" fill="#007EC1"/>
<path d="M381.179 259.727C353.855 268.665 335.082 264.252 332.836 249.764C334.445 237.221 354.017 229.397 379.243 221.147C401.107 213.994 426.172 216.913 436.575 225.769C436.016 240.002 407.571 251.095 381.179 259.727Z" fill="#2A5AC0"/>
<path d="M380.465 253.641C406.076 238.316 448.288 212.791 443.311 196.174C438.333 179.557 395.609 183.825 369.988 199.152C344.376 214.468 327.645 240.37 332.623 256.987C337.6 273.604 354.853 268.967 380.465 253.641Z" fill="#007EC1"/>
<path d="M89.2195 317.768C57.8523 305.653 23.5901 294.174 26.7764 277.267C29.9627 260.36 68.1826 254.265 99.5498 266.38C130.917 278.495 139.768 260.191 141.966 279.033C138.78 295.94 120.598 329.884 89.2195 317.768Z" fill="#007EC1"/>
<path d="M99.5615 266.381C68.1942 254.266 29.9743 260.362 26.7881 277.268C26.4439 279.12 26.5272 281.012 26.9904 282.95C34.2148 286.748 41.8788 290.202 49.4336 293.116C80.8009 305.231 109.566 288.94 112.764 272.035C112.889 271.395 112.967 270.762 113.008 270.148C109.068 269.489 104.605 268.333 99.5615 266.381Z" fill="#2A5AC0"/>
<path d="M77.8612 299.377C46.4939 287.262 13.4389 265.952 16.6252 249.045C19.8115 232.138 58.0313 226.043 89.3986 238.158C120.766 250.272 144.367 261.387 141.18 278.294C137.994 295.201 109.228 311.491 77.8497 299.375L77.8612 299.377Z" fill="#007EC1"/>
<path d="M84.1511 288.227C115.262 300.24 137.952 290.789 141.433 274.141C140.331 259.512 118.132 249.259 89.409 238.171C64.5136 228.557 35.2992 230.416 22.7097 240.044C22.4925 256.568 54.0987 276.636 84.1497 288.239L84.1511 288.227Z" fill="#2A5AC0"/>
<path d="M77.181 281.691C47.2028 263.879 6.62136 227.62 12.4241 208.346C18.2269 189.072 63.957 207.032 93.9352 224.843C123.913 242.655 147.781 259.761 141.978 279.034C136.175 298.308 107.159 299.503 77.181 281.691Z" fill="#007EC1"/>
<path d="M192.64 208.919C193.669 208.468 193.995 208.569 193.856 209.169C200.276 210.483 230.073 216.471 234.078 215.265C234.222 214.625 234.355 214.418 234.494 214.747C234.594 214.985 234.444 215.155 234.078 215.265C232.835 220.804 230.788 258.786 217.108 262.201C201.848 266.01 191.102 261.349 188.467 254.762C178.699 230.338 193.102 212.422 193.856 209.169C193.075 209.009 192.64 208.919 192.64 208.919Z" fill="#FFC50C"/>
<path d="M195.376 249.889C186.035 235.961 200.088 210.706 198.559 214.998L230.52 215.251C230.659 215.22 230.804 215.22 230.955 215.254L230.52 215.251C225.965 216.266 227.621 251.092 215.208 253.305C206.104 254.928 198.61 254.712 195.376 249.889Z" fill="#AF6105"/>
<path d="M239.62 227.57C235.919 192.357 202.031 186.672 181.785 218.391L208.98 230.79L239.62 227.57Z" fill="#FFC50C"/>
<path d="M204.988 210.404C202.356 209.037 203.849 204.669 207.926 203.16C213.396 201.134 223.502 204.045 225.375 206.412C227.248 208.778 225.897 214.188 222.437 213.656C218.978 213.123 207.62 211.77 204.988 210.404Z" fill="#FFD523"/>
<path d="M130.375 105.262C133.925 111.212 136.61 101.21 144.5 96.5C152.38 91.8 162.475 94.1718 158.925 88.2218C155.375 82.2718 146.105 81.2518 138.225 85.9618C130.345 90.6618 126.835 99.3018 130.385 105.262H130.375Z" fill="#4AAEE2"/>
<path d="M301.526 116.286C298.046 121.706 299.511 115.46 291.781 110.5C284.051 105.54 270.066 103.756 273.546 98.3259C277.026 92.9059 286.116 92.5259 293.836 97.4859C301.566 102.446 305.006 110.866 301.516 116.286H301.526Z" fill="#4AAEE2"/>
<ellipse cx="246" cy="522.5" rx="124" ry="23.5" fill="#E6E4E4"/>
</g>
<defs>
<clipPath id="clip0_1430_1319">
<rect width="452" height="617" fill="white"/>
</clipPath>
</defs>
</svg>
