<svg width="452" height="617" viewBox="0 0 452 617" fill="none" xmlns="http://www.w3.org/2000/svg">
<ellipse cx="246" cy="522.5" rx="124" ry="23.5" fill="#E6E4E4"/>
<path d="M200.258 512.023L192 517L199 457.5L209.5 459L200.258 512.023Z" fill="#FFC50C"/>
<path d="M177.134 519.69C189.064 513.95 199.414 510.71 200.254 512.45C201.094 514.19 192.43 520.26 180.5 526C168.57 531.74 157.894 534.97 157.054 533.23C156.214 531.49 165.204 525.43 177.134 519.69Z" fill="#FFC50C"/>
<path d="M178.616 510.793C190.208 509.383 199.79 509.906 199.997 511.947C200.204 513.987 190.977 516.797 179.385 518.207C167.792 519.617 158.211 519.094 158.004 517.053C157.787 515.002 167.023 512.203 178.616 510.793Z" fill="#FFC50C"/>
<path d="M194.734 507.19C196.504 506.42 200.764 512.34 204.244 520.4C207.724 528.46 209.78 538.23 208 539C208 541.11 201.304 531.24 197.824 523.18C194.344 515.12 192.954 507.96 194.734 507.19Z" fill="#FFC50C"/>
<path d="M281.829 513.355L290.643 516.738L273.628 455.006L262 456.64L281.829 513.355Z" fill="#FFC50C"/>
<path d="M281.734 513.416C282.323 511.576 293.024 513.344 305.636 517.368C318.249 521.392 327.995 526.142 327.405 527.982C326.816 529.822 316.035 529.064 303.423 525.041C290.81 521.017 281.144 515.256 281.734 513.416Z" fill="#FFC50C"/>
<path d="M281.754 513.413C281.704 511.481 291.253 509.655 303.082 509.325C314.911 508.996 324.556 510.296 324.604 512.218C324.654 514.15 315.105 515.977 303.276 516.306C291.446 516.636 281.802 515.335 281.754 513.413Z" fill="#FFC50C"/>
<path d="M278.883 521.804C281.208 513.339 284.602 506.883 286.462 507.399C288.322 507.916 289.058 516.386 286.735 524.861C284.411 533.327 279.909 538.585 278.049 538.069C276.189 537.553 276.56 530.28 278.883 521.804Z" fill="#FFC50C"/>
<path d="M37.9614 382.432C37.9614 382.432 43.2414 427.072 95.0014 428.692C146.761 430.312 93.6014 400.932 93.6014 400.932L37.9614 382.432Z" fill="#007EC1"/>
<path d="M414.689 395.579C414.689 395.579 409.409 440.219 357.649 441.839C305.889 443.459 359.049 414.079 359.049 414.079L414.689 395.579Z" fill="#007EC1"/>
<path d="M379 353C379 460.75 330.897 464.19 217.497 464.19C104.097 464.19 94 417.85 94 310.1C94 202.35 104.827 115 214.507 115C324.187 115 379 245.25 379 353Z" fill="#97B9F5"/>
<path d="M217.482 116.898C210.222 129.828 200.412 138.098 195.562 135.378C190.712 132.658 199.212 122.918 206.482 109.998C213.742 97.0682 217.022 85.8482 221.862 88.5682C226.702 91.2882 224.742 103.968 217.482 116.898Z" fill="#517EE4"/>
<path d="M204.992 112.5C207.852 127.05 210.442 128.678 204.992 129.748C199.542 130.818 186.435 123.55 183.575 109C180.715 94.4499 189.182 78.1381 194.632 77.0681C200.082 75.9981 202.132 97.9499 204.992 112.5Z" fill="#5C85EE"/>
<path d="M213.752 101C216.592 117.803 225.497 128.145 220.087 129.381C214.676 130.616 196.414 122.803 193.575 106C190.735 89.197 218.341 78.2357 223.752 77C227.752 86 210.913 84.1969 213.752 101Z" fill="#007EC1"/>
<path d="M376.499 310.1C387 413 370.5 333.548 252 344C105 359.548 93.9994 417.85 93.9994 310.1C93.9994 202.35 104.827 115 214.507 115C324.187 115 361.999 223.5 376.499 310.1Z" fill="#007EC1"/>
<path d="M243.91 293.293C243.91 304.428 235.023 323 221.7 323C208.377 323 199.699 302.222 199.699 291.087C199.699 279.953 208.362 280.174 221.7 280.174C235.038 280.174 243.91 282.158 243.91 293.293Z" fill="#FFC50C"/>
<path d="M199.743 292.32C199.743 292.516 199.773 292.724 199.788 292.92C199.788 293.082 199.818 293.255 199.833 293.417C199.848 293.579 199.863 293.74 199.893 293.902C199.923 294.098 199.938 294.306 199.968 294.502C199.968 294.618 199.997 294.722 200.012 294.837C200.192 296.038 200.46 297.273 200.789 298.532L232 307.5L243.357 298.197C243.716 296.454 243.91 294.756 243.91 293.151C243.91 286.628 240.803 283.28 235.501 281.64C231.782 280.52 227.062 280.174 221.7 280.174H220.46C213.948 280.174 208.616 280.209 205.001 281.71C204.553 281.894 204.12 282.114 203.717 282.345C203.313 282.575 202.94 282.841 202.611 283.13C200.729 284.723 199.699 287.182 199.699 290.969C199.699 291.281 199.699 291.604 199.729 291.939C199.729 292.066 199.729 292.193 199.743 292.309V292.32Z" fill="#F9AB10"/>
<path d="M250.609 289.168C250.609 277.199 237.715 263 221.804 263C205.893 263 193 277.199 193 289.168L232 298.5L250.609 289.168Z" fill="#FFC50C"/>
<mask id="mask0_1430_1376" style="mask-type:alpha" maskUnits="userSpaceOnUse" x="143" y="180" width="60" height="69">
<path d="M202.733 224.792C202.135 233.887 199.524 242.181 195.57 248.827C177.023 245.384 166.577 244.826 147.829 247.16C144.325 239.773 142.553 230.626 143.194 220.872C144.723 197.711 159.286 179.809 175.719 180.893C192.161 181.977 204.242 201.631 202.723 224.792L202.733 224.792Z" fill="white"/>
</mask>
<g mask="url(#mask0_1430_1376)">
<ellipse cx="172.889" cy="222.021" rx="33" ry="44" transform="rotate(2 172.889 222.021)" fill="white"/>
<circle cx="171" cy="242" r="21" fill="#0B1254"/>
<path d="M184.111 227.815C186.531 225.558 190.33 225.691 192.597 228.111C194.853 230.531 194.72 234.33 192.3 236.597C189.881 238.853 186.081 238.72 183.815 236.3C181.558 233.881 181.691 230.082 184.111 227.815Z" fill="white"/>
</g>
<path d="M143.089 222.419C141.858 203.805 152.196 180.272 173.458 180.023C195.872 180.296 205.387 205.233 202.753 224.503C201.836 209.222 196.918 189.37 181.064 183.753C170.303 179.885 159.203 185.131 153.18 194.286C147.882 201.866 144.369 213.299 143.09 222.409L143.089 222.419Z" fill="#0B1254"/>
<mask id="mask1_1430_1376" style="mask-type:alpha" maskUnits="userSpaceOnUse" x="234" y="179" width="61" height="70">
<path d="M294.506 219.583C295.021 228.682 293.44 237.233 290.325 244.311C271.497 243.154 261.061 243.874 242.737 248.475C238.358 241.57 235.485 232.707 234.932 222.948C233.627 199.773 245.901 180.229 262.343 179.303C278.794 178.375 293.181 196.41 294.496 219.584L294.506 219.583Z" fill="white"/>
</mask>
<g mask="url(#mask1_1430_1376)">
<ellipse cx="264.546" cy="220.469" rx="33" ry="44" transform="rotate(-5 264.546 220.469)" fill="white"/>
<circle cx="266" cy="240" r="21" fill="#0B1254"/>
<path d="M276.901 224.641C279.027 222.107 282.815 221.775 285.359 223.901C287.894 226.028 288.225 229.815 286.099 232.36C283.973 234.894 280.186 235.225 277.641 233.1C275.106 230.973 274.775 227.186 276.901 224.641Z" fill="white"/>
</g>
<path d="M235.018 224.496C231.527 206.171 238.92 181.553 259.992 178.715C282.273 176.254 294.756 199.846 294.49 219.293C291.718 204.237 284.417 185.133 267.997 181.49C256.844 178.962 246.467 185.522 241.604 195.343C237.27 203.512 235.176 215.287 235.017 224.486L235.018 224.496Z" fill="#0B1254"/>
<path d="M77.2816 419.182C105.392 412.112 135.912 397.352 134.962 382.552C134.012 367.752 101.952 358.522 73.8416 365.592C45.7316 372.662 40.0816 356.072 36.2216 371.962C37.1716 386.762 49.1716 426.252 77.2916 419.182H77.2816Z" fill="#5992F8"/>
<path d="M73.8416 365.592C101.952 358.522 134.012 367.752 134.962 382.552C135.062 384.172 134.792 385.782 134.192 387.392C127.612 389.882 120.702 392.032 113.922 393.732C85.8116 400.802 62.9116 383.842 61.9616 369.042C61.9216 368.482 61.9216 367.932 61.9516 367.402C65.3916 367.252 69.3316 366.732 73.8416 365.592Z" fill="#2A5AC0"/>
<path d="M88.9316 396.102C117.042 389.032 147.562 374.272 146.612 359.472C145.662 344.672 113.602 335.442 85.4916 342.512C57.3816 349.582 36.0216 356.612 36.9716 371.412C37.9216 386.212 60.8216 403.172 88.9316 396.102Z" fill="#5992F8"/>
<path d="M84.7216 381.144C56.8416 388.154 38.4216 382.442 37.1916 367.832C39.6716 355.432 59.7416 348.992 85.4816 342.522C107.792 336.912 132.592 341.572 142.352 351.132C140.802 365.292 111.652 374.374 84.7216 381.144Z" fill="#2A5AC0"/>
<path d="M84.4341 375.023C111.052 361.521 154.942 339.004 151.135 322.08C147.329 305.156 104.412 306.434 77.784 319.936C51.1654 333.427 32.6692 358.099 36.4753 375.023C40.2815 391.947 57.816 388.525 84.4341 375.023Z" fill="#5992F8"/>
<path d="M371.742 423.625C339.132 415.423 303.727 408.205 304.829 391.036C305.931 373.867 343.123 363.159 375.733 371.361C408.343 379.563 414.897 360.317 419.375 378.751C418.273 395.92 404.364 431.827 371.742 423.625Z" fill="#5992F8"/>
<path d="M375.745 371.361C343.135 363.159 305.943 373.867 304.841 391.036C304.725 392.915 305.038 394.783 305.734 396.651C313.367 399.54 321.395 402.034 329.249 404.006C361.859 412.208 388.424 392.533 389.538 375.363C389.584 374.714 389.584 374.076 389.55 373.461C385.559 373.287 380.988 372.684 375.745 371.361Z" fill="#2A5AC0"/>
<path d="M358.227 406.755C325.617 398.553 290.212 381.431 291.314 364.261C292.416 347.092 329.608 336.385 362.218 344.587C394.828 352.788 419.607 360.944 418.505 378.113C417.403 395.282 390.837 414.957 358.216 406.755H358.227Z" fill="#5992F8"/>
<path d="M363.111 394.922C395.455 403.055 416.823 390.908 418.25 373.96C415.373 359.575 392.09 352.104 362.23 344.598C336.348 338.09 307.578 343.496 296.256 354.586C298.054 371.013 331.871 387.08 363.111 394.934V394.922Z" fill="#2A5AC0"/>
<path d="M355.397 389.284C323.471 375.259 278.774 344.215 282.184 324.378C285.595 304.54 333.173 316.793 365.098 330.819C397.024 344.844 422.798 358.913 419.387 378.751C415.976 398.588 387.322 403.31 355.397 389.284Z" fill="#5992F8"/>
<path d="M145.375 178.262C148.925 184.212 151.61 174.21 159.5 169.5C167.38 164.8 177.475 167.172 173.925 161.222C170.375 155.272 161.105 154.252 153.225 158.962C145.345 163.662 141.835 172.302 145.385 178.262H145.375Z" fill="#4AAEE2"/>
<path d="M296.526 179.286C293.046 184.706 294.511 178.46 286.781 173.5C279.051 168.54 265.066 166.756 268.546 161.326C272.026 155.906 281.116 155.526 288.836 160.486C296.566 165.446 300.006 173.866 296.516 179.286H296.526Z" fill="#4AAEE2"/>
<path d="M211.328 276.79C208.607 275.611 209.791 271.149 213.753 269.359C219.068 266.957 229.352 269.156 231.386 271.386C233.42 273.615 232.449 279.107 228.961 278.817C225.473 278.527 214.048 277.97 211.328 276.79Z" fill="#FFD523"/>
</svg>
