<svg width="144" height="143" viewBox="0 0 144 143" fill="none" xmlns="http://www.w3.org/2000/svg">
<g id="Gold_Star">
<path id="Vector" d="M65.7592 2.32523L51.3716 14.8532H72.0052V8.02012e-05C69.7784 -0.00711841 67.5492 0.767932 65.7592 2.32523Z" fill="#FDF0BC"/>
<path id="Vector_2" d="M78.1712 2.31078C76.4004 0.77748 74.2048 0.00722912 72.0068 3.05176e-05V14.8532H92.6404L78.1712 2.31078Z" fill="url(#paint0_linear_1621_3166)"/>
<path id="Vector_3" d="M21.8154 22.8657L18.8472 41.7117L34.6529 28.4494L25.1052 17.0708C23.3943 18.4962 22.1849 20.5238 21.8154 22.8657Z" fill="#FDF0BC"/>
<path id="Vector_4" d="M31.3136 14.8774C28.9716 14.839 26.7928 15.662 25.106 17.0705L34.6537 28.4491L50.4594 15.1869L31.3136 14.8774Z" fill="url(#paint1_linear_1621_3166)"/>
<path id="Vector_5" d="M1.3555 66.8491L11.1936 83.1948L14.7761 62.8755L0.150931 60.2936C-0.244992 62.4868 0.131735 64.8167 1.3555 66.8491Z" fill="#FDF0BC"/>
<path id="Vector_6" d="M3.49485 54.6232C1.67841 56.1013 0.538627 58.1313 0.149902 60.2933L14.7775 62.8728L18.36 42.5535L3.49485 54.6232Z" fill="url(#paint2_linear_1621_3166)"/>
<path id="Vector_7" d="M13.9543 113.693L31.9989 119.888L21.6832 102.019L8.81934 109.445C9.92552 111.379 11.7108 112.922 13.9543 113.693Z" fill="url(#paint3_linear_1621_3166)"/>
<path id="Vector_8" d="M7.73494 102.952C7.29102 105.251 7.72294 107.54 8.81473 109.448L21.6786 102.021L11.363 84.1518L7.73494 102.952Z" fill="url(#paint4_linear_1621_3166)"/>
<path id="Vector_9" d="M53.7123 141.48L71.5169 134.629L52.1286 127.572L47.0488 141.53C49.1388 142.298 51.5 142.331 53.7123 141.48Z" fill="url(#paint5_linear_1621_3166)"/>
<path id="Vector_10" d="M42.0471 137.247C43.1845 139.293 44.9865 140.769 47.0501 141.527L52.1299 127.569L32.7417 120.512L42.0471 137.247Z" fill="url(#paint6_linear_1621_3166)"/>
<path id="Vector_11" d="M102.037 137.208L111.273 120.515L91.8843 127.572L96.9641 141.53C99.0565 140.774 100.887 139.284 102.037 137.208Z" fill="url(#paint7_linear_1621_3166)"/>
<path id="Vector_12" d="M90.3764 141.465C92.5648 142.302 94.8923 142.273 96.9607 141.527L91.8809 127.569L72.4927 134.626L90.3764 141.465Z" fill="url(#paint8_linear_1621_3166)"/>
<path id="Vector_13" d="M136.302 102.875L132.648 84.1518L122.332 102.021L135.196 109.448C136.314 107.521 136.758 105.203 136.302 102.875Z" fill="url(#paint9_linear_1621_3166)"/>
<path id="Vector_14" d="M130.111 113.63C132.323 112.865 134.089 111.346 135.195 109.445L122.331 102.019L112.016 119.888L130.111 113.63Z" fill="url(#paint10_linear_1621_3166)"/>
<path id="Vector_15" d="M140.487 54.5464L125.65 42.5535L129.233 62.8728L143.86 60.2933C143.484 58.1001 142.332 56.0389 140.487 54.5464Z" fill="url(#paint11_linear_1621_3166)"/>
<path id="Vector_16" d="M142.655 66.7676C143.86 64.7591 144.236 62.4604 143.86 60.2936L129.232 62.8731L132.814 83.1924L142.655 66.7676Z" fill="url(#paint12_linear_1621_3166)"/>
<path id="Vector_17" d="M112.628 14.8366L93.5537 15.1845L109.359 28.4467L118.907 17.0681C117.206 15.6332 115.001 14.7934 112.628 14.8366Z" fill="url(#paint13_linear_1621_3166)"/>
<path id="Vector_18" d="M122.143 22.8056C121.774 20.4925 120.586 18.4912 118.906 17.0731L109.358 28.4517L125.164 41.714L122.143 22.8056Z" fill="url(#paint14_linear_1621_3166)"/>
<g id="Group">
<path id="Vector_19" d="M72.0055 123.355C99.8352 123.355 122.396 100.795 122.396 72.9649C122.396 45.1351 99.8352 22.5746 72.0055 22.5746C44.1757 22.5746 21.6152 45.1351 21.6152 72.9649C21.6152 100.795 44.1757 123.355 72.0055 123.355Z" fill="url(#paint15_radial_1621_3166)"/>
<path id="Vector_20" d="M72.0051 18.0733C41.6893 18.0733 17.1133 42.6469 17.1133 72.9627C17.1133 103.278 41.6893 127.854 72.0051 127.854C102.321 127.854 126.897 103.278 126.897 72.9627C126.897 42.6469 102.321 18.0733 72.0051 18.0733ZM72.0051 123.348C44.1776 123.348 21.6196 100.79 21.6196 72.9627C21.6196 45.1353 44.1776 22.5772 72.0051 22.5772C99.8325 22.5772 122.391 45.1353 122.391 72.9627C122.391 100.79 99.8325 123.348 72.0051 123.348Z" fill="url(#paint16_linear_1621_3166)"/>
<path id="Vector_21" d="M72.005 11.069C37.8212 11.069 10.1113 38.7789 10.1113 72.9627C10.1113 107.146 37.8212 134.856 72.005 134.856C106.189 134.856 133.899 107.146 133.899 72.9627C133.899 38.7789 106.189 11.069 72.005 11.069ZM72.005 127.828C41.7036 127.828 17.1396 103.264 17.1396 72.9627C17.1396 42.6613 41.7036 18.0997 72.005 18.0997C102.306 18.0997 126.87 42.6637 126.87 72.965C126.87 103.266 102.306 127.828 72.005 127.828Z" fill="url(#paint17_linear_1621_3166)"/>
</g>
<g id="Group_2">
<path id="Vector_22" d="M58.1141 98.2152C57.2743 98.2152 56.4944 97.9465 55.8058 97.4666C55.717 97.4066 55.657 97.3466 55.597 97.2866C55.537 97.2578 55.5058 97.1978 55.477 97.1667C55.3571 97.0755 55.2971 96.9867 55.2083 96.8979C55.1483 96.8379 55.1171 96.7779 55.0595 96.7179L55.0307 96.6891C54.9707 96.6292 54.9395 96.5692 54.9107 96.5092L54.8508 96.418C54.7308 96.238 54.642 96.0581 54.5508 95.8781C54.522 95.7893 54.4908 95.6981 54.4596 95.6094C54.4308 95.5182 54.3996 95.4006 54.3708 95.3094C54.3397 95.1894 54.3109 95.0407 54.2797 94.8895C54.2797 94.8295 54.2509 94.7407 54.2509 94.6807C54.2509 94.5608 54.2221 94.4408 54.2221 94.3208C54.2221 94.112 54.2509 93.9009 54.2821 93.6609L56.5904 80.2331L46.8483 70.731C46.6683 70.551 46.4884 70.3422 46.3396 70.1311C46.1596 69.8623 46.0397 69.6512 45.9509 69.4112C45.9221 69.3224 45.8621 69.2025 45.8309 69.0513C45.7397 68.6914 45.6821 68.3314 45.6821 67.9427C45.6821 67.8227 45.6821 67.7339 45.6821 67.614C45.6821 67.434 45.7109 67.254 45.7709 67.0741C45.7709 67.0453 45.7997 66.9853 45.7997 66.9541C45.8309 66.8629 45.8309 66.7741 45.8597 66.6854C45.8597 66.6566 45.8885 66.5942 45.9197 66.5054C45.9485 66.4142 45.9797 66.3254 46.0397 66.2366C46.1284 66.0567 46.2196 65.8767 46.3684 65.6679C46.4284 65.548 46.5172 65.4592 46.6083 65.368C46.6083 65.368 46.6084 65.3392 46.6371 65.3392L47.1171 64.5594H47.537C47.597 64.5282 47.6258 64.4994 47.6857 64.4682C47.7457 64.4394 47.8657 64.3794 47.9545 64.3194C48.0745 64.2594 48.2232 64.1994 48.4032 64.1394C48.4632 64.1106 48.552 64.0795 48.6432 64.0795C48.7631 64.0507 48.8831 64.0195 49.0319 63.9883L62.5197 62.0398L68.4537 49.9006C69.1136 48.5521 70.4621 47.7122 71.9594 47.7122C73.0392 47.7122 74.0878 48.1609 74.8365 48.9408C74.9565 49.0896 75.0764 49.2095 75.1652 49.3607C75.2852 49.5407 75.4052 49.7206 75.494 49.9006L81.5192 62.0686L94.9758 64.0171C96.4755 64.2258 97.7041 65.2768 98.1528 66.7141C98.184 66.8053 98.2128 66.8629 98.2128 66.9541C98.2128 66.9829 98.2128 66.9829 98.2416 67.0141C98.2704 67.1053 98.3015 67.194 98.3015 67.314C98.3015 67.3428 98.3015 67.3428 98.3015 67.374C98.3303 67.494 98.3303 67.5828 98.3303 67.7028C98.3615 68.2714 98.2703 68.8713 98.0304 69.4112C97.9392 69.6512 97.8216 69.8599 97.6705 70.0711L97.6393 70.0999C97.4905 70.3087 97.3105 70.5198 97.1306 70.6998L87.3885 80.2019L89.6968 93.5985C89.9368 95.0671 89.3681 96.5356 88.1371 97.4354C87.8372 97.6442 87.4772 97.8553 87.1173 97.9753C87.0861 97.9753 87.0573 98.0065 86.9973 98.0065C86.6086 98.1265 86.2175 98.1865 85.8288 98.1865C85.2001 98.1865 84.569 98.0377 84.0003 97.7377L71.9522 91.4126L59.9042 97.7377C59.3715 98.0665 58.7428 98.2152 58.1141 98.2152Z" fill="#DF771E"/>
<path id="Vector_23" d="M71.9611 49.6298V74.417L63.6875 63.8375L70.1614 50.7408C70.5526 50.0209 71.2724 49.6298 71.9611 49.6298Z" fill="#FFFAF6"/>
<path id="Vector_24" d="M96.3263 67.345L71.9878 74.4188L80.259 63.8393L94.7066 65.9365C95.5176 66.0852 96.0863 66.6539 96.3263 67.345Z" fill="#FEE0AC"/>
<path id="Vector_25" d="M87.0055 95.9069L71.9604 74.4167L85.3283 79.5421L87.7854 93.9297C87.9629 94.7696 87.603 95.487 87.0055 95.9069Z" fill="#ECB76B"/>
<path id="Vector_26" d="M71.9611 74.4167V89.253L59.042 96.0557C58.2933 96.4444 57.5135 96.3244 56.9136 95.9069L71.9611 74.4167Z" fill="#F1A341"/>
<path id="Vector_27" d="M80.2326 63.8375L71.959 74.417V49.6298C72.4989 49.6298 73.0388 49.8386 73.4275 50.2585C73.4875 50.3185 73.5475 50.4073 73.6075 50.4985C73.6675 50.5896 73.7274 50.6784 73.7562 50.7672L80.2326 63.8375Z" fill="#FFE9BA"/>
<path id="Vector_28" d="M96.2678 68.6938C96.2078 68.8138 96.1478 68.9338 96.0878 69.0537C95.9966 69.1737 95.9079 69.2625 95.8191 69.3825L85.3595 79.5733L71.9917 74.4479L96.3302 67.3741C96.3302 67.4028 96.359 67.434 96.359 67.4652C96.359 67.4964 96.3902 67.5252 96.3902 67.5852C96.3902 67.6164 96.3902 67.6164 96.3902 67.6164C96.3902 67.6452 96.3902 67.6764 96.3902 67.7052C96.3902 67.7652 96.3902 67.7964 96.3902 67.854C96.419 68.1227 96.3878 68.4227 96.2678 68.6938Z" fill="#E49632"/>
<path id="Vector_29" d="M87.0065 95.9069C86.8577 96.0269 86.6777 96.1157 86.4666 96.1757C86.4378 96.1757 86.4378 96.1757 86.4066 96.2045C85.9267 96.3532 85.3868 96.3244 84.8781 96.0557L71.959 89.253V74.4167L87.0065 95.9069Z" fill="#E29136"/>
<path id="Vector_30" d="M71.9602 74.4167L56.9151 95.9069C56.8863 95.8757 56.8552 95.8469 56.8264 95.8157C56.7976 95.7869 56.7664 95.7558 56.7352 95.7246C56.7064 95.6958 56.6752 95.6646 56.6152 95.6046C56.584 95.5758 56.5552 95.5446 56.524 95.5134C56.4928 95.4822 56.4952 95.4846 56.4952 95.4534C56.4664 95.4246 56.4352 95.3934 56.4352 95.3622C56.3752 95.2735 56.3153 95.1823 56.2865 95.0935C56.2577 95.0647 56.2577 95.0023 56.2265 94.9447C56.1977 94.8847 56.1977 94.8535 56.1665 94.7959C56.1377 94.736 56.1377 94.6472 56.1377 94.5872C56.1377 94.5584 56.1377 94.496 56.1377 94.4672C56.1377 94.4072 56.1377 94.3472 56.1377 94.2872C56.1377 94.1673 56.1377 94.0473 56.1665 93.9273L58.6236 79.5397L71.9602 74.4167Z" fill="#FED891"/>
<path id="Vector_31" d="M71.9601 74.4165L47.6216 67.3427C47.6216 67.3139 47.6504 67.2827 47.6504 67.2515C47.6792 67.1915 47.6792 67.1315 47.7104 67.1027C47.7704 66.9827 47.8303 66.894 47.8903 66.8028C47.9191 66.7428 47.9503 66.7116 48.0103 66.654C48.0415 66.6252 48.0703 66.5628 48.1303 66.534C48.1591 66.5052 48.2215 66.4453 48.2503 66.4141C48.2791 66.3829 48.339 66.3541 48.3702 66.3229C48.4302 66.2941 48.4902 66.2317 48.5502 66.2029C48.579 66.1741 48.639 66.1429 48.699 66.1429C48.7902 66.1141 48.8477 66.0829 48.9389 66.0517C48.9677 66.0517 48.9989 66.0229 49.0589 66.0229C49.1189 65.9941 49.2077 65.9941 49.2989 65.9629L63.7465 63.8658L71.9601 74.4165Z" fill="#FFF3D9"/>
<path id="Vector_32" d="M71.9591 74.4169L58.6224 79.5711L48.1629 69.3802C48.0429 69.2891 47.9829 69.1715 47.8941 69.0515C47.8341 68.9315 47.7454 68.8115 47.7142 68.6916C47.6854 68.6316 47.6542 68.5716 47.6542 68.5116C47.5942 68.3316 47.563 68.1229 47.563 67.9429C47.563 67.8829 47.563 67.8229 47.563 67.763C47.563 67.6742 47.563 67.6142 47.5942 67.523C47.5942 67.4942 47.623 67.463 47.623 67.403C47.623 67.3742 47.6518 67.343 47.6518 67.3142L71.9591 74.4169Z" fill="#ECB76B"/>
</g>
</g>
<defs>
<linearGradient id="paint0_linear_1621_3166" x1="73.0157" y1="7.42659" x2="91.9633" y2="7.42659" gradientUnits="userSpaceOnUse">
<stop stop-color="#FEE998"/>
<stop offset="1" stop-color="#FCC15B"/>
</linearGradient>
<linearGradient id="paint1_linear_1621_3166" x1="30.8753" y1="21.9194" x2="49.7852" y2="6.05087" gradientUnits="userSpaceOnUse">
<stop stop-color="#FEE998"/>
<stop offset="1" stop-color="#FCC15B"/>
</linearGradient>
<linearGradient id="paint2_linear_1621_3166" x1="18.6984" y1="42.511" x2="8.02753" y2="60.0417" gradientUnits="userSpaceOnUse">
<stop stop-color="#FCC15B"/>
<stop offset="1" stop-color="#FEE998"/>
</linearGradient>
<linearGradient id="paint3_linear_1621_3166" x1="13.6843" y1="105.316" x2="32.2314" y2="117.512" gradientUnits="userSpaceOnUse">
<stop stop-color="#FFC05F"/>
<stop offset="1" stop-color="#ED892B"/>
</linearGradient>
<linearGradient id="paint4_linear_1621_3166" x1="11.5746" y1="84.5407" x2="14.8774" y2="105.374" gradientUnits="userSpaceOnUse">
<stop stop-color="#FCC15B"/>
<stop offset="1" stop-color="#FEE998"/>
</linearGradient>
<linearGradient id="paint5_linear_1621_3166" x1="50.5173" y1="134.799" x2="68.8102" y2="138.865" gradientUnits="userSpaceOnUse">
<stop stop-color="#FEAC3E"/>
<stop offset="1" stop-color="#F08223"/>
</linearGradient>
<linearGradient id="paint6_linear_1621_3166" x1="31.8268" y1="120.353" x2="48.5953" y2="134.073" gradientUnits="userSpaceOnUse">
<stop stop-color="#FFA135"/>
<stop offset="1" stop-color="#FEB431"/>
</linearGradient>
<linearGradient id="paint7_linear_1621_3166" x1="111.345" y1="120.395" x2="94.6191" y2="134.792" gradientUnits="userSpaceOnUse">
<stop stop-color="#FFAA3D"/>
<stop offset="1" stop-color="#ED8B1C"/>
</linearGradient>
<linearGradient id="paint8_linear_1621_3166" x1="72.5661" y1="135.962" x2="93.9079" y2="134.777" gradientUnits="userSpaceOnUse">
<stop stop-color="#FF962D"/>
<stop offset="1" stop-color="#E56005"/>
</linearGradient>
<linearGradient id="paint9_linear_1621_3166" x1="133.432" y1="84.2269" x2="129.141" y2="105.117" gradientUnits="userSpaceOnUse">
<stop stop-color="#FDBD41"/>
<stop offset="1" stop-color="#FEB334"/>
</linearGradient>
<linearGradient id="paint10_linear_1621_3166" x1="139.056" y1="87.9047" x2="118.422" y2="123.642" gradientUnits="userSpaceOnUse">
<stop stop-color="#F6942F"/>
<stop offset="1" stop-color="#EA6F11"/>
</linearGradient>
<linearGradient id="paint11_linear_1621_3166" x1="124.615" y1="43.1544" x2="137.036" y2="61.5602" gradientUnits="userSpaceOnUse">
<stop stop-color="#FDBD41"/>
<stop offset="1" stop-color="#FEB334"/>
</linearGradient>
<linearGradient id="paint12_linear_1621_3166" x1="132.041" y1="83.1404" x2="136.897" y2="61.6857" gradientUnits="userSpaceOnUse">
<stop stop-color="#FD9D24"/>
<stop offset="1" stop-color="#FF9515"/>
</linearGradient>
<linearGradient id="paint13_linear_1621_3166" x1="113.894" y1="22.4777" x2="94.6977" y2="13.2183" gradientUnits="userSpaceOnUse">
<stop stop-color="#FCC15B"/>
<stop offset="1" stop-color="#FEE998"/>
</linearGradient>
<linearGradient id="paint14_linear_1621_3166" x1="113.985" y1="21.3021" x2="123.132" y2="41.6276" gradientUnits="userSpaceOnUse">
<stop stop-color="#FF9515"/>
<stop offset="1" stop-color="#FFBE41"/>
</linearGradient>
<radialGradient id="paint15_radial_1621_3166" cx="0" cy="0" r="1" gradientUnits="userSpaceOnUse" gradientTransform="translate(72.0058 72.9639) scale(50.3902)">
<stop offset="0.8428" stop-color="#FAAA31"/>
<stop offset="1" stop-color="#F57E16"/>
</radialGradient>
<linearGradient id="paint16_linear_1621_3166" x1="72.0054" y1="18.0724" x2="72.0054" y2="127.856" gradientUnits="userSpaceOnUse">
<stop offset="0.0226" stop-color="#FD9A18"/>
<stop offset="0.3764" stop-color="#FEC752"/>
<stop offset="1" stop-color="#FFA422"/>
</linearGradient>
<linearGradient id="paint17_linear_1621_3166" x1="72.0053" y1="10.8876" x2="72.0053" y2="134.675" gradientUnits="userSpaceOnUse">
<stop stop-color="#FFDB69"/>
<stop offset="0.1799" stop-color="#FEE7B0"/>
<stop offset="0.24" stop-color="#FEE9BA"/>
<stop offset="0.2592" stop-color="#FDECD0"/>
<stop offset="0.2953" stop-color="#FEDA92"/>
<stop offset="0.3254" stop-color="#FFCD64"/>
<stop offset="0.3405" stop-color="#FFC853"/>
<stop offset="0.7613" stop-color="#FF9114"/>
<stop offset="1" stop-color="#F57E16"/>
</linearGradient>
</defs>
</svg>
