<svg width="3341" height="3382" viewBox="0 0 3341 3382" fill="none" xmlns="http://www.w3.org/2000/svg">
<path d="M1819.62 3380.03L1819.63 280.025" stroke="#7A7A7A" stroke-width="2" stroke-linecap="round"/>
<path d="M20 2731H3085" stroke="#7A7A7A" stroke-width="2" stroke-linecap="round"/>
<path d="M20 3330H3085" stroke="#7A7A7A" stroke-width="2" stroke-linecap="round"/>
<path d="M20 2430H3085" stroke="#7A7A7A" stroke-width="2" stroke-linecap="round"/>
<path d="M20 2130H3085" stroke="#7A7A7A" stroke-width="2" stroke-linecap="round"/>
<path d="M20 1831L3085 1831" stroke="#7A7A7A" stroke-width="2" stroke-linecap="round"/>
<path d="M20 1531L3085 1531" stroke="#7A7A7A" stroke-width="2" stroke-linecap="round"/>
<path d="M20 1231L3085 1231" stroke="#7A7A7A" stroke-width="2" stroke-linecap="round"/>
<path d="M20 931L3085 931" stroke="#7A7A7A" stroke-width="2" stroke-linecap="round"/>
<path d="M20 632L3085 632" stroke="#7A7A7A" stroke-width="2" stroke-linecap="round"/>
<path d="M20 332L3085 332" stroke="#7A7A7A" stroke-width="2" stroke-linecap="round"/>
<path d="M1219.62 3380.03L1219.63 280.025" stroke="#7A7A7A" stroke-width="2" stroke-linecap="round"/>
<path d="M921.625 3380.03L921.625 280.025" stroke="#7A7A7A" stroke-width="2" stroke-linecap="round"/>
<path d="M621.625 3380.03L621.625 280.025" stroke="#7A7A7A" stroke-width="2" stroke-linecap="round"/>
<path d="M321.625 3380.03L321.625 280.025" stroke="#7A7A7A" stroke-width="2" stroke-linecap="round"/>
<path d="M71.625 3380.03L71.625 280.025" stroke="#7A7A7A" stroke-width="2" stroke-linecap="round"/>
<path d="M2119.62 3380.03L2119.63 280.025" stroke="#7A7A7A" stroke-width="2" stroke-linecap="round"/>
<path d="M2420.62 3380.03L2420.63 280.025" stroke="#7A7A7A" stroke-width="2" stroke-linecap="round"/>
<path d="M2720.62 3380.03L2720.63 280.025" stroke="#7A7A7A" stroke-width="2" stroke-linecap="round"/>
<path d="M3020.62 3380.03L3020.63 280.025" stroke="#7A7A7A" stroke-width="2" stroke-linecap="round"/>
<path fill-rule="evenodd" clip-rule="evenodd" d="M20 3031.69H3180Z" fill="#00000B"/>
<path d="M20 3031.69H3180" stroke="black" stroke-width="8.76532" stroke-linecap="round"/>
<path fill-rule="evenodd" clip-rule="evenodd" d="M1523 153L1521.93 3334.27L1523 153Z" fill="#00000B"/>
<path d="M1523 153L1521.93 3334.27" stroke="black" stroke-width="8.76532" stroke-linecap="round"/>
<path d="M3223.58 3047.26C3188.91 3058.27 3166.43 3068.29 3138.65 3079.91L3137.11 2973.67C3147.16 2978.27 3187.99 2993.84 3222.96 3003.86C3260.41 3014.58 3294.31 3021.79 3316.27 3024.21C3294.36 3027.26 3260.69 3035.47 3223.58 3047.26Z" fill="#00000B"/>
<path d="M1542.12 173.059C1553.13 207.723 1563.15 230.208 1574.77 257.986L1468.52 259.526C1473.12 249.474 1488.7 208.65 1498.71 173.674C1509.43 136.224 1516.65 102.324 1519.07 80.3652C1522.12 102.273 1530.33 135.948 1542.12 173.059Z" fill="#00000B"/>
<path d="M1403.23 225.273C1400.5 225.273 1398.07 225.045 1395.94 224.591C1393.8 224.182 1392.32 223.773 1391.5 223.364L1395.6 209.182C1399.5 210.182 1402.96 210.545 1405.96 210.273C1408.96 210 1411.62 208.659 1413.94 206.25C1416.3 203.886 1418.46 200.045 1420.41 194.727L1423.41 186.545L1384.69 81.2727H1402.14L1431.05 164.727H1432.14L1461.05 81.2727H1478.5L1434.05 201.273C1432.05 206.682 1429.57 211.159 1426.62 214.705C1423.66 218.295 1420.23 220.955 1416.32 222.682C1412.46 224.409 1408.1 225.273 1403.23 225.273Z" fill="black"/>
<path d="M3262.77 3090.32L3287.86 3133.14L3312.95 3090.32H3331.49L3297.68 3142.68L3331.49 3195.05H3312.95L3287.86 3154.41L3262.77 3195.05H3244.22L3277.49 3142.68L3244.22 3090.32H3262.77Z" fill="black"/>
<path d="M1820.18 2998.01V3059.19" stroke="black" stroke-width="9.6" stroke-linecap="round"/>
<path d="M2120.05 2998.01V3059.19" stroke="black" stroke-width="9.6" stroke-linecap="round"/>
<path d="M2420.93 2998.01V3059.19" stroke="black" stroke-width="9.6" stroke-linecap="round"/>
<path d="M2720.8 2998.01V3059.19" stroke="black" stroke-width="9.6" stroke-linecap="round"/>
<path d="M3020.67 2998.01V3059.19" stroke="black" stroke-width="9.6" stroke-linecap="round"/>
<path d="M1824.35 3106.85V3176.67H1815.89V3115.72H1815.48L1798.44 3127.03V3118.44L1815.89 3106.85H1824.35Z" fill="black"/>
<path d="M2098.05 3176.67V3170.53L2121.09 3145.31C2123.8 3142.35 2126.02 3139.78 2127.77 3137.6C2129.52 3135.4 2130.82 3133.33 2131.66 3131.4C2132.52 3129.44 2132.96 3127.4 2132.96 3125.26C2132.96 3122.81 2132.37 3120.68 2131.18 3118.89C2130.02 3117.09 2128.43 3115.7 2126.41 3114.73C2124.39 3113.75 2122.12 3113.26 2119.59 3113.26C2116.91 3113.26 2114.57 3113.82 2112.57 3114.93C2110.59 3116.02 2109.06 3117.56 2107.97 3119.53C2106.9 3121.51 2106.37 3123.83 2106.37 3126.49H2098.32C2098.32 3122.4 2099.26 3118.81 2101.15 3115.72C2103.04 3112.62 2105.6 3110.22 2108.85 3108.49C2112.13 3106.76 2115.8 3105.9 2119.87 3105.9C2123.96 3105.9 2127.58 3106.76 2130.74 3108.49C2133.9 3110.22 2136.38 3112.54 2138.17 3115.48C2139.97 3118.41 2140.87 3121.67 2140.87 3125.26C2140.87 3127.83 2140.4 3130.34 2139.47 3132.79C2138.56 3135.23 2136.97 3137.94 2134.7 3140.94C2132.45 3143.92 2129.32 3147.56 2125.32 3151.85L2109.64 3168.62V3169.17H2142.09V3176.67H2098.05Z" fill="black"/>
<path d="M2421.42 3176.27C2416.92 3176.27 2412.91 3175.49 2409.39 3173.95C2405.89 3172.4 2403.1 3170.25 2401.03 3167.5C2398.99 3164.73 2397.87 3161.52 2397.69 3157.86H2406.28C2406.47 3160.11 2407.24 3162.05 2408.6 3163.69C2409.97 3165.3 2411.75 3166.55 2413.95 3167.44C2416.16 3168.32 2418.6 3168.77 2421.28 3168.77C2424.28 3168.77 2426.94 3168.24 2429.26 3167.2C2431.58 3166.15 2433.4 3164.7 2434.72 3162.83C2436.03 3160.97 2436.69 3158.81 2436.69 3156.36C2436.69 3153.79 2436.06 3151.53 2434.78 3149.57C2433.51 3147.59 2431.65 3146.05 2429.19 3144.94C2426.74 3143.82 2423.74 3143.27 2420.19 3143.27H2414.6V3135.77H2420.19C2422.97 3135.77 2425.4 3135.27 2427.49 3134.27C2429.6 3133.27 2431.25 3131.86 2432.43 3130.04C2433.64 3128.22 2434.24 3126.08 2434.24 3123.63C2434.24 3121.27 2433.72 3119.21 2432.67 3117.46C2431.62 3115.71 2430.15 3114.34 2428.24 3113.37C2426.35 3112.39 2424.12 3111.9 2421.56 3111.9C2419.15 3111.9 2416.87 3112.34 2414.74 3113.23C2412.62 3114.09 2410.9 3115.36 2409.56 3117.02C2408.22 3118.65 2407.49 3120.63 2407.37 3122.95H2399.19C2399.33 3119.29 2400.43 3116.08 2402.5 3113.33C2404.57 3110.56 2407.27 3108.4 2410.61 3106.86C2413.98 3105.31 2417.67 3104.54 2421.69 3104.54C2426.01 3104.54 2429.72 3105.41 2432.81 3107.16C2435.9 3108.89 2438.27 3111.17 2439.93 3114.02C2441.59 3116.86 2442.42 3119.92 2442.42 3123.22C2442.42 3127.15 2441.39 3130.5 2439.32 3133.28C2437.27 3136.05 2434.49 3137.97 2430.97 3139.04V3139.58C2435.37 3140.31 2438.82 3142.19 2441.29 3145.21C2443.77 3148.21 2445.01 3151.92 2445.01 3156.36C2445.01 3160.15 2443.98 3163.56 2441.91 3166.58C2439.86 3169.58 2437.07 3171.95 2433.52 3173.67C2429.98 3175.4 2425.94 3176.27 2421.42 3176.27Z" fill="black"/>
<path d="M2685.97 3162.35V3155.4L2716.66 3106.85H2721.7V3117.62H2718.29L2695.11 3154.31V3154.85H2736.43V3162.35H2685.97ZM2718.84 3176.67V3160.24V3157V3106.85H2726.88V3176.67H2718.84Z" fill="black"/>
<path d="M3016.54 3176.27C3012.54 3176.27 3008.94 3175.47 3005.73 3173.88C3002.53 3172.29 2999.96 3170.11 2998.03 3167.33C2996.09 3164.56 2995.04 3161.4 2994.86 3157.86H3003.04C3003.36 3161.02 3004.79 3163.63 3007.33 3165.7C3009.9 3167.74 3012.97 3168.77 3016.54 3168.77C3019.4 3168.77 3021.95 3168.09 3024.17 3166.75C3026.42 3165.41 3028.19 3163.57 3029.46 3161.23C3030.75 3158.87 3031.4 3156.2 3031.4 3153.22C3031.4 3150.17 3030.73 3147.46 3029.39 3145.07C3028.07 3142.66 3026.25 3140.77 3023.94 3139.38C3021.62 3137.99 3018.97 3137.29 3015.99 3137.27C3013.86 3137.24 3011.66 3137.57 3009.41 3138.25C3007.16 3138.91 3005.31 3139.77 3003.86 3140.81L2995.95 3139.86L3000.17 3105.49H3036.45V3112.99H3007.26L3004.81 3133.58H3005.22C3006.65 3132.45 3008.45 3131.5 3010.61 3130.75C3012.76 3130 3015.01 3129.63 3017.36 3129.63C3021.63 3129.63 3025.44 3130.65 3028.78 3132.7C3032.14 3134.72 3034.78 3137.49 3036.69 3141.02C3038.62 3144.54 3039.58 3148.56 3039.58 3153.08C3039.58 3157.54 3038.58 3161.52 3036.58 3165.02C3034.61 3168.49 3031.88 3171.24 3028.4 3173.27C3024.92 3175.27 3020.97 3176.27 3016.54 3176.27Z" fill="black"/>
<path d="M1465.14 3129.79C1460 3129.79 1455.63 3128.39 1452.02 3125.59C1448.4 3122.78 1445.64 3118.7 1443.73 3113.35C1441.82 3107.99 1440.87 3101.51 1440.87 3093.92C1440.87 3086.38 1441.82 3079.93 1443.73 3074.59C1445.66 3069.23 1448.44 3065.14 1452.05 3062.32C1455.69 3059.48 1460.05 3058.06 1465.14 3058.06C1470.23 3058.06 1474.58 3059.48 1478.2 3062.32C1481.83 3065.14 1484.61 3069.23 1486.52 3074.59C1488.45 3079.93 1489.41 3086.38 1489.41 3093.92C1489.41 3101.51 1488.46 3107.99 1486.55 3113.35C1484.64 3118.7 1481.88 3122.78 1478.27 3125.59C1474.65 3128.39 1470.28 3129.79 1465.14 3129.79ZM1465.14 3122.29C1470.23 3122.29 1474.19 3119.83 1477 3114.92C1479.82 3110.01 1481.23 3103.01 1481.23 3093.92C1481.23 3087.88 1480.58 3082.73 1479.29 3078.48C1478.02 3074.23 1476.17 3070.99 1473.77 3068.76C1471.38 3066.54 1468.5 3065.42 1465.14 3065.42C1460.1 3065.42 1456.15 3067.91 1453.31 3072.89C1450.47 3077.84 1449.05 3084.85 1449.05 3093.92C1449.05 3099.97 1449.69 3105.1 1450.96 3109.33C1452.23 3113.56 1454.06 3116.78 1456.45 3118.98C1458.86 3121.18 1461.75 3122.29 1465.14 3122.29Z" fill="black"/>
<path d="M37.9418 3146.16V3153.66H7.39631V3146.16H37.9418ZM73.7798 3185.78C69.7798 3185.78 66.1776 3184.98 62.973 3183.39C59.7685 3181.8 57.2003 3179.62 55.2685 3176.84C53.3366 3174.07 52.2798 3170.91 52.098 3167.37H60.2798C60.598 3170.53 62.0298 3173.14 64.5753 3175.21C67.1435 3177.25 70.2116 3178.28 73.7798 3178.28C76.6435 3178.28 79.1889 3177.61 81.4162 3176.27C83.6662 3174.92 85.4276 3173.08 86.7003 3170.74C87.9957 3168.38 88.6435 3165.71 88.6435 3162.73C88.6435 3159.69 87.973 3156.97 86.6321 3154.58C85.3139 3152.17 83.4957 3150.28 81.1776 3148.89C78.8594 3147.5 76.2116 3146.8 73.2344 3146.78C71.098 3146.75 68.9048 3147.08 66.6548 3147.77C64.4048 3148.42 62.5526 3149.28 61.098 3150.32L53.1889 3149.37L57.4162 3115H93.6889V3122.5H64.5071L62.0526 3143.09H62.4616C63.8935 3141.96 65.6889 3141.02 67.848 3140.27C70.0071 3139.52 72.2571 3139.14 74.598 3139.14C78.8707 3139.14 82.6776 3140.16 86.0185 3142.21C89.3821 3144.23 92.0185 3147 93.9276 3150.53C95.8594 3154.05 96.8253 3158.07 96.8253 3162.59C96.8253 3167.05 95.8253 3171.03 93.8253 3174.53C91.848 3178 89.1207 3180.75 85.6435 3182.78C82.1662 3184.78 78.2116 3185.78 73.7798 3185.78Z" fill="black"/>
<path d="M307.321 3147.52V3155.02H276.775V3147.52H307.321ZM319.704 3171.86V3164.91L350.386 3116.36H355.431V3127.14H352.022L328.841 3163.82V3164.36H370.159V3171.86H319.704ZM352.568 3186.18V3169.75V3166.51V3116.36H360.613V3186.18H352.568Z" fill="black"/>
<path d="M606.102 3146.16V3153.66H575.556V3146.16H606.102ZM642.588 3185.78C638.088 3185.78 634.076 3185 630.554 3183.46C627.054 3181.91 624.27 3179.77 622.201 3177.02C620.156 3174.24 619.042 3171.03 618.86 3167.37H627.451C627.633 3169.62 628.406 3171.56 629.77 3173.2C631.133 3174.81 632.917 3176.06 635.122 3176.95C637.326 3177.83 639.77 3178.28 642.451 3178.28C645.451 3178.28 648.11 3177.75 650.429 3176.71C652.747 3175.66 654.565 3174.21 655.883 3172.34C657.201 3170.48 657.86 3168.32 657.86 3165.87C657.86 3163.3 657.224 3161.04 655.951 3159.08C654.679 3157.11 652.815 3155.56 650.36 3154.45C647.906 3153.33 644.906 3152.78 641.36 3152.78H635.77V3145.28H641.36C644.133 3145.28 646.565 3144.78 648.656 3143.78C650.77 3142.78 652.417 3141.37 653.599 3139.55C654.804 3137.73 655.406 3135.59 655.406 3133.14C655.406 3130.78 654.883 3128.72 653.838 3126.97C652.792 3125.22 651.315 3123.86 649.406 3122.88C647.52 3121.9 645.292 3121.41 642.724 3121.41C640.315 3121.41 638.042 3121.86 635.906 3122.74C633.792 3123.61 632.065 3124.87 630.724 3126.53C629.383 3128.16 628.656 3130.14 628.542 3132.46H620.36C620.497 3128.8 621.599 3125.59 623.667 3122.84C625.735 3120.07 628.44 3117.91 631.781 3116.37C635.145 3114.82 638.838 3114.05 642.86 3114.05C647.179 3114.05 650.883 3114.92 653.974 3116.67C657.065 3118.4 659.44 3120.69 661.099 3123.53C662.758 3126.37 663.588 3129.44 663.588 3132.73C663.588 3136.66 662.554 3140.02 660.485 3142.79C658.44 3145.56 655.656 3147.48 652.133 3148.55V3149.09C656.542 3149.82 659.985 3151.7 662.463 3154.72C664.94 3157.72 666.179 3161.44 666.179 3165.87C666.179 3169.66 665.145 3173.07 663.076 3176.09C661.031 3179.09 658.235 3181.46 654.69 3183.19C651.145 3184.91 647.11 3185.78 642.588 3185.78Z" fill="black"/>
<path d="M911.883 3147.52V3155.02H881.338V3147.52H911.883ZM922.622 3186.18V3180.05L945.667 3154.82C948.372 3151.86 950.599 3149.3 952.349 3147.11C954.099 3144.91 955.395 3142.84 956.235 3140.91C957.099 3138.95 957.531 3136.91 957.531 3134.77C957.531 3132.32 956.94 3130.19 955.758 3128.4C954.599 3126.6 953.008 3125.22 950.985 3124.24C948.963 3123.26 946.69 3122.77 944.167 3122.77C941.485 3122.77 939.145 3123.33 937.145 3124.44C935.167 3125.53 933.633 3127.07 932.542 3129.05C931.474 3131.02 930.94 3133.34 930.94 3136H922.895C922.895 3131.91 923.838 3128.32 925.724 3125.23C927.61 3122.14 930.179 3119.73 933.429 3118C936.701 3116.27 940.372 3115.41 944.44 3115.41C948.531 3115.41 952.156 3116.27 955.315 3118C958.474 3119.73 960.951 3122.06 962.747 3124.99C964.542 3127.92 965.44 3131.18 965.44 3134.77C965.44 3137.34 964.974 3139.85 964.042 3142.31C963.133 3144.74 961.542 3147.45 959.27 3150.45C957.02 3153.43 953.895 3157.07 949.895 3161.36L934.213 3178.14V3178.68H966.667V3186.18H922.622Z" fill="black"/>
<path d="M1207.2 3147.52V3155.02H1176.65V3147.52H1207.2ZM1245.76 3116.36V3186.18H1237.31V3125.23H1236.9L1219.85 3136.55V3127.95L1237.31 3116.36H1245.76Z" fill="black"/>
<path d="M71.6562 2995.95V3057.13" stroke="black" stroke-width="9.6" stroke-linecap="round"/>
<path d="M321.531 2995.95V3057.13" stroke="black" stroke-width="9.6" stroke-linecap="round"/>
<path d="M621.406 2995.95V3057.13" stroke="black" stroke-width="9.6" stroke-linecap="round"/>
<path d="M921.277 2995.95V3057.13" stroke="black" stroke-width="9.6" stroke-linecap="round"/>
<path d="M1220.15 2995.95V3057.13" stroke="black" stroke-width="9.6" stroke-linecap="round"/>
<path d="M1550.85 2130.5H1489.67" stroke="black" stroke-width="9.6" stroke-linecap="round"/>
<path d="M1550.85 2730.25H1489.67" stroke="black" stroke-width="9.6" stroke-linecap="round"/>
<path d="M1554.05 3329.82H1492.87" stroke="black" stroke-width="9.6" stroke-linecap="round"/>
<path d="M1426.62 2692.37V2762.19H1418.17V2701.23H1417.76L1400.72 2712.55V2703.96L1418.17 2692.37H1426.62Z" fill="black"/>
<path d="M1396.59 2463.45V2457.31L1419.64 2432.08C1422.34 2429.13 1424.57 2426.56 1426.32 2424.38C1428.07 2422.17 1429.37 2420.1 1430.21 2418.17C1431.07 2416.22 1431.5 2414.17 1431.5 2412.04C1431.5 2409.58 1430.91 2407.46 1429.73 2405.66C1428.57 2403.87 1426.98 2402.48 1424.96 2401.5C1422.94 2400.52 1420.66 2400.04 1418.14 2400.04C1415.46 2400.04 1413.12 2400.59 1411.12 2401.71C1409.14 2402.8 1407.61 2404.33 1406.51 2406.31C1405.45 2408.29 1404.91 2410.6 1404.91 2413.26H1396.87C1396.87 2409.17 1397.81 2405.58 1399.7 2402.49C1401.58 2399.4 1404.15 2396.99 1407.4 2395.26C1410.67 2393.54 1414.34 2392.67 1418.41 2392.67C1422.5 2392.67 1426.13 2393.54 1429.29 2395.26C1432.45 2396.99 1434.92 2399.32 1436.72 2402.25C1438.51 2405.18 1439.41 2408.45 1439.41 2412.04C1439.41 2414.6 1438.95 2417.12 1438.01 2419.57C1437.11 2422 1435.51 2424.72 1433.24 2427.72C1430.99 2430.7 1427.87 2434.33 1423.87 2438.63L1408.19 2455.4V2455.95H1440.64V2463.45H1396.59Z" fill="black"/>
<path d="M1416.9 2167.55C1412.4 2167.55 1408.39 2166.78 1404.87 2165.23C1401.37 2163.68 1398.59 2161.54 1396.52 2158.79C1394.47 2156.01 1393.36 2152.8 1393.18 2149.14H1401.77C1401.95 2151.39 1402.72 2153.33 1404.09 2154.97C1405.45 2156.58 1407.23 2157.83 1409.44 2158.72C1411.64 2159.61 1414.09 2160.05 1416.77 2160.05C1419.77 2160.05 1422.43 2159.53 1424.75 2158.48C1427.06 2157.43 1428.88 2155.98 1430.2 2154.12C1431.52 2152.25 1432.18 2150.09 1432.18 2147.64C1432.18 2145.07 1431.54 2142.81 1430.27 2140.86C1429 2138.88 1427.13 2137.33 1424.68 2136.22C1422.22 2135.11 1419.22 2134.55 1415.68 2134.55H1410.09V2127.05H1415.68C1418.45 2127.05 1420.88 2126.55 1422.97 2125.55C1425.09 2124.55 1426.73 2123.14 1427.92 2121.32C1429.12 2119.5 1429.72 2117.37 1429.72 2114.91C1429.72 2112.55 1429.2 2110.49 1428.15 2108.74C1427.11 2106.99 1425.63 2105.63 1423.72 2104.65C1421.84 2103.67 1419.61 2103.18 1417.04 2103.18C1414.63 2103.18 1412.36 2103.63 1410.22 2104.51C1408.11 2105.38 1406.38 2106.64 1405.04 2108.3C1403.7 2109.93 1402.97 2111.91 1402.86 2114.23H1394.68C1394.81 2110.57 1395.92 2107.37 1397.98 2104.62C1400.05 2101.84 1402.76 2099.68 1406.1 2098.14C1409.46 2096.59 1413.15 2095.82 1417.18 2095.82C1421.5 2095.82 1425.2 2096.7 1428.29 2098.45C1431.38 2100.17 1433.76 2102.46 1435.42 2105.3C1437.07 2108.14 1437.9 2111.21 1437.9 2114.5C1437.9 2118.43 1436.87 2121.79 1434.8 2124.56C1432.76 2127.33 1429.97 2129.25 1426.45 2130.32V2130.87C1430.86 2131.59 1434.3 2133.47 1436.78 2136.49C1439.26 2139.49 1440.5 2143.21 1440.5 2147.64C1440.5 2151.43 1439.46 2154.84 1437.39 2157.87C1435.35 2160.87 1432.55 2163.23 1429.01 2164.96C1425.46 2166.68 1421.43 2167.55 1416.9 2167.55Z" fill="black"/>
<path d="M1394.3 1845.88V1838.92L1424.98 1790.38H1430.03V1801.15H1426.62L1403.44 1837.83V1838.38H1444.76V1845.88H1394.3ZM1427.17 1860.2V1843.77V1840.53V1790.38H1435.21V1860.2H1427.17Z" fill="black"/>
<path d="M1551.89 1832.2H1490.71" stroke="black" stroke-width="9.6" stroke-linecap="round"/>
<path d="M1406.88 3300.78V3308.28H1376.33V3300.78H1406.88ZM1445.44 3269.62V3339.44H1436.99V3278.48H1436.58L1419.53 3289.8V3281.21L1436.99 3269.62H1445.44Z" fill="black"/>
<path d="M1551.26 2429.94H1490.07" stroke="black" stroke-width="9.6" stroke-linecap="round"/>
<path d="M1418.35 1566.91C1414.35 1566.91 1410.75 1566.11 1407.54 1564.52C1404.34 1562.93 1401.77 1560.75 1399.84 1557.98C1397.91 1555.21 1396.85 1552.05 1396.67 1548.5H1404.85C1405.17 1551.66 1406.6 1554.27 1409.15 1556.34C1411.71 1558.39 1414.78 1559.41 1418.35 1559.41C1421.21 1559.41 1423.76 1558.74 1425.99 1557.4C1428.24 1556.06 1430 1554.22 1431.27 1551.88C1432.57 1549.51 1433.21 1546.84 1433.21 1543.86C1433.21 1540.82 1432.54 1538.1 1431.2 1535.72C1429.88 1533.31 1428.07 1531.41 1425.75 1530.02C1423.43 1528.64 1420.78 1527.93 1417.8 1527.91C1415.67 1527.89 1413.48 1528.22 1411.23 1528.9C1408.98 1529.56 1407.12 1530.41 1405.67 1531.46L1397.76 1530.5L1401.99 1496.14H1438.26V1503.64H1409.08L1406.62 1524.23H1407.03C1408.46 1523.09 1410.26 1522.15 1412.42 1521.4C1414.58 1520.65 1416.83 1520.27 1419.17 1520.27C1423.44 1520.27 1427.25 1521.3 1430.59 1523.34C1433.95 1525.36 1436.59 1528.14 1438.5 1531.66C1440.43 1535.18 1441.4 1539.21 1441.4 1543.73C1441.4 1548.18 1440.4 1552.16 1438.4 1555.66C1436.42 1559.14 1433.69 1561.89 1430.21 1563.91C1426.74 1565.91 1422.78 1566.91 1418.35 1566.91Z" fill="black"/>
<path d="M1553.89 1530.96H1492.71" stroke="black" stroke-width="9.6" stroke-linecap="round"/>
<path d="M1417.21 1266.91C1414.35 1266.86 1411.49 1266.32 1408.62 1265.27C1405.76 1264.23 1403.15 1262.47 1400.78 1259.99C1398.42 1257.49 1396.52 1254.11 1395.09 1249.86C1393.66 1245.59 1392.94 1240.23 1392.94 1233.77C1392.94 1227.59 1393.52 1222.11 1394.68 1217.34C1395.84 1212.55 1397.52 1208.51 1399.73 1205.24C1401.93 1201.94 1404.59 1199.44 1407.7 1197.74C1410.84 1196.03 1414.37 1195.18 1418.3 1195.18C1422.21 1195.18 1425.69 1195.97 1428.74 1197.53C1431.8 1199.08 1434.3 1201.24 1436.24 1204.01C1438.17 1206.78 1439.42 1209.98 1439.99 1213.59H1431.67C1430.9 1210.46 1429.4 1207.85 1427.17 1205.78C1424.94 1203.72 1421.99 1202.68 1418.3 1202.68C1412.9 1202.68 1408.63 1205.03 1405.52 1209.74C1402.43 1214.44 1400.87 1221.05 1400.85 1229.55H1401.4C1402.67 1227.61 1404.18 1225.97 1405.93 1224.6C1407.7 1223.22 1409.66 1222.15 1411.79 1221.4C1413.93 1220.65 1416.19 1220.27 1418.58 1220.27C1422.58 1220.27 1426.24 1221.27 1429.55 1223.27C1432.87 1225.25 1435.53 1227.99 1437.53 1231.49C1439.53 1234.97 1440.53 1238.96 1440.53 1243.46C1440.53 1247.77 1439.57 1251.73 1437.63 1255.32C1435.7 1258.89 1432.99 1261.73 1429.49 1263.84C1426.01 1265.93 1421.92 1266.96 1417.21 1266.91ZM1417.21 1259.41C1420.08 1259.41 1422.65 1258.69 1424.92 1257.26C1427.21 1255.83 1429.02 1253.91 1430.34 1251.5C1431.68 1249.09 1432.35 1246.41 1432.35 1243.46C1432.35 1240.57 1431.7 1237.94 1430.41 1235.58C1429.13 1233.19 1427.37 1231.3 1425.12 1229.89C1422.9 1228.48 1420.35 1227.77 1417.49 1227.77C1415.33 1227.77 1413.32 1228.21 1411.45 1229.07C1409.59 1229.91 1407.95 1231.07 1406.54 1232.55C1405.16 1234.02 1404.07 1235.72 1403.27 1237.63C1402.48 1239.51 1402.08 1241.5 1402.08 1243.59C1402.08 1246.36 1402.73 1248.96 1404.02 1251.36C1405.34 1253.77 1407.13 1255.72 1409.41 1257.19C1411.7 1258.67 1414.3 1259.41 1417.21 1259.41Z" fill="black"/>
<path d="M1552.89 1230.96H1491.71" stroke="black" stroke-width="9.6" stroke-linecap="round"/>
<path d="M1400.28 965.955L1431.5 904.182V903.637H1395.5V896.137H1440.23V904.046L1409.14 965.955H1400.28Z" fill="black"/>
<path d="M1551.89 930.955H1490.71" stroke="black" stroke-width="9.6" stroke-linecap="round"/>
<path d="M1417.15 667.91C1412.46 667.91 1408.33 667.08 1404.74 665.421C1401.17 663.739 1398.38 661.432 1396.38 658.501C1394.38 655.546 1393.4 652.182 1393.42 648.41C1393.4 645.455 1393.98 642.728 1395.16 640.228C1396.34 637.705 1397.95 635.603 1400 633.921C1402.07 632.216 1404.37 631.137 1406.92 630.682V630.273C1403.58 629.41 1400.92 627.535 1398.94 624.648C1396.96 621.739 1395.99 618.432 1396.01 614.728C1395.99 611.182 1396.88 608.012 1398.7 605.216C1400.52 602.421 1403.02 600.216 1406.2 598.603C1409.41 596.989 1413.05 596.182 1417.15 596.182C1421.19 596.182 1424.8 596.989 1427.99 598.603C1431.17 600.216 1433.67 602.421 1435.49 605.216C1437.33 608.012 1438.26 611.182 1438.28 614.728C1438.26 618.432 1437.25 621.739 1435.25 624.648C1433.27 627.535 1430.65 629.41 1427.37 630.273V630.682C1429.9 631.137 1432.17 632.216 1434.19 633.921C1436.21 635.603 1437.83 637.705 1439.03 640.228C1440.24 642.728 1440.85 645.455 1440.87 648.41C1440.85 652.182 1439.83 655.546 1437.8 658.501C1435.8 661.432 1433.02 663.739 1429.45 665.421C1425.91 667.08 1421.8 667.91 1417.15 667.91ZM1417.15 660.41C1420.3 660.41 1423.03 659.898 1425.33 658.876C1427.62 657.853 1429.4 656.41 1430.65 654.546C1431.9 652.682 1432.53 650.501 1432.55 648.001C1432.53 645.364 1431.85 643.035 1430.51 641.012C1429.17 638.989 1427.34 637.398 1425.02 636.239C1422.73 635.08 1420.1 634.501 1417.15 634.501C1414.17 634.501 1411.51 635.08 1409.17 636.239C1406.85 637.398 1405.02 638.989 1403.68 641.012C1402.36 643.035 1401.71 645.364 1401.74 648.001C1401.71 650.501 1402.32 652.682 1403.54 654.546C1404.79 656.41 1406.58 657.853 1408.9 658.876C1411.21 659.898 1413.96 660.41 1417.15 660.41ZM1417.15 627.273C1419.65 627.273 1421.86 626.773 1423.79 625.773C1425.75 624.773 1427.28 623.376 1428.4 621.58C1429.51 619.785 1430.08 617.682 1430.1 615.273C1430.08 612.91 1429.52 610.853 1428.43 609.103C1427.34 607.33 1425.83 605.966 1423.9 605.012C1421.96 604.035 1419.71 603.546 1417.15 603.546C1414.53 603.546 1412.25 604.035 1410.29 605.012C1408.34 605.966 1406.83 607.33 1405.76 609.103C1404.69 610.853 1404.17 612.91 1404.19 615.273C1404.17 617.682 1404.7 619.785 1405.79 621.58C1406.91 623.376 1408.44 624.773 1410.4 625.773C1412.35 626.773 1414.6 627.273 1417.15 627.273Z" fill="black"/>
<path d="M1552.89 631.955H1491.71" stroke="black" stroke-width="9.6" stroke-linecap="round"/>
<path d="M1416.55 296.227C1419.41 296.25 1422.28 296.795 1425.14 297.864C1428 298.932 1430.62 300.705 1432.98 303.182C1435.34 305.636 1437.24 308.989 1438.67 313.239C1440.11 317.489 1440.82 322.818 1440.82 329.227C1440.82 335.432 1440.23 340.943 1439.05 345.761C1437.89 350.557 1436.21 354.602 1434 357.898C1431.82 361.193 1429.16 363.693 1426.03 365.398C1422.91 367.102 1419.39 367.955 1415.46 367.955C1411.55 367.955 1408.06 367.182 1404.99 365.636C1401.95 364.068 1399.45 361.898 1397.49 359.125C1395.56 356.33 1394.32 353.091 1393.78 349.409H1402.09C1402.84 352.614 1404.33 355.261 1406.56 357.352C1408.81 359.42 1411.78 360.455 1415.46 360.455C1420.84 360.455 1425.09 358.102 1428.21 353.398C1431.34 348.693 1432.91 342.045 1432.91 333.455H1432.37C1431.09 335.364 1429.58 337.011 1427.83 338.398C1426.08 339.784 1424.14 340.852 1422 341.602C1419.87 342.352 1417.59 342.727 1415.18 342.727C1411.18 342.727 1407.51 341.739 1404.17 339.761C1400.86 337.761 1398.2 335.023 1396.2 331.545C1394.22 328.045 1393.23 324.045 1393.23 319.545C1393.23 315.273 1394.18 311.364 1396.09 307.818C1398.03 304.25 1400.73 301.409 1404.21 299.295C1407.71 297.182 1411.82 296.159 1416.55 296.227ZM1416.55 303.727C1413.68 303.727 1411.11 304.443 1408.81 305.875C1406.54 307.284 1404.73 309.193 1403.39 311.602C1402.07 313.989 1401.41 316.636 1401.41 319.545C1401.41 322.455 1402.05 325.102 1403.32 327.489C1404.62 329.852 1406.38 331.739 1408.61 333.148C1410.86 334.534 1413.41 335.227 1416.28 335.227C1418.43 335.227 1420.45 334.807 1422.31 333.966C1424.17 333.102 1425.8 331.932 1427.18 330.455C1428.59 328.955 1429.7 327.261 1430.49 325.375C1431.29 323.466 1431.68 321.477 1431.68 319.409C1431.68 316.682 1431.03 314.125 1429.71 311.739C1428.41 309.352 1426.62 307.42 1424.32 305.943C1422.05 304.466 1419.46 303.727 1416.55 303.727Z" fill="black"/>
<path d="M1553.18 332H1492" stroke="black" stroke-width="9.6" stroke-linecap="round"/>
<path d="M170 499H510" stroke="#007EC1" stroke-opacity="0.25" stroke-width="50" stroke-linecap="round"/>
<g filter="url(#filter0_d_1903_84)">
<circle cx="225.5" cy="499.5" r="37.5" fill="#007EC1"/>
</g>
<path d="M224.636 434.091C219.727 434.091 215.5 432.932 211.955 430.614C208.409 428.295 205.682 425.102 203.773 421.034C201.864 416.966 200.909 412.318 200.909 407.091C200.909 401.773 201.886 397.08 203.841 393.011C205.818 388.92 208.568 385.727 212.091 383.432C215.636 381.114 219.773 379.955 224.5 379.955C228.182 379.955 231.5 380.636 234.455 382C237.409 383.364 239.83 385.273 241.716 387.727C243.602 390.182 244.773 393.045 245.227 396.318H237.182C236.568 393.932 235.205 391.818 233.091 389.977C231 388.114 228.182 387.182 224.636 387.182C221.5 387.182 218.75 388 216.386 389.636C214.045 391.25 212.216 393.534 210.898 396.489C209.602 399.42 208.955 402.864 208.955 406.818C208.955 410.864 209.591 414.386 210.864 417.386C212.159 420.386 213.977 422.716 216.318 424.375C218.682 426.034 221.455 426.864 224.636 426.864C226.727 426.864 228.625 426.5 230.33 425.773C232.034 425.045 233.477 424 234.659 422.636C235.841 421.273 236.682 419.636 237.182 417.727H245.227C244.773 420.818 243.648 423.602 241.852 426.08C240.08 428.534 237.727 430.489 234.795 431.943C231.886 433.375 228.5 434.091 224.636 434.091Z" fill="black"/>
<defs>
<filter id="filter0_d_1903_84" x="178" y="452" width="95" height="95" filterUnits="userSpaceOnUse" color-interpolation-filters="sRGB">
<feFlood flood-opacity="0" result="BackgroundImageFix"/>
<feColorMatrix in="SourceAlpha" type="matrix" values="0 0 0 0 0 0 0 0 0 0 0 0 0 0 0 0 0 0 127 0" result="hardAlpha"/>
<feOffset/>
<feGaussianBlur stdDeviation="5"/>
<feComposite in2="hardAlpha" operator="out"/>
<feColorMatrix type="matrix" values="0 0 0 0 0 0 0 0 0 0 0 0 0 0 0 0 0 0 0.25 0"/>
<feBlend mode="normal" in2="BackgroundImageFix" result="effect1_dropShadow_1903_84"/>
<feBlend mode="normal" in="SourceGraphic" in2="effect1_dropShadow_1903_84" result="shape"/>
</filter>
</defs>
</svg>
