<svg width="1988" height="2443" viewBox="0 0 1988 2443" fill="none" xmlns="http://www.w3.org/2000/svg">
<path d="M771.863 2382.63C720.304 2392.16 691.866 2398.44 642.363 2411.63C642.363 2411.63 637.363 2393.63 635.863 2389.13C634.363 2384.63 670.031 2376.74 688.363 2368.13C690.448 2347.06 688.406 2333.43 683.863 2308.63C671.028 2307.05 650.743 2306.4 636.363 2308.63C636.204 2298.83 635.972 2293.28 632.863 2282.63L730.863 2266.13C729.015 2279.58 729.898 2286.32 734.363 2297.13C721.032 2298.51 708.287 2300.89 701.863 2308.63C704.299 2334.12 705.985 2347.98 712.363 2368.13C735.602 2370.83 748.625 2369.53 771.863 2368.13C771.011 2373.01 771.117 2376.28 771.863 2382.63Z" fill="#929292" stroke="#929292" stroke-width="4" stroke-linejoin="round"/>
<path d="M1841.86 2120.63C1790.3 2130.16 1761.87 2136.44 1712.36 2149.63C1712.36 2149.63 1707.36 2131.63 1705.86 2127.13C1704.36 2122.63 1740.03 2114.74 1758.36 2106.13C1760.45 2085.06 1758.41 2071.43 1753.86 2046.63C1741.03 2045.05 1720.74 2044.4 1706.36 2046.63C1706.2 2036.83 1705.97 2031.28 1702.86 2020.63L1800.86 2004.13C1799.02 2017.58 1799.9 2024.32 1804.36 2035.13C1791.03 2036.51 1778.29 2038.89 1771.86 2046.63C1774.3 2072.12 1775.98 2085.98 1782.36 2106.13C1805.6 2108.83 1818.62 2107.53 1841.86 2106.13C1841.01 2111.01 1841.12 2114.28 1841.86 2120.63Z" fill="#929292" stroke="#929292" stroke-width="4" stroke-linejoin="round"/>
<path d="M1892.82 2427.13H604.816L1892.82 2116.13V2427.13Z" stroke="#007EC1" stroke-width="30" stroke-linejoin="round"/>
<path d="M628.251 2278.88L562.474 1998.35L665.913 1974.77L706.497 1965.52C730.948 2086.97 744.857 2152.44 768.628 2282.78C768.628 2282.78 743.451 2264.65 725.082 2263.2C723.88 2263.1 722.708 2263.08 721.574 2263.14C703.098 2264.07 664.076 2271.9 628.251 2278.88Z" fill="#333333"/>
<path d="M665.913 1974.77L706.497 1965.52C730.948 2086.97 744.857 2152.44 768.628 2282.78C768.628 2282.78 743.451 2264.65 725.082 2263.2M665.913 1974.77L562.474 1998.35L628.251 2278.88C664.076 2271.9 703.098 2264.07 721.574 2263.14C722.708 2263.08 723.88 2263.1 725.082 2263.2M665.913 1974.77C697.076 2087.35 711.216 2150.49 725.082 2263.2" stroke="black" stroke-width="6" stroke-linejoin="round"/>
<path d="M1734.25 1717.2C1764.97 1826.37 1780.03 1888.05 1799.13 1999.78C1771.24 2004.88 1731.81 2024.72 1731.81 2024.72C1716.46 2038.01 1710.9 2051.72 1697.5 2069.01C1672.25 2038.73 1650.75 1934.73 1611.97 1744.43L1654.55 1734.95L1734.25 1717.2Z" fill="#333333"/>
<path d="M1731.81 2024.72C1731.81 2024.72 1771.24 2004.88 1799.13 1999.78C1780.03 1888.05 1764.97 1826.37 1734.25 1717.2L1654.55 1734.95M1731.81 2024.72C1716.46 2038.01 1710.9 2051.72 1697.5 2069.01C1672.25 2038.73 1650.75 1934.73 1611.97 1744.43L1654.55 1734.95M1731.81 2024.72L1654.55 1734.95" stroke="black" stroke-width="6" stroke-linejoin="round"/>
<path d="M1605.64 1896.04C1326.24 1963.13 1039.61 2013.25 760.969 2086.12C750.673 2088.83 740.036 2090.47 729.759 2093.27C732.104 2072.15 574.348 2123.01 565.681 2117.36L520.854 1977.24C468.642 1984.68 418.8 2007.89 391.264 1952.89C378.068 1926.64 312.18 1659.86 301.351 1608.4C252.533 1375.59 180.748 853.94 350.579 652.594C460.24 522.61 602.475 548.235 753.145 491.103C720.35 470.844 491.333 315.511 474.285 316.754C435.062 319.437 500.242 398.731 442.595 393.303C436.329 337.513 396.394 290.676 449.933 258.096C569.454 240.571 1008.54 121.464 1059.93 118.388C1126.73 114.445 1108.78 198.316 1132.3 235.339C1073.2 266.62 1101.59 160.217 1064.27 185C1050.13 194.36 908.162 427.031 884.898 460.928C1032.2 449.283 1155.74 368.199 1300.75 421.403C1550.72 513.114 1716.38 1015.66 1775.42 1243.73C1790.81 1303.02 1850.47 1578.94 1850.34 1618.54C1849.93 1702.48 1745.98 1674.65 1740.81 1697.66L1768.98 1836.53C1723.82 1847.59 1681.18 1864.19 1642.47 1889.2" fill="#111114"/>
<path d="M1594.46 1090.88C1537.38 1145.21 1515.17 1184.54 1481.76 1251.91L1455.39 1311.98C1394.77 1460.36 1367.67 1616.77 1356.92 1773.88C1318.93 1782.76 1280.54 1791.19 1242.55 1800.07C1245.92 1633.75 1281.17 1465.71 1341.33 1307.76C1398.34 1173.68 1486.05 1056.54 1569.93 936.093C1575.97 896.826 1457.82 679.902 1430.88 631.686C1411.74 597.475 1396.41 543.495 1355.65 534.021C1185.28 573.307 1014.72 611.749 844.467 651.098C779.265 666.208 381.181 752.768 359.95 765.438C350.694 771.018 343.284 782.564 340.444 791.909C334.151 812.514 330.892 1086.79 333.177 1126.46C334.795 1153.59 332.988 1181.24 340.818 1207.48C349.047 1226.27 520.627 1311.45 555.859 1333.99C599.739 1362.09 639.689 1395.61 682.507 1424.93C707.101 1446.18 757.635 1494.14 780.301 1517.43C860.168 1609.42 936.905 1703.63 996.703 1809.18C1004.39 1822.68 1010.44 1837.8 1017.37 1851.74C978.149 1860.72 938.751 1869.74 899.534 1878.72C789.468 1692.51 629.59 1451.87 408.009 1372.91C365.457 1350.18 315.733 1342.14 267.816 1334.04L264.358 1334.83C239.47 1124.14 211.638 668.542 476.866 566.364C617.493 536.463 1107.44 408.634 1199.25 407.659C1460.63 404.931 1625.48 812.379 1694.71 1002.18L1594.68 1091.01L1594.46 1090.88Z" fill="url(#paint0_linear_1909_40)"/>
<path d="M753.047 1398.49C758.52 1402.74 759.157 1399.67 760.696 1400.11C761.319 1400.33 760.867 1407.97 771.541 1407.74C797.175 1407.2 1251.12 1304.03 1274.08 1292.65C1277.09 1291.16 1277.36 1285.24 1277.8 1285.05C1287.52 1280.7 1283.94 1274.24 1287.7 1272.67C1295.63 1269.26 1333.2 1277.33 1358.76 1256.4C1351.81 1272.45 1347.61 1291.33 1341.3 1307.68C1281.05 1465.66 1245.89 1633.67 1242.51 1800C1167.43 1817.55 1092.29 1834.41 1017.22 1851.6C1010.3 1837.66 1004.16 1822.56 996.56 1809.04C944.806 1700.15 865.226 1604.81 780.159 1517.29C757.493 1494.01 706.959 1446.05 682.365 1424.8C681.664 1424.25 679.271 1416.72 671.781 1410.36L752.956 1398.52L753.047 1398.49Z" fill="#707070"/>
<path d="M551.482 2039.44L1743.72 1766.38C1790.18 1865.13 1750.31 1813.14 1642.28 1880.82C1362.11 1929.46 1011.29 2034.65 743.932 2083.2C728.673 2085.98 648.758 2086.19 571.21 2109.27L547.487 2045.41L551.573 2039.42L551.482 2039.44Z" fill="#797979"/>
<path d="M531.826 1969.6L1730.98 1694.95L1746.32 1753.99L553.454 2032.25L543.709 2029.42L531.826 1969.6Z" fill="#333333"/>
<path d="M511.508 287.914C529.673 281.093 698.291 242.119 704.961 248.665L747.423 473.786L478.433 310.75C477.495 305.819 506.222 289.924 511.527 287.999L511.508 287.914Z" fill="#FFFEFF"/>
<path d="M847.648 210.937C872.734 208.829 1056.33 159.15 1060.59 177.338L883.943 449.27C878.487 421.685 836.432 218.829 847.538 210.874L847.648 210.937Z" fill="#FFFEFF"/>
<path d="M458.311 262.924C546.09 255.241 1049.91 116.072 1083.61 126.455C1107.72 133.886 1130.54 252.78 1101.59 228.802C1092 220.796 1116.15 177.381 1036.81 160.862C954.171 187.241 513.643 269.947 479.589 291.854C477.579 293.112 471.473 311.191 449.448 327.502C484.46 470.754 386.167 283.262 458.402 262.903L458.311 262.924Z" fill="#333333"/>
<path d="M743.184 312.567L832.635 297.137L862.606 467.716L770.43 487.141C766.747 462.699 733.41 323.412 743.184 312.567Z" fill="#FFFEFF"/>
<path d="M733.282 237.13L816.447 218.083C845.645 306.682 826.298 283.255 741.813 306.153L733.282 237.13Z" fill="#FFFEFF"/>
<path d="M996.596 1809.12C936.89 1703.55 860.153 1609.34 780.195 1517.37C865.262 1604.89 944.751 1700.24 996.596 1809.12Z" fill="#494949"/>
<path d="M1264.16 1193.6C1279.33 1202.54 1278.26 1265.6 1277.85 1285.13C1277.39 1285.23 1277.14 1291.23 1274.13 1292.72C1251.17 1304.1 797.225 1407.27 771.59 1407.82C760.826 1408.07 761.368 1400.4 760.745 1400.19C753.12 1384.46 722.132 1324.84 739.168 1313.92L1264.27 1193.66L1264.16 1193.6Z" fill="#FFFEFF"/>
<path d="M407.898 1372.75C629.478 1451.71 789.356 1692.35 899.422 1878.56C823.628 1895.92 477.346 1987.48 432.547 1982.12C389.32 1976.94 343.28 1757.52 332.534 1712.69C302.801 1588.72 279.157 1461.23 264.156 1334.69L267.614 1333.9C313 1349.77 362.434 1356.55 407.807 1372.77L407.898 1372.75Z" fill="#707070"/>
<path d="M407.873 1372.76C362.409 1356.55 313.066 1349.76 267.68 1333.89C315.597 1341.99 365.32 1350.03 407.873 1372.76Z" fill="#3A3A3A"/>
<path d="M470.737 1544.11C598.854 1501.85 747.881 1669.97 672.147 1750.1C578.784 1848.94 332.824 1764.59 389.487 1615.24C399.351 1589.14 443.16 1553.18 470.737 1544.11Z" fill="#252525"/>
<path d="M646.267 1617.46C738.661 1691.19 641.037 1799.5 535.119 1785.8L533.294 1777.83C618.332 1755.49 656.162 1697.06 646.267 1617.46Z" fill="#646464"/>
<path d="M468.282 1553.07C629.432 1496.97 701.956 1692.98 577.989 1754.92C411.391 1838.2 313.955 1606.73 468.282 1553.07Z" fill="#C8C8C8"/>
<path d="M479.581 1563.14C624.388 1506.91 682.705 1704.86 562.289 1745.9C428.743 1791.49 364.385 1607.73 479.581 1563.14Z" fill="#464646"/>
<path d="M477.109 1572.1C618.374 1513.93 671.546 1696.17 564.767 1736.95C437.298 1785.68 377.327 1613.27 477.109 1572.1Z" fill="#999999"/>
<path d="M1430.85 631.604C1446.42 694.578 1566.17 877.51 1564.97 930.397C1498.46 1040.12 1409.7 1138.88 1358.76 1256.39C1333.2 1277.33 1295.63 1269.25 1287.7 1272.66C1283.96 1274.32 1287.54 1280.77 1277.8 1285.05C1278.21 1265.52 1279.3 1202.55 1264.11 1193.51L1257.46 1188.3C1186.5 1210.05 760.909 1294.83 737.632 1307.35C708.555 1322.97 750.423 1371.14 745.012 1395.18C755.371 1390.24 751.147 1396.88 753.027 1398.4L671.853 1410.25C562.563 1316.48 370.658 1233.3 358.357 1220.15C332.919 1192.7 346.891 1157.12 333.198 1126.18C330.912 1086.52 334.171 812.242 340.465 791.637C343.324 782.376 350.715 770.747 359.971 765.167C522.775 735.51 683.81 691.441 844.487 650.826C1014.74 611.477 1185.39 573.014 1355.67 533.75C1396.45 543.307 1411.85 597.182 1430.9 631.414L1430.85 631.604Z" fill="#646464"/>
<path d="M1341.31 1307.67C1347.51 1291.26 1351.82 1272.44 1358.77 1256.38C1409.62 1138.89 1498.47 1040.11 1564.98 930.391C1566.18 877.504 1446.43 694.573 1430.85 631.598C1457.79 679.814 1575.86 896.759 1569.91 936.005C1486.04 1056.53 1398.41 1173.58 1341.31 1307.67Z" fill="#2E2E2E"/>
<path d="M671.792 1410.35C679.301 1416.79 681.675 1424.24 682.376 1424.79C639.558 1395.47 599.607 1361.94 555.728 1333.84C520.587 1311.28 349.007 1226.1 340.687 1207.33C332.857 1181.09 334.645 1153.35 333.046 1126.31C346.739 1157.24 332.748 1192.74 358.205 1220.27C370.416 1233.44 562.411 1316.61 671.701 1410.37L671.792 1410.35Z" fill="#2E2E2E"/>
<path d="M844.361 651.03C683.775 691.624 522.649 735.714 359.845 765.371C381.075 752.701 779.16 666.141 844.361 651.03Z" fill="#4F4F4F"/>
<path d="M1264.05 1193.61L738.952 1313.88C721.915 1324.79 752.903 1384.41 760.528 1400.14C758.99 1399.7 758.353 1402.77 752.879 1398.52C750.999 1397 755.222 1390.36 744.864 1395.3C750.274 1371.26 708.498 1323.07 737.484 1307.47C760.852 1294.93 1186.35 1210.17 1257.31 1188.42L1263.96 1193.63L1264.05 1193.61Z" fill="#464646"/>
<path d="M1452.97 727.956C1453.38 728.926 1453.29 730.19 1453.7 731.16C1453.93 731.729 1447.68 731.208 1452.81 743.164C1470.4 784.027 1550.91 898.049 1482.26 927.348C1455.57 938.783 1050.77 1026.53 1026.75 1024.93C946.437 1019.64 942.806 946.917 925.455 877.43C919.749 854.604 885.086 696.989 885.53 687.217C885.821 681.383 894.906 667.946 900.511 665.243C920.989 655.141 1325.76 563.5 1348.37 566.041C1381.8 569.83 1425.71 698.001 1445.59 727.959C1447.08 730.28 1450.6 728.498 1452.88 727.977L1452.97 727.956Z" fill="#262626"/>
<path d="M1452.95 727.943C1450.67 728.464 1447.15 730.246 1445.67 727.925C1425.69 697.987 1381.8 569.901 1348.44 566.006C1325.83 563.465 921.061 655.106 900.584 665.208C894.997 667.996 885.803 681.369 885.602 687.182C885.159 696.954 919.821 854.57 925.527 877.395C942.788 946.903 946.51 1019.6 1026.82 1024.9C1050.84 1026.49 1455.65 938.748 1482.33 927.313C1550.98 898.015 1470.48 783.992 1452.88 743.129C1447.75 731.174 1454 731.695 1453.77 731.125C1473.64 776.881 1556.62 891.668 1489.98 928.933C1470.12 940.048 1073.36 1030.74 1042.85 1031.34C1012.73 1031.94 958.707 1011.4 946.339 984.152C940.106 970.319 877.946 703.93 878.687 688.766C879.243 677.815 895.992 661.469 906.103 657.113C926.689 648.317 1321.29 559.094 1343.5 560.307C1381.52 562.423 1437.77 693.446 1453.02 727.838L1452.95 727.943Z" fill="#111114"/>
<path d="M1338.92 628.922C1347.11 643.37 1422.03 806.582 1426.1 818.514C1432.79 838.098 1443.83 858.725 1414.56 871.817C1395.45 880.364 1026.52 965.837 1005.56 965.49C1002.88 965.484 988.794 960.015 987.434 957.842C980.195 946.724 924.437 714.978 925.148 701.773C925.203 700.341 929.33 690.346 931.224 688.582C989.909 673.455 1263.5 603.608 1290.9 602.833C1305.28 602.468 1330.11 618.074 1338.84 629.027L1338.92 628.922Z" fill="white"/>
<path d="M1338.94 628.93C1330.2 617.977 1305.37 602.372 1290.99 602.736C1263.59 603.512 990.002 673.358 931.316 688.485C929.422 690.25 925.295 700.244 925.24 701.677C924.53 714.881 980.288 946.627 987.527 957.745C988.886 959.918 1003.06 965.366 1005.65 965.394C1026.52 965.761 1395.54 880.267 1414.65 871.72C1443.93 858.628 1432.79 838.022 1426.19 818.417C1439.02 816.721 1448.53 851.983 1428.57 868.532C1412.16 882.14 1028.88 971.875 1007.21 971.78C1000.59 971.7 982.848 961.567 979.859 956.042C973.673 944.505 917.667 716.276 918.306 703.176C918.482 699.764 926.882 684.177 929.83 681.994C944.424 671.288 1267.79 598.025 1286.05 597.037C1314.43 595.506 1327.94 609.357 1338.92 628.846L1338.94 628.93Z" fill="#111114"/>
<path d="M403.506 772.245C423.375 764.501 798.099 677.968 819.421 676.988C836.858 676.188 856.524 687.21 863.54 702.372C876.672 730.86 910.03 927.102 928.991 988.147C919.853 1026.44 889.63 1064.24 849.537 1079.01C829.409 1086.46 451.553 1173.53 430.165 1175.06C405.021 1176.91 374.48 1163.15 365.823 1140.82C357.373 1118.98 357.9 843.642 364.551 816.656C370.108 794.09 380.569 781.225 403.597 772.224L403.506 772.245Z" fill="#111114"/>
<path d="M394.54 781.131C415.009 771.829 813.581 679.036 835.392 683.534C841.723 684.834 853.172 695.52 855.74 700.877C867.498 724.622 904.588 934.649 922.658 993.059C914.835 1021.2 883.818 1059.71 854.834 1071.14C834.204 1079.33 443.791 1169.27 421.63 1170.36C404.102 1171.18 380.231 1158.1 373.32 1142.56C362.576 1118.23 362.886 828.571 372.571 804.794C375.653 797.345 386.828 784.672 394.559 781.215L394.54 781.131Z" fill="#262626"/>
<path d="M421.722 923.612C421.756 895.746 418.501 850.178 421.958 828.892C430.849 817.54 433.564 802.634 449.007 795.637C474.269 784.262 750.551 728.26 810.152 716.295C812.625 717.06 820.691 724.262 821.364 725.527C827.64 737.043 880.793 966.192 879.459 979.185C879.148 982.006 866.755 996.467 863.744 997.955C844.774 1007.53 467.875 1093.77 447.095 1090.01C415.926 1084.37 421.572 984.421 421.683 923.443L421.722 923.612Z" fill="white"/>
<path d="M421.711 923.596C421.581 984.489 415.935 1084.44 447.124 1090.16C467.812 1093.94 844.803 1007.69 863.772 998.108C866.855 996.515 879.267 982.138 879.488 979.337C880.802 966.261 827.65 737.112 821.392 725.68C820.72 724.415 812.654 717.212 810.181 716.448C750.579 728.413 474.297 784.414 449.036 795.79C433.573 802.702 430.878 817.693 421.986 829.045C423.764 817.991 425.321 806.811 435.114 798.978C450.51 786.757 790.123 706.225 808.713 710.041C815.044 711.342 826.493 722.028 829.061 727.384C834.733 738.772 886.132 961.935 885.689 974.635C885.441 981.079 871.391 1001.69 865.187 1004.7C846.231 1013.93 472.935 1097.91 451.996 1095.97C408.949 1091.98 414.924 1022.74 414.818 957.47C414.853 950.098 415.593 929.079 421.659 923.786L421.711 923.596Z" fill="#10111E"/>
<path d="M461.207 833.376C586.711 863.72 716.731 881.585 837.758 924.578C840.375 936.843 793.77 913.98 762.429 906.341C663.319 882.107 561.909 863.723 462.674 839.783L461.207 833.376Z" fill="#333333"/>
<path d="M990.461 730.433C1115.96 760.777 1245.98 778.642 1367.01 821.634C1369.63 833.899 1323.02 811.037 1291.68 803.398C1192.57 779.164 1091.16 760.779 991.928 736.839L990.461 730.433Z" fill="#333333"/>
<path d="M1066.06 1140.94C1063.07 1196.02 994.562 1237.26 939.153 1224.04C882.215 1202.48 856.738 1126.78 887.777 1087.11C941.413 1018.58 1071.92 1034.38 1066.06 1140.94Z" fill="#C8C8C8"/>
<path d="M939.133 1224.12C994.542 1237.33 1062.94 1196.03 1066.04 1141.02C1070.43 1198.66 999.627 1246.99 939.133 1224.12Z" fill="#464646"/>
<path d="M938.347 1068.89C1049 1023.94 1086.41 1171.79 1009.56 1204.65C906.91 1248.57 853.005 1103.52 938.347 1068.89Z" fill="#3A3A3A"/>
<path d="M952.988 1068.93C985.215 1059.95 1027.65 1075.07 1039.63 1104.8C1061.37 1158.73 1011.02 1224.48 946.992 1202.05C886.41 1180.88 886.351 1087.39 952.969 1068.85L952.988 1068.93Z" fill="#B4B4B4"/>
<path d="M987.256 1091.5C1042.99 1100.3 1042.98 1165.06 995.494 1191.02C1014.4 1150.23 1011.37 1129.45 987.256 1091.5Z" fill="#DFDFDF"/>
<path d="M1356.92 1773.87C1367.67 1616.76 1394.76 1460.35 1455.39 1311.97C1460.72 1298.86 1476.26 1263 1481.76 1251.9C1515.19 1184.62 1537.31 1145.31 1594.46 1090.87C1616.32 1070.07 1672.15 1021.98 1697.45 1014.94C1720.06 1038.42 1836.18 1524.1 1841.66 1596.93C1847.69 1676.81 1809.63 1671.6 1726.8 1692.52C1605.4 1723.17 1479.35 1745.21 1356.92 1773.87Z" fill="#707070"/>
<path d="M1433.64 1426.97L1466.94 1351.11C1459.99 1365.14 1440.4 1410.52 1433.64 1426.97Z" fill="#3A3A3A"/>
<path d="M1738.92 1331.52C1737.28 1329.1 1690.84 1301.64 1688.04 1300.49C1563.2 1250.66 1448.09 1381.66 1561.12 1500.3C1489.03 1461.13 1520.75 1353.6 1488.93 1446.48C1490.69 1579.28 1647.44 1591 1697.37 1511.78C1698.76 1512.02 1702 1509.82 1702.67 1514.83C1696.44 1521.97 1687.36 1566.28 1597.61 1568.8C1407.64 1574.11 1479.47 1246.76 1666.06 1284.24C1686.6 1288.39 1727.12 1314.84 1739.04 1331.5L1738.92 1331.52Z" fill="#252525"/>
<path d="M1561.04 1500.19C1593.09 1517.61 1612.02 1514.73 1642.93 1515.6C1643.53 1515.58 1647.51 1522.4 1651.33 1522.2C1668.93 1521.41 1679.07 1508.67 1697.29 1511.67C1647.36 1590.89 1490.61 1579.17 1488.85 1446.36C1520.67 1353.48 1489.08 1461.1 1561.04 1500.19Z" fill="#646464"/>
<path d="M1702.49 1514.74C1701.83 1509.74 1698.59 1511.94 1697.2 1511.69C1678.98 1508.7 1668.84 1521.44 1651.24 1522.22C1647.42 1522.42 1643.32 1515.63 1642.84 1515.63C1735.47 1510.88 1783.86 1394.82 1738.89 1331.52C1788.94 1401.17 1754.41 1455.23 1702.52 1514.85L1702.49 1514.74Z" fill="#262626"/>
<path d="M1738.91 1331.52C1784 1394.8 1735.6 1510.86 1642.86 1515.63C1612.06 1514.73 1593.01 1517.64 1560.97 1500.22C1447.96 1381.69 1563.16 1250.55 1687.89 1300.41C1690.69 1301.56 1737.01 1329.04 1738.77 1331.44L1738.91 1331.52Z" fill="#DFDFDF"/>
<path d="M1594.19 1313.46C1735.41 1261.06 1789.85 1469.19 1665.07 1502.03C1527.64 1538.21 1489.98 1352.12 1594.19 1313.46Z" fill="#464646"/>
<path d="M1608.23 1314.51C1739.69 1278.69 1782.41 1500.59 1627.26 1497.92C1523.83 1496.18 1510.45 1341.16 1608.23 1314.51Z" fill="#999999"/>
<path d="M1687.88 1360.26C1748.55 1400.25 1639.51 1491.21 1633.06 1473.08C1667.77 1434.55 1692.45 1413.99 1687.88 1360.26Z" fill="#FFFEFF"/>
<path d="M1135.36 2392.27C1130.7 2392.22 1126.8 2390.97 1123.68 2388.5C1120.58 2386.02 1118.4 2382.6 1117.14 2378.24C1115.91 2373.86 1115.77 2368.85 1116.72 2363.22C1117.57 2357.84 1119.31 2353.11 1121.94 2349.01C1124.56 2344.9 1127.78 2341.68 1131.6 2339.36C1135.43 2337.04 1139.56 2335.88 1143.99 2335.88C1147.28 2335.88 1150.06 2336.5 1152.33 2337.76C1154.61 2338.99 1156.43 2340.7 1157.8 2342.91C1159.2 2345.08 1160.22 2347.58 1160.86 2350.4L1164.69 2350.08L1164.41 2364.07L1166.79 2391.13H1157.56L1156.06 2363.04C1155.99 2361.38 1155.79 2359.53 1155.46 2357.47C1155.13 2355.41 1154.56 2353.42 1153.76 2351.5C1152.95 2349.58 1151.79 2348.01 1150.28 2346.78C1148.78 2345.52 1146.83 2344.9 1144.42 2344.9C1141.62 2344.9 1139.02 2345.75 1136.6 2347.45C1134.19 2349.13 1132.13 2351.45 1130.42 2354.41C1128.72 2357.37 1127.55 2360.76 1126.91 2364.57C1126.34 2368.12 1126.34 2371.3 1126.91 2374.12C1127.5 2376.91 1128.6 2379.12 1130.21 2380.73C1131.82 2382.34 1133.89 2383.14 1136.43 2383.14C1138.89 2383.14 1141.15 2382.48 1143.21 2381.15C1145.29 2379.8 1147.16 2378.1 1148.82 2376.04C1150.48 2373.98 1151.89 2371.84 1153.05 2369.61C1154.23 2367.39 1155.16 2365.4 1155.85 2363.65L1166.15 2336.59H1175.38L1164.59 2364L1160.11 2377.81L1156.88 2378.13C1155.25 2380.95 1153.36 2383.44 1151.23 2385.59C1149.13 2387.72 1146.75 2389.38 1144.1 2390.56C1141.47 2391.75 1138.56 2392.31 1135.36 2392.27Z" fill="#007EC1"/>
<path d="M1968.73 2274.51L1974.05 2242.59H1984.71L1975.61 2297.13H1965.17L1966.77 2287.68H1966.2C1964.5 2290.6 1962.08 2293.02 1958.96 2294.96C1955.86 2296.88 1952.26 2297.84 1948.16 2297.84C1944.66 2297.84 1941.69 2297.07 1939.25 2295.53C1936.84 2293.97 1935.12 2291.66 1934.1 2288.61C1933.08 2285.55 1932.94 2281.78 1933.68 2277.28L1939.5 2242.59H1950.12L1944.54 2276C1943.95 2279.72 1944.51 2282.68 1946.21 2284.88C1947.92 2287.08 1950.4 2288.18 1953.67 2288.18C1955.66 2288.18 1957.72 2287.68 1959.85 2286.69C1961.98 2285.7 1963.86 2284.19 1965.49 2282.18C1967.15 2280.17 1968.23 2277.61 1968.73 2274.51Z" fill="#007EC1"/>
<path d="M1215.32 2288.63C1256.04 2338.79 1257.13 2369.24 1215.32 2428.13" stroke="#007EC1" stroke-width="30" stroke-linejoin="round"/>
<defs>
<linearGradient id="paint0_linear_1909_40" x1="875.701" y1="486.609" x2="1101.92" y2="1791.86" gradientUnits="userSpaceOnUse">
<stop stop-color="#BFBFBF"/>
<stop offset="0.85" stop-color="white"/>
</linearGradient>
</defs>
</svg>
