<svg width="390" height="390" viewBox="0 0 390 390" fill="none" xmlns="http://www.w3.org/2000/svg">
<g clip-path="url(#clip0_91_11)">
<path d="M6.96143 326.432C6.96143 326.432 12.2414 371.072 64.0014 372.692C115.761 374.312 62.6014 344.932 62.6014 344.932L6.96143 326.432Z" fill="#007EC1"/>
<path d="M383.689 339.579C383.689 339.579 378.409 384.219 326.649 385.839C274.889 387.459 328.049 358.079 328.049 358.079L383.689 339.579Z" fill="#007EC1"/>
<path d="M348 297C348 404.75 299.897 408.19 186.497 408.19C73.0974 408.19 63 361.85 63 254.1C63 146.35 73.8274 59 183.507 59C293.187 59 348 189.25 348 297Z" fill="#97B9F5"/>
<path d="M186.482 60.8982C179.222 73.8282 169.412 82.0982 164.562 79.3782C159.712 76.6582 168.212 66.9182 175.482 53.9982C182.742 41.0682 186.022 29.8482 190.862 32.5682C195.702 35.2882 193.742 47.9682 186.482 60.8982Z" fill="#517EE4"/>
<path d="M173.992 56.4998C176.852 71.0498 179.442 72.678 173.992 73.748C168.542 74.818 155.435 67.5498 152.575 52.9998C149.715 38.4498 158.182 22.138 163.632 21.068C169.082 19.998 171.132 41.9498 173.992 56.4998Z" fill="#5C85EE"/>
<path d="M182.752 44.9999C185.592 61.8029 194.497 72.145 189.087 73.3807C183.676 74.6164 165.414 66.803 162.575 50C159.735 33.197 187.341 22.2357 192.752 21C196.752 30 179.913 28.1969 182.752 44.9999Z" fill="#007EC1"/>
<path d="M345.499 254.1C356 357 339.5 277.548 221 288C74.0001 303.548 62.9995 361.85 62.9995 254.1C62.9995 146.35 73.8269 59 183.507 59C293.187 59 330.999 167.5 345.499 254.1Z" fill="#007EC1"/>
<path d="M212.91 237.293C212.91 248.428 204.023 267 190.7 267C177.377 267 168.699 246.222 168.699 235.087C168.699 223.952 177.362 224.174 190.7 224.174C204.038 224.174 212.91 226.158 212.91 237.293Z" fill="#FFC50C"/>
<path d="M168.744 236.32C168.744 236.516 168.773 236.724 168.788 236.92C168.788 237.082 168.818 237.255 168.833 237.417C168.848 237.578 168.863 237.74 168.893 237.902C168.923 238.098 168.938 238.306 168.968 238.502C168.968 238.618 168.997 238.722 169.012 238.837C169.192 240.038 169.46 241.273 169.789 242.532L201 251.5L212.357 242.197C212.716 240.453 212.91 238.756 212.91 237.151C212.91 230.628 209.803 227.28 204.501 225.64C200.782 224.52 196.062 224.174 190.7 224.174H189.46C182.948 224.174 177.616 224.208 174.001 225.709C173.553 225.894 173.12 226.114 172.717 226.344C172.313 226.575 171.94 226.841 171.611 227.13C169.729 228.723 168.699 231.182 168.699 234.969C168.699 235.281 168.699 235.604 168.729 235.939C168.729 236.066 168.729 236.193 168.744 236.308V236.32Z" fill="#F9AB10"/>
<path d="M219.609 233.168C219.609 221.199 206.715 207 190.804 207C174.893 207 162 221.199 162 233.168L201 242.5L219.609 233.168Z" fill="#FFC50C"/>
<mask id="mask0_91_11" style="mask-type:alpha" maskUnits="userSpaceOnUse" x="112" y="124" width="60" height="69">
<path d="M171.733 168.792C171.135 177.887 168.524 186.181 164.57 192.827C146.023 189.384 135.577 188.826 116.829 191.16C113.325 183.773 111.553 174.626 112.194 164.872C113.723 141.711 128.287 123.809 144.719 124.893C161.161 125.977 173.242 145.631 171.723 168.792L171.733 168.792Z" fill="white"/>
</mask>
<g mask="url(#mask0_91_11)">
<ellipse cx="141.889" cy="166.021" rx="33" ry="44" transform="rotate(2 141.889 166.021)" fill="white"/>
<circle cx="140" cy="186" r="21" fill="#0B1254"/>
<path d="M153.111 171.815C155.531 169.558 159.33 169.691 161.597 172.111C163.853 174.531 163.721 178.33 161.301 180.597C158.881 182.853 155.082 182.72 152.815 180.3C150.559 177.881 150.691 174.082 153.111 171.815Z" fill="white"/>
</g>
<path d="M112.089 166.419C110.858 147.805 121.196 124.272 142.458 124.023C164.872 124.296 174.387 149.233 171.753 168.503C170.836 153.222 165.918 133.37 150.064 127.753C139.303 123.885 128.203 129.131 122.18 138.286C116.882 145.866 113.369 157.299 112.09 166.409L112.089 166.419Z" fill="#0B1254"/>
<mask id="mask1_91_11" style="mask-type:alpha" maskUnits="userSpaceOnUse" x="203" y="123" width="61" height="70">
<path d="M263.506 163.583C264.021 172.682 262.44 181.233 259.325 188.311C240.497 187.154 230.061 187.874 211.737 192.475C207.358 185.57 204.485 176.707 203.932 166.948C202.627 143.773 214.901 124.229 231.343 123.303C247.794 122.375 262.181 140.41 263.496 163.583L263.506 163.583Z" fill="white"/>
</mask>
<g mask="url(#mask1_91_11)">
<ellipse cx="233.546" cy="164.469" rx="33" ry="44" transform="rotate(-5 233.546 164.469)" fill="white"/>
<circle cx="235" cy="184" r="21" fill="#0B1254"/>
<path d="M245.901 168.641C248.027 166.106 251.815 165.775 254.359 167.901C256.894 170.027 257.225 173.815 255.099 176.359C252.973 178.894 249.186 179.225 246.641 177.099C244.106 174.973 243.775 171.186 245.901 168.641Z" fill="white"/>
</g>
<path d="M204.018 168.496C200.527 150.171 207.92 125.553 228.992 122.715C251.273 120.254 263.756 143.846 263.49 163.293C260.718 148.237 253.417 129.133 236.997 125.49C225.844 122.962 215.467 129.522 210.604 139.343C206.27 147.512 204.176 159.287 204.017 168.486L204.018 168.496Z" fill="#0B1254"/>
<path d="M46.2817 363.183C74.3917 356.113 104.912 341.353 103.962 326.553C103.012 311.753 70.9517 302.523 42.8417 309.593C14.7317 316.663 9.08168 300.073 5.22168 315.963C6.17168 330.763 18.1717 370.253 46.2917 363.183H46.2817Z" fill="#5992F8"/>
<path d="M42.8416 309.593C70.9516 302.523 103.012 311.753 103.962 326.553C104.062 328.173 103.792 329.783 103.192 331.393C96.6116 333.883 89.7016 336.033 82.9216 337.733C54.8116 344.803 31.9116 327.843 30.9616 313.043C30.9216 312.483 30.9216 311.933 30.9516 311.403C34.3916 311.253 38.3316 310.733 42.8416 309.593Z" fill="#2A5AC0"/>
<path d="M57.9314 340.102C86.0414 333.032 116.561 318.272 115.611 303.472C114.661 288.672 82.6014 279.442 54.4914 286.512C26.3814 293.582 5.02141 300.612 5.97141 315.412C6.92141 330.212 29.8214 347.172 57.9314 340.102Z" fill="#5992F8"/>
<path d="M53.7214 325.144C25.8414 332.154 7.42141 326.442 6.19141 311.832C8.67141 299.432 28.7414 292.992 54.4814 286.522C76.7914 280.912 101.591 285.572 111.351 295.132C109.801 309.292 80.6514 318.374 53.7214 325.144Z" fill="#2A5AC0"/>
<path d="M53.4341 319.023C80.0521 305.521 123.942 283.004 120.135 266.08C116.329 249.156 73.4119 250.434 46.784 263.936C20.1654 277.427 1.66916 302.099 5.47535 319.023C9.28153 335.947 26.816 332.525 53.4341 319.023Z" fill="#5992F8"/>
<path d="M340.742 367.625C308.132 359.423 272.727 352.205 273.829 335.036C274.931 317.867 312.123 307.16 344.733 315.361C377.343 323.563 383.897 304.317 388.375 322.751C387.273 339.92 373.364 375.827 340.742 367.625Z" fill="#5992F8"/>
<path d="M344.745 315.361C312.135 307.16 274.943 317.867 273.841 335.036C273.725 336.916 274.038 338.783 274.734 340.651C282.367 343.54 290.395 346.034 298.249 348.006C330.858 356.208 357.424 336.533 358.538 319.364C358.584 318.714 358.584 318.076 358.55 317.461C354.559 317.287 349.988 316.684 344.745 315.361Z" fill="#2A5AC0"/>
<path d="M327.227 350.755C294.617 342.553 259.212 325.431 260.314 308.261C261.416 291.092 298.608 280.385 331.218 288.586C363.828 296.788 388.607 304.944 387.505 322.113C386.403 339.282 359.837 358.957 327.216 350.755H327.227Z" fill="#5992F8"/>
<path d="M332.111 338.922C364.454 347.055 385.823 334.909 387.25 317.96C384.373 303.575 361.09 296.104 331.23 288.598C305.348 282.09 276.578 287.496 265.256 298.586C267.054 315.013 300.87 331.08 332.111 338.934V338.922Z" fill="#2A5AC0"/>
<path d="M324.397 333.284C292.471 319.259 247.774 288.215 251.184 268.378C254.595 248.54 302.173 260.793 334.098 274.819C366.024 288.844 391.798 302.913 388.387 322.751C384.976 342.588 356.322 347.31 324.397 333.284Z" fill="#5992F8"/>
<path d="M114.375 122.262C117.925 128.212 120.61 118.21 128.5 113.5C136.38 108.8 146.475 111.172 142.925 105.222C139.375 99.2718 130.105 98.2518 122.225 102.962C114.345 107.662 110.835 116.302 114.385 122.262H114.375Z" fill="#4AAEE2"/>
<path d="M265.526 123.286C262.046 128.706 263.511 122.46 255.781 117.5C248.051 112.54 234.066 110.756 237.546 105.326C241.026 99.9059 250.116 99.5259 257.836 104.486C265.566 109.446 269.006 117.866 265.516 123.286H265.526Z" fill="#4AAEE2"/>
<path d="M180.328 220.79C177.607 219.611 178.791 215.149 182.753 213.359C188.068 210.957 198.352 213.156 200.386 215.386C202.42 217.616 201.449 223.107 197.961 222.817C194.473 222.527 183.048 221.97 180.328 220.79Z" fill="#FFD523"/>
</g>
<defs>
<clipPath id="clip0_91_11">
<rect width="390" height="390" rx="195" fill="white"/>
</clipPath>
</defs>
</svg>
