<svg width="862" height="861" viewBox="0 0 862 861" fill="none" xmlns="http://www.w3.org/2000/svg">
<path d="M488.5 618L601.431 736.212H223.099H135.834V265.644L374.5 507.5" stroke="white" stroke-width="63" stroke-linecap="round" stroke-linejoin="round"/>
<path d="M144 600.5C144 600.5 222.066 581.554 258.5 621C292.151 657.434 281.5 727.5 281.5 727.5M717.416 716.329L830.088 829H32V32.0171L402 399.855M636.779 635.139L654.453 651.156M573.264 572.088L589.281 587M420.5 549.5L442 572.088" stroke="white" stroke-width="63" stroke-linecap="round" stroke-linejoin="round"/>
<path d="M144 600.5C144 600.5 222.066 581.554 258.5 621C292.151 657.434 281.5 727.5 281.5 727.5M717.416 716.329L830.088 829H32V32.0171L402 399.855M636.779 635.139L654.453 651.156M573.264 572.088L589.281 587M420.5 549.5L442 572.088M455.5 442L460 448M508.5 502.5L523.5 520" stroke="white" stroke-width="63" stroke-linecap="round" stroke-linejoin="round"/>
</svg>
