<svg width="37" height="34" viewBox="0 0 37 34" fill="none" xmlns="http://www.w3.org/2000/svg">
<path d="M8.5 12.7046C8.5 15.077 12.306 17 17 17V12.7046C17 10.592 17 9.53616 16.1554 8.89127C15.3109 8.24722 14.4738 8.4878 12.7989 8.96979C10.2317 9.70908 8.5 11.1041 8.5 12.7046Z" stroke="white" stroke-width="4" stroke-linecap="round" stroke-linejoin="round"/>
<path d="M32 9.5C32 13.6421 25.2843 17 17 17C8.71571 17 2 13.6421 2 9.5C2 5.35786 8.71571 2 17 2C25.2843 2 32 5.35786 32 9.5Z" stroke="white" stroke-width="4" stroke-linecap="round" stroke-linejoin="round"/>
<path d="M2 10.5V24.8333C2 28.7915 8.73814 32 17.0501 32H30.7003C32.7272 32 33.7406 32 34.3703 31.3703C35 30.7406 35 29.7272 35 27.7003V21.2504C35 19.2236 35 18.2101 34.3703 17.5805C33.7406 16.9508 32.7272 16.9508 30.7003 16.9508H17.0501" stroke="white" stroke-width="4" stroke-linecap="round" stroke-linejoin="round"/>
<path d="M27.8333 32V27.6M19.1667 32V27.6M10.5 30.9V26.5" stroke="white" stroke-width="4" stroke-linecap="round" stroke-linejoin="round"/>
</svg>
