<svg width="38" height="30" viewBox="0 0 38 30" fill="none" xmlns="http://www.w3.org/2000/svg">
<path d="M30.6588 26.0135H20.4392V8.8986C21.6249 8.37949 22.5354 7.37611 22.9581 6.14221L30.6228 3.57221C31.1094 3.40905 31.3713 2.88239 31.2081 2.3958L30.6176 0.634079C30.4544 0.147487 29.9277 -0.11439 29.4411 0.0487753L22.594 2.34412C21.7921 0.949958 20.3051 0 18.5811 0C16.0157 0 13.9358 2.07992 13.9358 4.64527C13.9358 4.84444 13.9701 5.03489 13.9945 5.22767L6.53938 7.72741C6.05279 7.89057 5.79091 8.41723 5.95408 8.90382L6.54461 10.6655C6.70777 11.1521 7.23443 11.414 7.72102 11.2508L15.9693 8.48517C16.2056 8.64601 16.4588 8.78246 16.7236 8.8986V28.8007C16.7236 29.314 17.1393 29.7297 17.6526 29.7297H30.6594C31.1727 29.7297 31.5884 29.314 31.5884 28.8007V26.9426C31.5878 26.4293 31.1721 26.0135 30.6588 26.0135ZM37.161 17.652C37.161 16.7125 37.2388 17.1451 32.2225 7.11249C31.1976 5.06334 28.263 5.05928 27.2364 7.11249C22.1777 17.231 22.2985 16.7421 22.2985 17.652H22.2973C22.2973 20.2174 25.6251 22.2973 29.7297 22.2973C33.8344 22.2973 37.1622 20.2174 37.1622 17.652H37.161ZM25.549 16.723L29.7297 8.36149L33.9105 16.723H25.549ZM9.9252 14.5449C8.90034 12.4958 5.96569 12.4917 4.93908 14.5449C-0.119616 24.6635 0.00116132 24.1746 0.00116132 25.0845H0C0 27.6498 3.32776 29.7297 7.43243 29.7297C11.5371 29.7297 14.8649 27.6498 14.8649 25.0845H14.8637C14.8637 24.145 14.9415 24.5775 9.9252 14.5449ZM3.25169 24.1554L7.43243 15.7939L11.6132 24.1554H3.25169Z" fill="white"/>
</svg>
