<svg width="30" height="31" viewBox="0 0 30 31" fill="none" xmlns="http://www.w3.org/2000/svg">
<path opacity="0.9" d="M0.760927 7.48267L0.760997 7.48274L0.76241 7.48104L6.07053 1.1113C6.26498 0.917395 6.52839 0.808489 6.80303 0.808489C7.07767 0.808489 7.34108 0.917395 7.53553 1.1113L12.8437 7.48104L12.8436 7.48111L12.8451 7.48268C13.498 8.13552 13.0331 9.2533 12.1119 9.2533H8.92657H8.90215V9.27772V29.4513C8.90215 29.7264 8.79286 29.9903 8.59832 30.1848C8.40378 30.3794 8.13992 30.4886 7.8648 30.4886H5.74126C5.46614 30.4886 5.20228 30.3794 5.00774 30.1848C4.8132 29.9903 4.70391 29.7264 4.70391 29.4513V9.27772V9.2533H4.67949H1.49419C0.572347 9.2533 0.109996 8.13425 0.760927 7.48267ZM25.8904 26.266V26.2904H25.9148H26.9766C27.2517 26.2904 27.5156 26.3997 27.7101 26.5942C27.9047 26.7888 28.014 27.0526 28.014 27.3278V29.4513C28.014 29.7264 27.9047 29.9903 27.7101 30.1848C27.5156 30.3794 27.2517 30.4886 26.9766 30.4886H20.606C20.3309 30.4886 20.067 30.3794 19.8725 30.1848C19.6779 29.9903 19.5687 29.7264 19.5687 29.4513V27.3278C19.5687 27.0526 19.6779 26.7888 19.8725 26.5942C20.067 26.3997 20.3309 26.2904 20.606 26.2904H21.6678H21.6922V26.266V22.0189V21.9945H21.6678H20.606C20.4292 21.9944 20.2553 21.949 20.1009 21.8628C19.9466 21.7765 19.8168 21.6522 19.724 21.5017C19.6311 21.3512 19.5783 21.1794 19.5706 21.0028C19.5628 20.8261 19.6003 20.6504 19.6795 20.4923L19.6796 20.4923L20.7413 18.3688C20.8275 18.1968 20.9598 18.0522 21.1234 17.9511C21.287 17.8501 21.4755 17.7964 21.6678 17.7963H24.8531C25.1282 17.7963 25.3921 17.9056 25.5866 18.1001C25.7811 18.2946 25.8904 18.5585 25.8904 18.8336V26.266ZM23.2762 11.394L23.3203 11.3568L23.2629 11.3511C20.1161 11.0367 17.7737 7.95074 18.7163 4.57824C18.9652 3.72089 19.4299 2.94174 20.0659 2.31529C20.7019 1.68886 21.488 1.23608 22.3491 1.00026C25.8801 0.0589306 29.0757 2.70977 29.0771 6.09242V6.80712C29.0771 9.13943 28.6091 10.9131 27.6628 12.3085C26.7165 13.7039 25.2901 14.7235 23.3683 15.5442L23.3683 15.5443C22.8272 15.7757 22.2005 15.4618 22.0141 14.9014L22.0143 14.9013L22.0128 14.8982L21.3566 13.5725C21.1871 13.0607 21.3981 12.474 21.8867 12.2544C22.3894 12.0371 22.8575 11.7472 23.2762 11.394ZM23.0404 7.21625C23.2627 7.36477 23.524 7.44404 23.7913 7.44404C24.1498 7.44404 24.4936 7.30164 24.7471 7.04816C25.0005 6.79468 25.1429 6.45089 25.1429 6.09242C25.1429 5.82509 25.0637 5.56377 24.9151 5.3415C24.7666 5.11922 24.5555 4.94598 24.3086 4.84368C24.0616 4.74138 23.7898 4.71461 23.5276 4.76677C23.2654 4.81892 23.0246 4.94765 22.8356 5.13668C22.6465 5.3257 22.5178 5.56654 22.4657 5.82873C22.4135 6.09092 22.4403 6.36268 22.5426 6.60966C22.6449 6.85664 22.8181 7.06773 23.0404 7.21625Z" fill="white" stroke="#2271B3" stroke-width="0.0488281"/>
</svg>
