<svg width="28" height="30" viewBox="0 0 28 30" fill="none" xmlns="http://www.w3.org/2000/svg">
<path d="M3.45125 5.73063L14.4237 9.98626L3.45875 14.2394C2.30937 14.6163 1.71625 15.7638 2.13375 16.8019L2.88937 18.6819C3.30687 19.72 4.57625 20.2563 5.72562 19.8788L24.5637 12.3875C25.4244 12.105 26 11.3494 26 10.5019V9.50438C26 8.65688 25.4244 7.90125 24.5637 7.61875L5.70625 0.120007C4.56312 -0.254993 3.29937 0.278132 2.88437 1.31126L2.1325 3.18126C1.7175 4.21438 2.30812 5.35563 3.45125 5.73063ZM26.5 24H1.5C0.671875 24 0 24.6713 0 25.5V28.5C0 29.3281 0.671875 30 1.5 30H26.5C27.3281 30 28 29.3281 28 28.5V25.5C28 24.6713 27.3281 24 26.5 24Z" fill="white"/>
</svg>
