<svg width="3341" height="3453" viewBox="0 0 3341 3453" fill="none" xmlns="http://www.w3.org/2000/svg">
<path fill-rule="evenodd" clip-rule="evenodd" d="M20 3121.69H3179.56Z" fill="#00000B"/>
<path d="M20 3121.69H3179.56" stroke="black" stroke-width="8.76532" stroke-linecap="round"/>
<path fill-rule="evenodd" clip-rule="evenodd" d="M1523 243L1521.93 3424.27Z" fill="#00000B"/>
<path d="M1523 243L1521.93 3424.27" stroke="black" stroke-width="8.76532" stroke-linecap="round"/>
<path d="M3223.58 3137.26C3188.91 3148.27 3166.43 3158.29 3138.65 3169.91L3137.11 3063.67C3147.16 3068.27 3187.99 3083.84 3222.96 3093.86C3260.41 3104.58 3294.31 3111.79 3316.27 3114.21C3294.36 3117.26 3260.69 3125.47 3223.58 3137.26Z" fill="#00000B"/>
<path d="M1542.12 173.059C1553.13 207.723 1563.15 230.208 1574.77 257.986L1468.52 259.526C1473.12 249.474 1488.7 208.65 1498.71 173.674C1509.43 136.224 1516.65 102.324 1519.07 80.3652C1522.12 102.273 1530.33 135.948 1542.12 173.059Z" fill="#00000B"/>
<path d="M1403.23 225.273C1400.5 225.273 1398.07 225.045 1395.94 224.591C1393.8 224.182 1392.32 223.773 1391.5 223.364L1395.6 209.182C1399.5 210.182 1402.96 210.545 1405.96 210.273C1408.96 210 1411.62 208.659 1413.94 206.25C1416.3 203.886 1418.46 200.045 1420.41 194.727L1423.41 186.545L1384.69 81.2727H1402.14L1431.05 164.727H1432.14L1461.05 81.2727H1478.5L1434.05 201.273C1432.05 206.682 1429.57 211.159 1426.62 214.705C1423.66 218.295 1420.23 220.955 1416.32 222.682C1412.46 224.409 1408.1 225.273 1403.23 225.273Z" fill="black"/>
<path d="M3262.77 3180.32L3287.86 3223.14L3312.95 3180.32H3331.49L3297.68 3232.68L3331.49 3285.05H3312.95L3287.86 3244.41L3262.77 3285.05H3244.22L3277.49 3232.68L3244.22 3180.32H3262.77Z" fill="black"/>
<path d="M1820.18 3088.01V3149.19" stroke="black" stroke-width="9.6" stroke-linecap="round"/>
<path d="M2120.05 3088.01V3149.19" stroke="black" stroke-width="9.6" stroke-linecap="round"/>
<path d="M2420.93 3088.01V3149.19" stroke="black" stroke-width="9.6" stroke-linecap="round"/>
<path d="M2720.8 3088.01V3149.19" stroke="black" stroke-width="9.6" stroke-linecap="round"/>
<path d="M3020.67 3088.01V3149.19" stroke="black" stroke-width="9.6" stroke-linecap="round"/>
<path d="M1827.35 3196.85V3266.67H1818.89V3205.72H1818.48L1801.44 3217.03V3208.44L1818.89 3196.85H1827.35Z" fill="black"/>
<path d="M2098.05 3266.67V3260.53L2121.09 3235.31C2123.8 3232.35 2126.02 3229.78 2127.77 3227.6C2129.52 3225.4 2130.82 3223.33 2131.66 3221.4C2132.52 3219.44 2132.96 3217.4 2132.96 3215.26C2132.96 3212.81 2132.37 3210.68 2131.18 3208.89C2130.02 3207.09 2128.43 3205.7 2126.41 3204.73C2124.39 3203.75 2122.12 3203.26 2119.59 3203.26C2116.91 3203.26 2114.57 3203.82 2112.57 3204.93C2110.59 3206.02 2109.06 3207.56 2107.97 3209.53C2106.9 3211.51 2106.37 3213.83 2106.37 3216.49H2098.32C2098.32 3212.4 2099.26 3208.81 2101.15 3205.72C2103.04 3202.62 2105.6 3200.22 2108.85 3198.49C2112.13 3196.76 2115.8 3195.9 2119.87 3195.9C2123.96 3195.9 2127.58 3196.76 2130.74 3198.49C2133.9 3200.22 2136.38 3202.54 2138.17 3205.48C2139.97 3208.41 2140.87 3211.67 2140.87 3215.26C2140.87 3217.83 2140.4 3220.34 2139.47 3222.79C2138.56 3225.23 2136.97 3227.94 2134.7 3230.94C2132.45 3233.92 2129.32 3237.56 2125.32 3241.85L2109.64 3258.62V3259.17H2142.09V3266.67H2098.05Z" fill="black"/>
<path d="M2421.42 3266.27C2416.92 3266.27 2412.91 3265.49 2409.39 3263.95C2405.89 3262.4 2403.1 3260.25 2401.03 3257.5C2398.99 3254.73 2397.87 3251.52 2397.69 3247.86H2406.28C2406.47 3250.11 2407.24 3252.05 2408.6 3253.69C2409.97 3255.3 2411.75 3256.55 2413.95 3257.44C2416.16 3258.32 2418.6 3258.77 2421.28 3258.77C2424.28 3258.77 2426.94 3258.24 2429.26 3257.2C2431.58 3256.15 2433.4 3254.7 2434.72 3252.83C2436.03 3250.97 2436.69 3248.81 2436.69 3246.36C2436.69 3243.79 2436.06 3241.53 2434.78 3239.57C2433.51 3237.59 2431.65 3236.05 2429.19 3234.94C2426.74 3233.82 2423.74 3233.27 2420.19 3233.27H2414.6V3225.77H2420.19C2422.97 3225.77 2425.4 3225.27 2427.49 3224.27C2429.6 3223.27 2431.25 3221.86 2432.43 3220.04C2433.64 3218.22 2434.24 3216.08 2434.24 3213.63C2434.24 3211.27 2433.72 3209.21 2432.67 3207.46C2431.62 3205.71 2430.15 3204.34 2428.24 3203.37C2426.35 3202.39 2424.12 3201.9 2421.56 3201.9C2419.15 3201.9 2416.87 3202.34 2414.74 3203.23C2412.62 3204.09 2410.9 3205.36 2409.56 3207.02C2408.22 3208.65 2407.49 3210.63 2407.37 3212.95H2399.19C2399.33 3209.29 2400.43 3206.08 2402.5 3203.33C2404.57 3200.56 2407.27 3198.4 2410.61 3196.86C2413.98 3195.31 2417.67 3194.54 2421.69 3194.54C2426.01 3194.54 2429.72 3195.41 2432.81 3197.16C2435.9 3198.89 2438.27 3201.17 2439.93 3204.02C2441.59 3206.86 2442.42 3209.92 2442.42 3213.22C2442.42 3217.15 2441.39 3220.5 2439.32 3223.28C2437.27 3226.05 2434.49 3227.97 2430.97 3229.04V3229.58C2435.37 3230.31 2438.82 3232.19 2441.29 3235.21C2443.77 3238.21 2445.01 3241.92 2445.01 3246.36C2445.01 3250.15 2443.98 3253.56 2441.91 3256.58C2439.86 3259.58 2437.07 3261.95 2433.52 3263.67C2429.98 3265.4 2425.94 3266.27 2421.42 3266.27Z" fill="black"/>
<path d="M2685.97 3252.35V3245.4L2716.66 3196.85H2721.7V3207.62H2718.29L2695.11 3244.31V3244.85H2736.43V3252.35H2685.97ZM2718.84 3266.67V3250.24V3247V3196.85H2726.88V3266.67H2718.84Z" fill="black"/>
<path d="M3016.54 3266.27C3012.54 3266.27 3008.94 3265.47 3005.73 3263.88C3002.53 3262.29 2999.96 3260.11 2998.03 3257.33C2996.09 3254.56 2995.04 3251.4 2994.86 3247.86H3003.04C3003.36 3251.02 3004.79 3253.63 3007.33 3255.7C3009.9 3257.74 3012.97 3258.77 3016.54 3258.77C3019.4 3258.77 3021.95 3258.09 3024.17 3256.75C3026.42 3255.41 3028.19 3253.57 3029.46 3251.23C3030.75 3248.87 3031.4 3246.2 3031.4 3243.22C3031.4 3240.17 3030.73 3237.46 3029.39 3235.07C3028.07 3232.66 3026.25 3230.77 3023.94 3229.38C3021.62 3227.99 3018.97 3227.29 3015.99 3227.27C3013.86 3227.24 3011.66 3227.57 3009.41 3228.25C3007.16 3228.91 3005.31 3229.77 3003.86 3230.81L2995.95 3229.86L3000.17 3195.49H3036.45V3202.99H3007.26L3004.81 3223.58H3005.22C3006.65 3222.45 3008.45 3221.5 3010.61 3220.75C3012.76 3220 3015.01 3219.63 3017.36 3219.63C3021.63 3219.63 3025.44 3220.65 3028.78 3222.7C3032.14 3224.72 3034.78 3227.49 3036.69 3231.02C3038.62 3234.54 3039.58 3238.56 3039.58 3243.08C3039.58 3247.54 3038.58 3251.52 3036.58 3255.02C3034.61 3258.49 3031.88 3261.24 3028.4 3263.27C3024.92 3265.27 3020.97 3266.27 3016.54 3266.27Z" fill="black"/>
<path d="M1465.14 3219.79C1460 3219.79 1455.63 3218.39 1452.02 3215.59C1448.4 3212.78 1445.64 3208.7 1443.73 3203.35C1441.82 3197.99 1440.87 3191.51 1440.87 3183.92C1440.87 3176.38 1441.82 3169.93 1443.73 3164.59C1445.66 3159.23 1448.44 3155.14 1452.05 3152.32C1455.69 3149.48 1460.05 3148.06 1465.14 3148.06C1470.23 3148.06 1474.58 3149.48 1478.2 3152.32C1481.83 3155.14 1484.61 3159.23 1486.52 3164.59C1488.45 3169.93 1489.41 3176.38 1489.41 3183.92C1489.41 3191.51 1488.46 3197.99 1486.55 3203.35C1484.64 3208.7 1481.88 3212.78 1478.27 3215.59C1474.65 3218.39 1470.28 3219.79 1465.14 3219.79ZM1465.14 3212.29C1470.23 3212.29 1474.19 3209.83 1477 3204.92C1479.82 3200.01 1481.23 3193.01 1481.23 3183.92C1481.23 3177.88 1480.58 3172.73 1479.29 3168.48C1478.02 3164.23 1476.17 3160.99 1473.77 3158.76C1471.38 3156.54 1468.5 3155.42 1465.14 3155.42C1460.1 3155.42 1456.15 3157.91 1453.31 3162.89C1450.47 3167.84 1449.05 3174.85 1449.05 3183.92C1449.05 3189.97 1449.69 3195.1 1450.96 3199.33C1452.23 3203.56 1454.06 3206.78 1456.45 3208.98C1458.86 3211.18 1461.75 3212.29 1465.14 3212.29Z" fill="black"/>
<path d="M37.9418 3236.16V3243.66H7.39631V3236.16H37.9418ZM73.7798 3275.78C69.7798 3275.78 66.1776 3274.98 62.973 3273.39C59.7685 3271.8 57.2003 3269.62 55.2685 3266.84C53.3366 3264.07 52.2798 3260.91 52.098 3257.37H60.2798C60.598 3260.53 62.0298 3263.14 64.5753 3265.21C67.1435 3267.25 70.2116 3268.28 73.7798 3268.28C76.6435 3268.28 79.1889 3267.61 81.4162 3266.27C83.6662 3264.92 85.4276 3263.08 86.7003 3260.74C87.9957 3258.38 88.6435 3255.71 88.6435 3252.73C88.6435 3249.69 87.973 3246.97 86.6321 3244.58C85.3139 3242.17 83.4957 3240.28 81.1776 3238.89C78.8594 3237.5 76.2116 3236.8 73.2344 3236.78C71.098 3236.75 68.9048 3237.08 66.6548 3237.77C64.4048 3238.42 62.5526 3239.28 61.098 3240.32L53.1889 3239.37L57.4162 3205H93.6889V3212.5H64.5071L62.0526 3233.09H62.4616C63.8935 3231.96 65.6889 3231.02 67.848 3230.27C70.0071 3229.52 72.2571 3229.14 74.598 3229.14C78.8707 3229.14 82.6776 3230.16 86.0185 3232.21C89.3821 3234.23 92.0185 3237 93.9276 3240.53C95.8594 3244.05 96.8253 3248.07 96.8253 3252.59C96.8253 3257.05 95.8253 3261.03 93.8253 3264.53C91.848 3268 89.1207 3270.75 85.6435 3272.78C82.1662 3274.78 78.2116 3275.78 73.7798 3275.78Z" fill="black"/>
<path d="M307.321 3237.52V3245.02H276.775V3237.52H307.321ZM319.704 3261.86V3254.91L350.386 3206.36H355.431V3217.14H352.022L328.841 3253.82V3254.36H370.159V3261.86H319.704ZM352.568 3276.18V3259.75V3256.51V3206.36H360.613V3276.18H352.568Z" fill="black"/>
<path d="M606.102 3236.16V3243.66H575.556V3236.16H606.102ZM642.588 3275.78C638.088 3275.78 634.076 3275 630.554 3273.46C627.054 3271.91 624.27 3269.77 622.201 3267.02C620.156 3264.24 619.042 3261.03 618.86 3257.37H627.451C627.633 3259.62 628.406 3261.56 629.77 3263.2C631.133 3264.81 632.917 3266.06 635.122 3266.95C637.326 3267.83 639.77 3268.28 642.451 3268.28C645.451 3268.28 648.11 3267.75 650.429 3266.71C652.747 3265.66 654.565 3264.21 655.883 3262.34C657.201 3260.48 657.86 3258.32 657.86 3255.87C657.86 3253.3 657.224 3251.04 655.951 3249.08C654.679 3247.11 652.815 3245.56 650.36 3244.45C647.906 3243.33 644.906 3242.78 641.36 3242.78H635.77V3235.28H641.36C644.133 3235.28 646.565 3234.78 648.656 3233.78C650.77 3232.78 652.417 3231.37 653.599 3229.55C654.804 3227.73 655.406 3225.59 655.406 3223.14C655.406 3220.78 654.883 3218.72 653.838 3216.97C652.792 3215.22 651.315 3213.86 649.406 3212.88C647.52 3211.9 645.292 3211.41 642.724 3211.41C640.315 3211.41 638.042 3211.86 635.906 3212.74C633.792 3213.61 632.065 3214.87 630.724 3216.53C629.383 3218.16 628.656 3220.14 628.542 3222.46H620.36C620.497 3218.8 621.599 3215.59 623.667 3212.84C625.735 3210.07 628.44 3207.91 631.781 3206.37C635.145 3204.82 638.838 3204.05 642.86 3204.05C647.179 3204.05 650.883 3204.92 653.974 3206.67C657.065 3208.4 659.44 3210.69 661.099 3213.53C662.758 3216.37 663.588 3219.44 663.588 3222.73C663.588 3226.66 662.554 3230.02 660.485 3232.79C658.44 3235.56 655.656 3237.48 652.133 3238.55V3239.09C656.542 3239.82 659.985 3241.7 662.463 3244.72C664.94 3247.72 666.179 3251.44 666.179 3255.87C666.179 3259.66 665.145 3263.07 663.076 3266.09C661.031 3269.09 658.235 3271.46 654.69 3273.19C651.145 3274.91 647.11 3275.78 642.588 3275.78Z" fill="black"/>
<path d="M911.883 3237.52V3245.02H881.338V3237.52H911.883ZM922.622 3276.18V3270.05L945.667 3244.82C948.372 3241.86 950.599 3239.3 952.349 3237.11C954.099 3234.91 955.395 3232.84 956.235 3230.91C957.099 3228.95 957.531 3226.91 957.531 3224.77C957.531 3222.32 956.94 3220.19 955.758 3218.4C954.599 3216.6 953.008 3215.22 950.985 3214.24C948.963 3213.26 946.69 3212.77 944.167 3212.77C941.485 3212.77 939.145 3213.33 937.145 3214.44C935.167 3215.53 933.633 3217.07 932.542 3219.05C931.474 3221.02 930.94 3223.34 930.94 3226H922.895C922.895 3221.91 923.838 3218.32 925.724 3215.23C927.61 3212.14 930.179 3209.73 933.429 3208C936.701 3206.27 940.372 3205.41 944.44 3205.41C948.531 3205.41 952.156 3206.27 955.315 3208C958.474 3209.73 960.951 3212.06 962.747 3214.99C964.542 3217.92 965.44 3221.18 965.44 3224.77C965.44 3227.34 964.974 3229.85 964.042 3232.31C963.133 3234.74 961.542 3237.45 959.27 3240.45C957.02 3243.43 953.895 3247.07 949.895 3251.36L934.213 3268.14V3268.68H966.667V3276.18H922.622Z" fill="black"/>
<path d="M1207.2 3237.52V3245.02H1176.65V3237.52H1207.2ZM1245.76 3206.36V3276.18H1237.31V3215.23H1236.9L1219.85 3226.55V3217.95L1237.31 3206.36H1245.76Z" fill="black"/>
<path d="M71.6562 3085.95V3147.13" stroke="black" stroke-width="9.6" stroke-linecap="round"/>
<path d="M321.531 3085.95V3147.13" stroke="black" stroke-width="9.6" stroke-linecap="round"/>
<path d="M621.406 3085.95V3147.13" stroke="black" stroke-width="9.6" stroke-linecap="round"/>
<path d="M921.277 3085.95V3147.13" stroke="black" stroke-width="9.6" stroke-linecap="round"/>
<path d="M1220.15 3085.95V3147.13" stroke="black" stroke-width="9.6" stroke-linecap="round"/>
<path d="M1550.85 2220.5H1489.67" stroke="black" stroke-width="9.6" stroke-linecap="round"/>
<path d="M1550.85 2820.25H1489.67" stroke="black" stroke-width="9.6" stroke-linecap="round"/>
<path d="M1554.05 3419.82H1492.87" stroke="black" stroke-width="9.6" stroke-linecap="round"/>
<path d="M1426.62 2782.37V2852.19H1418.17V2791.23H1417.76L1400.72 2802.55V2793.96L1418.17 2782.37H1426.62Z" fill="black"/>
<path d="M1396.59 2553.45V2547.31L1419.64 2522.08C1422.34 2519.13 1424.57 2516.56 1426.32 2514.38C1428.07 2512.17 1429.37 2510.1 1430.21 2508.17C1431.07 2506.22 1431.5 2504.17 1431.5 2502.04C1431.5 2499.58 1430.91 2497.46 1429.73 2495.66C1428.57 2493.87 1426.98 2492.48 1424.96 2491.5C1422.94 2490.52 1420.66 2490.04 1418.14 2490.04C1415.46 2490.04 1413.12 2490.59 1411.12 2491.71C1409.14 2492.8 1407.61 2494.33 1406.51 2496.31C1405.45 2498.29 1404.91 2500.6 1404.91 2503.26H1396.87C1396.87 2499.17 1397.81 2495.58 1399.7 2492.49C1401.58 2489.4 1404.15 2486.99 1407.4 2485.26C1410.67 2483.54 1414.34 2482.67 1418.41 2482.67C1422.5 2482.67 1426.13 2483.54 1429.29 2485.26C1432.45 2486.99 1434.92 2489.32 1436.72 2492.25C1438.51 2495.18 1439.41 2498.45 1439.41 2502.04C1439.41 2504.6 1438.95 2507.12 1438.01 2509.57C1437.11 2512 1435.51 2514.72 1433.24 2517.72C1430.99 2520.7 1427.87 2524.33 1423.87 2528.63L1408.19 2545.4V2545.95H1440.64V2553.45H1396.59Z" fill="black"/>
<path d="M1416.9 2257.55C1412.4 2257.55 1408.39 2256.78 1404.87 2255.23C1401.37 2253.68 1398.59 2251.54 1396.52 2248.79C1394.47 2246.01 1393.36 2242.8 1393.18 2239.14H1401.77C1401.95 2241.39 1402.72 2243.33 1404.09 2244.97C1405.45 2246.58 1407.23 2247.83 1409.44 2248.72C1411.64 2249.61 1414.09 2250.05 1416.77 2250.05C1419.77 2250.05 1422.43 2249.53 1424.75 2248.48C1427.06 2247.43 1428.88 2245.98 1430.2 2244.12C1431.52 2242.25 1432.18 2240.09 1432.18 2237.64C1432.18 2235.07 1431.54 2232.81 1430.27 2230.86C1429 2228.88 1427.13 2227.33 1424.68 2226.22C1422.22 2225.11 1419.22 2224.55 1415.68 2224.55H1410.09V2217.05H1415.68C1418.45 2217.05 1420.88 2216.55 1422.97 2215.55C1425.09 2214.55 1426.73 2213.14 1427.92 2211.32C1429.12 2209.5 1429.72 2207.37 1429.72 2204.91C1429.72 2202.55 1429.2 2200.49 1428.15 2198.74C1427.11 2196.99 1425.63 2195.63 1423.72 2194.65C1421.84 2193.67 1419.61 2193.18 1417.04 2193.18C1414.63 2193.18 1412.36 2193.63 1410.22 2194.51C1408.11 2195.38 1406.38 2196.64 1405.04 2198.3C1403.7 2199.93 1402.97 2201.91 1402.86 2204.23H1394.68C1394.81 2200.57 1395.92 2197.37 1397.98 2194.62C1400.05 2191.84 1402.76 2189.68 1406.1 2188.14C1409.46 2186.59 1413.15 2185.82 1417.18 2185.82C1421.5 2185.82 1425.2 2186.7 1428.29 2188.45C1431.38 2190.17 1433.76 2192.46 1435.42 2195.3C1437.07 2198.14 1437.9 2201.21 1437.9 2204.5C1437.9 2208.43 1436.87 2211.79 1434.8 2214.56C1432.76 2217.33 1429.97 2219.25 1426.45 2220.32V2220.87C1430.86 2221.59 1434.3 2223.47 1436.78 2226.49C1439.26 2229.49 1440.5 2233.21 1440.5 2237.64C1440.5 2241.43 1439.46 2244.84 1437.39 2247.87C1435.35 2250.87 1432.55 2253.23 1429.01 2254.96C1425.46 2256.68 1421.43 2257.55 1416.9 2257.55Z" fill="black"/>
<path d="M1394.3 1935.88V1928.92L1424.98 1880.38H1430.03V1891.15H1426.62L1403.44 1927.83V1928.38H1444.76V1935.88H1394.3ZM1427.17 1950.2V1933.77V1930.53V1880.38H1435.21V1950.2H1427.17Z" fill="black"/>
<path d="M1551.89 1922.2H1490.71" stroke="black" stroke-width="9.6" stroke-linecap="round"/>
<path d="M1406.88 3390.78V3398.28H1376.33V3390.78H1406.88ZM1445.44 3359.62V3429.44H1436.99V3368.48H1436.58L1419.53 3379.8V3371.21L1436.99 3359.62H1445.44Z" fill="black"/>
<path d="M1551.26 2519.94H1490.07" stroke="black" stroke-width="9.6" stroke-linecap="round"/>
<path d="M1418.35 1656.91C1414.35 1656.91 1410.75 1656.11 1407.54 1654.52C1404.34 1652.93 1401.77 1650.75 1399.84 1647.98C1397.91 1645.21 1396.85 1642.05 1396.67 1638.5H1404.85C1405.17 1641.66 1406.6 1644.27 1409.15 1646.34C1411.71 1648.39 1414.78 1649.41 1418.35 1649.41C1421.21 1649.41 1423.76 1648.74 1425.99 1647.4C1428.24 1646.06 1430 1644.22 1431.27 1641.88C1432.57 1639.51 1433.21 1636.84 1433.21 1633.86C1433.21 1630.82 1432.54 1628.1 1431.2 1625.72C1429.88 1623.31 1428.07 1621.41 1425.75 1620.02C1423.43 1618.64 1420.78 1617.93 1417.8 1617.91C1415.67 1617.89 1413.48 1618.22 1411.23 1618.9C1408.98 1619.56 1407.12 1620.41 1405.67 1621.46L1397.76 1620.5L1401.99 1586.14H1438.26V1593.64H1409.08L1406.62 1614.23H1407.03C1408.46 1613.09 1410.26 1612.15 1412.42 1611.4C1414.58 1610.65 1416.83 1610.27 1419.17 1610.27C1423.44 1610.27 1427.25 1611.3 1430.59 1613.34C1433.95 1615.36 1436.59 1618.14 1438.5 1621.66C1440.43 1625.18 1441.4 1629.21 1441.4 1633.73C1441.4 1638.18 1440.4 1642.16 1438.4 1645.66C1436.42 1649.14 1433.69 1651.89 1430.21 1653.91C1426.74 1655.91 1422.78 1656.91 1418.35 1656.91Z" fill="black"/>
<path d="M1553.89 1620.96H1492.71" stroke="black" stroke-width="9.6" stroke-linecap="round"/>
<path d="M1417.21 1356.91C1414.35 1356.86 1411.49 1356.32 1408.62 1355.27C1405.76 1354.23 1403.15 1352.47 1400.78 1349.99C1398.42 1347.49 1396.52 1344.11 1395.09 1339.86C1393.66 1335.59 1392.94 1330.23 1392.94 1323.77C1392.94 1317.59 1393.52 1312.11 1394.68 1307.34C1395.84 1302.55 1397.52 1298.51 1399.73 1295.24C1401.93 1291.94 1404.59 1289.44 1407.7 1287.74C1410.84 1286.03 1414.37 1285.18 1418.3 1285.18C1422.21 1285.18 1425.69 1285.97 1428.74 1287.53C1431.8 1289.08 1434.3 1291.24 1436.24 1294.01C1438.17 1296.78 1439.42 1299.98 1439.99 1303.59H1431.67C1430.9 1300.46 1429.4 1297.85 1427.17 1295.78C1424.94 1293.72 1421.99 1292.68 1418.3 1292.68C1412.9 1292.68 1408.63 1295.03 1405.52 1299.74C1402.43 1304.44 1400.87 1311.05 1400.85 1319.55H1401.4C1402.67 1317.61 1404.18 1315.97 1405.93 1314.6C1407.7 1313.22 1409.66 1312.15 1411.79 1311.4C1413.93 1310.65 1416.19 1310.27 1418.58 1310.27C1422.58 1310.27 1426.24 1311.27 1429.55 1313.27C1432.87 1315.25 1435.53 1317.99 1437.53 1321.49C1439.53 1324.97 1440.53 1328.96 1440.53 1333.46C1440.53 1337.77 1439.57 1341.73 1437.63 1345.32C1435.7 1348.89 1432.99 1351.73 1429.49 1353.84C1426.01 1355.93 1421.92 1356.96 1417.21 1356.91ZM1417.21 1349.41C1420.08 1349.41 1422.65 1348.69 1424.92 1347.26C1427.21 1345.83 1429.02 1343.91 1430.34 1341.5C1431.68 1339.09 1432.35 1336.41 1432.35 1333.46C1432.35 1330.57 1431.7 1327.94 1430.41 1325.58C1429.13 1323.19 1427.37 1321.3 1425.12 1319.89C1422.9 1318.48 1420.35 1317.77 1417.49 1317.77C1415.33 1317.77 1413.32 1318.21 1411.45 1319.07C1409.59 1319.91 1407.95 1321.07 1406.54 1322.55C1405.16 1324.02 1404.07 1325.72 1403.27 1327.63C1402.48 1329.51 1402.08 1331.5 1402.08 1333.59C1402.08 1336.36 1402.73 1338.96 1404.02 1341.36C1405.34 1343.77 1407.13 1345.72 1409.41 1347.19C1411.7 1348.67 1414.3 1349.41 1417.21 1349.41Z" fill="black"/>
<path d="M1552.89 1320.96H1491.71" stroke="black" stroke-width="9.6" stroke-linecap="round"/>
<path d="M1400.28 1055.96L1431.5 994.182V993.637H1395.5V986.137H1440.23V994.046L1409.14 1055.96H1400.28Z" fill="black"/>
<path d="M1551.89 1020.96H1490.71" stroke="black" stroke-width="9.6" stroke-linecap="round"/>
<path d="M1417.15 757.91C1412.46 757.91 1408.33 757.08 1404.74 755.421C1401.17 753.739 1398.38 751.432 1396.38 748.501C1394.38 745.546 1393.4 742.182 1393.42 738.41C1393.4 735.455 1393.98 732.728 1395.16 730.228C1396.34 727.705 1397.95 725.603 1400 723.921C1402.07 722.216 1404.37 721.137 1406.92 720.682V720.273C1403.58 719.41 1400.92 717.535 1398.94 714.648C1396.96 711.739 1395.99 708.432 1396.01 704.728C1395.99 701.182 1396.88 698.012 1398.7 695.216C1400.52 692.421 1403.02 690.216 1406.2 688.603C1409.41 686.989 1413.05 686.182 1417.15 686.182C1421.19 686.182 1424.8 686.989 1427.99 688.603C1431.17 690.216 1433.67 692.421 1435.49 695.216C1437.33 698.012 1438.26 701.182 1438.28 704.728C1438.26 708.432 1437.25 711.739 1435.25 714.648C1433.27 717.535 1430.65 719.41 1427.37 720.273V720.682C1429.9 721.137 1432.17 722.216 1434.19 723.921C1436.21 725.603 1437.83 727.705 1439.03 730.228C1440.24 732.728 1440.85 735.455 1440.87 738.41C1440.85 742.182 1439.83 745.546 1437.8 748.501C1435.8 751.432 1433.02 753.739 1429.45 755.421C1425.91 757.08 1421.8 757.91 1417.15 757.91ZM1417.15 750.41C1420.3 750.41 1423.03 749.898 1425.33 748.876C1427.62 747.853 1429.4 746.41 1430.65 744.546C1431.9 742.682 1432.53 740.501 1432.55 738.001C1432.53 735.364 1431.85 733.035 1430.51 731.012C1429.17 728.989 1427.34 727.398 1425.02 726.239C1422.73 725.08 1420.1 724.501 1417.15 724.501C1414.17 724.501 1411.51 725.08 1409.17 726.239C1406.85 727.398 1405.02 728.989 1403.68 731.012C1402.36 733.035 1401.71 735.364 1401.74 738.001C1401.71 740.501 1402.32 742.682 1403.54 744.546C1404.79 746.41 1406.58 747.853 1408.9 748.876C1411.21 749.898 1413.96 750.41 1417.15 750.41ZM1417.15 717.273C1419.65 717.273 1421.86 716.773 1423.79 715.773C1425.75 714.773 1427.28 713.376 1428.4 711.58C1429.51 709.785 1430.08 707.682 1430.1 705.273C1430.08 702.91 1429.52 700.853 1428.43 699.103C1427.34 697.33 1425.83 695.966 1423.9 695.012C1421.96 694.035 1419.71 693.546 1417.15 693.546C1414.53 693.546 1412.25 694.035 1410.29 695.012C1408.34 695.966 1406.83 697.33 1405.76 699.103C1404.69 700.853 1404.17 702.91 1404.19 705.273C1404.17 707.682 1404.7 709.785 1405.79 711.58C1406.91 713.376 1408.44 714.773 1410.4 715.773C1412.35 716.773 1414.6 717.273 1417.15 717.273Z" fill="black"/>
<path d="M1552.89 721.955H1491.71" stroke="black" stroke-width="9.6" stroke-linecap="round"/>
<path d="M1416.55 386.227C1419.41 386.25 1422.28 386.795 1425.14 387.864C1428 388.932 1430.62 390.705 1432.98 393.182C1435.34 395.636 1437.24 398.989 1438.67 403.239C1440.11 407.489 1440.82 412.818 1440.82 419.227C1440.82 425.432 1440.23 430.943 1439.05 435.761C1437.89 440.557 1436.21 444.602 1434 447.898C1431.82 451.193 1429.16 453.693 1426.03 455.398C1422.91 457.102 1419.39 457.955 1415.46 457.955C1411.55 457.955 1408.06 457.182 1404.99 455.636C1401.95 454.068 1399.45 451.898 1397.49 449.125C1395.56 446.33 1394.32 443.091 1393.78 439.409H1402.09C1402.84 442.614 1404.33 445.261 1406.56 447.352C1408.81 449.42 1411.78 450.455 1415.46 450.455C1420.84 450.455 1425.09 448.102 1428.21 443.398C1431.34 438.693 1432.91 432.045 1432.91 423.455H1432.37C1431.09 425.364 1429.58 427.011 1427.83 428.398C1426.08 429.784 1424.14 430.852 1422 431.602C1419.87 432.352 1417.59 432.727 1415.18 432.727C1411.18 432.727 1407.51 431.739 1404.17 429.761C1400.86 427.761 1398.2 425.023 1396.2 421.545C1394.22 418.045 1393.23 414.045 1393.23 409.545C1393.23 405.273 1394.18 401.364 1396.09 397.818C1398.03 394.25 1400.73 391.409 1404.21 389.295C1407.71 387.182 1411.82 386.159 1416.55 386.227ZM1416.55 393.727C1413.68 393.727 1411.11 394.443 1408.81 395.875C1406.54 397.284 1404.73 399.193 1403.39 401.602C1402.07 403.989 1401.41 406.636 1401.41 409.545C1401.41 412.455 1402.05 415.102 1403.32 417.489C1404.62 419.852 1406.38 421.739 1408.61 423.148C1410.86 424.534 1413.41 425.227 1416.28 425.227C1418.43 425.227 1420.45 424.807 1422.31 423.966C1424.17 423.102 1425.8 421.932 1427.18 420.455C1428.59 418.955 1429.7 417.261 1430.49 415.375C1431.29 413.466 1431.68 411.477 1431.68 409.409C1431.68 406.682 1431.03 404.125 1429.71 401.739C1428.41 399.352 1426.62 397.42 1424.32 395.943C1422.05 394.466 1419.46 393.727 1416.55 393.727Z" fill="black"/>
<path d="M1553.18 422H1492" stroke="black" stroke-width="9.6" stroke-linecap="round"/>
</svg>
