<svg width="3337" height="1721" viewBox="0 0 3337 1721" fill="none" xmlns="http://www.w3.org/2000/svg">
<path d="M2616.15 242.293C2580.06 314.193 2541.41 354.273 2465.08 385.563C2407.71 409.083 2405.72 389.813 2388.77 416.713C2386.36 416.313 2384.82 414.613 2382.54 413.603C2387.03 395.573 2381.08 401.823 2360.74 382.453C2353.99 360.943 2342.29 286.853 2348.28 268.763C2350.68 261.523 2404.14 242.093 2382.54 215.813C2368.61 198.863 2351.71 224.043 2349.84 223.603C2344.18 222.273 2343.09 190.273 2340.5 186.223C2336.33 179.723 2234.46 138.753 2223.71 114.583C2248.14 118.133 2545.47 226.003 2616.16 242.283L2616.15 242.293Z" fill="#370F06" stroke="black" stroke-width="0.75" stroke-miterlimit="10"/>
<path d="M2447.96 588.023C2439.15 585.363 2442.14 598.333 2438.62 609.823C2438.13 611.423 2430.49 628.823 2426.16 640.973C2410.71 684.333 2417.78 682.473 2416.82 684.583C2412.54 693.943 2395.73 711.533 2384.12 715.733C2330.82 732.583 2278.5 750.463 2226.83 771.793C2201.45 782.273 2172.33 790.813 2152.08 809.173C2151.8 808.903 2149.12 808.963 2145.85 804.503L2175.44 746.883L2314.04 673.693C2310.98 667.253 2277.11 677.663 2270.43 678.363C2246.59 680.873 2226 683.743 2201.91 678.363C2209.02 649.313 2211.09 645.543 2195.68 619.183C2251.36 622.083 2307.39 635.613 2363.87 626.973C2404.86 509.673 2354.7 519.263 2354.53 499.273C2354.49 494.953 2384.12 428.033 2388.79 419.853C2507.55 463.323 2458.53 486.543 2447.97 588.043L2447.96 588.023Z" fill="#FFAA7F" stroke="black" stroke-width="0.75" stroke-miterlimit="10"/>
<path d="M2616.14 242.293C2545.45 226.013 2248.12 118.133 2223.69 114.593C2217.04 113.623 2214.79 110.633 2212.79 111.483C2198.35 133.973 2187.28 159.263 2183.2 186.233C2171.59 178.233 2178.1 212.643 2170.74 218.933L2167.63 164.423C2179.81 27.6632 2298.44 28.3132 2352.95 58.5232C2396.53 82.6732 2413.64 157.963 2651.96 139.503C2650.54 176.403 2632.17 210.353 2616.14 242.283V242.293Z" fill="#752E14" stroke="black" stroke-width="0.75" stroke-miterlimit="10"/>
<path d="M2388.77 416.723C2388.31 417.463 2389.22 419.053 2388.77 419.833C2384.1 428.013 2354.47 494.933 2354.51 499.253C2354.69 519.243 2404.85 509.653 2363.85 626.953C2307.37 635.593 2251.34 622.063 2195.66 619.163C2172.52 617.963 2124.96 609.743 2114.68 665.883H2077.3C2107.13 626.003 2135.6 601.383 2176.97 570.883C2173.37 550.863 2211.92 457.103 2220.58 441.623C2224.92 433.853 2226.91 423.913 2236.15 419.823L2198.77 514.823C2229.22 538.113 2245.03 557.063 2256.39 594.243C2282.92 517.363 2339.91 510.603 2348.27 499.243C2352.11 473.703 2378.36 430.353 2382.53 413.593C2384.81 414.613 2386.35 416.303 2388.76 416.703L2388.77 416.723Z" fill="#04030B" stroke="black" stroke-width="0.75" stroke-miterlimit="10"/>
<path d="M2220.58 441.633C2211.92 457.113 2173.39 550.873 2176.98 570.893C2135.61 601.393 2107.13 626.013 2077.3 665.893C2066.29 680.613 2052.11 694.603 2046.16 712.613C2043 712.883 2024.87 721.923 2021.24 725.073C1991.49 719.803 2050.01 647.143 2064.84 620.733C2076.03 600.793 2087.83 565.893 2095.99 553.763C2100.85 546.543 2105.82 543.843 2111.56 538.193C2117.54 532.303 2129.75 526.393 2130.25 516.393H2138.04L2220.58 441.643V441.633Z" fill="#FFAA7F" stroke="black" stroke-width="0.75" stroke-miterlimit="10"/>
<path d="M2183.21 186.233C2176.05 233.613 2197.23 325.553 2250.18 338.853C2255.54 340.203 2307.39 320.863 2264.2 391.803C2254.31 355.573 2205.19 375.653 2180.1 315.493C2163 274.493 2163.71 208.573 2167.64 164.433L2170.75 218.943C2178.11 212.643 2171.6 178.233 2183.21 186.243V186.233Z" fill="#370F06" stroke="black" stroke-width="0.75" stroke-miterlimit="10"/>
<path d="M2223.7 114.593C2234.45 138.763 2336.33 179.733 2340.5 186.233C2343.09 190.273 2344.18 222.283 2349.84 223.613C2351.71 224.053 2368.62 198.873 2382.54 215.823C2404.13 242.103 2350.68 261.533 2348.28 268.773C2342.29 286.863 2353.99 360.943 2360.74 382.463C2361.35 384.413 2354.74 401.203 2382.54 413.613C2378.37 430.373 2352.12 473.733 2348.28 499.263C2339.92 510.623 2282.93 517.383 2256.4 594.263C2245.04 557.083 2229.22 538.123 2198.78 514.843L2236.16 419.843C2249.26 412.043 2256.29 404.793 2264.19 391.813C2307.38 320.873 2255.54 340.213 2250.17 338.863C2197.23 325.563 2176.04 233.623 2183.2 186.243C2187.28 159.263 2198.35 133.983 2212.79 111.493C2214.79 110.653 2217.04 113.643 2223.69 114.603L2223.7 114.593Z" fill="#FFAA7F" stroke="black" stroke-width="0.75" stroke-miterlimit="10"/>
<path d="M2382.55 413.603C2354.75 401.203 2361.36 384.403 2360.75 382.453C2381.1 401.823 2387.04 395.573 2382.55 413.603Z" fill="white" stroke="black" stroke-width="0.75" stroke-miterlimit="10"/>
<path d="M2281.33 211.153C2292.34 206.093 2302.24 231.133 2290.67 236.073C2278 241.473 2272.12 215.393 2281.33 211.153Z" fill="#04030B" stroke="black" stroke-width="0.75" stroke-miterlimit="10"/>
<path d="M2206.57 217.383C2216.38 214.803 2220.23 242.243 2209.69 242.303C2199.68 242.363 2198.99 219.383 2206.57 217.383Z" fill="#120301" stroke="black" stroke-width="0.75" stroke-miterlimit="10"/>
<path d="M2262.64 292.134C2267.16 292.094 2271.68 291.144 2273.54 293.694C2252.52 317.564 2211.42 292.564 2262.64 292.134Z" fill="white" stroke="black" stroke-width="0.75" stroke-miterlimit="10"/>
<path d="M2268.87 176.893C2297.56 174.723 2296.19 189.183 2278.21 186.233C2277.56 186.123 2274.43 179.323 2268.87 176.893Z" fill="#370F06" stroke="black" stroke-width="0.75" stroke-miterlimit="10"/>
<path d="M2197.23 189.343C2198.79 188.823 2211.21 188.823 2212.8 189.343C2241.09 198.623 2175.06 196.723 2197.23 189.343Z" fill="#370F06" stroke="black" stroke-width="0.75" stroke-miterlimit="10"/>
<path d="M2247.07 242.293C2250.21 243.093 2244.97 263.233 2243.96 264.093C2238.79 268.533 2241.86 240.963 2247.07 242.293Z" fill="#FF9461" stroke="black" stroke-width="0.75" stroke-miterlimit="10"/>
<path d="M2368.53 226.723C2370.52 226.313 2372.64 226.453 2373.2 228.283C2377.57 242.533 2340.66 232.423 2368.53 226.723Z" fill="#DF7850" stroke="black" stroke-width="0.75" stroke-miterlimit="10"/>
<path d="M2201.89 678.353C2225.99 683.733 2246.58 680.863 2270.41 678.353C2249.99 704.633 2142.01 725.173 2201.89 678.353Z" fill="#04030B" stroke="black" stroke-width="0.75" stroke-miterlimit="10"/>
<path d="M1227 681.463L1267.49 693.923C1266.09 694.023 1258.95 703.603 1241.02 703.263C1238.14 703.213 1218.34 694.543 1214.55 693.923C1216.23 676.913 1225.85 682.313 1227.01 681.463H1227Z" fill="#A3DDFC" stroke="black" stroke-width="0.75" stroke-miterlimit="10"/>
<path d="M1068.15 133.283C1064.79 122.083 1053.76 108.293 1051.02 95.9033C1040.56 90.9933 929.754 109.383 920.204 117.703C892.854 141.553 930.714 268.023 889.054 220.483C833.134 232.163 898.304 262.053 899.954 267.203C830.844 256.783 853.574 169.003 828.314 113.023C868.654 74.8133 851.754 57.5133 876.594 36.7133C884.034 30.4833 896.954 27.5733 904.624 21.1433C928.404 25.7333 1035.36 -28.5467 1069.7 24.2533C1075.77 33.5933 1064.79 40.5333 1065.03 41.3833C1066.85 47.9133 1131.29 38.5733 1068.14 133.263L1068.15 133.283Z" fill="#370F06" stroke="black" stroke-width="0.75" stroke-miterlimit="10"/>
<path d="M1142.91 756.213C1061.64 788.343 922.504 801.243 842.344 762.443C837.324 756.613 853.314 756.463 862.594 731.293C869.034 713.813 869.794 713.023 868.824 690.803C868.084 673.823 858.384 631.273 853.254 612.933C852.214 609.203 851.924 598.083 850.144 591.133C862.524 592.633 958.064 725.893 1016.77 740.633C1048.35 748.563 1111.52 742.073 1142.91 756.203V756.213Z" fill="#F06A2B" stroke="black" stroke-width="0.75" stroke-miterlimit="10"/>
<path d="M1127.34 581.793C1123.73 604.423 1117.27 627.543 1114.88 650.313C1114.13 657.403 1115.4 664.973 1114.88 672.113C1100.87 668.773 1069.25 666.823 1051.03 662.773C1041.09 657.953 1007.18 586.983 996.515 570.893C975.045 538.483 845.401 399.8 921.001 480L1079 452C1131.96 457.74 1110.85 582.603 1127.33 581.803L1127.34 581.793Z" fill="#DF7850" stroke="black" stroke-width="0.75" stroke-miterlimit="10"/>
<path d="M1068.15 133.283C1073.14 149.913 1083.22 269.333 1080.61 284.343C1078.81 294.653 1061.35 324.853 1052.58 332.623C966.604 344.413 961.304 344.453 913.984 270.333C922.174 322.983 965.024 368.163 1021.44 354.433C1040.72 416.473 1114.56 359.753 1220.78 500.823C1221.74 502.103 1221.99 508.383 1236.35 528.853C1248.4 546.033 1255.55 567.553 1272.17 581.803C1304.97 579.093 1409.53 563.06 1434 564.5C1481.84 567.31 1444.49 579.633 1448.15 616.063C1447.74 616.583 1442.92 617.633 1438.81 625.403C1431.01 626.143 1424.69 623.043 1417.01 622.293C1410.26 621.633 1408.68 621.653 1401.44 622.293C1392.94 623.053 1395.56 625.363 1395.21 625.403C1384.48 626.773 1380.96 628.313 1379.64 628.513C1371.56 629.773 1362.92 630.323 1354.72 631.623C1310.74 638.633 1290.33 643.393 1242.59 647.193C1203.59 641.663 1164.06 579.993 1127.35 581.783C1110.87 582.583 1096.46 471.24 1043.5 465.5L965.5 484.5C932.5 490 975.074 538.463 996.544 570.873C1007.2 586.973 1041.11 657.933 1051.05 662.753C1069.27 666.813 1100.89 668.753 1114.9 672.093C1148.16 680.023 1180.7 688.353 1214.57 693.893C1218.36 694.513 1238.16 703.183 1241.04 703.233C1258.97 703.573 1266.11 693.983 1267.51 693.893C1293.82 692.043 1304.14 688.373 1332.92 700.123C1332.62 703.643 1332.32 709.503 1332.92 712.583C1279.97 702.263 1328.3 716.133 1336.03 721.923C1338.01 723.413 1364.7 751.613 1370.29 757.743C1370.48 757.953 1365.91 761.003 1367.18 762.413C1363.56 762.703 1362.27 765.803 1360.95 768.643L1320.46 757.743C1319.19 762.053 1357.13 780.463 1348.49 787.333C1331.07 786.703 1333.01 796.703 1308 790.443C1287.36 785.273 1253.69 753.963 1250.38 753.063C1240.76 750.473 1161.81 752.713 1142.92 756.173C1111.52 742.043 1048.36 748.533 1016.78 740.603C958.074 725.863 862.524 592.593 850.154 591.103C692.544 374.823 935.364 445.143 899.984 267.173C898.334 262.023 833.164 232.133 889.084 220.453C930.744 267.993 892.874 141.523 920.234 117.673C929.784 109.343 1040.58 90.9634 1051.05 95.8734C1053.79 108.253 1064.82 122.043 1068.18 133.253L1068.15 133.283Z" fill="#FF9461" stroke="black" stroke-miterlimit="10"/>
<path d="M1052.58 332.623C1032.1 350.753 1030.4 343.493 1026.11 345.083C1020.5 347.153 1021.95 354.303 1021.44 354.423C965.034 368.153 922.174 322.973 913.984 270.323C961.304 344.443 966.604 344.403 1052.58 332.613V332.623Z" fill="#DF7850"/>
<path d="M1032.33 279.673C1043.82 282.773 1022.3 324.023 974.713 290.573L1032.33 279.673Z" fill="white"/>
<path d="M963.814 167.543C1009.54 163.933 969.234 191.183 937.344 184.673C941.364 176.173 955.824 168.173 963.814 167.543Z" fill="#370F06"/>
<path d="M1051.02 164.433C1092.92 164.103 1042.93 185.863 1035.45 186.233C1010.64 187.453 1035.14 164.553 1051.02 164.433Z" fill="#4C1709"/>
<path d="M1047.91 195.573C1055.72 195.483 1062.59 219.284 1054.14 223.604C1037.8 231.964 1036.34 195.703 1047.91 195.573Z" fill="#120301"/>
<path d="M1360.93 768.673C1358.19 774.583 1355.75 780.873 1354.7 787.363C1352.77 786.983 1350.48 787.543 1348.47 787.363C1357.11 780.493 1319.17 762.083 1320.44 757.773L1360.93 768.673Z" fill="#FF9461"/>
<path d="M963.814 198.693C975.864 194.623 978.854 223.583 970.044 226.723C960.434 230.153 953.414 202.203 963.814 198.693Z" fill="#120301"/>
<path d="M1332.9 712.614C1332.99 713.094 1337.47 711.204 1336.01 721.954C1328.27 716.164 1279.95 702.294 1332.9 712.614Z" fill="#B2A9B8"/>
<path d="M1010.53 236.063C1014.96 234.223 1030.87 256.613 1013.64 267.213L1010.53 236.063Z" fill="#FF9461"/>
<path d="M879.723 232.953C880.653 232.553 897.663 241.493 896.853 243.853C895.333 248.283 871.713 236.423 879.723 232.953Z" fill="#DF7850"/>
<path d="M1401.42 622.283L1398.31 628.513C1398.16 628.353 1394.85 629.183 1395.2 625.403C1395.55 625.363 1392.93 623.043 1401.43 622.293L1401.42 622.283Z" fill="#655962" stroke="black" stroke-width="0.75" stroke-miterlimit="10"/>
<path d="M1519.78 429.174C1525.37 436.674 1528.19 437.364 1529.12 438.514C1542.78 455.444 1553.37 474.744 1571.17 488.344C1584.11 493.854 1591.49 482.294 1594.53 482.114C1595.95 482.034 1588.89 493.434 1617.89 485.224C1627.61 482.474 1656.18 461.774 1666.17 454.074C1676.91 501.154 1707.06 502.304 1745.59 482.104C1756.71 476.274 1919.82 317.704 1924.68 306.124C1933.95 284.054 1900.77 202.524 1941.81 276.534C1947.22 276.544 1980.73 181.234 1969.84 257.844L1991.64 232.924C2003.5 242.744 1976.01 256.534 1979.18 270.304C2022.14 219.754 2021.65 243.934 1980.74 290.554C1989.83 288.024 2024.66 260.164 2015 284.324C2009.8 297.334 1970.8 310.814 1943.36 337.274C1925.3 354.684 1839.91 465.104 1812.54 497.684C1799.33 498.454 1798.03 512.964 1790.74 519.484C1784.88 524.724 1751.47 552.894 1750.25 555.304C1748.9 557.964 1742.5 602.924 1740.91 612.924C1739.54 621.534 1734.58 664.954 1734.68 668.984C1734.73 671.044 1734.57 673.164 1734.68 675.214L1725.34 748.404C1715.86 765.234 1561.72 772.424 1544.69 746.844C1544.89 745.844 1544.49 744.724 1544.69 743.734C1552.42 704.414 1546.65 648.224 1541.58 606.684C1539.47 589.444 1536.74 572.864 1538.47 555.294C1536.43 549.104 1529.42 545.044 1529.13 544.394C1521.16 526.804 1511.29 520.784 1510.44 519.474C1495.85 497.064 1489.58 492.944 1488.64 491.444C1440.12 413.794 1378.59 260.644 1370.28 250.054C1363.9 241.914 1320.11 221.044 1314.22 206.444C1297.14 164.174 1393.73 252.334 1314.22 172.184C1319.78 148.054 1394.21 240.104 1336.02 159.724C1340.62 143.814 1370.33 182.694 1374.95 189.314L1381.18 151.934L1396.75 201.764C1467.42 119.934 1402.76 225.534 1404.54 240.694C1405.83 251.664 1505.85 410.434 1519.78 429.134V429.174Z" fill="#FFAA7F" stroke="black" stroke-width="0.75" stroke-miterlimit="10"/>
<path d="M1669.28 450.983C1669.11 451.123 1669.12 451.813 1666.17 454.093C1656.18 461.793 1627.61 482.493 1617.89 485.243C1588.89 493.443 1595.95 482.043 1594.53 482.133C1594.44 480.083 1594.72 477.933 1594.53 475.903C1610.31 462.563 1647.21 466.443 1669.28 444.753V450.983Z" fill="#DF7850" stroke="black" stroke-width="0.75" stroke-miterlimit="10"/>
<path d="M1537.8 436.954C1545.83 438.534 1554.28 457.084 1564.95 463.444C1573.92 468.784 1593.45 464.254 1594.54 475.904C1594.73 477.934 1594.45 480.084 1594.54 482.134C1591.5 482.314 1584.12 493.874 1571.18 488.364C1553.39 474.764 1542.79 455.464 1529.13 438.534" fill="white"/>
<path d="M1537.8 436.954C1545.83 438.534 1554.28 457.084 1564.95 463.444C1573.92 468.784 1593.45 464.254 1594.54 475.904C1594.73 477.934 1594.45 480.084 1594.54 482.134C1591.5 482.314 1584.12 493.874 1571.18 488.364C1553.39 474.764 1542.79 455.464 1529.13 438.534" stroke="black" stroke-width="0.75" stroke-miterlimit="10"/>
<path d="M1669.28 450.984V444.754C1678.25 435.944 1686.46 421.404 1684.85 408.934C1772.04 349.634 1696.4 360.294 1694.19 355.984C1690.45 348.664 1714.7 278.834 1606.98 299.924C1716.11 320.634 1612.32 327.534 1592.96 323.284C1585.65 321.674 1563.95 291.224 1574.27 323.284C1499.74 304.874 1532.69 319.434 1522.88 370.004C1445.46 255.054 1553.21 172.264 1670.83 204.924C1688.3 33.9036 1850.45 204.344 1715.99 228.284C1774.5 304.864 1737.28 395.164 1669.27 450.984H1669.28Z" fill="#752E14" stroke="black" stroke-width="0.75" stroke-miterlimit="10"/>
<path d="M1540.03 267.213C1537.87 303.523 1535.03 287.113 1527.57 313.933L1540.03 267.213Z" fill="#FFAA7F" stroke="black" stroke-width="0.75" stroke-miterlimit="10"/>
<path d="M1577.4 292.134C1576.32 296.424 1589.55 299.944 1591.42 303.034C1594.91 308.814 1572.67 299.694 1577.4 292.134Z" fill="#FFAA7F" stroke="black" stroke-width="0.75" stroke-miterlimit="10"/>
<path d="M1669.28 444.754C1647.21 466.444 1610.31 462.564 1594.53 475.904C1593.44 464.254 1573.61 469.264 1564.94 463.444C1552.48 455.084 1536.8 436.244 1537.79 436.954C1532.5 427.564 1525.25 408.614 1526 410.494C1524.1 399.474 1533.49 381.234 1522.89 370.004C1532.7 319.434 1499.75 304.874 1574.28 323.284C1563.96 291.224 1585.65 321.674 1592.97 323.284C1612.32 327.534 1716.11 320.634 1606.99 299.924C1714.71 278.844 1690.46 348.664 1694.2 355.984C1696.4 360.294 1772.05 349.634 1684.86 408.934C1686.47 421.404 1678.25 435.934 1669.29 444.754H1669.28Z" fill="#FFAA7F" stroke="black" stroke-width="0.75" stroke-miterlimit="10"/>
<path d="M1566.51 416.724C1578.13 423.164 1597.03 431.324 1610.12 429.184L1566.51 416.724Z" fill="#DF7850"/>
<path d="M1566.51 416.724C1578.13 423.164 1597.03 431.324 1610.12 429.184" stroke="black" stroke-width="0.75" stroke-miterlimit="10"/>
<path d="M1610.12 429.173C1596.48 438.663 1578 424.903 1566.51 416.713C1567.64 417.693 1561.02 412.313 1564.95 410.483C1618.22 414.043 1647.23 403.353 1610.11 429.173H1610.12Z" fill="white" stroke="black" stroke-width="0.75" stroke-miterlimit="10"/>
<path d="M1633.48 338.854C1643.68 336.684 1649.89 361.994 1639.71 366.884C1623.16 374.834 1622.87 341.104 1633.48 338.854Z" fill="#120301" stroke="black" stroke-width="0.75" stroke-miterlimit="10"/>
<path d="M1555.61 338.854C1570.92 336.344 1568.26 366.144 1558.72 366.884C1547.09 367.794 1543.97 340.764 1555.61 338.854Z" fill="#120301" stroke="black" stroke-width="0.75" stroke-miterlimit="10"/>
<path d="M1592.98 376.224C1598.34 375.024 1596.46 391.204 1589.87 388.684C1586.09 387.244 1592.36 376.364 1592.98 376.224Z" fill="#FF9461" stroke="black" stroke-width="0.75" stroke-miterlimit="10"/>
<path d="M535.542 1267.02C526.582 1275.53 550.212 1292.31 562.012 1301.28C915.222 1569.61 2425.65 1601.02 2812.36 1273.25C2826.86 1297.56 2830.67 1306.67 2834.16 1335.54L2829.49 1382.26L2826.38 1351.11C2734.43 1523.79 2365.89 1601.98 2184.76 1625.2C1983.9 1650.95 1448.36 1653.02 1244.13 1634.54C1053.7 1617.32 652.252 1543.05 532.432 1383.81C519.552 1366.69 507.212 1350.46 504.402 1329.3C510.582 1288.81 518.542 1289.94 535.552 1263.89V1267L535.542 1267.02Z" fill="#002C50" stroke="black" stroke-width="0.75" stroke-miterlimit="10"/>
<path d="M2834.17 1335.54C2849.66 1463.48 2748.71 1526.45 2645.73 1572.25C2203.05 1769.15 1173.56 1764.23 723.983 1584.71C611.393 1539.75 482.723 1471.37 504.403 1329.31C507.213 1350.47 519.553 1366.69 532.433 1383.82C652.253 1543.06 1053.71 1617.33 1244.13 1634.55C1448.36 1653.02 1983.9 1650.96 2184.76 1625.21C2365.89 1601.99 2734.43 1523.8 2826.38 1351.12L2829.49 1382.27L2834.16 1335.55L2834.17 1335.54Z" fill="#002C50" stroke="black" stroke-width="0.75" stroke-miterlimit="10"/>
<path d="M965.373 1419.64C1363.39 1491.87 1971.86 1491.4 2370.09 1419.64C2495.3 1397.08 2640.34 1363.79 2751.64 1301.28C2772.14 1289.77 2799.49 1261.81 2809.26 1270.13C2809.38 1270.31 2810 1269.27 2812.37 1273.24C2425.66 1601.02 915.243 1569.6 562.023 1301.27C550.223 1292.3 526.583 1275.52 535.553 1267.01C659.173 1353.49 817.983 1392.88 965.373 1419.63V1419.64Z" fill="#595764" stroke="black" stroke-width="0.75" stroke-miterlimit="10"/>
<path d="M2790.57 1242.1C2790.27 1241.78 2786.9 1242.28 2784.34 1242.1C2803.65 1216.91 2830.99 1159.55 2823.27 1129.97C2727.84 1312.78 2349.81 1369.71 2159.85 1391.6C1851.69 1427.11 1293.98 1420.17 988.734 1363.57C845.354 1336.98 536.104 1262.61 507.514 1098.82C512.724 1058.37 525.284 1045.56 526.204 1042.76C794.114 1276.1 1541.84 1304.73 1888.87 1285.7C2117.24 1273.18 2662.5 1210.93 2812.37 1036.53C2843.9 1113.13 2842.29 1174.96 2790.57 1242.1Z" fill="#002C50" stroke="black" stroke-width="0.75" stroke-miterlimit="10"/>
<path d="M2795.81 1241.99C2752.1 1299.01 2609.31 1346 2539.84 1366.69C2473.05 1386.58 2368.71 1400.72 2362.3 1407.18C2356.15 1413.38 2368.08 1415.41 2370.09 1419.64C1971.87 1491.4 1363.39 1491.87 965.373 1419.64C964.553 1416.16 962.163 1405.07 960.703 1404.07C941.003 1390.57 618.013 1352.56 532.433 1217.19C506.403 1176.02 500.993 1149.42 507.513 1098.83C536.093 1262.62 845.343 1336.99 988.733 1363.58C1293.98 1420.18 1851.69 1427.12 2159.85 1391.61C2349.81 1369.72 2713.65 1269.91 2832.61 1112.81C2840.33 1142.38 2815.13 1216.81 2795.81 1242V1241.99Z" fill="#17182B" stroke="black" stroke-width="0.75" stroke-miterlimit="10"/>
<path d="M538.663 1036.53C694.093 1171.68 1089.4 1219.62 1293.97 1235.87C1658.63 1264.83 2524.67 1266.15 2809.26 1030.3C2810.26 1032.54 2811.44 1034.26 2812.37 1036.53C2662.5 1210.94 2117.24 1273.18 1888.87 1285.7C1541.84 1304.72 794.113 1276.09 526.203 1042.76C529.903 1031.45 532.173 1027.98 532.433 1027.19C530.733 1033.57 535.423 1033.71 538.663 1036.53Z" fill="#595764" stroke="black" stroke-width="0.75" stroke-miterlimit="10"/>
<path d="M2790.57 1242.1C2791.73 1243.32 2805.56 1264.62 2809.26 1270.13C2799.49 1261.81 2772.14 1289.77 2751.64 1301.28C2640.34 1363.78 2495.3 1397.08 2370.09 1419.64C2368.08 1415.41 2356.16 1413.38 2362.3 1407.18C2368.71 1400.71 2473.04 1386.58 2539.84 1366.69C2609.31 1346 2740.63 1299.12 2784.34 1242.1C2786.89 1242.28 2790.27 1241.78 2790.57 1242.1Z" fill="#17182B" stroke="black" stroke-width="0.75" stroke-miterlimit="10"/>
<path d="M965.374 1419.64C817.974 1392.89 659.174 1353.5 535.554 1267.02V1263.91C538.724 1259.05 548.044 1252.01 548.014 1246.78C547.994 1242.15 529.214 1228.44 532.444 1217.19C618.014 1352.56 941.014 1390.57 960.714 1404.07C962.184 1405.08 964.564 1416.17 965.384 1419.64H965.374Z" fill="#17182B" stroke="black" stroke-width="0.75" stroke-miterlimit="10"/>
<path d="M2831.06 818.513C2839.1 862.003 2839.21 891.213 2827.95 933.753C2817.62 910.633 2819.94 936.903 2799.92 960.223C2689.99 1088.31 2366.84 1140.91 2203.46 1158C2009.55 1178.29 1503.12 1181.75 1303.32 1170.46C1086.66 1158.22 652.214 1116.18 513.754 939.973C513.284 938.293 503.864 929.493 501.294 907.273C497.744 876.523 502.054 844.923 507.524 815.393C537.804 908.343 767.184 967.503 857.924 986.703C1213.27 1061.88 2074.48 1060.65 2433.94 996.043C2523.56 979.933 2815.23 916.423 2831.06 818.503V818.513Z" fill="#002C50" stroke="black" stroke-width="0.75" stroke-miterlimit="10"/>
<path d="M2447.95 588.023C2535.81 600.233 2730.72 643.133 2787.45 711.053C2801.22 727.533 2808 748.983 2815.48 768.673C2797.18 849.283 2657.13 896.723 2583.44 918.173C2152.79 1043.51 1202.97 1043.04 770.703 921.283C696.123 900.273 526.983 848.213 526.203 756.203C533.363 739.623 539.113 721.993 551.123 707.923C601.343 649.073 773.513 606.883 850.133 591.123C851.913 598.083 852.203 609.193 853.243 612.923C850.203 613.173 846.893 612.503 843.903 612.923C775.523 622.543 580.813 670.583 616.533 765.543C639.173 825.743 765.063 860.053 822.103 874.553C827.713 875.983 832.513 876.423 837.673 877.663C1250.86 977.573 2105.22 990.523 2510.25 874.553C2563.51 869.143 2674.62 829.823 2706.47 784.223C2787.5 668.233 2507.76 621.473 2438.61 609.803C2442.13 598.303 2439.15 585.333 2447.95 588.003V588.023Z" fill="#696773" stroke="black" stroke-width="0.75" stroke-miterlimit="10"/>
<path d="M2827.94 933.753C2816.81 975.813 2800.04 986.453 2796.79 1008.5V1016.29C2754.08 1089.05 2472.49 1154.7 2387.21 1170.47C1980.94 1245.6 953.864 1259.17 596.284 1061.46C561.904 1042.45 531.244 1000.94 538.664 1036.54C535.424 1033.72 530.734 1033.57 532.434 1027.2C535.144 1019.03 538.624 1011.79 541.774 1003.84C515.444 972.753 517.034 951.663 513.744 939.993C652.204 1116.19 1086.65 1158.23 1303.31 1170.48C1503.11 1181.77 2009.54 1178.31 2203.45 1158.02C2366.83 1140.93 2689.98 1088.32 2799.91 960.243C2819.93 936.913 2817.61 910.653 2827.94 933.773V933.753Z" fill="#17182B" stroke="black" stroke-width="0.75" stroke-miterlimit="10"/>
<path d="M2815.48 768.673C2821.59 784.763 2827.91 801.503 2831.05 818.503C2815.22 916.423 2523.55 979.933 2433.93 996.043C2074.46 1060.64 1213.26 1061.88 857.914 986.703C767.174 967.503 537.794 908.343 507.514 815.393C511.324 794.823 517.964 775.283 526.204 756.213C526.984 848.223 696.124 900.283 770.704 921.293C1202.97 1043.05 2152.78 1043.52 2583.44 918.183C2657.14 896.733 2797.18 849.283 2815.48 768.683V768.673Z" fill="#2B2A39" stroke="black" stroke-width="0.75" stroke-miterlimit="10"/>
<path d="M2809.25 1030.31C2524.67 1266.16 1658.63 1264.84 1293.96 1235.88C1089.39 1219.63 694.083 1171.69 538.653 1036.54C531.243 1000.94 561.903 1042.45 596.273 1061.46C953.863 1259.18 1980.93 1245.6 2387.2 1170.47C2472.48 1154.7 2754.07 1089.05 2796.78 1016.29V1008.5C2805.35 1012.1 2806.16 1023.38 2809.24 1030.3L2809.25 1030.31Z" fill="#17182B" stroke="black" stroke-width="0.75" stroke-miterlimit="10"/>
<path d="M1488.63 491.473C1489.57 492.983 1495.84 497.093 1510.43 519.503C1431.4 512.363 1294.56 531.073 1242.57 528.843C1242.26 528.833 1239.87 520.483 1236.34 528.843C1221.98 508.373 1221.73 502.093 1220.77 500.813L1488.63 491.473Z" fill="#595764" stroke="black" stroke-width="0.75" stroke-miterlimit="10"/>
<path d="M2706.47 784.253C2674.62 829.853 2563.5 869.173 2510.25 874.583C2819.84 785.933 2583.25 712.293 2416.81 684.593C2417.77 682.483 2410.71 684.343 2426.15 640.983C2493.77 653.743 2730.81 688.673 2706.47 784.253Z" fill="#01071A" stroke="black" stroke-width="0.75" stroke-miterlimit="10"/>
<path d="M853.243 612.943C858.373 631.283 868.073 673.823 868.813 690.813C861.433 689.293 859.353 693.283 856.353 693.923C664.113 734.903 567.803 799.243 822.093 874.573C765.063 860.063 639.163 825.753 616.523 765.563C632.373 690.153 781.093 663.573 851.683 650.323C859.373 645.913 850.763 618.443 843.893 612.943C846.883 612.523 850.193 613.193 853.233 612.943H853.243Z" fill="#01071A" stroke="black" stroke-width="0.75" stroke-miterlimit="10"/>
<path d="M2706.47 784.253C2730.81 688.663 2493.77 653.743 2426.15 640.983C2430.48 628.843 2438.12 611.443 2438.61 609.833C2507.76 621.503 2787.5 668.273 2706.47 784.253Z" fill="#17182B" stroke="black" stroke-width="0.75" stroke-miterlimit="10"/>
<path d="M843.903 612.943C850.773 618.433 859.383 645.913 851.693 650.323C781.103 663.583 632.383 690.153 616.533 765.563C580.823 670.603 775.533 622.563 843.903 612.943Z" fill="#17182B" stroke="black" stroke-width="0.75" stroke-miterlimit="10"/>
<path d="M1510.44 519.503C1511.29 520.813 1521.16 526.823 1529.13 544.423C1510.59 559.813 1486.48 547.503 1483.97 547.533C1452.25 547.903 1273.56 562.723 1262.83 559.993C1257.86 558.723 1246.52 534.663 1242.58 528.843C1294.57 531.073 1431.41 512.353 1510.44 519.503Z" fill="#17182B" stroke="black" stroke-width="0.75" stroke-miterlimit="10"/>
<path d="M2021.24 510.163C2017.8 510.743 2013.88 509.783 2010.34 510.163C2008.26 511.493 2007.44 522.063 2005.67 525.733C1997.54 542.523 1991.65 574.993 1990.1 594.253C1990 595.493 1982.32 614.023 1988.54 619.173C1993.39 623.193 2008.52 616.723 2015.01 603.603C2025.72 581.953 2017.78 544.803 2024.35 531.963C2024.83 531.023 2039.43 520.203 2041.48 519.503C2078.54 506.773 2077.74 536.263 2080.41 538.193L2039.92 567.783C2037.69 582.773 2043.22 584.063 2043.03 584.913C2033.02 631.813 1991.39 692.303 1979.18 743.763C1965.69 710.323 1981.18 649.823 1977.62 623.853C1977.4 622.223 1967.21 593.343 1962.05 602.053C1978.87 650.953 1937.56 682.013 1943.36 729.753C1935.52 743.623 1934.53 675.423 1915.33 684.593C1913.26 634.983 1902.57 635.843 1896.64 612.953C1885.58 570.213 1930.42 561.763 1938.69 669.013C1978.65 592.903 1891.28 588.563 1896.64 522.623C1896.96 518.653 1903.48 506.423 1905.98 500.823C1938.63 502.193 1929.49 503.843 1930.9 503.933C1972.34 630.633 1991.27 530.243 1974.51 503.933C1969.87 496.643 1960.23 499.633 1955.82 493.033C1944.19 475.633 1970.85 469.793 1971.39 468.113C1972.75 463.903 1948.01 446.043 1952.7 440.083C1968.29 420.253 1991.7 500.273 1986.96 449.423C1985.27 431.263 1953.99 354.823 2004.09 416.723C1997.73 388.823 2061.22 311.473 2052.37 371.563C2049.8 389.033 2013.4 467.163 2005.65 496.153C2055.69 429.503 2074.48 442.783 2021.22 510.173L2021.24 510.163Z" fill="#A3DDFC" stroke="black" stroke-width="0.75" stroke-miterlimit="10"/>
<path d="M1812.56 497.703C1843.63 499.123 1874.93 499.513 1906 500.813C1903.5 506.413 1896.98 518.653 1896.66 522.613L1790.76 519.503C1798.05 512.973 1799.35 498.463 1812.56 497.703Z" fill="#364266" stroke="black" stroke-width="0.75" stroke-miterlimit="10"/>
<path d="M1974.52 503.933C1991.28 530.243 1972.35 630.633 1930.91 503.933C1945.27 504.943 1960.11 503.203 1974.52 503.933Z" fill="#01071A" stroke="black" stroke-width="0.75" stroke-miterlimit="10"/>
<path d="M2021.24 510.163C2046.09 506.003 2099.53 519.143 2130.25 516.393C2129.76 526.403 2117.54 532.303 2111.56 538.193C2102.4 539.163 2088.96 544.353 2080.41 538.193C2077.73 536.263 2078.54 506.783 2041.48 519.503C2039.43 520.203 2024.83 531.023 2024.35 531.963L2005.66 525.733C2007.44 522.063 2008.25 511.483 2010.33 510.163C2013.87 509.783 2017.79 510.743 2021.23 510.163H2021.24Z" fill="#364266" stroke="black" stroke-width="0.75" stroke-miterlimit="10"/>
<path d="M2095.99 553.763C2087.84 565.883 2076.03 600.793 2064.84 620.733C2050.02 647.143 1991.48 719.813 2021.23 725.073C2001.68 742.083 1975.77 810.123 2000.98 809.173C2005.36 809.003 2055.31 742.643 2061.72 792.043C2064.72 815.163 2036.52 824.853 2060.16 821.633C2076.15 819.453 2118.91 782.483 2127.13 767.123C2140.19 742.693 2131.99 728.443 2152.05 707.943C2135.98 628.663 2237.17 615.213 2167.62 692.373C2196.97 801.423 2041.78 853.553 2130.24 855.893C2164.43 856.793 2466.62 816.903 2508.67 806.063C2511.26 805.393 2523.56 796.343 2532.03 793.603C2534.99 792.643 2555.77 804.313 2584.98 768.683C2603.12 783.443 2596.69 796.503 2577.19 809.173C2544.96 830.123 2285.08 861.143 2231.46 865.233C1973.86 884.893 1693.74 856.963 1434.1 865.233C1412.03 857.393 1362.8 865.923 1396.72 837.203C1360.7 834.903 1303.34 846.453 1284.59 815.403C1259.13 807.243 1017.95 836.623 954.444 834.093C905.604 832.153 755.234 812.053 725.514 773.353C779.834 705.713 852.174 708.093 861.004 703.273C872.194 697.153 859.594 698.703 856.334 693.933C859.334 693.293 861.414 689.303 868.794 690.823C869.764 713.043 869.004 713.833 862.564 731.313C780.504 739.453 715.274 768.103 842.314 787.373C954.734 804.433 1188.45 801.713 1307.95 790.483C1332.96 796.743 1331.02 786.743 1348.44 787.373C1350.45 787.553 1352.74 786.993 1354.67 787.373C1357.13 787.863 1389.45 808.943 1399.83 809.173C1428.72 809.833 1402.25 801.613 1367.13 762.453C1354.67 844.5 1322.69 758.71 1322.5 758.5C1316.91 752.37 1337.96 723.453 1335.98 721.963C1337.44 711.213 1332.96 713.103 1332.87 712.623C1332.27 709.553 1332.57 703.683 1332.87 700.163C1333.09 697.593 1335.06 697.013 1335.98 693.933C1352.42 685.753 1371.12 737.463 1399.83 771.803C1467.1 744.203 1489.44 855.813 1476.14 788.933C1477.22 786.653 1483.04 793.043 1491.71 771.803C1498.68 754.753 1494 729.713 1519.74 734.423C1519.52 789.233 1505.61 795.133 1507.28 801.393C1515.82 833.333 1585.93 763.483 1557.11 829.423C1604.27 859.943 1619.79 787.173 1642.76 827.863C1691.1 807.283 1686.16 840.833 1714.4 837.203C1749.59 832.683 1719.31 803.303 1729.97 799.823C1740.37 796.433 1756.08 842.373 1781.36 748.433C1799.93 764.963 1792.01 737.933 1800.05 720.403C1805.8 707.863 1823.12 690.053 1824.97 681.473C1837.76 685.293 1843.8 688.643 1843.66 703.273C1843.51 703.433 1842.46 704.083 1840.55 706.383C1830.95 717.973 1815.68 728.513 1824.98 746.873C1812.65 755.423 1802.32 767.293 1796.95 781.133C1786.06 809.203 1781.85 841.793 1815.64 809.163C1827.94 797.283 1834.36 782.313 1839 781.133C1847.94 778.853 1849.3 787.173 1849.9 787.363C1830.28 846.763 1854.76 797.533 1876.37 812.283C1888.15 820.323 1866.14 820.203 1865.47 826.303C1863.34 845.693 1946.96 843.423 1937.11 804.503C1936.44 801.843 1922.47 791.883 1921.54 788.933C1915.36 769.383 1921.5 728.073 1935.56 784.263C1941.15 762.973 1934.26 736.723 1912.2 728.203C1912.94 707.453 1915.41 686.783 1915.31 684.593C1934.51 675.423 1935.5 743.633 1943.34 729.753C1937.54 682.013 1978.85 650.953 1962.03 602.053C1967.19 593.343 1977.38 622.233 1977.6 623.853C1981.16 649.833 1965.66 710.323 1979.16 743.763C1991.37 692.303 2033.01 631.813 2043.01 584.913C2059.83 567.213 2088.83 533.183 2095.96 553.763H2095.99Z" fill="#C0E3FD" stroke="black" stroke-width="0.75" stroke-miterlimit="10"/>
<path d="M1497.98 566.223C1491.9 577.233 1476.77 601.943 1485.52 612.943C1486 613.543 1484.46 614.793 1488.63 616.053C1450.2 688.753 1457.6 765.673 1473.06 686.133C1499.74 626.543 1534.28 649.603 1535.35 654.983C1536.71 661.813 1445.96 721.453 1491.74 771.783C1483.06 793.023 1477.25 786.633 1476.17 788.913C1489.47 855.793 1467.13 744.183 1399.86 771.783C1371.15 737.443 1352.45 685.743 1336.01 693.913C1337.79 687.973 1336.64 675.673 1346.91 675.223C1359.37 674.673 1400.02 761.883 1379.61 703.253C1383.57 692.853 1396.2 715.163 1399.86 715.713C1410.75 717.343 1395.07 633.253 1370.27 650.303C1371.21 642.123 1376.6 635.783 1379.61 628.503C1380.94 628.293 1384.45 626.753 1395.18 625.393C1394.83 629.183 1398.14 628.343 1398.29 628.503C1407.56 638.513 1402.5 641.133 1404.52 650.303C1411.09 680.143 1410.58 696.673 1426.32 681.453C1425.35 756.453 1515.47 805.493 1445.01 720.383C1441.82 701.683 1440.65 674.923 1426.32 678.333C1426.64 671.773 1429.13 671.533 1429.43 668.993C1430.74 658.193 1434.33 633.793 1438.77 625.383C1442.88 617.603 1447.71 616.563 1448.11 616.043C1448.52 615.513 1453.58 620.963 1460.57 611.373C1467.63 601.683 1477.1 534.013 1497.95 566.213L1497.98 566.223Z" fill="#A3DDFC" stroke="black" stroke-width="0.75" stroke-miterlimit="10"/>
<path d="M862.593 731.303C853.313 756.473 837.333 756.613 842.343 762.453C922.503 801.253 1061.63 788.353 1142.91 756.223C1161.8 752.763 1240.74 750.513 1250.37 753.113C1253.69 754.003 1287.35 785.323 1307.99 790.493C1188.49 801.723 954.773 804.433 842.353 787.383C715.313 768.103 780.533 739.453 862.603 731.323L862.593 731.303Z" fill="#78B7E9" stroke="black" stroke-width="0.75" stroke-miterlimit="10"/>
<path d="M1242.57 528.843C1246.5 534.653 1257.84 558.723 1262.82 559.993C1273.55 562.723 1452.25 547.913 1483.96 547.533C1486.48 547.503 1510.58 559.803 1529.12 544.423C1529.42 545.073 1536.43 549.133 1538.46 555.323C1536.73 572.893 1539.47 589.473 1541.57 606.713C1526.08 606.513 1497.59 618.773 1488.62 616.053C1484.45 614.793 1485.98 613.533 1485.51 612.943C1487.19 596.003 1508.96 583.203 1497.97 566.223C1477.12 534.023 1467.65 601.693 1460.59 611.383C1453.6 620.983 1448.54 615.533 1448.13 616.053C1444.47 579.623 1466.38 569.033 1418.54 566.223C1394.07 564.783 1304.95 579.093 1272.15 581.793C1255.54 567.543 1248.38 546.023 1236.33 528.843C1239.86 520.483 1242.25 528.833 1242.56 528.843H1242.57Z" fill="#04030B" stroke="black" stroke-width="0.75" stroke-miterlimit="10"/>
<path d="M1227 681.463C1225.84 682.313 1216.22 676.913 1214.54 693.923C1180.67 688.383 1148.13 680.053 1114.87 672.123C1115.39 664.973 1114.12 657.413 1114.87 650.323C1157.03 652.993 1200.48 650.553 1242.57 647.213C1290.31 643.413 1310.72 638.643 1354.7 631.643C1347.09 667.973 1263.22 654.943 1227 681.473V681.463Z" fill="#78B7E9" stroke="black" stroke-width="0.75" stroke-miterlimit="10"/>
<path d="M1379.62 628.513C1376.6 635.793 1371.22 642.133 1370.28 650.313C1367.86 671.353 1373.03 684.303 1379.62 703.263C1400.02 761.883 1359.38 674.683 1346.92 675.233C1336.65 675.683 1337.8 687.983 1336.02 693.923C1335.09 697.003 1333.12 697.583 1332.91 700.153C1304.13 688.413 1293.81 692.073 1267.5 693.923L1227.01 681.463C1263.23 654.923 1347.1 667.963 1354.71 631.633C1362.91 630.323 1371.54 629.773 1379.63 628.523L1379.62 628.513Z" fill="#78B7E9" stroke="black" stroke-width="0.75" stroke-miterlimit="10"/>
<path d="M1242.57 647.203C1200.48 650.553 1157.03 652.993 1114.87 650.313C1117.26 627.543 1123.72 604.423 1127.33 581.793C1164.04 580.003 1203.57 641.673 1242.57 647.203Z" fill="#04030B" stroke="black" stroke-width="0.75" stroke-miterlimit="10"/>
<path d="M1354.7 787.363C1355.75 780.873 1358.19 774.593 1360.93 768.673C1362.25 765.833 1363.54 762.733 1367.16 762.443C1402.29 801.603 1428.75 809.823 1399.86 809.163C1389.48 808.923 1357.16 787.853 1354.7 787.363Z" fill="#78B7E9" stroke="black" stroke-width="0.75" stroke-miterlimit="10"/>
<path d="M1438.8 625.403C1434.35 633.813 1430.77 658.203 1429.46 669.013C1420.6 673.253 1414.46 656.933 1413.89 650.323C1413.77 648.923 1419.24 641.953 1417 622.293C1424.68 623.043 1431.01 626.143 1438.8 625.403Z" fill="#799FBA" stroke="black" stroke-width="0.75" stroke-miterlimit="10"/>
<path d="M1417 622.283C1419.23 641.943 1413.76 648.913 1413.89 650.313H1404.55C1402.53 641.133 1407.59 638.513 1398.32 628.513L1401.43 622.283C1408.67 621.643 1410.25 621.623 1417 622.283Z" fill="#04030B" stroke="black" stroke-width="0.75" stroke-miterlimit="10"/>
<path d="M2416.81 684.583C2583.25 712.283 2819.84 785.933 2510.25 874.573C2105.23 990.543 1250.86 977.603 837.673 877.683C837.303 871.543 827.423 876.143 822.103 874.573C567.823 799.243 664.123 734.903 856.363 693.923C859.623 698.703 872.223 697.153 861.033 703.263C852.203 708.083 779.863 705.703 725.543 773.343C755.263 812.033 905.623 832.133 954.473 834.083C1017.98 836.613 1259.17 807.233 1284.62 815.393C1303.37 846.443 1360.72 834.893 1396.75 837.193C1362.83 865.913 1412.06 857.383 1434.13 865.223C1693.76 856.953 1973.88 884.883 2231.49 865.223C2285.11 861.133 2544.99 830.103 2577.22 809.163C2596.71 796.493 2603.14 783.433 2585.01 768.673C2553.34 742.893 2480.9 714.283 2444.85 737.523C2444.12 737.993 2439.1 738.153 2429.28 745.313C2449.13 799.253 2268.29 777.173 2226.83 771.783C2278.5 750.443 2330.83 732.573 2384.12 715.723C2395.73 711.523 2412.54 693.933 2416.82 684.573L2416.81 684.583Z" fill="#78B7E9" stroke="black" stroke-width="0.75" stroke-miterlimit="10"/>
<path d="M837.674 877.693C832.514 876.443 827.704 876.003 822.104 874.583C827.434 876.163 837.304 871.553 837.674 877.693Z" fill="#01071A" stroke="black" stroke-width="0.75" stroke-miterlimit="10"/>
<path d="M1896.66 612.943C1902.58 635.833 1913.28 634.963 1915.35 684.583C1915.44 686.763 1912.97 707.443 1912.24 728.193C1911.45 750.513 1915.61 798.703 1907.57 799.833C1871.49 762.403 1857.78 793.313 1854.62 793.603C1852.64 793.783 1850.32 787.493 1849.95 787.373C1849.35 787.183 1847.99 778.863 1839.05 781.143C1834.41 782.323 1827.99 797.303 1815.69 809.173L1797 781.143C1802.37 767.303 1812.7 755.433 1825.03 746.883C1853.53 727.123 1955.19 706.813 1840.6 706.393C1842.51 704.083 1843.57 703.443 1843.71 703.283C1855.44 690.133 1903.79 663.913 1884.2 645.663C1865.93 628.643 1840.88 667.223 1825.02 675.253C1823.49 650.183 1807.93 658.693 1796.99 673.693C1780.53 696.263 1791.12 746.663 1776.74 740.663C1771.52 738.483 1793.74 630.933 1734.69 669.023C1734.59 664.993 1739.55 621.573 1740.92 612.963C1789.06 616.563 1837.48 616.803 1885.75 619.193C1891.22 619.463 1895 618.953 1896.65 612.963L1896.66 612.943Z" fill="#78B7E9" stroke="black" stroke-width="0.75" stroke-miterlimit="10"/>
<path d="M1825.02 675.233C1825.14 677.173 1825.41 679.663 1825.02 681.463C1823.18 690.043 1805.85 707.863 1800.1 720.393C1792.06 737.923 1799.98 764.953 1781.41 748.423C1756.13 842.373 1740.42 796.423 1730.02 799.813C1719.35 803.283 1749.64 832.673 1714.45 837.193C1686.22 840.813 1691.15 807.273 1642.81 827.853C1619.84 787.153 1604.31 859.933 1557.16 829.413C1585.97 763.473 1515.86 833.323 1507.33 801.383C1505.66 795.133 1519.57 789.223 1519.79 734.413C1519.85 719.983 1509.58 689.913 1530.69 693.923C1549.62 697.523 1533.4 733.173 1544.71 743.753C1544.51 744.753 1544.91 745.873 1544.71 746.863C1544.65 747.183 1539.1 745.753 1538.48 748.423C1521.33 822.493 1543.79 777.693 1571.18 787.353C1584.99 792.223 1574.1 809.903 1586.75 809.153C1592.01 808.843 1638.89 729.253 1655.27 809.153C1684.34 749.963 1721.24 876.993 1709.78 779.563C1741.57 741.993 1764.92 824.933 1750.27 729.733C1747.58 712.243 1735.64 693.053 1734.7 675.223C1734.59 673.173 1734.75 671.053 1734.7 668.993C1793.75 630.903 1771.53 738.453 1776.75 740.633C1791.13 746.643 1780.53 696.243 1797 673.663C1807.94 658.663 1823.5 650.153 1825.03 675.223L1825.02 675.233Z" fill="#A3DDFC" stroke="black" stroke-width="0.75" stroke-miterlimit="10"/>
<path d="M1896.66 522.613C1891.3 588.553 1978.67 592.893 1938.71 669.003C1930.44 561.743 1885.6 570.203 1896.66 612.943C1895.01 618.933 1891.23 619.443 1885.76 619.173C1837.49 616.783 1789.07 616.543 1740.93 612.943C1742.52 602.943 1748.93 557.983 1750.27 555.323C1751.49 552.913 1784.9 524.753 1790.76 519.503L1896.66 522.613Z" fill="#01071A" stroke="black" stroke-width="0.75" stroke-miterlimit="10"/>
<path d="M1544.7 746.873C1561.73 772.453 1715.87 765.263 1725.35 748.433L1734.69 675.243C1735.63 693.073 1747.57 712.263 1750.26 729.753C1764.91 824.963 1741.56 742.013 1709.77 779.583C1721.24 877.013 1684.33 749.983 1655.26 809.173C1638.87 729.273 1592 808.863 1586.74 809.173C1574.09 809.923 1584.98 792.243 1571.17 787.373C1543.78 777.703 1521.32 822.513 1538.47 748.443C1539.09 745.773 1544.64 747.203 1544.7 746.883V746.873Z" fill="#78B7E9" stroke="black" stroke-width="0.75" stroke-miterlimit="10"/>
<path d="M1541.58 606.713C1546.66 648.253 1552.43 704.443 1544.69 743.763C1533.38 733.173 1549.6 697.523 1530.67 693.933C1509.56 689.923 1519.83 719.993 1519.77 734.423C1494.02 729.703 1498.7 754.753 1491.74 771.803C1445.95 721.473 1536.71 661.833 1535.35 655.003C1534.27 649.613 1499.74 626.563 1473.06 686.153C1457.6 765.693 1450.21 688.773 1488.63 616.073C1497.6 618.793 1526.09 606.533 1541.58 606.733V606.713Z" fill="#78B7E9" stroke="black" stroke-width="0.75" stroke-miterlimit="10"/>
<path d="M2195.66 619.173C2211.07 645.533 2209 649.303 2201.89 678.353C2142.01 725.173 2250 704.633 2270.41 678.353C2277.08 677.653 2310.96 667.243 2314.02 673.683L2175.42 746.873L2145.83 804.493C2149.1 808.953 2151.78 808.893 2152.06 809.163C2157.72 814.583 2169.03 817.423 2176.98 818.503C2161.19 854.203 2130.44 843.353 2130.26 855.883C2041.79 853.543 2196.99 801.413 2167.64 692.363C2237.19 615.203 2136 628.653 2152.07 707.933C2132.01 728.433 2140.22 742.683 2127.15 767.113C2118.94 782.473 2076.18 819.443 2060.18 821.623C2036.54 824.843 2064.74 815.153 2061.74 792.033C2055.33 742.633 2005.38 809.003 2001 809.163C1975.78 810.113 2001.69 742.073 2021.25 725.063C2024.88 721.913 2043 712.873 2046.17 712.603C2074.43 710.193 2113.69 734.073 2103.79 765.553C2125.2 737.243 2108.89 697.563 2114.69 665.883C2124.98 609.743 2172.53 617.963 2195.67 619.163L2195.66 619.173Z" fill="#A3DDFC" stroke="black" stroke-width="0.75" stroke-miterlimit="10"/>
<path d="M2444.84 737.533C2458.59 765.793 2525.58 754.423 2535.17 774.913C2468.28 793.733 2225.99 825.213 2176.98 818.523C2169.03 817.433 2157.73 814.603 2152.06 809.183C2172.31 790.833 2201.43 782.293 2226.81 771.803C2268.28 777.193 2449.12 799.273 2429.26 745.333C2439.08 738.173 2444.1 738.023 2444.83 737.543L2444.84 737.533Z" fill="#A3DDFC" stroke="black" stroke-width="0.75" stroke-miterlimit="10"/>
<path d="M2024.36 531.963C2017.78 544.803 2025.73 581.953 2015.02 603.603C2008.16 607.113 1988.16 600.973 1990.1 594.263C1991.65 574.993 1997.55 542.523 2005.67 525.743L2024.36 531.973V531.963Z" fill="#17182B" stroke="black" stroke-width="0.75" stroke-miterlimit="10"/>
<path d="M2111.57 538.193C2105.83 543.853 2100.85 546.543 2096 553.763C2088.87 533.173 2059.87 567.203 2043.05 584.913C2043.23 584.063 2037.7 582.773 2039.94 567.783L2080.43 538.193C2088.98 544.353 2102.42 539.163 2111.58 538.193H2111.57Z" fill="#04030B" stroke="black" stroke-width="0.75" stroke-miterlimit="10"/>
<path d="M2015.01 603.603C2008.52 616.723 1993.39 623.193 1988.54 619.173C1982.32 614.023 1990 595.503 1990.1 594.253C1988.16 600.963 2008.16 607.103 2015.02 603.593L2015.01 603.603Z" fill="#A3DDFC" stroke="black" stroke-width="0.75" stroke-miterlimit="10"/>
<path d="M2114.68 665.893C2108.88 697.573 2125.19 737.253 2103.78 765.563C2113.68 734.083 2074.42 710.203 2046.16 712.613C2052.11 694.603 2066.29 680.613 2077.31 665.893H2114.69H2114.68Z" fill="#78B7E9" stroke="black" stroke-width="0.75" stroke-miterlimit="10"/>
<path d="M2535.16 774.903C2539.62 784.423 2536.37 784.513 2532.05 793.593C2523.58 796.333 2511.28 805.383 2508.69 806.053C2466.64 816.893 2164.45 856.793 2130.26 855.883C2130.44 843.363 2161.19 854.213 2176.98 818.503C2225.99 825.193 2468.27 793.713 2535.17 774.893L2535.16 774.903Z" fill="#78B7E9" stroke="black" stroke-width="0.75" stroke-miterlimit="10"/>
<path d="M1849.94 787.363C1850.31 787.483 1852.63 793.773 1854.61 793.593C1857.77 793.303 1871.48 762.393 1907.56 799.823C1915.6 798.703 1911.44 750.503 1912.23 728.183C1934.29 736.703 1941.18 762.963 1935.59 784.243C1921.53 728.053 1915.4 769.363 1921.57 788.913C1922.5 791.863 1936.47 801.823 1937.14 804.483C1947 843.413 1863.37 845.673 1865.5 826.283C1866.17 820.193 1888.19 820.313 1876.4 812.263C1854.79 797.513 1830.3 846.743 1849.93 787.343L1849.94 787.363Z" fill="#A3DDFC" stroke="black" stroke-width="0.75" stroke-miterlimit="10"/>
<path d="M2585 768.673C2555.79 804.293 2535.02 792.633 2532.05 793.593C2536.38 784.513 2539.62 784.423 2535.16 774.903C2525.57 754.423 2458.59 765.793 2444.83 737.523C2480.88 714.283 2553.32 742.893 2584.99 768.673H2585Z" fill="#A3DDFC" stroke="black" stroke-width="0.75" stroke-miterlimit="10"/>
<path d="M1843.71 703.263C1843.85 688.633 1837.81 685.283 1825.02 681.463C1825.41 679.673 1825.14 677.183 1825.02 675.233C1840.88 667.203 1865.93 628.623 1884.2 645.643C1903.79 663.893 1855.44 690.113 1843.71 703.263Z" fill="#A3DDFC" stroke="black" stroke-width="0.75" stroke-miterlimit="10"/>
<path d="M1825.02 746.873C1815.72 728.513 1830.99 717.973 1840.59 706.383C1955.18 706.803 1853.52 727.113 1825.02 746.873Z" fill="#A3DDFC" stroke="black" stroke-width="0.75" stroke-miterlimit="10"/>
<path d="M1815.67 809.163C1781.88 841.793 1786.09 809.193 1796.98 781.133L1815.67 809.163Z" fill="#A3DDFC" stroke="black" stroke-width="0.75" stroke-miterlimit="10"/>
<path d="M1379.62 703.263C1373.02 684.303 1367.86 671.353 1370.28 650.313C1395.08 633.263 1410.75 717.353 1399.87 715.723C1396.21 715.173 1383.59 692.863 1379.62 703.263Z" fill="#A3DDFC" stroke="black" stroke-width="0.75" stroke-miterlimit="10"/>
<path d="M1426.34 681.463C1426.35 680.423 1426.29 679.383 1426.34 678.353C1440.67 674.943 1441.83 701.703 1445.03 720.403C1515.5 805.513 1425.37 756.463 1426.34 681.473V681.463Z" fill="#A3DDFC" stroke="black" stroke-width="0.75" stroke-miterlimit="10"/>
<path d="M1413.88 650.323C1414.46 656.933 1420.59 673.253 1429.45 669.013C1429.14 671.553 1426.65 671.793 1426.34 678.353C1426.29 679.383 1426.35 680.433 1426.34 681.463C1410.6 696.693 1411.11 680.153 1404.54 650.313H1413.88V650.323Z" fill="#668EAB" stroke="black" stroke-width="0.75" stroke-miterlimit="10"/>
<path d="M1485.52 612.943C1476.77 601.943 1491.89 577.233 1497.98 566.223C1508.97 583.203 1487.2 596.003 1485.52 612.943Z" fill="#F48335" stroke="black" stroke-width="0.75" stroke-miterlimit="10"/>
</svg>
