<svg width="2227" height="1547" viewBox="0 0 2227 1547" fill="none" xmlns="http://www.w3.org/2000/svg">
<path d="M1975.71 201.843C1942.87 267.273 1907.7 303.743 1838.24 332.223C1786.03 353.633 1784.22 336.093 1768.8 360.563C1766.61 360.193 1765.2 358.653 1763.13 357.733C1767.21 341.323 1761.8 347.013 1743.29 329.393C1737.15 309.813 1726.5 242.393 1731.95 225.943C1734.13 219.353 1782.78 201.673 1763.13 177.763C1750.45 162.343 1735.07 185.243 1733.37 184.853C1728.22 183.643 1727.23 154.523 1724.87 150.843C1721.08 144.933 1628.36 107.643 1618.58 85.6533C1640.81 88.8833 1911.38 187.043 1975.71 201.863V201.843Z" fill="#370F06"/>
<path d="M1822.65 516.454C1814.64 514.034 1817.35 525.834 1814.15 536.294C1813.7 537.754 1806.75 553.584 1802.81 564.634C1788.75 604.094 1795.18 602.404 1794.31 604.314C1790.41 612.824 1775.11 628.834 1764.55 632.654C1716.05 647.994 1668.43 664.254 1621.41 683.674C1598.31 693.214 1571.82 700.984 1553.39 717.684C1553.13 717.444 1550.7 717.494 1547.72 713.434L1574.65 660.994L1700.78 594.384C1698 588.524 1667.17 597.994 1661.1 598.634C1639.41 600.924 1620.67 603.534 1598.74 598.634C1605.21 572.194 1607.1 568.764 1593.07 544.784C1643.74 547.424 1694.73 559.734 1746.13 551.874C1783.43 445.124 1737.79 453.854 1737.63 435.664C1737.6 431.724 1764.56 370.834 1768.81 363.384C1876.89 402.944 1832.27 424.074 1822.66 516.444L1822.65 516.454Z" fill="#FFAA7F"/>
<path d="M1975.71 201.844C1911.38 187.034 1640.81 88.8636 1618.58 85.6336C1612.53 84.7536 1610.48 82.0336 1608.66 82.8036C1595.52 103.274 1585.45 126.284 1581.73 150.824C1571.16 143.544 1577.09 174.854 1570.39 180.584L1567.56 130.984C1578.64 6.53366 1686.6 7.12366 1736.21 34.6137C1775.87 56.5937 1791.43 125.104 2008.31 108.304C2007.02 141.884 1990.3 172.784 1975.71 201.834V201.844Z" fill="#752E14"/>
<path d="M1768.8 360.564C1768.38 361.234 1769.21 362.684 1768.8 363.394C1764.55 370.834 1737.59 431.734 1737.62 435.674C1737.78 453.864 1783.43 445.134 1746.12 551.884C1694.72 559.754 1643.73 547.434 1593.06 544.794C1572 543.694 1528.73 536.224 1519.37 587.314H1485.36C1512.5 551.024 1538.41 528.614 1576.06 500.864C1572.79 482.644 1607.86 397.324 1615.74 383.234C1619.69 376.164 1621.5 367.124 1629.91 363.394L1595.9 449.844C1623.61 471.034 1638 488.284 1648.34 522.124C1672.48 452.164 1724.34 446.014 1731.95 435.674C1735.44 412.434 1759.33 372.984 1763.13 357.724C1765.2 358.644 1766.6 360.194 1768.8 360.554V360.564Z" fill="#04030B"/>
<path d="M1615.74 383.244C1607.86 397.324 1572.78 482.654 1576.06 500.874C1538.41 528.624 1512.5 551.034 1485.36 587.324C1475.34 600.724 1462.43 613.444 1457.02 629.844C1454.14 630.094 1437.64 638.314 1434.35 641.184C1407.28 636.394 1460.54 570.274 1474.03 546.234C1484.21 528.094 1494.95 496.324 1502.37 485.294C1506.79 478.724 1511.32 476.274 1516.54 471.124C1521.98 465.764 1533.1 460.384 1533.55 451.284H1540.64L1615.75 383.264L1615.74 383.244Z" fill="#FFAA7F"/>
<path d="M1581.73 150.824C1575.21 193.944 1594.49 277.604 1642.67 289.704C1647.55 290.934 1694.73 273.324 1655.42 337.884C1646.42 304.914 1601.72 323.184 1578.89 268.444C1563.33 231.134 1563.98 171.144 1567.55 130.974L1570.38 180.574C1577.08 174.844 1571.15 143.534 1581.72 150.814L1581.73 150.824Z" fill="#370F06"/>
<path d="M1618.58 85.6334C1628.36 107.623 1721.08 144.913 1724.87 150.823C1727.23 154.503 1728.22 183.623 1733.37 184.833C1735.07 185.233 1750.46 162.323 1763.13 177.743C1782.78 201.653 1734.13 219.343 1731.95 225.923C1726.5 242.383 1737.14 309.803 1743.29 329.373C1743.85 331.143 1737.83 346.433 1763.13 357.713C1759.33 372.973 1735.44 412.423 1731.95 435.663C1724.34 446.003 1672.48 452.153 1648.34 522.113C1638.01 488.273 1623.61 471.023 1595.9 449.833L1629.91 363.383C1641.83 356.283 1648.23 349.693 1655.42 337.873C1694.73 273.313 1647.54 290.913 1642.67 289.693C1594.49 277.593 1575.21 193.923 1581.73 150.813C1585.44 126.263 1595.52 103.253 1608.66 82.7935C1610.48 82.0235 1612.53 84.7534 1618.58 85.6234V85.6334Z" fill="#FFAA7F"/>
<path d="M1763.13 357.733C1737.83 346.443 1743.84 331.163 1743.29 329.393C1761.81 347.013 1767.21 341.333 1763.13 357.733Z" fill="white"/>
<path d="M1671.01 173.493C1681.03 168.893 1690.04 191.673 1679.51 196.163C1667.98 201.083 1662.63 177.343 1671.01 173.493Z" fill="#04030B"/>
<path d="M1602.99 179.163C1611.92 176.813 1615.41 201.783 1605.82 201.833C1596.71 201.883 1596.09 180.973 1602.99 179.163Z" fill="#120301"/>
<path d="M1654.01 247.193C1658.12 247.163 1662.23 246.293 1663.93 248.613C1644.81 270.333 1607.4 247.583 1654.01 247.193Z" fill="white"/>
<path d="M1659.68 142.313C1685.79 140.333 1684.54 153.503 1668.18 150.813C1667.59 150.713 1664.74 144.523 1659.68 142.313Z" fill="#370F06"/>
<path d="M1594.48 153.653C1595.9 153.183 1607.21 153.183 1608.65 153.653C1634.39 162.103 1574.3 160.373 1594.48 153.653Z" fill="#370F06"/>
<path d="M1639.83 201.843C1642.69 202.573 1637.91 220.893 1637 221.683C1632.29 225.723 1635.09 200.633 1639.83 201.843Z" fill="#FF9461"/>
<path d="M1750.38 187.663C1752.19 187.293 1754.12 187.423 1754.63 189.083C1758.61 202.053 1725.02 192.853 1750.38 187.663Z" fill="#DF7850"/>
<path d="M1598.74 598.653C1620.67 603.553 1639.41 600.943 1661.1 598.653C1642.52 622.573 1544.25 641.253 1598.74 598.653Z" fill="#04030B"/>
<path d="M711.578 601.483L748.428 612.823C747.158 612.913 740.658 621.633 724.338 621.323C721.718 621.273 703.698 613.383 700.248 612.823C701.778 597.343 710.528 602.263 711.588 601.483H711.578Z" fill="#A3DDFC"/>
<path d="M567.017 102.633C563.957 92.4434 553.927 79.8933 551.427 68.6233C541.907 64.1533 441.077 80.8834 432.387 88.4634C407.497 110.163 441.947 225.253 404.047 181.993C353.157 192.623 412.467 219.823 413.967 224.513C351.077 215.033 371.757 135.153 348.777 84.2134C385.487 49.4434 370.107 33.7034 392.707 14.7734C399.477 9.10337 411.237 6.45335 418.217 0.603353C439.857 4.78335 561.187 -4.72663 568.437 3.43337C575.167 11.0134 563.967 18.2434 564.187 19.0234C565.847 24.9634 624.487 16.4734 567.017 102.633Z" fill="#370F06"/>
<path d="M635.048 669.513C561.088 698.753 434.469 710.483 361.529 675.183C356.959 669.873 371.509 669.743 379.949 646.843C385.809 630.943 386.498 630.213 385.618 609.993C384.948 594.543 376.119 555.823 371.449 539.133C370.499 535.743 370.238 525.623 368.618 519.293C379.888 520.653 466.829 641.923 520.259 655.343C548.999 662.563 606.478 656.653 635.048 669.513Z" fill="#F06A2B"/>
<path d="M620.878 510.783C617.598 531.383 611.718 552.423 609.538 573.143C608.858 579.603 610.008 586.483 609.538 592.983C596.788 589.943 568.018 588.173 551.438 584.483C542.398 580.093 511.538 515.513 501.838 500.873C482.298 471.383 404.698 376.873 473.498 449.853L525.938 519.293C574.138 524.513 605.898 511.523 620.888 510.793L620.878 510.783Z" fill="#DF7850"/>
<path d="M567.018 102.633C571.558 117.763 580.738 226.443 578.358 240.103C576.718 249.483 560.838 276.963 552.848 284.033C474.608 294.763 469.778 294.793 426.718 227.343C434.168 275.253 473.168 316.363 524.508 303.873C542.048 360.333 609.248 308.713 705.908 437.093C706.788 438.263 707.018 443.973 720.078 462.603C731.048 478.243 737.558 497.823 752.678 510.783C782.528 508.323 863.618 495.303 885.898 496.613C929.438 499.173 909.488 508.813 912.828 541.963C912.458 542.433 908.068 543.393 904.328 550.463C897.238 551.133 891.478 548.313 884.488 547.633C878.338 547.033 876.908 547.043 870.318 547.633C862.578 548.323 864.968 550.423 864.648 550.463C854.878 551.703 851.688 553.113 850.478 553.293C843.118 554.443 835.268 554.943 827.808 556.123C787.788 562.503 769.218 566.833 725.768 570.293C690.278 565.263 654.308 509.143 620.898 510.773C605.908 511.503 574.138 524.503 525.948 519.273L473.508 449.833C404.708 376.853 482.318 471.363 501.848 500.853C511.548 515.503 542.408 580.073 551.448 584.463C568.028 588.153 596.808 589.923 609.548 592.963C639.818 600.183 669.428 607.763 700.248 612.803C703.698 613.363 721.718 621.253 724.338 621.303C740.658 621.603 747.158 612.893 748.428 612.803C772.368 611.123 781.768 607.783 807.948 618.473C807.678 621.673 807.398 627.013 807.948 629.813C759.768 620.423 803.738 633.043 810.778 638.313C812.588 639.663 836.868 665.333 841.958 670.913C842.128 671.103 837.978 673.883 839.128 675.163C835.838 675.423 834.658 678.253 833.458 680.833L796.608 670.913C795.458 674.833 829.978 691.583 822.118 697.843C806.258 697.273 808.038 706.373 785.268 700.673C766.488 695.973 735.848 667.473 732.828 666.663C724.068 664.303 652.228 666.343 635.038 669.493C606.468 656.633 548.988 662.533 520.248 655.323C466.818 641.903 379.878 520.633 368.608 519.273C225.178 322.453 446.148 386.453 413.958 224.503C412.458 219.823 353.148 192.613 404.038 181.983C441.948 225.243 407.488 110.153 432.378 88.4534C441.068 80.8734 541.898 64.1434 551.418 68.6134C553.918 79.8834 563.948 92.4334 567.008 102.623L567.018 102.633Z" fill="#FF9461"/>
<path d="M552.849 284.034C534.219 300.534 532.659 293.924 528.759 295.374C523.649 297.264 524.969 303.764 524.509 303.874C473.169 316.364 434.169 275.254 426.719 227.344C469.779 294.794 474.609 294.754 552.849 284.034Z" fill="#DF7850"/>
<path d="M534.428 235.854C544.888 238.674 525.308 276.214 481.988 245.774L534.428 235.854Z" fill="white"/>
<path d="M472.068 133.814C513.678 130.524 476.999 155.334 447.979 149.404C451.639 141.664 464.798 134.394 472.068 133.814Z" fill="#370F06"/>
<path d="M551.437 130.984C589.567 130.684 544.077 150.484 537.267 150.824C514.687 151.934 536.987 131.094 551.437 130.984Z" fill="#4C1709"/>
<path d="M548.598 159.323C555.708 159.243 561.958 180.893 554.268 184.833C539.398 192.443 538.068 159.443 548.598 159.323Z" fill="#120301"/>
<path d="M833.458 680.844C830.958 686.224 828.738 691.944 827.788 697.854C826.038 697.504 823.948 698.014 822.118 697.854C829.978 691.604 795.458 674.844 796.608 670.924L833.458 680.844Z" fill="#FF9461"/>
<path d="M472.069 162.154C483.039 158.454 485.749 184.804 477.739 187.664C468.989 190.794 462.599 165.344 472.069 162.154Z" fill="#120301"/>
<path d="M807.948 629.834C808.038 630.274 812.108 628.554 810.778 638.334C803.738 633.064 759.758 620.444 807.948 629.834Z" fill="#B2A9B8"/>
<path d="M514.588 196.174C518.628 194.504 533.098 214.874 517.418 224.514L514.588 196.174Z" fill="#FF9461"/>
<path d="M395.548 193.334C396.398 192.964 411.878 201.104 411.138 203.254C409.748 207.284 388.258 196.494 395.548 193.334Z" fill="#DF7850"/>
<path d="M870.297 547.634L867.467 553.304C867.327 553.154 864.317 553.914 864.637 550.474C864.947 550.434 862.567 548.324 870.307 547.644L870.297 547.634Z" fill="#655962"/>
<path d="M978.007 371.903C983.087 378.723 985.657 379.353 986.507 380.403C998.937 395.813 1008.58 413.373 1024.77 425.753C1036.54 430.763 1043.27 420.243 1046.03 420.083C1047.32 420.003 1040.9 430.383 1067.29 422.913C1076.13 420.413 1102.14 401.573 1111.22 394.573C1120.99 437.413 1148.43 438.463 1183.5 420.083C1193.62 414.783 1342.05 270.473 1346.48 259.943C1354.92 239.853 1324.72 165.663 1362.07 233.013C1367 233.023 1397.49 146.293 1387.58 216.003L1407.42 193.333C1418.21 202.273 1393.2 214.823 1396.08 227.343C1435.18 181.343 1434.73 203.343 1397.5 245.763C1405.77 243.463 1437.47 218.103 1428.68 240.093C1423.95 251.933 1388.46 264.193 1363.49 288.273C1347.06 304.123 1269.35 404.603 1244.45 434.243C1232.43 434.943 1231.24 448.143 1224.61 454.083C1219.28 458.853 1188.87 484.483 1187.76 486.683C1186.53 489.103 1180.71 530.013 1179.26 539.123C1178.01 546.963 1173.5 586.473 1173.59 590.143C1173.64 592.013 1173.49 593.943 1173.59 595.813L1165.09 662.423C1156.47 677.743 1016.19 684.283 1000.7 661.003C1000.88 660.093 1000.52 659.083 1000.7 658.173C1007.73 622.393 1002.49 571.263 997.867 533.463C995.947 517.773 993.457 502.683 995.037 486.693C993.187 481.063 986.807 477.363 986.537 476.773C979.277 460.763 970.307 455.283 969.527 454.103C956.247 433.703 950.547 429.963 949.687 428.593C905.537 357.933 849.537 218.563 841.977 208.933C836.167 201.533 796.327 182.533 790.957 169.253C775.417 130.793 863.307 211.013 790.957 138.073C796.017 116.113 863.747 199.883 810.797 126.733C814.987 112.263 842.017 147.643 846.227 153.663L851.897 119.653L866.067 165.003C930.377 90.5433 871.537 186.633 873.157 200.433C874.327 210.413 965.347 354.893 978.027 371.913L978.007 371.903Z" fill="#FFAA7F"/>
<path d="M1114.06 391.744C1113.91 391.874 1113.92 392.504 1111.23 394.574C1102.14 401.584 1076.14 420.414 1067.3 422.914C1040.91 430.374 1047.33 420.004 1046.04 420.084C1045.96 418.214 1046.21 416.264 1046.04 414.414C1060.4 402.274 1093.98 405.804 1114.06 386.074V391.744Z" fill="#DF7850"/>
<path d="M994.398 378.974C1001.71 380.404 1009.4 397.294 1019.1 403.074C1027.26 407.934 1045.04 403.804 1046.03 414.414C1046.2 416.264 1045.95 418.214 1046.03 420.084C1043.27 420.244 1036.55 430.764 1024.77 425.754C1008.58 413.374 998.938 395.814 986.508 380.404" fill="white"/>
<path d="M1114.06 391.744V386.074C1122.22 378.054 1129.69 364.824 1128.23 353.474C1207.57 299.514 1138.74 309.214 1136.73 305.294C1133.32 298.624 1155.4 235.094 1057.37 254.274C1156.68 273.114 1062.23 279.394 1044.62 275.534C1037.96 274.074 1018.22 246.364 1027.61 275.534C959.777 258.784 989.767 272.034 980.837 318.054C910.387 213.444 1008.44 138.114 1115.47 167.834C1131.37 12.2036 1278.93 167.304 1156.57 189.094C1209.81 258.784 1175.94 340.954 1114.05 391.754L1114.06 391.744Z" fill="#752E14"/>
<path d="M996.426 224.514C994.456 257.554 991.876 242.624 985.086 267.034L996.426 224.514Z" fill="#FFAA7F"/>
<path d="M1030.44 247.193C1029.45 251.103 1041.5 254.293 1043.19 257.113C1046.36 262.373 1026.12 254.073 1030.44 247.193Z" fill="#FFAA7F"/>
<path d="M1114.06 386.073C1093.98 405.813 1060.39 402.283 1046.04 414.413C1045.05 403.813 1027 408.373 1019.11 403.073C1007.77 395.463 993.508 378.313 994.408 378.973C989.598 370.433 982.998 353.183 983.678 354.893C981.948 344.863 990.498 328.263 980.848 318.043C989.778 272.023 959.788 258.783 1027.62 275.523C1018.23 246.353 1037.97 274.063 1044.63 275.523C1062.24 279.393 1156.69 273.113 1057.38 254.263C1155.41 235.083 1133.34 298.613 1136.74 305.283C1138.74 309.203 1207.58 299.503 1128.24 353.463C1129.7 364.813 1122.23 378.033 1114.07 386.063L1114.06 386.073Z" fill="#FFAA7F"/>
<path d="M1020.52 360.563C1031.1 366.423 1048.29 373.854 1060.2 371.904Z" fill="#DF7850"/>
<path d="M1060.21 371.904C1047.8 380.534 1030.98 368.014 1020.53 360.564C1021.56 361.454 1015.53 356.554 1019.11 354.894C1067.59 358.134 1093.98 348.414 1060.21 371.904Z" fill="white"/>
<path d="M1081.46 289.704C1090.74 287.734 1096.4 310.764 1087.13 315.214C1072.07 322.444 1071.81 291.754 1081.46 289.704Z" fill="#120301"/>
<path d="M1010.6 289.704C1024.53 287.414 1022.11 314.534 1013.43 315.214C1002.85 316.044 1000.01 291.444 1010.6 289.704Z" fill="#120301"/>
<path d="M1044.62 323.714C1049.5 322.624 1047.79 337.344 1041.79 335.054C1038.35 333.744 1044.05 323.844 1044.62 323.714Z" fill="#FF9461"/>
<path d="M82.3478 1134.34C74.1978 1142.08 95.6978 1157.36 106.438 1165.52C427.868 1409.7 1802.37 1438.29 2154.27 1140.01C2167.47 1162.13 2170.93 1170.42 2174.11 1196.7L2169.86 1239.22L2167.03 1210.88C2083.35 1368.02 1747.98 1439.17 1583.15 1460.3C1400.37 1483.74 913.018 1485.61 727.168 1468.8C553.878 1453.13 188.548 1385.55 79.5178 1240.63C67.7978 1225.05 56.5678 1210.28 54.0078 1191.03C59.6278 1154.18 66.8778 1155.21 82.3478 1131.51V1134.34Z" fill="#002C50"/>
<path d="M2174.11 1196.7C2188.21 1313.12 2096.34 1370.43 2002.63 1412.11C1599.79 1591.29 662.937 1586.81 253.817 1423.45C151.367 1382.54 34.2669 1320.31 53.9969 1191.03C56.5569 1210.28 67.7869 1225.05 79.5069 1240.63C188.547 1385.54 553.877 1453.12 727.157 1468.8C913.007 1485.61 1400.36 1483.73 1583.14 1460.3C1747.97 1439.17 2083.34 1368.02 2167.02 1210.88L2169.85 1239.22L2174.1 1196.7H2174.11Z" fill="#002C50"/>
<path d="M473.488 1273.23C835.688 1338.96 1389.41 1338.53 1751.79 1273.23C1865.73 1252.7 1997.72 1222.4 2099 1165.52C2117.65 1155.04 2142.55 1129.6 2151.44 1137.18C2151.55 1137.35 2152.12 1136.4 2154.27 1140.01C1802.36 1438.29 427.858 1409.7 106.438 1165.52C95.6977 1157.36 74.1877 1142.08 82.3477 1134.34C194.848 1213.04 339.358 1248.88 473.488 1273.22V1273.23Z" fill="#595764"/>
<path d="M2134.43 1111.67C2134.15 1111.38 2131.09 1111.83 2128.76 1111.67C2146.34 1088.74 2171.21 1036.54 2164.19 1009.63C2077.35 1175.99 1733.33 1227.8 1560.47 1247.72C1280.05 1280.03 772.526 1273.72 494.746 1222.21C364.266 1198.02 82.8459 1130.33 56.8359 981.293C61.5759 944.483 73.0059 932.833 73.8459 930.273C317.646 1142.61 998.086 1168.66 1313.89 1151.35C1521.71 1139.96 2017.9 1083.31 2154.28 924.604C2182.97 994.314 2181.51 1050.57 2134.44 1111.67H2134.43Z" fill="#002C50"/>
<path d="M2139.2 1111.57C2099.42 1163.46 1969.48 1206.22 1906.26 1225.04C1845.48 1243.14 1750.53 1256 1744.7 1261.89C1739.11 1267.53 1749.96 1269.38 1751.79 1273.23C1389.4 1338.53 835.687 1338.96 473.487 1273.23C472.737 1270.07 470.567 1259.97 469.237 1259.06C451.317 1246.77 157.387 1212.18 79.5067 1089C55.8267 1051.53 50.8967 1027.33 56.8367 981.293C82.8467 1130.34 364.267 1198.02 494.747 1222.21C772.527 1273.72 1280.05 1280.03 1560.47 1247.72C1733.34 1227.8 2064.43 1136.97 2172.69 994.014C2179.71 1020.92 2156.78 1088.65 2139.2 1111.58V1111.57Z" fill="#17182B"/>
<path d="M85.1759 924.604C226.616 1047.59 586.356 1091.22 772.516 1106C1104.37 1132.35 1892.47 1133.56 2151.44 918.933C2152.35 920.973 2153.42 922.534 2154.27 924.604C2017.89 1083.31 1521.7 1139.96 1313.88 1151.35C998.076 1168.66 317.636 1142.61 73.8359 930.273C77.1959 919.983 79.2659 916.824 79.5059 916.104C77.9559 921.904 82.2259 922.044 85.1759 924.604Z" fill="#595764"/>
<path d="M2134.43 1111.67C2135.49 1112.78 2148.07 1132.16 2151.44 1137.18C2142.55 1129.61 2117.66 1155.05 2099 1165.52C1997.72 1222.4 1865.73 1252.69 1751.79 1273.23C1749.96 1269.38 1739.11 1267.53 1744.7 1261.89C1750.53 1256.01 1845.48 1243.14 1906.26 1225.04C1969.47 1206.22 2088.98 1163.55 2128.76 1111.67C2131.08 1111.83 2134.15 1111.38 2134.43 1111.67Z" fill="#17182B"/>
<path d="M473.486 1273.23C339.356 1248.89 194.846 1213.04 82.3459 1134.35V1131.52C85.2359 1127.1 93.7058 1120.69 93.6858 1115.93C93.6658 1111.71 76.5758 1099.24 79.5158 1089C157.386 1212.19 451.316 1246.78 469.246 1259.06C470.576 1259.97 472.746 1270.07 473.496 1273.23H473.486Z" fill="#17182B"/>
<path d="M2171.28 726.193C2178.6 765.773 2178.7 792.343 2168.45 831.063C2159.05 810.023 2161.16 833.923 2142.94 855.153C2042.9 971.713 1748.83 1019.58 1600.16 1035.13C1423.7 1053.59 962.837 1056.74 781.027 1046.47C583.867 1035.33 188.507 997.073 62.5172 836.733C62.0872 835.203 53.5172 827.193 51.1772 806.973C47.9472 778.993 51.8672 750.233 56.8472 723.363C84.4072 807.943 293.147 861.783 375.717 879.253C699.087 947.673 1482.8 946.543 1809.91 887.753C1891.47 873.093 2156.89 815.303 2171.29 726.193H2171.28Z" fill="#002C50"/>
<path d="M1822.65 516.453C1902.6 527.563 2079.97 566.603 2131.6 628.413C2144.13 643.413 2150.3 662.923 2157.11 680.853C2140.45 754.203 2013.01 797.383 1945.95 816.903C1554.05 930.963 689.708 930.533 296.348 819.733C228.478 800.613 74.5577 753.243 73.8477 669.513C80.3677 654.433 85.5976 638.383 96.5176 625.583C142.218 572.033 298.898 533.633 368.618 519.293C370.238 525.623 370.498 535.743 371.448 539.133C368.678 539.363 365.668 538.753 362.948 539.133C300.728 547.883 123.538 591.603 156.038 678.013C176.638 732.793 291.208 764.013 343.108 777.213C348.208 778.513 352.578 778.913 357.278 780.043C733.278 870.963 1510.76 882.743 1879.34 777.213C1927.8 772.293 2028.92 736.513 2057.91 695.013C2131.65 589.463 1877.08 546.903 1814.15 536.293C1817.36 525.833 1814.64 514.033 1822.65 516.453Z" fill="#696773"/>
<path d="M2168.44 831.073C2158.31 869.343 2143.05 879.033 2140.1 899.093V906.183C2101.23 972.393 1844.98 1032.13 1767.38 1046.48C1397.67 1114.85 463.018 1127.2 137.618 947.283C106.338 929.983 78.438 892.213 85.178 924.613C82.228 922.043 77.9581 921.913 79.5081 916.113C81.9681 908.673 85.1381 902.093 88.0081 894.853C64.0481 866.563 65.488 847.363 62.498 836.753C188.498 997.103 583.848 1035.35 781.008 1046.49C962.828 1056.76 1423.69 1053.61 1600.14 1035.15C1748.81 1019.59 2042.88 971.733 2142.92 855.173C2161.14 833.943 2159.03 810.043 2168.43 831.083L2168.44 831.073Z" fill="#17182B"/>
<path d="M2157.11 680.843C2162.67 695.483 2168.42 710.723 2171.28 726.193C2156.88 815.293 1891.46 873.093 1809.9 887.753C1482.78 946.543 699.078 947.663 375.708 879.253C293.138 861.783 84.3979 807.943 56.8379 723.363C60.3079 704.643 66.3479 686.863 73.8479 669.513C74.5579 753.243 228.478 800.623 296.348 819.733C689.718 930.533 1554.06 930.963 1945.95 816.903C2013.01 797.383 2140.46 754.203 2157.11 680.853V680.843Z" fill="#2B2A39"/>
<path d="M2151.44 918.933C1892.47 1133.55 1104.37 1132.35 772.517 1106C586.357 1091.22 226.627 1047.59 85.1773 924.603C78.4273 892.203 106.327 929.983 137.617 947.273C463.027 1127.19 1397.67 1114.84 1767.38 1046.47C1844.98 1032.12 2101.23 972.383 2140.1 906.173V899.083C2147.9 902.363 2148.63 912.633 2151.44 918.923V918.933Z" fill="#17182B"/>
<path d="M949.656 428.593C950.516 429.963 956.217 433.703 969.497 454.103C897.577 447.603 773.047 464.633 725.737 462.603C725.457 462.593 723.277 454.993 720.067 462.603C706.997 443.973 706.776 438.263 705.896 437.093L949.656 428.593Z" fill="#595764"/>
<path d="M2057.9 695.023C2028.91 736.513 1927.8 772.294 1879.33 777.224C2161.06 696.554 1945.76 629.533 1794.3 604.323C1795.18 602.403 1788.74 604.104 1802.8 564.644C1864.33 576.264 2080.04 608.033 2057.89 695.023H2057.9Z" fill="#01071A"/>
<path d="M371.447 539.133C376.117 555.823 384.947 594.533 385.617 609.993C378.907 608.613 377.007 612.243 374.277 612.823C199.337 650.113 111.697 708.663 343.097 777.213C291.197 764.013 176.627 732.793 156.027 678.013C170.447 609.393 305.787 585.203 370.027 573.143C377.027 569.133 369.187 544.123 362.937 539.133C365.667 538.753 368.667 539.363 371.437 539.133H371.447Z" fill="#01071A"/>
<path d="M2057.9 695.023C2080.05 608.033 1864.34 576.253 1802.81 564.643C1806.75 553.593 1813.7 537.763 1814.15 536.303C1877.07 546.923 2131.64 589.483 2057.91 695.023H2057.9Z" fill="#17182B"/>
<path d="M362.946 539.133C369.196 544.133 377.026 569.133 370.036 573.143C305.796 585.203 170.466 609.393 156.036 678.013C123.536 591.593 300.726 547.883 362.946 539.133Z" fill="#17182B"/>
<path d="M969.508 454.093C970.278 455.283 979.258 460.753 986.518 476.763C969.648 490.763 947.708 479.573 945.418 479.593C916.558 479.933 753.948 493.413 744.178 490.933C739.658 489.783 729.338 467.883 725.758 462.593C773.068 464.623 897.588 447.593 969.518 454.093H969.508Z" fill="#17182B"/>
<path d="M1434.34 445.593C1431.21 446.123 1427.64 445.243 1424.42 445.593C1422.52 446.803 1421.78 456.423 1420.17 459.763C1412.78 475.043 1407.41 504.583 1406 522.123C1405.91 523.253 1398.92 540.113 1404.58 544.793C1409 548.453 1422.76 542.563 1428.67 530.623C1438.42 510.923 1431.19 477.123 1437.17 465.433C1437.61 464.573 1450.9 454.733 1452.76 454.093C1486.49 442.513 1485.75 469.343 1488.19 471.103L1451.34 498.033C1449.31 511.673 1454.34 512.843 1454.17 513.623C1445.07 556.303 1407.18 611.343 1396.07 658.173C1383.79 627.743 1397.89 572.693 1394.65 549.053C1394.45 547.573 1385.18 521.293 1380.48 529.213C1395.78 573.713 1358.2 601.973 1363.47 645.423C1356.34 658.043 1355.43 595.983 1337.96 604.323C1336.08 559.173 1326.35 559.963 1320.95 539.133C1310.88 500.243 1351.69 492.543 1359.21 590.153C1395.58 520.893 1316.07 516.943 1320.95 456.933C1321.24 453.323 1327.18 442.193 1329.45 437.093C1359.17 438.343 1350.84 439.833 1352.12 439.923C1389.83 555.213 1407.05 463.863 1391.8 439.923C1387.58 433.293 1378.81 436.003 1374.79 430.003C1364.21 414.173 1388.47 408.853 1388.96 407.333C1390.2 403.503 1367.68 387.253 1371.95 381.823C1386.14 363.783 1407.44 436.593 1403.13 390.323C1401.59 373.793 1373.12 304.233 1418.72 360.563C1412.93 335.173 1470.71 264.783 1462.65 319.463C1460.31 335.353 1427.18 406.463 1420.13 432.833C1465.67 372.183 1482.77 384.263 1434.3 445.583L1434.34 445.593Z" fill="#A3DDFC"/>
<path d="M1244.44 434.253C1272.72 435.543 1301.2 435.903 1329.47 437.083C1327.19 442.183 1321.26 453.313 1320.97 456.923L1224.6 454.093C1231.23 448.153 1232.42 434.953 1244.44 434.253Z" fill="#364266"/>
<path d="M1391.83 439.923C1407.08 463.863 1389.86 555.213 1352.15 439.923C1365.22 440.843 1378.72 439.263 1391.83 439.923Z" fill="#01071A"/>
<path d="M1434.34 445.593C1456.95 441.803 1505.58 453.763 1533.54 451.263C1533.09 460.373 1521.98 465.743 1516.53 471.103C1508.19 471.983 1495.97 476.713 1488.19 471.103C1485.75 469.343 1486.49 442.513 1452.76 454.093C1450.9 454.733 1437.61 464.573 1437.17 465.433L1420.16 459.763C1421.78 456.423 1422.52 446.803 1424.41 445.593C1427.64 445.243 1431.2 446.123 1434.33 445.593H1434.34Z" fill="#364266"/>
<path d="M1502.37 485.273C1494.95 496.303 1484.21 528.073 1474.03 546.213C1460.54 570.253 1407.28 636.373 1434.35 641.163C1416.56 656.643 1392.98 718.553 1415.93 717.693C1419.91 717.543 1465.37 657.143 1471.2 702.103C1473.93 723.143 1448.27 731.963 1469.78 729.033C1484.33 727.053 1523.25 693.403 1530.72 679.433C1542.61 657.203 1535.14 644.233 1553.39 625.583C1538.77 553.433 1630.85 541.193 1567.56 611.413C1594.27 710.643 1453.04 758.083 1533.55 760.213C1564.66 761.033 1839.66 724.733 1877.93 714.863C1880.28 714.253 1891.48 706.023 1899.19 703.523C1901.89 702.653 1920.79 713.263 1947.37 680.853C1963.88 694.283 1958.02 706.173 1940.28 717.703C1910.95 736.763 1674.46 764.993 1625.66 768.723C1391.24 786.613 1136.33 761.193 900.058 768.723C879.978 761.593 835.178 769.353 866.048 743.213C833.268 741.123 781.068 751.633 764.008 723.373C740.838 715.943 521.358 742.683 463.568 740.383C419.118 738.613 282.288 720.323 255.238 685.113C304.668 623.563 370.498 625.733 378.538 621.343C388.718 615.773 377.248 617.183 374.288 612.843C377.018 612.263 378.908 608.633 385.628 610.013C386.508 630.233 385.818 630.953 379.958 646.863C305.278 654.273 245.928 680.343 361.538 697.883C463.838 713.403 676.528 710.933 785.278 700.713C808.038 706.413 806.268 697.303 822.128 697.883C823.958 698.043 826.038 697.533 827.798 697.883C830.038 698.333 859.448 717.513 868.898 717.723C895.188 718.323 871.098 710.843 839.138 675.203C837.988 673.923 842.148 671.143 841.968 670.953C836.878 665.373 812.598 639.713 810.788 638.353C812.118 628.573 808.038 630.293 807.958 629.853C807.408 627.053 807.688 621.723 807.958 618.513C808.158 616.173 809.948 615.653 810.788 612.843C825.748 605.403 842.768 652.453 868.888 683.703C930.108 658.593 950.428 760.153 938.328 699.293C939.318 697.223 944.598 703.033 952.498 683.703C958.838 668.183 954.578 645.403 978.008 649.693C977.808 699.563 965.148 704.943 966.668 710.633C974.438 739.703 1038.24 676.133 1012.02 736.143C1054.93 763.923 1069.06 697.693 1089.97 734.723C1133.96 715.993 1129.47 746.523 1155.16 743.223C1187.18 739.113 1159.63 712.373 1169.33 709.213C1178.8 706.133 1193.09 747.933 1216.1 662.443C1233 677.483 1225.79 652.883 1233.11 636.933C1238.34 625.523 1254.11 609.313 1255.78 601.503C1267.41 604.983 1272.92 608.023 1272.79 621.343C1272.66 621.493 1271.7 622.073 1269.96 624.173C1261.22 634.723 1247.32 644.313 1255.79 661.023C1244.57 668.803 1235.17 679.603 1230.28 692.203C1220.37 717.743 1216.54 747.403 1247.29 717.713C1258.48 706.903 1264.33 693.283 1268.55 692.203C1276.68 690.133 1277.93 697.703 1278.47 697.873C1260.62 751.933 1282.9 707.123 1302.56 720.543C1313.28 727.863 1293.25 727.753 1292.64 733.293C1290.7 750.933 1366.8 748.873 1357.83 713.453C1357.22 711.033 1344.51 701.973 1343.66 699.283C1338.04 681.493 1343.62 643.903 1356.41 695.033C1361.5 675.663 1355.23 651.773 1335.15 644.013C1335.82 625.133 1338.07 606.323 1337.98 604.333C1355.45 595.993 1356.36 658.053 1363.49 645.433C1358.21 601.983 1395.8 573.723 1380.5 529.223C1385.2 521.303 1394.47 547.583 1394.67 549.063C1397.91 572.703 1383.81 627.753 1396.09 658.183C1407.21 611.353 1445.09 556.313 1454.19 513.633C1469.5 497.523 1495.88 466.553 1502.37 485.293V485.273Z" fill="#C0E3FD"/>
<path d="M958.167 496.613C952.627 506.633 938.867 529.113 946.827 539.133C947.257 539.673 945.867 540.813 949.657 541.963C914.687 608.123 921.417 678.123 935.487 605.733C959.767 551.503 991.197 572.483 992.177 577.393C993.417 583.613 910.827 637.883 952.497 683.683C944.597 703.013 939.317 697.193 938.327 699.273C950.427 760.133 930.107 658.573 868.887 683.683C842.757 652.433 825.747 605.383 810.787 612.823C812.407 607.423 811.357 596.223 820.707 595.813C832.047 595.313 869.037 674.673 850.467 621.323C854.077 611.853 865.557 632.163 868.887 632.663C878.797 634.153 864.527 557.623 841.957 573.143C842.817 565.693 847.717 559.933 850.457 553.303C851.667 553.113 854.867 551.713 864.627 550.473C864.307 553.913 867.327 553.163 867.457 553.303C875.897 562.413 871.287 564.793 873.127 573.143C879.107 600.293 878.637 615.343 892.967 601.483C892.077 669.733 974.097 714.363 909.977 636.913C907.067 619.893 906.007 595.543 892.967 598.653C893.257 592.683 895.517 592.463 895.797 590.153C896.987 580.323 900.257 558.123 904.297 550.473C908.037 543.393 912.427 542.443 912.797 541.973C913.167 541.493 917.777 546.453 924.137 537.723C930.557 528.903 939.177 467.323 958.147 496.623L958.167 496.613Z" fill="#A3DDFC"/>
<path d="M379.958 646.833C371.518 669.733 356.968 669.873 361.538 675.173C434.478 710.473 561.098 698.743 635.058 669.503C652.248 666.353 724.088 664.313 732.848 666.673C735.868 667.483 766.498 695.983 785.288 700.683C676.538 710.903 463.858 713.373 361.548 697.853C245.938 680.313 305.298 654.243 379.968 646.833H379.958Z" fill="#78B7E9"/>
<path d="M725.748 462.603C729.328 467.893 739.648 489.793 744.168 490.943C753.938 493.433 916.548 479.943 945.408 479.603C947.698 479.573 969.638 490.773 986.508 476.773C986.778 477.373 993.158 481.063 995.008 486.693C993.438 502.683 995.928 517.773 997.838 533.463C983.738 533.283 957.818 544.433 949.658 541.963C945.858 540.813 947.258 539.673 946.828 539.133C948.348 523.713 968.168 512.073 958.168 496.613C939.198 467.313 930.578 528.893 924.158 537.713C917.798 546.443 913.188 541.483 912.818 541.963C909.488 508.813 929.428 499.173 885.888 496.613C863.618 495.303 782.518 508.323 752.668 510.783C737.548 497.813 731.038 478.233 720.068 462.603C723.278 454.993 725.458 462.593 725.738 462.603H725.748Z" fill="#04030B"/>
<path d="M711.578 601.484C710.528 602.254 701.768 597.343 700.238 612.823C669.418 607.783 639.807 600.204 609.537 592.984C610.007 586.484 608.857 579.604 609.537 573.144C647.897 575.574 687.448 573.353 725.748 570.313C769.198 566.853 787.767 562.514 827.787 556.144C820.857 589.204 744.548 577.344 711.578 601.494V601.484Z" fill="#78B7E9"/>
<path d="M850.458 553.303C847.708 559.933 842.808 565.693 841.958 573.143C839.758 592.293 844.458 604.073 850.458 621.323C869.028 674.673 832.038 595.313 820.698 595.813C811.348 596.223 812.398 607.413 810.778 612.823C809.938 615.633 808.138 616.153 807.948 618.493C781.758 607.803 772.368 611.143 748.428 612.823L711.578 601.483C744.538 577.333 820.858 589.193 827.788 556.133C835.248 554.943 843.108 554.443 850.458 553.303Z" fill="#78B7E9"/>
<path d="M725.747 570.303C687.447 573.353 647.897 575.573 609.537 573.133C611.717 552.413 617.587 531.373 620.877 510.773C654.287 509.143 690.257 565.263 725.747 570.293V570.303Z" fill="#04030B"/>
<path d="M827.787 697.853C828.737 691.953 830.957 686.233 833.457 680.843C834.657 678.263 835.837 675.433 839.127 675.173C871.087 710.803 895.177 718.283 868.887 717.693C859.437 717.473 830.027 698.293 827.787 697.853Z" fill="#78B7E9"/>
<path d="M904.308 550.463C900.258 558.113 896.998 580.313 895.808 590.143C887.748 594.003 882.159 579.153 881.639 573.133C881.529 571.853 886.508 565.513 884.468 547.623C891.458 548.313 897.218 551.133 904.308 550.453V550.463Z" fill="#799FBA"/>
<path d="M884.469 547.633C886.499 565.523 881.519 571.863 881.639 573.143H873.139C871.299 564.793 875.909 562.413 867.469 553.303L870.299 547.633C876.889 547.043 878.319 547.033 884.469 547.633Z" fill="#04030B"/>
<path d="M1794.31 604.323C1945.77 629.533 2161.07 696.553 1879.34 777.223C1510.76 882.763 733.278 870.983 357.278 780.053C356.938 774.463 347.958 778.653 343.108 777.223C111.708 708.673 199.348 650.123 374.288 612.833C377.258 617.183 388.718 615.773 378.538 621.333C370.508 625.723 304.668 623.553 255.238 685.103C282.278 720.313 419.118 738.603 463.568 740.373C521.358 742.673 740.848 715.933 764.008 723.363C781.068 751.623 833.268 741.113 866.048 743.203C835.178 769.343 879.978 761.583 900.058 768.713C1136.33 761.183 1391.24 786.603 1625.66 768.713C1674.45 764.993 1910.94 736.763 1940.28 717.693C1958.02 706.163 1963.87 694.283 1947.37 680.843C1918.55 657.383 1852.63 631.343 1819.82 652.503C1819.15 652.933 1814.59 653.073 1805.65 659.593C1823.72 708.683 1659.15 688.593 1621.42 683.683C1668.44 664.263 1716.06 648.003 1764.56 632.663C1775.12 628.843 1790.42 612.833 1794.32 604.323H1794.31Z" fill="#78B7E9"/>
<path d="M357.277 780.053C352.577 778.913 348.207 778.513 343.107 777.223C347.957 778.663 356.937 774.463 357.277 780.053Z" fill="#01071A"/>
<path d="M1320.97 539.133C1326.36 559.963 1336.09 559.173 1337.98 604.323C1338.06 606.313 1335.82 625.123 1335.15 644.003C1334.43 664.313 1338.21 708.173 1330.9 709.193C1298.07 675.133 1285.59 703.253 1282.72 703.523C1280.91 703.693 1278.81 697.963 1278.47 697.853C1277.92 697.683 1276.68 690.113 1268.55 692.183C1264.33 693.263 1258.48 706.883 1247.29 717.693L1230.28 692.183C1235.17 679.583 1244.57 668.783 1255.79 661.003C1281.73 643.023 1374.24 624.533 1269.96 624.153C1271.7 622.053 1272.66 621.473 1272.79 621.323C1283.46 609.363 1327.46 585.493 1309.64 568.883C1293.02 553.393 1270.22 588.503 1255.79 595.813C1254.4 573.003 1240.24 580.743 1230.28 594.393C1215.3 614.933 1224.94 660.793 1211.86 655.333C1207.11 653.353 1227.33 555.483 1173.6 590.143C1173.51 586.473 1178.02 546.963 1179.27 539.123C1223.08 542.403 1267.14 542.613 1311.07 544.793C1316.05 545.043 1319.49 544.573 1320.99 539.123L1320.97 539.133Z" fill="#78B7E9"/>
<path d="M1255.78 595.813C1255.89 597.583 1256.13 599.854 1255.78 601.484C1254.1 609.294 1238.34 625.503 1233.11 636.913C1225.79 652.863 1233 677.463 1216.1 662.423C1193.09 747.913 1178.8 706.103 1169.33 709.193C1159.62 712.353 1187.18 739.093 1155.16 743.203C1129.47 746.503 1133.96 715.973 1089.97 734.703C1069.07 697.673 1054.94 763.894 1012.02 736.124C1038.24 676.114 974.438 739.684 966.668 710.614C965.148 704.924 977.808 699.543 978.008 649.673C978.058 636.533 968.718 609.173 987.928 612.823C1005.16 616.093 990.398 648.543 1000.68 658.173C1000.5 659.083 1000.86 660.094 1000.68 661.004C1000.62 661.294 995.568 659.993 995.008 662.423C979.408 729.833 999.838 689.053 1024.77 697.853C1037.34 702.283 1027.43 718.373 1038.94 717.693C1043.73 717.413 1086.38 644.983 1101.3 717.693C1127.75 663.833 1161.34 779.434 1150.9 690.764C1179.83 656.574 1201.08 732.053 1187.75 645.413C1185.3 629.503 1174.44 612.033 1173.58 595.813C1173.48 593.943 1173.63 592.014 1173.58 590.144C1227.31 555.484 1207.09 653.353 1211.84 655.333C1224.92 660.803 1215.28 614.934 1230.26 594.394C1240.22 580.744 1254.38 572.993 1255.77 595.813H1255.78Z" fill="#A3DDFC"/>
<path d="M1320.97 456.933C1316.09 516.933 1395.6 520.883 1359.23 590.153C1351.7 492.543 1310.9 500.243 1320.97 539.133C1319.47 544.583 1316.03 545.053 1311.05 544.803C1267.12 542.623 1223.06 542.413 1179.25 539.133C1180.7 530.033 1186.53 489.123 1187.75 486.693C1188.86 484.503 1219.27 458.873 1224.6 454.093L1320.97 456.923V456.933Z" fill="#01071A"/>
<path d="M1000.68 661.004C1016.18 684.274 1156.45 677.733 1165.07 662.423L1173.57 595.813C1174.43 612.033 1185.29 629.503 1187.74 645.413C1201.08 732.053 1179.82 656.574 1150.89 690.764C1161.32 779.424 1127.74 663.823 1101.29 717.693C1086.38 644.983 1043.72 717.413 1038.93 717.693C1027.42 718.373 1037.32 702.284 1024.76 697.854C999.829 689.054 979.399 729.833 994.999 662.423C995.559 659.993 1000.61 661.294 1000.67 661.004H1000.68Z" fill="#78B7E9"/>
<path d="M997.847 533.463C1002.47 571.263 1007.72 622.393 1000.68 658.173C990.387 648.543 1005.15 616.093 987.927 612.823C968.717 609.173 978.057 636.533 978.007 649.673C954.577 645.383 958.837 668.173 952.497 683.683C910.827 637.883 993.417 583.613 992.177 577.393C991.197 572.493 959.767 551.513 935.487 605.733C921.417 678.113 914.687 608.113 949.657 541.963C957.817 544.433 983.737 533.283 997.837 533.463H997.847Z" fill="#78B7E9"/>
<path d="M1593.07 544.793C1607.1 568.783 1605.21 572.213 1598.74 598.643C1544.25 641.243 1642.52 622.563 1661.1 598.643C1667.17 598.003 1698 588.533 1700.78 594.393L1574.65 661.003L1547.72 713.443C1550.7 717.503 1553.13 717.453 1553.39 717.693C1558.54 722.623 1568.83 725.213 1576.06 726.193C1561.7 758.683 1533.71 748.813 1533.54 760.203C1453.03 758.073 1594.26 710.633 1567.55 611.403C1630.84 541.183 1538.75 553.433 1553.38 625.573C1535.12 644.233 1542.59 657.193 1530.71 679.423C1523.24 693.393 1484.32 727.043 1469.77 729.023C1448.26 731.953 1473.92 723.133 1471.19 702.093C1465.36 657.133 1419.9 717.533 1415.92 717.683C1392.97 718.553 1416.55 656.633 1434.34 641.153C1437.64 638.283 1454.14 630.063 1457.01 629.813C1482.73 627.613 1518.45 649.353 1509.45 677.993C1528.94 652.233 1514.09 616.123 1519.37 587.293C1528.73 536.203 1572.01 543.683 1593.06 544.773L1593.07 544.793Z" fill="#A3DDFC"/>
<path d="M1819.82 652.503C1832.33 678.223 1893.29 667.873 1902.02 686.513C1841.15 703.643 1620.66 732.283 1576.07 726.193C1568.84 725.203 1558.55 722.623 1553.4 717.693C1571.83 700.993 1598.33 693.223 1621.42 683.683C1659.15 688.583 1823.72 708.683 1805.65 659.593C1814.59 653.083 1819.16 652.933 1819.82 652.503Z" fill="#A3DDFC"/>
<path d="M1437.18 465.433C1431.19 477.123 1438.43 510.923 1428.68 530.623C1422.44 533.813 1404.24 528.223 1406.01 522.123C1407.42 504.593 1412.79 475.043 1420.18 459.763L1437.19 465.433H1437.18Z" fill="#17182B"/>
<path d="M1516.54 471.103C1511.31 476.253 1506.79 478.703 1502.37 485.273C1495.88 466.543 1469.49 497.503 1454.19 513.613C1454.36 512.843 1449.33 511.663 1451.36 498.023L1488.21 471.093C1495.99 476.703 1508.22 471.973 1516.55 471.093L1516.54 471.103Z" fill="#04030B"/>
<path d="M1428.67 530.623C1422.76 542.563 1409 548.453 1404.58 544.793C1398.92 540.103 1405.91 523.253 1406 522.123C1404.23 528.233 1422.43 533.823 1428.67 530.623Z" fill="#A3DDFC"/>
<path d="M1519.37 587.313C1514.09 616.143 1528.94 652.254 1509.45 678.014C1518.46 649.364 1482.73 627.633 1457.01 629.833C1462.42 613.443 1475.33 600.713 1485.35 587.313H1519.36H1519.37Z" fill="#78B7E9"/>
<path d="M1902.01 686.513C1906.07 695.183 1903.11 695.263 1899.18 703.523C1891.47 706.023 1880.28 714.253 1877.92 714.863C1839.65 724.733 1564.66 761.033 1533.54 760.213C1533.7 748.823 1561.69 758.693 1576.06 726.203C1620.66 732.293 1841.14 703.643 1902.01 686.523V686.513Z" fill="#78B7E9"/>
<path d="M1278.45 697.853C1278.79 697.963 1280.9 703.693 1282.7 703.523C1285.58 703.253 1298.05 675.133 1330.88 709.193C1338.2 708.173 1334.41 664.313 1335.13 644.003C1355.21 651.763 1361.47 675.653 1356.39 695.023C1343.6 643.893 1338.01 681.483 1343.64 699.273C1344.49 701.963 1357.2 711.023 1357.81 713.443C1366.78 748.863 1290.68 750.923 1292.62 733.283C1293.23 727.743 1313.26 727.843 1302.54 720.533C1282.87 707.113 1260.59 751.913 1278.45 697.863V697.853Z" fill="#A3DDFC"/>
<path d="M1947.36 680.843C1920.78 713.263 1901.87 702.643 1899.18 703.513C1903.12 695.253 1906.07 695.173 1902.01 686.503C1893.28 667.863 1832.33 678.213 1819.81 652.493C1852.62 631.343 1918.53 657.373 1947.36 680.833V680.843Z" fill="#A3DDFC"/>
<path d="M1272.78 621.323C1272.91 608.003 1267.41 604.963 1255.77 601.483C1256.12 599.853 1255.88 597.583 1255.77 595.813C1270.2 588.503 1293 553.393 1309.62 568.883C1327.44 585.493 1283.45 609.353 1272.77 621.323H1272.78Z" fill="#A3DDFC"/>
<path d="M1255.78 661.003C1247.32 644.293 1261.21 634.703 1269.95 624.153C1374.23 624.533 1281.72 643.023 1255.78 661.003Z" fill="#A3DDFC"/>
<path d="M1247.27 717.693C1216.52 747.383 1220.35 717.723 1230.26 692.183L1247.27 717.693Z" fill="#A3DDFC"/>
<path d="M850.458 621.323C844.458 604.073 839.758 592.283 841.958 573.143C864.528 557.623 878.788 634.153 868.888 632.663C865.558 632.163 854.068 611.863 850.468 621.323H850.458Z" fill="#A3DDFC"/>
<path d="M892.977 601.483C892.987 600.543 892.927 599.593 892.977 598.653C906.017 595.553 907.077 619.893 909.987 636.913C974.107 714.363 892.097 669.733 892.977 601.483Z" fill="#A3DDFC"/>
<path d="M881.639 573.144C882.169 579.154 887.749 594.013 895.809 590.153C895.529 592.463 893.259 592.683 892.979 598.653C892.929 599.593 892.989 600.544 892.979 601.484C878.649 615.344 879.119 600.294 873.139 573.144H881.639Z" fill="#668EAB"/>
<path d="M946.828 539.133C938.868 529.123 952.628 506.643 958.168 496.613C968.168 512.063 948.358 523.713 946.828 539.133Z" fill="#F48335"/>
</svg>
