<svg width="1060" height="2506" viewBox="0 0 1060 2506" fill="none" xmlns="http://www.w3.org/2000/svg">
<ellipse cx="530" cy="2389" rx="313" ry="117" fill="#3E7B37"/>
<g clip-path="url(#clip0_1718_1179)">
<path d="M829.754 1126.63L877.936 1164.58C880.861 1166.88 885.06 1164.32 884.376 1160.67L863.699 1051.39C863.699 1051.39 845.323 1088.12 829.754 1126.63Z" fill="#718DF5"/>
<path d="M761.722 1272.63L809.903 1310.59C812.829 1312.89 817.028 1310.33 816.343 1306.68L795.667 1197.4C795.667 1197.4 777.291 1234.13 761.722 1272.63Z" fill="#FF8359"/>
<path d="M714.707 1375.33L762.889 1413.29C765.814 1415.59 770.013 1413.03 769.329 1409.38L748.652 1300.1C748.652 1300.1 730.276 1336.83 714.707 1375.33Z" fill="#718DF5"/>
<path d="M230.188 1126.63L182.006 1164.58C179.081 1166.88 174.882 1164.32 175.566 1160.67L196.243 1051.39C196.243 1051.39 214.619 1088.12 230.188 1126.63Z" fill="#718DF5"/>
<path d="M298.232 1272.63L250.05 1310.59C247.125 1312.89 242.926 1310.33 243.61 1306.68L264.287 1197.4C264.287 1197.4 282.663 1234.13 298.232 1272.63Z" fill="#FF8359"/>
<path d="M345.235 1375.33L297.053 1413.29C294.128 1415.59 289.929 1413.03 290.613 1409.38L311.29 1300.1C311.29 1300.1 329.666 1336.83 345.235 1375.33Z" fill="#718DF5"/>
<path d="M1026.22 741.658L1017.24 814.839C1016.77 818.732 1011.56 819.711 1009.71 816.255L958.706 721.13C958.706 721.13 986.848 728.409 1026.21 741.67L1026.22 741.658Z" fill="#718DF5"/>
<path d="M35.8096 741.658L44.7854 814.839C45.2572 818.732 50.4705 819.711 52.3223 816.255L103.323 721.13C103.323 721.13 75.1807 728.409 35.8214 741.67L35.8096 741.658Z" fill="#718DF5"/>
<path d="M462.392 1469.54C460.753 1497.63 459.101 1525.72 457.462 1553.81C455.822 1581.9 454.171 1609.99 452.532 1638.08C451.6 1653.98 450.668 1669.88 449.736 1685.79C449.595 1688.18 453.322 1688.18 453.464 1685.79C455.103 1657.7 456.754 1629.61 458.394 1601.52C460.033 1573.43 461.685 1545.34 463.324 1517.25C464.256 1501.34 465.188 1485.44 466.119 1469.54C466.261 1467.14 462.534 1467.14 462.392 1469.54Z" fill="#1F2236"/>
<path d="M594.624 1469.54C596.264 1497.63 597.915 1525.72 599.554 1553.81C601.194 1581.9 602.845 1609.99 604.484 1638.08C605.416 1653.98 606.348 1669.88 607.28 1685.79C607.421 1688.17 611.149 1688.19 611.007 1685.79C609.368 1657.7 607.716 1629.61 606.077 1601.52C604.437 1573.43 602.786 1545.34 601.147 1517.25C600.215 1501.34 599.283 1485.44 598.351 1469.54C598.21 1467.15 594.483 1467.13 594.624 1469.54Z" fill="#1F2236"/>
<path d="M667.67 1474.5C673.189 1502.19 678.721 1529.88 684.241 1557.57C689.761 1585.26 695.293 1612.95 700.813 1640.64C703.927 1656.26 707.052 1671.88 710.166 1687.5C710.638 1689.85 714.235 1688.86 713.764 1686.51C708.244 1658.82 702.712 1631.13 697.192 1603.44C691.672 1575.75 686.14 1548.06 680.62 1520.37C677.506 1504.75 674.381 1489.13 671.267 1473.51C670.795 1471.17 667.198 1472.16 667.67 1474.5Z" fill="#1F2236"/>
<path d="M389.253 1473.51C383.733 1501.2 378.201 1528.89 372.681 1556.58C367.161 1584.27 361.63 1611.96 356.11 1639.65C352.996 1655.27 349.87 1670.89 346.756 1686.51C346.285 1688.85 349.882 1689.86 350.354 1687.5C355.874 1659.81 361.406 1632.12 366.926 1604.43C372.446 1576.74 377.977 1549.05 383.497 1521.36C386.611 1505.74 389.737 1490.12 392.851 1474.5C393.322 1472.16 389.725 1471.15 389.253 1473.51Z" fill="#1F2236"/>
<path d="M720.958 1752.46C712.785 1718.99 694.55 1698.54 679.523 1698.54C664.497 1698.54 646.132 1718.99 637.97 1752.46C629.431 1787.46 652.183 1816.74 679.405 1816.74L679.535 1815.36V1816.74C706.758 1816.74 729.51 1787.46 720.97 1752.46H720.958Z" fill="white"/>
<path d="M339.561 1752.46C347.735 1718.99 365.97 1698.54 380.996 1698.54C396.023 1698.54 414.387 1718.99 422.549 1752.46C431.089 1787.46 408.337 1816.74 381.114 1816.74L380.984 1815.36V1816.74C353.762 1816.74 331.01 1787.46 339.549 1752.46H339.561Z" fill="white"/>
<path d="M530.259 1680.43H357.524C350.648 1680.43 345.482 1686.71 346.803 1693.46L389.889 1912.87C394.23 1934.97 413.597 1950.9 436.101 1950.9H624.406C646.922 1950.9 666.289 1934.97 670.618 1912.87L713.704 1693.46C715.025 1686.71 709.859 1680.43 702.983 1680.43H530.248H530.259Z" fill="#9E5846"/>
<path d="M465.684 1682.74C465.896 1685.23 466.108 1687.73 466.321 1690.22C466.887 1696.94 467.465 1703.64 468.031 1710.35C468.856 1720.11 469.694 1729.88 470.52 1739.63C471.51 1751.28 472.501 1762.93 473.492 1774.58C474.542 1786.95 475.603 1799.33 476.653 1811.7C477.667 1823.64 478.693 1835.59 479.708 1847.53C480.581 1857.84 481.465 1868.16 482.338 1878.47C482.987 1886.08 483.635 1893.67 484.284 1901.28C484.603 1904.98 484.909 1908.66 485.228 1912.35C486.36 1925.56 492.729 1937.64 503.781 1945.19C507.26 1947.57 511.094 1949.37 515.104 1950.66C517.392 1951.39 518.371 1947.79 516.095 1947.06C500.903 1942.17 490.406 1928.67 488.99 1912.81C488.731 1909.94 488.507 1907.08 488.259 1904.22C487.669 1897.31 487.079 1890.38 486.49 1883.47C485.652 1873.63 484.815 1863.79 483.977 1853.95C482.987 1842.32 481.996 1830.7 481.005 1819.07C479.955 1806.78 478.917 1794.5 477.868 1782.22C476.865 1770.42 475.863 1758.61 474.848 1746.82C473.975 1736.62 473.114 1726.43 472.242 1716.25C471.605 1708.8 470.968 1701.36 470.343 1693.92C470.036 1690.35 469.765 1686.78 469.434 1683.22C469.423 1683.06 469.411 1682.91 469.399 1682.76C469.199 1680.38 465.471 1680.36 465.672 1682.76L465.684 1682.74Z" fill="#1F2236"/>
<path d="M690.729 1795.71H369.285C366.89 1795.71 366.878 1799.43 369.285 1799.43H690.729C693.123 1799.43 693.135 1795.71 690.729 1795.71Z" fill="#1F2236"/>
<path d="M533.539 1698.23C528.102 1721.31 524.139 1744.73 521.532 1768.3C518.866 1792.45 517.64 1816.75 517.793 1841.04C517.946 1865.38 519.433 1889.73 522.358 1913.89C525.082 1936.39 529.234 1958.9 537.266 1980.16C541.1 1990.31 545.641 2000.43 551.856 2009.36C557.164 2016.98 564.17 2024.63 573.429 2027.2C583.066 2029.88 592.714 2025.49 599.236 2018.37C606.443 2010.52 610.253 2000.08 613.437 1990.08C620.219 1968.78 625.244 1946.88 628.829 1924.82C632.509 1902.18 634.68 1879.29 635.458 1856.37C636.26 1832.9 635.635 1809.39 633.701 1785.98C631.755 1762.39 628.499 1738.89 624.005 1715.65C622.885 1709.88 621.694 1704.11 620.432 1698.38C619.913 1696.03 616.315 1697.02 616.834 1699.37C621.847 1722.11 625.692 1745.13 628.252 1768.28C630.787 1791.22 632.097 1814.3 632.061 1837.39C632.026 1859.92 630.705 1882.44 627.945 1904.81C625.256 1926.62 621.151 1948.28 615.513 1969.54C612.753 1979.95 609.911 1990.53 605.759 2000.49C601.996 2009.5 596.288 2019.01 586.805 2022.83C577.746 2026.49 568.935 2022.54 562.318 2016.13C554.9 2008.94 549.804 1999.6 545.511 1990.31C536.228 1970.18 531.109 1948.34 527.795 1926.51C524.28 1903.29 522.499 1879.75 521.803 1856.29C521.096 1832.53 521.685 1808.73 523.643 1785.04C525.578 1761.71 528.845 1738.49 533.539 1715.55C534.66 1710.09 535.863 1704.65 537.137 1699.23C537.691 1696.89 534.093 1695.9 533.539 1698.23Z" fill="#1F2236"/>
<path d="M558.213 1698.47C552.54 1723.47 548.388 1748.81 545.664 1774.31C542.88 1800.34 541.583 1826.55 541.701 1852.74C541.819 1879.25 543.352 1905.78 546.383 1932.12C549.19 1956.5 553.448 1980.89 561.752 2004.05C565.762 2015.24 570.539 2026.41 577.109 2036.34C582.617 2044.67 590 2053.24 599.944 2056.13C610.193 2059.11 620.384 2054.11 627.107 2046.42C634.88 2037.52 638.819 2025.83 642.181 2014.72C649.175 1991.59 654.388 1967.93 658.092 1944.06C661.89 1919.57 664.131 1894.83 664.933 1870.05C665.759 1844.56 665.086 1819.02 663.046 1793.59C660.994 1767.88 657.549 1742.26 652.808 1716.91C651.652 1710.73 650.414 1704.56 649.104 1698.4C648.609 1696.05 645.012 1697.04 645.507 1699.39C650.767 1724.13 654.801 1749.13 657.502 1774.27C660.168 1799.08 661.548 1824.04 661.536 1849.01C661.536 1873.48 660.18 1897.96 657.325 1922.26C654.542 1945.97 650.296 1969.52 644.422 1992.66C641.52 2004.09 638.513 2015.68 634.184 2026.68C630.28 2036.6 624.323 2047.33 614.015 2051.69C604.237 2055.83 594.801 2051.08 587.901 2044.01C580.01 2035.93 574.691 2025.56 570.197 2015.32C560.525 1993.25 555.265 1969.44 551.856 1945.67C548.235 1920.41 546.395 1894.84 545.699 1869.34C544.991 1843.62 545.64 1817.85 547.716 1792.2C549.745 1767.05 553.153 1742 558.037 1717.25C559.204 1711.32 560.466 1705.4 561.811 1699.48C562.342 1697.15 558.744 1696.15 558.213 1698.49V1698.47Z" fill="#1F2236"/>
<path d="M842.717 736.302C828.598 782.62 814.492 828.937 800.373 875.255C786.255 921.572 772.148 967.89 758.03 1014.21C743.911 1060.52 729.805 1106.84 715.686 1153.16C701.568 1199.48 687.461 1245.79 673.343 1292.11C659.225 1338.43 645.118 1384.75 631 1431.06C629.207 1436.96 627.402 1442.87 625.609 1448.77C624.913 1451.07 628.511 1452.05 629.207 1449.76C643.325 1403.45 657.432 1357.13 671.55 1310.81C685.669 1264.49 699.775 1218.18 713.894 1171.86C728.012 1125.54 742.119 1079.22 756.237 1032.91C770.355 986.589 784.462 940.271 798.58 893.954C812.699 847.636 826.805 801.319 840.924 755.001C842.728 749.103 844.521 743.192 846.326 737.293C847.022 734.993 843.424 734.013 842.728 736.302H842.717Z" fill="#1F2236"/>
<path d="M211.41 737.293C225.529 783.611 239.635 829.928 253.754 876.246C267.872 922.563 281.979 968.881 296.097 1015.2C310.215 1061.52 324.322 1107.83 338.44 1154.15C352.559 1200.47 366.665 1246.79 380.784 1293.1C394.902 1339.42 409.009 1385.74 423.127 1432.06C424.92 1437.95 426.725 1443.87 428.517 1449.76C429.213 1452.05 432.811 1451.07 432.115 1448.77C417.996 1402.46 403.89 1356.14 389.771 1309.82C375.653 1263.5 361.546 1217.19 347.428 1170.87C333.31 1124.55 319.203 1078.23 305.085 1031.92C290.966 985.598 276.86 939.28 262.741 892.963C248.623 846.645 234.516 800.328 220.398 754.01C218.605 748.112 216.8 742.201 215.008 736.302C214.312 734.013 210.714 734.993 211.41 737.293Z" fill="#1F2236"/>
<mask id="mask0_1718_1179" style="mask-type:luminance" maskUnits="userSpaceOnUse" x="15" y="83" width="1030" height="1142">
<path d="M1044.86 598.777C1044.86 314.36 814.349 83.7986 530 83.7986C245.651 83.7986 15.1445 314.36 15.1445 598.777C15.1445 828.394 165.387 1022.9 372.905 1089.33C404.94 1135.31 434.014 1180.46 456.813 1224.09H603.175C625.974 1180.47 655.049 1135.31 687.083 1089.33C894.601 1022.9 1044.84 828.394 1044.84 598.777H1044.86Z" fill="white"/>
</mask>
<g mask="url(#mask0_1718_1179)">
<path d="M1044.86 598.777C1044.86 314.36 814.349 83.7986 530 83.7986C245.651 83.7986 15.1445 314.36 15.1445 598.777C15.1445 828.394 165.387 1022.9 372.905 1089.33C404.94 1135.31 434.014 1180.46 456.813 1224.09H603.175C625.974 1180.47 655.049 1135.31 687.083 1089.33C894.601 1022.9 1044.84 828.394 1044.84 598.777H1044.86Z" fill="#FF8359"/>
<path d="M618.025 871.42C610.653 911.237 602.161 950.842 592.654 990.211C587.983 1009.55 583.112 1028.85 577.91 1048.04C572.957 1066.31 567.095 1085.46 554.226 1099.87C547.845 1107.01 539.79 1112.95 530.719 1116.15C526.851 1117.52 521.932 1119.02 517.769 1118.63C511.329 1118.04 509.076 1110.15 506.41 1105.08C497.588 1088.34 489.673 1071.13 482.537 1053.59C468.101 1018.09 456.931 981.339 447.837 944.141C428.659 865.746 416.734 785.074 408.124 704.885C399.219 621.924 395.751 538.196 401.719 454.905C407.169 378.763 420.379 303.211 440.866 229.676C461.531 155.54 489.65 83.4683 524.728 14.9712C527.299 9.95719 529.917 4.96679 532.559 -0.0118103C539.542 14.6644 547.303 28.9868 555.123 43.2265C573.841 77.2627 591.533 111.181 603.092 148.414C615.206 187.453 623.108 227.895 629.961 268.148C636.672 307.494 641.709 347.122 645.188 386.88C652.265 467.894 652.855 549.428 647.948 630.584C643.065 711.386 632.78 791.834 618.036 871.42H618.025Z" fill="#4C69D1"/>
<path d="M659.908 63.4713C671.632 62.5274 683.45 63.1173 695.127 65.0993C779.967 79.5514 833.645 153.865 880.683 218.976C928.605 285.302 974.747 354.507 1003.75 431.498C1018.14 469.711 1028.01 509.717 1031.08 550.501C1034.53 596.429 1029.32 642.546 1019.97 687.507C1010.96 730.769 998.973 773.901 984.324 815.606C970.524 854.892 952.077 892.703 922.932 922.964C907.894 938.573 890.992 952.34 874.22 966.014C857.259 979.841 840.015 993.314 822.499 1006.42C787.469 1032.65 751.353 1057.41 714.282 1080.65C704.657 1086.69 694.95 1092.61 685.196 1098.44C677.223 1103.2 668.023 1110.49 658.433 1111.21C656.959 1111.31 651.899 1111.21 650.956 1109.5C650.413 1108.52 651.923 1106.64 652.194 1106.15C653.468 1103.76 655.155 1101.53 656.605 1099.26C659.542 1094.66 662.467 1090.05 665.381 1085.44C671.396 1075.93 677.352 1066.39 683.273 1056.82C707.264 1018.04 730.523 978.814 753.016 939.151C795.855 863.599 835.922 785.416 857.506 700.827C878.595 618.196 882.842 531.33 870.162 447.012C858.32 368.299 831.452 292.204 791.467 223.4C756.614 163.433 712.112 109.175 659.931 63.4948L659.908 63.4713Z" fill="#4C69D1"/>
<path d="M274.619 223.376C234.634 292.18 207.754 368.275 195.924 446.989C183.244 531.318 187.49 618.172 208.58 700.803C230.164 785.392 270.231 863.575 313.07 939.127C335.563 978.791 358.822 1018.02 382.813 1056.8C388.734 1066.36 394.702 1075.91 400.705 1085.42C403.619 1090.03 406.544 1094.63 409.481 1099.23C410.931 1101.51 412.618 1103.75 413.892 1106.12C414.151 1106.62 415.673 1108.49 415.13 1109.47C414.187 1111.17 409.115 1111.29 407.652 1111.18C398.063 1110.48 388.852 1103.18 380.89 1098.42C371.136 1092.59 361.44 1086.66 351.804 1080.63C314.733 1057.39 278.617 1032.61 243.587 1006.4C226.071 993.29 208.827 979.817 191.866 965.99C175.094 952.317 158.192 938.549 143.154 922.941C114.009 892.68 95.5617 854.868 81.7617 815.582C67.1126 773.878 55.129 730.745 46.1178 687.483C36.7527 642.523 31.5512 596.406 35.0071 550.478C38.0737 509.693 47.9342 469.687 62.3357 431.475C91.3391 354.483 137.48 285.279 185.403 218.952C232.44 153.841 286.119 79.5278 370.959 65.0757C382.636 63.0819 394.466 62.5039 406.178 63.4477C353.998 109.128 309.484 163.374 274.642 223.353L274.619 223.376Z" fill="#4C69D1"/>
<path d="M687.06 1089.37C655.049 1135.33 625.975 1180.47 603.175 1224.09H456.813C434.014 1180.47 404.952 1135.33 372.929 1089.37C382.164 1074.02 448.958 1062.12 529.977 1062.12C610.995 1062.12 677.801 1074.02 687.036 1089.37H687.06Z" fill="#FFF1E8"/>
<path d="M911.397 574.486C889.553 840.711 698.359 1081.26 595.968 1226.69C587.039 1225.21 584.692 1216.57 574.572 1215.27C651.734 1067.9 801.092 831.816 809.973 558.087C817.852 315.174 740.549 175.183 665.204 96.9765C687.543 102.84 709.293 110.131 730.382 118.743C831.794 204.559 930.009 347.535 911.397 574.486Z" fill="white"/>
<path d="M1060 609.69C1060 837.007 879.563 1046.75 631.058 1134.72C796.468 997.148 986.742 855.883 987.756 590.448C988.523 391.847 914.652 258.451 826.061 169.933C967.186 265.164 1059.99 426.591 1059.99 609.69H1060Z" fill="white"/>
<path d="M343.335 547.469C343.335 765.985 439.25 1033.94 493.176 1211.72C506.729 1210.57 521 1209.71 535.885 1209.27C516.848 1022.78 464.81 741.741 466.897 539.895C468.879 350.012 496.526 174.711 514.537 79.7874C499.616 80.2121 484.861 81.2503 470.271 82.902C415.673 167.656 343.347 322.418 343.347 547.469H343.335Z" fill="white"/>
<path d="M148.615 574.486C170.459 840.711 361.653 1081.26 464.044 1226.69C472.972 1225.21 475.32 1216.57 485.44 1215.27C408.278 1067.9 258.92 831.816 250.039 558.087C242.16 315.174 319.463 175.183 394.808 96.9765C372.469 102.84 350.719 110.131 329.63 118.743C228.218 204.559 130.003 347.535 148.615 574.486Z" fill="white"/>
<path d="M0 609.69C0 837.007 180.437 1046.75 428.942 1134.72C263.532 997.148 73.2576 855.883 72.2314 590.448C71.4648 391.847 145.336 258.451 233.927 169.933C92.8134 265.164 0 426.591 0 609.69Z" fill="white"/>
<path d="M716.665 547.469C716.665 765.985 626.635 1033.94 572.709 1211.72C559.157 1210.57 544.885 1209.71 530 1209.27C549.037 1022.78 595.19 741.741 593.102 539.895C591.121 350.012 563.474 174.711 545.463 79.7874C560.383 80.2121 575.139 81.2503 589.729 82.902C644.327 167.656 716.653 322.418 716.653 547.469H716.665Z" fill="white"/>
<path d="M530 1062.12C572.851 1062.12 664.815 1063.72 690.787 1093.04C716.759 1122.34 642.535 1246.08 612.847 1264.65C583.16 1283.2 473.055 1310.43 427.291 1274.55C381.515 1238.66 372.917 1089.33 372.917 1089.33C372.917 1089.33 386.269 1062.12 530 1062.12Z" fill="#4C69D1"/>
</g>
<g style="mix-blend-mode:multiply" opacity="0.15">
<path d="M838.93 995.319C827.064 977.269 810.044 963.206 791.373 952.623C750.386 929.429 703.749 922.976 657.561 919.496C605.44 915.567 550.747 913.798 503.214 889.542C461.708 868.365 431.761 831.568 408.537 792.046C361.794 712.518 336.459 613.489 257.469 557.639C239.163 544.709 218.428 535.306 196.289 531.448C167.439 526.41 137.881 531.413 110.576 541.252C75.2862 553.958 42.9212 574.144 15.1562 599.32C15.6634 828.442 165.764 1022.39 372.928 1088.72C404.963 1134.7 434.037 1179.86 456.837 1223.47H603.199C625.998 1179.86 655.072 1134.7 687.107 1088.72C744.784 1070.25 798.049 1041.88 844.886 1005.63C843.129 1002.11 841.147 998.67 838.953 995.319H838.93Z" fill="#9E5846"/>
</g>
<path d="M530 1233.43C570.414 1233.43 603.175 1229.25 603.175 1224.09C603.175 1218.93 570.414 1214.74 530 1214.74C489.587 1214.74 456.825 1218.93 456.825 1224.09C456.825 1229.25 489.587 1233.43 530 1233.43Z" fill="#1F2236"/>
<path d="M375.666 1088.85C379.003 1085.25 384.087 1082.93 388.864 1081.06C396.483 1078.08 404.457 1076.01 412.442 1074.27C435.642 1069.18 459.444 1066.81 483.116 1065.37C512.297 1063.6 541.607 1063.51 570.799 1065.03C595.132 1066.29 619.57 1068.55 643.467 1073.4C651.876 1075.11 660.274 1077.12 668.354 1080.01C671.35 1081.09 674.31 1082.29 677.141 1083.75C679.311 1084.89 681.552 1086.24 683.145 1087.67C683.852 1088.3 684.501 1088.97 685.079 1089.71C686.553 1091.6 689.172 1088.95 687.721 1087.07C684.584 1083.05 679.512 1080.57 674.935 1078.6C667.516 1075.41 659.708 1073.23 651.865 1071.4C628.794 1066.01 605.004 1063.5 581.402 1061.92C551.892 1059.93 522.24 1059.72 492.694 1061.11C467.724 1062.29 442.66 1064.52 418.091 1069.29C409.257 1071 400.435 1073.04 391.919 1075.98C386.163 1077.96 380.242 1080.3 375.406 1084.07C374.569 1084.73 373.767 1085.43 373.047 1086.21C371.419 1087.97 374.05 1090.61 375.689 1088.85H375.666Z" fill="#1F2236"/>
<path d="M168.478 988.866L120.107 1026.97C117.206 1029.25 113.03 1026.76 113.656 1023.13L132.516 914.647C132.516 914.647 152.378 954.204 168.478 988.866Z" fill="#FF8359"/>
<path d="M48.1936 737.73C70.6037 785.923 93.0257 834.116 115.436 882.31C136.596 927.813 157.767 973.317 178.927 1018.83C199.639 1063.37 220.363 1107.92 241.074 1152.45C262.14 1197.74 283.205 1243.03 304.271 1288.33C326.48 1336.09 348.702 1383.85 370.912 1431.62C373.801 1437.82 376.679 1444.03 379.569 1450.22C380.583 1452.39 383.791 1450.51 382.789 1448.34C360.379 1400.14 337.957 1351.95 315.547 1303.76C294.387 1258.25 273.215 1212.75 252.055 1167.23C231.343 1122.7 210.62 1078.15 189.908 1033.61C168.843 988.323 147.777 943.032 126.712 897.741C104.502 849.972 82.2806 802.215 60.071 754.447C57.1812 748.241 54.3033 742.036 51.4136 735.842C50.3992 733.671 47.191 735.559 48.1936 737.73Z" fill="#1F2236"/>
<path d="M891.464 988.866L939.646 1026.82C942.571 1029.12 946.77 1026.56 946.086 1022.91L925.409 913.632C925.409 913.632 907.033 950.358 891.464 988.866Z" fill="#FF8359"/>
<path d="M1008.6 735.854C986.99 782.325 965.37 828.784 943.762 875.255C922.248 921.501 900.735 967.76 879.233 1014.01L814.703 1152.76C793.095 1199.23 771.475 1245.69 749.867 1292.16C728.353 1338.41 706.84 1384.66 685.338 1430.91C682.637 1436.72 679.936 1442.53 677.235 1448.34C676.232 1450.5 679.44 1452.39 680.455 1450.22C702.063 1403.75 723.683 1357.29 745.291 1310.82C766.804 1264.58 788.318 1218.32 809.82 1172.07C831.334 1125.82 852.848 1079.57 874.35 1033.32C895.958 986.848 917.578 940.389 939.186 893.919C960.699 847.672 982.213 801.413 1003.72 755.166C1006.42 749.362 1009.12 743.546 1011.82 737.741C1012.82 735.582 1009.61 733.683 1008.6 735.854Z" fill="#1F2236"/>
<path d="M718.435 678.47C700.518 779.057 682.602 879.643 664.686 980.23C646.852 1080.31 629.03 1180.39 611.196 1280.47C601.206 1336.58 591.204 1392.68 581.214 1448.78C580.801 1451.13 584.387 1452.14 584.811 1449.78C602.727 1349.19 620.644 1248.6 638.56 1148.02C656.394 1047.94 674.216 947.857 692.05 847.778C702.04 791.668 712.042 735.571 722.032 679.461C722.445 677.113 718.859 676.111 718.435 678.47Z" fill="#1F2236"/>
<path d="M337.98 679.461C355.897 780.048 373.813 880.634 391.729 981.221C409.563 1081.3 427.385 1181.38 445.219 1281.46C455.209 1337.57 465.211 1393.67 475.201 1449.78C475.626 1452.14 479.211 1451.13 478.799 1448.78C460.882 1348.2 442.966 1247.61 425.05 1147.02C407.216 1046.95 389.394 946.866 371.56 846.787C361.57 790.677 351.568 734.58 341.578 678.47C341.153 676.111 337.567 677.113 337.98 679.461Z" fill="#1F2236"/>
<path d="M1003.2 397.816C945.249 378.822 886.121 363.509 826.263 351.876C764.328 339.843 701.627 331.714 638.69 327.384C573.771 322.913 508.557 322.465 443.58 326.004C380.348 329.449 317.328 336.716 254.993 347.9C194.756 358.707 135.169 373.171 76.7493 391.41C69.6253 393.628 62.5248 395.917 55.4361 398.241C53.1715 398.984 54.1387 402.594 56.4269 401.839C114.033 382.892 172.806 367.591 232.323 355.923C294.434 343.759 357.301 335.537 420.438 331.16C485.05 326.676 549.957 326.181 614.628 329.638C677.872 333.012 740.915 340.22 803.263 351.369C863.275 362.105 922.638 376.474 980.846 394.584C987.97 396.802 995.082 399.079 1002.18 401.403C1004.47 402.158 1005.45 398.548 1003.17 397.804L1003.2 397.816Z" fill="#1F2236"/>
<path d="M717.361 120.796C744.571 153.393 769.6 187.795 792.258 223.719C814.739 259.347 834.896 296.451 852.6 334.675C870.387 373.065 885.673 412.622 898.34 452.982C911.008 493.33 921.069 534.504 928.358 576.161C935.659 617.819 940.165 659.96 941.781 702.219C941.981 707.422 942.134 712.624 942.241 717.827C942.288 720.222 946.027 720.234 945.968 717.827C945.048 675.367 941.214 633.002 934.598 591.05C927.945 548.944 918.486 507.286 906.349 466.431C894.306 425.883 879.622 386.125 862.472 347.464C845.193 308.485 825.378 270.626 803.168 234.23C781.147 198.141 756.779 163.492 730.217 130.6C726.844 126.423 723.435 122.271 719.991 118.153C718.446 116.313 715.827 118.956 717.349 120.796H717.361Z" fill="#1F2236"/>
<path d="M522.251 85.1553C551.148 116.549 577.769 150.007 601.878 185.211C625.904 220.274 647.453 257.023 666.395 295.082C685.338 333.153 701.638 372.522 715.155 412.835C728.66 453.135 739.394 494.368 747.178 536.155C754.986 578.096 759.81 620.591 761.485 663.216C761.698 668.466 761.851 673.716 761.957 678.966C762.004 681.361 765.743 681.372 765.684 678.966C764.752 636.14 760.683 593.397 753.595 551.15C746.541 509.068 736.492 467.493 723.624 426.827C710.697 385.983 694.927 346.036 676.504 307.364C658.151 268.844 637.133 231.588 613.614 195.994C590.012 160.271 563.899 126.199 535.449 94.2041C531.958 90.2755 528.432 86.394 524.881 82.5244C523.254 80.7548 520.623 83.3975 522.239 85.1671L522.251 85.1553Z" fill="#1F2236"/>
<path d="M387.884 104.61C413.986 134.8 438 166.771 459.75 200.229C481.429 233.57 500.867 268.349 517.946 304.261C535.095 340.315 549.839 377.512 562.058 415.513C574.23 453.359 583.902 492.02 590.92 531.153C597.973 570.427 602.326 610.185 603.883 650.061C604.083 655.064 604.225 660.078 604.331 665.092C604.378 667.487 608.117 667.498 608.058 665.092C607.185 625.015 603.493 585.009 597.112 545.44C590.731 505.883 581.638 466.762 569.984 428.419C558.331 390.065 544.106 352.49 527.488 316C510.88 279.521 491.844 244.152 470.53 210.21C449.312 176.41 425.816 144.037 400.222 113.411C397.013 109.565 393.77 105.754 390.491 101.967C388.922 100.15 386.292 102.793 387.849 104.61H387.884Z" fill="#1F2236"/>
<path d="M273.699 152.06C295.142 180.716 314.863 210.659 332.72 241.686C350.648 272.844 366.713 305.087 380.819 338.156C394.914 371.213 407.004 405.131 417.041 439.639C427.079 474.147 435.052 509.268 440.855 544.732C446.646 580.184 450.244 616.002 451.565 651.89C451.73 656.291 451.848 660.691 451.942 665.092C451.989 667.487 455.728 667.498 455.669 665.092C454.891 629.132 451.836 593.232 446.611 557.651C441.362 521.951 433.908 486.57 424.354 451.767C414.8 416.952 403.135 382.727 389.489 349.304C375.889 316.011 360.332 283.509 342.876 252.056C325.36 220.498 305.958 189.989 284.762 160.79C282.179 157.227 279.561 153.688 276.931 150.16C275.515 148.261 272.272 150.113 273.711 152.048L273.699 152.06Z" fill="#1F2236"/>
<path d="M165.611 234.301C181.133 260.409 195.381 287.272 208.261 314.773C221.247 342.497 232.841 370.859 243.008 399.739C253.093 428.384 261.762 457.536 268.969 487.042C276.164 516.536 281.896 546.396 286.095 576.468C290.306 606.634 292.948 637.037 293.997 667.475C294.127 671.297 294.233 675.131 294.316 678.966C294.363 681.361 298.102 681.372 298.043 678.966C297.383 648.339 295.118 617.748 291.273 587.357C287.44 557.072 282.085 526.977 275.22 497.223C268.332 467.375 259.934 437.869 250.097 408.859C240.331 380.061 229.15 351.746 216.612 324.046C203.979 296.132 189.967 268.844 174.634 242.323C172.711 239.008 170.777 235.705 168.819 232.413C167.592 230.349 164.372 232.225 165.599 234.301H165.611Z" fill="#1F2236"/>
<path d="M52.5231 401.898C59.9303 421.636 66.7123 441.609 72.8338 461.783C78.9317 481.851 84.3809 502.131 89.1696 522.553C93.9819 543.069 98.1219 563.75 101.566 584.537C105.01 605.254 107.758 626.089 109.799 646.994C111.851 667.97 113.196 689.017 113.821 710.088C113.892 712.671 113.962 715.255 114.021 717.839C114.068 720.234 117.807 720.246 117.748 717.839C117.3 696.768 116.133 675.709 114.245 654.71C112.358 633.651 109.763 612.663 106.484 591.781C103.217 570.958 99.2542 550.253 94.6188 529.69C89.9834 509.127 84.6876 488.717 78.7194 468.496C72.7276 448.18 66.0871 428.054 58.7979 408.175C57.9133 405.744 57.0051 403.326 56.0969 400.907C55.2595 398.677 51.6503 399.645 52.4995 401.898H52.5231Z" fill="#1F2236"/>
<path d="M340.01 118.153C312.811 150.738 287.758 185.105 265.065 220.981C242.278 257.023 221.873 294.552 203.968 333.248C186.205 371.637 170.907 411.159 158.216 451.519C145.43 492.185 135.287 533.678 127.962 575.677C120.685 617.335 116.144 659.476 114.516 701.735C114.304 707.103 114.151 712.471 114.033 717.851C113.985 720.257 117.713 720.246 117.76 717.851C118.68 675.391 122.49 633.014 129.154 591.073C135.771 549.475 145.136 508.313 157.107 467.93C169.138 427.369 183.787 387.576 200.96 348.903C218.134 310.242 237.784 272.691 259.793 236.566C281.802 200.454 306.158 165.757 332.732 132.865C335.999 128.818 339.302 124.807 342.64 120.808C344.173 118.979 341.543 116.325 339.998 118.165L340.01 118.153Z" fill="#1F2236"/>
<path d="M535.155 82.4773C506.152 113.977 479.436 147.565 455.21 182.887C431.078 218.079 409.422 254.959 390.409 293.171C371.325 331.525 354.883 371.201 341.272 411.82C327.708 452.274 316.951 493.672 309.155 535.624C301.335 577.73 296.487 620.402 294.8 663.204C294.588 668.454 294.435 673.704 294.329 678.954C294.281 681.361 298.009 681.349 298.056 678.954C298.988 636.294 303.01 593.716 310.098 551.634C317.152 509.717 327.177 468.307 339.998 427.782C352.819 387.246 368.447 347.594 386.741 309.204C405.035 270.826 425.959 233.711 449.371 198.236C472.878 162.619 498.886 128.677 527.229 96.7878C530.72 92.8592 534.247 88.9778 537.797 85.1081C539.425 83.3503 536.795 80.6958 535.155 82.4655V82.4773Z" fill="#1F2236"/>
<path d="M669.733 101.696C643.502 132.016 619.346 164.117 597.455 197.717C575.563 231.316 555.949 266.391 538.728 302.621C521.508 338.852 506.682 376.215 494.391 414.404C482.113 452.569 472.371 491.56 465.329 531.035C458.311 570.357 453.935 610.162 452.378 650.085C452.178 655.099 452.036 660.113 451.93 665.115C451.883 667.522 455.61 667.51 455.657 665.115C456.53 625.192 460.163 585.34 466.556 545.912C472.925 506.638 481.948 467.8 493.495 429.741C505.101 391.516 519.231 354.059 535.791 317.71C552.292 281.503 571.176 246.382 592.312 212.664C613.519 178.829 637.003 146.42 662.609 115.782C665.829 111.936 669.073 108.125 672.352 104.338C673.92 102.533 671.29 99.8787 669.71 101.696H669.733Z" fill="#1F2236"/>
<path d="M783.082 150.184C761.462 179.076 741.599 209.278 723.624 240.577C705.649 271.888 689.561 304.273 675.454 337.495C661.395 370.611 649.281 404.529 639.244 439.073C629.183 473.734 621.198 508.997 615.419 544.614C609.651 580.113 606.042 615.966 604.721 651.902C604.556 656.302 604.438 660.703 604.343 665.103C604.296 667.51 608.023 667.498 608.07 665.103C608.849 629.191 611.868 593.315 617.129 557.78C622.389 522.222 629.844 486.995 639.374 452.345C648.869 417.825 660.428 383.871 673.956 350.708C687.591 317.297 703.243 284.712 720.782 253.177C738.179 221.89 757.44 191.653 778.47 162.678C781.053 159.115 783.672 155.575 786.302 152.048C787.741 150.125 784.509 148.261 783.082 150.16V150.184Z" fill="#1F2236"/>
<path d="M891.181 232.425C875.53 258.757 861.164 285.857 848.189 313.616C835.262 341.282 823.68 369.584 813.536 398.382C803.357 427.275 794.605 456.675 787.352 486.44C780.133 516.064 774.401 546.053 770.214 576.267C766.015 606.516 763.349 636.966 762.288 667.487C762.158 671.321 762.052 675.143 761.969 678.977C761.922 681.384 765.649 681.384 765.696 678.977C766.357 648.61 768.586 618.29 772.372 588.159C776.182 557.804 781.584 527.649 788.484 497.848C795.325 468.26 803.652 439.014 813.383 410.251C823.161 381.382 834.354 352.997 846.939 325.237C859.477 297.572 873.383 270.532 888.587 244.235C890.509 240.919 892.443 237.616 894.401 234.325C895.628 232.26 892.408 230.384 891.181 232.437V232.425Z" fill="#1F2236"/>
<path d="M1003.89 400.907C996.485 420.645 989.703 440.618 983.581 460.792C977.425 481.06 971.928 501.517 967.116 522.14C962.315 542.656 958.187 563.337 954.755 584.124C951.323 604.876 948.563 625.758 946.51 646.687C944.446 667.758 943.078 688.911 942.453 710.076C942.37 712.66 942.311 715.243 942.252 717.827C942.205 720.234 945.932 720.222 945.98 717.827C946.428 696.756 947.595 675.698 949.483 654.698C951.358 633.781 953.929 612.922 957.208 592.17C960.487 571.359 964.462 550.643 969.109 530.091C973.733 509.634 979.017 489.319 984.961 469.204C990.93 448.983 997.547 428.962 1004.8 409.166C1005.68 406.735 1006.59 404.317 1007.5 401.898C1008.35 399.645 1004.74 398.677 1003.9 400.907H1003.89Z" fill="#1F2236"/>
<path d="M856.02 202.495C872.816 222.421 888.739 243.078 903.742 264.409C918.71 285.691 932.769 307.635 945.862 330.121C958.918 352.525 971.02 375.483 982.131 398.913C993.359 422.568 1003.57 446.694 1012.74 471.209C1021.82 495.501 1029.89 520.169 1036.89 545.133C1037.77 548.248 1038.63 551.374 1039.48 554.512C1040.1 556.825 1043.7 555.845 1043.07 553.521C1036.27 528.286 1028.41 503.346 1019.5 478.772C1010.57 454.15 1000.59 429.894 989.609 406.11C978.663 382.385 966.703 359.108 953.788 336.398C940.825 313.605 926.872 291.354 911.999 269.753C897.208 248.281 881.485 227.435 864.89 207.32C862.826 204.819 860.75 202.329 858.662 199.852C857.117 198.011 854.487 200.666 856.02 202.495Z" fill="#1F2236"/>
<path d="M213.085 190.555C194.261 212.275 176.463 234.903 159.797 258.321C143.024 281.881 127.373 306.255 112.912 331.313C98.4989 356.277 85.2651 381.913 73.2462 408.116C61.2154 434.365 50.3878 461.169 40.834 488.422C31.3038 515.627 23.0474 543.269 16.1121 571.241C15.2629 574.686 14.4254 578.131 13.6116 581.588C13.0572 583.924 16.6546 584.915 17.209 582.579C23.8023 554.63 31.693 527 40.8694 499.795C50.0576 472.531 60.5196 445.679 72.22 419.394C83.8497 393.262 96.6943 367.673 110.695 342.733C124.754 317.698 139.969 293.325 156.317 269.729C172.7 246.087 190.204 223.223 208.792 201.268C211.08 198.566 213.392 195.864 215.716 193.186C217.284 191.381 214.654 188.727 213.074 190.544L213.085 190.555Z" fill="#1F2236"/>
<path d="M679.9 1447.5H380.1C372.55 1447.5 366.43 1453.62 366.43 1461.17V1463.32C366.43 1470.87 372.55 1476.99 380.1 1476.99H679.9C687.45 1476.99 693.571 1470.87 693.571 1463.32V1461.17C693.571 1453.62 687.45 1447.5 679.9 1447.5Z" fill="#9E5846"/>
<path d="M713.976 1668.01H346.036C341.17 1668.01 337.226 1671.95 337.226 1676.82V1688.69C337.226 1693.56 341.17 1697.5 346.036 1697.5H713.976C718.842 1697.5 722.786 1693.56 722.786 1688.69V1676.82C722.786 1671.95 718.842 1668.01 713.976 1668.01Z" fill="#9E5846"/>
<path d="M369.107 1464.1H691.412C693.806 1464.1 693.818 1460.37 691.412 1460.37H369.107C366.712 1460.37 366.701 1464.1 369.107 1464.1Z" fill="#1F2236"/>
<path d="M528.502 662.874V1449.28C528.502 1451.68 532.229 1451.69 532.229 1449.28V662.874C532.229 660.479 528.502 660.467 528.502 662.874Z" fill="#1F2236"/>
<path d="M709.057 1697.02H351.167C348.773 1697.02 348.761 1700.75 351.167 1700.75H709.057C711.452 1700.75 711.463 1697.02 709.057 1697.02Z" fill="#1F2236"/>
<path d="M431.349 1677.99C428.212 1675.02 422.432 1675.1 418.304 1675.03C412.878 1674.93 407.063 1674.5 401.697 1675.64C400.647 1675.87 399.55 1676.2 398.783 1676.99C397.415 1678.39 397.628 1680.63 398.076 1682.47C400.152 1690.94 408.302 1709.69 420.085 1702.01C423.34 1699.89 425.9 1696.48 427.905 1693.18C429.969 1689.78 431.561 1686.08 432.493 1682.25C432.941 1680.4 432.458 1679.02 431.373 1677.99H431.349Z" fill="white"/>
<path d="M649.824 1746.32C642.429 1716.01 625.904 1697.5 612.305 1697.5C598.706 1697.5 582.075 1716.01 574.668 1746.32C566.93 1778.02 587.536 1804.54 612.187 1804.54L612.305 1803.29V1804.54C636.956 1804.54 657.562 1778.02 649.824 1746.32Z" fill="white"/>
<path d="M452.768 1746.32C445.372 1716.01 428.848 1697.5 415.248 1697.5C401.649 1697.5 385.018 1716.01 377.611 1746.32C369.874 1778.02 390.479 1804.54 415.13 1804.54L415.248 1803.29V1804.54C439.9 1804.54 460.505 1778.02 452.768 1746.32Z" fill="white"/>
<path d="M594.955 1682.25C595.886 1686.08 597.467 1689.78 599.543 1693.18C601.548 1696.48 604.096 1699.89 607.363 1702.01C619.146 1709.7 627.284 1690.94 629.372 1682.47C629.82 1680.63 630.032 1678.4 628.664 1676.99C627.897 1676.2 626.801 1675.87 625.751 1675.64C620.384 1674.5 614.558 1674.92 609.144 1675.03C605.016 1675.1 599.236 1675.02 596.099 1677.99C595.014 1679.02 594.53 1680.4 594.978 1682.25H594.955Z" fill="white"/>
<path d="M35.8096 740.408L77.0796 812.668C78.8135 815.7 83.3191 815.24 84.3924 811.913L115 717.19C115 717.19 75.1689 727.159 35.8096 740.419V740.408Z" fill="#718DF5"/>
<path d="M145.549 708.118L188.458 785.368C190.157 788.436 194.698 787.999 195.795 784.672L226.39 691.542C226.39 691.542 185.875 698.172 145.549 708.118Z" fill="#718DF5"/>
<path d="M256.467 685.407L294.517 765.454C296.027 768.628 300.603 768.474 301.889 765.206L338.111 673.374C338.111 673.374 297.289 677.727 256.467 685.395V685.407Z" fill="#718DF5"/>
<path d="M363.517 669.976L403.348 753.078C404.869 756.252 409.446 756.075 410.719 752.795L445.738 662.885C445.738 662.885 404.728 664.773 363.517 669.976Z" fill="#718DF5"/>
<path d="M1005.69 736.279L962.882 808.622C961.101 811.63 956.607 811.087 955.581 807.76L926.495 713.061C926.495 713.061 966.326 723.03 1005.69 736.29V736.279Z" fill="#718DF5"/>
<path d="M894.225 706.029L852.141 783.245C850.466 786.324 845.925 785.935 844.804 782.608L813.383 689.454C813.383 689.454 853.898 696.084 894.225 706.029Z" fill="#718DF5"/>
<path d="M785.641 682.93L743.203 763.177C741.564 766.28 736.999 765.938 735.855 762.623L703.997 670.908C703.997 670.908 744.819 675.261 785.641 682.93Z" fill="#718DF5"/>
<path d="M553.567 662.154L516.201 749.445C514.809 752.689 510.233 752.701 508.817 749.468L471.286 663.393C471.286 663.393 512.049 661.552 553.567 662.154Z" fill="#718DF5"/>
<path d="M667.587 667.286L624.984 752.123C623.404 755.273 618.827 755.013 617.613 751.698L585.165 663.157C585.165 663.157 626.223 663.57 667.587 667.286Z" fill="#718DF5"/>
<path d="M1022.67 738.591C962.151 718.747 900.37 702.82 837.845 690.704C773.611 678.258 708.61 669.787 643.349 665.245C575.741 660.538 507.826 660.054 440.16 663.758C375.017 667.321 310.075 674.801 245.84 686.292C183.186 697.5 121.204 712.53 60.4374 731.5C53.0303 733.813 45.6467 736.184 38.275 738.614C36.0104 739.358 36.9775 742.968 39.2657 742.213C98.9003 722.593 159.75 706.749 221.354 694.668C285.659 682.057 350.743 673.539 416.11 668.997C483.057 664.337 550.3 663.794 617.318 667.392C683.498 670.943 749.479 678.517 814.716 690.197C877.146 701.369 938.915 716.293 999.482 735.122C1006.9 737.435 1014.3 739.794 1021.69 742.224C1023.98 742.98 1024.96 739.369 1022.68 738.626L1022.67 738.591Z" fill="#1F2236"/>
</g>
<defs>
<clipPath id="clip0_1718_1179">
<rect width="1060" height="2057" fill="white"/>
</clipPath>
</defs>
</svg>
