<svg width="374" height="212" viewBox="0 0 374 212" fill="none" xmlns="http://www.w3.org/2000/svg">
<path d="M233.644 198.541L236.59 198.88L240.065 199.219C241.337 199.028 242.629 199.07 243.88 199.388H244.049C244.897 199.303 245.745 199.494 246.486 199.918L249.962 201.995L256.044 203.563L257.951 203.902C261.766 204.241 267.318 205.64 270.794 203.372L271.493 202.843L272.193 202.503H272.532C272.532 202.122 272.85 201.804 273.231 201.804H273.401L273.93 201.465H274.969C277.575 200.766 279.313 200.088 280.521 197.311C281.305 195.425 281.835 193.433 282.089 191.42C281.39 187.605 279.483 175.293 277.067 172.856C274.651 170.418 275.689 176.331 272.913 170.948C268.06 161.052 257.464 151.345 250.704 143.017C246.063 136.935 240.15 131.955 233.347 128.437C233.368 127.97 233.326 127.504 233.178 127.059C233.22 125.194 233.114 123.351 232.839 121.507C232.266 119.261 231.525 117.035 230.592 114.916C228.96 111.695 227.032 108.622 224.87 105.719C223.938 104.066 222.624 102.646 221.056 101.565C216.309 99.5941 210.884 100.315 206.836 103.472C202.682 106.418 197.299 102.603 193.485 106.079C189.67 109.554 188.271 106.418 185.156 107.817C182.041 109.194 178.735 114.407 176.997 114.747C170.746 115.785 167.461 122.376 161.379 123.414C159.81 123.753 157.034 124.792 156.865 122.037C157.013 120.574 157.416 119.176 158.073 117.883C158.878 116.018 159.344 114.026 159.45 111.992C159.45 107.478 155.975 104.701 153.898 101.056C148.515 91.6895 148.515 79.5463 142.094 70.8575C139.89 67.5303 136.457 65.2204 132.557 64.4363C126.666 63.5674 120.923 66.8734 115.201 67.9118C103.927 69.8191 92.4616 68.2509 81.1873 71.3873C70.2521 74.8417 59.9951 80.1185 50.8189 87.006C48.7421 88.3835 46.8348 89.9517 44.9275 91.5199L41.9817 93.957C40.7738 94.8259 41.6427 93.0881 40.4135 93.4272C39.2056 93.7663 35.8996 98.1107 34.6916 98.9796C33.4837 99.8484 28.9697 102.286 26.024 104.532C23.0783 106.778 19.6028 109.554 16.6571 112.161L4.51394 123.096C4.53513 123.287 4.47155 123.478 4.3444 123.626C2.77618 125.385 1.33511 127.25 0 129.178V130.217L0.699342 132.463L2.4371 133.671C8.159 135.748 9.89676 142.869 12.1431 148.93L14.0504 152.236C19.6028 160.564 28.2704 164.379 36.9592 167.494C41.9605 169.528 47.1314 171.16 52.4083 172.347L55.5236 172.686C58.2362 172.622 60.9699 172.75 63.6825 173.025L66.6283 173.555H70.7184L72.6257 173.894C75.2323 173.894 77.4787 172.686 79.9158 172.326C82.3529 171.987 83.3913 171.987 84.2602 172.856C85.1291 174.085 85.6589 175.526 85.8284 177.009C86.1463 177.666 86.3794 178.366 86.5277 179.086C86.6973 179.277 86.6973 179.574 86.5277 179.785V180.125C90.8721 182.901 94.8563 186.376 99.2007 189.322C103.545 192.268 106.66 193.476 110.475 194.705C114.29 195.913 115.328 195.404 116.366 198.011C117.405 200.617 116.705 198.18 116.705 198.541V198.88C116.833 199.028 116.896 199.219 116.875 199.409C122.046 201.677 127.386 203.521 132.833 204.962C142.729 207.568 153.474 208.607 163.032 204.262C168.414 201.825 172.928 197.142 178.65 195.764C184.372 194.387 190.963 195.934 196.876 197.142C209.188 199.77 221.331 197.672 233.644 198.541Z" fill="#7497A4"/>
<path d="M306.524 166.095C303.409 164.357 303.218 159.165 299.594 157.237C295.97 155.308 288.828 158.445 286.582 154.122C285.438 151.981 284.102 149.947 282.598 148.039C281.432 146.386 280.034 144.924 278.444 143.695C276.918 141.766 275.096 140.071 273.061 138.672C269.416 136.066 266.004 133.162 262.825 130.005C262.995 129.835 262.825 129.305 262.656 129.136C261.766 128.076 260.77 127.08 259.71 126.19C259.71 126.084 259.625 126.021 259.541 126.021C259.562 125.83 259.498 125.639 259.371 125.491C256.87 122.715 253.798 120.511 250.343 119.07C249.39 117.968 248.521 116.823 247.737 115.594C245.13 111.61 243.053 106.926 240.107 103.112C237.162 99.2973 233.686 95.8218 229.872 94.7833C226.057 93.7449 222.242 98.4284 219.466 100.505L216.521 102.942C219.021 104.044 221.374 105.507 223.45 107.287C226.481 110.656 228.685 114.704 229.872 119.091C232.118 126.211 233.178 136.447 237.501 143.038C239.747 144.776 242.523 145.984 244.96 147.552C247.398 149.12 251.382 154.312 253.628 158.826C255.429 162.408 257.782 165.671 260.558 168.532C263.504 171.647 272.701 172.516 274.969 176.331C277.215 180.146 279.652 189.512 281.898 190.911C282.619 187.245 284.145 183.812 286.412 180.845C291.795 175.123 305.316 173.915 310.529 168.172C310.847 168.002 307.032 166.455 306.524 166.095Z" fill="#6A8A94"/>
<path d="M229.13 88.3623C229.13 88.3623 229.3 88.5318 229.3 88.3623H229.469C230.147 90.1424 230.571 92.0074 230.677 93.9147C230.571 94.9743 230.741 96.0551 231.207 97.0299C231.546 97.5173 232.034 97.8776 232.585 98.0683L237.438 101.184C237.438 101.353 237.607 101.184 237.607 101.184C242.121 106.905 243.499 114.895 249.92 118.879C254.54 121.401 258.63 124.813 261.893 128.945C265.009 132.93 267.785 137.104 271.091 141.089C274.397 145.073 277.512 148.718 281.157 152.893C284.802 157.046 297.814 155.669 300.929 160.013C307.52 169.719 310.635 168.342 310.466 168.172L314.45 169.74H314.62L321.91 172.177C326.911 173.301 332.04 173.83 337.168 173.746C344.289 173.746 350.879 173.216 357.47 169.931C363.15 166.964 368.66 163.658 373.958 160.034V158.466C373.258 154.652 373.089 150.138 372.05 146.493C367.536 138.164 363.023 129.666 356.093 123.753C346.026 115.255 333.184 116.993 321.21 118.54C318.265 118.879 314.789 120.108 311.674 119.578C308.559 119.049 305.952 115.594 303.875 112.649C301.374 109.088 297.306 106.969 292.94 106.927C290.27 106.99 287.6 107.223 284.95 107.626C283.17 107.923 281.327 107.859 279.568 107.456C277.682 106.694 275.923 105.634 274.354 104.341C268.823 100.124 263.97 95.0802 259.944 89.4219C255.96 84.4629 250.916 80.4364 245.194 77.6179C239.642 74.5026 233.75 72.7648 227.837 75.8801C227.668 75.8801 227.668 76.0496 227.668 76.2192C227.604 79.398 227.732 82.598 228.007 85.7557C228.431 87.1544 228.431 87.6842 229.13 88.3623Z" fill="#7497A4"/>
<path d="M156.61 7.87425C155.741 5.79742 153.495 4.92854 151.757 4.05966C150.02 3.19078 143.259 -0.284741 143.09 0.0755265C141.522 3.55105 140.314 8.23452 141.882 12.0491C143.45 15.8637 148.812 14.8253 152.118 13.6173C155.402 12.3882 158.348 11.5193 156.61 7.87425Z" fill="#F7F8FC"/>
<path d="M351.791 120.129C348.315 114.577 341.385 114.047 337.91 108.325C334.434 102.603 318.137 94.6139 307.033 89.2311C305.125 88.7013 303.388 87.8536 301.48 87.1543C297.708 85.4589 294.381 82.8947 291.774 79.6946C282.577 69.2893 269.904 49.6865 263.843 47.4189L251.869 42.7354L249.093 42.2056C243.371 40.4679 238.327 36.8228 232.775 34.9155L232.436 34.5764L231.398 34.0466H230.529L215.779 27.1168C207.98 23.4717 199.821 17.4108 191.323 16.7114C188.78 16.7538 186.258 16.33 183.864 15.5035C181.977 14.571 180.176 13.469 178.481 12.1975L165.638 3.1908L163.731 4.75902C163.964 9.80276 165.214 14.7617 167.376 19.3393C168.711 21.8187 170.216 24.1923 171.89 26.4598C173.967 30.2744 173.797 34.089 173.797 38.4334C173.797 49.3686 180.558 54.5607 189.246 58.2057C194.46 60.2826 199.482 62.3594 203.827 66.3647C207.344 69.9038 210.523 73.7184 213.363 77.8085C218.576 85.0986 223.938 92.3888 231.588 96.2033C232.118 96.3729 232.288 95.6735 232.288 95.504C232.161 90.4179 231.037 85.4165 228.982 80.7542C227.774 78.3171 229.851 79.186 236.78 82.8311C237.12 83.0006 237.31 82.3013 237.31 81.9622C237.31 81.6231 236.971 78.8469 238.179 78.1476C239.387 77.4483 242.693 80.394 243.732 81.6231C244.77 82.8311 246.847 86.4761 248.585 88.553C250.322 90.6298 256.574 94.4444 260.389 97.5808C264.203 100.717 268.717 106.948 272.532 111.631L278.254 118.921C280.33 121.698 279.822 121.528 283.107 121.528C283.509 121.189 283.594 120.574 283.276 120.151C282.068 118.434 281.072 116.569 280.33 114.598L290.736 117.544C294.211 118.413 300.103 118.921 301.501 122.927C302.9 126.932 301.501 125.703 301.84 127.61C301.819 128.182 302.01 128.733 302.37 129.178C303.939 131.425 307.923 130.916 309.83 130.386C312.797 129.348 315.637 128.013 318.328 126.402C321.888 124.559 325.788 123.435 329.772 123.096C337.062 122.566 344.352 123.965 351.642 121.358C351.981 121.337 351.981 120.468 351.791 120.129Z" fill="#F7F8FC"/>
<path d="M205.713 201.677C206.899 200.596 208.319 199.812 209.866 199.431C212.833 198.816 215.864 198.646 218.894 198.901H228.791C229.321 198.901 229.321 197.862 228.96 197.523C225.527 194.959 223.217 191.166 222.539 186.948C221.84 183.473 222.37 180.018 221.162 176.712C220.378 174.318 219 172.177 217.178 170.461C216.076 169.804 215.079 168.977 214.232 168.024C212.494 165.417 213.532 164.718 213.532 162.641C213.405 161.263 212.706 160.013 211.625 159.165C209.548 156.919 207.641 155.52 206.603 152.405L202.958 141.131C202.089 138.694 201.389 136.214 200.881 133.671L200.542 134.201L200.203 135.07C197.596 140.453 196.727 147.912 190.666 149.65L183.037 154.863C174.539 161.285 174.009 174.826 166.91 182.625C163.794 185.931 160.319 188.177 158.051 192.331C157.627 192.755 157.331 193.306 157.182 193.899L156.843 193.37H156.144L153.898 188.686C153.559 186.44 154.427 184.871 153.198 182.604C151.99 180.358 149.723 178.62 148.176 176.522C146.607 174.445 142.793 167.663 144.192 162.111C145.569 156.559 146.438 156.029 146.968 152.744C147.201 149.862 147.264 146.959 147.137 144.076C147.54 142.254 148.578 140.665 150.083 139.563C154.237 137.486 158.941 136.087 163.095 134.18L164.133 133.65L165.002 132.951C167.439 131.064 169.982 129.327 172.632 127.737L173.5 127.038L175.577 125.131L180.6 118.709C182.677 116.463 185.453 115.234 187.53 112.988C187.975 111.101 188.801 109.342 189.967 107.774C191.704 105.528 193.612 104.299 193.082 100.844C192.828 98.6192 191.238 96.7755 189.098 96.1609C185.983 95.1225 182.338 96.3305 179.392 97.1994C174.56 98.3649 169.855 99.9967 165.341 102.052C157.161 105.464 149.638 110.275 143.132 116.272C135.333 122.863 124.907 130.853 119.884 140.389C118.168 143.822 116.197 147.128 113.993 150.286L108.779 154.1C107.741 154.8 106.173 156.177 104.965 156.008C99.582 154.969 103.397 152.702 103.587 151.324C103.757 149.947 104.287 149.756 103.757 148.379C103.757 148.188 103.609 148.039 103.418 148.039C100.642 148.209 97.1661 150.816 94.5595 149.417C91.9528 148.039 92.4826 144.733 92.4826 141.258C93.0124 138.503 93.8813 135.812 95.0893 133.268C97.5264 128.585 100.472 124.41 101.68 119.049C101.85 118.879 101.68 118.01 101.341 118.18C98.48 119.536 95.7462 121.147 93.182 123.033C90.9356 124.94 88.8376 127.547 86.4217 128.755C85.0018 129.751 83.1581 129.962 81.5686 129.284C81.0388 128.076 80.5302 127.038 80.1912 125.978C78.3686 120.744 77.4997 115.213 77.5845 109.66C77.7329 108.876 77.966 108.135 78.2839 107.414C79.3223 103.938 80.8905 96.3093 82.9673 93.5331C85.0442 90.7569 85.0442 89.3794 93.3727 83.6363C91.6349 81.0297 82.6071 88.1503 81.2296 86.9423C79.8521 85.7344 80.0216 92.1556 79.4918 92.4947C78.7925 93.9993 77.966 95.4404 77.0547 96.8391C74.7236 100.336 73.6852 105.019 72.6255 109.364C69.0017 115.064 64.0639 119.833 58.2148 123.245C55.9685 124.622 53.5314 125.682 51.285 126.89C45.3936 127.419 39.3114 126.89 33.5895 127.589C24.5616 128.458 13.1179 129.157 5.6582 135.748C9.4728 139.393 10.6808 146.323 13.1179 151.367C15.555 156.41 23.5232 164.209 30.9829 167.494L33.2293 167.833L35.3061 168.172C38.7816 169.21 42.0664 170.609 45.2028 171.648L55.4387 172.686C58.1513 172.622 60.8851 172.75 63.5977 173.025C66.5646 173.618 69.5951 173.979 72.6255 174.063C75.2322 174.063 77.4786 172.855 79.9157 172.495C82.3528 172.135 83.3912 172.156 84.2601 173.025C85.1289 174.254 85.6587 175.695 85.8283 177.179C86.1462 177.836 86.3793 178.535 86.5276 179.256C86.6972 179.446 86.6972 179.743 86.5276 179.955V180.824L87.7356 182.901C89.4733 184.109 91.0416 185.507 92.7581 186.546L94.4959 187.754C95.6615 188.093 96.7846 188.622 97.8019 189.322C102.316 190.191 106.13 193.666 110.475 195.044C114.819 196.421 115.328 195.743 116.366 198.35C117.405 200.956 116.705 198.519 116.705 198.88V199.219C116.854 199.727 116.896 200.257 116.875 200.787C123.338 203.86 130.247 205.894 137.347 206.869C143.492 207.759 149.702 208.225 155.911 208.246H160.764C172.208 208.946 184.012 209.454 195.286 206.678C197.617 206.191 199.885 205.428 202.046 204.432L205.713 202.185V201.677Z" fill="#6A8A94"/>
<path d="M240.934 106.418C240.404 103.811 238.158 101.734 236.42 99.9967C234.513 98.1317 232.945 95.9489 231.737 93.5754C231.334 90.5873 230.402 87.7052 228.961 85.0773C226.714 80.3939 223.408 77.2786 219.933 73.8031C217.941 71.9806 216.288 69.7978 215.08 67.3819C213.512 63.7368 215.419 60.7911 214.91 57.146C214.402 53.501 211.265 52.9924 208.659 52.6321C202.428 52.0175 196.346 50.4281 190.624 47.9486C188.039 46.783 185.559 45.4479 183.164 43.9645C181.024 42.9261 179.244 41.2095 178.142 39.1115C176.574 36.3353 176.934 34.0889 177.103 31.122C177.273 28.1763 177.442 22.2637 174.666 18.11C171.89 13.9563 166.868 9.78147 165.808 3.69931C165.808 3.36023 165.638 3.1695 165.469 3.1695C160.955 4.90727 157.31 8.19206 152.987 10.0994C148.663 12.0067 144.319 5.94568 143.45 0.393327C143.281 0.22379 143.111 -0.136478 142.92 0.054252C109.076 30.4227 75.2325 60.7911 41.4097 91.4986C40.117 92.6218 38.8879 93.8509 37.7647 95.1436C37.5951 95.4827 37.5951 96.3516 37.9342 96.1821H38.8031C40.8799 95.9277 42.8296 95.1436 44.525 93.9357C55.2694 90.0363 65.6536 85.2045 75.5716 79.525C75.8682 79.525 76.1014 79.7581 76.1014 80.0548C76.2709 80.0548 76.1014 80.2243 76.1014 80.2243V80.5634C75.5928 81.072 75.1901 81.6654 74.8934 82.3012C74.6391 82.9793 74.6391 83.721 74.8934 84.378C75.7623 85.2469 77.8391 82.8098 78.708 82.4707C79.5769 82.1316 80.0855 79.8641 81.4842 79.525L85.1292 81.0932C85.1292 81.2628 83.3915 83.5303 83.3915 83.6999C83.3915 83.8694 82.3531 84.0389 82.014 84.7383C81.6749 85.4376 83.7517 83.5303 83.2219 85.4376C82.6921 87.3449 82.5226 84.0601 83.0524 84.7383C83.5822 85.4376 84.2604 85.6072 84.6206 84.9078C93.9876 75.8799 101.617 80.0548 113.76 81.7926C118.782 82.4919 123.657 82.831 128.171 79.7157C132.685 76.6005 134.592 73.2945 138.406 72.2561H139.106C139.636 72.7859 139.275 73.6336 139.106 74.1634C134.91 82.3859 129.675 90.0363 123.487 96.9026H123.318C122.364 97.7503 121.495 98.6615 120.711 99.6788L117.596 102.455C116.939 102.794 116.536 103.451 116.557 104.193C116.557 104.362 116.557 104.892 116.896 104.892C118.443 104.511 119.906 103.854 121.241 102.985L124.716 100.908L131.964 97.9198H132.663L136.139 96.8814C136.669 97.2205 136.308 98.0894 135.969 98.9582C133.871 101.48 131.561 103.811 129.039 105.888C129.039 105.888 128.87 106.058 129.039 106.418C129.209 106.757 130.078 107.626 130.777 107.117C132.494 106.397 134.083 105.401 135.461 104.172L139.275 102.603C139.445 102.773 139.445 102.773 139.275 103.133V103.663C137.813 105.443 136.52 107.35 135.461 109.385C135.27 109.703 135.27 110.105 135.461 110.423L135.8 110.762H135.969C136.669 111.101 137.538 110.423 138.216 110.063C139.445 109.406 140.589 108.664 141.691 107.817C144.298 106.821 146.968 106.015 149.681 105.379C149.808 105.909 149.744 106.46 149.511 106.948C147.773 109.025 147.074 110.254 145.357 112.5C143.853 114.005 142.454 115.637 141.204 117.353C141.204 117.692 143.641 115.976 143.98 115.785C163.244 105.21 192.913 93.5754 184.224 105.019C184.054 105.358 182.486 108.664 183.186 109.173C186.661 111.25 187.339 111.25 185.792 113.517C184.245 115.785 183.016 115.764 183.546 115.764C194.651 114.026 193.252 107.096 200.203 105.358L204.357 105.888C204.039 108.876 203.466 111.843 202.619 114.746C202.364 115.17 202.174 115.637 202.089 116.124C201.39 117.162 202.089 118.731 201.75 120.108C201.411 121.486 201.22 127.229 202.28 125.83C203.318 124.452 206.264 115.255 209.4 113.517C212.516 111.78 216.33 107.795 220.166 110.211C222.264 111.483 224.553 112.415 226.926 112.987C227.265 112.987 227.265 112.458 227.265 112.119C227.096 110.911 226.608 109.787 225.888 108.813C224.849 107.244 222.582 105.697 225.718 103.26C228.834 100.823 227.795 102.921 228.494 102.73C230.804 102.54 233.114 103.091 235.085 104.299C236.463 105.379 238.2 105.93 239.938 105.867C240.235 106.248 240.934 106.757 240.934 106.418Z" fill="#E1E2E8"/>
<path d="M239.197 85.7768C238.328 83.3397 235.891 82.1317 233.983 81.0933C232.373 80.4787 230.932 79.4615 229.83 78.1476L228.452 76.9396L227.414 76.2403C227.244 76.0708 227.244 76.4098 227.244 76.5794C227.922 78.7622 228.982 80.8178 230.359 82.6615L230.698 83.3609C230.698 83.5304 230.868 83.5304 231.038 83.3609C231.207 83.1913 231.377 83.0218 231.207 82.6615C231.038 82.3013 231.038 82.492 231.038 82.3225L229.999 79.3767C230.571 80.1397 231.271 80.7966 232.076 81.284C234.64 82.4284 236.95 84.0814 238.836 86.1371C239.197 86.6457 239.197 85.9463 239.197 85.7768Z" fill="#7497A4"/>
<path d="M287.599 122.376C285.692 121.676 283.446 122.037 281.517 121.168C279.589 120.023 277.851 118.625 276.304 117.014C276.134 116.845 276.134 117.184 276.134 117.353C277.427 119.006 278.932 120.468 280.648 121.698C282.725 122.906 285.162 122.736 287.409 123.435C289.676 124.113 287.96 122.545 287.599 122.376Z" fill="#7497A4"/>
<path d="M187.148 19.1486L186.449 17.5803C186.279 17.2413 186.279 16.7115 186.11 16.3724C186.025 15.9909 185.771 15.673 185.411 15.5035H184.711C184.372 15.5035 184.181 15.5035 184.012 15.1644L182.444 14.4651H182.274C182.274 14.6346 182.105 14.8042 182.274 14.8042C182.677 16.2028 183.609 17.3896 184.881 18.1101L186.449 20.0174C186.788 20.3565 186.979 20.5472 187.318 20.187C187.657 19.8479 187.318 19.3181 187.148 19.1486Z" fill="#7497A4"/>
<path d="M191.832 22.4333C190.899 21.6916 190.073 20.8227 189.395 19.8266C188.865 19.1273 188.695 18.2584 188.017 17.7498C187.318 17.22 187.678 17.7498 187.678 18.0889C187.339 18.7882 188.017 19.9962 188.378 20.526C189.31 21.628 190.433 22.5604 191.684 23.3022C192.001 23.6624 192.001 22.624 191.832 22.4333Z" fill="#7497A4"/>
<path d="M190.094 23.832L188.716 22.4545L189.755 24.1922C190.094 24.5313 190.094 24.0015 190.094 23.832Z" fill="#7497A4"/>
<path d="M189.395 37.5433C189.225 37.3738 189.225 37.7129 189.225 37.8824C189.225 38.0519 189.225 38.4122 189.564 38.5818C189.564 38.6877 189.649 38.7513 189.734 38.7513C190.073 39.7897 190.942 40.9977 191.302 40.4891C191.662 39.9592 189.924 37.8824 189.395 37.5433Z" fill="#7497A4"/>
<path d="M192.001 39.2811C191.662 38.942 191.472 39.9804 191.832 40.3195H192.001L192.87 41.697C193.04 41.8665 193.209 41.8665 193.209 41.5274C193.209 41.1884 192.701 39.9592 192.001 39.2811Z" fill="#7497A4"/>
<path d="M195.986 42.2267C195.286 41.6969 194.608 41.6969 194.248 40.6584C193.909 39.62 193.909 40.828 193.909 40.9975C193.909 41.167 194.947 43.0743 195.816 43.0743C196.091 42.9684 196.219 42.6717 196.113 42.3962C196.091 42.3326 196.049 42.269 195.986 42.2267Z" fill="#7497A4"/>
<path d="M241.973 81.7713C240.871 79.0163 238.582 76.8971 235.721 76.0494C235.551 76.0494 235.551 76.5792 235.721 76.7488C236.06 77.766 236.463 78.7409 236.929 79.6945C237.395 80.9236 237.692 82.1952 237.798 83.5091C237.967 83.8482 238.137 83.6786 238.328 83.5091C238.476 82.5131 238.37 81.4958 237.988 80.5634L238.328 81.0932C238.328 81.0932 238.497 81.4323 238.497 81.2627H238.836L239.366 81.9621C239.536 82.1316 239.705 81.7925 239.705 81.4323C239.641 80.6693 239.345 79.9276 238.836 79.3554C239.853 80.3938 240.722 81.5594 241.443 82.8309C241.803 83.17 242.142 82.1316 241.973 81.7713Z" fill="#7497A4"/>
<path d="M352.49 121.168C349.544 120.468 347.277 117.692 344.5 116.484C341.724 115.276 338.609 114.916 335.833 113.538H335.663C334.625 114.577 335.133 116.315 335.494 117.522C335.684 118.37 335.96 119.175 336.363 119.96L336.892 120.659C337.592 123.266 330.302 120.659 329.602 120.489L328.034 119.96L323.88 118.222C323.711 118.052 323.711 118.222 323.541 118.222L322.503 117.883C321.676 117.544 320.786 117.374 319.896 117.353L317.29 116.823C316.95 116.823 316.95 117.692 317.12 117.862L318.158 119.599C318.18 120.129 318.307 120.659 318.498 121.168C318.667 121.697 318.667 122.036 318.837 122.545C319.006 123.075 318.667 123.075 318.498 123.414C318.328 123.753 313.284 121.168 311.568 118.9C309.83 116.654 309.131 116.124 307.054 115.954C304.977 115.785 306.715 116.654 306.884 116.993L311.398 123.923C311.737 124.622 312.776 125.66 313.305 126.699L312.606 127.568C306.354 124.791 301.162 117.671 293.703 118.54V118.879L298.386 120.617C298.238 120.892 298.238 121.21 298.386 121.485L299.764 122.015C299.764 122.185 299.594 122.354 299.594 122.545C299.255 122.227 298.831 122.058 298.386 122.015C297.856 122.015 297.856 122.884 298.047 123.223L298.577 123.923C298.238 123.753 298.047 124.622 298.238 124.961C299.043 126.508 300.166 127.864 301.544 128.945C302.582 129.983 303.79 131.891 305.358 132.06L306.058 132.929C306.397 133.035 306.588 132.866 306.588 132.399C306.927 132.569 307.117 132.23 307.117 131.87C307.456 132.039 307.647 131.87 307.647 131.53C307.965 131.679 308.198 131.912 308.346 132.23C308.516 132.399 308.686 132.23 308.876 132.06L309.215 132.399C309.745 132.738 309.915 132.23 309.745 131.7C309.576 131.17 310.275 131.7 310.275 131.361L311.144 132.06L310.275 132.76C309.936 133.099 310.105 134.328 310.614 133.968C312.225 132.908 313.75 131.679 315.128 130.323C315.298 130.662 315.658 130.323 315.658 129.983H316.357L316.696 130.513C317.035 131.213 317.565 129.983 317.226 129.475C316.887 128.945 317.226 128.945 317.056 128.776L317.925 127.907H318.095C318.625 127.737 318.794 127.207 319.133 126.868H319.303C319.303 127.207 319.642 128.076 320.002 127.398C320.341 126.699 320.172 126.868 320.341 126.529C320.511 126.19 320.871 126.699 320.871 126.19V125.491C320.85 125.681 320.913 125.872 321.041 126.021C321.041 126.72 321.74 126.55 321.74 125.851V126.021C321.909 126.55 322.439 126.36 322.439 125.851C322.418 125.66 322.482 125.47 322.609 125.321C322.778 125.851 323.139 126.529 323.139 126.36C323.139 126.19 323.668 126.19 323.668 126.021C323.838 126.36 324.198 125.681 324.198 125.321C324.495 125.745 324.728 126.211 324.898 126.699C325.067 127.228 325.597 126.529 325.427 126.169V125.681L325.957 126.211C326.296 126.741 326.487 125.872 326.487 125.512H326.826C326.996 125.851 327.356 126.042 327.525 126.211C327.695 126.381 328.055 125.872 328.055 125.681V124.982C328.394 125.321 328.755 124.643 328.585 124.113L329.115 124.452L330.492 124.791C330.831 124.791 330.831 124.452 330.831 124.092H331.361L333.268 125.13C333.608 125.47 333.608 124.961 333.608 124.601C334.434 125.13 335.409 125.427 336.384 125.47C337.592 125.639 338.821 125.47 339.16 123.901C339.329 124.071 339.499 123.732 339.499 123.372L340.029 124.071C340.368 124.41 340.559 123.732 340.368 123.372V123.202L341.745 124.77H341.915L342.254 124.24C342.424 124.41 342.424 124.41 342.593 124.24V123.901H342.932C343.102 124.071 343.271 123.901 343.462 123.732L343.801 124.262H343.971C344.14 124.431 344.31 124.262 344.31 124.092C344.416 124.092 344.479 124.177 344.479 124.262C344.649 124.431 344.818 124.262 344.818 123.923L345.157 124.452C345.157 124.558 345.242 124.622 345.327 124.622H345.496C345.835 124.961 346.026 124.622 346.026 124.283H346.196C346.365 124.622 346.535 123.944 346.365 123.583C346.704 123.753 346.895 123.244 346.704 123.054H346.874C347.043 123.223 347.043 123.393 347.213 123.393C347.382 123.393 347.382 123.562 347.552 123.393C347.722 123.923 348.082 123.562 348.082 123.223C348.251 123.562 348.612 123.223 348.612 122.884V122.354H349.141C349.311 122.693 349.481 122.524 349.671 122.354L350.371 123.054C350.54 123.223 350.71 122.884 350.71 122.524C350.71 122.164 351.239 122.185 351.049 121.824L352.087 122.164C352.85 122.736 353.02 121.337 352.49 121.168ZM334.964 123.774L334.265 123.244C335.155 123.435 336.066 123.308 336.871 122.905C336.702 123.414 336.002 123.774 334.964 123.774Z" fill="#7497A4"/>
<path d="M207.959 99.6575C207.62 98.4495 206.921 97.9197 205.713 98.4495C204.505 98.9793 205.543 99.3184 204.335 100.187C203.127 101.056 204.166 99.3184 204.335 98.1104C204.823 96.5422 204.886 94.868 204.505 93.2574C204.505 92.9183 204.335 92.5581 203.975 92.7276C203.615 92.8971 201.728 96.0336 201.199 98.1104C200.203 102.391 197.829 106.248 194.438 109.046C191.62 111.504 188.399 113.432 184.902 114.767C182.528 115.848 180.706 117.84 179.879 120.32C179.71 120.489 179.879 121.189 180.049 120.85C180.218 120.511 182.126 117.544 183.694 116.696C184.944 115.997 186.301 115.467 187.678 115.128H187.487C187.318 115.467 187.487 116.696 188.017 116.505C189.14 115.764 190.369 115.17 191.662 114.767C194.608 114.767 192.87 115.297 193.739 116.844C194.862 118.773 195.795 120.807 196.515 122.926C196.685 123.096 197.045 123.456 197.215 123.096L200.16 119.112C199.503 122.672 199.44 126.296 199.991 129.878C199.991 130.577 200.69 130.916 200.86 130.047L202.936 116.866C203.106 115.827 203.466 114.619 203.636 113.39C204.102 112.564 204.526 111.695 204.844 110.783C205.713 108.537 206.221 106.1 207.09 103.854C207.959 101.565 208.489 100.865 207.959 99.6575ZM200.499 126.19C200.224 123.859 200.415 121.507 201.029 119.26C201.029 119.599 201.199 119.96 201.368 119.79C201.538 119.599 200.86 124.113 200.499 126.19ZM197.723 119.96C197.024 120.998 196.515 120.828 196.346 119.43C195.943 118.836 195.583 118.201 195.307 117.522C194.777 116.484 194.777 114.217 194.099 113.538C193.803 113.072 193.273 112.818 192.722 112.839C193.697 112.415 194.629 111.907 195.498 111.271L197.935 109.024C198.062 109.173 198.274 109.173 198.422 109.046C198.444 109.046 198.444 109.024 198.444 109.024L199.313 108.495H199.652C199.821 108.664 199.991 108.834 200.181 108.664H200.521C200.69 108.664 200.69 108.834 200.86 108.664C201.029 108.495 201.559 108.834 201.728 108.325C201.728 108.156 201.898 108.156 201.898 107.986V108.325C201.517 109.809 201.22 111.313 201.029 112.839C201.029 113.178 201.368 113.877 201.559 113.708V114.577C200.902 116.124 199.97 117.544 198.783 118.73C198.571 119.239 198.211 119.684 197.723 119.96Z" fill="#7497A4"/>
<path d="M207.79 93.406C207.641 92.4948 207.578 91.5623 207.62 90.6299C207.62 90.2908 207.79 89.9305 207.62 89.5914C207.45 89.2524 206.582 89.4219 206.412 89.9305C206.2 91.1385 206.094 92.3464 206.073 93.5756C206.094 93.7663 206.031 93.957 205.903 94.1054C205.522 94.9107 205.416 95.8219 205.564 96.712C205.734 97.4114 206.264 97.5809 206.772 97.2418C207.111 97.4114 207.472 97.0723 207.811 96.5425C208.044 95.5041 208.044 94.4233 207.79 93.406Z" fill="#7497A4"/>
<path d="M370.546 152.914C368.469 150.307 365.862 148.929 364.124 145.793C362.069 142.402 359.483 139.372 356.495 136.765C352.85 133.65 348.696 132.251 344.691 129.644H344.522C344.352 129.475 344.352 129.814 344.352 129.984V130.323C346.111 132.696 347.637 135.26 348.866 137.952C349.036 138.482 349.036 138.99 349.205 139.52C349.375 140.05 350.413 141.597 350.943 142.996C351.473 144.373 350.413 150.985 350.243 154.63C350.01 156.665 350.138 158.72 350.583 160.712C351.112 162.789 353.02 166.964 355.266 166.794C357.512 166.625 359.081 164.018 360.479 163.149C362.387 162.217 364.23 161.178 366.032 160.034C367.6 158.996 371.754 157.957 371.584 155.181C371.542 154.312 371.16 153.507 370.546 152.914Z" fill="#6A8A94"/>
<path d="M175.874 36.6742C168.754 41.5273 164.939 27.6464 160.425 24.0013C160.086 23.6622 159.217 23.302 158.857 22.7934C158.497 22.2847 159.026 18.1099 160.065 16.7112C161.103 15.3337 161.972 14.9734 162.502 13.7655C162.777 13.2145 163.011 12.6211 163.201 12.0277C163.731 9.25154 163.54 6.30582 165.109 3.69918C166.677 1.09254 165.278 2.8303 164.939 2.99984C155.954 7.19589 147.35 12.1761 139.254 17.9191C132.324 22.7722 124.335 27.2861 119.482 34.9153H119.312C114.565 40.1921 109.267 44.9604 103.524 49.1353C102.465 50.428 100.875 51.1909 99.1797 51.2121C98.1837 51.6359 97.1241 51.869 96.0645 51.9114C95.5982 51.8267 95.2803 51.3816 95.3651 50.8942C95.3651 50.873 95.3651 50.873 95.3651 50.8518V49.8134C95.3651 49.6439 95.1956 49.1141 94.8353 49.2836C92.2499 50.5127 89.5797 51.5512 86.8459 52.3988L87.1849 51.6995L90.9995 47.8849L94.8141 45.2783L97.4208 43.371H97.7598L98.0989 42.8412C98.0989 42.6716 97.9294 42.6716 97.9294 42.5021H95.8525L95.1532 42.8412L94.6234 43.1802L93.585 44.0491C90.4697 45.9776 87.6512 48.3935 85.2564 51.1697C75.72 57.4214 67.3914 65.5804 59.2324 73.9089C54.7185 78.2533 50.3741 82.5765 45.6906 86.5819C41.0071 90.566 40.4773 90.566 38.0614 92.8336C36.7263 93.6389 35.8786 95.0799 35.815 96.6482C35.6455 96.8177 35.815 97.517 36.1541 97.517C49.5052 94.5713 64.255 90.5872 74.8511 80.5209L73.1133 84.6746C73.1133 84.8441 73.1133 85.3739 73.4524 85.5434C74.5968 85.9249 75.8683 85.6706 76.7584 84.8441C77.8392 83.954 78.814 82.958 79.7041 81.8984C81.2723 80.1606 84.5571 79.1222 82.8193 82.9368L81.2511 85.713C80.0432 87.7898 83.1584 87.6203 84.7266 86.2428L85.2564 85.9037L86.6339 85.5646C91.8472 83.3183 97.2088 82.7885 104.16 82.4494C111.111 82.1103 114.926 83.1487 120.287 82.4494C125.67 81.75 128.616 79.6732 132.261 76.1977C135.906 72.7222 141.797 71.8533 145.273 67.6996C148.748 63.5459 150.995 59.3711 155.17 56.0651C162.46 50.3432 171.297 46.5286 176.171 37.6703C176.383 37.3524 176.213 36.314 175.874 36.6742Z" fill="#CBD0E8"/>
<path d="M149.85 79.6945C144.828 84.9077 140.992 91.6681 134.761 94.9528C131.985 96.5211 129.039 97.3899 126.263 98.937C126.094 98.937 126.094 98.937 126.094 99.1065C124.865 99.4456 123.699 99.9754 122.618 100.675C120.711 101.883 119.503 103.62 117.596 104.659C115.688 105.697 117.257 105.528 117.596 105.697C121.58 105.867 125.543 105.146 129.23 103.62C132.006 102.582 136.351 101.014 138.428 98.4072C140.504 95.8005 142.942 91.2866 145.548 88.1713C148.155 85.0561 149.702 83.6574 150.401 80.3726C150.359 80.0335 150.189 79.3554 149.85 79.6945Z" fill="#CBD0E8"/>
<path d="M212.303 53.3316C207.45 50.5554 200.33 50.0256 194.778 49.3474H194.608L192.531 48.4786C190.963 47.7792 189.056 46.4017 187.509 46.5713C185.94 46.7408 183.355 49.6865 181.956 51.9541C179.498 56.1713 176.531 60.0919 173.098 63.5886C170.152 66.8946 166.338 68.9714 163.201 72.0867C157.31 77.8086 154.873 86.6669 149.659 93.0882C144.446 99.5094 139.424 101.247 136.308 106.969H136.139C134.931 108.007 134.062 109.915 135.8 110.953C137.537 111.992 138.745 110.254 139.784 109.745C142.518 108.219 145.527 107.287 148.642 106.969C147.519 108.495 146.311 109.936 144.997 111.313C143.535 112.373 142.136 113.539 140.843 114.789C139.975 115.997 139.805 116.696 140.504 117.904H140.843C145.696 114.598 151.418 113.39 156.632 110.614C161.23 107.923 166.105 105.761 171.212 104.193L177.103 102.286H177.273C177.972 102.116 182.126 101.247 184.033 101.946C184.309 103.091 184.309 104.278 184.033 105.422C183.864 106.121 183.164 106.799 182.995 107.668C182.571 108.474 182.571 109.449 182.995 110.275H183.334C185.411 109.936 186.64 107.16 187.848 105.592C189.691 103.324 191.005 100.654 191.662 97.7928C192.362 93.2789 192.192 88.9345 193.231 84.4417L193.76 81.6656C196.325 76.8337 199.397 72.2986 202.958 68.1237C204.992 65.7926 207.387 63.8005 210.078 62.2323C211.604 61.533 212.876 60.3674 213.723 58.9263C214.91 57.1886 214.486 54.815 212.749 53.6283C212.579 53.4799 212.452 53.3952 212.303 53.3316Z" fill="#CBD0E8"/>
<path d="M205.713 188.834C205.882 191.271 206.243 193.687 206.582 195.955C206.921 198.201 206.751 197.163 206.751 197.693C206.9 198.901 206.963 200.109 206.921 201.338C207.896 201.444 208.807 201.868 209.527 202.546H210.227L211.435 201.846L213.681 200.638C220.102 198.032 226.693 199.769 233.453 200.469H235.022C236.759 199.854 238.561 199.515 240.404 199.43C239.069 197.714 237.48 196.188 235.721 194.916C233.792 192.988 232.055 190.911 230.508 188.665C229.279 187.33 227.88 186.164 226.354 185.189H225.655C223.917 185.889 223.048 184.49 222.709 181.375C222.455 180.463 222.285 179.531 222.179 178.598C221.586 176.522 220.59 174.572 219.233 172.877C216.796 169.401 214.719 167.854 213.851 163.34C213.681 162.026 213.342 160.733 212.812 159.525C211.965 158.572 211.053 157.703 210.036 156.919C208.192 155.202 206.836 153.062 206.052 150.667C205.882 150.137 205.353 150.667 205.353 151.006C205.543 156.092 205.013 161.157 203.784 166.095C203.17 168.638 203.339 171.308 204.314 173.724C205.713 178.429 205.183 183.621 205.713 188.834Z" fill="#5B8282"/>
<path d="M33.2504 167.833L35.3273 168.172C38.8028 169.211 42.0876 170.609 45.224 171.648L55.4598 172.686C58.1724 172.622 60.9062 172.75 63.6188 173.025C66.5858 173.618 69.6162 173.979 72.6467 174.064C75.2534 174.064 77.4997 172.856 79.9368 172.495C81.2719 172.305 82.6282 172.347 83.921 172.665C85.6587 169.189 86.8667 165.036 88.2654 161.73C89.6429 158.424 90.872 156.877 90.3422 154.44C89.8124 152.002 87.9051 150.964 87.3965 148.718C86.8667 146.471 87.3965 145.242 86.019 144.034C84.6415 142.826 81.3143 143.886 79.407 144.755C73.6851 147.361 69.0017 151.685 64.1486 156.029C59.2956 160.373 50.2678 167.833 41.6001 165.735C37.9551 164.866 34.8398 163.489 31.0252 163.489L24.604 164.188C26.6596 165.459 28.8001 166.561 31.0252 167.494L33.2504 167.833Z" fill="#5B8282"/>
<path d="M86.5063 179.976V180.845C86.9726 181.502 87.3752 182.201 87.7143 182.922C89.9607 186.397 93.2667 187.075 96.2124 188.474C99.1581 189.852 95.513 183.96 95.0044 182.922C93.8812 180.718 93.0123 178.387 92.3978 175.992C92.2282 175.293 92.2282 174.085 91.5289 174.085C90.8296 174.085 89.6216 175.653 89.2825 176.161C88.5832 177.539 87.6507 178.768 86.5063 179.807V179.976Z" fill="#5B8282"/>
<path d="M265.559 134.688H265.39L265.729 135.027C265.941 135.345 266.11 135.706 266.259 136.066C271.811 145.772 278.932 155.499 289.506 157.936C292.622 158.635 296.097 158.275 299.043 159.674C301.989 161.073 302.518 164.527 304.934 166.265C307.371 168.002 309.787 168.002 312.224 169.21C314.662 170.418 317.247 171.287 319.854 172.326L324.707 173.703L328.691 174.402L330.429 174.742C336.49 175.356 342.572 175.526 348.654 175.271C352.426 174.339 356.05 172.877 359.42 170.927C362.323 169.21 365.12 167.303 367.748 165.205C369.655 163.828 372.601 162.259 374 160.352V158.784C373.83 157.915 373.83 156.877 373.661 155.838C372.877 155.075 371.923 154.482 370.885 154.1C370.715 153.931 370.545 154.27 370.545 154.439C370.206 157.915 365.332 160.331 362.916 161.899C360.649 163.34 358.254 164.612 355.796 165.714C354.672 166.138 353.507 166.434 352.32 166.583C349.714 166.053 347.976 163.806 345.899 161.369C343.822 158.932 342.084 159.123 339.647 157.724C337.21 156.347 335.133 153.571 332.527 152.002C329.793 150.455 326.784 149.396 323.668 148.887C322.969 148.718 323.138 149.925 323.499 150.265C329.051 153.74 333.396 158.932 337.909 163.806C329.92 163.806 325.766 153.401 318.815 150.455L312.733 148.209C310.826 147.128 308.855 146.132 306.842 145.263C302.9 144.14 298.767 143.78 294.699 144.225C294.508 144.288 294.423 144.479 294.487 144.67C294.487 144.691 294.508 144.733 294.529 144.755C294.699 145.454 294.529 145.623 294.868 145.793C294.699 145.793 294.699 145.963 294.868 146.132C295.038 146.302 299.382 147.001 301.798 147.7C304.426 148.802 306.757 150.519 308.558 152.723C310.021 154.079 311.716 155.139 313.581 155.838C314.852 156.326 316.081 156.982 317.226 157.745C318.285 158.318 319.197 159.144 319.832 160.183C320.638 160.691 320.892 161.772 320.383 162.577C320.383 162.598 320.362 162.598 320.362 162.62C320.193 162.45 320.023 162.62 320.023 162.959C316.463 161.878 313.115 160.183 310.126 157.936C306.905 155.224 303.197 153.168 299.191 151.854C294.338 150.476 289.295 150.476 284.611 148.039C279.928 145.602 276.452 142.487 272.298 139.541C268.145 136.596 265.708 133.65 263.271 131.213L264.478 133.459C264.839 133.925 265.199 134.328 265.559 134.688Z" fill="#5B8282"/>
<path d="M13.1181 151.346C15.1102 155.478 18.0135 159.102 21.6162 161.92H21.9553C25.6003 161.751 28.3765 160.882 32.0216 161.391C32.3606 161.56 32.5514 160.691 32.3606 160.522C30.9832 157.407 27.3381 156.538 24.7315 154.8C22.1248 153.062 20.048 151.854 17.9711 150.286C16.5937 148.993 15.0042 147.934 13.2877 147.171C12.6731 146.916 11.9949 146.916 11.3804 147.171L13.1181 151.346Z" fill="#5B8282"/>
<path d="M236.59 187.796C238.688 191.907 241.189 195.807 244.05 199.431C244.897 199.325 245.745 199.515 246.487 199.96C248.034 200.956 249.665 201.825 251.34 202.567C253.48 203.288 255.684 203.733 257.93 203.944C261.745 204.284 267.297 205.682 270.773 203.415L271.472 202.885L272.172 202.546L273.04 201.846C272.701 196.993 268.018 193.179 263.673 191.441C261.66 190.678 259.562 190.148 257.422 189.873C254.476 189.534 251.869 190.042 249.093 189.174C246.317 188.305 241.295 184.49 236.611 185.528L236.272 186.058V187.626L236.59 187.796Z" fill="#5B8282"/>
<path d="M135.8 211.913L139.275 211.383C141.882 211.383 144.298 212.082 146.905 211.913C150.274 211.637 153.559 210.768 156.611 209.306L159.917 207.929C159.683 207.039 159.281 206.212 158.709 205.492C156.632 202.715 153.495 201.677 151.588 198.731C149.681 195.786 149.151 191.441 148.282 187.626C147.837 185.868 146.947 184.236 145.675 182.943C143.259 180.718 141.458 177.92 140.462 174.784C140.462 171.309 140.801 164.887 138.555 163.51C136.308 162.132 132.134 169.761 131.265 171.669C128.658 177.391 126.581 183.473 123.466 188.856C120.351 194.238 116.176 196.654 117.045 201.338C117.914 206.021 122.067 206.721 125.204 207.229C128.319 207.759 130.756 209.836 133.702 211.044L135.8 211.913Z" fill="#5B8282"/>
<path d="M253.247 42.9049H252.717L249.072 42.2055C243.35 40.4678 238.306 36.8227 232.754 34.9154L232.224 34.3856L231.185 34.0465H230.656L230.317 33.5167H227.879C225.612 33.6227 223.387 34.0889 221.289 34.8942C218.385 35.8902 215.334 36.2929 212.261 36.1022C212.091 36.1022 212.091 36.4412 212.091 36.4412C212.091 36.4412 212.261 36.6108 212.261 36.7803C214.952 39.0479 218.301 40.4466 221.797 40.7645C227.223 41.2519 232.605 42.0572 237.925 43.2016C242.947 44.3671 248.182 44.3036 253.183 43.032L253.247 42.9049Z" fill="#CBD0E8"/>
<path d="M291.774 79.6947C288.468 77.4483 285.353 73.443 281.877 71.7052C274.418 68.2297 266.259 65.8138 258.63 63.0376C258.1 62.8681 258.1 63.737 258.291 64.076C260.367 67.8906 264.881 70.6668 268.187 73.2735C271.811 76.3887 275.838 79.0166 280.161 81.0722C286.964 84.1027 294.148 86.2007 301.501 87.3239C297.729 85.5226 294.402 82.9159 291.774 79.6947Z" fill="#CBD0E8"/>
<path d="M311.716 94.9742C311.016 93.9358 309.279 94.1054 308.41 93.7663C307.541 93.4272 304.765 92.0285 302.858 91.3292C300.95 90.6298 295.059 89.761 291.223 88.3835C287.408 87.006 284.463 87.3451 281.326 86.3066C280.351 86.0099 279.419 85.6073 278.55 85.0987C277.596 84.0179 276.177 83.4457 274.735 83.5305C274.566 83.5305 274.566 83.8695 274.566 84.0603C274.566 87.006 277.173 88.4047 279.249 89.9517C282.767 92.4736 286.412 94.7835 290.185 96.8815C293.66 98.9584 296.945 100.696 300.95 100.696C304.956 100.696 309.618 99.9968 311.525 97.3902C312.118 96.712 312.182 95.7372 311.716 94.9742Z" fill="#CBD0E8"/>
<path d="M302.879 109.024C300.971 107.647 299.573 105.379 297.666 104.002C295.758 102.624 292.812 102.624 290.736 100.696C290.736 100.505 290.587 100.357 290.397 100.357C290.227 100.526 290.227 100.526 290.227 100.887C290.566 104.532 293.003 105.231 295.61 106.778C298.216 108.346 299.424 110.932 301.692 112.33C303.938 113.708 304.468 113.369 305.168 112.33C305.825 111.271 303.917 109.703 302.879 109.024Z" fill="#CBD0E8"/>
</svg>
