<svg width="506" height="4291" viewBox="0 0 506 4291" fill="none" xmlns="http://www.w3.org/2000/svg">
<path d="M479.134 4188.93C485.38 4151.37 492.304 4139.85 505.427 4121.44V3374.29H1.04523V4286.65C9.00854 4290.84 3.02463 4287.23 23.8322 4290.59C44.6398 4293.96 89.7043 4274.18 90.8785 4248.52C99.2711 4211.12 105.597 4192.85 132.509 4186.3C150.867 4183.51 184.723 4195.84 193.42 4220.48C225.409 4268.24 259.856 4273.98 312.175 4275.26C349.861 4279.2 416.47 4305.05 452.841 4253.34C464.864 4238.9 470.231 4222.41 479.134 4188.93Z" fill="#62B34C"/>
<path d="M479.134 4188.93C485.38 4151.37 492.304 4139.85 505.427 4121.44V3374.29H1.04523V4286.65C9.00854 4290.84 3.02463 4287.23 23.8322 4290.59C44.6398 4293.96 89.7043 4274.18 90.8785 4248.52C99.2711 4211.12 105.597 4192.85 132.509 4186.3C150.867 4183.51 184.723 4195.84 193.42 4220.48C225.409 4268.24 259.856 4273.98 312.175 4275.26C349.861 4279.2 416.47 4305.05 452.841 4253.34C464.864 4238.9 470.231 4222.41 479.134 4188.93Z" fill="black" fill-opacity="0.1"/>
<path d="M479.134 4152.63C485.38 4115.08 492.304 4103.55 505.427 4085.15V1H1.04523V4250.36C9.00854 4254.55 13.9849 4255.46 23.8322 4254.3C23.3407 4260.67 23.5721 4263.53 27.3379 4263.94C31.9032 4264.05 33.1027 4261.61 34.3493 4255.61C37.6205 4262.17 39.503 4264.79 43.1135 4263.94C46.8372 4262.49 47.3615 4260.34 45.7428 4254.3C49.9297 4258.5 52.201 4260.05 55.8216 4258.24C57.9753 4256.98 58.2644 4255.49 55.8216 4250.36C75.7809 4241.67 84.4636 4233.47 90.8785 4212.23C99.2711 4174.83 105.597 4156.55 132.509 4150.01C132.347 4154.08 132.82 4155.59 134.261 4157.46C137.46 4158.31 138.993 4156.64 141.711 4153.51C142.622 4158.42 143.326 4160.91 146.531 4162.71C150.157 4162.52 150.492 4159.55 150.914 4153.95C151.951 4157.15 152.919 4158.35 155.734 4158.77C157.814 4158.89 158.631 4157.66 159.678 4153.95C173.384 4161.72 180.739 4168.59 193.42 4184.19C233.024 4228.51 259.856 4237.69 312.175 4238.96C311.115 4244.43 311.471 4246.63 315.681 4247.29C319.447 4247.33 321.469 4246.38 324.883 4242.47C324.258 4248.91 325 4251.06 328.389 4252.11C331.666 4253.11 333.528 4252.09 336.715 4247.29C376.086 4260.64 397.849 4260.09 435.751 4235.46C436.763 4238.66 438.22 4238.61 441.448 4237.21C442.998 4236.26 443.42 4234.34 444.077 4230.64C446.87 4234 447.769 4233.8 448.897 4231.95C450.195 4229.41 449.967 4227.72 448.897 4224.5C451.124 4225.32 451.949 4225.28 452.841 4224.5C454.256 4222.47 454.234 4220.82 452.841 4217.05C464.864 4202.6 470.231 4186.12 479.134 4152.63Z" fill="#62B34C" stroke="#93CE66"/>
</svg>
