<svg width="144" height="95" viewBox="0 0 144 95" fill="none" xmlns="http://www.w3.org/2000/svg">
<path d="M124.499 22.5009C111.698 -14.8559 24.4993 7.50085 24.4993 7.50085C5.05157 11.1206 -12.2035 56.3242 11.4993 75.5009C31.4772 91.664 48.8044 94.1254 74.4993 94.5009C101.505 94.8955 125.318 97.4913 140.999 75.5009C148.261 65.3172 136.565 57.7104 124.499 22.5009Z" fill="#9BD552"/>
<path d="M124.499 22.5009C111.698 -14.8559 24.4993 7.50085 24.4993 7.50085C5.05157 11.1206 -12.2035 56.3242 11.4993 75.5009C31.4772 91.664 48.8044 94.1254 74.4993 94.5009C101.505 94.8955 125.318 97.4913 140.999 75.5009C148.261 65.3172 136.565 57.7104 124.499 22.5009Z" fill="black" fill-opacity="0.05"/>
</svg>
