<svg width="129" height="69" viewBox="0 0 129 69" fill="none" xmlns="http://www.w3.org/2000/svg">
<path d="M44.0947 31.1073C38.6911 24.5174 19.7452 38.0841 28.0947 44.1073C36.4441 50.1305 119.419 77.7551 128.095 60.6077C130.072 57.5492 128.508 55.6862 120.595 52.1077C128.595 46.6077 124.949 43.0337 114.095 38.6077C123.095 23.1077 113.579 13.1531 94.0947 16.1075C102.095 1.10767 79.4484 -9.16958 69.0946 12.1076C62.5056 5.01361 52.226 3.46274 44.0947 31.1073Z" fill="#50733A"/>
<path d="M94 16C87.1468 16.6052 85 19 83.5 23.5C80.5189 17.574 72.5 21 69 29.5" stroke="#404040" stroke-width="0.5" stroke-linecap="round"/>
<path d="M114 38.5C110.069 38.1128 109.232 38.6038 107 41.5" stroke="#404040" stroke-width="0.5" stroke-linecap="round"/>
<path d="M94.4386 63.8416C91.963 65.2903 87.8424 66.1211 85.3073 66.1627C72.9737 66.3649 63.6504 62.6722 56.4748 60.3912C54.6009 59.7947 52.7529 59.115 50.8553 58.5862C48.9316 58.0522 46.9929 57.7592 44.9971 57.7045C43.0327 57.651 41.0699 57.7541 39.1061 57.7639C37.131 57.7752 35.154 57.7326 33.1804 57.6321C25.4678 57.2397 17.7212 56.0562 10.2882 53.9443C7.29135 53.0921 3.53248 51.686 0.774516 49.3928C2.78683 47.6563 5.48621 45.6706 7.50357 44.4037C10.8439 42.3061 14.3602 40.4841 17.999 38.9589C21.6559 37.4283 25.4362 36.1881 29.2906 35.2742C32.9214 34.4125 36.7059 33.7602 40.444 34.1798C42.2206 34.379 43.9606 34.8272 45.5614 35.6363C47.2163 36.4767 48.5356 37.7168 49.7007 39.1436C50.8889 40.5973 51.9962 42.1549 53.6304 43.1424C55.2733 44.1359 57.1952 44.5259 59.0834 44.7061C61.026 44.8922 62.9778 44.8666 64.9255 44.9714C66.8184 45.0732 68.7069 45.296 70.5719 45.6418C74.3019 46.3318 77.9591 47.5625 81.2414 49.4842C82.6783 50.3256 84.0516 51.3048 85.2965 52.4223L85.298 52.4226C89.3887 55.2536 93.1749 61.5878 94.435 63.8442L94.4386 63.8416Z" fill="#375722"/>
</svg>
