<svg width="1782" height="1263" viewBox="0 0 1782 1263" fill="none" xmlns="http://www.w3.org/2000/svg">
<g clip-path="url(#clip0_1658_165143)">
<path d="M1631.35 827.92C1630.54 826.94 1629.61 826.09 1628.61 825.33C1628.13 819.74 1627.32 814.18 1625.62 808.8C1622.96 800.39 1617.77 793.51 1611.43 787.36C1600.45 776.72 1585.56 765.39 1569.05 769.34C1562.96 770.8 1557.25 774.32 1554.07 779.58C1553.25 770.91 1551.22 762.33 1548.07 754.19C1544.59 745.2 1539.78 736.4 1533.39 729.04C1527.41 722.15 1519.75 716.63 1510.54 714.81C1500.7 712.86 1490.3 715 1481.34 719.12C1471.33 723.73 1462.77 730.63 1454.43 737.62C1455.17 726.25 1453.26 714.78 1448.83 704.23C1446.49 698.66 1443.47 693.34 1439.82 688.47C1437.2 684.97 1434.19 681.54 1430.55 678.99C1430.38 665.72 1426.49 652.5 1416.77 642.83C1410.78 636.86 1402.84 632.52 1394.33 631.22C1385.7 629.9 1377.19 632.17 1369.94 636.78C1363.1 641.13 1357.55 647.07 1352.41 653.24C1357.74 636.36 1355.76 617.4 1346.37 602.18C1341.64 594.51 1335.01 587.84 1326.92 583.51C1318.07 578.77 1307.85 577.52 1297.93 578.95C1287.49 580.45 1277.6 584.52 1268.37 589.39C1259.77 593.93 1251.54 599.17 1243.71 604.87C1228.32 616.08 1214.45 629.28 1202.57 643.99C1190.69 658.69 1180.72 674.93 1173.22 692.16C1172.9 692.89 1172.61 693.64 1172.3 694.38C1171.13 690.25 1167.4 686.82 1163.19 685.51C1155.74 683.18 1147.65 686.19 1140.81 689.03C1127.66 694.48 1115.69 702.49 1105.66 712.4C1104.49 713.55 1103.37 714.75 1102.26 715.95C1100.59 715.96 1098.92 716.11 1097.27 716.4C1087.26 718.12 1079.19 724.57 1073.05 732.18C1065.75 741.23 1060.24 751.84 1055.28 762.24C1052.54 767.99 1050.03 773.85 1047.78 779.8C1045.97 784.6 1044.35 789.57 1044.04 794.71C1043.43 804.64 1049.01 811.76 1058.65 814.61C1063.99 816.19 1069.66 816.77 1075.17 817.5C1081.92 818.38 1088.68 819.12 1095.45 819.77C1122.99 822.41 1150.64 824.12 1178.23 826.17C1205.96 828.24 1233.69 830.3 1261.41 832.37C1288.91 834.42 1316.41 836.62 1343.96 837.86C1357.53 838.47 1371.12 838.83 1384.71 838.81C1398.43 838.79 1412.16 838.22 1425.88 838.42C1439.75 838.63 1453.41 840.01 1467.01 842.6C1480.1 845.1 1493.04 848.3 1506.18 850.53C1531.65 854.87 1557.77 855.62 1583.47 852.83C1596.28 851.44 1608.98 849.16 1621.45 846.02C1625.87 844.91 1631.29 843.74 1633.36 839.24C1635.07 835.53 1633.82 830.97 1631.29 827.91L1631.35 827.92Z" fill="#23382A"/>
<path d="M1311.29 698.15C1300.08 688.47 1284.8 683.07 1269.51 682.16C1248.46 680.92 1227.94 686.83 1208.7 694.11C1213.85 686.25 1213.87 676.47 1210.44 667.9C1206.22 657.38 1197.28 649.62 1186.18 645.1C1173.86 640.09 1160 639.04 1146.66 639.55C1132.06 640.12 1117.53 642.45 1103.55 646.33C1088.27 650.57 1073.67 656.74 1060.2 664.56C1059.84 652.2 1051.25 641.44 1039.91 635.06C1032.69 631 1024.7 629.03 1016.55 628.65C1019.99 622.09 1022.7 615.2 1024.47 607.96C1027.46 595.7 1028.01 582.04 1023.61 569.99C1019.71 559.3 1010.86 551.72 998.99 548.75C987.79 545.95 975.61 547.31 965.1 551.63C952.69 556.74 942.43 565.22 933.17 574.16C932.03 575.26 930.92 576.4 929.8 577.52C935.57 564.09 940.05 549.95 939.65 535.43C939.27 521.38 934.12 507.11 922.94 497.13C911.94 487.31 896.65 482.55 881.73 480.4C865.57 478.06 848.99 478.38 832.87 480.82C800.25 485.75 769.58 499.02 742.59 516.17C717.02 532.42 693.95 552.42 675.76 575.55C674.91 576.63 674.1 577.74 673.27 578.84C671.45 580.43 669.65 582.03 667.87 583.66C669.82 575.65 664.9 567.05 657.63 562.35C646.89 555.41 632.38 556.5 620.15 558.61C595.59 562.84 572.27 572.7 552.68 586.84C547.53 590.56 542.66 594.58 538.08 598.86C506.28 601.22 481.91 626.28 466.68 650.24C445.38 683.74 432.47 721.97 429.11 760.57C427.73 776.45 428.09 793.33 435.37 808.1C442.52 822.61 456.2 832.21 472.45 837.27C489.72 842.64 508.19 843.54 526.24 844.82C550.12 846.51 574.01 848.19 597.9 849.85C692.82 856.46 787.78 862.92 882.84 867.55C974.06 872 1066.74 873.58 1156.45 855.39C1198.72 846.82 1241.12 834.28 1279.76 816.26C1288.45 812.21 1296.9 807.63 1304.47 801.97C1310.74 797.28 1319.09 790.93 1321.09 783.41C1323.27 775.2 1316.88 770.52 1308.7 767.91C1317.62 758.9 1324.24 747.89 1326.08 735.76C1328.24 721.58 1322.63 707.93 1311.3 698.14L1311.29 698.15Z" fill="#23382A"/>
<path d="M367.39 601.01C376.12 594.85 385.92 592.26 395.67 592.58C399.03 592.69 402.31 593.14 405.51 593.79C429.68 570.76 459.52 579.2 470.27 602.08C527.53 546.84 587.02 565.98 608.3 609.75C612.54 606.91 617.02 604.52 621.58 602.67C638.66 595.74 656.5 596.48 671.38 603.19C686.92 610.19 698.62 622.79 705.63 638.21C712.99 654.39 715.34 673.19 714.39 692.01C713.49 709.8 709.19 729.94 695.8 744.77C694.99 745.67 694.15 746.53 693.29 747.36C703.37 747.11 711.04 754.17 714.45 762.92C719.05 774.73 715.12 788.39 708.47 800.49C708.12 801.12 707.74 801.73 707.38 802.36C700.59 809.43 693.29 815.94 685.47 821.57C677.17 827.55 668.32 831.67 659.25 834.34C608.09 839.91 431.26 844.78 391.55 820.86C342.06 791.05 382.56 775.9 342.17 736.25C333.06 727.3 369.99 662.48 362.1 652.39C355.87 644.43 348.82 635.07 351.32 623.29C353.21 614.4 359.76 606.4 367.4 601.01H367.39Z" fill="#23382A"/>
<path d="M483.97 467.69C483.39 451.88 482.85 436.07 482.41 420.24C482.18 412.19 481.98 404.13 481.8 396.08C481.76 394.15 481.7 392.21 481.65 390.26C478.69 390.42 475.73 390.88 472.78 391.62C470.31 439.04 469.58 486.73 469.09 534.31C468.53 589.14 468.35 644.01 466.54 698.78C465.53 729.47 463.88 760.04 461.66 790.54C461.59 791.46 462.14 791.88 462.52 791.61C462.58 791.98 462.64 792.35 462.72 792.72C463.83 797.96 466.86 801.74 469.64 804.21C472.62 806.86 475.94 808.24 479.25 808.95C483.2 809.79 487.2 809.7 491.18 809.53C491.45 809.52 491.75 809.03 491.77 808.56C493.4 751.86 492.52 695.06 490.69 638.41C488.85 581.46 486.07 524.61 483.97 467.69Z" fill="#151C21"/>
<path d="M606.75 348.58C602.59 345.17 597.51 343.24 592.3 342.76C593.75 338.29 594.8 333.69 595.34 329.02C596.99 314.81 594.39 300.11 587.24 287.66C580.33 275.63 569.2 266.26 556.57 260.69C544.07 255.18 529.81 253.29 516.4 256.2C523.15 245.54 526.24 232.47 524.72 219.97C523.5 209.91 519.17 198.21 510.06 192.77C505.38 189.97 499.72 189.74 494.82 192.14C490.22 194.39 486.64 198.29 483.92 202.59C483.86 199.64 483.76 196.69 483.57 193.74C482.4 176.12 478.78 158.63 472.78 142.02C470.16 134.77 466.87 126.91 460.3 122.37C454.39 118.28 446.37 117.21 440.5 121.98C434.88 126.54 432.65 134.06 430.9 140.79C428.9 148.52 427.76 156.46 427.47 164.44C427.01 177.02 428.64 189.64 432.21 201.71C427.93 201.65 423.64 202.39 419.66 204C413.08 206.65 407.78 211.55 404.21 217.64C397.05 229.85 397.15 245.23 400.77 258.53C400.82 258.71 400.89 258.88 400.94 259.06C396.23 258.68 391.46 259.13 386.94 260.45C374.46 264.09 364.32 274.13 359.45 286.04C354.17 298.93 355.13 314.16 362.19 326.2C364 329.28 366.23 332.07 368.77 334.54C356.76 339.1 348.81 351.08 343.87 362.41C338.11 375.63 333.72 392.39 341.82 405.61C348.36 416.29 361.2 421.73 373.39 424C370.96 427.47 368.75 431.1 366.81 434.84C358.55 450.72 354.76 469.4 358.53 487.08C361.89 502.83 370.92 517.68 384.46 526.68C397.63 535.43 414.59 537.78 429.64 532.84C437.06 530.4 444.08 526.08 449.14 520.07C449.22 519.97 449.3 519.86 449.38 519.76C452.88 527.98 459.76 534.44 467.77 538.24C476.21 542.25 485.72 543.18 494.79 540.96C504.38 538.62 512.97 533.15 519.74 526.04C523.57 522.02 527.23 517.25 529.47 512.13C529.78 511.42 530.05 510.66 530.24 509.9C538.7 515.24 550.151 515.53 559.781 512.91C574.581 508.88 586.81 497.33 594.04 484.08C601.53 470.35 603.85 454.07 599.7 438.94C598.02 432.8 595.33 426.94 591.85 421.58C596.37 416.25 600.49 410.57 604.11 404.56C606.74 400.19 609.1 395.66 611.18 391.01C613.45 385.91 615.63 380.6 616.58 375.07C618.28 365.2 614.57 354.96 606.8 348.58H606.75Z" fill="#23382A"/>
<path d="M403.33 262.7C406.91 253.54 412.6 244.66 421.37 239.72C429.71 235.02 440.5 234.32 448.23 240.62C451.98 243.68 454.68 248.04 455.11 252.91C455.7 252.83 456.28 252.75 456.87 252.67C453.71 244.48 453.35 235.41 455.63 226.95C456.75 222.79 458.5 218.81 460.85 215.19C463.26 211.48 466.33 207.92 470.16 205.64C474.47 203.07 480.39 202.39 484.41 205.92C485.27 206.68 486.54 205.42 485.67 204.66C482.13 201.56 477.05 200.99 472.68 202.5C468.02 204.11 464.29 207.63 461.31 211.47C455.57 218.87 452.47 228.2 452.36 237.54C452.3 242.86 453.22 248.19 455.13 253.16C455.46 254.02 456.98 254.01 456.89 252.92C456.05 243.34 447.78 235.82 438.49 234.47C427.7 232.91 417.24 238.53 410.48 246.66C406.63 251.29 403.8 256.64 401.61 262.23C401.19 263.3 402.92 263.77 403.33 262.71V262.7Z" fill="#151C21"/>
<path d="M450.351 519.01C450.731 502.6 455.091 486.31 463.071 471.96C466.821 465.21 471.331 458.62 477.471 453.82C483.501 449.11 491.591 446.26 499.231 448.09C506.761 449.9 513.011 456.77 512.831 464.72C513.421 464.64 514.001 464.56 514.591 464.48C513.751 459.71 513.911 454.67 514.241 449.87C514.701 443.15 515.861 436.39 518.211 430.06C520.731 423.28 524.971 417.65 530.901 413.46C536.811 409.27 543.871 406.96 551.111 406.81C558.731 406.65 566.321 408.79 572.781 412.82C573.761 413.43 574.661 411.88 573.681 411.28C561.371 403.6 545.221 402.79 532.601 410.24C526.141 414.05 520.871 419.62 517.781 426.46C514.861 432.92 513.421 439.98 512.711 447C512.111 452.89 511.851 459.1 512.871 464.97C513.051 465.99 514.601 465.71 514.631 464.73C514.801 457.53 510.091 450.89 503.721 447.81C496.551 444.33 487.991 445.62 481.161 449.29C473.981 453.15 468.581 459.64 464.281 466.43C459.631 473.78 455.981 481.78 453.361 490.06C450.401 499.42 448.791 509.2 448.561 519.02C448.531 520.17 450.321 520.17 450.351 519.02V519.01Z" fill="#151C21"/>
<path d="M370.221 334.41C377.361 322.99 391.181 316.68 404.481 317.66C418.211 318.67 429.621 328.24 434.451 340.93C437.141 348 437.771 355.8 435.771 363.13C436.341 363.29 436.921 363.45 437.491 363.61C438.691 356.79 441.641 348.81 448.191 345.44C455.081 341.9 463.271 345.78 467.281 351.8C469.631 355.33 470.781 359.63 469.971 363.84C469.781 364.8 471.071 365.45 471.601 364.53C477.751 353.96 489.961 347.67 502.081 347.91C514.761 348.16 525.651 356.22 530.911 367.58C533.821 373.87 534.881 381.04 533.531 387.86C533.311 388.98 535.031 389.47 535.251 388.34C537.791 375.48 532.391 361.7 522.261 353.5C511.981 345.18 497.941 344.13 486.031 349.48C479.421 352.45 473.711 357.36 470.061 363.63C470.601 363.86 471.151 364.09 471.691 364.32C473.271 356.14 468.451 347.58 461.031 344.02C457.491 342.32 453.351 341.77 449.561 342.97C445.851 344.14 442.911 346.81 440.761 349.98C438.111 353.89 436.571 358.52 435.761 363.14C435.561 364.25 437.181 364.75 437.481 363.62C441.211 349.92 436.221 334.6 425.831 325.08C420.621 320.31 414.121 317.17 407.121 316.17C400.171 315.18 392.981 316.14 386.491 318.8C379.211 321.78 372.851 326.82 368.661 333.52C368.051 334.5 369.591 335.4 370.201 334.42L370.221 334.41Z" fill="#151C21"/>
<path d="M1349.27 676.42C1343.52 668.61 1335.3 663.73 1325.95 661.46C1322.72 660.68 1319.44 660.22 1316.14 659.97C1302.67 633 1270.98 632.75 1251.46 650.44C1219.83 585.95 1155.71 587.52 1117.68 621.17C1114.83 617.52 1111.57 614.2 1108.01 611.35C1094.68 600.67 1077.49 596.66 1060.67 598.77C1043.1 600.98 1026.88 609.2 1013.95 621.17C1000.37 633.74 990.47 649.96 983.69 667.07C977.28 683.24 973.12 702.42 979.74 719.21C980.14 720.22 980.58 721.22 981.06 722.19C971.62 719.33 961.48 723.64 954.68 730.59C945.5 739.97 943.64 753.23 945 765.82C945.07 766.48 945.18 767.13 945.27 767.78C948.81 775.89 953.06 783.63 958.16 790.73C963.58 798.26 970.27 804.27 977.76 809.04C1023.9 827.43 1083.76 823.05 1131.1 812.02C1190.12 798.27 1242.74 767.14 1297.15 742.18C1309.43 736.55 1321.71 730.82 1333.3 723.85C1342.45 718.35 1352.95 711.81 1355.39 700.6C1357.24 692.14 1354.3 683.26 1349.27 676.43V676.42Z" fill="#23382A"/>
<path d="M1004.36 776.43C1005.93 776.34 1007.51 776.28 1009.07 776.28C1015.91 776.28 1022.49 777.09 1028.78 778.56C1024.42 733.13 1020.63 687.6 1019.43 641.76C1018.62 610.96 1018.76 580.11 1018.69 549.3C1018.61 518.75 1018.53 488.2 1018.44 457.65C1018.37 431.89 1018.26 406.13 1018.16 380.37C1013.62 378.53 1009.07 376.77 1004.5 375.07C1005.86 424.51 1005.25 474.01 1004.23 523.46C1003.01 582.32 1001.32 641.19 1001.97 700.08C1002.25 725.51 1002.9 751.04 1004.36 776.43Z" fill="#151C21"/>
<path d="M1152.39 463.22C1146.75 457.77 1138.74 456.42 1131.15 457.1C1139.08 442.59 1145.33 427.07 1148.35 410.77C1150.02 401.75 1150.71 392.52 1150.19 383.35C1149.73 375.35 1148.5 367.18 1145.49 359.71C1142.93 353.36 1138.96 347.36 1133.01 343.75C1125.83 339.39 1117.04 339.76 1109.27 342.23C1103.49 344.07 1098.11 347.06 1093.39 350.88C1096.03 342.36 1097.09 333.38 1096.17 324.53C1095.21 315.31 1091.82 306.29 1085.39 299.48C1079.65 293.41 1071.68 289.29 1063.21 289.41C1060.31 289.45 1057.44 290.04 1054.72 291.03C1056.23 286.49 1057.5 281.86 1058.61 277.21C1060.45 269.52 1061.8 261.7 1062.43 253.81C1063.65 238.49 1062.12 222.66 1055.59 208.59C1052.81 202.61 1048.79 195.95 1042.27 193.54C1039.36 192.46 1036.61 192.62 1034.08 193.54C1036.26 176.26 1037.69 158.14 1033.28 141.12C1029.66 127.17 1018.93 106.77 1001.33 110.91C993.49 112.75 987.19 118.86 982.66 125.24C977.54 132.46 973.67 140.56 971.03 149C965.6 166.38 965.35 184.97 969.29 202.68C970.47 207.99 972.03 213.21 973.86 218.33C969.08 217.92 964.26 218.7 959.8 220.9C952.23 224.64 946.17 231.19 941.74 238.28C937.18 245.57 934.17 253.77 932.64 262.22C930.87 271.95 931.05 281.99 932.47 291.75C932.69 293.26 932.94 294.77 933.22 296.27C932.52 296.48 931.83 296.72 931.16 297C926.98 298.78 923.43 301.9 920.91 305.66C915.26 314.09 914.95 324.55 918.61 333.85C919.16 335.24 919.8 336.59 920.49 337.91C911.52 341.94 904.48 349.55 899.33 357.76C888.61 374.84 885.1 396.25 890.18 415.8C894.64 432.95 906.19 447.44 921.43 456.2C912.93 459.48 905.64 465.08 900.64 472.81C895.56 480.67 892.85 489.89 892.08 499.17C891.25 509.13 892.41 519.64 896.18 528.94C900.18 538.79 907.66 546.19 917.42 550.34C925.26 553.68 933.7 554.79 942.14 554.68C944.15 556.91 946.25 559.06 948.51 561.04C955.03 566.74 962.46 571.37 970.26 575.1C987.2 583.21 1006.23 587.75 1024.93 588.98C1043.97 590.23 1063.31 587.74 1080.99 580.4C1096.74 573.86 1111.52 563.53 1121.84 549.81C1126.72 543.32 1131.08 534.22 1126.93 526.28C1126.35 525.16 1125.61 524.18 1124.81 523.27C1130.56 519.14 1135.95 514.51 1140.88 509.42C1147.19 502.91 1153.71 495.45 1156.68 486.74C1159.4 478.75 1158.71 469.32 1152.38 463.2L1152.39 463.22Z" fill="#23382A"/>
<path d="M932.94 359.91C942.14 347.99 958.63 342.57 973.22 345.75C989.78 349.37 1001.02 363.98 1006.41 379.27C1010.17 389.91 1011.63 401.17 1012.67 412.36C1012.76 413.33 1014.12 413.61 1014.43 412.6C1016.61 405.4 1018.88 397.71 1024.05 392.02C1028.63 386.97 1035.66 383.56 1042.48 385.77C1048.7 387.79 1052.91 393.61 1055.79 399.17C1059.37 406.08 1061.79 413.67 1063.25 421.3C1064.93 430.07 1065.21 439.08 1064.14 447.94C1064.01 449.02 1065.56 449.04 1065.9 448.18C1071.35 434.17 1077.18 419.25 1089.13 409.42C1094.59 404.93 1101.3 401.56 1108.4 400.82C1115.03 400.13 1121.56 401.9 1126.8 406.07C1132.31 410.45 1136 417.11 1135.2 424.28C1135.07 425.42 1136.86 425.41 1136.99 424.28C1138.51 410.52 1125.19 399.26 1112.24 398.89C1096.57 398.44 1083.52 409.82 1075.78 422.45C1070.92 430.37 1067.53 439.07 1064.18 447.7C1064.77 447.78 1065.35 447.86 1065.94 447.94C1067.93 431.41 1065.2 414.1 1057.8 399.15C1054.86 393.22 1050.61 387.18 1044.3 384.54C1037.51 381.7 1030.13 384.09 1024.81 388.78C1018.03 394.74 1015.26 403.78 1012.72 412.13C1013.31 412.21 1013.89 412.29 1014.48 412.37C1012.69 393.22 1009.41 373.01 996.34 358.01C990.89 351.76 983.85 346.8 975.81 344.56C968.3 342.47 960.2 342.65 952.72 344.8C944.33 347.21 936.77 352.1 931.42 359.02C930.72 359.93 932.27 360.82 932.96 359.92L932.94 359.91Z" fill="#151C21"/>
<path d="M1052.71 289.9C1051.26 283.68 1049.32 277.58 1046.88 271.68C1044.58 266.12 1041.95 260.53 1038.53 255.56C1035.69 251.43 1031.92 247.16 1026.93 245.73C1021.98 244.31 1017.2 246.61 1013.99 250.38C1009.59 255.56 1008.15 262.46 1006.78 268.94C1007.37 269.02 1007.95 269.1 1008.54 269.18C1007.89 252.39 1000.19 235.47 986.98 224.86C983.47 222.04 979.62 219.74 975.46 218.03C974.4 217.59 973.93 219.32 974.98 219.75C989.79 225.8 1000.21 240.07 1004.5 255.13C1005.81 259.71 1006.56 264.42 1006.74 269.17C1006.78 270.14 1008.28 270.44 1008.5 269.41C1009.66 263.92 1010.8 258.14 1013.95 253.38C1016.56 249.44 1020.9 246.16 1025.86 247.3C1030.66 248.4 1034.31 252.58 1036.98 256.46C1040.13 261.03 1042.59 266.15 1044.77 271.24C1047.41 277.41 1049.46 283.83 1050.99 290.37C1051.25 291.49 1052.98 291.02 1052.71 289.89V289.9Z" fill="#151C21"/>
<path d="M1530.31 825.09C1530.42 795.8 1529.45 766.55 1527.69 737.31C1524.13 678.41 1517.85 619.71 1514.55 560.79C1512.9 531.45 1512.07 502.07 1512.53 472.69C1508.57 469.48 1504.68 466.18 1500.78 462.89C1500.25 471.54 1500.18 480.23 1500.1 488.89C1499.97 503.52 1499.97 518.15 1500.1 532.77C1500.34 561.76 1500.98 590.73 1501.59 619.71C1502.8 677.77 1503.96 735.89 1501.69 793.94C1500.54 823.36 1498.35 852.7 1495.14 881.96C1505.93 887.29 1519.22 887.98 1532.08 886.68C1530.24 866.23 1530.23 845.68 1530.31 825.08V825.09Z" fill="#151C21"/>
<path d="M1638.03 538.44C1645.15 534.52 1653.76 528.89 1653.96 519.81C1654.17 510.24 1643.79 506.98 1636.23 505.01C1626.7 502.51 1616.95 501.27 1607.76 497.54C1599.39 494.14 1591.62 489.41 1584.55 483.81C1584.36 483.66 1584.19 483.5 1584 483.35C1588.46 483.59 1592.93 483.34 1597.29 482.55C1606.85 480.83 1615.87 476.55 1623.16 470.11C1626.95 466.76 1630.25 462.91 1632.89 458.59C1635.59 454.17 1637.91 449.05 1637.64 443.75C1637.38 438.61 1634.11 434.94 1629.78 432.54C1627.52 431.29 1625.1 430.35 1622.74 429.32C1620 428.12 1617.28 426.87 1614.59 425.57C1603.67 420.3 1593.14 414.24 1582.87 407.81C1572.7 401.44 1562.78 394.69 1552.88 387.9C1549.69 385.71 1546.23 383.53 1542.69 381.26C1548.14 381.22 1553.52 380.76 1558.68 379.48C1565.79 377.72 1575.24 373.47 1574.89 365.57C1574.71 361.39 1571.14 358.36 1567.54 355.96C1562.83 352.82 1557.86 350.02 1552.84 347.34C1543.3 342.23 1533.45 337.47 1524.71 331.17C1499.48 312.99 1506 285.18 1496 258.25C1494.4 253.93 1492.52 249.44 1489.07 246.24C1485.77 243.18 1481.1 242.2 1476.94 244.09C1472.51 246.11 1469.42 250.22 1467.06 254.33C1461.34 264.3 1458.08 275.41 1454.99 286.41C1451.92 297.32 1448.82 308.21 1444.11 318.55C1439.53 328.61 1433.57 338.04 1425.66 345.82C1417.84 353.52 1408.48 359.46 1398.98 364.84C1394.19 367.55 1389.34 370.12 1384.5 372.74C1380.26 375.03 1374.82 377.18 1372.44 381.67C1369.99 386.28 1371.77 391.81 1374.1 396.07C1376.38 400.23 1379.55 403.87 1383.26 406.81C1390.83 412.8 1400.44 415.94 1410.05 415.95C1411.78 415.95 1413.49 415.83 1415.2 415.65C1409.04 421.2 1402.4 426.23 1395.45 430.7C1378.82 441.39 1360.39 448.98 1341.57 454.84C1333.99 457.2 1324.5 458.92 1319.94 466.19C1315.46 473.34 1317.19 482.96 1320.23 490.32C1326.55 505.59 1340.76 515.76 1356.57 519.28C1355.82 519.71 1355.06 520.14 1354.31 520.56C1345.28 525.57 1335.75 529.69 1327 535.22C1319.19 540.16 1310.46 546.83 1308.2 556.31C1305.87 566.07 1312.9 574.79 1319.36 581.22C1326.23 588.06 1334.45 593.45 1343.13 597.7C1358.24 605.12 1375.37 610.32 1392.36 609.86C1392.26 609.97 1392.15 610.07 1392.05 610.18C1389.57 612.98 1387.25 616.74 1387.84 620.65C1388.43 624.55 1391.64 627.03 1395.03 628.56C1398.97 630.34 1403.27 631.41 1407.55 631.94C1416.39 633.03 1425.36 631.84 1433.93 629.61C1441.16 627.74 1448.17 625.09 1454.85 621.76C1468.31 615.05 1480.36 605.71 1490.49 594.61C1493.62 591.18 1496.54 587.56 1499.29 583.81C1504.26 589.75 1510.14 595.02 1516.34 599.48C1534.48 612.52 1556.01 620.81 1578.21 623.34C1588.85 624.55 1599.79 624.54 1610.26 622.06C1615.35 620.85 1620.28 619.08 1624.88 616.57C1629.31 614.16 1633.83 611.09 1636.62 606.79C1643.04 596.89 1635.32 586.1 1628.03 579.29C1623.83 575.37 1619.18 571.95 1614.61 568.48C1609.77 564.81 1604.91 561.16 1600.12 557.43C1595.92 554.16 1591.73 550.77 1587.67 547.24C1604.83 550.03 1622.79 546.81 1638.02 538.44H1638.03Z" fill="#3B5C45"/>
<path d="M1415.11 416.79C1416.03 427.52 1417.61 440.89 1427.67 447.16C1432.38 450.09 1438.42 450.61 1443.65 448.89C1449.07 447.12 1453.27 443.04 1455.19 437.67C1457.33 431.68 1456.54 424.6 1452.77 419.43C1452.3 419.79 1451.83 420.15 1451.37 420.51C1459.09 430.21 1469.52 439 1482.38 439.95C1488.2 440.38 1494.29 439.16 1499.2 435.92C1503.76 432.91 1506.93 428.28 1508.14 422.95C1509.45 417.18 1508.41 410.94 1504.44 406.42C1504.15 406.92 1503.86 407.42 1503.57 407.91C1513.48 411.47 1524.5 415.35 1535.03 412.12C1542.72 409.76 1550.48 403.19 1550.18 394.46C1550.01 389.6 1547.52 384.94 1543.6 382.09C1542.67 381.41 1541.77 382.96 1542.7 383.63C1545.95 385.99 1548.1 389.96 1548.37 393.97C1548.64 397.92 1546.91 401.7 1544.24 404.55C1538.25 410.93 1529.08 412.37 1520.78 411.04C1515.03 410.12 1509.51 408.15 1504.05 406.19C1503.15 405.87 1502.64 407.07 1503.18 407.68C1510.02 415.47 1506.88 428.33 1498.85 433.99C1489.4 440.65 1476.73 438.8 1467.39 432.99C1461.64 429.41 1456.83 424.51 1452.63 419.24C1452 418.45 1450.63 419.5 1451.23 420.32C1457.58 429.02 1454.57 442.55 1444.35 446.72C1439.59 448.66 1433.93 448.55 1429.39 446.07C1424.84 443.58 1421.87 439.08 1420.13 434.3C1418.09 428.69 1417.41 422.68 1416.9 416.77C1416.8 415.63 1415.01 415.62 1415.11 416.77V416.79Z" fill="#151C21"/>
<path d="M1356.12 520.84C1352.89 525.38 1350.14 530.28 1348.11 535.47C1346.36 539.94 1345.19 544.81 1345.42 549.65C1345.64 554.25 1347.25 558.72 1350.5 562.05C1353.8 565.43 1358.39 567.41 1363.01 568.14C1373.69 569.82 1384.49 565.27 1393.96 560.82C1403.15 556.5 1411.83 551.14 1419.83 544.9C1428.84 537.88 1436.91 529.71 1443.85 520.64C1443.3 520.41 1442.76 520.18 1442.22 519.95C1438.27 530.57 1434.16 542.63 1439.78 553.44C1441.94 557.59 1445.44 561.04 1449.89 562.6C1453.75 563.96 1458.05 563.34 1461.88 562.17C1470.62 559.52 1478.8 554.04 1485.49 547.91C1492.85 541.16 1499.14 533.16 1505.09 525.16C1508.88 520.07 1512.56 514.88 1515.98 509.53C1515.44 509.46 1514.89 509.39 1514.35 509.32C1516.13 513.77 1518.34 518.19 1521.14 522.09C1525.34 527.94 1532.08 531.35 1539.21 531.99C1542.4 532.27 1545.5 531.87 1548.38 530.45C1551.23 529.04 1553.89 527.25 1556.32 525.21C1561.64 520.75 1565.85 515.09 1569.53 509.24C1574.67 501.05 1578.91 492.31 1583.2 483.65C1583.71 482.62 1582.17 481.71 1581.66 482.75C1577.96 490.22 1574.28 497.72 1570.07 504.91C1566.64 510.76 1562.81 516.48 1557.98 521.28C1555.78 523.47 1553.37 525.45 1550.73 527.09C1548.19 528.68 1545.59 530.03 1542.56 530.24C1535.85 530.72 1528.25 527.91 1523.88 522.72C1520.51 518.72 1518.02 513.68 1516.09 508.85C1515.81 508.15 1514.9 507.95 1514.46 508.64C1511.88 512.67 1509.14 516.6 1506.34 520.48C1500.72 528.28 1494.77 535.93 1488.09 542.86C1481.99 549.19 1474.88 554.6 1466.89 558.33C1463.06 560.12 1458.8 561.62 1454.52 561.58C1450.14 561.54 1446.23 559.25 1443.5 555.9C1435.04 545.48 1439.8 531.56 1443.94 520.43C1444.32 519.39 1442.86 519.01 1442.31 519.74C1430.59 535.07 1415.43 547.69 1398.35 556.65C1394 558.93 1389.53 560.98 1384.96 562.75C1379.83 564.74 1374.47 566.42 1368.94 566.67C1359.66 567.09 1349.76 562.72 1347.63 552.91C1346.51 547.73 1347.58 542.25 1349.32 537.33C1351.29 531.78 1354.25 526.54 1357.66 521.75C1358.33 520.81 1356.78 519.92 1356.12 520.85V520.84Z" fill="#151C21"/>
<path d="M709.509 398.24C710.229 361.96 711.249 325.68 712.579 289.41C708.989 286.85 705.479 284.18 702.049 281.41C701.889 336.24 700.77 391.08 698.53 445.86C695.57 518.37 690.779 590.81 684.149 663.08C680.639 701.27 676.469 739.38 672.109 777.47C667.449 793.85 665.959 811.28 668.389 828.08C668.969 832.13 669.979 836.32 672.489 839.64C675.219 843.24 679.369 845.22 683.499 846.78C693.809 850.67 704.569 853.31 715.439 855C716.249 855.13 716.869 854.44 716.829 853.67C712.959 777.78 710.289 701.85 709.079 625.87C707.869 550 708.019 474.1 709.519 398.24H709.509Z" fill="#151C21"/>
<path d="M834.67 341.64C827.21 336.39 818.9 332.2 810.91 327.83C802.62 323.3 794.29 318.84 786.07 314.18C778.52 309.9 771.03 305.42 763.79 300.58C764.51 300.15 765.22 299.72 765.93 299.29C769.45 297.12 772.88 294.78 776.17 292.28C779.15 290.01 782.23 287.53 784.11 284.22C787.79 277.74 785.17 270.17 780.18 265.19C774.54 259.58 766.62 257.43 759.63 254.06C753.25 250.98 747.35 246.8 742.25 241.88C736.24 236.08 731.26 229.24 727.56 221.77C731.45 223.12 735.49 223.96 739.65 223.77C746.83 223.44 753.19 219.31 755.58 212.39C757.91 205.63 756.48 197.98 753.12 191.83C749.04 184.36 742.69 178.57 737.18 172.2C725.79 159.03 717.68 143.07 713.66 126.13C711.56 117.29 710.73 108.3 710.68 99.23C710.63 89.78 711.18 80.33 710.77 70.88C710.38 61.85 709.2 52.45 705.45 44.13C704.12 41.18 701.64 38.27 698.05 38.86C694.81 39.39 692.77 42.61 691.58 45.38C689.89 49.32 689.35 53.86 688.47 58.04C687.47 62.75 686.48 67.47 685.47 72.18C683.48 81.51 681.4 90.82 678.94 100.04C674.42 117.01 668.59 133.77 659.85 149.07C655.7 156.34 650.91 163.27 645.4 169.58C642.62 172.77 639.62 175.7 636.53 178.6C633.69 181.26 629.63 184.77 628.1 188.5C624.4 197.49 630.62 204.17 636.7 208.2C639.67 210.17 647.63 211.25 651.21 211.1C653.22 211.02 655.14 210.51 656.94 209.72C656.31 210.87 655.69 212.03 655.01 213.16C650.96 219.91 646.14 226.23 640.61 231.84C634.83 237.72 628.24 242.56 621.57 247.36C608.68 256.65 594.33 268.15 593.15 285.35C592.67 292.34 595.02 299.2 599.76 304.35C604.36 309.35 610.67 312.64 617.23 314.2C621.85 315.3 626.4 315.5 630.87 315.06C629.85 315.65 628.82 316.21 627.81 316.81C615.55 324.13 603.37 332.14 592.64 341.59C583.35 349.78 574.74 359.82 571.45 372.02C567.58 386.39 572.58 400.93 579.19 413.68C591.72 437.85 612.61 458.18 638.1 468.2C650.36 473.02 663.67 475.42 676.84 474.3C689.2 473.25 701.02 468.9 711.13 461.72C715.34 458.73 719.19 455.28 722.71 451.51C729.35 455.71 736.46 459.14 743.91 461.67C751.45 464.23 759.36 465.87 767.31 466.39C776.6 466.99 786.39 465.98 794.64 461.38C801.45 457.58 807.11 451.08 809.08 443.44C811.37 434.6 807.82 426.39 802.5 419.42C796.66 411.76 789.72 404.76 782.79 398.09C781.11 396.47 779.4 394.87 777.68 393.3C783.15 395.48 788.91 396.96 794.76 397.64C810.35 399.45 827.56 395.32 838.51 383.52C843.86 377.75 847.93 370.08 847.63 362.03C847.3 353.21 841.6 346.51 834.68 341.64H834.67Z" fill="#23382A"/>
<path d="M630.109 316.13C631.039 332.85 632.299 351.04 643.699 364.36C648.629 370.12 655.369 374.31 662.909 375.53C669.989 376.67 677.389 375.09 682.769 370.17C688.269 365.13 691.279 357.17 689.079 349.86C688.509 350.02 687.929 350.18 687.359 350.34C691.019 359.75 698.279 368.42 708.499 370.72C717.999 372.86 728.439 369.11 732.219 359.68C734.119 354.95 734.019 349.43 731.329 345.03C730.729 344.05 729.179 344.95 729.789 345.93C734.329 353.36 730.539 363.41 723.149 367.35C714.779 371.81 704.439 369.12 697.749 362.93C693.869 359.34 690.999 354.76 689.089 349.85C688.679 348.8 687.029 349.2 687.369 350.33C689.209 356.47 687.019 363.09 682.739 367.68C678.019 372.76 671.159 374.71 664.369 373.93C649.219 372.17 639.589 358.63 635.679 344.96C632.999 335.59 632.459 325.8 631.919 316.12C631.859 314.98 630.069 314.97 630.129 316.12L630.109 316.13Z" fill="#151C21"/>
<path d="M656.75 209.65C656.12 215.41 655.96 221.24 656.37 227.03C656.67 231.27 657.43 235.89 660.43 239.13C663.18 242.09 667.3 242.92 671.15 242.13C675.39 241.27 678.91 238.64 681.4 235.16C684.53 230.79 685.98 225.46 687.36 220.33H685.64C687.45 230.14 689.88 241.28 699.18 246.76C703.13 249.09 707.82 249.69 712.2 248.27C716.6 246.84 720.31 243.74 722.98 240.01C726.46 235.13 727.83 229.12 728.39 223.25C728.5 222.1 726.71 222.11 726.6 223.25C725.72 232.4 722.1 242.18 713.03 246.06C709.06 247.75 704.64 247.63 700.82 245.62C696.96 243.59 694.02 240.14 692.06 236.3C689.45 231.19 688.41 225.45 687.38 219.86C687.21 218.97 685.87 219.05 685.66 219.86C683.59 227.56 680.93 237.03 672.52 239.91C668.99 241.12 664.86 240.94 662.06 238.21C659.13 235.35 658.46 230.92 658.18 227.03C657.77 221.24 657.93 215.42 658.56 209.65C658.68 208.51 656.9 208.52 656.77 209.65H656.75Z" fill="#151C21"/>
<path d="M796.11 854.77C800.05 853.69 803.81 852.14 807.4 850.24C805.8 826.57 804.01 802.91 802.73 779.22C801.16 750.22 799.94 721.21 799.1 692.18C797.41 633.93 797.22 575.64 798.51 517.38C799.11 490.19 800.09 463.02 801.28 435.85C796.71 435.39 792.18 435.14 787.58 435.23C784.49 489.97 781.37 544.71 778.31 599.46C775.03 658.14 771.7 716.82 768.46 775.5C767.09 800.3 765.8 825.19 766.04 850.04C774.88 855.04 784.37 857.96 796.09 854.76L796.11 854.77Z" fill="#151C21"/>
<path d="M894.93 532.03C894.59 527.75 893.12 523.63 890.92 519.96C886.32 512.27 878.49 506.64 869.91 504.23C863.64 502.47 857.11 502.3 850.69 503.16C860.34 492.54 868.77 480.82 875.77 468.29C883.13 455.11 889.92 439.89 886.29 424.5C884.71 417.82 881.15 411.7 875.62 407.53C870.78 403.88 864.85 401.79 858.83 401.23C859.7 399.02 860.5 396.78 861.18 394.5C863.67 386.13 864.9 377.43 864.76 368.69C864.63 360.81 863.78 352.22 859.98 345.18C858.34 342.15 856.08 339.37 852.98 337.75C850.07 336.23 846.85 336.18 843.76 336.93C844.57 334.34 845.38 331.75 846.1 329.14C850.05 314.78 852.74 298.57 845.95 284.61C841.37 275.18 832.77 267.65 822.4 266.6C822.43 266.5 822.46 266.4 822.49 266.3C825.23 255.91 826.75 245.2 826.67 234.45C826.59 224.22 825.22 213.55 821.43 203.99C818.23 195.91 812.79 187.77 804.37 184.53C794.55 180.76 783.76 184.94 775.79 190.97C761.15 202.04 754.19 220.51 750.97 238.02C747.84 232.17 743.61 226.97 737.87 223.45C733.71 220.89 728.83 219.38 723.91 219.9C719.41 220.37 715.29 222.47 711.99 225.52C704.82 232.14 701.45 241.88 698.75 251C695.46 262.12 693.13 273.52 691.8 285.04C689.14 308.15 690.38 331.72 695.52 354.41C697.88 364.85 701.07 375.09 705.05 385.03C702.32 383.1 699.53 381.3 696.71 379.64C689.08 375.14 679.74 371.45 670.89 374.49C663.47 377.04 658.47 383.86 655.76 390.95C649.79 406.54 652.73 424.38 660 438.98C667.84 454.72 680.43 467.18 695.2 476.51C696.62 477.41 698.07 478.25 699.52 479.09C696.63 478.75 693.68 478.75 690.72 479.15C673.61 481.47 659.26 494.6 654.69 511.09C649.52 529.75 655.91 550.31 668.04 564.88C680.66 580.03 698.73 589.73 717.3 595.58C725.51 598.17 734 600 742.6 600.56C749.17 604.04 756.54 605.94 764.12 605.87C775.45 605.76 786.62 601.01 794.78 593.18C812.96 594.63 831.79 592.43 848.59 585.63C857.72 581.93 866.34 576.83 873.81 570.39C881.3 563.92 888.18 555.94 892.15 546.79C894.16 542.16 895.31 537.12 894.91 532.06L894.93 532.03Z" fill="#3B5C45"/>
<path d="M753.77 238.72C757.08 233.4 763.38 230.91 769.48 231.09C776.37 231.29 782.58 235.08 787.4 239.77C797.71 249.81 803.87 264.2 805.78 278.33C806.88 286.42 806.58 294.7 804.82 302.67C804.57 303.79 806.21 304.25 806.54 303.15C808.66 296.18 812.28 288.82 819.1 285.5C821.12 284.52 823.29 284.21 825.4 285.06C827.89 286.05 830.1 288.06 831.86 290.03C835.65 294.28 837.77 299.81 838.74 305.36C840.07 312.92 839.28 320.68 838.55 328.25C838.44 329.39 840.23 329.39 840.34 328.25C841.6 315.2 842.68 300.41 833.81 289.56C830.69 285.75 825.82 281.67 820.55 283.04C815.5 284.36 811.59 288.47 809.06 292.84C807.29 295.91 805.83 299.27 804.8 302.66C805.37 302.82 805.95 302.98 806.52 303.14C809.83 288.1 808.09 272.16 801.86 258.1C798.82 251.22 794.67 244.65 789.4 239.26C784.43 234.19 778.06 230.05 770.85 229.38C763.69 228.72 756.09 231.56 752.2 237.81C751.59 238.79 753.14 239.69 753.74 238.71L753.77 238.72Z" fill="#151C21"/>
<path d="M742.65 599.04C744.19 582.9 745.8 565.56 755.65 552.04C759.73 546.44 765.23 541.6 771.8 539.21C777.86 537 784.44 537.22 790.35 539.85C796.77 542.71 801.92 548.15 803.4 555.13C803.61 556.13 805.15 555.88 805.16 554.89C805.19 545.16 807.96 535.5 813.22 527.3C818.26 519.43 825.61 513.21 834.19 509.49C839.03 507.39 844.24 506.15 849.51 505.81C850.65 505.74 850.66 503.95 849.51 504.02C839.82 504.63 830.48 508.22 822.81 514.17C814.99 520.24 809.27 528.67 806.13 538.03C804.31 543.45 803.39 549.16 803.37 554.88C803.96 554.8 804.54 554.72 805.13 554.64C802.36 541.52 787.59 533.63 774.9 536.43C759.56 539.82 749.95 554.52 745.74 568.66C742.8 578.52 741.83 588.83 740.86 599.03C740.75 600.18 742.54 600.17 742.65 599.03V599.04Z" fill="#151C21"/>
<path d="M701.39 478.34C700.86 461.99 703.43 445.61 708.94 430.21C711.07 424.26 713.75 418.01 718.74 413.87C721.12 411.9 724.08 410.64 727.19 410.58C730.55 410.52 733.78 411.83 736.44 413.82C739.44 416.06 741.58 419.22 743.32 422.49C744.72 425.12 745.18 428.03 745.73 430.92C745.95 432.07 747.6 431.55 747.45 430.44C747.52 431 747.39 429.98 747.37 429.82C747.28 429.06 747.19 428.31 747.11 427.55C746.83 424.93 746.6 422.3 746.41 419.67C745.84 411.73 745.63 403.75 746.06 395.8C746.5 387.54 747.58 379.2 750.77 371.51C752.7 366.86 755.19 362.3 758.75 358.68C762.53 354.84 767.46 352.42 772.86 352C778.74 351.53 784.74 353.29 789.16 357.27C793.24 360.95 795.87 366.15 796.1 371.66C796.14 372.68 797.53 372.85 797.86 371.9C800.88 363.09 804.04 354.19 809.03 346.27C813.82 338.67 821.15 330.74 830.4 329.08C833.08 328.6 836.11 328.77 838.52 330.15C840.84 331.48 842.18 333.94 842.59 336.52C842.77 337.65 844.49 337.17 844.31 336.04C843.94 333.69 842.83 331.42 841.06 329.81C839.27 328.17 836.91 327.38 834.52 327.13C829.32 326.58 824.05 328.85 819.91 331.82C811.73 337.69 806.25 346.31 802.22 355.39C799.9 360.62 797.99 366.01 796.13 371.42C796.72 371.5 797.3 371.58 797.89 371.66C797.45 361.11 789.22 352.15 778.86 350.48C773.53 349.62 767.93 350.44 763.18 353.06C758.56 355.62 755.01 359.73 752.37 364.24C747.71 372.2 745.61 381.06 744.71 390.17C743.85 398.83 743.92 407.59 744.42 416.27C744.7 421.16 745.08 426.06 745.74 430.92C746.32 430.76 746.89 430.6 747.46 430.44C746.94 427.68 746.49 424.9 745.26 422.35C743.84 419.4 741.95 416.47 739.61 414.18C734.72 409.39 727.6 407.22 721.18 410.2C715.26 412.95 711.55 419.11 709.09 424.89C705.8 432.6 703.52 440.83 701.93 449.05C700.07 458.69 699.29 468.51 699.61 478.32C699.65 479.47 701.44 479.47 701.4 478.32L701.39 478.34Z" fill="#151C21"/>
<path d="M339.66 843.31C340.34 843.05 340.97 842.72 341.62 842.42C340.82 811.74 339.47 781.15 337.57 750.35C331.87 657.96 331 505.08 332.19 412.5C328.7 412.79 325.16 413.25 321.55 413.76C320.36 459.31 319.07 565.06 317.64 610.6C315.94 664.86 313.92 719.12 311.29 773.35C310.2 795.83 308.94 818.3 307.64 840.78C317.7 845.19 329.07 847.33 339.66 843.31Z" fill="#151C21"/>
<path d="M464.21 388.93C457.95 381.27 449.57 375.34 441.09 370.37C423.64 360.15 404.21 353.84 386.92 343.31C378.65 338.27 371.06 332.27 364.17 325.55C379.22 330.04 395.57 329.62 410.41 324.48C413.9 323.27 417.53 321.91 420.62 319.86C423.08 318.22 425.52 315.79 425.79 312.69C426.11 309.14 423.56 306.37 421.08 304.19C418.16 301.61 414.76 299.61 411.31 297.83C396.47 290.17 380.57 284.62 366.4 275.67C355.91 269.04 345.16 260.01 340.38 247.84C334.61 233.15 333.44 215.44 332.07 199.86C330.59 182.97 329.84 167.53 328.65 151.85C328.02 143.59 327.51 135.32 327.16 127.04C326.87 120.09 327.41 112.58 323.94 106.25C321.76 102.27 316.3 100.03 312.39 103.08C310.03 104.92 309.1 108.02 308.44 110.94C305.83 122.6 305.36 134.7 304.15 146.57C302.48 162.87 300.96 179.19 299.09 195.47C294.8 232.8 286.33 280.95 240.92 281.36C232.13 281.44 218.96 281.47 216.3 292.17C214.98 297.48 216.97 303.38 219.09 308.22C221.2 313.02 224.1 317.48 227.57 321.41C234.68 329.48 245.65 335.61 254.17 338.78C254.17 338.78 250.72 343.08 231.42 350.52C221.31 354.42 186.38 359.79 185.96 373.44C185.47 389.22 206.95 401.14 219.69 404.34C223.23 405.23 226.84 405.75 230.47 405.99C216.37 415.7 201.44 424.24 185.93 431.4C174.01 436.91 144.73 443.75 149.28 462.41C150.61 467.85 155.34 471.72 159.6 474.96C174.74 486.48 193.45 491.25 212.18 492.54C209.92 495.24 207.82 498.04 205.95 500.98C201.73 507.63 197.97 517.57 203.94 524.39C206.82 527.68 211.07 529.16 215.23 530.03C220.21 531.07 225.33 531.52 230.41 531.6C251.67 531.93 272.38 524.97 291.62 516.51C299.86 512.89 307.91 508.85 315.8 504.5C315.58 505.04 315.4 505.53 315.32 505.9C314.33 510.77 314.55 515.87 316.27 520.57C322.01 536.24 340.61 543.47 356.84 540.06C370.4 537.22 386.72 528.42 396.41 516.6C402.45 517.62 408.61 518.15 414.71 517.93C428.48 517.44 442.68 512.59 451.6 501.61C455.88 496.34 459.24 489.36 457.77 482.43C456.42 476.08 451.76 471.06 446.79 467.18C440.96 462.62 434.37 458.98 427.93 455.38C420.93 451.47 413.83 447.7 407.09 443.35C400.7 439.23 394.51 434.43 389.31 428.82C398.32 432.3 407.92 434.26 417.61 434.58C427.21 434.9 436.83 433.67 445.99 430.77C454.46 428.09 464.03 424.01 468.87 416.12C474.44 407.05 470.37 396.52 464.19 388.95L464.21 388.93Z" fill="#3B5C45"/>
<path d="M253.61 339.2C250.44 343.18 248.57 348.53 249.01 353.64C249.57 360.01 253.95 364.58 259.46 367.36C265.26 370.29 272.04 371.15 278.39 369.8C284.67 368.47 290.17 364.82 294.03 359.72C298.38 353.98 300.53 346.58 299.62 339.41C299.48 338.31 297.81 338.22 297.83 339.41C298.07 350.61 298.99 364.74 310.23 370.72C320.55 376.2 331.89 368.73 336.87 359.57C340.16 353.53 341.59 346.71 342.96 340.04C342.46 340.17 341.96 340.3 341.47 340.43C346.82 346.79 353.44 354.07 362.58 353.39C370.55 352.8 375.69 345 373.38 337.42C372.02 332.95 368.96 329.11 365.47 326.09C364.6 325.34 363.33 326.6 364.21 327.35C369.21 331.69 374.55 339.07 371.11 345.89C369.48 349.13 366.38 351.25 362.77 351.58C358.93 351.93 355.15 350.55 352.02 348.4C348.4 345.92 345.55 342.49 342.75 339.16C342.33 338.66 341.38 338.92 341.26 339.55C339.11 350.03 336.54 362.04 326.7 368.05C322.43 370.66 317.16 371.72 312.41 369.76C307.89 367.89 304.58 363.82 302.64 359.43C299.88 353.18 299.79 346.11 299.65 339.4H297.86C299.36 351.18 292.21 363.47 280.82 367.28C275.13 369.18 268.86 369.04 263.22 367.01C257.9 365.1 252.57 361.37 251.16 355.61C249.9 350.46 251.64 344.53 254.9 340.44C255.61 339.55 254.35 338.28 253.64 339.18L253.61 339.2Z" fill="#151C21"/>
<path d="M230.469 406.09C223.989 414.4 217.219 423.14 214.819 433.63C212.959 441.79 214.519 450.95 219.939 457.49C222.479 460.55 225.959 462.82 229.869 463.67C234.929 464.76 240.049 463.52 244.589 461.22C249.329 458.82 253.489 455.37 257.309 451.72C260.979 448.21 264.689 444.73 268.299 441.17C275.999 433.57 282.749 425.31 288.119 415.88C287.569 415.65 287.029 415.42 286.489 415.19C285.119 419.05 283.649 422.91 282.819 426.93C281.999 430.9 281.809 435 281.849 439.05C281.919 447.15 284.399 455.6 289.909 461.7C295.499 467.9 303.749 470.34 311.899 469.24C320.409 468.1 328.009 463.59 333.759 457.31C340.769 449.66 345.139 440.05 348.819 430.46C349.239 429.38 347.519 428.94 347.099 429.98C343.589 438.54 342.609 451.36 351.129 457.39C355.729 460.64 361.899 461.22 367.289 460.1C372.979 458.91 378.319 455.77 382.169 451.42C387.209 445.7 389.789 438.33 390.729 430.86C390.869 429.72 389.079 429.73 388.939 430.86C388.159 437.07 386.129 443.18 382.419 448.27C379.149 452.75 374.429 456.14 369.129 457.79C364.019 459.37 358.259 459.32 353.469 456.75C349.329 454.53 347.159 450.3 346.549 445.77C345.869 440.63 346.869 435.25 348.819 430.49C348.239 430.33 347.669 430.17 347.099 430.01C341.189 445.44 332.349 462.53 314.949 466.87C307.209 468.8 298.769 467.57 292.759 462.05C286.969 456.74 284.169 448.75 283.709 441.05C283.449 436.73 283.629 432.22 284.439 427.97C285.249 423.76 286.789 419.72 288.219 415.69C288.559 414.72 287.079 414.13 286.589 415C282.039 422.97 276.539 430.2 270.159 436.79C267.009 440.05 263.719 443.17 260.429 446.3C256.709 449.84 253.089 453.52 248.889 456.52C244.849 459.41 240.169 461.9 235.129 462.28C230.899 462.6 226.699 461.34 223.469 458.57C217.509 453.46 215.119 444.84 215.999 437.22C217.309 425.82 224.909 416.14 231.729 407.4C232.429 406.5 231.169 405.23 230.469 406.14V406.09Z" fill="#151C21"/>
<path d="M532.11 495.75C529.36 429.01 528.3 362.2 528.91 295.4C529.21 262.64 530.74 229.55 527.07 196.92C524.67 196.75 522.26 196.58 519.85 196.4C518.56 258.51 517.87 320.63 516.94 382.75C515.95 449 514.95 515.26 513.96 581.51C513.47 614.18 512.5 680.45 512.18 713.13C523.12 715.1 533.5 713.09 543.33 708.83C541.13 682.19 539.23 621.97 537.46 595.29C535.26 562.13 533.47 528.95 532.11 495.75Z" fill="#151C21"/>
<path d="M702.75 307.37C699.43 303.74 694.34 301.98 689.77 300.54C684.45 298.87 678.97 297.81 673.45 297.11C662.37 295.71 651.18 295.67 640.07 294.59C629.14 293.53 618.26 291.36 608.55 286.04C608.28 285.89 608.01 285.72 607.74 285.56C610.96 285.53 614.18 285.41 617.4 285.11C634.86 283.48 653.33 278.19 666.94 266.67C670.15 263.95 673.08 260.89 675.55 257.48C678.08 253.99 680.44 249.78 679.99 245.31C679.1 236.37 667.96 232.74 660.67 230.91C655.86 229.71 650.95 229.02 646.06 228.27C641.15 227.52 636.26 226.63 631.41 225.53C621.66 223.32 612.09 220.3 602.94 216.25C590.05 210.55 578.03 202.71 568.05 192.76C571.17 194.57 574.37 196.24 577.62 197.73C593.44 205.01 611.44 209.34 628.73 205.25C636.45 203.42 644.03 199.99 649.88 194.54C655.09 189.7 659.54 182.39 658.35 174.98C656.99 166.5 647.64 165.22 640.74 163.54C631.61 161.32 622.45 159.19 613.51 156.31C607.45 154.36 601.46 152 595.75 149.13C595.89 149.07 596.03 149.02 596.17 148.96C601.44 146.55 606.26 142.6 609.13 137.52C610.52 135.06 611.41 132.17 611.1 129.32C610.79 126.43 609.21 123.96 607.24 121.89C603.1 117.55 597.79 114.13 592.75 110.96C587.6 107.72 582.29 104.75 577.02 101.7C566.39 95.54 555.96 88.83 548.12 79.19C545.62 76.12 543.44 72.85 541.47 69.47C540.75 66.76 540.13 64.02 539.62 61.26C537.06 47.56 536.67 33.57 535.1 19.75C534.92 18.21 534.77 16.64 534.58 15.07C534.56 14.45 534.55 13.83 534.51 13.22C534.32 10.33 534 7.21002 533 4.47002C532.18 2.20002 530.44 0.240019 527.92 0.0200195C525.28 -0.209981 523.84 1.76002 523.17 4.06002C519.89 15.41 518.23 27.24 516.75 38.93C513.83 61.96 512.02 85.87 501.93 107.14C499.38 112.53 496.36 117.77 492.51 122.34C488.6 126.97 483.75 130.58 478.33 133.25C467.09 138.79 454.5 140.77 442.44 143.72C436.2 145.25 429.9 146.94 424 149.52C419.16 151.64 415.03 155.08 415.27 160.81C415.48 165.99 418.44 171.28 421.38 175.41C424.26 179.46 427.88 183 431.92 185.88C440.45 191.98 450.71 195.21 461.17 195.38C467.39 195.48 473.55 194.53 479.5 192.81C477.86 195.39 476.02 197.84 473.91 200.1C466.44 208.11 456.59 213.55 446.5 217.56C434.93 222.16 422.74 225.29 410.44 227.15C404.03 228.12 397.56 228.73 391.08 228.98C385.8 229.18 380.43 228.98 375.25 230.21C370.46 231.34 366.11 233.84 363.55 238.14C361.19 242.11 360.58 246.99 361.33 251.5C363.1 262.11 372.05 269.4 380.89 274.42C399.39 284.95 421.45 287.92 442.37 284.97C437.71 288.25 432.92 291.36 427.95 294.19C422.13 297.51 416.08 300.29 409.96 302.99C403.9 305.67 397.8 308.44 392.35 312.26C383.28 318.63 375.62 329.13 377.26 340.75C379.03 353.26 389.58 361.88 400.73 366.23C413.32 371.14 427.2 372.38 440.6 371.42C464.74 369.69 488.47 361.24 509.07 348.7C517.88 343.34 526.17 337.1 533.85 330.18C535.94 342.08 540.05 353.43 547.94 363.13C554.57 371.28 564.03 378.1 574.67 379.48C580.19 380.19 585.79 379.2 590.45 376.07C594.69 373.21 597.91 368.93 599.95 364.28C602.27 358.98 603.14 353.22 603.43 347.47C605.69 349.11 608.13 350.58 610.76 351.83C620.29 356.37 631.3 358.03 641.79 357.79C651.84 357.56 661.87 355.4 671.14 351.51C680.45 347.6 689.11 341.94 696.16 334.69C699.76 330.99 703 326.67 704.61 321.71C706.19 316.87 706.41 311.33 702.77 307.35L702.75 307.37Z" fill="#3B5C45"/>
<path d="M480.44 193C483.28 204.89 487.28 218.71 499.99 223.4C511.51 227.65 522.32 218.94 526.22 208.46C528.98 201.02 528.97 192.92 528.94 185.09C528.35 185.17 527.77 185.25 527.18 185.33C529.44 194.97 538.46 201.97 548.1 203.1C558.01 204.27 567.22 198.26 571.28 189.34C573.54 184.38 574.19 178.76 572.62 173.5C572.12 173.79 571.62 174.08 571.13 174.37C576.32 180.04 585.17 181.31 592.08 178.27C599.25 175.11 602.68 167.34 601.46 159.8C600.78 155.62 598.64 151.68 595.27 149.07C594.37 148.37 593.1 149.63 594.01 150.33C599.44 154.55 601.27 162.2 598.95 168.59C596.49 175.34 589.39 178.69 582.5 178.01C578.67 177.63 575.02 175.96 572.4 173.11C571.79 172.45 570.66 173.14 570.91 173.98C573.48 182.61 569.59 192.32 562.44 197.57C554.85 203.14 544.72 202.36 537.25 196.99C533.16 194.05 530.09 189.79 528.93 184.86C528.7 183.87 527.17 184.1 527.17 185.1C527.22 196.87 526.97 210.31 517.17 218.51C513.02 221.98 507.57 223.61 502.25 222.23C496.95 220.86 492.45 217.05 489.48 212.54C485.53 206.53 483.83 199.43 482.18 192.52C481.91 191.4 480.19 191.87 480.46 193H480.44Z" fill="#151C21"/>
<path d="M442.72 287.34C449.15 299.92 458.95 311.9 472.55 316.95C479.37 319.48 486.98 320.09 494.02 318.11C500.42 316.32 505.98 312.4 510.08 307.2C514.78 301.23 517.51 293.85 517.63 286.24C517.04 286.32 516.46 286.4 515.87 286.48C517.28 295.93 524.05 304.79 533.37 307.54C542.75 310.32 551.84 305.16 556.91 297.32C560.03 292.49 561.66 286.74 561.47 280.99C560.91 281.14 560.36 281.29 559.8 281.44C563.22 288.21 568.91 293.81 575.98 296.67C582.99 299.5 590.82 298.95 597.56 295.61C601.57 293.62 605.06 290.69 607.82 287.18C608.52 286.28 607.27 285.01 606.56 285.92C602.05 291.68 595.42 295.84 588.06 296.62C581.05 297.36 574.16 294.84 568.86 290.26C565.73 287.55 563.21 284.24 561.35 280.55C560.95 279.76 559.65 280.13 559.68 281C559.99 290.1 555.35 299.65 547.3 304.22C543.64 306.3 539.4 307.07 535.26 306.18C531.07 305.28 527.3 302.94 524.35 299.87C520.7 296.08 518.37 291.2 517.59 286C517.44 284.98 515.85 285.26 515.83 286.24C515.63 298.88 507.57 311.47 495.46 315.77C481.94 320.57 467.59 314.82 457.74 305.25C452.17 299.83 447.77 293.33 444.24 286.43C443.72 285.4 442.17 286.31 442.7 287.33L442.72 287.34Z" fill="#151C21"/>
<path d="M1774.78 830.94C1775.02 830.62 1775.14 830.18 1774.96 829.65C1764.66 800.27 1736.58 783.92 1710.94 788.91C1704.32 790.2 1698 792.98 1692.26 797.13C1689.69 778.43 1681.15 761.27 1668.74 749.66C1655.22 737.02 1637.69 732.26 1620.92 735.9C1611.75 737.89 1603.07 742.34 1595.53 748.94C1582.6 714.46 1556.27 689.4 1526.53 678.77C1494.62 667.36 1460.43 674.03 1431.42 692.99C1421.1 699.73 1411.5 707.96 1402.77 717.38C1409.78 745.29 1413.89 775.59 1412.33 804.63C1411.46 820.81 1408.89 835.6 1404.32 849.32C1434.46 849.38 1464.6 849.65 1494.73 850.19C1512.12 850.51 1529.52 850.9 1546.91 851.38C1563.7 851.84 1580.5 852.18 1597.26 853.62C1614.16 855.07 1630.88 858.39 1647.75 860.12C1664.45 861.83 1681.25 861.73 1697.97 860.68C1714.96 859.62 1731.89 857.61 1748.81 855.58C1755.3 854.8 1762.18 853.96 1767.78 849.53C1772.19 846.04 1775.22 839.82 1775.03 833.35C1775.01 832.52 1774.91 831.71 1774.77 830.92L1774.78 830.94Z" fill="#23382A"/>
<path d="M392.4 780.91C394.26 787.06 396.56 793.09 399.13 798.99C401.45 804.31 404.18 809.59 408.35 813.81C412.39 817.9 417.46 820.86 422.71 823.29C428.2 825.84 433.94 827.9 439.78 829.57C463.95 836.49 489.62 836.51 514.52 834.23C524.83 833.29 535.1 831.97 545.36 830.61C560.95 832.78 576.62 834.36 592.38 835.08C617.96 836.26 643.41 834.84 668.72 831.21C694.38 827.53 719.74 822.19 745.37 818.36C771.15 814.51 797.27 812.31 823.31 814.89C848.89 817.42 874.02 823.61 899.78 824.57C925.54 825.53 950.44 819.32 975.78 815.95C1001.81 812.49 1028.03 813.76 1054.11 815.87C1080.06 817.97 1106.04 820.81 1132.12 820.18C1142.74 819.92 1159.41 819.76 1169.42 812.98C1176.01 810.65 1181.96 806.79 1186.61 801.68C1191.27 796.55 1195.29 789.39 1193.27 782.39C1191.37 775.78 1184.98 771.35 1178.9 768.42C1166.95 762.66 1153.08 762.02 1140.54 766.13C1144.71 759.32 1146.78 751.21 1146.42 743.35C1145.72 728.25 1135.31 714.32 1120.11 709.79C1113.07 707.69 1105.55 708.06 1098.81 710.43C1095.93 705.47 1092.28 700.94 1087.94 697.07C1075.48 685.94 1057.63 680.57 1041.32 686.67C1027.15 691.97 1015.74 704.92 1015.1 719.69C1010.8 713.87 1005.09 709.07 998.53 705.69C984.75 698.59 968.06 697.88 954.1 704.92C947.03 708.48 940.93 713.72 936.36 719.98C936.05 715.55 934.92 711.13 933.22 707.1C930.9 701.6 927.59 696.54 924.06 691.7C920.76 687.17 917.36 682.66 913.62 678.46C907.21 671.26 898.65 663.71 888.2 663.48C874.42 663.17 867.21 673.61 863.43 685.18C863.42 685.18 863.41 685.17 863.39 685.16C857.13 682.64 849.93 681.92 843.35 683.68C833.99 686.19 826.5 694.13 824.81 703.19C821.58 695.18 816.13 688.04 809.29 682.44C801.1 675.74 790.81 671.3 780.07 670.35C769.2 669.4 758.19 672.26 748.96 677.78C739.66 683.34 732.06 691.45 727.61 701.1C727.53 701.26 727.46 701.44 727.39 701.6C713.27 696.04 695.4 699.65 685.32 711.02C685.06 710.28 684.78 709.55 684.46 708.83C679.59 697.72 668.84 690.13 657.56 685.63C646.07 681.05 633.33 679.39 620.94 679.89C608.58 680.39 596.38 683.07 584.95 687.62C573.65 692.12 563.12 698.47 554.03 706.33C550.69 697.65 543.8 690.49 534.85 686.96C526.21 683.55 516.29 683.6 507.66 686.97C509.02 677.94 505.44 669.01 500.14 661.59C490.61 648.24 474.76 637.79 457.65 636.8C442.67 635.93 426.88 643.24 420.14 656.44C415.88 658.88 413.27 663.3 411.58 667.71C409.24 673.81 407.53 680.17 405.57 686.39C403.54 692.83 401.51 699.26 399.47 705.7C397.44 712.12 395.38 718.53 393.4 724.97C391.55 730.96 389.85 737.02 388.87 743.21C386.87 755.86 388.67 768.69 392.37 780.9L392.4 780.91Z" fill="#3B5C45"/>
<path d="M244.8 910.27C245.11 910.26 245.43 910.22 245.75 910.19C245.09 891.36 244.43 872.53 243.85 853.69C243.41 839.52 243.01 825.34 242.67 811.16C242.5 803.94 242.34 796.72 242.21 789.5C242.18 787.77 242.14 786.03 242.09 784.28C239.85 784.43 237.62 784.83 235.39 785.5C233.6 826.15 233.03 867.01 232.66 907.8C236.5 909.59 240.94 910.4 244.81 910.27H244.8Z" fill="#151C21"/>
<path d="M373.21 688.98C370.39 683.24 363.91 680.27 358.45 677.59C351.77 674.31 344.86 671.53 337.95 668.79C324.99 663.65 311.78 658.62 300.27 650.6C297.91 648.96 295.62 647.18 293.43 645.29C296.1 644.62 298.73 643.83 301.31 642.86C307.38 640.56 313.16 637.41 318.34 633.5C322.67 630.22 329.85 624.83 327.13 618.51C325.96 615.81 323.4 614.03 320.86 612.73C317.55 611.04 313.99 609.8 310.49 608.57C303.86 606.25 297.24 604.03 291.07 600.62C282.53 595.9 274.94 589.51 268.65 582.05C263.08 570.91 258.6 559.27 255.66 547.14C254.15 540.9 253.24 534.52 251.61 528.31C250.13 522.67 247.83 516.34 243.41 512.3C241.23 510.31 238.19 509.88 236.24 512.43C234.39 514.86 233.43 518.29 232.58 521.17C230.67 527.62 229.92 534.32 229.45 541.01C228.97 547.84 228.77 554.69 227.92 561.48C227.21 567.14 225.97 572.73 224.2 578.16C217.16 599.66 202.33 618.45 183.14 630.42C178.36 633.4 173.31 635.94 168.07 637.98C163.26 639.85 157.79 640.97 153.79 644.45C152.08 645.93 150.71 647.88 150.52 650.2C150.27 653.22 151.9 655.83 153.79 658.04C157.16 661.97 161.58 664.88 166.45 666.62C166.57 666.66 166.71 666.69 166.83 666.73C166.55 666.97 166.27 667.23 165.98 667.47C153.18 678 138.1 679.64 122.76 683.86C118.07 685.15 113.13 686.7 109.31 689.83C105.67 692.81 103.73 697.07 104 701.78C104.27 706.59 106.54 711.19 109.26 715.07C119.27 729.39 135.7 738.53 152.58 742.09C150.83 742.92 149.09 743.74 147.35 744.58C143.2 746.6 139.1 748.73 135.18 751.17C131.77 753.29 128.13 755.59 125.66 758.83C123.03 762.29 122.64 766.31 124.07 770.37C125.32 773.93 127.44 777.24 129.92 780.06C134.79 785.59 141.23 789.49 147.97 792.34C155.82 795.66 164.25 797.82 172.65 799.2C181.94 800.73 191.54 801.09 200.84 799.4C215.73 796.69 230.11 788.2 237.41 774.6C237.7 774.06 237.96 773.5 238.22 772.94C240.71 786.35 250.9 798.04 263.77 802.55C270.52 804.92 278.65 805.67 285.19 802.22C288.54 800.45 290.97 797.59 291.95 793.9C293.12 789.49 292.41 784.54 291.77 780.09C290.99 774.69 289.68 769.38 287.89 764.25C296.36 774.18 308.4 781.07 321.27 783.45C330.43 785.14 340.21 784.52 348.88 781C356.05 778.09 362.46 772.87 365.17 765.69C365.49 765.71 365.81 765.56 365.99 765.16C369.87 756.05 365.8 745.78 361.26 737.72C357.17 730.48 352.01 723.98 346.08 718.2C349.1 717.64 352.08 716.81 354.96 715.69C360.79 713.44 366.37 710.11 370.28 705.14C373.84 700.61 375.94 694.47 373.25 688.98H373.21Z" fill="#23382A"/>
<path d="M128.941 779.39C137.521 795.16 153.481 806.7 171.181 809.78C189.631 812.99 209.361 806.9 222.831 793.91C229.841 787.15 236.011 776.49 231.571 766.71C231.181 765.84 229.951 766.36 229.901 767.16C229.341 776.69 235.711 785.75 244.381 789.37C253.421 793.14 263.571 789.64 269.531 782.14C272.831 777.98 274.771 772.81 274.531 767.46C274.021 767.67 273.511 767.88 273.001 768.09C282.381 775.56 292.891 783.71 305.571 783.01C310.821 782.72 316.101 780.9 319.881 777.13C323.101 773.91 324.661 769.32 324.401 764.8C324.121 759.88 321.661 755.01 317.011 752.94C315.971 752.48 315.061 754.02 316.111 754.48C323.911 757.95 324.481 769.42 319.171 775.28C311.951 783.23 299.591 782.25 290.721 778C284.711 775.12 279.451 770.96 274.271 766.83C273.711 766.39 272.711 766.61 272.741 767.46C273.131 776.24 267.191 784.59 259.121 787.8C250.681 791.16 241.401 787.74 236.001 780.69C233.041 776.82 231.391 772.04 231.681 767.15C231.121 767.3 230.571 767.45 230.011 767.6C233.861 776.08 228.441 785.63 222.541 791.65C216.321 798 208.501 802.76 200.111 805.63C191.671 808.52 182.571 809.54 173.711 808.37C165.231 807.25 157.061 804.09 149.901 799.43C141.821 794.17 135.061 786.96 130.451 778.48C129.901 777.47 128.361 778.37 128.911 779.38L128.941 779.39Z" fill="#151C21"/>
<path d="M167.07 666.55C166.25 670.79 165.69 675.08 165.45 679.39C165.26 682.89 165.22 686.44 165.97 689.89C166.64 692.97 168.05 696 170.53 698.04C172.96 700.04 176.05 700.91 179.18 700.68C186.01 700.18 191.96 695.83 196.64 691.14C201.81 685.96 206.17 679.97 209.55 673.49C213.35 666.19 215.92 658.27 217.06 650.12C216.47 650.04 215.89 649.96 215.3 649.88C216.41 659.53 218.17 671.03 227.81 675.93C231.88 678 236.53 677.96 240.58 675.86C244.58 673.78 247.65 670.07 249.42 665.98C251.88 660.29 252.25 654.02 252.59 647.91C252.08 648.12 251.57 648.33 251.06 648.54C257.25 654.15 263.94 660.24 272.3 662.24C279.04 663.86 287.15 662.73 291.89 657.24C294.79 653.88 295.52 649.23 294.48 645C294.21 643.88 292.48 644.36 292.76 645.48C293.63 649.01 293.11 653.01 290.73 655.86C288.67 658.33 285.76 659.89 282.66 660.62C275.61 662.29 268.63 659.78 262.79 655.87C259.03 653.35 255.67 650.31 252.32 647.28C251.73 646.75 250.84 647.13 250.79 647.91C250.3 656.94 249.54 667.68 241.34 673.31C237.92 675.66 233.76 676.41 229.83 674.89C225.95 673.39 222.9 670.09 221.02 666.45C218.39 661.35 217.73 655.5 217.08 649.88C216.98 648.98 215.48 648.55 215.32 649.64C213.42 663.19 207.56 676.11 198.57 686.43C194.28 691.35 189.25 696.12 182.89 698.13C180.04 699.03 176.88 699.33 174.07 698.14C171.18 696.92 169.22 694.36 168.23 691.44C167.09 688.06 167.01 684.43 167.14 680.9C167.32 676.24 167.87 671.6 168.76 667.02C168.98 665.9 167.26 665.41 167.04 666.54L167.07 666.55Z" fill="#151C21"/>
<path d="M1239.22 1136.38C1236.97 1127.75 1229.97 1118.54 1226.68 1113.02C1208.23 1082.08 1147.59 1104 1129.01 1125.58C1127.06 1127.84 1125.14 1130.85 1126.27 1133.62C1127.17 1135.81 1129.63 1136.87 1131.88 1137.61C1148.97 1143.24 1166.85 1144.71 1184.66 1146.31C1197.46 1147.46 1246.79 1165.38 1239.22 1136.38Z" fill="#EBDAD6"/>
<path d="M1260.46 1156.67C1254.24 1154.35 1245.95 1157.63 1239.52 1157.87C1229.75 1158.22 1216.16 1156.19 1208.37 1163.6C1207.32 1164.27 1206.3 1165 1205.35 1165.8C1203.64 1167.23 1201.31 1169.11 1200.94 1171.45C1199.96 1177.65 1207.91 1178.2 1212.04 1178.33C1215.31 1178.43 1218.59 1178.53 1221.86 1178.63C1228.41 1178.83 1234.95 1179.04 1241.5 1179.23C1247.27 1179.4 1255.32 1181.08 1260.52 1178.14C1266.34 1174.85 1268.85 1167.51 1265.64 1161.49C1264.26 1158.89 1262.48 1157.42 1260.46 1156.67Z" fill="#EBDAD6"/>
<path d="M496.93 1020.51C496.17 1013.73 487.81 1003.16 482.38 999.57C479.53 997.68 476.39 996.43 473.3 995.22C469.94 993.9 466.54 992.7 463.12 991.65C456.42 989.58 449.53 987.84 442.71 987.03C439.69 986.67 436.65 986.74 433.91 987.86C431.63 988.79 429.64 990.29 427.99 992.14C424.58 995.98 422.42 1001.37 421.8 1006.81C421.2 1012.07 422.94 1016.73 427.88 1019.25C431.15 1020.92 434.83 1021.33 438.28 1022.05C441.63 1022.74 444.98 1023.41 448.33 1024.01C454.96 1025.2 461.63 1026.14 468.27 1026.52C475.24 1026.92 483.21 1026.6 490.15 1025.2C492.67 1024.69 497.35 1024.35 496.92 1020.51H496.93Z" fill="#EBDAD6"/>
<path d="M530.97 1036.38C530.66 1033.17 529.25 1028.82 525.81 1027.8C524.15 1027.31 522.3 1027.51 520.6 1027.66C513.85 1028.26 506.73 1030.67 500.89 1034.08C495.98 1036.95 482.96 1050.96 495 1053.56C496.91 1053.97 498.96 1053.87 500.91 1053.92C503.14 1053.97 505.37 1054 507.6 1054.01C511.78 1054.03 516.1 1054.14 520.11 1052.77C526.94 1050.43 531.68 1043.66 530.98 1036.39L530.97 1036.38Z" fill="#EBDAD6"/>
<path d="M1448.3 800.83C1446.82 748.67 1429.42 689.9 1424.04 654.83C1417.67 613.29 1411.54 571.65 1402.48 530.59C1394.47 494.27 1386.51 447.46 1364.43 416.6C1316.33 349.36 1282.76 474.88 1275.03 503.65C1259.38 561.86 1248.86 621.52 1239.97 681.1C1231.06 740.78 1204.38 815.93 1234.45 873.6C1259.71 922.05 1354.02 917.87 1396.8 902.34C1438.69 887.14 1449.6 846.52 1448.31 800.83H1448.3Z" fill="#3B5C45"/>
<path d="M1377.39 438.42C1384.61 463.29 1391.63 488.22 1397.89 513.35C1404.08 538.17 1409.53 563.18 1413.74 588.42C1416.15 602.9 1418.15 617.44 1419.66 632.04C1419.78 633.17 1421.57 633.19 1421.45 632.04C1418.78 606.24 1414.6 580.62 1409.34 555.23C1404.11 530.02 1397.85 505.03 1391.07 480.2C1387.22 466.08 1383.2 452 1379.12 437.94C1378.8 436.84 1377.07 437.31 1377.4 438.42H1377.39Z" fill="#151C21"/>
<path d="M1259.01 578.75C1273.97 581.55 1285.29 594.05 1292.44 606.77C1299.58 619.48 1303.3 633.8 1305.79 648.07C1307.22 656.29 1308.23 664.58 1309.19 672.86C1309.32 674.02 1310.83 674 1310.98 672.86C1312.07 664.55 1313.28 655.51 1318.93 648.9C1321.33 646.09 1324.42 643.8 1328.03 642.85C1331.77 641.87 1335.7 642.47 1339.17 644.1C1346.57 647.59 1351.83 654.48 1356.1 661.22C1360.66 668.42 1364.26 676.21 1366.81 684.34C1369.68 693.52 1371.2 703.08 1371.28 712.7C1371.28 713.72 1372.74 713.9 1373.04 712.94C1376.16 702.74 1380.06 691.26 1388.77 684.42C1393.1 681.03 1398.48 679.26 1403.98 679.64C1409.57 680.02 1414.91 682.5 1419.29 685.92C1424.56 690.04 1428.51 695.53 1430.9 701.76C1431.31 702.82 1433.04 702.36 1432.62 701.28C1428.35 690.12 1418.66 680.16 1406.5 678.15C1400.82 677.21 1395.04 678.29 1390.12 681.3C1385.25 684.28 1381.59 688.84 1378.8 693.75C1375.48 699.61 1373.26 706.03 1371.3 712.45C1371.89 712.53 1372.47 712.61 1373.06 712.69C1372.9 694.56 1367.7 676.54 1358.15 661.13C1353.77 654.06 1348.39 646.84 1340.84 642.93C1337.36 641.13 1333.45 640.2 1329.54 640.73C1325.75 641.25 1322.31 643.11 1319.52 645.7C1312 652.67 1310.47 663.2 1309.2 672.85H1310.99C1309.26 657.84 1307.37 642.74 1303.14 628.19C1299.03 614.08 1292.51 600.35 1282.04 589.83C1275.9 583.66 1268.15 578.63 1259.5 577.01C1258.38 576.8 1257.89 578.52 1259.02 578.73L1259.01 578.75Z" fill="#151C21"/>
<path d="M1387.52 470.91C1374.36 470.91 1361.43 475.57 1351.13 483.73C1345.91 487.86 1341.37 492.93 1338.01 498.7C1334.59 504.57 1332.39 511.11 1331.26 517.8C1329.93 525.66 1329.98 533.69 1330.93 541.6C1331.52 541.52 1332.1 541.44 1332.69 541.36C1331.9 538.34 1330.87 535.36 1329.77 532.44C1327.49 526.33 1324.74 520.32 1321.19 514.83C1317.66 509.36 1313.1 503.95 1307 501.3C1299.89 498.21 1290.83 499.24 1284.22 503.08C1275.8 507.96 1271.07 517.14 1269.38 526.46C1269.18 527.59 1270.9 528.07 1271.1 526.94C1272.57 518.83 1276.32 510.74 1283.21 505.86C1289.33 501.52 1298 499.97 1305.15 502.49C1311.11 504.59 1315.63 509.75 1319.06 514.85C1322.61 520.13 1325.36 525.94 1327.64 531.86C1328.9 535.12 1330.07 538.46 1330.96 541.84C1331.21 542.78 1332.84 542.63 1332.72 541.6C1331.13 528.31 1332.02 514.27 1338.17 502.16C1344.05 490.59 1354.55 481.63 1366.54 476.82C1373.21 474.14 1380.34 472.72 1387.53 472.72C1388.68 472.72 1388.68 470.93 1387.53 470.93L1387.52 470.91Z" fill="#151C21"/>
<path d="M1225.12 774.09C1230.76 769.49 1238.38 768.44 1245.44 769.02C1251.74 769.54 1257.92 771.42 1263.54 774.32C1274.69 780.07 1283.73 789.73 1288.88 801.16C1291.8 807.65 1293.36 814.73 1293.31 821.85C1293.31 822.77 1294.5 823.02 1294.98 822.3C1302.64 810.72 1316.62 804.06 1330.39 804.48C1344.73 804.92 1357.23 813.74 1363.73 826.35C1367.35 833.38 1368.94 841.38 1368 849.25C1367.86 850.39 1369.65 850.38 1369.79 849.25C1371.54 834.59 1364.61 819.59 1352.97 810.7C1341.21 801.71 1325.4 800.51 1311.93 806.23C1304.46 809.4 1297.92 814.62 1293.43 821.41C1293.99 821.56 1294.54 821.71 1295.1 821.86C1295.19 808.59 1289.8 795.76 1281.1 785.86C1272.41 775.97 1260.32 768.99 1247.17 767.41C1239.08 766.44 1230.36 767.55 1223.87 772.83C1222.98 773.56 1224.25 774.82 1225.13 774.09H1225.12Z" fill="#151C21"/>
<path d="M1539.68 916.02C1545.06 915.23 1550.17 913.82 1554.68 911.64C1597.18 891.11 1583.82 837.17 1580.63 798.76C1576.17 744.96 1567.08 691.48 1546.02 640.68C1544.19 636.27 1541.72 631.36 1537.17 629.97C1500.5 618.75 1464.29 800.46 1461.38 827.85C1459.15 848.86 1457.22 876.67 1471.16 895.04C1478.3 904.46 1489.34 910.39 1500.65 913.31C1512.27 916.3 1526.76 917.93 1539.68 916.03V916.02Z" fill="#3B5C45"/>
<path d="M1465.65 815.61C1467.57 807.51 1470.51 799.66 1474.43 792.32C1478.2 785.27 1482.78 778.32 1488.67 772.86C1494.1 767.82 1501.27 763.94 1508.89 765.16C1516.02 766.29 1522.01 771.34 1525.72 777.35C1530.8 785.56 1531.86 795.53 1532.89 804.92C1533.48 804.84 1534.06 804.76 1534.65 804.68C1532.55 795.56 1531.24 786.12 1530.82 776.77C1530.53 770.29 1530.56 763.48 1532.48 757.22C1533.6 753.57 1535.42 750.06 1537.37 746.79C1539.52 743.18 1542.03 739.79 1544.84 736.67C1551.27 729.54 1559.26 723.83 1568.13 720.14C1569.18 719.7 1568.72 717.97 1567.65 718.42C1551.74 725.04 1538.55 737.81 1531.86 753.75C1529.27 759.92 1528.83 766.75 1528.92 773.37C1529.01 780.28 1529.77 787.17 1530.84 793.99C1531.42 797.73 1532.07 801.47 1532.92 805.16C1533.14 806.12 1534.79 805.94 1534.68 804.92C1533.71 796.02 1532.67 786.88 1528.57 778.78C1525.24 772.21 1519.5 766.46 1512.38 764.17C1495.71 758.8 1482.43 775.15 1474.98 787.71C1469.93 796.23 1466.2 805.52 1463.92 815.15C1463.65 816.27 1465.38 816.75 1465.64 815.63L1465.65 815.61Z" fill="#151C21"/>
<path d="M1780.76 942.08C1779.41 936.39 1776.18 931.13 1770.99 928.21C1763.92 924.25 1755.54 925.89 1748.5 929C1746.12 930.05 1743.82 931.28 1741.56 932.58C1746.59 923.92 1749.1 913.52 1746.97 903.65C1744.6 892.7 1736.44 884.52 1726.03 880.81C1701.2 871.96 1675.99 888.24 1656.72 902.4C1647.5 909.17 1638.8 916.63 1630.66 924.66C1639.59 910.34 1646.39 894.03 1642.85 877.08C1641.13 868.83 1637.21 860.88 1630.86 855.21C1623.39 848.55 1613.42 846.56 1603.67 847.71C1593.06 848.96 1582.86 853.12 1573.13 857.37C1564.11 861.31 1555.34 865.83 1546.87 870.86C1529.62 881.12 1513.7 893.57 1499.52 907.77C1487.67 919.63 1477.09 932.74 1468 946.82C1464.96 939.11 1455.28 936.28 1447.93 934.82C1428.57 930.98 1408.14 932.98 1389.74 940.03C1371.72 946.93 1353.77 959.01 1344.35 976.29C1339.87 984.51 1337.7 994.1 1340.04 1003.32C1344.85 1022.33 1364.73 1029.79 1382.22 1032.4C1404.68 1035.76 1429.99 1035.9 1452.06 1030.59C1476.33 1024.75 1501.28 1019.47 1526.32 1023.24C1542.66 1025.7 1558.24 1031.89 1574.53 1034.71C1622.32 1042.97 1675.55 1023.35 1718.34 1003.4C1726.49 999.6 1734.51 995.52 1742.38 991.17C1749.81 987.07 1757.32 982.89 1764.1 977.74C1775.26 969.26 1784.22 956.71 1780.76 942.07V942.08Z" fill="#3B5C45"/>
<path d="M1471.38 945.67C1488.24 927.9 1508.8 910.17 1534.42 908.51C1545.06 907.82 1555.9 910.39 1564.8 916.36C1573.22 922 1579.33 930.68 1580.66 940.83C1582.03 951.31 1578.56 962.82 1569.9 969.34C1570.26 969.81 1570.62 970.28 1570.98 970.74C1579.81 961.09 1593.3 952.27 1606.95 956.1C1612.75 957.73 1617.86 961.6 1621.18 966.6C1624.54 971.67 1625.81 977.81 1625.36 983.84C1624.86 990.56 1621.42 996.2 1615.57 999.56C1615.87 1000.07 1616.17 1000.59 1616.47 1001.1C1620.88 997.9 1625.4 994.87 1630.42 992.69C1635.96 990.28 1641.89 988.54 1647.95 988.31C1653.85 988.09 1659.9 989.28 1664.94 992.47C1669.4 995.29 1673.07 999.6 1674.73 1004.64C1675.66 1007.47 1676.07 1010.56 1675.18 1013.46C1674.15 1016.82 1671.9 1019.72 1669.52 1022.25C1668.73 1023.09 1669.99 1024.36 1670.78 1023.51C1672.99 1021.16 1675.02 1018.54 1676.3 1015.55C1677.47 1012.82 1677.67 1010.04 1677.19 1007.13C1676.28 1001.64 1673.04 996.64 1668.81 993.1C1658.64 984.59 1644.55 985.43 1632.81 989.82C1626.53 992.17 1620.98 995.64 1615.57 999.56C1614.66 1000.22 1615.45 1001.69 1616.47 1001.1C1621.89 997.98 1625.63 992.94 1626.77 986.77C1627.91 980.6 1627.05 973.74 1624.16 968.16C1621.21 962.45 1616.19 957.82 1610.26 955.36C1603.78 952.67 1596.5 952.96 1589.96 955.29C1582.1 958.08 1575.29 963.37 1569.71 969.47C1569.06 970.18 1569.94 971.52 1570.79 970.87C1578.81 964.83 1582.81 954.94 1582.73 945.04C1582.64 934.59 1577.92 924.95 1570.06 918.12C1561.85 910.99 1551.04 907.11 1540.23 906.63C1527.76 906.08 1515.42 909.97 1504.58 915.93C1491.42 923.16 1480.38 933.56 1470.11 944.38C1469.32 945.21 1470.58 946.48 1471.37 945.64L1471.38 945.67Z" fill="#151C21"/>
<path d="M422.27 800.96C419.94 757.68 411.84 714.25 401.99 672.09C391.91 628.92 379.14 586.43 364.92 544.46C354.7 514.31 344.73 486.5 326.67 458.81C318.84 446.8 303.09 438.83 289.66 447.33C273.71 457.43 264.79 493.51 258.6 510.1C242.87 552.28 230.72 595.81 217.56 638.84C210.69 661.32 203.81 683.8 196.94 706.28C190.48 727.4 184 748.57 179.75 770.27C171.12 814.28 172.43 864.38 188.9 906.62C194.66 921.39 204.01 935.24 217.5 943.57C254.53 966.43 303.77 953.59 342.59 942.68C384.7 930.85 409.57 903.33 418.65 860.58C422.8 841.04 423.33 820.86 422.26 800.97L422.27 800.96Z" fill="#3B5C45"/>
<path d="M252.47 528.55C256.89 515.81 261.62 503.17 266.48 490.59C269.27 483.34 272.11 476.11 275.22 468.99C276.3 466.53 277.39 464.08 278.65 461.7C280.32 458.53 282.64 455.75 285.21 453.27C289.27 449.35 294.25 446.25 299.83 445.11C301.05 444.86 302.3 444.68 303.54 444.71C303.76 444.71 303.98 444.72 304.2 444.74C304.38 444.75 305.02 444.83 304.85 444.8C307.67 445.2 310.09 446.26 312.5 447.65C321.52 452.86 328.3 461.73 333.86 470.32C345.11 487.69 352.82 507.31 359.31 526.87C360.39 530.13 361.43 533.41 362.45 536.69C362.79 537.79 364.51 537.32 364.17 536.21C360.36 523.84 356.09 511.6 351.04 499.68C347.28 490.8 343.08 482.08 338.13 473.79C334.59 467.86 330.65 462.13 326.08 456.95C322.92 453.37 319.42 450.04 315.45 447.37C312.84 445.61 309.95 444.1 306.87 443.35C301.67 442.08 296.16 443.76 291.59 446.27C286.52 449.05 282.26 453.19 278.88 457.86C277.62 459.6 276.68 461.55 275.76 463.49C272.66 470.02 269.99 476.76 267.34 483.48C264.18 491.48 261.14 499.53 258.16 507.6C255.93 513.62 253.73 519.66 251.58 525.71C251.3 526.49 251.03 527.27 250.76 528.06C250.38 529.15 252.11 529.62 252.48 528.54L252.47 528.55Z" fill="#151C21"/>
<path d="M226.92 613.95C235.47 610.75 244.89 610.36 253.76 612.41C262.16 614.36 269.86 618.56 276.41 624.13C289.77 635.49 297.91 651.56 302.77 668.16C305.87 678.74 307.77 689.61 309.44 700.49C309.58 701.44 310.91 701.24 311.16 700.49C316.62 684.54 323.62 665.58 341.49 660.2C349.19 657.88 357.26 659.47 363.43 664.64C369.32 669.57 373.14 676.7 374.76 684.14C377.19 695.26 375.45 706.75 373.76 717.84C373.59 718.95 375.18 719.46 375.48 718.32C378.27 707.92 388.46 700.67 398.98 699.83C402 699.59 405.01 699.88 407.91 700.74C409.02 701.07 409.49 699.34 408.39 699.02C397.46 695.77 384.9 700.31 378.02 709.27C376.05 711.83 374.6 714.73 373.76 717.85C374.33 718.01 374.91 718.17 375.48 718.33C377.06 707.99 378.63 697.45 377.09 687C375.88 678.8 372.41 670.85 366.45 664.98C360.64 659.27 352.82 656.39 344.71 657.64C336.04 658.97 328.32 664.49 323.01 671.29C316.41 679.74 312.86 690 309.43 700.03H311.15C308.2 680.76 304.42 661.07 294.7 643.92C286.4 629.27 273.51 616.26 257.01 611.43C247.08 608.53 236.17 608.59 226.44 612.24C225.37 612.64 225.83 614.37 226.92 613.96V613.95Z" fill="#151C21"/>
<path d="M196.67 872.89C197.46 867.1 198.5 861.29 200.51 855.78C202.38 850.66 205.28 845.6 209.91 842.51C215.18 839 221.61 838.73 227.47 840.85C233.9 843.17 239.03 847.94 242.65 853.64C247.02 860.52 249.41 868.4 251.76 876.14C252.1 877.27 253.66 876.78 253.48 875.66C249.48 850.37 245.34 822.22 259.17 799.02C264.96 789.3 273.85 781.65 284.76 778.33C295.23 775.14 306.41 776.57 315.29 783.1C324.95 790.2 330.75 801.73 333.33 813.21C333.57 814.28 334.97 813.9 335.09 812.97C337 797.23 343.7 782.12 353.98 770.07C359.24 763.9 365.44 758.38 372.5 754.35C379.23 750.51 386.89 748.04 394.69 748.96C402.39 749.86 410.64 753.17 415.99 758.92C416.78 759.76 418.04 758.5 417.25 757.66C412.29 752.32 405.01 749.11 397.96 747.69C394.5 746.99 390.92 746.71 387.4 747.18C383.19 747.75 379.1 749.1 375.26 750.9C367.55 754.51 360.74 760.06 354.97 766.27C349.37 772.3 344.67 779.18 341.07 786.59C337.04 794.89 334.41 803.81 333.3 812.97C333.89 812.89 334.47 812.81 335.06 812.73C332.67 802.06 327.57 791.55 319.37 784.13C315.36 780.51 310.62 777.7 305.42 776.18C300.05 774.61 294.36 774.48 288.87 775.48C277.54 777.54 267.55 784.3 260.72 793.46C253.43 803.24 249.71 815.28 248.38 827.29C246.78 841.77 248.68 856.36 250.9 870.67C251.18 872.49 251.47 874.3 251.76 876.12C252.33 875.96 252.91 875.8 253.48 875.64C249.34 861.96 244.24 846.42 230.18 840.01C224.22 837.29 217.39 836.71 211.37 839.59C206.1 842.11 202.42 846.9 200.06 852.13C197.17 858.51 195.88 865.49 194.94 872.39C194.79 873.52 196.51 874 196.66 872.87L196.67 872.89Z" fill="#151C21"/>
<path d="M255.6 524.67C257.07 521.9 258.5 519.06 260.46 516.59C262.71 513.75 265.37 511.04 268.38 509.01C271.7 506.78 275.56 505.24 279.59 505.19C283.18 505.14 286.62 506.32 289.61 508.27C295.88 512.36 299.98 519.09 303.44 525.55C307.54 533.2 310.98 541.2 313.73 549.43C316.86 558.81 319.09 568.49 320.37 578.29C320.51 579.39 322.19 579.48 322.16 578.29C321.86 567.53 321.56 555.81 327.77 546.46C330.26 542.72 333.74 539.47 337.97 537.83C342.48 536.08 347.46 536.41 351.87 538.31C356.92 540.48 361.14 544.38 364.09 548.98C364.71 549.95 366.26 549.05 365.63 548.08C360.24 539.65 350.13 532.93 339.8 535.39C329.66 537.8 323.46 547.77 321.44 557.38C320 564.25 320.17 571.31 320.36 578.28H322.15C319.77 560.07 314.23 542.34 305.73 526.06C302.15 519.21 298.02 512.21 291.69 507.54C288.75 505.37 285.35 503.9 281.71 503.5C277.71 503.06 273.69 504.07 270.14 505.88C266.16 507.91 262.86 511.01 259.96 514.37C257.52 517.21 255.78 520.47 254.03 523.76C253.49 524.78 255.03 525.68 255.57 524.66L255.6 524.67Z" fill="#151C21"/>
<path d="M111.76 948.85C146.43 951.74 181.74 934.16 191.05 897.85C200.4 861.39 182.66 804.45 173.1 769.01C163.82 734.58 157.85 695.84 143.5 663.16C135.94 645.95 113.63 616.54 98.9396 644.69C75.3796 689.83 65.0296 739.99 55.9296 789.65C48.8696 828.12 34.1496 879.07 56.4496 915.03C69.7096 936.4 89.9396 947.04 111.76 948.85Z" fill="#3B5C45"/>
<path d="M59.49 785.38C68.87 772.04 85.5 764.68 101.65 765.56C109.83 766.01 117.71 768.7 124.43 773.38C131.18 778.09 136.6 784.62 140.24 791.98C144.36 800.31 146.1 809.76 144.86 818.99H146.65C146.09 812.55 150.9 807.01 156.7 804.85C163.13 802.45 170.09 804.65 175.35 808.66C178.42 811 180.98 813.96 183.04 817.22C183.65 818.19 185.2 817.3 184.58 816.32C180.66 810.1 174.75 804.67 167.5 802.74C160.59 800.91 153.09 802.98 148.42 808.52C145.95 811.45 144.52 815.13 144.85 818.99C144.95 820.16 146.49 820.12 146.64 818.99C148.92 801.97 141.16 784.26 127.79 773.67C121.12 768.38 113.2 765.06 104.74 764.03C96.37 763.02 87.72 764.25 79.9 767.37C71.12 770.88 63.37 776.7 57.92 784.46C57.26 785.4 58.81 786.3 59.46 785.36L59.49 785.38Z" fill="#151C21"/>
<path d="M76.5701 705.62C81.0001 698.39 88.1001 693.27 96.8101 693.36C105.02 693.45 112.4 698.07 115.98 705.46C117.9 709.41 118.63 713.94 117.95 718.28C118.54 718.36 119.12 718.44 119.71 718.52C118.56 704.99 124.87 690.29 136.53 682.89C140.08 680.64 144.48 679.08 148.66 680.35C149.76 680.68 150.24 678.96 149.14 678.63C141.52 676.32 133.83 681.74 128.89 687.03C123.93 692.35 120.42 699.03 118.8 706.12C117.87 710.18 117.57 714.37 117.92 718.51C118 719.43 119.51 719.82 119.68 718.75C121 710.36 117.62 701.51 110.85 696.3C103.84 690.91 93.7401 690.05 85.8901 694.1C81.3001 696.47 77.7001 700.34 75.0201 704.71C74.4201 705.69 75.9601 706.59 76.5601 705.61L76.5701 705.62Z" fill="#151C21"/>
<path d="M188.85 904.42C191.38 891.02 192.25 877.37 191.82 863.75C191.31 847.61 189.07 831.55 185.96 815.72C183.87 805.09 181.38 794.54 178.64 784.05C178.35 782.94 176.62 783.41 176.92 784.53C181.52 802.15 185.48 819.99 187.86 838.05C189.77 852.56 190.66 867.24 189.81 881.87C189.38 889.28 188.49 896.65 187.12 903.95C186.91 905.07 188.63 905.56 188.84 904.43L188.85 904.42Z" fill="#151C21"/>
<path d="M1559.44 1114.42C1557.97 1112.08 1555.02 1111.07 1552.42 1110.67C1538.03 1108.49 1524.16 1116.6 1513.28 1125.11C1511.61 1126.41 1509.98 1127.76 1508.36 1129.12C1509.65 1126.65 1510.89 1124.16 1512.04 1121.62C1518.38 1107.77 1522.81 1093.01 1525.07 1077.94C1525.61 1074.36 1526.19 1070.68 1526.23 1067.05C1526.26 1063.78 1525.39 1060.35 1522.49 1058.47C1517.06 1054.95 1510.05 1059.75 1506.23 1063.57C1503.5 1066.29 1501.09 1069.41 1498.72 1072.45C1496.31 1075.53 1493.99 1078.7 1491.77 1081.92C1487.27 1088.46 1483.15 1095.27 1479.32 1102.21C1478.66 1103.41 1478.04 1104.62 1477.39 1105.83C1477.6 1105.04 1477.82 1104.26 1478.02 1103.47C1480.65 1093.32 1483.09 1083.06 1484.66 1072.69C1486.22 1062.38 1486.81 1051.82 1485.24 1041.47C1484.55 1036.92 1483.47 1032.39 1481.67 1028.15C1480 1024.21 1477.62 1019.87 1474.19 1017.19C1470.9 1014.62 1467.04 1015.33 1464.17 1018.12C1460.97 1021.22 1459.21 1025.74 1457.59 1029.8C1453.82 1039.21 1451.63 1049.19 1449.97 1059.16C1448.23 1069.58 1447.19 1080.12 1446.87 1090.68C1446.83 1092.15 1446.83 1093.62 1446.81 1095.09C1445.78 1092.88 1444.72 1090.69 1443.58 1088.53C1434.32 1070.96 1421.32 1055.1 1404.43 1044.4C1396.96 1039.67 1388.14 1034.7 1378.94 1036.09C1375.25 1036.65 1371.73 1038.5 1370.17 1042.05C1369.06 1044.58 1369.18 1047.37 1369.71 1050.02C1370.25 1052.7 1371.02 1055.34 1371.8 1057.96C1377.69 1077.73 1387.87 1096.17 1401.2 1111.89C1403.77 1114.93 1406.5 1117.83 1409.3 1120.66C1407.47 1120 1405.63 1119.36 1403.77 1118.77C1382.99 1112.15 1361.11 1109.55 1339.37 1109.16C1334 1109.06 1328.49 1108.84 1323.14 1109.33C1320.56 1109.57 1318.02 1110.34 1316.22 1112.3C1314.84 1113.8 1314.23 1115.79 1314.22 1117.8C1314.21 1122.46 1316.97 1127.07 1320.02 1130.42C1323.53 1134.28 1327.72 1137.67 1331.88 1140.79C1354.28 1157.58 1381.38 1163.67 1408.34 1168.94C1432.33 1173.63 1457.32 1176.16 1481.53 1171.47C1504.48 1167.02 1525.12 1154.15 1542.84 1139.32C1548.45 1134.62 1553.9 1129.43 1558.07 1123.38C1559.87 1120.76 1561.33 1117.4 1559.46 1114.41L1559.44 1114.42Z" fill="#7DBA6B"/>
<path d="M1445.56 1095.24C1454.68 1113.91 1460.1 1134.37 1461.54 1155.09C1461.94 1160.91 1462.03 1166.74 1461.81 1172.57C1461.77 1173.72 1463.56 1173.72 1463.6 1172.57C1464.38 1151.53 1461.11 1130.33 1453.96 1110.52C1451.97 1105.01 1449.68 1099.6 1447.1 1094.33C1446.59 1093.3 1445.05 1094.2 1445.56 1095.23V1095.24Z" fill="#151C21"/>
<path d="M1408.61 1121.82C1426.07 1130.82 1441.57 1143.67 1453.26 1159.49C1456.45 1163.8 1459.34 1168.33 1461.93 1173.03C1462.48 1174.04 1464.03 1173.14 1463.47 1172.13C1454 1154.9 1440.28 1140.16 1424.11 1129.01C1419.44 1125.79 1414.55 1122.88 1409.51 1120.28C1408.49 1119.75 1407.58 1121.3 1408.61 1121.82Z" fill="#151C21"/>
<path d="M1463.68 1170.9C1462.68 1153.57 1465.72 1135.88 1471.94 1119.7C1473.71 1115.09 1475.78 1110.6 1478.17 1106.28C1478.73 1105.27 1477.18 1104.37 1476.63 1105.38C1468.06 1120.92 1463.28 1138.64 1462.02 1156.3C1461.67 1161.16 1461.62 1166.04 1461.9 1170.9C1461.97 1172.04 1463.75 1172.05 1463.69 1170.9H1463.68Z" fill="#151C21"/>
<path d="M1464.41 1173.91C1477.92 1164.33 1490.29 1153.12 1500.87 1140.36C1503.76 1136.87 1506.52 1133.27 1509.14 1129.56C1509.81 1128.62 1508.26 1127.72 1507.6 1128.66C1498.32 1141.79 1487.18 1153.56 1474.77 1163.77C1471.12 1166.77 1467.37 1169.63 1463.51 1172.36C1462.58 1173.02 1463.47 1174.57 1464.41 1173.9V1173.91Z" fill="#151C21"/>
<path d="M646.49 1146.41C644.64 1142.91 640.91 1140.85 637.24 1139.76C632.97 1138.48 628.65 1138.47 624.28 1139.15C618.79 1140 613.42 1141.62 608.3 1143.78C597.93 1148.15 588.56 1154.57 579.64 1161.34C576.42 1163.78 573.23 1166.27 570.05 1168.77C571.92 1164.83 573.72 1160.85 575.45 1156.86C578.75 1149.24 581.79 1141.5 584.56 1133.68C587.3 1125.92 590.07 1118.02 591.48 1109.89C592.18 1105.85 592.51 1101.72 592.21 1097.62C591.96 1094.21 591.4 1090.52 589.56 1087.57C587.82 1084.78 584.79 1083.32 581.52 1083.96C578.04 1084.63 575.07 1086.9 572.55 1089.28C567.17 1094.36 563.62 1101.04 560.52 1107.68C557.07 1115.06 554.16 1122.69 551.82 1130.49C548.69 1140.89 546.57 1151.56 545.46 1162.35C544.21 1158.77 542.89 1155.2 541.49 1151.67C535.04 1135.49 527.05 1119.91 517.64 1105.26C516.01 1102.71 513.49 1099.15 510 1101C507.4 1102.38 506.45 1105.91 506.19 1108.62C505.41 1116.78 505.39 1125.07 505.84 1133.24C506.62 1147.37 509.09 1161.4 513.1 1174.96C505.7 1167.97 497.2 1162.02 487.07 1160.14C484.23 1159.61 481.03 1159.41 478.34 1160.68C475.52 1162.02 474.14 1164.79 474.05 1167.83C473.95 1171.19 475.03 1174.62 476.28 1177.7C477.64 1181.04 479.44 1184.21 481.41 1187.22C491.53 1202.69 505.83 1216.06 522.37 1224.41C544.77 1235.71 566.32 1232.02 586.45 1217.8C597.6 1209.93 606.92 1199.97 616.59 1190.44C626.55 1180.62 636.35 1170.33 644.47 1158.9C647.07 1155.24 648.76 1150.69 646.51 1146.44L646.49 1146.41Z" fill="#7DBA6B"/>
<path d="M544.551 1162.32C543.201 1180.01 542.591 1197.83 544.491 1215.5C545.021 1220.46 545.751 1225.41 546.671 1230.31C546.881 1231.44 548.611 1230.96 548.391 1229.83C545.141 1212.59 544.611 1195 545.391 1177.51C545.621 1172.44 545.941 1167.37 546.331 1162.31C546.421 1161.16 544.631 1161.17 544.541 1162.31L544.551 1162.32Z" fill="#151C21"/>
<path d="M548.3 1230.53C555.02 1214.92 561.54 1199.22 567.11 1183.15C568.84 1178.16 570.48 1173.15 572.04 1168.11C572.38 1167.01 570.66 1166.54 570.32 1167.63C565.17 1184.23 559.04 1200.48 552.34 1216.51C550.51 1220.89 548.64 1225.26 546.76 1229.62C546.31 1230.67 547.85 1231.58 548.3 1230.52V1230.53Z" fill="#151C21"/>
<path d="M512.48 1174.87C524.15 1187.4 534.21 1201.46 541.39 1217.05C543.38 1221.38 545.14 1225.81 546.67 1230.32C547.04 1231.4 548.77 1230.94 548.39 1229.84C542.89 1213.6 534.34 1198.62 523.72 1185.19C520.56 1181.19 517.22 1177.33 513.74 1173.6C512.95 1172.76 511.69 1174.02 512.48 1174.86V1174.87Z" fill="#151C21"/>
<path d="M207.75 1039.91C206.74 1036.85 204.35 1034.52 201.73 1032.77C194.95 1028.25 186.33 1027.1 178.4 1026.46C176.82 1026.33 175.23 1026.25 173.64 1026.18C179.5 1023.59 185.15 1020.51 190.47 1016.96C192.79 1015.41 195.05 1013.77 197.24 1012.05C199.42 1010.34 201.76 1008.61 203.37 1006.32C206.62 1001.68 204.2 996.3 199.73 993.58C197.17 992.02 194.15 991.25 191.26 990.53C188.37 989.81 185.45 989.26 182.5 988.87C176.65 988.09 170.73 987.92 164.85 988.38C158.34 988.9 151.85 990.15 145.66 992.23C142.47 993.3 139.35 994.66 136.48 996.4C136.83 995.99 137.19 995.6 137.53 995.19C143.08 988.58 148.24 981.64 152.96 974.42C157.46 967.55 162.49 959.46 160.87 950.86C159.55 943.88 153.79 937.94 146.3 939.1C142.58 939.68 139.22 941.63 136.14 943.71C132.85 945.94 129.67 948.34 126.61 950.88C123.35 953.58 120.24 956.46 117.27 959.46C118.23 955.26 119.14 951.04 119.96 946.81C121.03 941.26 122 935.69 122.88 930.1C123.72 924.79 124.46 919.45 124.58 914.07C124.76 905.81 123.75 891.97 113.69 889.68C109.2 888.66 104.56 890.64 100.95 893.19C96.8301 896.1 93.3501 900.02 90.4201 904.1C84.2301 912.72 80.3101 922.71 77.2501 932.81C74.0001 943.54 71.6801 954.55 70.3001 965.67C68.9301 976.73 68.4701 987.91 68.9601 999.05C69.0301 1000.55 69.1501 1002.04 69.2501 1003.54C64.3301 995.71 57.9901 988.74 50.4201 983.44C45.3501 979.89 39.7601 977.14 33.8001 975.45C28.6601 973.99 22.1201 973.12 18.0901 977.49C14.0101 981.91 14.9501 988.9 16.7601 994.09C18.8201 999.98 21.9701 1005.45 25.7401 1010.42C29.5401 1015.44 33.9401 1019.98 38.6101 1024.19C43.8801 1028.93 49.5001 1033.32 55.6201 1036.92C86.7201 1055.2 132.64 1062.63 168.41 1062.68C175.32 1062.69 182.3 1061.98 188.93 1059.97C195.32 1058.03 202.37 1054.92 206.22 1049.19C208.04 1046.47 208.81 1043.1 207.76 1039.93L207.75 1039.91Z" fill="#7DBA6B"/>
<path d="M88.0399 1050.35C87.7699 1025.06 94.1699 999.78 106.42 977.65C109.85 971.46 113.74 965.52 118.04 959.91C118.74 959 117.19 958.11 116.5 959.01C108.78 969.08 102.46 980.15 97.6099 991.86C92.7199 1003.67 89.3499 1016.11 87.6199 1028.77C86.6399 1035.92 86.1799 1043.13 86.2599 1050.35C86.2699 1051.5 88.0599 1051.5 88.0499 1050.35H88.0399Z" fill="#151C21"/>
<path d="M87.78 1050.98C102.84 1038.36 116.64 1024.22 128.73 1008.72C132.05 1004.46 135.25 1000.09 138.3 995.64C138.95 994.69 137.4 993.79 136.76 994.74C125.83 1010.68 113.11 1025.37 99.03 1038.62C94.97 1042.44 90.79 1046.14 86.52 1049.73C85.64 1050.47 86.91 1051.73 87.78 1050.99V1050.98Z" fill="#151C21"/>
<path d="M88.4205 1051.57C96.9705 1043.92 107.091 1038.11 117.781 1034.02C128.971 1029.74 140.861 1027.24 152.831 1026.68C159.541 1026.37 166.291 1026.66 172.941 1027.65C174.071 1027.82 174.551 1026.09 173.421 1025.93C161.321 1024.13 148.981 1024.5 136.971 1026.76C125.131 1028.98 113.571 1033.04 103.071 1038.97C97.3905 1042.18 92.0205 1045.96 87.1605 1050.32C86.3005 1051.09 87.5705 1052.35 88.4205 1051.58V1051.57Z" fill="#151C21"/>
<path d="M68.2003 1002.79C77.1703 1016.94 83.1003 1032.87 85.5703 1049.43C85.7403 1050.56 87.4603 1050.08 87.2903 1048.95C84.7903 1032.25 78.7803 1016.14 69.7403 1001.88C69.1303 1000.91 67.5803 1001.81 68.2003 1002.78V1002.79Z" fill="#151C21"/>
<path d="M424.421 822.79C425.831 804.88 426.09 786.86 424.77 768.94C423.46 751.12 420.59 733.39 415.81 716.17C413.11 706.43 409.79 696.86 405.84 687.56C405.39 686.51 403.69 687.07 404.15 688.13C411.11 704.51 416.08 721.69 419.24 739.19C422.4 756.68 423.81 774.47 423.86 792.24C423.89 802.32 423.47 812.39 422.68 822.44C422.59 823.57 424.34 823.95 424.43 822.8L424.421 822.79Z" fill="#151C21"/>
</g>
<defs>
<clipPath id="clip0_1658_165143">
<rect width="1781.52" height="1263.01" fill="white"/>
</clipPath>
</defs>
</svg>
