<svg width="537" height="567" viewBox="0 0 537 567" fill="none" xmlns="http://www.w3.org/2000/svg">
<path d="M466.745 485.921C418.752 625.911 91.8472 542.132 91.8472 542.132C18.9382 528.567 -45.7506 359.171 43.1105 287.309C118.007 226.739 182.967 217.515 279.296 216.108C380.542 214.629 469.813 204.902 528.603 287.309C555.828 325.471 511.98 353.977 466.745 485.921Z" fill="#9BD552"/>
<path d="M344.457 442.923C352.906 467.496 410.46 452.79 410.46 452.79C423.296 450.409 434.685 420.675 419.04 408.06C405.854 397.428 394.417 395.809 377.458 395.562C359.633 395.303 343.916 393.595 333.566 408.06C328.773 414.759 336.493 419.763 344.457 442.923Z" fill="#9BD552"/>
<path d="M344.457 442.923C352.906 467.496 410.46 452.79 410.46 452.79C423.296 450.409 434.685 420.675 419.04 408.06C405.854 397.428 394.417 395.809 377.458 395.562C359.633 395.303 343.916 393.595 333.566 408.06C328.773 414.759 336.493 419.763 344.457 442.923Z" fill="black" fill-opacity="0.1"/>
<g clip-path="url(#clip0_1953_2018)">
<path d="M296.519 273.637C286.484 271.485 278.02 255.927 277.179 246.458C274.938 221.251 294.278 202.723 318.844 202.172C318.338 148.26 399.123 139.35 408.935 193.246C419.066 188.4 428.007 187.276 438.689 191.4C453.146 196.976 460.032 211.105 457.866 226.18C457.226 230.601 454.538 234.651 452.856 238.656C461.424 239.207 468.571 244.455 472.211 252.063C470.648 257.594 470.849 262.962 467.744 268.068C463.285 275.408 450.28 280.992 441.972 281.751C430.404 282.801 421.702 277.165 415.635 267.696C415.769 267.48 417.056 263.103 417.109 262.798C418.009 257.572 412.649 255.904 408.563 258.763C405.957 260.587 398.84 270.346 397.381 270.666C395.587 271.054 395.639 268.723 395.535 267.696C397.121 264.316 395.989 259.619 396.28 255.785C396.548 252.264 396.86 249.755 397.024 246.108C397.046 245.616 397.024 245.11 397.024 244.619C397.441 244.284 399.317 245.609 398.386 242.125L397.768 241.641C398.051 238.388 400.5 226.582 395.215 227.445C394.806 229.284 392.208 230.192 391.835 231.056C391.165 232.604 391.203 235.76 390.547 237.77C388.977 242.564 385.158 246.882 380.647 249.086C377.401 250.671 376.18 249.711 373.522 249.808C372.391 249.845 371.81 250.582 371.713 250.574C371.468 250.552 371.215 250.597 370.969 250.574C368.706 250.388 364.321 247.798 362.043 246.852C361.939 248.103 361.693 249.391 361.292 250.574L355.5 258.77C351.621 261.644 346.738 264.644 341.936 265.463C339.204 265.932 337.708 264.964 334.492 266.207C334.232 266.312 333.562 265.962 333.182 266.364C331.939 267.659 331.239 275.52 325.909 276.607C323.996 276.994 317.378 277.657 315.688 277.195C313.306 276.54 309.993 272.416 309.606 272.356C308.728 272.222 303.919 274.016 301.998 274.121C301.142 274.165 297.36 273.83 296.526 273.652L296.519 273.637Z" fill="#759D2F"/>
<path d="M397.017 246.093C396.6 249.324 395.736 252.502 395.528 255.771C395.32 259.039 395.2 264.361 395.528 267.681C395.632 268.709 395.58 271.046 397.374 270.652C398.833 270.331 405.95 260.572 408.555 258.748C412.635 255.89 418.002 257.557 417.101 262.783C417.049 263.088 415.761 267.465 415.627 267.681C415.568 267.786 414.206 267.741 413.498 268.872C407.945 277.768 400.828 287.818 397.017 297.458C391.367 298.523 385.627 298.173 379.888 298.203C379.992 298.813 379.724 300.213 379.888 300.421C380.9 301.664 392.766 301.508 394.776 302.669C394.27 304.59 394.3 307.367 394.032 309.369C391.56 310.337 379.716 307.069 379.151 309.749C378.436 313.143 390.905 314.29 393.287 313.836C393.071 316.196 393.369 318.853 393.287 321.28C393.176 324.704 393.287 328.092 393.287 331.33V349.196C393.287 351.883 393.868 356.744 394.032 359.99C391.88 362.35 378.741 363.355 377.982 364.412C376.314 366.727 378.979 367.248 380.997 367.434C385.858 367.896 390.153 367.181 394.776 365.938C395.498 379.077 396.183 392.261 397.009 405.393C391.069 408.303 384.362 407.559 378.369 409.547C377.714 415.167 394.679 413.016 397.754 409.859C397.195 421.941 403.196 431.537 387.377 434.842C379.225 436.547 356.669 437.217 355.307 425.879C356.2 413.864 356.617 401.752 357.555 389.76C360.905 391.07 374.788 393.705 376.098 389.313C377.275 385.383 372.019 387.549 370.664 387.452C366.614 387.162 362.222 385.561 358.299 384.549C359.446 369.139 360.942 353.908 361.277 338.394C363.741 340.084 376.098 342.332 376.173 338.03C376.188 337.263 362.892 335.372 361.277 334.672C361.277 331.337 362.386 325.181 359.788 323.506C361.046 322.292 360.629 318.116 360.533 316.062C359.557 294.831 341.393 282.436 334.321 266.059C336.555 264.197 339.532 265.686 341.766 265.314C346.723 270.332 353.751 277.009 359.788 280.329C360.138 280.523 360.391 281.922 361.269 281.818C361.15 276.376 361.463 270.882 361.269 265.441C364.649 264.786 367.292 263.289 370.947 263.952V250.552C371.193 250.574 371.438 250.53 371.691 250.552V263.207C371.691 266.178 371.624 269.178 371.691 272.14C371.706 272.639 371.677 273.131 371.691 273.629C371.714 274.374 371.654 275.126 371.691 275.863C371.818 278.133 371.587 280.493 372.808 282.562C374.617 280.128 375.533 276.637 375.414 273.629C375.644 273.16 376.024 273.071 376.158 272.14C376.225 271.664 376.113 271.135 376.158 270.652C376.523 270.704 376.716 270.607 376.888 270.272C377.438 269.178 379.582 262.381 379.88 260.974C382.233 261.302 383.409 260.401 385.106 259.128C389.543 255.785 393.473 247.448 397.002 244.597C397.002 245.088 397.024 245.594 397.002 246.086L397.017 246.093Z" fill="#E2DA9E"/>
<path d="M461.037 300.436C457.605 301.017 454.88 303.094 451.53 303.95C448.367 304.754 438.369 304.463 437.215 305.647C436.456 306.429 434.878 314.253 433.493 316.069C427.962 323 420.101 326.99 411.495 328.68C406.924 329.58 407.118 327.57 406.135 327.287C401.133 325.828 397.344 325.493 393.294 321.28C393.376 318.853 393.078 316.196 393.294 313.836C393.45 312.153 393.837 310.858 394.038 309.369C394.306 307.367 394.277 304.59 394.783 302.669C394.917 302.163 396.547 298.657 397.016 297.458C400.828 287.818 407.944 277.768 413.498 268.872C414.205 267.741 415.56 267.786 415.627 267.681C421.694 277.143 430.396 282.786 441.965 281.736C450.272 280.977 463.27 275.394 467.737 268.053C470.841 262.947 470.64 257.579 472.203 252.048C480.027 268.388 475.471 289.456 461.037 300.436Z" fill="#648827"/>
<path d="M334.485 266.192C335.504 268.947 337.499 271.15 338.951 273.637C348.562 290.088 359.564 294.838 360.539 316.069C358.835 317.163 360.376 322.106 359.758 322.732C359.14 323.357 352.723 322.933 351.606 324.258C350.125 324.064 348.807 324.451 347.11 323.915C342.562 322.478 335.437 315.913 333.256 311.543C316.991 318.823 299.147 313.3 293.504 295.634C290.876 287.401 291.434 280.664 296.519 273.637C297.345 273.815 301.134 274.158 301.99 274.106C303.911 274.001 308.72 272.207 309.598 272.341C309.986 272.401 313.298 276.525 315.68 277.18C317.37 277.642 323.988 276.979 325.901 276.592C331.231 275.505 331.931 267.644 333.174 266.349C333.554 265.954 334.224 266.297 334.485 266.192Z" fill="#648827"/>
<path d="M397.016 405.4C397.098 406.74 398.073 408.326 397.761 409.867C394.686 413.023 377.721 415.174 378.376 409.554C384.361 407.566 391.076 408.311 397.016 405.4Z" fill="#759D2F"/>
<path d="M357.562 389.767C357.696 388.025 358.172 386.41 358.306 384.556C362.229 385.569 366.621 387.169 370.671 387.459C372.026 387.556 377.281 385.39 376.105 389.32C374.795 393.713 360.911 391.077 357.562 389.767Z" fill="#759D2F"/>
<path d="M394.784 365.946C390.161 367.189 385.865 367.896 381.004 367.442C378.987 367.248 376.329 366.735 377.989 364.419C378.749 363.362 391.888 362.357 394.039 359.998C394.106 361.375 394.664 363.824 394.784 365.953V365.946Z" fill="#759D2F"/>
<path d="M361.284 334.68C362.9 335.379 376.195 337.27 376.18 338.037C376.106 342.34 363.748 340.092 361.284 338.402C361.314 337.166 361.284 335.915 361.284 334.68Z" fill="#759D2F"/>
<path d="M461.037 300.436C458.008 302.744 454.941 304.307 451.36 305.647C446.618 305.677 441.898 307.441 437.216 305.647C438.37 304.463 448.367 304.754 451.531 303.95C454.881 303.094 457.606 301.017 461.037 300.436Z" fill="#557D1F"/>
<path d="M451.36 305.647C450.251 306.064 449.729 306.838 447.95 307.069C442.851 307.739 439.203 305.014 436.546 310.56C435.042 313.694 435.809 313.181 433.501 316.069C434.886 314.253 436.464 306.429 437.223 305.647C441.906 307.441 446.625 305.677 451.367 305.647H451.36Z" fill="#E2DA9E"/>
<path d="M359.795 323.513C359.743 323.565 359.08 323.439 358.567 323.781C358.299 323.952 358.314 324.935 357.8 325.032C357.138 325.158 352.924 324.429 351.606 324.258C352.723 322.94 359.133 323.372 359.758 322.732C360.383 322.091 358.835 317.163 360.54 316.069C360.636 318.124 361.053 322.3 359.795 323.513Z" fill="#557D1F"/>
<path d="M397.761 241.626C397.724 242.103 396.994 242.884 397.016 244.604C393.488 247.455 389.557 255.793 385.12 259.135C383.423 260.408 382.247 261.309 379.895 260.981C380.721 257.096 380.713 253.031 380.639 249.071C385.15 246.867 388.969 242.549 390.54 237.755C391.195 235.745 391.158 232.589 391.828 231.041C392.2 230.177 394.798 229.269 395.207 227.43C400.493 226.567 398.044 238.373 397.761 241.626Z" fill="#C1D493"/>
<path d="M361.284 250.559C359.438 256.009 361.09 257.49 361.284 263.215L359.795 280.336C353.758 277.016 349.864 274.188 344.906 269.17C343.916 268.173 342.844 266.587 341.929 265.448C346.73 264.629 351.621 261.629 355.492 258.756L361.284 250.559Z" fill="#648827"/>
<path d="M380.639 249.071C380.713 253.031 380.72 257.095 379.894 260.981C379.596 262.381 377.452 269.185 376.902 270.279C376.73 270.622 376.537 270.718 376.172 270.659C376.06 270.644 375.867 269.929 375.442 269.907L376.172 272.148C376.038 273.078 375.658 273.168 375.428 273.637C374.728 275.051 373.604 277.813 372.45 275.87L371.705 273.637C371.691 273.138 371.72 272.647 371.705 272.148C372.949 270.16 372.971 265.351 371.705 263.215V250.559C371.802 250.567 372.383 249.83 373.514 249.793C376.172 249.696 377.393 250.656 380.639 249.071Z" fill="#648827"/>
<path d="M370.962 250.56V263.959C367.307 263.297 364.664 264.793 361.284 265.448C361.262 264.704 361.307 263.959 361.284 263.215C361.091 257.49 359.438 256.009 361.284 250.56C361.686 249.376 361.939 248.088 362.036 246.837C364.314 247.783 368.699 250.373 370.962 250.56Z" fill="#C1D493"/>
<path d="M396.272 255.77H395.527C395.736 252.502 396.599 249.324 397.016 246.093C396.852 249.741 396.54 252.249 396.272 255.77Z" fill="#648827"/>
<path d="M395.527 267.681C395.2 264.361 395.311 259.173 395.527 255.771H396.272C395.981 259.604 397.113 264.302 395.527 267.681Z" fill="#557D1F"/>
<path d="M397.761 241.626L398.378 242.11C399.309 245.602 397.433 244.269 397.016 244.604C396.994 242.884 397.723 242.103 397.761 241.626Z" fill="#648827"/>
<path d="M394.039 309.369C393.838 310.858 393.451 312.153 393.295 313.836C390.913 314.29 378.436 313.151 379.158 309.749C379.724 307.061 391.575 310.337 394.039 309.369Z" fill="#759D2F"/>
<path d="M397.016 297.458C396.547 298.657 394.917 302.163 394.783 302.669C392.773 301.508 380.907 301.664 379.894 300.421C379.731 300.213 379.991 298.813 379.894 298.203C385.626 298.173 391.373 298.515 397.024 297.458H397.016Z" fill="#759D2F"/>
<path d="M375.428 273.637C375.547 276.637 374.632 280.128 372.823 282.57C371.609 280.508 371.833 278.14 371.706 275.87H372.45C373.604 277.813 374.728 275.051 375.428 273.637Z" fill="#557D1F"/>
<path d="M361.284 265.448C361.47 270.882 361.158 276.384 361.284 281.825C360.406 281.937 360.153 280.53 359.803 280.337L361.292 263.215C361.314 263.959 361.269 264.704 361.292 265.448H361.284Z" fill="#4C6B21"/>
<path d="M371.706 272.148C371.639 269.185 371.706 266.185 371.706 263.215C372.971 265.351 372.949 270.16 371.706 272.148Z" fill="#4C6B21"/>
<path d="M376.173 270.659C376.128 271.143 376.24 271.671 376.173 272.148L375.443 269.907C375.868 269.929 376.061 270.644 376.173 270.659Z" fill="#557D1F"/>
<path d="M372.45 275.87H371.706C371.669 275.133 371.728 274.381 371.706 273.637L372.45 275.87Z" fill="#4C6B21"/>
</g>
<path d="M232.256 351.059C222.01 380.857 152.217 363.024 152.217 363.024C136.651 360.136 122.84 324.078 141.811 308.782C157.802 295.889 171.67 293.925 192.236 293.626C213.852 293.311 232.911 291.24 245.462 308.782C251.275 316.905 241.913 322.973 232.256 351.059Z" fill="#9BD552"/>
<path d="M232.256 351.059C222.01 380.857 152.217 363.024 152.217 363.024C136.651 360.136 122.84 324.078 141.811 308.782C157.802 295.889 171.67 293.925 192.236 293.626C213.852 293.311 232.911 291.24 245.462 308.782C251.275 316.905 241.913 322.973 232.256 351.059Z" fill="black" fill-opacity="0.1"/>
<g clip-path="url(#clip1_1953_2018)">
<path d="M287.175 173.94C283.013 174.644 279.709 177.162 275.647 178.201C271.81 179.175 259.687 178.823 258.287 180.259C257.367 181.207 255.453 190.694 253.774 192.897C247.066 201.302 237.534 206.14 227.098 208.189C221.555 209.282 221.79 206.844 220.598 206.501C214.532 204.732 209.937 204.326 205.026 199.216C205.125 196.273 204.764 193.051 205.026 190.189C205.215 188.149 205.685 186.578 205.929 184.772C206.254 182.344 206.218 178.977 206.831 176.648C206.994 176.034 208.971 171.782 209.54 170.329C214.162 158.638 222.792 146.451 229.526 135.663C230.384 134.291 232.027 134.345 232.108 134.219C239.465 145.693 250.018 152.536 264.047 151.263C274.122 150.342 289.883 143.571 295.3 134.67C299.064 128.478 298.82 121.969 300.716 115.262C310.204 135.077 304.679 160.624 287.175 173.94Z" fill="#648827"/>
<path d="M287.175 173.94C283.501 176.738 279.781 178.634 275.439 180.259C269.689 180.295 263.965 182.434 258.287 180.259C259.686 178.823 271.81 179.175 275.647 178.201C279.709 177.162 283.013 174.644 287.175 173.94Z" fill="#557D1F"/>
<path d="M275.439 180.259C274.094 180.764 273.462 181.703 271.304 181.983C265.121 182.795 260.697 179.491 257.474 186.217C255.651 190.017 256.581 189.395 253.782 192.897C255.461 190.694 257.375 181.207 258.296 180.259C263.974 182.434 269.698 180.295 275.448 180.259H275.439Z" fill="#E2DA9E"/>
<path d="M208.637 119.775H207.734C207.987 115.812 209.034 111.958 209.54 108.04C209.341 112.463 208.962 115.505 208.637 119.775Z" fill="#648827"/>
<path d="M207.734 134.219C207.337 130.193 207.472 123.901 207.734 119.775H208.637C208.285 124.424 209.657 130.121 207.734 134.219Z" fill="#557D1F"/>
<path d="M210.442 102.623L211.192 103.21C212.32 107.444 210.045 105.828 209.54 106.234C209.513 104.149 210.397 103.201 210.442 102.623Z" fill="#648827"/>
<path d="M87.6695 141.441C75.5006 138.832 65.2365 119.965 64.2164 108.482C61.4992 77.9154 84.9523 55.4462 114.743 54.7782C114.129 -10.5981 212.094 -21.4039 223.992 43.9544C236.278 38.0775 247.12 36.7144 260.074 41.7156C277.606 48.4771 285.956 65.6111 283.329 83.8915C282.553 89.2538 279.294 94.1647 277.254 99.0214C287.644 99.6894 296.31 106.054 300.725 115.28C298.829 121.987 299.073 128.496 295.308 134.689C289.901 143.59 274.13 150.36 264.056 151.281C250.027 152.554 239.474 145.72 232.117 134.237C232.279 133.975 233.841 128.667 233.904 128.297C234.996 121.96 228.497 119.938 223.541 123.404C220.381 125.616 211.751 137.451 209.982 137.839C207.806 138.309 207.869 135.483 207.743 134.237C209.666 130.139 208.293 124.443 208.645 119.793C208.97 115.523 209.35 112.481 209.548 108.058C209.575 107.462 209.548 106.848 209.548 106.252C210.054 105.846 212.329 107.453 211.2 103.228L210.451 102.641C210.794 98.6964 213.764 84.379 207.355 85.4262C206.858 87.6559 203.708 88.7573 203.256 89.8044C202.444 91.6821 202.489 95.5097 201.694 97.9471C199.79 103.761 195.159 108.997 189.688 111.669C185.752 113.592 184.272 112.427 181.049 112.544C179.677 112.59 178.972 113.483 178.855 113.474C178.557 113.447 178.25 113.501 177.952 113.474C175.208 113.249 169.891 110.107 167.129 108.961C167.002 110.477 166.704 112.039 166.217 113.474L159.193 123.413C154.49 126.898 148.568 130.536 142.746 131.529C139.433 132.098 137.618 130.924 133.718 132.432C133.402 132.558 132.59 132.134 132.129 132.621C130.622 134.192 129.773 143.725 123.31 145.043C120.99 145.512 112.964 146.316 110.915 145.756C108.026 144.962 104.009 139.961 103.54 139.888C102.474 139.726 96.6428 141.901 94.3137 142.028C93.2756 142.082 88.6896 141.676 87.6786 141.459L87.6695 141.441Z" fill="#759D2F"/>
<path d="M209.539 108.04C209.034 111.957 207.987 115.812 207.734 119.775C207.481 123.738 207.337 130.193 207.734 134.219C207.86 135.465 207.797 138.299 209.973 137.821C211.742 137.433 220.372 125.598 223.532 123.386C228.479 119.92 234.988 121.942 233.895 128.279C233.832 128.649 232.27 133.957 232.108 134.219C232.036 134.345 230.384 134.291 229.526 135.663C222.792 146.451 214.161 158.638 209.539 170.329C202.688 171.619 195.727 171.195 188.767 171.231C188.894 171.972 188.569 173.669 188.767 173.921C189.995 175.429 204.385 175.239 206.822 176.648C206.208 178.977 206.244 182.344 205.919 184.772C202.922 185.946 188.56 181.983 187.874 185.233C187.007 189.349 202.128 190.739 205.017 190.189C204.755 193.05 205.116 196.273 205.017 199.216C204.881 203.369 205.017 207.476 205.017 211.403V233.069C205.017 236.328 205.721 242.223 205.919 246.159C203.31 249.02 187.377 250.239 186.456 251.521C184.434 254.328 187.666 254.96 190.112 255.186C196.007 255.746 201.216 254.879 206.822 253.371C207.698 269.305 208.528 285.292 209.53 301.217C202.326 304.746 194.193 303.844 186.926 306.254C186.131 313.07 206.705 310.461 210.433 306.633C209.756 321.284 217.032 332.921 197.849 336.929C187.964 338.996 160.611 339.809 158.959 326.06C160.042 311.49 160.548 296.802 161.685 282.259C165.747 283.848 182.584 287.044 184.172 281.717C185.599 276.951 179.225 279.578 177.582 279.461C172.671 279.109 167.345 277.168 162.588 275.94C163.978 257.253 165.793 238.783 166.199 219.97C169.187 222.019 184.172 224.746 184.263 219.528C184.281 218.598 168.158 216.305 166.199 215.456C166.199 211.412 167.544 203.947 164.393 201.915C165.919 200.444 165.413 195.38 165.296 192.888C164.114 167.142 142.087 152.111 133.511 132.251C136.219 129.994 139.83 131.8 142.538 131.348C148.55 137.433 157.072 145.53 164.393 149.557C164.818 149.791 165.125 151.488 166.19 151.362C166.045 144.763 166.425 138.101 166.19 131.502C170.288 130.707 173.493 128.893 177.925 129.696V113.447C178.223 113.474 178.521 113.42 178.828 113.447V128.794C178.828 132.395 178.747 136.034 178.828 139.626C178.846 140.231 178.81 140.827 178.828 141.432C178.855 142.335 178.783 143.246 178.828 144.14C178.982 146.893 178.702 149.755 180.182 152.265C182.376 149.313 183.486 145.079 183.342 141.432C183.622 140.863 184.082 140.755 184.245 139.626C184.326 139.049 184.19 138.408 184.245 137.821C184.687 137.884 184.922 137.767 185.129 137.361C185.797 136.034 188.397 127.792 188.758 126.085C191.611 126.483 193.037 125.39 195.096 123.847C200.476 119.793 205.242 109.683 209.521 106.225C209.521 106.821 209.548 107.435 209.521 108.031L209.539 108.04Z" fill="#E2DA9E"/>
<path d="M133.709 132.414C134.946 135.754 137.365 138.426 139.126 141.441C150.78 161.392 164.122 167.151 165.305 192.897C163.238 194.224 165.106 200.218 164.357 200.977C163.608 201.735 155.826 201.22 154.472 202.827C152.676 202.593 151.078 203.062 149.02 202.412C143.504 200.67 134.865 192.708 132.22 187.409C112.495 196.237 90.8562 189.539 84.0135 168.117C80.8268 158.133 81.5039 149.963 87.6696 141.441C88.6716 141.658 93.2665 142.073 94.3047 142.01C96.6337 141.883 102.465 139.708 103.531 139.87C104 139.943 108.017 144.944 110.906 145.738C112.955 146.298 120.981 145.494 123.301 145.025C129.764 143.707 130.613 134.174 132.12 132.603C132.581 132.125 133.393 132.54 133.709 132.414Z" fill="#648827"/>
<path d="M209.54 301.226C209.639 302.851 210.822 304.773 210.443 306.642C206.714 310.47 186.141 313.079 186.935 306.263C194.194 303.853 202.336 304.755 209.54 301.226Z" fill="#759D2F"/>
<path d="M161.694 282.268C161.857 280.156 162.435 278.197 162.597 275.949C167.355 277.177 172.681 279.118 177.592 279.47C179.235 279.587 185.608 276.96 184.182 281.726C182.593 287.053 165.757 283.857 161.694 282.268Z" fill="#759D2F"/>
<path d="M206.831 253.38C201.225 254.888 196.016 255.746 190.122 255.195C187.675 254.96 184.452 254.337 186.465 251.53C187.386 250.248 203.32 249.029 205.928 246.168C206.01 247.838 206.687 250.808 206.831 253.39V253.38Z" fill="#759D2F"/>
<path d="M166.208 215.466C168.167 216.314 184.29 218.607 184.272 219.537C184.182 224.755 169.196 222.028 166.208 219.979C166.244 218.481 166.208 216.964 166.208 215.466Z" fill="#759D2F"/>
<path d="M164.403 201.924C164.34 201.988 163.536 201.834 162.913 202.249C162.588 202.457 162.606 203.649 161.983 203.766C161.18 203.92 156.071 203.035 154.473 202.827C155.827 201.229 163.599 201.753 164.358 200.977C165.116 200.2 163.238 194.224 165.306 192.897C165.423 195.389 165.928 200.453 164.403 201.924Z" fill="#557D1F"/>
<path d="M210.442 102.623C210.397 103.201 209.512 104.149 209.539 106.234C205.26 109.692 200.494 119.802 195.114 123.856C193.055 125.399 191.629 126.492 188.776 126.095C189.778 121.382 189.769 116.453 189.679 111.651C195.15 108.979 199.781 103.743 201.686 97.9291C202.48 95.4917 202.435 91.6641 203.247 89.7864C203.699 88.7392 206.849 87.6379 207.346 85.4081C213.755 84.3609 210.785 98.6784 210.442 102.623Z" fill="#C1D493"/>
<path d="M166.208 113.456C163.969 120.064 165.973 121.861 166.208 128.803L164.402 149.566C157.081 145.539 152.36 142.109 146.347 136.025C145.147 134.815 143.847 132.892 142.736 131.511C148.559 130.518 154.49 126.88 159.184 123.395L166.208 113.456Z" fill="#648827"/>
<path d="M189.679 111.651C189.769 116.453 189.778 121.382 188.776 126.094C188.415 127.792 185.815 136.043 185.147 137.37C184.94 137.785 184.705 137.902 184.262 137.83C184.127 137.812 183.892 136.945 183.378 136.918L184.262 139.636C184.1 140.764 183.64 140.872 183.36 141.441C182.511 143.156 181.148 146.505 179.749 144.149L178.846 141.441C178.828 140.836 178.864 140.24 178.846 139.636C180.354 137.225 180.381 131.394 178.846 128.803V113.456C178.963 113.465 179.668 112.571 181.04 112.526C184.262 112.409 185.743 113.573 189.679 111.651Z" fill="#648827"/>
<path d="M177.944 113.456V129.705C173.512 128.902 170.307 130.716 166.208 131.511C166.181 130.608 166.236 129.705 166.208 128.803C165.974 121.861 163.97 120.064 166.208 113.456C166.696 112.021 167.003 110.459 167.12 108.942C169.883 110.089 175.2 113.23 177.944 113.456Z" fill="#C1D493"/>
<path d="M205.929 184.772C205.685 186.578 205.216 188.149 205.026 190.189C202.137 190.739 187.008 189.358 187.883 185.233C188.569 181.974 202.941 185.946 205.929 184.772Z" fill="#759D2F"/>
<path d="M209.539 170.329C208.971 171.782 206.994 176.034 206.831 176.648C204.394 175.24 190.004 175.429 188.776 173.922C188.578 173.669 188.894 171.972 188.776 171.231C195.727 171.195 202.696 171.611 209.548 170.329H209.539Z" fill="#759D2F"/>
<path d="M183.36 141.441C183.505 145.079 182.394 149.313 180.201 152.274C178.729 149.773 179 146.902 178.847 144.149H179.749C181.149 146.505 182.512 143.156 183.36 141.441Z" fill="#557D1F"/>
<path d="M166.209 131.511C166.434 138.101 166.055 144.772 166.209 151.371C165.143 151.506 164.836 149.8 164.412 149.566L166.218 128.803C166.245 129.705 166.191 130.608 166.218 131.511H166.209Z" fill="#4C6B21"/>
<path d="M178.847 139.635C178.765 136.043 178.847 132.405 178.847 128.803C180.381 131.393 180.354 137.225 178.847 139.635Z" fill="#4C6B21"/>
<path d="M184.264 137.83C184.209 138.417 184.345 139.058 184.264 139.635L183.379 136.918C183.893 136.945 184.128 137.812 184.264 137.83Z" fill="#557D1F"/>
<path d="M179.749 144.149H178.846C178.801 143.255 178.873 142.344 178.846 141.441L179.749 144.149Z" fill="#4C6B21"/>
</g>
<path d="M158.118 523.486C166.525 547.936 223.789 533.304 223.789 533.304C236.56 530.935 247.892 501.35 232.326 488.799C219.206 478.22 207.827 476.609 190.953 476.364C173.218 476.105 157.58 474.406 147.282 488.799C142.513 495.464 150.194 500.442 158.118 523.486Z" fill="#9BD552"/>
<path d="M158.118 523.486C166.525 547.936 223.789 533.304 223.789 533.304C236.56 530.935 247.892 501.35 232.326 488.799C219.206 478.22 207.827 476.609 190.953 476.364C173.218 476.105 157.58 474.406 147.282 488.799C142.513 495.464 150.194 500.442 158.118 523.486Z" fill="black" fill-opacity="0.1"/>
<g clip-path="url(#clip2_1953_2018)">
<path d="M110.421 355.051C100.436 352.91 92.0149 337.43 91.1779 328.008C88.9484 302.929 108.191 284.493 132.634 283.945C132.13 230.304 212.51 221.438 222.272 275.064C232.353 270.242 241.248 269.124 251.877 273.227C266.261 278.775 273.112 292.833 270.957 307.832C270.32 312.232 267.646 316.261 265.972 320.246C274.498 320.794 281.608 326.016 285.23 333.586C283.675 339.089 283.875 344.429 280.786 349.51C276.349 356.813 263.409 362.369 255.143 363.124C243.633 364.168 234.975 358.561 228.938 349.14C229.071 348.925 230.353 344.57 230.405 344.266C231.301 339.067 225.968 337.407 221.901 340.252C219.309 342.066 212.228 351.777 210.776 352.095C208.991 352.48 209.043 350.162 208.939 349.14C210.517 345.777 209.391 341.103 209.68 337.289C209.947 333.786 210.258 331.289 210.421 327.66C210.443 327.171 210.421 326.668 210.421 326.179C210.836 325.845 212.702 327.164 211.776 323.697L211.162 323.216C211.443 319.979 213.88 308.232 208.621 309.091C208.214 310.921 205.629 311.824 205.258 312.683C204.592 314.224 204.629 317.365 203.977 319.364C202.414 324.134 198.614 328.43 194.126 330.623C190.896 332.2 189.682 331.245 187.037 331.341C185.912 331.378 185.334 332.112 185.238 332.104C184.993 332.082 184.741 332.126 184.497 332.104C182.245 331.919 177.883 329.341 175.616 328.401C175.512 329.645 175.268 330.926 174.868 332.104L169.105 340.259C165.246 343.118 160.388 346.103 155.61 346.918C152.892 347.385 151.403 346.422 148.203 347.659C147.944 347.762 147.277 347.414 146.9 347.814C145.663 349.103 144.966 356.925 139.663 358.006C137.76 358.391 131.175 359.05 129.494 358.591C127.123 357.939 123.827 353.836 123.442 353.777C122.568 353.643 117.783 355.428 115.872 355.532C115.021 355.576 111.258 355.243 110.428 355.065L110.421 355.051Z" fill="#759D2F"/>
<path d="M210.414 327.645C209.999 330.86 209.14 334.023 208.932 337.274C208.725 340.526 208.606 345.822 208.932 349.125C209.036 350.147 208.984 352.473 210.769 352.08C212.221 351.762 219.302 342.052 221.894 340.237C225.953 337.393 231.294 339.052 230.397 344.251C230.346 344.555 229.064 348.91 228.931 349.125C228.872 349.229 227.516 349.184 226.812 350.31C221.287 359.161 214.206 369.161 210.414 378.753C204.792 379.812 199.081 379.464 193.371 379.493C193.474 380.101 193.208 381.493 193.371 381.7C194.378 382.937 206.184 382.782 208.184 383.937C207.681 385.848 207.71 388.611 207.444 390.604C204.984 391.566 193.2 388.315 192.637 390.981C191.926 394.359 204.333 395.499 206.703 395.048C206.488 397.396 206.784 400.04 206.703 402.454C206.592 405.862 206.703 409.232 206.703 412.454V430.23C206.703 432.904 207.281 437.741 207.444 440.97C205.303 443.318 192.23 444.318 191.474 445.37C189.815 447.673 192.467 448.192 194.474 448.377C199.311 448.836 203.585 448.125 208.184 446.888C208.903 459.961 209.584 473.079 210.406 486.145C204.496 489.041 197.822 488.3 191.86 490.278C191.208 495.87 208.088 493.729 211.147 490.589C210.591 502.61 216.561 512.157 200.822 515.446C192.711 517.142 170.269 517.809 168.913 506.528C169.802 494.574 170.217 482.523 171.15 470.59C174.483 471.894 188.297 474.516 189.6 470.146C190.771 466.235 185.541 468.39 184.193 468.294C180.164 468.005 175.794 466.413 171.891 465.405C173.031 450.073 174.52 434.919 174.853 419.483C177.305 421.164 189.6 423.401 189.675 419.12C189.689 418.357 176.461 416.476 174.853 415.779C174.853 412.461 175.957 406.336 173.372 404.669C174.624 403.462 174.209 399.307 174.113 397.262C173.142 376.138 155.07 363.806 148.033 347.511C150.255 345.659 153.218 347.14 155.44 346.77C160.373 351.762 167.365 358.406 173.372 361.709C173.72 361.902 173.972 363.294 174.846 363.191C174.727 357.776 175.039 352.31 174.846 346.896C178.209 346.244 180.838 344.755 184.475 345.414V332.082C184.719 332.104 184.964 332.06 185.216 332.082V344.674C185.216 347.629 185.149 350.614 185.216 353.562C185.23 354.058 185.201 354.547 185.216 355.043C185.238 355.784 185.179 356.532 185.216 357.265C185.341 359.524 185.112 361.872 186.327 363.931C188.126 361.509 189.038 358.036 188.919 355.043C189.149 354.577 189.526 354.488 189.66 353.562C189.726 353.088 189.615 352.562 189.66 352.08C190.023 352.132 190.215 352.036 190.386 351.703C190.934 350.614 193.067 343.851 193.363 342.452C195.704 342.777 196.874 341.881 198.563 340.615C202.977 337.289 206.888 328.993 210.399 326.156C210.399 326.645 210.421 327.149 210.399 327.638L210.414 327.645Z" fill="#E2DA9E"/>
<path d="M274.112 381.715C270.697 382.293 267.987 384.359 264.653 385.211C261.506 386.011 251.558 385.722 250.41 386.9C249.655 387.678 248.084 395.462 246.707 397.27C241.203 404.165 233.382 408.135 224.819 409.817C220.272 410.713 220.464 408.713 219.486 408.432C214.509 406.98 210.739 406.647 206.71 402.454C206.791 400.04 206.495 397.396 206.71 395.048C206.865 393.374 207.25 392.085 207.45 390.603C207.717 388.611 207.687 385.848 208.191 383.937C208.324 383.434 209.946 379.945 210.413 378.752C214.205 369.161 221.286 359.161 226.812 350.31C227.515 349.184 228.864 349.229 228.93 349.125C234.967 358.539 243.625 364.154 255.136 363.109C263.402 362.354 276.334 356.799 280.778 349.495C283.867 344.414 283.667 339.074 285.222 333.571C293.007 349.829 288.474 370.79 274.112 381.715Z" fill="#648827"/>
<path d="M148.196 347.644C149.21 350.384 151.195 352.577 152.64 355.051C162.202 371.42 173.149 376.145 174.12 397.27C172.424 398.358 173.957 403.277 173.342 403.899C172.727 404.521 166.342 404.099 165.231 405.417C163.757 405.225 162.446 405.61 160.758 405.076C156.232 403.647 149.144 397.114 146.974 392.766C130.79 400.01 113.035 394.514 107.421 376.938C104.806 368.746 105.362 362.043 110.421 355.051C111.243 355.228 115.013 355.569 115.865 355.517C117.776 355.414 122.561 353.628 123.435 353.762C123.82 353.821 127.116 357.924 129.486 358.576C131.167 359.036 137.752 358.376 139.656 357.991C144.959 356.91 145.655 349.088 146.892 347.799C147.27 347.407 147.936 347.747 148.196 347.644Z" fill="#648827"/>
<path d="M210.413 486.152C210.494 487.485 211.465 489.063 211.153 490.596C208.094 493.736 191.214 495.877 191.866 490.285C197.821 488.307 204.502 489.048 210.413 486.152Z" fill="#759D2F"/>
<path d="M171.157 470.598C171.291 468.864 171.765 467.257 171.898 465.413C175.801 466.42 180.171 468.013 184.201 468.301C185.549 468.398 190.778 466.242 189.608 470.153C188.304 474.523 174.49 471.901 171.157 470.598Z" fill="#759D2F"/>
<path d="M208.192 446.896C203.592 448.133 199.318 448.836 194.482 448.384C192.474 448.192 189.83 447.681 191.482 445.377C192.237 444.325 205.31 443.326 207.451 440.978C207.518 442.348 208.073 444.785 208.192 446.903V446.896Z" fill="#759D2F"/>
<path d="M174.86 415.787C176.468 416.483 189.696 418.364 189.681 419.127C189.607 423.408 177.312 421.172 174.86 419.49C174.89 418.261 174.86 417.016 174.86 415.787Z" fill="#759D2F"/>
<path d="M274.112 381.715C271.097 384.011 268.046 385.567 264.483 386.9C259.765 386.93 255.069 388.685 250.41 386.9C251.558 385.722 261.506 386.011 264.654 385.211C267.987 384.359 270.698 382.293 274.112 381.715Z" fill="#557D1F"/>
<path d="M264.483 386.9C263.379 387.315 262.861 388.085 261.091 388.315C256.017 388.981 252.388 386.27 249.743 391.789C248.247 394.907 249.01 394.396 246.714 397.27C248.092 395.462 249.662 387.678 250.417 386.9C255.076 388.685 259.772 386.93 264.49 386.9H264.483Z" fill="#E2DA9E"/>
<path d="M173.379 404.677C173.327 404.728 172.668 404.602 172.157 404.943C171.89 405.114 171.905 406.091 171.394 406.188C170.735 406.313 166.542 405.588 165.231 405.417C166.342 404.106 172.72 404.536 173.342 403.899C173.964 403.262 172.423 398.358 174.12 397.27C174.216 399.314 174.631 403.469 173.379 404.677Z" fill="#557D1F"/>
<path d="M211.154 323.201C211.117 323.675 210.391 324.453 210.414 326.164C206.903 329.001 202.992 337.296 198.578 340.622C196.889 341.889 195.718 342.785 193.378 342.459C194.2 338.593 194.193 334.548 194.119 330.608C198.607 328.416 202.407 324.12 203.97 319.35C204.622 317.35 204.584 314.209 205.251 312.669C205.621 311.809 208.206 310.906 208.614 309.076C213.873 308.217 211.436 319.964 211.154 323.201Z" fill="#C1D493"/>
<path d="M174.86 332.089C173.023 337.511 174.668 338.985 174.86 344.681L173.379 361.717C167.372 358.413 163.498 355.599 158.565 350.606C157.58 349.614 156.514 348.036 155.603 346.903C160.38 346.088 165.246 343.103 169.098 340.244L174.86 332.089Z" fill="#648827"/>
<path d="M194.118 330.608C194.192 334.548 194.2 338.592 193.377 342.459C193.081 343.851 190.948 350.621 190.4 351.71C190.229 352.051 190.037 352.147 189.674 352.088C189.563 352.073 189.37 351.362 188.948 351.34L189.674 353.569C189.541 354.495 189.163 354.584 188.933 355.051C188.237 356.458 187.119 359.206 185.971 357.273L185.23 355.051C185.215 354.554 185.245 354.065 185.23 353.569C186.467 351.592 186.489 346.807 185.23 344.681V332.089C185.326 332.097 185.904 331.363 187.03 331.326C189.674 331.23 190.889 332.186 194.118 330.608Z" fill="#648827"/>
<path d="M184.489 332.089V345.422C180.852 344.762 178.223 346.251 174.86 346.903C174.838 346.162 174.882 345.422 174.86 344.681C174.667 338.985 173.023 337.511 174.86 332.089C175.26 330.912 175.512 329.63 175.608 328.386C177.875 329.327 182.237 331.904 184.489 332.089Z" fill="#C1D493"/>
<path d="M209.672 337.274H208.932C209.139 334.023 209.998 330.86 210.413 327.645C210.25 331.275 209.939 333.771 209.672 337.274Z" fill="#648827"/>
<path d="M208.932 349.125C208.606 345.822 208.718 340.659 208.932 337.274H209.673C209.384 341.089 210.51 345.762 208.932 349.125Z" fill="#557D1F"/>
<path d="M211.154 323.201L211.769 323.683C212.695 327.156 210.828 325.831 210.414 326.164C210.391 324.453 211.117 323.675 211.154 323.201Z" fill="#648827"/>
<path d="M207.451 390.603C207.251 392.085 206.865 393.374 206.71 395.048C204.34 395.499 191.926 394.366 192.644 390.981C193.207 388.307 204.999 391.566 207.451 390.603Z" fill="#759D2F"/>
<path d="M210.413 378.752C209.947 379.945 208.325 383.434 208.191 383.937C206.191 382.782 194.385 382.937 193.377 381.7C193.215 381.493 193.474 380.1 193.377 379.493C199.081 379.463 204.799 379.804 210.421 378.752H210.413Z" fill="#759D2F"/>
<path d="M188.934 355.051C189.052 358.035 188.141 361.509 186.341 363.939C185.134 361.887 185.356 359.532 185.23 357.273H185.971C187.119 359.206 188.238 356.458 188.934 355.051Z" fill="#557D1F"/>
<path d="M174.861 346.903C175.046 352.31 174.735 357.784 174.861 363.198C173.987 363.309 173.735 361.909 173.387 361.717L174.868 344.681C174.89 345.422 174.846 346.162 174.868 346.903H174.861Z" fill="#4C6B21"/>
<path d="M185.23 353.569C185.163 350.621 185.23 347.636 185.23 344.681C186.489 346.807 186.467 351.592 185.23 353.569Z" fill="#4C6B21"/>
<path d="M189.674 352.088C189.63 352.569 189.741 353.095 189.674 353.569L188.948 351.34C189.37 351.362 189.563 352.073 189.674 352.088Z" fill="#557D1F"/>
<path d="M185.971 357.273H185.23C185.193 356.539 185.252 355.791 185.23 355.051L185.971 357.273Z" fill="#4C6B21"/>
</g>
<defs>
<clipPath id="clip0_1953_2018">
<rect width="199" height="278.81" fill="white" transform="translate(277 157)"/>
</clipPath>
<clipPath id="clip1_1953_2018">
<rect width="241.32" height="338.103" fill="white" transform="translate(64)"/>
</clipPath>
<clipPath id="clip2_1953_2018">
<rect width="198" height="277.409" fill="white" transform="translate(91 239)"/>
</clipPath>
</defs>
</svg>
