<svg width="724" height="434" viewBox="0 0 724 434" fill="none" xmlns="http://www.w3.org/2000/svg">
<path d="M723.21 128.34C723.34 131.89 721.83 134.43 718.9 136.12C716.39 137.56 713.81 139.05 711.09 139.99C701.82 143.2 692.99 147.43 683.98 151.25C677.27 154.1 670.66 157.13 664 160.1C662.12 160.94 660.32 160.83 658.72 159.53C657.44 158.49 656.16 157.39 655.04 156.16C646.68 147.1 638.43 137.96 630.05 128.95C624.2 122.71 618.14 116.62 612.21 110.46C611.24 109.47 610.15 109.18 608.81 109.44C595.05 112.23 584.36 119.63 576.16 130.88C569.06 140.6 564.49 151.49 561.33 163.03C558.72 172.46 556.97 182.04 556 191.79C555.66 195.52 555.11 199.23 554.98 202.97C554.93 204.72 554.01 205.56 552.58 206.21C546.13 209.16 539.73 212.19 533.25 215.09C523.95 219.24 514.6 223.34 505.25 227.42C502.01 228.86 498.75 230.21 495.48 231.57C494.12 232.12 492.82 232.61 491.56 233.42C489 235.04 487.41 234.88 485.37 233C484.14 231.85 483.07 230.57 481.92 229.34C479.96 227.2 478.13 224.87 475.99 222.94C462.12 210.51 449.4 196.95 436.08 183.97C432.95 180.91 429.81 177.86 426.76 174.7C425.3 173.16 423.73 172.56 421.72 173.24C414.8 175.64 408.3 178.75 402.39 183.24C391.24 191.7 383.92 202.98 378.57 215.63C373.95 226.57 371 238.04 369.27 249.84C367.78 259.95 366.81 270.06 366.74 280.29C366.71 283.4 366.27 286.51 365.85 289.59C363.26 292.31 361.88 292.85 360.57 293.48C343.25 301.73 325.96 309.99 308.65 318.24C305.7 319.96 303.92 319.62 302.23 318.55C300.14 317.19 298.03 315.83 296.07 314.32C294.42 313.04 292.99 311.5 291.47 310.06C281.34 300.4 271.23 290.73 261.07 281.12C256.08 276.37 250.96 271.74 245.95 267.04C244.91 266.05 243.91 266 242.58 266.54C228.24 272.36 217.64 282.21 210.3 295.74C204.79 305.9 201.21 316.74 199.1 328.05C197.61 336.02 196.49 344.03 195.47 352.08C195.03 355.79 195.21 359.58 195.13 363.34C195.1 364.59 195.31 365.85 195.18 367.1C194.92 370.18 193.67 372.51 190.64 373.97C182.94 377.7 175.34 381.6 167.79 385.62C147 396.69 125.82 407.01 104.77 417.59C96.7802 421.61 88.9402 426.03 81.0302 430.2C79.2002 431.17 77.3002 432.05 75.3902 432.86C71.9202 434.27 68.9902 433.17 67.8202 429.78C66.4102 425.65 65.3402 421.42 64.8702 417.06C64.3202 411.89 63.4602 406.74 62.7502 401.6C62.2502 398.1 61.9702 394.6 61.3102 391.1C60.1902 385.17 59.5302 379.16 58.6202 373.21C58.3302 371.38 57.7302 369.58 57.4702 367.73C57.2902 366.22 56.7102 364.99 55.7202 363.84C50.3402 357.57 46.4202 352.77 42.2702 348.17C35.0902 340.28 28.6102 331.87 22.1602 323.41C20.5102 321.24 19.0802 318.92 17.3302 316.88C14.4602 313.54 14.5902 310.12 16.4702 306.49C17.7802 303.88 19.0602 301.24 20.3902 298.65C26.1902 287.55 32.5102 276.76 39.5602 266.42C46.8702 255.74 54.5802 245.4 62.9602 235.52C71.2102 225.8 79.8302 216.45 88.5602 207.18C94.8502 200.47 101.17 193.78 107.83 187.49C121.62 174.41 135.49 161.48 150.14 149.36C169.13 133.66 188.82 118.93 209.17 105.04C219.67 97.8801 230.48 91.1701 241.45 84.7201C256.02 76.1501 270.96 68.3401 286.29 61.2101C307.24 51.4201 328.65 42.8001 350.75 35.9301C366.66 30.9701 382.69 26.6801 399.09 23.7101C407.26 22.2201 415.41 20.5501 423.61 19.1701C428.1 18.4101 432.75 18.4101 437.22 17.4701C443.59 16.1401 450.15 16.9201 456.47 15.3801C468.35 15.4301 478.93 13.7301 489.59 13.9201C500.04 14.0801 510.48 13.6601 520.91 14.1801C527.99 14.5701 535.09 14.7501 542.14 15.3801C551.05 16.1601 560 16.7901 568.86 17.9401C582.26 19.6601 595.66 21.5701 608.72 25.1201C610.13 25.5101 611.54 25.8801 612.92 26.3201C623.47 29.6401 633.58 33.9501 643.16 39.5401C657.58 47.9201 672.39 55.5801 687.69 62.2601C694.38 65.1601 700.93 68.3201 707.72 71.0101C710.78 72.2101 713.6 74.0901 716.44 75.8401C718.03 76.8301 719.26 78.0601 720.1 79.5001C721.09 81.1201 721.61 83.0301 721.69 85.2201C722.06 94.3901 722.66 103.53 723.13 112.7C723.18 113.95 723.13 115.21 723.13 116.46C723.18 120.43 723.08 124.4 723.21 128.34Z" fill="#DBBDA6"/>
<path d="M225.841 103.68C225.931 101.63 225.231 100.91 224.181 100.59C223.711 102.01 223.881 103.35 225.271 103.72C225.451 103.77 225.781 103.77 225.831 103.68H225.841Z" fill="#A68065"/>
<path d="M286.27 90.4501C284.64 91.9001 282.75 93.1801 283.46 95.8901C285.15 103.61 287.89 104.97 289.76 107.14C295.37 106.78 298.19 105.81 300.4 103.95C302.47 102.21 304 99.7301 303.36 96.8901C302.83 94.5301 301.84 92.1701 300.54 90.1401C299.62 88.7001 297.4 89.5601 295.88 88.8801C292.06 87.5701 288.54 88.4401 286.26 90.4601L286.27 90.4501Z" fill="#A68065"/>
<path d="M317.53 89.5001C318.78 89.1601 319.5 87.1801 321.27 88.3401C314.72 88.9701 316.11 89.8901 317.53 89.5001Z" fill="#A68065"/>
<path d="M158.331 145.51C163.281 146.11 164.671 145.45 165.551 144.38C166.631 143.06 164.821 142.36 164.441 141.32C161.211 140.4 159.011 142.22 156.791 144.01C157.291 144.52 157.811 145.02 158.331 145.52V145.51Z" fill="#A68065"/>
<path d="M205.821 146.67C204.211 142.19 201.091 142.75 198.021 145.06C199.431 144.99 200.65 147.49 202.04 145.98C203.32 144.58 204.301 147.52 205.821 146.68V146.67Z" fill="#A68065"/>
<path d="M179.601 220.7C180.221 221.37 183.541 221.85 184.051 221.3C184.891 220.42 185.651 219.45 186.341 218.45C184.961 216.46 183.221 217.21 182.171 215.98C181.341 216.14 179.161 218.68 179.171 219.59C179.171 219.96 179.341 220.42 179.591 220.69L179.601 220.7Z" fill="#A68065"/>
<path d="M182.941 135C187.471 134.13 188.141 132.58 188.341 130.93C182.631 128.2 180.531 129.82 180.391 131.75C181.391 133.65 182.111 134.42 182.941 135Z" fill="#A68065"/>
<path d="M188.501 163.91C182.871 163.16 181.941 164.33 181.881 165.63C185.751 167.1 186.791 166.1 187.981 165.4C188.551 165.07 188.801 164.51 188.491 163.91H188.501Z" fill="#A68065"/>
<path d="M150.83 225.04C153.77 217.98 153.83 216.73 153.96 214.93C149.2 210.98 146.71 212.04 143.95 212.1C142.73 212.13 141.74 213.14 141 214.22C139.64 216.21 139.72 218.47 139.8 220.71C143.38 224.79 143.81 225.51 145.02 225.35C146.26 225.18 147.37 225.03 148.59 225.53C149.26 225.8 150.25 225.93 150.83 225.05V225.04Z" fill="#A68065"/>
<path d="M310.431 54.9904C316.091 56.4704 315.501 54.6904 316.011 53.7004C316.721 52.3004 317.941 51.0204 317.641 48.8804C315.521 50.2504 313.481 51.4604 311.581 52.8604C310.991 53.2904 310.751 54.2404 310.431 54.9904Z" fill="#A68065"/>
<path d="M325.391 75.1099C324.131 77.7199 323.241 78.8999 323.041 80.6599C322.881 82.0699 323.531 82.9199 324.591 83.7399C325.821 84.6899 327.161 84.9699 328.711 84.8999C330.591 85.1599 331.871 84.1499 332.461 82.4699C333.221 80.3499 333.621 78.1199 335.251 76.3899C334.361 72.5499 332.281 71.4799 329.581 72.0599C327.681 72.4699 326.371 73.0999 325.401 75.1099H325.391Z" fill="#A68065"/>
<path d="M406.6 52.4499C408.14 56.2399 408.87 57.5599 409.58 58.8199C412.93 61.0499 415.06 61.4999 417.29 60.2399C419.19 59.1599 420.41 57.5399 421.42 55.7099C416.7 47.7299 413.96 47.3599 411.19 48.9699C409.56 49.9199 407.77 50.1199 405.98 50.3599C405.98 51.1299 405.82 51.9899 406.61 52.4499H406.6Z" fill="#A68065"/>
<path d="M404.22 45.7303C403.53 43.9103 402.44 42.5503 400.31 42.2403C398.56 41.9903 396.84 41.4703 395.11 41.0703C394.77 42.9703 393.11 44.1603 392.46 45.8603C391.42 48.5703 392.08 50.9103 393.86 53.3403C395.41 55.4603 397.2 55.4103 399.28 55.2603C403.17 52.6203 404.51 51.4903 405.81 50.3303C405.28 48.7903 404.8 47.2403 404.22 45.7303Z" fill="#A68065"/>
<path d="M407.85 73.91C410.1 73.37 411.42 72.5 411.97 70.78C410.71 66.98 409.52 66.47 408.22 66.85C404.91 67.83 404.28 70.76 406.81 73.26C407.09 73.54 407.5 73.7 407.84 73.91H407.85Z" fill="#A68065"/>
<path d="M417.981 62.6304C415.541 64.4704 414.891 65.9504 414.791 67.6204C419.131 69.0204 420.061 68.2304 420.901 67.3604C420.371 63.4504 419.701 62.5304 417.981 62.6404V62.6304Z" fill="#A68065"/>
<path d="M110.891 227.65C111.311 225.23 110.481 224.4 109.461 223.71C109.331 225.48 109.691 226.39 110.121 227.27C110.221 227.47 110.631 227.53 110.891 227.65Z" fill="#A68065"/>
<path d="M149.581 177.35C147.771 182.71 148.711 183.5 150.741 183.11C152.081 182.85 153.741 181.47 153.711 180.36C153.671 178.95 152.561 178.33 151.331 177.95C150.741 177.77 150.171 177.5 149.581 177.35Z" fill="#A68065"/>
<path d="M140.01 160.25C143.69 161.01 146.77 159.67 148.27 156.26C149 154.62 149.23 152.78 151 151.79C145.44 153.3 141.98 156.24 138.57 159.23C139.04 159.75 139.54 160.15 140.01 160.24V160.25Z" fill="#A68065"/>
<path d="M126.831 239.48C127.861 240.5 129.271 240.35 129.871 239.17C129.681 234.71 129.031 233.32 127.401 233.34C126.041 238.55 126.401 239.06 126.831 239.49V239.48Z" fill="#A68065"/>
<path d="M125.82 208.67C126.43 207.12 126.88 205.52 125.5 204.11C122.37 203.21 121.62 204.38 120.86 205.53C122.23 208.04 123.35 208.96 124.83 209.16C125.14 209.2 125.71 208.93 125.82 208.67Z" fill="#A68065"/>
<path d="M136.09 179.17C133.2 178.12 130.77 178.06 128.35 178.15C128.09 183.92 130.07 184.9 131.95 184.09C134.13 183.15 135.41 181.41 136.09 179.17Z" fill="#A68065"/>
<path d="M469.14 36.4201C469.19 32.6001 468.24 31.5601 466.43 32.3401C462.26 36.0501 461.98 37.4101 462.66 38.8701C463.38 40.4301 464.23 41.7401 466.23 41.8401C469.4 41.4001 470.18 40.4301 470.91 39.4601C470.23 37.6401 469.66 37.0401 469.13 36.4101L469.14 36.4201Z" fill="#A68065"/>
<path d="M376.651 93.48C381.781 94.55 383.351 94.04 384.891 93.48C386.451 92.91 386.851 91.55 387.071 90.04C387.271 88.65 385.921 87.85 385.971 86.58C387.601 83.16 385.431 81.98 383.571 83.2C374.361 78.93 372.861 80.27 372.271 82.42C372.741 92.97 374.331 93.95 376.651 93.49V93.48Z" fill="#A68065"/>
<path d="M213.08 182C214.37 181.94 215.61 181.96 216.8 180.64C218.33 178.95 219.1 177.47 218.05 175.33C217.47 171.11 215.78 169.9 212.81 170.21C211.06 170.4 209.68 171.29 208.4 172.31C206.96 173.47 205.95 177.15 206.81 178.59C207.75 180.18 209.09 181.54 211.1 181.85C211.71 181.94 212.34 181.95 213.08 182Z" fill="#A68065"/>
<path d="M723.211 128.34C723.341 131.89 721.831 134.43 718.901 136.12C716.391 137.56 713.811 139.05 711.091 139.99C701.821 143.2 692.991 147.43 683.981 151.25C677.271 154.1 670.661 157.13 664.001 160.1C662.121 160.94 660.321 160.83 658.721 159.53C657.441 158.49 656.161 157.39 655.041 156.16C646.681 147.1 638.431 137.96 630.051 128.95C624.201 122.71 618.141 116.62 612.211 110.46C611.241 109.47 610.151 109.18 608.811 109.44C595.051 112.23 584.361 119.63 576.161 130.88C569.061 140.6 564.491 151.49 561.331 163.03C558.721 172.46 556.971 182.04 556.001 191.79C555.661 195.52 555.111 199.23 554.981 202.97C554.931 204.72 554.011 205.56 552.581 206.21C546.131 209.16 539.731 212.19 533.251 215.09C523.951 219.24 514.601 223.34 505.251 227.42C502.011 228.86 498.751 230.21 495.481 231.57C494.121 232.12 492.821 232.61 491.561 233.42C489.001 235.04 487.411 234.88 485.371 233C484.141 231.85 483.071 230.57 481.921 229.34C479.961 227.2 478.131 224.87 475.991 222.94C462.121 210.51 449.401 196.95 436.081 183.97C432.951 180.91 429.811 177.86 426.761 174.7C425.301 173.16 423.731 172.56 421.721 173.24C414.801 175.64 408.301 178.75 402.391 183.24C391.241 191.7 383.921 202.98 378.571 215.63C373.951 226.57 371.001 238.04 369.271 249.84C367.781 259.95 366.811 270.06 366.741 280.29C366.711 283.4 366.271 286.51 365.851 289.59C363.261 292.31 361.881 292.85 360.571 293.48C343.251 301.73 325.961 309.99 308.651 318.24C305.701 319.96 303.921 319.62 302.231 318.55C300.141 317.19 298.031 315.83 296.071 314.32C294.421 313.04 292.991 311.5 291.471 310.06C281.341 300.4 271.231 290.73 261.071 281.12C256.081 276.37 250.961 271.74 245.951 267.04C244.911 266.05 243.911 266 242.581 266.54C228.241 272.36 217.641 282.21 210.301 295.74C204.791 305.9 201.211 316.74 199.101 328.05C197.611 336.02 196.491 344.03 195.471 352.08C195.031 355.79 195.211 359.58 195.131 363.34C195.101 364.59 195.311 365.85 195.181 367.1C194.921 370.18 193.671 372.51 190.641 373.97C182.941 377.7 175.341 381.6 167.791 385.62C147.001 396.69 125.821 407.01 104.771 417.59C96.7807 421.61 88.9407 426.03 81.0307 430.2C79.2007 431.17 77.3007 432.05 75.3907 432.86C71.9207 434.27 68.9907 433.17 67.8207 429.78C66.4107 425.65 65.3407 421.42 64.8707 417.06C64.3207 411.89 63.4607 406.74 62.7507 401.6C62.2507 398.1 61.9707 394.6 61.3107 391.1C60.1907 385.17 59.5307 379.16 58.6207 373.21C58.3307 371.38 57.7307 369.58 57.4707 367.73C57.2907 366.22 56.7107 364.99 55.7207 363.84C60.3707 353.16 66.6607 344.25 73.2407 335.53C81.9107 324.06 90.8407 312.76 100.041 301.68C106.571 293.82 113.461 286.27 120.151 278.54C131.541 265.43 143.921 253.31 156.451 241.32C167.181 231.08 178.491 221.55 190.041 212.25C207.931 197.83 226.601 184.51 245.851 172C261.911 161.53 278.371 151.68 295.161 142.38C311.771 133.19 328.751 124.72 345.931 116.65C361.551 109.26 377.561 102.73 393.731 96.6202C408.721 90.9502 423.871 85.7302 439.231 81.1602C455.371 76.3802 471.641 72.1202 488.171 68.8102C497.781 66.9002 507.391 65.2102 517.061 63.7702C523.641 62.7802 530.281 62.1202 536.861 61.1602C543.261 60.2202 549.741 60.4302 556.131 59.3302C560.201 58.6202 564.461 58.9402 568.641 58.9102C575.741 58.8602 582.851 58.9102 589.951 58.9102C599.771 58.7802 609.591 58.5702 619.381 59.2202C626.851 59.7202 634.351 59.9002 641.761 61.1002C646.071 61.8102 650.461 61.9102 654.791 62.5402C663.251 63.7202 671.641 65.1502 679.991 66.9302C693.751 69.8802 706.971 74.5002 720.081 79.4902C721.071 81.1102 721.591 83.0202 721.671 85.2102C722.041 94.3802 722.641 103.52 723.111 112.69C723.161 113.94 723.111 115.2 723.111 116.45C723.161 120.42 723.061 124.39 723.191 128.33L723.211 128.34Z" fill="#785741"/>
<path d="M630.051 128.94C638.431 137.95 646.691 147.09 655.041 156.15C656.161 157.38 657.441 158.47 658.721 159.52C661.721 158.83 661.461 157.1 660.851 155.38C659.801 152.45 658.891 149.46 658.081 146.45C656.611 140.99 654.431 135.83 651.691 130.91C649.041 126.16 646.041 121.59 641.961 117.98C634.301 111.2 624.981 108.61 614.621 108.04C612.821 107.86 610.821 108.6 608.841 109.19C610.141 109.16 611.231 109.45 612.201 110.44C618.131 116.6 624.191 122.69 630.041 128.93L630.051 128.94Z" fill="#252528"/>
<path d="M291.491 310.06C293.001 311.5 294.441 313.04 296.091 314.32C298.051 315.83 300.161 317.19 302.251 318.55C303.651 319.44 305.111 319.76 306.591 319.18C303.911 312.49 300.871 305.97 297.481 299.59C294.051 293.13 289.971 287.11 285.271 281.53C281.791 277.39 278.091 273.36 273.331 270.62C264.241 265.38 254.721 262.54 244.141 265.66C242.801 266.06 241.671 266.65 240.661 267.43C243.921 266 244.911 266.05 245.961 267.05C250.971 271.75 256.091 276.37 261.081 281.13C271.241 290.74 281.351 300.4 291.481 310.07L291.491 310.06Z" fill="#252528"/>
<path d="M426.781 174.7C429.841 177.86 432.971 180.92 436.101 183.97C449.421 196.95 462.141 210.51 476.011 222.94C478.151 224.87 479.981 227.2 481.941 229.34C483.091 230.57 484.161 231.85 485.391 233C486.461 233.99 487.411 234.49 488.451 234.52C483.211 214.88 475.771 199.75 464.361 186.59C457.551 178.74 449.181 173.81 439.081 171.69C437.061 171.27 435.101 170.36 433.281 170.66C429.701 170.68 425.581 171.64 421.791 173.23C423.781 172.58 425.331 173.17 426.781 174.7Z" fill="#252528"/>
<path d="M557.311 119.22C552.081 114.83 548.981 130.9 556.351 125.38C557.251 124.31 556.891 121.13 557.311 119.22Z" fill="#523B2B"/>
<path d="M600.671 86.6004C591.731 86.0404 599.971 95.5404 600.801 98.6504C605.861 96.6204 601.511 90.0504 600.671 86.6004Z" fill="#523B2B"/>
<path d="M576.511 120.56C570.681 119.48 570.351 127.22 576.391 125.35C575.311 124.78 577.641 121.51 576.511 120.56Z" fill="#523B2B"/>
<path d="M498.821 203.48C501.681 200.27 495.031 200.46 496.211 197.45C497.311 189.64 483.731 194.96 488.541 196.87C492.241 199.8 486.301 197.19 486.461 199.24C488.451 202.34 481.931 201.94 484.801 203.98C491.001 201.83 495.991 211.25 498.831 203.47L498.821 203.48ZM496.181 197.44C491.001 202.11 489.561 193.56 496.181 197.44Z" fill="#523B2B"/>
<path d="M504.981 220.72C503.041 220.53 501.491 222.08 503.851 223.65C506.521 224.07 507.371 222.15 504.981 220.72Z" fill="#523B2B"/>
<path d="M611.411 70.2402C610.711 70.6802 608.911 70.2202 607.591 70.3702C608.371 71.7002 611.551 74.1402 611.411 70.2402Z" fill="#523B2B"/>
<path d="M599.281 64.2502C594.891 66.5202 602.881 73.7502 602.831 67.3902C604.081 68.8202 606.231 70.6502 607.761 70.1902C608.671 63.1902 606.411 60.3202 599.281 64.2502Z" fill="#523B2B"/>
<path d="M621.601 80.5603C613.551 72.8003 617.131 89.4803 612.681 91.6503C611.371 99.1203 618.051 91.5803 617.861 87.7603C623.511 90.4403 620.961 84.6803 625.981 82.3003C627.501 77.9003 622.761 81.1103 621.611 80.5603H621.601Z" fill="#523B2B"/>
<path d="M597.241 78.7302C600.031 78.3802 601.711 75.1702 604.511 74.5002C600.311 70.8602 593.911 72.1702 597.241 78.7302Z" fill="#523B2B"/>
<path d="M612.501 86.72C612.361 80.87 598.381 75.8 604.741 83.21C608.221 78.94 608.571 95.21 612.501 86.72Z" fill="#523B2B"/>
<path d="M615.701 67.7001C614.041 65.0001 610.891 68.1101 611.571 70.4001C612.211 70.1501 616.421 69.8001 615.701 67.7001Z" fill="#523B2B"/>
<path d="M623.471 69.77C622.701 70.72 622.611 72.3 623.431 73.36C624.101 72.25 623.931 70.8 623.471 69.77Z" fill="#523B2B"/>
<path d="M619.411 90.9C619.241 91.95 621.181 93.4 621.481 91.58C621.811 90.19 620.051 90.21 619.411 90.9Z" fill="#523B2B"/>
<path d="M612.821 91.4901C612.161 91.0701 611.081 89.6101 609.701 90.7401C610.361 91.8401 611.731 91.3301 612.821 91.4901Z" fill="#523B2B"/>
<path d="M408.461 103.81C407.071 97.6604 405.681 102.19 404.571 104.97C404.771 108.11 409.261 106.56 408.461 103.81Z" fill="#523B2B"/>
<path d="M486.741 224.8C485.851 224.64 484.531 226.28 485.771 227C486.931 227.32 487.781 225.48 486.741 224.8Z" fill="#523B2B"/>
<path d="M419.33 165.35C420.39 166 421.81 162.34 419.99 162.04C418.22 161.93 417.73 164.77 419.33 165.35Z" fill="#523B2B"/>
<path d="M410.311 93.52C410.151 92.33 408.051 91.18 407.531 92.49C407.961 93.53 409.431 94.42 410.311 93.52Z" fill="#523B2B"/>
<path d="M476.771 218.5C475.631 219.23 474.541 220.02 473.721 220.79C479.661 223.16 479.891 218.1 476.771 218.5Z" fill="#523B2B"/>
<path d="M452.171 136.85C451.011 137.87 453.091 139.72 453.991 138.64C454.231 137.91 452.941 136.71 452.171 136.85Z" fill="#523B2B"/>
<path d="M483.611 229.57C485.441 229.93 484.241 232.17 485.621 232.65C490.661 230.03 481.661 226.1 483.611 229.57Z" fill="#523B2B"/>
<path d="M407.711 164.87C406.151 166.59 408.811 169.62 410.361 167.16C409.591 166.31 409.211 163.86 407.711 164.87Z" fill="#523B2B"/>
<path d="M418.231 159.45C417.871 155.61 410.321 157.99 409.751 159.77C410.961 165.25 415.551 163.38 418.231 159.45Z" fill="#523B2B"/>
<path d="M397.801 185.4C398.911 184.65 401.401 182.45 399.591 181.32C398.541 180.47 396.351 185.08 397.801 185.4Z" fill="#523B2B"/>
<path d="M399.541 96.6802C398.711 99.5302 396.451 94.7402 395.231 97.9702C392.961 104.99 405.921 99.9802 399.541 96.6802Z" fill="#523B2B"/>
<path d="M407.751 172.22C405.681 174.26 409.101 176.55 408.841 179.05C411.371 176.5 409.241 174.64 407.751 172.22Z" fill="#523B2B"/>
<path d="M81.0312 430.21C79.2112 425.33 77.9312 414.53 69.9812 420.1C73.4312 421.35 71.5712 426.6 68.9512 431.83C70.4312 433.56 72.7512 433.94 75.3812 432.87C79.3612 430.99 80.2112 430.63 81.0212 430.21H81.0312ZM72.8812 425.61C73.6312 422.58 74.6412 422.23 77.0612 424.41C75.6812 424.88 73.9612 427.07 72.8812 425.61Z" fill="#523B2B"/>
<path d="M112.891 287.89C113.121 289.91 116.351 291.29 118.281 290.81C121.961 290.72 113.671 285.24 112.891 287.89Z" fill="#523B2B"/>
<path d="M203.951 226.9C201.551 226.91 199.821 228.81 202.121 231.41C203.361 231.54 204.191 228.23 203.951 226.9Z" fill="#523B2B"/>
<path d="M304.971 310.05C302.511 311.7 305.451 316.33 302.181 314.77C300.001 315.12 300.281 316.78 301.411 318C310.661 315.6 305.631 312.52 304.971 310.05Z" fill="#523B2B"/>
<path d="M706.621 119.24C705.091 118.77 702.541 119.95 704.731 120.38C706.511 120.66 708.581 119.91 706.621 119.24Z" fill="#523B2B"/>
<path d="M706.471 116.82C706.231 115.59 704.921 115.05 703.831 115.73C702.771 116.65 706.241 118.8 706.471 116.82Z" fill="#523B2B"/>
<path d="M712.591 139.39C709.361 138.19 708.681 139.72 709.101 140.73C711.591 139.81 712.091 139.6 712.591 139.39Z" fill="#523B2B"/>
<path d="M661.141 88.1404C666.301 83.8404 661.901 79.8804 663.411 75.8304C656.191 74.2504 652.511 86.4904 661.141 88.1404Z" fill="#523B2B"/>
<path d="M711.131 88.7803C711.131 85.5803 708.451 82.2303 706.161 85.6703C705.721 88.5603 708.811 89.6003 711.131 88.7803Z" fill="#523B2B"/>
<path d="M102.77 368.51C106.96 368.08 106.6 364.7 102.75 363.7C102.38 365.19 99.9304 368.52 102.77 368.51Z" fill="#523B2B"/>
<path d="M102.411 316.85C102.411 319.1 106.261 317.44 106.931 316.33C106.391 314.01 102.001 314.11 102.411 316.85Z" fill="#523B2B"/>
<path d="M104.45 379.42C95.6904 372.07 105.56 378.88 106.07 372.29C92.6004 368.7 99.4804 385.34 104.45 379.42Z" fill="#523B2B"/>
<path d="M103.531 397.34C96.5708 394 102.241 398.08 102.071 400.93C101.281 402.05 98.9908 402.59 98.9108 400.67C97.3808 389.64 95.4708 411.15 103.771 402.32C102.431 400.95 109.021 397.37 103.541 397.33L103.531 397.34Z" fill="#523B2B"/>
<path d="M109.581 389.19C105.711 390.5 100.501 389.59 97.8809 391.48C101.271 393.47 110.821 396.21 109.581 389.19Z" fill="#523B2B"/>
<path d="M115.061 403.59C117.811 402.11 116.851 395.84 116.331 393.72C113.721 394.79 114.021 404.62 111.051 402.32C109.231 399.72 109.101 405.69 106.331 403.58C109.971 409.86 107.401 410.71 105.051 415.82C110.841 417.91 110.091 404.15 115.051 403.59H115.061Z" fill="#523B2B"/>
<path d="M103.661 301.66C103.611 303.94 100.921 308.82 101.431 312.06C106.071 318.14 111.801 301.56 115.461 309.07C119.291 312.24 116.521 305.92 118.761 306.47C123.681 310.24 123.661 305.08 126.211 301.41C127.441 308.35 131.271 306.45 134.871 302.71C128.061 302.11 130.561 289.15 124.391 290.97C125.711 301.69 114.401 284.99 113.141 296.79C107.751 293.85 109.111 303.12 102.511 298.84C101.881 300.68 103.021 301.29 103.661 301.68V301.66ZM127.191 297.61C127.251 298.18 126.091 300.18 125.501 300.42C122.911 299.76 125.281 296.05 127.191 297.61ZM119.521 296.22C118.821 298.64 117.181 302.14 114.201 301.79C114.491 300.59 117.701 292.07 119.521 296.22Z" fill="#523B2B"/>
<path d="M106.101 383.4C105.801 388.14 109.641 382.95 107.811 381.42C106.521 381.12 106.321 382.83 106.101 383.4Z" fill="#523B2B"/>
<path d="M639.531 86.5404C640.181 84.9804 637.111 84.8504 636.761 86.1604C636.621 87.9604 639.061 88.0704 639.531 86.5404Z" fill="#523B2B"/>
<path d="M663.691 90.1103C654.241 85.4403 657.701 101.16 656.681 105.45C661.491 101.85 660.041 92.6503 663.691 90.1103Z" fill="#523B2B"/>
<path d="M650.621 106.38C652.881 104.61 654.481 109.39 656.521 105.28C655.771 105.77 646.851 102.73 650.621 106.38Z" fill="#523B2B"/>
<path d="M635.281 74.37C630.301 80.13 642.701 78.67 645.281 78.18C645.501 69.62 639.191 76.62 635.281 74.37Z" fill="#523B2B"/>
<path d="M647.941 74.5301C647.271 75.8501 648.381 80.7801 650.981 79.8301C657.571 75.7201 647.171 64.0501 647.941 74.5301Z" fill="#523B2B"/>
<path d="M646.751 63.7201C647.741 61.8201 646.471 61.7001 645.201 61.5601C644.311 63.3401 644.301 64.9401 646.751 63.7201Z" fill="#523B2B"/>
<path d="M685.651 79.3602C683.251 78.5602 682.721 80.6402 685.161 81.2902C686.301 81.7102 686.801 79.5102 685.651 79.3602Z" fill="#523B2B"/>
<path d="M711.881 136.82C711.861 135.79 715.241 135.33 715.151 133.88C713.611 133.06 709.491 134.56 711.881 136.82Z" fill="#523B2B"/>
<path d="M703.351 109.76C702.411 110 701.171 111.63 702.151 112.38C702.971 112.73 704.701 110.2 703.351 109.76Z" fill="#523B2B"/>
<path d="M654.881 65.4302C654.881 68.1602 658.341 65.9202 657.661 64.1602C655.411 63.4702 655.091 64.4502 654.881 65.4302Z" fill="#523B2B"/>
<path d="M674.041 86.4803C672.511 86.3603 666.321 87.8603 670.511 90.0703C671.781 87.6903 674.391 89.3203 674.041 86.4803Z" fill="#523B2B"/>
<path d="M557.341 130.62C556.261 132.22 558.281 134.92 559.761 132.47C559.281 131.34 558.591 130.68 557.341 130.62Z" fill="#523B2B"/>
<path d="M556.301 112.64C553.901 106.69 553.481 110.53 553.681 114.56C551.581 117.86 559.011 115.43 556.301 112.64Z" fill="#523B2B"/>
<path d="M538.521 97.13C538.921 95.42 537.061 96.01 536.171 96.65C536.521 97.2 537.731 98.22 538.521 97.13Z" fill="#523B2B"/>
<path d="M555.23 98.1802C556.39 99.9302 560.95 97.9202 560.01 95.3202C558.49 94.1202 554.57 95.3102 555.23 98.1802Z" fill="#523B2B"/>
<path d="M556.951 136.99C556.991 138.51 558.861 137.94 559.681 137.54C559.491 136.14 557.521 135.22 556.951 136.99Z" fill="#523B2B"/>
<path d="M557.13 128.49C559.31 127.8 557.94 125.71 556.23 125.5C556.65 125.7 555.59 128.41 557.13 128.49Z" fill="#523B2B"/>
<path d="M547.171 103.89C542.231 101.63 550.511 109.5 551.151 107.98C553.731 104.09 551.261 102.99 547.171 103.89Z" fill="#523B2B"/>
<path d="M553.471 169.11C552.631 167.35 548.931 169.21 549.061 170.88C549.821 171.67 554.001 169.88 553.471 169.11Z" fill="#523B2B"/>
<path d="M550.161 67.1103C549.201 66.1603 547.471 65.0803 547.691 67.0203C547.921 69.2103 548.781 68.1003 550.161 67.1103Z" fill="#523B2B"/>
<path d="M552.141 199.87C548.541 199.33 545.371 197.51 541.661 198.77C544.401 205.36 547.601 203.6 552.141 199.87Z" fill="#523B2B"/>
<path d="M527.7 205.45C527.47 206.95 530.16 207.47 530.69 206.05C529.7 205.9 528.19 204.36 527.7 205.45Z" fill="#523B2B"/>
<path d="M538.841 112.83C537.831 111.56 539.111 107.01 537.731 105.52C532.971 105.18 535.691 112.1 538.841 112.83Z" fill="#523B2B"/>
<path d="M539.291 61.0402C538.131 63.4602 543.451 65.1402 541.191 61.4702C541.511 61.7702 539.601 60.6602 539.291 61.0402Z" fill="#523B2B"/>
<path d="M531.55 180.59C530.37 178.73 525.92 181.79 529.78 181.8C530.71 181.88 532.52 181.86 531.55 180.59Z" fill="#523B2B"/>
<path d="M543.491 114.39C546.911 112.74 545.311 107.1 541.831 108.32C541.321 111.18 542.551 113.04 538.661 112.99C541.741 113.66 538.701 116.21 540.121 117.44C545.301 120.29 541.441 116.3 543.481 114.38L543.491 114.39Z" fill="#523B2B"/>
<path d="M424.861 159.22C421.651 157.69 435.701 152.25 428.191 148.7C423.601 151.75 419.101 156.42 420.911 160.21C430.261 168.7 429.471 169.84 431.811 161.28C432.651 158.08 426.691 161.78 424.861 159.23V159.22Z" fill="#523B2B"/>
<path d="M578.511 86.7801C576.301 88.1401 580.231 90.0001 580.761 88.2701C580.671 87.5401 579.291 86.6301 578.511 86.7801Z" fill="#523B2B"/>
<path d="M488.851 221.31C489.481 225.36 493.891 223.13 494.681 220.4C493.511 219.18 490.261 220.08 488.851 221.31Z" fill="#523B2B"/>
<path d="M659.691 127.48C659.181 128.81 656.351 130.5 658.031 131.49C660.301 132.23 660.931 128.67 659.691 127.48Z" fill="#523B2B"/>
<path d="M657.921 110.46C655.451 109.73 653.171 114.19 656.111 115.06C657.721 113.69 665.511 112.03 657.921 110.46Z" fill="#523B2B"/>
<path d="M562.2 88.5C559.97 88.99 559.01 93.19 560.12 95.41C560.73 94.76 563.19 90.36 562.2 88.5Z" fill="#523B2B"/>
<path d="M568.311 83.9902C566.111 89.8102 571.041 92.7202 573.541 86.7002C572.951 84.8202 570.071 85.3802 568.311 83.9902Z" fill="#523B2B"/>
<path d="M564.961 126.1C566.491 125.03 565.221 122.15 563.691 121.89C561.401 122.29 563.641 126.47 564.961 126.1Z" fill="#523B2B"/>
<path d="M586.251 97.7802C586.591 96.4202 585.821 95.4802 584.801 94.7802C581.371 94.1602 584.611 101.47 586.251 97.7802Z" fill="#523B2B"/>
<path d="M96.2205 332.81C95.7805 334.38 97.8805 334.63 98.2505 333.12C98.0205 332.04 96.8105 331.87 96.2205 332.81Z" fill="#523B2B"/>
<path d="M516.221 176.02C515.701 173.94 512.641 175.47 511.871 176.38C512.961 178.98 515.071 177.69 516.221 176.02Z" fill="#523B2B"/>
<path d="M509.031 112.14C509.601 113.99 511.711 114.87 513.241 113.57C512.661 111.78 510.541 110.91 509.031 112.14Z" fill="#523B2B"/>
<path d="M496.051 179.4C496.231 186.45 489.311 180.41 490.621 184.03C501.221 187.3 503.061 188 496.051 179.4Z" fill="#523B2B"/>
<path d="M494.631 177.12C493.141 177.39 495.341 179.37 496.191 179.27C495.871 179.18 496.051 176.82 494.631 177.12Z" fill="#523B2B"/>
<path d="M513.911 191.61C513.161 184.2 511.221 188.03 505.281 191.28C513.091 201.03 507.591 189.81 513.911 191.61Z" fill="#523B2B"/>
<path d="M505.781 196.83C505.331 195.66 502.891 196.68 503.081 197.63C503.621 198.14 505.961 198.27 505.781 196.83Z" fill="#523B2B"/>
<path d="M510.401 211.27C513.141 208.21 507.331 206.52 505.431 204.82C504.291 209.93 507.041 209.76 510.401 211.27Z" fill="#523B2B"/>
<path d="M472.741 193.49C470.851 192.4 468.851 195 470.431 196.43C471.181 195.44 473.511 194.05 472.741 193.49Z" fill="#523B2B"/>
<path d="M461.97 125.99C462.47 124.66 460.83 123.69 459.98 124.89C459.81 125.87 461.4 127.11 461.97 125.99Z" fill="#523B2B"/>
<path d="M466.541 135.02C471.531 134.87 471.831 130.17 474.101 127.03C470.591 119.31 463.811 131.51 466.541 135.02Z" fill="#523B2B"/>
<path d="M472.931 99.4004C468.331 99.8304 472.951 105.26 475.301 105.07C475.741 103.61 474.781 99.7804 472.931 99.4004Z" fill="#523B2B"/>
<path d="M473.261 116.71C471.071 115.14 464.681 120.3 470.731 121.46C472.571 121.1 472.491 118.23 473.261 116.71Z" fill="#523B2B"/>
<path d="M472.111 185.44C470.811 186.64 473.071 188 474.251 188.01C477.031 187.98 473.201 183.75 472.111 185.44Z" fill="#523B2B"/>
<path d="M523.521 203.66C521.181 203.43 518.491 201.51 517.051 202.81C514.861 207.43 521.371 205.59 523.521 203.66Z" fill="#523B2B"/>
<path d="M456.821 110.96C457.051 107.33 452.211 109.98 453.791 113C454.901 115.63 456.711 112.67 456.821 110.96Z" fill="#523B2B"/>
<path d="M518.581 134.28C516.941 134.88 519.951 137.3 520.781 137.52C521.811 136.32 519.911 134.52 518.581 134.28Z" fill="#523B2B"/>
<path d="M485.74 184.64C483.9 185.31 485.58 187.14 486.18 188.15C487.16 187.65 487.97 184.6 485.74 184.64Z" fill="#523B2B"/>
<path d="M501.991 88.36C503.681 83.09 504.731 77.3 501.711 70.73C500.821 75.13 497.921 86.26 501.991 88.36Z" fill="#523B2B"/>
<path d="M485.851 96.5201C485.391 95.4601 483.861 96.9901 482.971 97.1901C483.371 99.8201 485.581 98.6901 485.851 96.5201Z" fill="#523B2B"/>
<path d="M490.401 118.53C492.711 114.37 488.311 113.52 488.151 111.17C483.491 110.03 488.301 117.56 490.401 118.53Z" fill="#523B2B"/>
<path d="M533.23 176.26C530.9 176.44 522.89 175.89 528.56 178.23C530.35 177.86 532.46 178.29 533.23 176.26Z" fill="#523B2B"/>
<path d="M506.841 169.95C505.651 168.89 504.331 169.68 502.711 169.72C504.201 170.72 505.531 170.52 506.841 169.95Z" fill="#523B2B"/>
<path d="M486.261 191.56C487.781 191.13 486.001 189.09 486.001 188C485.161 188.55 483.861 191.4 486.261 191.56Z" fill="#523B2B"/>
<path d="M366.991 153.97C371.161 153.92 366.171 148.73 365.811 152.11C365.821 152.94 366.041 153.71 366.991 153.97Z" fill="#523B2B"/>
<path d="M326.77 216.42C332.17 217.39 329.96 211.98 326.21 214.42C323.51 216.07 324.16 218.07 326.77 216.42Z" fill="#523B2B"/>
<path d="M328.071 244.77C326.991 241.32 324.231 248.09 326.751 247.44C327.671 246.87 328.121 246.07 328.071 244.77Z" fill="#523B2B"/>
<path d="M327.631 276.81C331.181 274.55 325.761 274.51 325.541 272C324.171 272.98 323.951 278.55 327.631 276.81Z" fill="#523B2B"/>
<path d="M332.42 271.37C334.05 270.13 332.84 267.53 330.87 267.67C328.61 269.35 331.3 270.03 332.42 271.37Z" fill="#523B2B"/>
<path d="M327.311 232.77C329.921 231.62 331.341 222.55 324.421 222.49C325.171 229.34 321.191 232.21 327.311 232.77Z" fill="#523B2B"/>
<path d="M318.861 257.78C320.061 258.5 321.711 257.13 321.851 255.75C320.731 255.64 318.551 256.14 318.861 257.78Z" fill="#523B2B"/>
<path d="M324.261 251.92C322.881 252.71 319.871 252.59 321.881 255.78C324.701 255.58 324.171 253.99 324.261 251.92Z" fill="#523B2B"/>
<path d="M351.531 220.25C352.831 219.33 350.571 216.35 349.481 217.83C349.411 219.15 350.591 220.48 351.531 220.25Z" fill="#523B2B"/>
<path d="M347.66 117.98C343.66 114 348.41 128.46 351.64 123.17C350.6 121.06 347.32 121.33 347.66 117.98Z" fill="#523B2B"/>
<path d="M353.18 198.55C351.62 197.47 353.36 196.68 354.64 197.18C363.13 200.22 352.95 192.72 356.81 190.02C353.98 186.42 351.94 199.29 346.78 189.05C338.46 189.8 355.41 203.97 349.46 203.45C346.95 217.35 359.62 204.78 353.18 198.55Z" fill="#523B2B"/>
<path d="M348.721 160.91C348.391 162.86 346.651 163.59 346.051 165.09C349.701 167 351.711 163.88 348.721 160.91Z" fill="#523B2B"/>
<path d="M347.491 279.28C348.921 278.13 346.551 275.98 345.481 276.09C343.201 277.26 345.431 280.39 347.491 279.28Z" fill="#523B2B"/>
<path d="M337.091 300.79C338.581 300.47 338.001 298.52 336.631 298.82C335.731 299.26 335.921 300.81 337.091 300.79Z" fill="#523B2B"/>
<path d="M350.041 224.9C349.311 223.94 348.721 222.83 347.451 222.42C345.761 224.36 348.411 226.69 350.041 224.9Z" fill="#523B2B"/>
<path d="M319.431 180.48C319.771 182.54 318.841 184.53 321.941 184.25C321.571 183.43 320.061 181.28 319.431 180.48C319.901 174.05 322.941 181.22 325.361 183.6C329.451 185.51 334.791 184.65 328.811 180.62C325.781 180.08 329.101 178.21 330.211 177.46C328.361 173.18 324.431 173.24 322.001 170.43C324.711 149.71 314.601 174.97 319.431 180.48Z" fill="#523B2B"/>
<path d="M339.46 280.78C334.77 276.77 339.19 288.35 341.82 282C341.82 282.4 339.63 281.81 339.46 280.78Z" fill="#523B2B"/>
<path d="M332.011 161.65C333.241 163.69 337.521 165.07 339.461 162.96C338.641 161.71 333.291 160.19 332.011 161.65Z" fill="#523B2B"/>
<path d="M339.471 235.83C349.181 238.37 326.451 249.8 346.281 245.46C341.481 217.85 330.671 250.66 339.471 235.83Z" fill="#523B2B"/>
<path d="M310.241 298.81C306.781 298.94 306.261 297.65 303.631 295.17C300.981 299.92 306.851 302.71 310.241 298.81Z" fill="#523B2B"/>
<path d="M321.64 302.4C322.99 293.5 312.81 310.02 307.17 306.24C305.28 311.81 322.62 308.11 321.64 302.4Z" fill="#523B2B"/>
<path d="M292.861 276.52C290.761 274.93 288.411 278.07 289.611 280.03C290.811 280.71 293.081 277.91 292.861 276.52Z" fill="#523B2B"/>
<path d="M289.091 219.03C287.531 221.18 290.951 223.91 293.101 224.37C292.701 223.03 290.851 218.89 289.091 219.03Z" fill="#523B2B"/>
<path d="M292.431 307.7C293.601 308.36 296.751 305.49 297.611 304C291.281 298.82 293.061 302.1 292.431 307.7Z" fill="#523B2B"/>
<path d="M300.121 289.35C303.481 287.67 307.011 283.53 300.451 283.45C301.381 284.45 297.831 288 300.121 289.35Z" fill="#523B2B"/>
<path d="M300.621 282.15C304.011 281.03 297.491 273.49 297.001 279.17C296.681 281.68 300.271 279.8 300.621 282.15Z" fill="#523B2B"/>
<path d="M336.241 145.98C334.971 146.02 334.181 147.92 335.921 147.98C337.121 147.87 337.151 146.37 336.241 145.98Z" fill="#523B2B"/>
<path d="M321.501 224.68C323.161 226.3 323.261 223.65 323.101 221.88C322.291 216.65 320.091 222.04 321.501 224.68Z" fill="#523B2B"/>
<path d="M325.421 191.14C320.181 190.15 324.231 186.24 321.811 184.4C318.231 186.16 320.731 198.64 325.421 191.14Z" fill="#523B2B"/>
<path d="M320.081 233.95C320.801 232.82 321.081 230.91 319.221 230.84C317.191 231.41 318.621 233.7 320.081 233.95Z" fill="#523B2B"/>
<path d="M334.391 172.64C337.111 180.04 337.331 164 331.741 165.63C311.001 170.5 335.981 164.07 334.391 172.64Z" fill="#523B2B"/>
<path d="M341.741 180.88C342.261 179.02 338.801 179.12 337.481 178.62C335.601 180.66 340.551 183.04 341.741 180.88Z" fill="#523B2B"/>
<path d="M340.011 213.88C338.741 218.54 344.471 216.38 344.361 213.45C342.501 208.31 338.021 208.78 340.011 213.88Z" fill="#523B2B"/>
<path d="M265.391 210.72C263.691 209.56 262.821 215.51 264.591 216.81C269.491 214.59 265.801 213.84 265.391 210.72Z" fill="#523B2B"/>
<path d="M292.961 224.5C293.311 226.13 294.411 228.16 296.211 226.54C295.771 225.41 293.971 225.25 292.961 224.5Z" fill="#523B2B"/>
<path d="M272.641 256.7C274.671 255.43 272.631 253.67 270.891 253.65C269.711 254.56 271.141 256.57 272.641 256.7Z" fill="#523B2B"/>
<path d="M258.401 245.16C256.581 241.42 250.621 249.04 256.731 249.48C259.181 247.87 262.331 250.84 258.401 245.16Z" fill="#523B2B"/>
<path d="M268.401 241.97C264.671 245.94 268.811 248.95 273.721 246.52C270.671 245.34 271.731 241.48 268.401 241.97Z" fill="#523B2B"/>
<path d="M356.971 111.97C355.601 111.95 353.971 114.24 355.691 115.05C356.571 115.25 358.411 112.24 356.971 111.97Z" fill="#523B2B"/>
<path d="M280.171 226.06C280.401 224.22 277.261 225.78 276.001 224.79C274.841 227.25 279.151 228.82 280.171 226.06Z" fill="#523B2B"/>
<path d="M272.621 237.02C270.021 240.21 275.281 240.07 276.341 241.11C277.401 239.13 274.501 237.14 272.621 237.02Z" fill="#523B2B"/>
<path d="M313.571 311.17C309.551 311.24 311.871 314.77 314.581 315.42C316.711 313.35 314.861 311.89 313.571 311.17Z" fill="#523B2B"/>
<path d="M380.361 187.74C375.341 190.63 381.131 195.83 381.951 199.45C380.911 205.93 381.491 207.24 383.381 205.77C384.541 203.68 385.791 201.65 387.121 199.68C384.341 196.69 383.071 188.41 380.371 187.74H380.361Z" fill="#523B2B"/>
<path d="M265.311 237.4C265.211 234.96 260.611 238.04 263.861 238.27C264.491 237.99 265.301 238.11 265.311 237.4Z" fill="#523B2B"/>
<path d="M292.011 207.01C296.241 212.79 294.921 206.26 294.371 202.92C296.521 195.16 288.351 205.74 292.011 207.01Z" fill="#523B2B"/>
<path d="M276.151 212.87C275.501 210.18 272.731 214.97 274.001 215.28C275.421 215.96 275.681 213.52 276.151 212.87Z" fill="#523B2B"/>
<path d="M267.901 210.04C267.461 207.45 265.931 210.26 267.061 211.16C267.681 211.38 267.651 210.43 267.901 210.04Z" fill="#523B2B"/>
<path d="M256.751 256.39C258.071 255.16 271.191 252.44 260.381 249.57C259.981 253.52 259.491 248.38 256.571 249.6C257.211 251.21 254.451 254.84 252.131 254.17C245.751 251.71 253.121 257.46 250.411 259.88C250.921 264.7 257.021 259.59 256.751 256.39Z" fill="#523B2B"/>
<path d="M363.701 169.17C364.981 168.03 360.911 167.72 361.131 169.17C361.251 170.79 363.101 170.13 363.701 169.17Z" fill="#523B2B"/>
<path d="M290.761 214.41C294.251 213.78 296.561 222.84 298.961 216.47C296.731 215.31 292.391 208.85 290.761 214.41Z" fill="#523B2B"/>
<path d="M369.12 131.55C375.59 131.87 372.57 132.17 374.45 126.64C370.03 117.79 356.17 133.01 369.12 131.55Z" fill="#523B2B"/>
<path d="M355.401 223.73C353.011 224.58 355.161 227.86 357.291 226.79C358.451 225.96 356.461 223.96 355.401 223.73Z" fill="#523B2B"/>
<path d="M374.581 175.51C373.821 174.41 376.391 170.84 373.741 170.28C368.971 168.88 372.031 174.46 374.581 175.51Z" fill="#523B2B"/>
<path d="M376.521 124.69C374.981 123.49 374.061 125.3 374.591 126.76C374.681 126.17 376.431 125.8 376.521 124.69Z" fill="#523B2B"/>
<path d="M361.271 176.16C360.251 176.32 358.831 178.84 360.841 179.2C360.211 179.24 362.601 176.59 361.271 176.16Z" fill="#523B2B"/>
<path d="M382.661 111.03C378.481 112.23 383.481 117.63 382.521 122.3C389.001 118.9 387.471 114.8 382.661 111.03Z" fill="#523B2B"/>
<path d="M385.601 188.09C385.911 185.61 383.531 179.19 383.331 185.21C383.471 186.45 383.521 191.24 385.601 188.09Z" fill="#523B2B"/>
<path d="M362.23 135.03C361.76 136.23 363.89 137.12 364.26 135.73C364.45 134.51 362.72 134.38 362.23 135.03Z" fill="#523B2B"/>
<path d="M359.831 151.81C359.761 153.39 361.831 152.46 362.771 152.38C363.601 150.57 360.301 150.19 359.831 151.81Z" fill="#523B2B"/>
<path d="M367.061 177.97C364.471 180.46 370.891 183.12 365.711 184.4C369.631 189.28 372.831 175.75 367.061 177.97Z" fill="#523B2B"/>
<path d="M383.781 171.27C381.281 171.11 379.281 174.49 379.631 176.92C381.671 177.38 385.231 173.57 383.781 171.27Z" fill="#523B2B"/>
<path d="M187.081 318.81C180.051 318.02 188.751 309.21 183.191 306.45C182.701 314.81 179.521 308.32 176.281 307.24C175.851 309.37 178.381 311.56 176.591 314.65C185.261 311.62 178.131 322.72 183.841 323.46C183.961 320.09 188.021 320.86 187.081 318.82V318.81Z" fill="#523B2B"/>
<path d="M73.2305 345.54C74.5205 346.06 76.2905 345.56 76.8705 344.19C76.1605 343.55 73.3205 344.83 73.2305 345.54Z" fill="#523B2B"/>
<path d="M70.931 382.94C73.841 379.94 72.821 387.82 74.701 383.16C76.341 377.5 68.011 382.01 70.931 382.94Z" fill="#523B2B"/>
<path d="M75.5109 400.56C76.6509 398.99 74.0909 397.18 72.4809 397.51C70.8609 398.01 74.4509 401.6 75.5109 400.56Z" fill="#523B2B"/>
<path d="M78.2208 350.48C79.7308 348.4 82.1608 350.39 83.0708 348.09C81.5708 345.78 75.9108 348.45 78.2208 350.48Z" fill="#523B2B"/>
<path d="M72.8211 372.87C73.5611 374.22 76.2211 372.06 76.0111 370.86C75.0211 368.97 72.2111 371.17 72.8211 372.87Z" fill="#523B2B"/>
<path d="M83.8408 331.79C83.2808 335.06 85.8209 333.93 87.4409 332.77C91.0209 329.1 83.5908 326.79 83.8408 331.79Z" fill="#523B2B"/>
<path d="M89.0106 346.82C90.7806 343.18 85.7806 345.84 85.3606 347.75C84.7406 350.78 91.5206 350.39 89.0106 346.82Z" fill="#523B2B"/>
<path d="M79.0312 331.44C80.4912 331.31 81.5612 328.72 81.0912 327.12C80.0412 327.77 77.6912 329.43 79.0312 331.44Z" fill="#523B2B"/>
<path d="M133.671 403.15C135.061 402.45 136.451 401.75 137.841 401.05C136.091 400.63 134.011 401.42 133.671 403.15Z" fill="#523B2B"/>
<path d="M79.8206 407.32C75.6606 406.55 74.5806 409.25 77.4406 413.49C83.5306 414.57 81.6206 410.72 79.8206 407.32Z" fill="#523B2B"/>
<path d="M81.4311 359.97C84.7311 362.29 85.9211 356.84 85.9511 354.53C86.6111 347.21 79.9711 360.19 81.4311 359.97Z" fill="#523B2B"/>
<path d="M116.331 393.72C116.811 393.08 120.451 394.66 121.051 392.68C120.371 388.4 114.991 389.33 116.331 393.72Z" fill="#523B2B"/>
<path d="M91.8107 414.16C91.3507 418.06 90.7307 421.57 92.1607 424.23C94.6307 422.9 97.1107 421.62 99.5907 420.32C97.5407 417.99 94.0007 415.71 91.8107 414.17V414.16Z" fill="#523B2B"/>
<path d="M93.1506 310.2C92.2206 311.35 91.2806 312.5 90.3506 313.65C91.3306 314.46 93.9606 311.55 93.1506 310.2Z" fill="#523B2B"/>
<path d="M86.4009 422.38C82.5409 422.41 86.3909 425.43 87.3609 426.81C90.0309 424 88.8809 420.73 86.4009 422.38Z" fill="#523B2B"/>
<path d="M86.551 401.56C75.181 402.11 81.201 403.48 80.011 407.5C83.991 410.53 88.091 406.15 86.551 401.56Z" fill="#523B2B"/>
<path d="M93.001 410.3C94.331 407.12 88.351 408.73 90.221 411.5C91.451 413.16 92.461 411.64 93.001 410.3Z" fill="#523B2B"/>
<path d="M95.6312 404.59C95.9112 402.15 92.3112 399.65 90.4912 401.91C91.5912 403.21 93.7112 407.84 95.6312 404.59Z" fill="#523B2B"/>
<path d="M113.311 366.42C114.031 367.9 116.201 367.76 117.591 368.49C117.451 366.94 115.471 365.12 113.311 366.42Z" fill="#523B2B"/>
<path d="M123.941 359.31C121.031 361.45 124.031 362.75 126.371 362.24C126.291 361.98 125.861 358.09 123.941 359.31Z" fill="#523B2B"/>
<path d="M126.201 362.4C126.231 363.7 127.481 366.08 129.891 365.39C132.641 363.52 128.211 360.28 126.201 362.4Z" fill="#523B2B"/>
<path d="M126.231 391.19C127.091 392.84 124.581 393.72 123.041 394.14C124.621 400.55 132.111 392.29 126.231 391.19Z" fill="#523B2B"/>
<path d="M125.931 314.26C127.471 314.23 129.031 309.49 127.551 308.81C126.451 309.49 124.751 313.1 125.931 314.26Z" fill="#523B2B"/>
<path d="M126.371 391.06C126.371 388.78 129.481 377.22 122.961 380.46C127.511 383.99 118.901 391.28 126.371 391.06Z" fill="#523B2B"/>
<path d="M118.181 406.76C115.981 406.1 114.107 406.35 112.561 407.51C113.551 406.94 116.621 408.24 118.181 406.76Z" fill="#523B2B"/>
<path d="M116.551 323.13C116.371 324.45 118.531 324.96 118.631 323.52C119.021 322.19 116.761 321.87 116.551 323.13Z" fill="#523B2B"/>
<path d="M72.3208 410.53C75.2408 405.38 67.5508 409.03 67.3308 404.21C66.7408 402.29 65.1408 404.11 63.0908 404.03C63.4208 406.28 63.7308 408.54 64.0508 410.79C66.7408 409.8 71.4108 411.88 72.3208 410.52V410.53Z" fill="#523B2B"/>
<path d="M92.681 371.1C90.811 371.51 88.691 375.45 92.411 375.78C95.911 375.85 94.951 371.76 92.681 371.1Z" fill="#523B2B"/>
<path d="M84.4813 398.25C83.3313 396.62 81.8013 399.28 82.6313 400.43C83.5313 401.37 83.9413 398.9 84.4813 398.25Z" fill="#523B2B"/>
<path d="M90.8906 330.49C92.8206 330.56 94.0806 328.13 94.5306 326.43C92.0206 325.23 88.2806 328.31 90.8906 330.49Z" fill="#523B2B"/>
<path d="M95.0205 358.69C94.1305 356.14 93.0805 359.61 94.2205 360.36C95.0305 360.09 95.0505 359.42 95.0205 358.69Z" fill="#523B2B"/>
<path d="M129.491 378.98C129.531 379.55 131.581 380.73 132.241 380.57C133.841 378.21 130.531 376.45 129.491 378.98Z" fill="#523B2B"/>
<path d="M69.8406 419.9C69.3206 419.97 66.9806 417.89 65.3906 419.29C66.6906 420.11 69.0306 422.43 69.8406 419.9Z" fill="#523B2B"/>
<path d="M80.9106 372.19C79.4006 373.33 82.3906 375.58 82.4806 373.27C82.3906 372.19 82.0406 370.75 80.9106 372.19Z" fill="#523B2B"/>
<path d="M331.091 287.08C342.381 295.19 335.131 283.79 327.431 283.48C322.931 286.29 325.731 291.29 331.091 287.08Z" fill="#523B2B"/>
<path d="M338.211 295.91C336.771 296.88 341.241 299.39 342.781 297.77C340.381 293.67 340.991 290.9 338.211 295.91Z" fill="#523B2B"/>
<path d="M295.601 235.53C298.941 237.28 300.511 239.31 302.151 235.83C306.271 238.7 306.391 239.86 308.441 234.07C311.491 232.41 310.251 226.87 307.091 230.4C306.791 237.13 297.761 229.98 295.601 235.53Z" fill="#523B2B"/>
<path d="M297.021 222.58C300.611 228.65 301.631 222.1 301.431 218.12C298.951 215.93 299.911 222.34 297.021 222.58Z" fill="#523B2B"/>
<path d="M374.451 175.64C370.781 178.42 376.331 184.55 378.671 186.7C378.351 178.53 383.511 178.62 374.451 175.64Z" fill="#523B2B"/>
<path d="M371.37 200.18C368.16 196.64 365.87 204.61 364.08 198.83C360.48 197.74 364.56 202.59 362.84 204.13C361.05 205.35 353.29 209.37 358.87 209.98C352.16 226.24 364.14 205.94 370.24 211.4C369.36 205.35 373.37 202.73 376.44 197.46C372.19 191.79 374.84 201.61 371.37 200.19V200.18Z" fill="#523B2B"/>
<path d="M362.831 218.66C360.391 220.53 363.281 226.31 365.281 222.51C364.521 221.37 364.701 218 362.831 218.66Z" fill="#523B2B"/>
<path d="M357.201 230.4C351.391 223.7 350.161 241.01 355.731 238.01C352.981 232.8 357.721 233.53 357.201 230.4Z" fill="#523B2B"/>
<path d="M314.631 218.28C314.381 219.59 316.841 219.94 316.781 218.5C316.631 217.15 314.711 216.7 314.631 218.28Z" fill="#523B2B"/>
<path d="M294.201 243.31C295.701 241.64 294.341 239.41 294.921 237.55C291.251 234.35 288.691 248.26 294.201 243.31Z" fill="#523B2B"/>
<path d="M317.251 268.77C316.251 268.37 314.591 267.92 314.411 269.65C314.411 269.02 317.001 270.1 317.251 268.77Z" fill="#523B2B"/>
<path d="M306.401 208.09C307.711 212.77 309.521 207.73 308.991 205.44C315.061 215.82 319.101 199.52 311.871 198.18C301.021 192.82 308.161 200.34 308.501 204.55C303.581 202.28 300.811 207.99 306.401 208.08V208.09Z" fill="#523B2B"/>
<path d="M314.241 244.53C314.171 243.31 311.671 242.69 310.911 243.68C309.891 246.02 314.021 247.64 314.241 244.53Z" fill="#523B2B"/>
<path d="M312.741 237.66C311.161 238.11 310.551 241.69 313.191 240.11C317.211 240.3 316.211 237.79 312.741 237.66Z" fill="#523B2B"/>
<path d="M343.33 283.76C345.52 286.25 346.65 280.83 343.11 282.17C343.46 281.88 343.08 283.43 343.33 283.76Z" fill="#523B2B"/>
<path d="M149.681 347.22C151.341 347.27 150.921 345.45 149.561 345.29C148.661 345.62 148.521 347.08 149.681 347.22Z" fill="#523B2B"/>
<path d="M143.391 368.8C139.851 371.7 146.911 377.44 145.581 372.49C142.101 372.08 145.911 368.93 143.391 368.8Z" fill="#523B2B"/>
<path d="M147.121 334.15C146.351 335.14 144.011 341.66 147.001 340.12C151.791 340.65 147.771 336.25 147.121 334.15Z" fill="#523B2B"/>
<path d="M155.651 340.23C153.151 337.91 148.991 343.05 153.281 343.04C152.571 340.65 155.211 341.53 155.651 340.23Z" fill="#523B2B"/>
<path d="M248.361 222.87C249.071 219.64 244.061 217.52 244.381 222.26C244.971 224.12 249.641 226.02 248.361 222.87Z" fill="#523B2B"/>
<path d="M160.881 325.46C160.371 323.02 160.091 321.29 157.231 321.37C153.161 322.11 157.031 329.95 160.881 325.46Z" fill="#523B2B"/>
<path d="M219.4 193.04C220.21 194.51 222.12 192.68 223.87 192.46C222.57 191.77 219.8 191.36 219.4 193.04Z" fill="#523B2B"/>
<path d="M223.361 262.79C226.181 259.39 227.451 254.97 227.971 249.71C225.851 247.95 217.441 260.4 223.361 262.79Z" fill="#523B2B"/>
<path d="M219.961 240.17C218.531 240.56 219.201 242.26 219.931 242.96C221.621 243.45 221.481 240.15 219.961 240.17Z" fill="#523B2B"/>
<path d="M215.101 240.05C215.301 238.16 219.131 236.12 215.471 235.51C211.271 235.31 210.991 242.06 215.101 240.05Z" fill="#523B2B"/>
<path d="M173.61 316.96C172.18 311.17 168.49 313.93 166.98 317.87C169.41 318.96 170.8 316.37 173.61 316.96Z" fill="#523B2B"/>
<path d="M169.011 376.41C166.401 376.95 168.751 382.56 170.391 384.27C171.961 381.55 169.741 377.4 169.011 376.41Z" fill="#523B2B"/>
<path d="M195.02 302.37C195.34 301.11 193.41 299.59 192.24 300.02C191.41 301.01 194.27 303.69 195.02 302.37Z" fill="#523B2B"/>
<path d="M237.931 255.72C233.661 251.69 233.291 263.43 233.731 265.34C241.871 276.46 247.401 246.13 237.931 255.72ZM237.981 255.85C242.861 255.61 239.391 260.47 237.981 255.85Z" fill="#523B2B"/>
<path d="M318.08 115.07C318.08 112.9 318.01 111.44 318.1 109.99C318.19 108.47 319.28 107.2 320.66 106.8C321.98 106.42 323.46 107.03 324.48 108.3C325.89 113.81 325.7 116.53 326.49 119.16C325.95 123.19 323.93 125.08 322.23 124.93C320.69 124.8 318.86 123.12 318.56 121.17C318.22 118.93 318.19 116.63 318.08 115.07Z" fill="#252528"/>
<path d="M593.98 50.23C593.95 48.52 594.02 46.02 595.01 43.67C597.16 40.81 598.25 40.02 599.61 40.52C601.06 41.05 602.03 42.13 602.44 43.61C602.16 48.55 601.82 51.63 601.37 54.71C601.11 56.48 599.7 57.68 597.98 57.81C595.96 57.97 594.17 56.65 593.99 54.74C593.88 53.51 593.97 52.26 593.97 50.23H593.98Z" fill="#252528"/>
<path d="M572.57 47.6101C572.67 50.1301 572.13 52.5501 571.37 54.9201C570.78 56.7601 569.33 57.8401 567.75 57.6901C566.25 57.5601 564.51 56.1701 564.18 54.6601C564.28 49.1401 564.68 46.7001 565.03 44.2501C565.47 42.5301 567.24 40.8501 568.2 40.7501C569.76 40.5901 572.14 42.3101 572.37 43.9001C572.55 45.1201 572.51 46.3701 572.57 47.6101Z" fill="#252528"/>
<path d="M385.8 88.7701C385.8 90.4101 385.91 92.0701 385.77 93.7001C385.6 95.6501 383.91 96.9102 381.87 96.8202C380.03 96.7402 378.5 95.6401 378.42 93.9201C378.25 90.4301 378.2 86.9302 378.32 83.4402C378.39 81.4202 380.12 80.1701 382.17 80.2801C383.91 80.3701 385.42 81.5502 385.62 83.2302C385.83 85.0602 385.84 86.9201 385.94 88.7701C385.9 88.7701 385.85 88.7701 385.81 88.7701H385.8Z" fill="#252528"/>
<path d="M631.91 48.8302C631.64 50.8902 631.55 52.9902 631.04 54.9802C630.38 57.6002 628.38 58.5401 625.71 57.7601C624.01 51.9601 623.96 48.4102 624.38 44.9102C624.73 42.0502 626.56 40.9402 629.25 41.3402C630.58 41.5402 631.56 42.4502 631.64 43.8102C631.73 45.4702 631.66 47.1402 631.66 48.8002C631.74 48.8002 631.82 48.8102 631.9 48.8202L631.91 48.8302Z" fill="#252528"/>
<path d="M712.47 61.5998C711.7 64.3298 710.7 67.8798 709.69 71.4198C708.34 73.4498 706.47 74.2598 705.12 73.7798C703.55 73.2198 701.97 70.9698 702.38 69.3698C703.2 66.1898 704.12 63.0298 705.26 59.9498C705.86 58.3098 707.32 57.4398 709.21 57.5498C710.81 57.6298 712.44 59.1898 712.48 61.6098L712.47 61.5998Z" fill="#252528"/>
<path d="M413.33 69.1902C416.12 70.5702 416.98 71.6902 417.18 73.2502C417.39 74.8902 417.5 76.5602 417.92 78.1502C418.46 80.1502 417.77 81.8502 416.98 83.5202C416.29 84.9702 414.99 85.5402 413.38 85.4302C412 85.3402 411.06 84.6702 410.57 83.3702C409.78 78.5402 409.7 75.4302 409.68 72.3202C409.68 70.6902 411.63 69.4902 413.32 69.1802L413.33 69.1902Z" fill="#252528"/>
<path d="M346.59 101.34C346.72 99.4801 346.79 97.6101 347 95.7601C351.15 93.4301 352.89 94.2001 353.69 96.4301C354.92 99.8701 354.5 103.41 354.13 106.91C351.92 109.9 350.8 110.52 349.45 110.1C347.93 109.63 346.92 108.59 346.82 106.97C346.71 105.1 346.8 103.22 346.8 101.35C346.73 101.35 346.66 101.35 346.59 101.35V101.34Z" fill="#252528"/>
<path d="M480.15 61.11C480.01 62.96 479.98 64.83 479.71 66.65C479.47 68.22 477.77 69.32 476 69.29C474.2 69.27 472.51 68.1 472.46 66.49C472.37 63.2 472.41 59.89 472.63 56.61C474.95 52.99 476.15 52.53 477.45 52.97C478.67 53.38 479.68 54.2 479.83 55.55C480.04 57.39 480.05 59.25 480.15 61.1V61.11Z" fill="#252528"/>
<path d="M540.21 49.4401C540.11 51.1701 540.06 53.0401 539.89 54.9001C539.74 56.4501 538.78 57.5501 537.58 58.4501C535.89 59.7101 532.77 58.7101 532.55 56.6701C532.14 52.7601 532 48.8101 533.26 44.9901C533.88 43.0901 535.08 42.4101 537.07 42.4901C539.04 42.5601 540.11 43.5901 540.21 45.5801C540.27 46.8201 540.22 48.0701 540.22 49.4501L540.21 49.4401Z" fill="#252528"/>
<path d="M511.3 54.7501C511.3 57.2801 511.31 58.7401 511.3 60.1901C511.28 61.8801 510.23 62.7801 508.83 63.4301C504.88 62.3601 503.94 61.4101 503.87 60.1401C503.71 57.0401 503.67 53.9201 503.77 50.8101C503.82 49.1001 505.39 47.8301 507.11 47.7101C509.13 47.5701 510.83 48.8601 511.07 50.8501C511.26 52.5001 511.27 54.1601 511.3 54.7501Z" fill="#252528"/>
<path d="M449.74 69.6099C449.74 70.8499 449.76 72.0899 449.74 73.3299C449.7 75.1799 448.64 76.3799 447.13 77.2499C443.26 76.3799 442.16 75.1699 442.14 73.3399C442.09 70.4499 442.04 67.5499 442.18 64.6699C442.28 62.5199 443.78 61.2899 445.86 61.2999C447.87 61.2999 449.43 62.6099 449.6 64.6599C449.74 66.2999 449.63 67.9599 449.63 69.6099C449.67 69.6099 449.71 69.6099 449.76 69.6099H449.74Z" fill="#252528"/>
<path d="M106.27 272.19C106.32 269.89 107.44 268.46 109.1 268.13C111.13 267.72 113.11 268.62 113.61 270.49C114.41 273.48 115.01 276.53 115.6 279.57C115.86 280.91 114.88 282.7 113.82 283.21C112.36 283.91 110.26 283.52 109.26 282.3C107.35 277.8 106.43 274.84 106.28 272.18L106.27 272.19Z" fill="#252528"/>
<path d="M290.62 127.58C290.42 125.5 290.91 123.81 292.54 122.52C294.28 121.14 297.19 121.72 297.69 123.81C298.4 126.81 298.86 129.88 299.2 132.94C299.39 134.72 298.07 136.17 296.42 136.55C294.5 136.99 292.57 136.05 291.95 134.13C291.26 131.98 290.36 129.83 290.62 127.58Z" fill="#252528"/>
<path d="M69.06 315.86C70.69 315.95 71.85 316.78 72.31 318.3C73.15 321.06 73.91 323.86 74.54 326.67C74.93 328.38 73.37 330.71 71.86 331.02C69.8 331.45 68.31 330.65 67.3 328.71C65.94 326.08 65.7 323.16 65.1 320.35C64.6 318.05 66.92 315.7 69.06 315.85V315.86Z" fill="#252528"/>
<path d="M658.9 51.6102C658.63 53.2302 658.31 55.4702 657.85 57.6902C657.58 58.9902 656.66 59.8402 655.36 60.1602C654.04 60.4902 652.92 60.0602 652.01 59.0902C650.98 58.0002 650.5 56.7102 650.43 55.1802C650.32 52.6502 650.94 50.2702 651.62 47.9002C652.05 46.4002 653.38 45.3202 654.72 45.2802C656.34 45.2302 657.38 46.1602 658.23 47.4302C658.96 48.5302 659.01 49.7502 658.9 51.6202V51.6102Z" fill="#252528"/>
<path d="M272.11 146C271.99 147.52 271.95 148.97 271.73 150.4C271.47 152.09 269.98 153.17 268.12 153.17C266.34 153.17 264.56 152 264.48 150.42C264.34 147.53 264.33 144.61 264.52 141.72C264.6 140.5 265.53 139.5 266.58 138.73C268.3 137.48 271.21 138.39 271.6 140.48C271.94 142.3 271.95 144.19 272.1 145.99L272.11 146Z" fill="#252528"/>
<path d="M244.47 163.56C244.36 165.02 244.33 166.47 244.13 167.9C243.93 169.37 242.71 170.41 241.17 170.64C239.35 170.92 237.97 170.09 237.26 168.37C236.18 165.77 236.79 163.06 236.73 160.41C238.05 155.96 239.31 155.3 240.91 155.46C242.42 155.6 243.85 156.66 244.03 158.03C244.28 159.87 244.33 161.73 244.46 163.57L244.47 163.56Z" fill="#252528"/>
<path d="M132.01 242.14C133.49 242.21 134.83 243 135.41 244.33C136.54 246.95 137.54 249.67 138.18 252.44C138.48 253.75 137.71 255.21 136.46 256.17C135.26 257.09 133.61 257.09 132.51 256.07C130.04 252.32 128.85 249.27 128.67 245.93C128.56 243.94 130.18 242.14 132.02 242.15L132.01 242.14Z" fill="#252528"/>
<path d="M92.6799 304.32C89.9599 308.26 87.4699 308.14 86.5199 306.52C84.7199 303.44 83.5999 300.1 83.7699 296.46C83.8399 295.01 85.0499 293.74 86.4899 293.43C88.2799 293.04 90.1599 293.75 90.7399 295.25C91.8599 298.16 92.8299 301.14 92.6899 304.33L92.6799 304.32Z" fill="#252528"/>
<path d="M677.76 62.9502C677.66 59.3202 678.78 57.0102 679.32 54.5802C680.48 52.8402 681.41 51.6502 683.07 51.7102C684.77 51.7702 686.61 53.7302 686.58 55.5302C686.55 58.4602 685.68 61.2602 684.69 63.9802C681.06 67.1802 678.39 66.0802 677.95 64.3402C677.75 63.5402 677.72 62.7002 677.75 62.9402L677.76 62.9502Z" fill="#252528"/>
<path d="M183.79 199.23C184.47 194.67 187.49 193.66 189.36 195.25C190.33 196.07 191.07 197.04 191.36 198.29C191.69 199.69 191.91 201.12 192.31 202.5C192.85 204.32 192.17 205.74 191.01 207.01C189.51 208.67 186.77 208.51 185.7 206.59C185.01 205.35 184.52 203.97 184.14 202.6C183.87 201.62 183.91 200.56 183.78 199.23H183.79Z" fill="#252528"/>
<path d="M159.81 218.7C164.24 222.54 164.27 225.58 164.75 228.42C164.96 229.67 163.01 231.58 161.6 231.93C160.29 232.26 158.45 231.53 157.91 230.2C156.98 227.9 156.14 225.54 155.46 223.16C154.86 221.08 157.27 218.56 159.81 218.71V218.7Z" fill="#252528"/>
<path d="M219.05 184.6C218.58 187.58 215.62 188.8 213.75 187.25C211.25 183.61 210.99 182.17 210.63 180.78C210.3 179.5 210.78 178.37 211.3 177.22C211.88 175.94 212.86 175.38 214.2 175.33C215.79 175.28 217.06 175.89 217.69 177.37C218.59 179.46 219.27 181.62 219.04 184.6H219.05Z" fill="#252528"/>
<path d="M52.43 353.32C48.23 351.68 45.75 347.63 46.02 344.55C48.84 341.59 51.38 341.8 52.41 343.13C53.67 344.76 54.84 346.5 55.8 348.32C56.74 350.12 54.51 353.28 52.43 353.32Z" fill="#252528"/>
<path d="M719.29 65.41C719.2 67.59 717.2 69.42 715.05 68.96C713.04 68.52 711.07 67.78 709.18 66.94C699.65 62.73 689.9 59.11 679.89 56.22C671.3 53.74 662.67 51.46 653.82 50.05C648.08 49.13 642.4 47.81 636.66 46.86C632.76 46.21 628.82 45.56 624.88 45.47C616.12 45.27 607.4 43.57 598.64 44.31C589.06 45.12 579.44 44.79 569.89 45.6C564.48 46.06 559.06 46.16 553.67 46.62C547.04 47.2 540.4 47.65 533.79 48.59C529.26 49.23 524.68 49.49 520.14 50.17C512.74 51.29 505.32 52.21 497.95 53.55C491.2 54.78 484.47 56.07 477.73 57.36C467.91 59.23 458.27 61.79 448.6 64.21C429.03 69.11 409.74 75.01 390.65 81.53C372.91 87.59 355.52 94.55 338.48 102.35C328.24 107.03 318.31 112.33 308.54 117.95C287.74 129.92 267.81 143.25 247.72 156.33C230.41 167.6 213.56 179.53 197.29 192.24C188.75 198.92 180.44 205.91 172.22 212.99C162.11 221.71 152.01 230.47 142.28 239.6C132.08 249.17 122 258.88 112.81 269.47C108.3 274.67 103.44 279.58 98.9896 284.83C92.1196 292.95 85.3496 301.16 78.7296 309.48C67.0396 324.18 56.2696 339.55 45.7896 355.12C43.6896 358.23 41.5596 361.32 39.3096 364.33C38.0696 365.99 36.5996 367.5 35.1596 369C34.2296 369.97 32.9496 370.1 31.6696 370.01C29.0196 369.83 27.2696 366.44 28.9496 364.39C40.8696 349.84 49.7696 333.19 61.2196 318.32C67.8396 309.73 74.4696 301.15 81.2296 292.67C100.16 268.94 121.5 247.48 143.64 226.8C151.87 219.11 160.63 212 169.03 204.5C176.04 198.24 183.46 192.49 190.79 186.63C201.06 178.42 211.63 170.62 222.41 163.1C242.6 149.03 263.35 135.81 284.13 122.63C300.16 112.47 316.64 103.06 333.89 95.09C355.83 84.94 378.39 76.38 401.39 68.94C424.95 61.32 448.87 55.01 472.99 49.47C480.88 47.66 488.92 46.48 496.91 45.08C503.67 43.9 510.43 42.73 517.21 41.72C521.74 41.05 526.31 40.66 530.86 40.16C534.58 39.75 538.3 39.33 542.03 38.96C545.55 38.61 549.14 39.03 552.6 37.95C564.67 37.32 574.88 36.73 585.09 36.38C591.98 36.14 598.88 36.22 605.77 36.15C619.15 36.02 632.35 37.51 645.53 39.81C655.37 41.52 665.12 43.53 674.83 45.91C686.6 48.79 697.89 52.98 709.04 57.62C711.15 58.5 713.3 59.31 715.36 60.32C716.46 60.86 717.44 61.69 718.36 62.51C719.18 63.24 719.38 64.29 719.31 65.38L719.29 65.41Z" fill="#252528"/>
<path d="M610.47 23.8697C610.47 22.4197 610.34 20.9597 610.51 19.5297C610.66 18.3197 611.02 17.0997 611.54 15.9997C612.09 14.8397 613.18 14.1097 614.52 14.0897C615.87 14.0697 616.83 14.8897 617.56 15.9497C619.22 21.3697 619.29 25.6397 617.96 29.8897C615.68 33.4197 612.22 33.1297 611.32 31.1397C610.81 29.9997 610.32 28.8897 610.37 27.5997C610.42 26.3597 610.38 25.1197 610.38 23.8797H610.45L610.47 23.8697Z" fill="#252528"/>
<path d="M567.39 14.2897C567.39 16.1497 567.59 18.0297 567.34 19.8497C567.05 21.9297 566.18 23.7997 563.92 24.5997C559.79 22.9497 558.83 21.3597 559.26 19.7697C560.03 16.8997 559.69 14.0197 559.9 11.1597C560.43 7.35969 562.05 6.13969 564.1 6.27969C565.86 6.39969 567.22 7.63969 567.46 9.33969C567.54 11.3997 567.54 12.8397 567.54 14.2897C567.49 14.2897 567.45 14.2897 567.4 14.2897H567.39Z" fill="#252528"/>
<path d="M631.61 26.6697C631.61 25.2197 631.54 23.7797 631.63 22.3397C631.72 20.8297 632.49 19.6297 633.64 18.6497C635.52 17.0497 638.55 17.9797 639.02 20.3697C639.31 25.0897 639.13 27.3497 639.82 29.5797C640.42 31.5097 639.59 33.2397 638.55 34.8097C637.2 36.8497 634.02 36.6797 632.86 34.4997C632.18 33.2397 631.59 31.9097 631.64 30.3897C631.68 29.1497 631.64 27.9097 631.64 26.6697H631.59H631.61Z" fill="#252528"/>
<path d="M17.9502 308.85C18.0802 310.24 16.4302 312.15 14.9502 312.3C13.1802 312.48 11.6002 312.2 10.7102 310.42C9.23016 307.44 7.69016 304.49 6.33016 301.46C5.79016 296.68 6.94016 295.82 8.37016 295.23C9.59016 294.73 10.8102 295 11.7602 296.02C14.4702 300.65 15.9502 303.85 17.4102 307.06C17.6702 307.62 17.7702 308.25 17.9502 308.85Z" fill="#252528"/>
<path d="M170.29 129.19C170.29 127.33 170.26 125.48 170.3 123.62C170.34 122.07 171.15 120.91 172.32 119.95C174 118.59 176.77 119.32 177.47 121.34C177.75 126.65 177.81 130.78 177.6 134.89C177.48 137.17 175.52 138.42 173.18 138.1C171.72 137.9 170.33 136.75 170.25 135.36C170.12 133.31 170.22 131.24 170.22 129.19C170.24 129.19 170.27 129.19 170.29 129.19Z" fill="#252528"/>
<path d="M540.36 13.3398C540.27 15.3998 540.24 17.4698 540.05 19.5198C539.92 20.9598 538.62 22.1998 537.25 22.4598C535.87 22.7198 534.85 22.0398 533.98 21.1098C533.11 20.1798 532.59 19.0698 532.58 17.7598C532.57 14.6598 532.55 11.5598 532.54 8.45983C532.54 7.14983 533.06 6.06983 533.99 5.15983C534.93 4.23983 536.01 3.69983 537.34 4.05983C538.63 4.40983 539.5 5.27983 539.85 6.53983C540.22 10.4298 540.18 11.8798 540.18 13.3298C540.24 13.3298 540.3 13.3298 540.35 13.3298L540.36 13.3398Z" fill="#252528"/>
<path d="M57.2705 225.75C57.3805 223.45 58.6605 221.77 60.1205 221.37C61.5505 220.99 64.0505 222.45 64.5505 224.1C65.5105 227.28 66.3905 230.49 67.2805 233.69C64.7705 239.39 62.8205 239.48 61.3705 237.96C58.6005 233.1 57.3005 229.6 57.2805 225.76L57.2705 225.75Z" fill="#252528"/>
<path d="M143.78 147.91C143.78 145.85 143.68 143.78 143.81 141.73C143.9 140.31 145.24 139.24 146.78 139.04C148.44 138.82 149.67 139.45 150.33 140.85C151.15 146.47 151.27 150.38 151.18 154.29C151.14 155.86 148.66 157.59 147.07 157.49C145.84 157.41 143.96 155.61 143.86 154.09C143.72 152.04 143.83 149.97 143.83 147.91C143.81 147.91 143.79 147.91 143.78 147.91Z" fill="#252528"/>
<path d="M592.83 19.7498C592.83 20.9898 592.85 22.2298 592.83 23.4598C592.37 26.6798 590.6 28.3198 589.21 28.5398C587.8 28.7598 585.39 26.8998 585.31 25.1698C585.14 21.4698 585.13 17.7498 585.25 14.0498C585.3 12.4998 586.52 11.5398 587.83 10.7998C591.71 11.7198 592.68 12.9498 592.7 14.7998C592.7 16.4498 592.7 18.0998 592.7 19.7498H592.84H592.83Z" fill="#252528"/>
<path d="M20.7197 273.61C20.7497 271.9 21.3797 271.01 23.0597 270.33C24.2097 269.86 26.2897 270.33 26.9197 271.43C28.8797 274.83 30.4697 278.42 31.5797 282.19C32.0497 283.79 30.7797 285.96 29.1197 286.71C22.8897 281.5 20.8697 277.89 20.7197 273.62V273.61Z" fill="#252528"/>
<path d="M196.65 108.57C196.49 106.47 196.57 104.43 197.8 102.59C198.8 101.09 201.21 100.61 202.68 101.71C204.32 105.91 204.77 108.77 205.04 111.64C203.91 116.34 202.8 117.53 200.93 117.68C199.51 117.8 198.12 116.44 197.38 114.69C196.53 112.7 196.81 110.61 196.64 108.57H196.65Z" fill="#252528"/>
<path d="M38.3105 249.69C38.4105 247.95 38.4105 246.74 39.5805 245.88C41.1305 244.74 43.4505 244.93 44.5305 246.41C46.4205 250.49 47.4405 252.96 48.2405 255.5C48.6005 256.64 48.6405 257.94 48.5405 259.14C48.3505 261.54 45.2605 262.87 43.4005 261.4C39.9005 256.39 38.5905 252.95 38.3105 249.69Z" fill="#252528"/>
<path d="M126.671 171.41C125.741 176.73 122.741 177.58 121.101 176.24C120.101 175.43 119.291 174.42 119.021 173.19C118.461 170.55 118.031 167.88 117.641 165.21C117.941 161.28 119.801 159.62 121.181 159.52C122.251 159.44 124.151 160.63 124.631 161.87C125.081 163.03 125.381 164.25 125.631 165.47C126.041 167.5 126.361 169.56 126.681 171.42L126.671 171.41Z" fill="#252528"/>
<path d="M371.83 31.6199C372.01 33.6199 371.53 35.3599 370.11 36.7899C368.58 38.3399 365.74 38.0299 364.78 36.0899C364.23 34.9899 363.71 33.7799 363.59 32.5799C363.37 30.3099 363.37 28.0099 363.44 25.7299C365.02 22.1099 366.17 21.2199 367.82 21.4699C369.42 21.7099 370.52 22.7199 370.75 24.2799C371.11 26.7399 372.1 29.0999 371.83 31.6099V31.6199Z" fill="#252528"/>
<path d="M264.04 75.4397C264.18 77.2497 263.88 78.6197 263.18 79.9397C262.38 81.4397 260.61 82.4597 259.19 82.0597C257.7 81.6397 256.64 80.8097 256.45 79.1197C256.22 77.0797 255.88 75.0597 255.64 73.0197C255.52 67.8297 257.37 65.6697 259.12 65.6097C260.37 65.5697 262.41 66.9997 262.77 68.5297C263.33 70.9197 264.39 73.2297 264.03 75.4397H264.04Z" fill="#252528"/>
<path d="M418.61 17.2996C418.56 15.2596 418.41 13.5896 419.46 12.0996C420.35 10.8396 421.4 9.92964 423.07 10.1096C424.54 10.2696 425.63 11.2196 426.05 12.8696C426.67 15.2896 427.2 17.7496 426.99 20.2596C426.89 21.4696 426.5 22.6896 426.1 23.8496C425.57 25.3796 424.38 26.1896 422.79 26.2496C421.49 26.2996 420.07 25.0996 419.61 23.6696C418.92 21.4796 418.41 19.2496 418.62 17.2996H418.61Z" fill="#252528"/>
<path d="M74.8701 209.56C74.7401 205.52 76.4901 203.82 79.0401 204.13C80.4001 204.3 81.5301 204.99 81.9001 206.23C82.9101 209.59 83.7801 213 84.5501 216.43C84.8901 217.94 83.1101 220.13 81.4301 220.62C79.9301 221.05 78.0201 220.21 77.4201 218.43C76.3101 215.11 75.4701 211.7 74.8701 209.57V209.56Z" fill="#252528"/>
<path d="M318.211 50.66C317.621 55.39 315.891 56.56 314.171 56.49C312.731 56.44 311.131 55.38 310.801 54.17C310.311 50.08 310.471 47.8 309.651 45.6C309.191 44.37 309.761 43.19 310.321 42.05C310.931 40.8 311.881 40.17 313.251 40.16C314.871 40.14 316.271 40.94 316.731 42.26C317.131 43.43 317.501 44.62 317.711 45.84C317.981 47.46 318.071 49.12 318.231 50.65L318.211 50.66Z" fill="#252528"/>
<path d="M93.7502 189.12C93.5102 186.44 94.5502 184.79 96.0902 184.37C98.0402 183.84 100.18 184.58 100.79 186.35C101.86 189.45 102.77 192.62 103.56 195.8C104.01 197.62 102 200.05 100.14 200.29C99.1602 200.42 96.8302 199.29 96.5102 198.29C95.4402 194.97 94.5002 191.61 93.7602 189.11L93.7502 189.12Z" fill="#252528"/>
<path d="M284.13 59.59C284.54 53.72 286.29 52.06 287.68 51.86C288.86 51.69 291.08 53.24 291.38 54.72C292.08 58.19 292.15 61.71 291.72 65.22C291.52 66.86 289.9 67.95 288.06 67.9C286.29 67.85 284.69 66.68 284.47 65.07C284.25 63.43 284.25 61.77 284.12 59.6L284.13 59.59Z" fill="#252528"/>
<path d="M344.81 38.7796C344.96 39.7796 345.3 41.6096 344.55 43.4196C344.1 44.5096 342.33 46.0896 341.29 45.8896C340.1 45.6596 338.8 45.3296 338.2 44.0696C336.99 38.5096 336.97 35.8096 337.07 33.1296C337.14 31.4096 338.61 30.1596 340.37 30.0096C342.43 29.8296 344.14 31.0196 344.41 32.9996C344.63 34.6396 344.65 36.2996 344.81 38.7796Z" fill="#252528"/>
<path d="M510.15 12.9097C510.07 14.3497 510.05 15.7897 509.89 17.2197C509.72 18.6597 508.51 19.7997 507.06 20.0897C505.33 20.4397 503.77 19.6597 503.1 17.9397C502.31 12.9297 502.37 10.8597 502.37 8.79969C502.79 5.82969 504.91 3.96969 506.35 4.14969C507.73 4.31969 509.47 5.92969 509.8 7.34969C509.97 10.0197 509.96 11.4597 509.96 12.8997C510.02 12.8997 510.09 12.8997 510.15 12.8997V12.9097Z" fill="#252528"/>
<path d="M483.361 13.8697C483.331 15.9897 482.731 17.5297 481.851 18.9497C480.901 20.4997 478.221 20.7397 476.911 19.4097C474.821 13.9497 474.341 10.4597 475.771 7.04971C476.401 5.53971 477.581 4.86971 479.221 4.99971C480.841 5.12971 482.101 6.04971 482.381 7.52971C482.801 9.76971 483.091 12.0197 483.371 13.8697H483.361Z" fill="#252528"/>
<path d="M233.201 91.8596C233.131 92.8596 233.101 94.0996 232.921 95.3096C232.721 96.6896 231.381 97.7596 229.881 97.9296C228.251 98.1096 227.041 97.4897 226.371 96.0396C225.411 91.4797 225.35 89.2096 225.43 86.9596C225.5 85.0996 226.791 84.0096 228.401 83.3896C231.721 84.2796 232.791 85.4996 232.951 87.3096C233.081 88.7396 233.111 90.1896 233.191 91.8596H233.201Z" fill="#252528"/>
<path d="M396.061 24.3996C395.711 28.9996 394.471 30.0796 392.951 30.2996C391.271 30.5296 390.001 29.9796 389.371 28.5596C388.261 23.8196 388.251 21.9496 388.311 20.0996C388.391 17.5596 389.811 16.1496 392.091 16.1696C394.331 16.1896 395.621 17.5296 395.871 20.1596C395.981 21.3896 395.991 22.6296 396.071 24.3996H396.061Z" fill="#252528"/>
<path d="M453.861 15.5898C453.741 17.0898 453.691 18.3298 453.521 19.5498C453.321 20.9798 452.171 21.5398 451.001 21.9798C450.161 22.2998 448.171 21.7198 447.671 20.9398C446.111 16.3698 446.091 14.4998 446.191 12.6598C446.261 11.3798 447.121 10.4098 448.101 9.59979C449.771 8.22979 452.681 8.92979 453.221 10.9798C453.631 12.5498 453.681 14.2198 453.861 15.5898Z" fill="#252528"/>
<path d="M506.45 0.239968C514.25 0.239968 520.73 0.069968 527.2 0.279968C535.74 0.549968 544.29 0.859968 552.8 1.62997C561.9 2.45997 570.95 3.93997 580.04 4.95997C589.97 6.07997 599.79 7.85997 609.55 9.90997C616.05 11.27 622.48 12.95 628.95 14.43C632.19 15.17 635.46 15.77 638.71 16.48C640.54 16.88 642.37 17.3 644.15 17.88C645.71 18.39 646.68 20.23 646.5 21.9C646.32 23.61 644.97 25.05 643.28 25.22C641.19 25.43 639.12 25.27 637.07 24.76C629.61 22.92 622.16 20.99 614.66 19.33C609.39 18.17 604.03 17.37 598.7 16.46C591.53 15.25 584.36 13.97 577.16 12.95C572.01 12.22 566.74 12.22 561.65 11.23C554.02 9.73997 546.22 10.73 538.62 9.23997C537.41 8.99997 536.12 9.10997 534.87 9.07997C517.12 8.69997 499.36 8.61997 481.61 9.09997C473.9 9.30997 466.2 9.79997 458.51 10.43C451.04 11.03 443.59 11.83 436.16 12.8C429.57 13.67 423.03 14.88 416.47 15.98C410.93 16.9 405.41 17.87 399.87 18.81C387.97 20.82 376.26 23.66 364.64 26.89C347.59 31.62 330.88 37.4 314.54 44.17C297.21 51.35 280.21 59.25 263.83 68.43C256.01 72.81 248.15 77.11 240.34 81.51C222.53 91.54 205.35 102.59 188.4 114.01C172.13 124.97 156.38 136.64 141.25 149.1C132.88 155.99 124.87 163.33 116.81 170.59C111.23 175.62 105.83 180.85 100.38 186.02C89.6197 196.24 79.5697 207.14 69.5997 218.1C49.7697 239.88 31.6797 263.03 15.9197 287.95C13.1397 292.35 10.4397 296.82 7.75972 301.28C6.96972 302.59 5.94972 303.51 4.54972 304.11C0.669715 302.74 -0.230285 301.7 0.0297148 300.38C0.269715 299.18 0.879715 298.02 1.48971 296.94C3.73971 292.94 5.97971 288.94 8.35971 285.02C18.0797 268.95 28.7397 253.53 40.6497 238.98C48.3197 229.61 56.1897 220.44 64.2897 211.45C79.2597 194.83 95.0697 179.04 111.44 163.85C131.49 145.25 152.96 128.37 175.36 112.65C195.52 98.5 216.35 85.44 237.65 73.13C253.52 63.95 269.69 55.28 286.28 47.42C307.95 37.17 330.19 28.4 353.11 21.35C366.43 17.25 379.94 13.93 393.62 11.27C397.7 10.48 401.64 9.12997 405.8 8.62997C409.92 8.12997 413.97 7.09997 418.08 6.50997C422.61 5.85997 427.18 5.51997 431.73 4.93997C436.47 4.32997 441.2 3.60997 445.93 2.93997C454.66 2.30997 462.14 1.68997 469.63 1.33997C482.34 0.759968 495.02 -0.510032 506.44 0.249968L506.45 0.239968Z" fill="#252528"/>
</svg>
