<svg width="1750" height="795" viewBox="0 0 1750 795" fill="none" xmlns="http://www.w3.org/2000/svg">
<g clip-path="url(#clip0_1658_165142)">
<path d="M1056.25 284.15C1043.53 275.39 1028.54 269.9 1013.17 268.29C1017.89 259.6 1021.13 250.1 1022.52 240.31C1024.68 225 1022.61 207.41 1012.84 194.9C1007.54 188.11 1000.01 183.73 991.41 182.81C982.32 181.84 973.06 184.27 965 188.4C960.27 190.83 955.88 193.89 951.93 197.45C952.04 196.9 952.15 196.35 952.24 195.8C954.41 182.95 952.69 169.23 945.85 157.99C938.48 145.88 925.7 138.27 911.99 135.54C897.46 132.65 882.42 135.1 869.13 141.47C866.44 142.76 863.85 144.23 861.31 145.78C864.59 133.36 865.45 120.33 862.41 107.75C859.37 95.1501 852.28 83.6001 841.19 76.6001C830.08 69.5901 816.46 67.3801 803.53 68.8801C789.46 70.5201 776.34 76.7601 764.87 84.8601C753.11 93.1601 742.66 103.42 733.29 114.3C724.03 125.04 715.84 136.71 708.96 149.12C702.11 161.48 696.6 174.59 692.8 188.21C689.04 201.66 687.02 215.6 687.08 229.57C687.1 233.09 687.24 236.62 687.52 240.13C686.19 239.65 684.81 239.29 683.41 239.07C675.1 237.77 666.62 240.56 659.96 245.53C652.74 250.92 647.93 258.63 645.64 267.29C644.24 272.59 643.78 278.06 644.04 283.52C636.65 291.5 629.54 300.79 626.61 311.15C619.5 336.3 642.9 357.73 660.3 371.87C680.35 388.17 703.12 401.5 727.67 409.73C751.51 417.72 777.12 420.75 802.01 416.44C829.02 411.77 853.75 399.06 880.45 393.23C894.74 390.11 908.93 389.85 923.43 391.64C938.6 393.52 953.58 396.28 968.87 397.13C983.84 397.97 998.89 397.61 1013.8 396.03C1026.12 394.73 1038.53 392.84 1050.3 388.9C1060.53 385.48 1070.49 380.35 1077.96 372.41C1085.65 364.23 1089.66 353.54 1089.77 342.35C1090 318.75 1075.15 297.15 1056.27 284.15H1056.25Z" fill="#3B5C45"/>
<path d="M723.15 310.88C728.95 295.96 735.78 281.42 743.31 267.31C750.99 252.92 759.43 238.71 769.66 225.96C774.69 219.69 780.14 213.39 786.45 208.38C791.81 204.13 798.53 200.68 805.53 200.69C809.65 200.69 813.45 202.27 816.27 205.28C818.94 208.13 820.57 211.82 821.67 215.52C823.31 221.05 823.79 226.76 823.83 232.49C823.83 232.6 823.83 232.7 823.83 232.81C823.8 233.64 824.96 233.91 825.36 233.22C836.06 214.81 850.93 198.88 868.55 186.91C877.68 180.71 887.61 175.27 898.13 171.83C908.83 168.34 921.12 166.84 931.79 171.3C941.69 175.44 950.28 184.81 951.19 195.81C951.28 196.86 952.92 196.86 952.83 195.81C952.01 185.88 945.43 177.24 937.09 172.17C927.26 166.19 915.19 165.94 904.23 168.43C892.76 171.04 881.94 176.45 872.03 182.68C862.74 188.51 854.12 195.41 846.39 203.18C837.7 211.91 830.14 221.75 823.95 232.39C824.46 232.53 824.97 232.67 825.48 232.8C825.69 227.71 825.09 222.45 823.92 217.51C822.09 209.77 817.92 201.38 809.46 199.48C803.73 198.19 797.52 199.93 792.42 202.55C784.67 206.53 778.63 213.11 772.95 219.55C762.15 231.8 753.39 245.78 745.45 260.01C737.25 274.71 729.9 289.92 723.55 305.51C722.88 307.15 722.23 308.79 721.59 310.44C721.21 311.43 722.79 311.85 723.17 310.88H723.15Z" fill="#151C21"/>
<path d="M1211.57 398.58C1204.92 385.59 1189.96 377.96 1175.65 377.99C1164.84 378.03 1154.59 382.15 1145.88 388.44C1149.23 382.01 1151.36 374.88 1152.35 367.67C1153.37 360.07 1153.2 352.34 1151.95 344.77C1150.51 336.18 1147.75 327.75 1143.14 320.31C1135.27 307.61 1122.29 298.99 1108.18 294.59C1093.11 289.91 1077.13 290.15 1061.89 293.94C1056 295.4 1050.26 297.35 1044.66 299.67C1044.63 291.54 1044.02 283.42 1042.76 275.39C1040.76 262.64 1037.29 250.02 1031.48 238.47C1025.82 227.24 1017.84 217.28 1007.44 210.12C996.69 202.73 984 198.53 971.17 196.64C958.93 194.84 946.4 195.02 934.18 196.77C922.56 198.41 911.14 201.49 900.23 205.79C889.25 210.11 878.75 215.66 868.93 222.19C859.07 228.75 849.9 236.3 841.51 244.66C841.18 244.99 840.88 245.33 840.55 245.66C834.64 232.91 825.45 221.9 813.91 213.76C800.5 204.29 784.49 198.66 768.15 197.36C753.32 196.18 738.43 198.76 725.26 205.81C722.27 207.41 719.37 209.26 716.66 211.34C720.26 202.39 723.04 193.12 724.95 183.66C729.05 163.15 729.18 141.53 724.43 121.11C720 102.12 710.66 83.37 694.12 72.18C677.35 60.84 655.42 58.78 636.16 63.98C635.01 64.29 633.87 64.63 632.75 65C633.43 62.64 634.07 60.24 634.6 57.82C636.87 47.49 637.49 36.63 635.5 26.2C633.78 17.19 629.43 8.83999 621.22 4.24999C606.01 -4.26001 586.5 1.51999 571.9 8.42999C555.15 16.38 540.02 27.67 527.46 41.29C524.65 44.35 522 47.53 519.45 50.79C519.96 45.8 519.45 39.97 515.7 36.46C509.85 31 501.72 36.02 496.15 39.27C470.28 54.36 448.74 76.58 433.96 102.58C430.86 108.01 428.08 113.61 425.63 119.34C422.78 115.44 418.14 113.1 413 112.86C404.7 112.47 396.28 116.1 389.35 120.38C381.04 125.52 373.24 131.78 365.66 137.95C350.01 150.68 335.44 164.72 322.15 179.88C308.91 194.97 296.93 211.16 286.36 228.23C276 244.97 267.01 262.56 259.54 280.79C258.32 283.04 257.38 285.43 256.72 287.86C256.54 288.33 256.35 288.79 256.18 289.26C256.07 289.52 256.13 289.77 256.25 289.95C256.21 290.11 256.17 290.26 256.14 290.4C253.25 306.64 264.53 321.13 276.01 331.18C289.88 343.31 306.04 353.3 322.07 362.28C328.68 365.99 335.41 369.54 342.25 372.94C397.5 400.51 459.46 418.66 520.4 432.45C535.61 435.89 550.73 439.07 565.68 442.05C596.84 448.25 628.24 453.22 659.79 456.92C691.65 460.65 723.66 463.09 755.73 464.21C822.72 466.56 888.45 448.57 955.36 448.98C999.25 449.24 1039.95 461 1081.76 466.02C1106.17 468.97 1130.97 469.6 1156.98 464.3C1173.81 460.9 1191.54 455.15 1203.3 441.94C1213.65 430.31 1219.02 413.11 1211.57 398.57V398.58Z" fill="#23382A"/>
<path d="M499.51 277.41C496.54 263.42 489.4 250.75 478.81 241.13C468.32 231.59 455.02 225.27 441.12 222.61C428.58 220.21 415.35 220.87 403.23 224.99C409.32 219.06 412.51 210.26 412.62 201.7C412.72 195.58 411.24 189.57 408.29 184.22C404.88 178.06 399.84 172.91 394.06 168.95C382.37 160.96 368.01 157.49 353.97 157.54C345.79 157.56 337.64 158.84 329.79 161.15C328.67 158.2 327.36 155.31 325.88 152.52C321.91 145.05 316.67 138.24 310.12 132.85C303.31 127.27 295.2 123.43 286.55 121.79C265.88 117.83 244.36 125.98 228.53 139.14C211.74 153.11 200.21 172.19 190.48 191.48C185.29 201.76 180.56 212.28 176.31 223C175.62 222.39 174.96 221.75 174.24 221.16C165.46 213.89 154.54 208.6 143.03 207.86C132.97 207.22 123.05 210.24 114.89 216.13C106.94 221.88 100.9 229.89 96.3197 238.47C91.4797 247.55 88.1597 257.41 85.9797 267.44C83.3997 279.33 82.1097 291.67 82.5497 303.83C83.0297 316.41 85.6197 329.06 91.4297 340.29C100.48 357.74 119.16 371.81 139.3 371.81C129.17 376 120.4 383.35 114.48 392.63C115.55 392.42 116.6 392.19 117.66 391.92C117.91 391.87 118.15 391.79 118.38 391.72C117.26 394.86 116.34 398.07 115.88 401.34C115.19 406.25 115.88 411.12 118.24 415.49C122.77 423.9 131.65 428.92 140.81 430.58C151.69 432.53 163.05 430.55 173.72 428.23C193.14 424 211.82 416.64 228.96 406.59C242.8 398.5 255.62 388.61 266.96 377.27C267.9 377.96 268.83 378.62 269.8 379.24C280.04 385.66 292.36 387.78 304.29 387.66C315.8 387.56 327.42 385.3 337.94 380.52C347.69 376.09 356.36 369.44 362.76 360.82C372.45 361.31 382.23 360.62 391.77 359.46C409.5 357.31 426.98 353.14 443.81 347.15C460.65 341.16 476.84 333.34 492.01 323.92C493.31 323.12 494.59 322.31 495.85 321.49C496.08 320.85 496.33 320.19 496.56 319.54C501.27 306.09 502.44 291.34 499.48 277.4L499.51 277.41Z" fill="#151C21"/>
<path d="M438.98 123.92C455.77 106.82 477.85 92.25 502.71 92.91C513.84 93.2 525.06 96.49 534.03 103.21C542.57 109.62 548.16 118.97 549.82 129.51C551.58 140.69 548.67 152.77 540.31 160.73C540.74 161.06 541.17 161.39 541.6 161.72C551.29 144.18 570.7 130.84 591.16 131.41C600.4 131.66 609.12 134.94 615.94 141.21C622.24 147 626.77 154.75 628.69 163.09C630.82 172.33 629.42 182.18 623.58 189.81C623.07 190.48 624.05 191.34 624.7 190.93C637.59 182.86 655.17 190.03 662.47 202.34C671.79 218.07 667.53 237.78 659.22 252.91C654.06 262.31 647.37 270.75 640.72 279.13C640.07 279.95 641.22 281.12 641.88 280.29C653.8 265.29 666.38 249.29 668.91 229.69C670.06 220.74 669.05 211.35 664.86 203.26C661.25 196.3 655.22 190.97 647.94 188.08C640.17 184.99 631.1 185 623.88 189.52C624.25 189.89 624.63 190.27 625 190.64C636.17 176.04 631.22 155.07 619.47 142.41C613.05 135.5 604.66 131.24 595.31 130.08C584.98 128.8 574.45 131.34 565.32 136.19C554.81 141.78 545.92 150.48 540.17 160.89C539.72 161.71 540.78 162.53 541.46 161.88C549.07 154.64 552.42 144.06 551.88 133.72C551.33 123.03 546.85 112.75 539.08 105.35C530.7 97.36 519.52 92.93 508.11 91.63C496.01 90.26 483.92 92.61 472.83 97.47C461.03 102.63 450.53 110.45 441.27 119.32C440.1 120.44 438.95 121.59 437.81 122.74C437.07 123.49 438.23 124.66 438.97 123.9L438.98 123.92Z" fill="#151C21"/>
<path d="M700.649 320.76C716.719 308.12 733.539 294.91 753.809 290C772.429 285.49 793.739 288.75 805.739 304.96C811.469 312.7 814.399 322.54 812.239 332.08C811.999 333.14 813.429 333.47 813.819 332.52C825.049 305.29 846.189 282.4 872.349 268.89C886.989 261.33 904.239 255.7 920.839 258.91C927.179 260.14 933.139 262.97 937.289 268.06C941.269 272.94 943.099 279.3 943.409 285.51C943.769 292.85 940.529 299.92 936.699 305.99C934.559 309.37 932.149 312.67 929.389 315.57C928.659 316.34 929.769 317.44 930.549 316.73C942.709 305.7 957.189 297.35 972.779 292.22C987.929 287.23 1004.62 284.89 1020.52 286.86C1029.73 288 1039.21 291.56 1043.29 300.53C1043.73 301.49 1045.14 300.66 1044.71 299.7C1037.51 283.84 1015.71 283.84 1000.97 284.94C984.139 286.19 967.609 291.06 952.749 299.05C944.329 303.58 936.479 309.14 929.399 315.57C929.789 315.96 930.169 316.34 930.559 316.73C932.939 314.23 935.049 311.42 936.979 308.57C940.709 303.06 943.909 296.81 944.839 290.15C946.579 277.6 940.119 264.44 928.319 259.42C920.729 256.19 911.919 255.84 903.829 256.82C895.109 257.88 886.689 260.56 878.659 264.07C864.619 270.21 851.769 279.01 840.839 289.74C828.579 301.77 818.799 316.2 812.249 332.07C812.779 332.22 813.309 332.36 813.829 332.51C817.799 314.98 805.899 297.24 790.009 290.45C770.129 281.95 747.569 287.94 729.599 298.22C718.889 304.34 709.169 311.99 699.499 319.6C698.669 320.25 699.839 321.41 700.659 320.76H700.649Z" fill="#151C21"/>
<path d="M1070.76 442.08C1063.18 431.72 1052.69 423.88 1040.55 419.67C1028.22 415.38 1014.57 414.89 1001.95 418.32C1010.8 411.06 1015.51 399.69 1016.16 388.24C1016.55 381.29 1015.49 374.21 1012.98 367.69C1010.3 360.71 1005.84 354.59 1000.36 349.53C959.42 311.67 883.29 340.62 845.27 369.76C842.2 372.11 839.26 374.64 836.39 377.25C840.29 367.41 839.78 355.64 835.73 345.84C832.25 337.36 826.24 330.47 818.23 326.02C809.11 320.95 798.38 319.28 788.04 320.3C777.67 321.32 767.57 324.92 758.82 330.56C771.69 309.36 761.97 279.39 742.24 265.58C729.07 256.37 712.65 253.14 696.78 254.21C680 255.36 664.1 261.22 649.63 269.6C649.61 269.62 649.6 269.63 649.58 269.65C649.95 268.14 650.27 266.65 650.54 265.13C653.46 248.25 649.72 230.66 639.24 216.99C628.61 203.11 612.4 193.84 595.22 190.89C577.51 187.88 559.51 192.12 544.74 202.23C537.89 206.93 531.82 212.72 526.77 219.3L526.71 219.23C521.07 212.49 512.18 209.3 503.56 209.04C493.28 208.72 483.53 213.01 475.1 218.55C466.12 224.45 458 231.74 450.06 238.95C442.14 246.13 434.53 253.64 427.29 261.52C412.99 277.08 400.14 294.1 389.94 312.66C383.44 324.48 378.05 336.96 374.16 349.87C361.96 355.52 350.5 362.66 342.23 372.94C339.41 376.44 336.98 380.3 335 384.59C331.53 392.13 326.94 406.68 335.7 412.41C340.42 415.48 346.91 415.37 352.29 415.9C360.07 416.67 367.87 417.44 375.65 418.19C423.9 422.95 472.13 427.7 520.38 432.46C535.14 433.9 549.91 435.36 564.67 436.82C595.24 439.85 625.61 443.6 654.45 454.79C656.23 455.49 658 456.18 659.77 456.93C691.63 460.66 723.64 463.1 755.71 464.22C822.7 466.57 888.43 448.58 955.34 448.99C999.23 449.25 1039.93 461.01 1081.74 466.03C1079.76 457.41 1075.97 449.21 1070.75 442.08H1070.76Z" fill="#151C21"/>
<path d="M680.32 439.254C677.96 436.264 674.27 434.534 670.91 432.934C663.48 429.394 655.56 426.964 647.45 425.594C642.99 424.844 638.47 424.434 633.95 424.344C636.35 423.034 638.72 421.694 641.05 420.284C648.37 415.874 655.39 410.954 662.02 405.554C668.21 400.514 675.25 394.824 677.76 386.914C679.8 380.484 678.41 372.514 672.2 368.914C665.3 364.894 656.57 367.434 649.46 369.464C633.51 374.014 618 380.094 603.2 387.584C598.48 389.974 593.83 392.524 589.26 395.204C593.01 391.094 596.56 386.804 599.88 382.304C613.21 364.204 622.51 342.454 623.29 319.784C623.45 315.164 623.55 309.674 619.76 306.354C616.19 303.234 610.97 303.704 606.75 304.974C602.06 306.394 597.64 308.864 593.41 311.304C589.05 313.824 584.85 316.624 580.83 319.654C564.49 331.984 551.22 348.164 541.35 366.034C538.36 371.444 535.69 377.004 533.28 382.674C533.36 381.934 533.46 381.194 533.54 380.454C534.57 370.004 534.9 359.484 534.51 348.984C534.27 342.384 533.72 332.644 526.55 329.644C522.65 328.014 518.53 329.624 515.28 331.904C511.85 334.314 508.87 337.494 506.2 340.694C500.82 347.154 496.81 354.674 493.95 362.564C488.02 378.884 486.71 396.624 487.05 413.864C487.33 428.144 488.33 443.074 493.18 456.654C493.02 457.144 492.88 457.634 492.76 458.144C491.89 461.904 492.34 465.794 493.79 469.354C496.98 477.154 504.24 482.094 512.11 484.374C521.12 486.984 530.86 486.804 540.1 485.804C556.49 484.024 572.74 480.934 589.21 480.004C605.62 479.074 621.52 477.104 637.33 472.354C645.47 469.914 653.44 466.914 661.16 463.354C665.05 461.564 668.98 459.704 672.65 457.504C676.03 455.484 679.47 452.854 681.28 449.264C682.96 445.944 682.64 442.174 680.32 439.234V439.254Z" fill="#7DBA6B"/>
<path d="M523.749 458.024C542.989 444.284 560.759 428.504 576.639 410.994C581.099 406.074 585.419 401.004 589.579 395.824C590.229 395.004 589.079 393.834 588.419 394.664C573.739 412.954 557.129 429.674 538.919 444.444C533.719 448.664 528.379 452.714 522.929 456.614C522.079 457.224 522.899 458.644 523.759 458.034L523.749 458.024Z" fill="#151C21"/>
<path d="M524.86 480.874C536.99 470.394 550.1 461.064 563.97 453.034C577.84 445.004 592.45 438.254 607.56 432.924C616.03 429.944 624.66 427.404 633.4 425.324C634.43 425.084 633.99 423.494 632.96 423.744C617.28 427.474 601.98 432.694 587.27 439.274C572.52 445.874 558.39 453.844 545.13 463.064C537.7 468.234 530.54 473.794 523.7 479.714C522.9 480.404 524.06 481.564 524.86 480.874Z" fill="#151C21"/>
<path d="M532.89 380.824C530.84 401.214 526.53 421.374 520.05 440.814C518.22 446.304 516.22 451.734 514.06 457.094C513.66 458.074 515.25 458.504 515.64 457.534C523.38 438.334 528.99 418.294 532.3 397.864C533.22 392.204 533.96 386.524 534.53 380.824C534.64 379.774 532.99 379.784 532.89 380.824Z" fill="#151C21"/>
<path d="M639.17 310.95C633.75 297.85 621.66 285.22 600.49 273.69C582.85 264.09 561.34 268.65 543.16 274.05C524.87 279.48 507.29 287.33 491.05 297.34C488.59 298.85 486.18 300.43 483.79 302.05C489.68 291.91 485.89 278.48 478.44 269.65C473.7 264.03 467.28 259.95 460.01 258.62C450.76 256.93 441.29 258.62 432.7 262.26C425.56 265.29 419.01 269.52 412.99 274.4C419.01 266.43 424.53 258.02 427.53 248.45C430.66 238.48 430.28 227.37 425.29 218.05C419.84 207.85 409.51 203.01 398.1 204.06C341.94 209.27 283.29 258.85 247.23 299.15C236.74 310.88 227.06 323.37 218.34 336.49C218.36 334.01 218.31 331.53 218.17 329.04C217.68 319.91 216.17 310.33 211.06 302.54C193.03 275.07 156.14 292.54 136.28 307.11C121.28 318.11 108.05 331.48 97.1202 346.52C90.2502 355.99 84.2902 366.1 79.3602 376.7C78.5702 374.54 77.6502 372.44 76.5302 370.45C73.7302 365.44 69.4202 360.68 63.7302 359.09C57.7602 357.43 52.1302 360.26 47.9402 364.4C43.3102 368.97 39.7902 374.88 36.8202 380.62C30.5902 392.67 27.1002 406.18 26.7302 419.75C26.6102 424.13 26.7702 428.66 27.3402 433.15C22.0602 435.13 17.2102 438.48 13.6902 442.67C8.19022 449.21 4.94022 457.32 2.89022 465.53C0.510219 475.05 -0.809781 485.23 0.470219 495.02C4.70022 527.45 39.2302 544.13 69.0602 542.84C109.65 541.08 293.99 504.79 303.63 503.65C328.39 500.73 352.13 492.94 375.06 483.19C399.9 483.26 424.91 485.81 449.66 484.11C468.98 482.78 487.57 478.33 505.11 470.04C522.61 461.77 538.56 450.63 554.05 439.12C595.77 408.12 658.04 356.64 639.14 310.95H639.17Z" fill="#3B5C45"/>
<path d="M84.2804 539C72.2804 513.44 77.6504 484.12 87.4704 458.8C91.9104 447.37 97.9604 435.93 107.68 428.11C116.63 420.91 129.28 416.69 140.53 420.59C151.38 424.35 159.9 436.49 156.7 448.08C157.23 448.23 157.76 448.37 158.28 448.52C162.49 426.89 169.46 405.48 181.06 386.63C186.77 377.36 193.62 368.78 201.69 361.45C210.19 353.72 220.76 345.97 232.58 344.96C238.83 344.43 244.92 346.12 249.64 350.34C253.89 354.13 256.69 359.7 255.55 365.47C255.41 366.2 256.35 366.95 256.92 366.27C266.04 355.45 277.97 347.08 291.27 342.24C297.74 339.89 304.91 337.81 311.86 338.57C315.34 338.95 318.76 340.26 321.3 342.72C323.69 345.02 325.16 348.1 325.91 351.3C327.92 359.92 324.33 368.51 321.06 376.33C320.65 377.3 322.24 377.73 322.64 376.77C325.73 369.37 328.98 361.49 327.92 353.3C327.05 346.52 323.24 340.35 316.61 337.98C309.69 335.5 301.85 337.2 295.05 339.26C287.9 341.43 281.03 344.58 274.72 348.58C267.6 353.09 261.19 358.67 255.76 365.12C256.22 365.39 256.67 365.65 257.13 365.92C259.19 355.44 250.22 345.99 240.47 343.8C228.26 341.06 216.08 347.87 206.77 355.07C188.58 369.14 175.95 389.02 167.55 410.21C162.7 422.45 159.2 435.19 156.69 448.1C156.49 449.13 157.99 449.57 158.27 448.54C161.18 438.01 155.11 427.04 146.17 421.51C135.87 415.13 122.69 417.06 112.59 422.81C101.3 429.24 93.7904 440.33 88.5604 451.95C82.7904 464.78 78.5504 478.65 76.6604 492.6C74.4804 508.63 75.9204 525.1 82.8504 539.86C83.3004 540.82 84.7104 539.98 84.2704 539.03L84.2804 539Z" fill="#151C21"/>
<path d="M294.7 491.32C299.32 477.48 304.58 463.82 310.78 450.6C315.51 440.5 320.74 430.48 327.28 421.43C333.74 412.5 342.32 405.26 352.42 400.75C363.83 395.66 377.56 394.49 388.7 400.92C399.72 407.28 407.87 420.3 404.57 433.24C404.31 434.28 405.79 434.66 406.15 433.68C410.88 420.78 418.15 408.85 427.41 398.7C431.99 393.68 437.05 389.08 442.52 385.04C448.32 380.75 455.13 376.26 462.65 376.55C469.32 376.81 476.87 383.24 474.35 390.45C474.02 391.39 475.34 391.78 475.85 391.08C487.72 374.76 506.57 361.33 527.64 363.65C533.19 364.26 538.56 366.01 543.5 368.6C544.43 369.09 545.27 367.67 544.33 367.18C535.39 362.49 525.32 360.75 515.34 362.37C505.08 364.04 495.63 369.11 487.74 375.76C482.71 380 478.3 384.93 474.44 390.25C474.94 390.46 475.44 390.67 475.94 390.88C478.08 384.77 473.59 378.55 468.1 376.13C461.08 373.03 453.15 376.17 447.06 379.94C434.52 387.71 423.79 398.82 415.71 411.11C411.16 418.03 407.43 425.46 404.58 433.23C405.11 433.38 405.64 433.52 406.16 433.67C409.1 422.12 403.45 410.27 394.52 402.96C389.95 399.22 384.52 396.54 378.69 395.49C372.13 394.31 365.37 394.82 358.98 396.63C347.38 399.92 336.63 407.21 329 416.53C322.1 424.96 316.78 434.68 311.96 444.41C305.43 457.6 299.92 471.3 295.07 485.19C294.41 487.08 293.76 488.98 293.13 490.89C292.79 491.89 294.38 492.33 294.71 491.33L294.7 491.32Z" fill="#151C21"/>
<path d="M518.5 422.29C515.82 418.12 511.37 415.71 506.63 414.67C501.76 413.6 496.62 413.86 491.73 414.6C485.45 415.54 479.23 417.11 473.17 419C470.26 419.91 467.39 420.93 464.54 422.03C470.14 413.55 475.38 404.76 479.67 395.6C484.12 386.09 490.56 371.12 480.01 363.24C470.99 356.5 457.64 358.69 447.71 361.73C435.46 365.48 424.24 372.44 414.51 380.68C404.26 389.36 395.54 399.81 388.73 411.38C391.09 401.55 392.94 391.6 394.2 381.57C395.74 369.34 396.73 356.82 396.13 344.49C395.57 333 393.03 320.48 384.89 311.82C381.3 308 376.75 305.29 371.57 304.31C366.33 303.31 360.82 304.07 355.87 305.99C345.05 310.17 337.17 319.81 331.43 329.53C319.72 349.36 315.95 372.69 313.89 395.29C313.01 404.95 312.47 414.67 312.41 424.4C311.79 422.7 311.14 421 310.46 419.33C306.38 409.4 301.16 399.93 294.9 391.21C291.85 386.96 288.59 382.82 284.98 379.04C281.66 375.56 277.93 372.39 273.55 370.32C265.59 366.57 254.32 367.45 249.61 375.8C247.24 379.99 247.01 384.98 247.26 389.68C247.57 395.38 248.73 400.99 250.36 406.44C278.89 502.17 387.7 538.07 472.86 489.79C483.36 483.84 493.3 476.76 501.76 468.12C505.95 463.84 509.78 459.22 513.07 454.22C516.3 449.31 519.1 444.08 520.46 438.32C521.73 432.93 521.58 427.06 518.51 422.29H518.5Z" fill="#7DBA6B"/>
<path d="M365.609 493.07C365.979 481.85 367.479 470.67 370.059 459.75C372.669 448.73 376.389 437.98 381.149 427.7C383.829 421.91 386.839 416.26 390.169 410.81C390.709 409.92 389.439 408.88 388.889 409.78C382.939 419.52 377.969 429.83 374.089 440.57C370.229 451.24 367.419 462.3 365.749 473.53C364.799 479.91 364.219 486.35 363.999 492.8C363.969 493.84 365.589 494.12 365.619 493.07H365.609Z" fill="#151C21"/>
<path d="M357.83 491.86C349.68 484.13 342.32 475.6 335.86 466.41C329.35 457.15 323.77 447.22 319.24 436.85C316.68 431 314.46 425 312.59 418.9C312.29 417.9 310.66 418.17 310.97 419.18C314.31 430.09 318.72 440.66 324.18 450.69C329.6 460.66 336.01 470.1 343.3 478.8C347.44 483.75 351.87 488.46 356.56 492.9C357.32 493.62 358.6 492.59 357.83 491.86Z" fill="#151C21"/>
<path d="M376.71 494.6C384.29 481.15 393.82 468.79 405 458.13C415.81 447.82 428.15 439.07 441.53 432.43C449.07 428.69 456.93 425.62 465 423.25C466.01 422.95 465.42 421.42 464.41 421.72C449.89 425.97 436.09 432.55 423.57 441.04C410.89 449.64 399.53 460.19 389.93 472.13C384.42 478.98 379.51 486.29 375.2 493.94C374.68 494.86 376.18 495.52 376.7 494.61L376.71 494.6Z" fill="#151C21"/>
</g>
<path d="M178.5 578.76C191.22 587.52 206.21 593.01 221.58 594.62C216.86 603.31 213.62 612.81 212.23 622.6C210.07 637.91 212.14 655.5 221.91 668.01C227.21 674.8 234.74 679.18 243.34 680.1C252.43 681.07 261.69 678.64 269.75 674.51C274.48 672.08 278.87 669.02 282.82 665.46C282.71 666.01 282.6 666.56 282.51 667.11C280.34 679.96 282.06 693.68 288.9 704.92C296.27 717.03 309.05 724.64 322.76 727.37C337.29 730.26 352.33 727.81 365.62 721.44C368.31 720.15 370.9 718.68 373.44 717.13C370.16 729.55 369.3 742.58 372.34 755.16C375.38 767.76 382.47 779.31 393.56 786.31C404.67 793.32 418.29 795.53 431.22 794.03C445.29 792.39 458.41 786.15 469.88 778.05C481.64 769.75 492.09 759.49 501.46 748.61C510.72 737.87 518.91 726.2 525.79 713.79C532.64 701.43 538.15 688.32 541.95 674.7C545.71 661.25 547.73 647.31 547.67 633.34C547.65 629.82 547.51 626.29 547.23 622.78C548.56 623.26 549.94 623.62 551.34 623.84C559.65 625.14 568.13 622.35 574.79 617.38C582.01 611.99 586.82 604.28 589.11 595.62C590.51 590.32 590.97 584.85 590.71 579.39C598.1 571.41 605.21 562.12 608.14 551.76C615.25 526.61 591.85 505.18 574.45 491.04C554.4 474.74 531.63 461.41 507.08 453.18C483.24 445.19 457.63 442.16 432.74 446.47C405.73 451.14 381 463.85 354.3 469.68C340.01 472.8 325.82 473.06 311.32 471.27C296.15 469.39 281.17 466.63 265.88 465.78C250.91 464.94 235.86 465.3 220.95 466.88C208.63 468.18 196.22 470.07 184.45 474.01C174.22 477.43 164.26 482.56 156.79 490.5C149.1 498.68 145.09 509.37 144.98 520.56C144.75 544.16 159.6 565.76 178.48 578.76H178.5Z" fill="#3B5C45"/>
<path d="M511.6 552.03C505.8 566.95 498.97 581.49 491.44 595.6C483.76 609.99 475.32 624.2 465.09 636.95C460.06 643.22 454.61 649.52 448.3 654.53C442.94 658.78 436.22 662.23 429.22 662.22C425.1 662.22 421.3 660.64 418.48 657.63C415.81 654.78 414.18 651.09 413.08 647.39C411.44 641.86 410.96 636.15 410.92 630.42C410.92 630.31 410.92 630.21 410.92 630.1C410.95 629.27 409.79 629 409.39 629.69C398.69 648.1 383.82 664.03 366.2 676C357.07 682.2 347.14 687.64 336.62 691.08C325.92 694.57 313.63 696.07 302.96 691.61C293.06 687.47 284.47 678.1 283.56 667.1C283.47 666.05 281.83 666.05 281.92 667.1C282.74 677.03 289.32 685.67 297.66 690.74C307.49 696.72 319.56 696.97 330.52 694.48C341.99 691.87 352.81 686.46 362.72 680.23C372.01 674.4 380.63 667.5 388.36 659.73C397.05 651 404.61 641.16 410.8 630.52C410.29 630.38 409.78 630.24 409.27 630.11C409.06 635.2 409.66 640.46 410.83 645.4C412.66 653.14 416.83 661.53 425.29 663.43C431.02 664.72 437.23 662.98 442.33 660.36C450.08 656.38 456.12 649.8 461.8 643.36C472.6 631.11 481.36 617.13 489.3 602.9C497.5 588.2 504.85 572.99 511.2 557.4C511.87 555.76 512.52 554.12 513.16 552.47C513.54 551.48 511.96 551.06 511.58 552.03H511.6Z" fill="#151C21"/>
<defs>
<clipPath id="clip0_1658_165142">
<rect width="1749.75" height="542.91" fill="white"/>
</clipPath>
</defs>
</svg>
