<svg width="165" height="130" viewBox="0 0 165 130" fill="none" xmlns="http://www.w3.org/2000/svg">
<path d="M164.786 24.5147C164.366 22.3824 163.162 20.3677 161.364 19.1188C161.088 18.9261 160.8 18.7587 160.504 18.6083C160.971 17.7482 161.372 16.8531 161.675 15.9284C162.377 13.7855 162.529 11.4244 161.568 9.33344C160.725 7.49775 159.2 6.06457 157.444 5.107C155.398 3.99161 153.057 3.60604 150.749 3.60392C148.301 3.60074 145.852 4.0075 143.464 4.517C141.183 5.00532 138.932 5.63981 136.734 6.42048C134.543 7.19798 132.401 8.12059 130.33 9.17561C130.23 9.22645 130.133 9.27835 130.035 9.33026C129.881 7.70536 129.313 6.11542 128.366 4.78393C125.968 1.41338 121.518 0.453694 117.619 0.994974C115.313 1.31593 113.095 2.09448 110.958 2.99909C109.033 3.81471 107.146 4.72779 105.306 5.72031C101.653 7.69159 98.1847 10.0061 94.9572 12.6171C93.0526 14.1583 91.2286 15.8044 89.503 17.5469C88.1228 14.9486 85.3179 13.6383 82.4929 13.3162C79.5937 12.9879 76.6299 13.616 73.9871 14.813C71.3072 16.0258 68.9122 17.8446 66.9981 20.0775C66.1157 21.1081 65.3382 22.2299 64.6826 23.4194C61.223 23.9925 57.9415 25.5665 55.3675 27.9954C53.5307 29.7283 51.9175 32.0873 52.0033 34.7174C52.0584 36.3974 52.8878 37.8391 54.0731 38.9407C54.5317 39.3655 55.0444 39.7415 55.5846 40.0582C60.0165 42.664 65.5713 41.5369 70.1579 40.0052C75.1777 38.3263 80.0852 35.889 85.4567 35.6157C87.1293 35.5299 88.769 35.6326 90.3886 35.8636C90.9479 35.943 91.504 36.0394 92.058 36.1474C100.146 37.731 107.76 42.111 116.167 41.9998C121.742 41.9267 126.731 39.3602 131.97 37.8009C134.883 36.9345 137.787 36.5764 140.822 36.8307C143.874 37.087 146.889 37.6844 149.962 37.6526C154.11 37.6113 158.416 36.444 161.421 33.6116C162.161 32.9156 162.822 32.118 163.382 31.2102C164.606 29.2305 165.239 26.8281 164.785 24.5147H164.786Z" fill="#52AE7D"/>
<path d="M90.5464 33.7197C90.3632 32.1562 89.448 30.7612 87.8909 30.3046C86.2638 29.8279 84.5108 30.3247 82.9028 30.6436C81.9177 30.8395 80.9337 31.0302 79.9475 31.2166C79.4634 31.3098 78.9772 31.4147 78.4878 31.4804C78.0694 31.5365 77.6246 31.5503 77.2464 31.3342C76.9286 31.152 76.6903 30.8533 76.4509 30.5832C76.184 30.2855 75.9107 30.0154 75.5664 29.8078C74.9171 29.417 74.1491 29.3079 73.4024 29.3439C72.6206 29.3809 71.8474 29.5758 71.1038 29.8142C70.2945 30.0726 69.4937 30.3639 68.7014 30.6679C65.4834 31.8956 62.3819 33.4252 59.4414 35.2196C57.5813 36.354 55.7869 37.5965 54.0741 38.9418C54.5328 39.3665 55.0455 39.7426 55.5857 40.0593C60.0176 42.6651 65.5723 41.538 70.1589 40.0063C75.1787 38.3274 80.0863 35.8901 85.4578 35.6168C87.1303 35.531 88.77 35.6337 90.3896 35.8646C90.5581 35.1655 90.6322 34.4484 90.5475 33.7218L90.5464 33.7197Z" fill="#41A668"/>
<path d="M158.688 30.6402C156.468 29.1202 153.742 28.3861 151.14 27.8258C146.876 26.9064 142.47 26.7888 138.147 27.3354C135.993 27.6086 133.858 28.0429 131.762 28.6086C130.68 28.8999 129.608 29.2272 128.544 29.5863C127.815 29.832 126.578 30.5364 125.824 30.0471C125.351 29.742 125.199 29.045 124.912 28.5885C124.621 28.1256 124.224 27.7167 123.785 27.3915C122.834 26.6871 121.669 26.3142 120.497 26.2306C119.018 26.1236 117.56 26.4064 116.124 26.7242C114.814 27.0144 113.511 27.3364 112.216 27.6892C109.557 28.4126 106.934 29.2696 104.361 30.2536C100.11 31.8785 95.9899 33.8508 92.0591 36.1463C100.148 37.7298 107.761 42.1099 116.168 41.9986C121.743 41.9255 126.732 39.359 131.971 37.7997C134.884 36.9333 137.788 36.5753 140.823 36.8295C143.875 37.0858 146.89 37.6832 149.963 37.6515C154.111 37.6101 158.417 36.4428 161.422 33.6104C160.779 32.4208 159.794 31.3955 158.688 30.6402Z" fill="#41A668"/>
<path d="M124.507 34.2578C123.373 38.1124 122.111 41.9258 120.531 45.6289C118.368 50.6964 115.638 55.4747 112.194 59.7838C108.689 64.1712 104.654 68.0883 100.838 72.1982C97.2399 76.0741 93.8132 80.1755 91.2794 84.8426C90.0221 87.1581 89.0105 89.6061 88.3421 92.1567C87.5975 94.9998 87.2966 97.936 87.0837 100.86C87.0816 100.885 87.0805 100.909 87.0784 100.935C88.7192 101.169 90.3875 101.202 92.0569 100.982C93.4371 100.8 94.7813 100.454 96.0757 99.9719C96.527 95.1036 97.9697 90.3984 99.9823 85.9559C102.07 81.346 104.74 77.0348 107.604 72.8719C110.601 68.5131 113.802 64.2983 116.807 59.9448C119.683 55.7787 122.386 51.4707 124.508 46.8661C126.426 42.7075 127.9 38.2872 128.486 33.7324C127.154 33.8373 125.826 34.0216 124.506 34.2578H124.507Z" fill="#944D3A"/>
<path d="M132.22 54.0786C130.464 56.1791 128.415 58.0233 126.135 59.5507C123.162 61.5432 119.81 62.9986 116.317 63.7856C114.559 64.1818 112.758 64.4201 110.955 64.471C110.786 64.8767 110.647 65.2993 110.511 65.7145C110.279 66.4264 110.01 67.1329 109.774 67.8468C109.837 67.8468 109.9 67.8447 109.963 67.8447C109.998 67.8511 110.032 67.8511 110.066 67.8436C113.616 67.7992 117.131 67.0842 120.423 65.7537C123.837 64.3735 126.995 62.3662 129.68 59.8441C131.167 58.4459 132.504 56.8909 133.639 55.194C133.656 55.1877 133.673 55.1802 133.69 55.1718C133.721 55.1548 133.749 55.1326 133.774 55.1061C133.344 54.6824 132.794 54.3688 132.22 54.0786Z" fill="#944D3A"/>
<path d="M70.0318 35.8879C70.8188 37.7586 71.8696 39.5117 73.1523 41.0899C74.826 43.1491 76.8841 44.9096 79.188 46.2284C80.3479 46.8915 81.5724 47.4529 82.8382 47.8808C82.87 48.205 82.8763 48.5355 82.8816 48.8585C82.8911 49.4136 82.9282 49.9729 82.9399 50.53C82.8954 50.5163 82.8509 50.5014 82.8064 50.4877C82.7799 50.4845 82.7556 50.4771 82.7333 50.4644C80.2282 49.6604 77.8925 48.3893 75.8492 46.7294C73.7307 45.0092 71.9289 42.8981 70.5762 40.5275C69.8263 39.2129 69.2172 37.82 68.7818 36.3699C68.7713 36.3614 68.7607 36.353 68.7511 36.3434C68.7331 36.3244 68.7183 36.3021 68.7056 36.2788C69.1028 36.0723 69.5604 35.9695 70.0307 35.889L70.0318 35.8879Z" fill="#944D3A"/>
<path d="M113.909 47.74C113.077 46.3121 112.371 44.8217 111.838 43.2477C111.168 41.2774 110.756 39.2235 110.616 37.1474C110.582 36.6432 110.566 36.1379 110.563 35.6316C110.017 35.5013 109.468 35.3329 108.909 35.1645C108.83 35.1412 108.752 35.1179 108.674 35.0935C108.471 37.5637 108.649 40.0614 109.198 42.4797C109.705 44.7168 110.506 46.8841 111.584 48.9062C112.337 48.4698 113.119 48.0938 113.91 47.7389L113.909 47.74Z" fill="#944D3A"/>
<path d="M95.7421 80.527C96.5715 79.813 97.438 79.1319 98.2419 78.3979C98.1402 75.8133 97.6795 73.2414 96.8871 70.7797C95.7537 67.2598 93.8926 64.0375 91.8641 60.9646C89.8388 57.896 87.6377 54.9428 85.7491 51.7851C83.8074 48.5396 82.2927 45.0578 81.512 41.3462C80.8871 38.3771 80.7176 35.3169 81.082 32.3086C80.4485 32.3806 79.8193 32.4632 79.1923 32.5628C78.7061 35.3434 78.6806 38.1938 79.0715 41.0019C79.599 44.7909 80.8585 48.4315 82.6529 51.8031C84.3816 55.0508 86.5011 58.0623 88.536 61.1193C90.5591 64.1594 92.5166 67.2789 93.8428 70.696C95.0567 73.8251 95.6976 77.1723 95.741 80.528L95.7421 80.527Z" fill="#944D3A"/>
<path d="M162.509 46.454C161.842 45.4456 160.86 44.6882 159.775 44.1755C158.654 43.6459 157.42 43.3567 156.194 43.2105C155.552 43.1343 154.907 43.0993 154.261 43.0898C153.537 43.0792 152.726 43.2116 152.034 42.9521C151.392 42.7127 150.982 42.1269 150.571 41.611C150.145 41.0729 149.67 40.5815 149.116 40.1736C147.969 39.3262 146.599 38.8093 145.199 38.5763C141.918 38.0297 138.549 39.0212 135.452 40.0243C132.29 41.0475 129.224 42.3546 126.286 43.9128C123.564 45.3566 120.555 47.2092 117.348 46.9603C115.802 46.8395 114.452 46.1404 113.102 45.4328C110.269 43.9467 106.971 43.7359 103.912 44.5939C102.225 45.0674 100.445 45.7559 99.0141 46.7813C97.7493 47.6869 96.7113 49.0237 96.5216 50.566C96.3183 52.2121 97.1127 53.856 98.2535 55.0604C99.5045 56.3813 101.143 57.2563 102.904 57.7467C103.784 57.9924 104.694 58.1418 105.601 58.2022C109.051 58.4331 112.44 57.5073 115.741 56.6196C118.168 55.9671 120.622 55.3295 123.144 55.1981C125.761 55.0636 128.352 55.5583 130.942 55.858C136.06 56.4523 141.253 56.3707 146.359 55.6917C149.946 55.214 153.583 54.6833 156.983 53.39C157.523 53.1834 158.162 52.9377 158.821 52.6443C161.509 51.4515 164.525 49.4993 162.511 46.454H162.509Z" fill="#52AE7D"/>
<path d="M158.496 52.3403C157.624 51.549 156.642 50.8848 155.603 50.3308C151.24 48.0037 146.062 47.8999 141.338 49.0311C140.035 49.3426 138.752 49.7366 137.494 50.1963C136.872 50.4241 136.255 50.6666 135.644 50.9219C135.07 51.1634 134.494 51.424 133.888 51.5723C133.338 51.7079 132.748 51.7598 132.219 51.5278C131.693 51.299 131.309 50.8287 130.856 50.4908C129.995 49.8468 128.979 49.457 127.929 49.2578C125.719 48.8362 123.426 49.2335 121.258 49.7048C118.736 50.2535 116.253 50.9876 113.842 51.907C111.424 52.8275 109.078 53.9334 106.828 55.214C105.478 55.982 104.139 56.7997 102.903 57.7467C103.783 57.9924 104.693 58.1418 105.599 58.2022C109.049 58.4331 112.439 57.5073 115.74 56.6196C118.166 55.9671 120.621 55.3295 123.143 55.1981C125.76 55.0636 128.351 55.5583 130.941 55.858C136.059 56.4523 141.252 56.3707 146.358 55.6917C149.945 55.214 153.582 54.6833 156.982 53.39C157.522 53.1834 158.161 52.9377 158.82 52.6443C158.715 52.5415 158.606 52.4398 158.496 52.3403Z" fill="#41A668"/>
<path d="M139.22 20.212C140.392 19.0521 141.801 18.1358 143.342 17.5469C144.088 17.2619 144.919 16.9717 145.726 16.9696C146.145 16.9696 146.567 17.0723 146.889 17.353C147.163 17.5914 147.347 17.9144 147.451 18.2598C147.744 19.2258 147.387 20.2247 147.065 21.1346C147.019 21.2649 147.18 21.3687 147.29 21.3072C150.36 19.5838 153.854 18.6432 157.375 18.5797C158.364 18.5616 159.354 18.6135 160.335 18.7332C160.53 18.7565 160.528 18.4515 160.335 18.4282C156.79 17.9971 153.144 18.4674 149.82 19.7713C148.898 20.1336 148 20.5583 147.136 21.0435C147.211 21.1007 147.285 21.1589 147.361 21.2161C147.672 20.3348 147.993 19.3974 147.813 18.4515C147.667 17.6803 147.175 16.9728 146.395 16.7503C145.548 16.5088 144.607 16.7959 143.8 17.0607C142.963 17.3361 142.154 17.7026 141.395 18.1507C140.526 18.6633 139.722 19.2862 139.005 19.9959C138.865 20.1346 139.082 20.3507 139.221 20.212H139.22Z" fill="#191626"/>
<path d="M89.7023 17.7226C91.1513 16.9473 92.7773 16.5162 94.4212 16.4812C95.1405 16.4664 95.9031 16.4971 96.5736 16.7852C97.2261 17.0648 97.6626 17.6008 97.8469 18.2809C98.0481 19.0234 97.9867 19.8157 97.9168 20.5731C97.9062 20.6875 98.0545 20.7659 98.1466 20.7045C100.183 19.3571 102.522 18.479 104.945 18.1644C105.628 18.0754 106.317 18.033 107.006 18.0319C107.203 18.0319 107.203 17.7258 107.006 17.7269C104.531 17.7301 102.07 18.3021 99.8436 19.3836C99.2038 19.695 98.5862 20.0488 97.993 20.4418C98.0693 20.4852 98.1466 20.5297 98.2229 20.5731C98.35 19.2056 98.3882 17.5214 97.0662 16.6983C96.4253 16.299 95.6415 16.1973 94.9011 16.1783C94.042 16.156 93.1798 16.2418 92.3409 16.4251C91.3674 16.638 90.4268 16.9896 89.5476 17.46C89.3739 17.5532 89.5285 17.8169 89.7023 17.7237V17.7226Z" fill="#191626"/>
<path d="M119.612 116.034C119.599 114.801 119.015 113.649 117.643 112.744C118.613 111.334 119.245 109.743 119.42 108.006C119.478 107.422 119.485 106.834 119.444 106.251C119.331 104.515 118.784 102.812 117.829 101.352C116.55 99.3897 114.682 97.8942 112.532 96.9811C110.369 96.0629 107.956 95.8627 105.653 96.2984C105.499 96.3273 105.346 96.3595 105.196 96.3952C105.69 95.6848 106.14 94.9459 106.538 94.1794C107.948 91.4504 108.811 88.3224 108.647 85.2333C108.613 84.5197 108.523 83.8092 108.373 83.1045C107.981 81.2607 107.133 79.5342 105.848 78.1491C104.434 76.6224 102.612 75.5107 100.701 74.7164C98.7633 73.9089 96.6932 73.4616 94.6123 73.2371C92.6478 73.0273 90.6469 73.0082 88.6797 73.188C87.421 73.3032 86.1355 73.5077 84.8919 73.8413C85.9976 72.1637 86.8504 70.2864 86.9952 68.2669C87.0214 67.9012 87.0225 67.5335 86.9998 67.1671C86.917 65.6446 86.4254 64.1435 85.6494 62.8346C84.6828 61.2083 83.2821 59.8179 81.6215 58.9056C79.7745 57.8929 77.6392 57.4492 75.5422 57.5192C71.2426 57.6569 67.3295 59.7973 64.4468 62.9192C63.0184 64.4662 61.8154 66.2185 60.8395 68.0849C60.4868 68.7631 60.1636 69.4566 59.8689 70.1604C59.6914 69.7044 59.4735 69.2665 59.2106 68.8569C58.3689 67.5435 57.1511 66.5703 55.7016 65.9987C54.2166 65.4095 52.5696 65.3106 50.9976 65.5318C47.6217 66.0062 44.8552 68.0993 42.7575 70.6905C41.691 72.0105 40.7911 73.4597 39.9788 74.948C39.0564 76.6356 38.223 78.3751 37.4948 80.1532C36.3336 82.9897 35.4416 85.9888 35.0534 89.0429C32.9471 87.6401 30.1662 87.3409 27.681 87.8363C21.8675 88.9959 16.5426 94.2391 17.0406 100.795C17.0721 101.245 17.1295 101.701 17.2177 102.163C17.6697 104.519 19.0422 106.403 20.8423 107.906C20.8467 107.909 20.8509 107.912 20.8549 107.918C23.6129 110.211 27.3717 111.617 30.3685 112.469C37.8031 114.581 45.548 115.766 53.2608 116.157C55.2344 116.258 57.2114 116.3 59.1865 116.289C61.1505 116.277 63.1131 116.176 65.0775 116.229C67.0733 116.284 69.0119 116.577 70.9357 117.111C72.8333 117.64 74.681 118.321 76.5551 118.916C83.7308 121.197 90.0908 124.181 107.304 124.15C109.84 124.145 112.398 123.461 114.519 122.366C117.513 120.82 119.639 118.455 119.613 116.035L119.612 116.034Z" fill="#50733A"/>
<path d="M54.7845 83.881C56.9897 81.8732 59.2485 79.8208 61.9352 78.476C63.2614 77.8129 64.7056 77.2991 66.1925 77.1781C67.6106 77.0633 69.258 77.35 70.2046 78.5125C71.0433 79.5429 71.321 81.1733 70.3478 82.2112C70.1749 82.3969 70.4712 82.7038 70.6596 82.5313C73.8281 79.6343 77.4322 77.2216 81.3244 75.4099C82.4241 74.8982 83.5471 74.4339 84.6871 74.0179C84.9599 73.9189 84.7881 73.5016 84.5152 73.6006C80.4629 75.0804 76.6379 77.1778 73.2123 79.8035C72.2356 80.552 71.294 81.3432 70.3864 82.1724C70.4899 82.2785 70.595 82.3849 70.6983 82.4925C71.5803 81.5524 71.58 80.1283 71.0452 79.0127C70.3919 77.6515 69.0262 76.9212 67.5645 76.7505C65.9567 76.564 64.3206 76.9719 62.8372 77.5733C61.3638 78.1715 59.9966 79.0134 58.7194 79.9565C57.2379 81.0508 55.8692 82.2857 54.5093 83.5249C54.2957 83.7191 54.5654 84.0807 54.7808 83.8852L54.7845 83.881Z" fill="#191626"/>
<path d="M96.3444 101.051C98.5366 98.5173 101.697 96.9359 105.016 96.575C105.305 96.543 105.247 96.096 104.957 96.1278C101.52 96.502 98.2566 98.1511 95.9889 100.772C95.7986 100.992 96.1541 101.271 96.3426 101.052L96.3444 101.051Z" fill="#191626"/>
<path d="M94.5173 122.366C92.0418 123.815 87.9212 124.646 85.3861 124.687C73.0525 124.89 63.7292 121.197 56.5536 118.916C54.6797 118.319 52.8317 117.64 50.9341 117.111C49.0103 116.577 47.0717 116.284 45.0759 116.229C43.1115 116.176 41.1487 116.279 39.1849 116.289C37.2098 116.3 35.2328 116.257 33.2592 116.157C25.5466 115.764 17.8 114.581 10.3669 112.469C7.37014 111.617 3.61126 110.211 0.853297 107.917C2.86561 106.181 5.56499 104.195 7.58235 102.928C10.9227 100.831 14.439 99.0088 18.0778 97.4835C21.7347 95.9529 25.515 94.7128 29.3694 93.7988C33.0002 92.9371 36.7847 92.2849 40.5228 92.7045C42.2993 92.9036 44.0393 93.3518 45.6402 94.161C47.2951 95.0014 48.6144 96.2414 49.7795 97.6682C50.9677 99.122 52.075 100.68 53.7092 101.667C55.3521 102.661 57.2739 103.051 59.1621 103.231C61.1047 103.417 63.0566 103.391 65.0043 103.496C66.8972 103.598 68.7857 103.821 70.6506 104.166C74.3807 104.856 78.0379 106.087 81.3202 108.009C82.757 108.85 84.1303 109.829 85.3753 110.947L85.3768 110.947C89.4675 113.778 93.2537 120.112 94.5138 122.369L94.5173 122.366Z" fill="#375722"/>
</svg>
