<svg width="1808" height="1178" viewBox="0 0 1808 1178" fill="none" xmlns="http://www.w3.org/2000/svg">
<path d="M793.12 514.15C788.66 502.11 779.6 492.6 767.63 487.88C756.03 483.3 742.78 483.12 730.93 486.86C718.15 490.89 707.05 499.22 698.3 509.23C694.88 513.15 691.82 517.35 689.05 521.75C690.91 487.46 661.92 457.42 629.23 451.18C609.97 447.5 589.87 450.84 572 458.52C553.63 466.42 537.78 478.94 524.57 493.84C510.31 509.92 499.14 528.5 489.58 547.7C489.34 540.51 487.6 532.83 482.54 527.71C479.47 524.6 475.19 523 470.82 523.37C465.37 523.83 460.52 527.09 456.56 530.64C448.09 538.23 441.01 547.76 435.06 557.4C429.1 567.05 424.27 577.41 420.73 588.18C420.52 588.8 420.34 589.44 420.15 590.06C415.44 597.91 414.5 607.93 414.28 616.98C414.26 617.66 414.27 618.34 414.25 619.01C414.03 621.26 413.85 623.51 413.73 625.77C413.71 626.13 413.9 626.39 414.15 626.55C414.11 637.34 414.42 648.14 415.09 658.89C416.83 686.79 421.3 714.89 431.59 741.01C436.6 753.74 443.03 765.95 451.02 777.07C459.09 788.31 468.73 798.71 480.69 805.86C486.41 809.28 492.68 811.86 499.26 813.06C506.37 814.35 513.56 813.81 520.52 811.95C528.11 809.93 535.23 806.52 542.23 803.01C549.84 799.19 557.4 795.27 564.91 791.26C579.72 783.35 594.32 775.07 608.71 766.42C622.89 757.9 636.76 749.1 652.37 743.37C666.38 738.23 680.71 734.26 694.27 727.93C705.97 722.47 717.17 715.83 727.34 707.85C747.44 692.07 763.24 670.65 767.66 645.08C769.05 637.06 769.55 628.89 771.37 620.94C773.24 612.74 777.04 605.33 780.76 597.86C787.8 583.7 793.19 568.53 795.66 552.86C797.68 540.07 797.68 526.43 793.13 514.14L793.12 514.15Z" fill="#23382A"/>
<path d="M1720.12 842.97C1718.31 838.61 1714.61 834.78 1709.13 833.85C1708.45 833.73 1707.74 833.67 1707.02 833.64C1709.16 823.79 1707.55 814.23 1700.76 807.66C1695.81 802.87 1688.55 799.92 1680.29 800.01C1672.99 800.09 1665.47 802.86 1659.16 807.5C1661.85 801.02 1664.07 794.49 1665.71 787.94C1669.27 773.66 1670.03 759.33 1666.88 746.32C1663.95 734.24 1657.52 722.83 1645.39 717.13C1639.31 714.28 1631.96 712.9 1624.21 713.75C1617.56 714.48 1610.81 716.9 1604.77 720.6C1602.96 721.71 1601.23 722.92 1599.56 724.21C1598.27 719.75 1596.45 715.51 1593.96 711.6C1589.38 704.42 1582.7 698.4 1574 695C1566.73 692.16 1558.26 691.4 1549.44 692.79C1550.27 685.71 1550.34 678.73 1549.29 671.98C1547.84 662.59 1544.28 653.79 1538.02 646.86C1531.91 640.1 1523.2 635.55 1512.83 634C1510.71 633.68 1508.53 633.5 1506.31 633.45C1504.29 626.06 1485.69 607.89 1479.51 602.5C1465.31 590.1 1428.3 561.46 1353.41 568.49C1323.96 571.25 1356.14 602.88 1341.03 628.31C1332.83 642.13 1326.78 621.58 1332.14 611.3C1332.19 607.46 1332.27 603.62 1332.41 599.78C1332.38 599.31 1332.34 598.83 1332.31 598.37C1332.18 596.18 1332.07 593.93 1332 591.65C1327.18 591.11 1322.34 590.71 1317.55 590.37C1310.01 589.84 1302.45 589.57 1294.9 589.56C1291.11 589.56 1287.3 589.79 1283.51 589.66C1280.27 589.55 1276.77 588.87 1274.64 586.2C1272.84 583.95 1272.9 581.12 1274.84 579C1276.59 577.09 1279.12 575.99 1281.44 574.94C1286.74 572.54 1291.53 569.47 1295.77 565.46C1304.62 557.08 1310.3 545.8 1312.77 533.93C1315.64 520.15 1314.44 505.65 1310.92 492.11C1309.24 485.66 1306.86 479.34 1303.31 473.68C1299.99 468.38 1295.59 463.83 1290.54 460.16C1279.88 452.41 1266.97 448.68 1254.02 447.18C1246.74 446.33 1239.4 446.14 1232.08 446.14C1225.48 446.14 1218.87 446.33 1212.29 446.89C1199.3 448 1186.18 450.54 1174.36 456.22C1172.9 456.92 1171.47 457.67 1170.06 458.46C1167.1 451.1 1161.81 444.75 1155.38 439.99C1145.05 432.34 1132.49 429.18 1119.76 429C1105.59 428.8 1091.43 431.92 1077.86 435.75C1066.25 439.03 1054.86 443.32 1044.4 449.39C1035.06 454.82 1026.68 461.81 1020.24 470.44C1022.46 459.93 1019.99 448.6 1012.94 440.26C1004.27 429.99 991.14 425.98 978.04 428C970.1 429.23 962.56 432.16 955.2 435.29C959.32 415.8 949.9 391.95 928.46 388.44C915.53 386.32 902.27 391.35 891.14 397.54C880.41 403.51 870.92 411.52 862.59 420.49C853.66 430.11 845.97 440.9 839.22 452.15C837.63 443.88 828.95 438.36 820.74 438.19C808.96 437.95 797.83 445.51 789.17 452.79C784.17 456.99 779.64 461.71 775.63 466.87C775.14 467.5 792.44 557.28 800.62 597.66C790.97 602.2 781.64 606.82 781.5 607.37C766.2 665.8 763.87 836.34 800.15 887.79C815.04 908.91 835.8 926.16 860.46 934.5C875.98 939.75 892.4 941.53 908.71 941.98C957.26 943.32 1005.69 937.48 1054.1 934.77C1120.34 931.07 1188.94 925.67 1255.1 932.56C1267.61 933.82 1278.77 936.32 1290.61 939.85C1298.14 942.09 1314.91 949.37 1322.2 943.25C1324.3 941.48 1324.86 938.41 1324.48 934.56C1339.5 938.65 1356.37 943.77 1358.98 944.72C1386.24 954.68 1411.22 965.02 1437.9 975.98C1465.1 987.15 1508.58 993.56 1537.77 996.58C1581.05 1001.07 1609.17 1004.22 1652.62 1001.8C1678.72 1000.35 1715.29 891.9 1721.18 859.34C1722.21 853.65 1722.14 847.88 1720.11 842.99L1720.12 842.97Z" fill="#23382A"/>
<path d="M1473.03 889.12C1484.2 899.02 1504.49 903.11 1504.49 903.11C1504.49 903.11 1495.4 943.62 1534.24 952.73C1559.65 958.69 1596.66 942.54 1599.58 941.24C1599.65 941.2 1599.71 941.17 1599.75 941.17L1599.77 941.15C1609.1 946.03 1619.09 949.77 1629.47 952.04C1646.89 955.84 1665.64 955.12 1682.99 949.02C1691.47 946.03 1699.78 941.73 1706.84 935.99C1713.69 930.39 1719.36 922.74 1719.79 913.81C1720 909.58 1718.98 905.44 1716.51 902.11C1714.01 898.71 1710.39 896.38 1706.84 894.17C1704.85 892.95 1702.89 891.67 1700.94 890.37C1707.26 890.66 1713.65 890.46 1719.99 889.7C1730.57 888.44 1741.63 885.96 1751.16 880.57C1755.56 878.07 1759.71 874.92 1762.83 870.85C1766.06 866.6 1767.92 861.52 1768 856.3C1768.2 844.81 1760.3 834.98 1752.02 828.25C1732.92 812.73 1708.17 806.05 1685.69 796.55C1682.36 795.15 1679.06 793.65 1675.78 792.05C1685.83 789.31 1695.47 784.72 1703.92 778.31C1710.81 773.09 1718.04 765.17 1716.53 756.08C1715.79 751.49 1713.1 747.58 1710.07 744.27C1707.11 741.03 1703.75 738.2 1700.14 735.72C1692.88 730.71 1684.76 727.04 1676.75 723.33C1668.42 719.48 1660.27 715.44 1652.75 710.24C1642.56 703.16 1633.58 694.43 1626.11 684.55C1625.35 682.03 1624.62 679.51 1623.98 676.97C1615.02 641.67 1615.84 603.07 1616.33 566.41C1616.44 557.97 1614.91 539.21 1602.28 546.75C1593.82 551.81 1592.12 567.06 1589.85 576.06C1586.14 590.86 1571.78 652.84 1565.87 671.42C1561.63 684.78 1554.51 696.86 1543.92 706.38C1535.11 714.3 1525.12 719.23 1514.32 723.54C1503.89 727.72 1492.7 730.58 1483.55 737.62C1475.63 743.69 1469.62 753.35 1470.67 762.95C1473.37 787.4 1506.83 798.11 1526.84 802.56C1534.01 804.14 1541.4 804.97 1548.79 804.81C1548.79 804.81 1548.72 804.83 1548.61 804.86C1544.73 805.96 1482.73 823.73 1469.23 837.1C1452.25 853.9 1454.26 872.46 1473.05 889.11L1473.03 889.12Z" fill="#3B5C45"/>
<path d="M1547.63 805.62C1552.44 816.51 1563.13 824.51 1574.46 827.6C1586.2 830.8 1598.81 827.96 1608.39 820.55C1613.67 816.47 1617.85 811.12 1620.28 804.89C1619.78 805.02 1619.28 805.15 1618.78 805.29C1626.98 813.86 1638.53 818.89 1650.33 819.65C1656.26 820.03 1662.49 819.41 1668.02 817.15C1672.99 815.13 1677.66 811.59 1679.37 806.31C1681.06 801.07 1679.65 794.9 1674.88 791.8C1673.91 791.17 1673 792.72 1673.97 793.35C1677.93 795.93 1679.02 801.06 1677.76 805.41C1676.3 810.49 1671.64 813.87 1666.89 815.67C1656.79 819.5 1644.87 818.36 1635.04 814.24C1629.41 811.88 1624.27 808.42 1620.05 804.01C1619.54 803.48 1618.78 803.81 1618.55 804.41C1614.41 815.01 1604.66 822.9 1593.81 825.86C1582.48 828.96 1570.57 826.04 1561.18 819.19C1556.06 815.46 1551.76 810.53 1549.2 804.71C1548.73 803.65 1547.18 804.57 1547.65 805.62H1547.63Z" fill="#151C21"/>
<path d="M1504.04 903.88C1518.89 913.54 1536.02 920.15 1553.57 922.69C1561.51 923.84 1569.57 924.26 1577.49 922.71C1585.14 921.22 1592.49 918.11 1598.95 913.75C1606.28 908.8 1612.48 902.23 1616.82 894.51H1615.27C1623.13 905.36 1635.24 912.89 1648.43 915.25C1661.58 917.61 1675.22 914.49 1686.24 906.99C1692.39 902.81 1697.63 897.37 1701.48 891C1702.08 890.01 1700.53 889.1 1699.93 890.09C1693.33 901.01 1682.44 909.09 1670.16 912.49C1657.72 915.94 1644.34 914.12 1633.08 907.88C1626.71 904.36 1621.1 899.5 1616.82 893.6C1616.44 893.08 1615.62 892.96 1615.27 893.6C1607.73 907.02 1594.41 916.8 1579.49 920.43C1571.81 922.29 1563.98 922.19 1556.18 921.23C1547.71 920.2 1539.36 918.11 1531.32 915.27C1522.07 912 1513.19 907.66 1504.96 902.31C1503.99 901.68 1503.08 903.23 1504.05 903.86L1504.04 903.88Z" fill="#151C21"/>
<path d="M1414.1 823.3C1409.19 821.56 1403.9 822.03 1399.24 824.59C1392.91 811.27 1382.07 801.97 1370.03 799.8C1358.31 797.69 1346.21 802.6 1337.32 812.55C1327.26 789.49 1302.25 780.31 1284.36 793.47C1285.96 792.29 1275.67 783.01 1274.68 782.12C1268.64 776.64 1260.9 772.85 1253.01 770.81C1241.38 767.8 1229.81 770.88 1221.48 779.59C1213.58 763.21 1203.59 745.03 1187.27 743.81C1170.97 742.6 1154.36 755.27 1143.03 769.42C1136.78 777.23 1131.64 786.39 1127.77 796.42C1122.83 791.26 1116.06 790.27 1109.97 792.2C1102.39 794.61 1096.23 801.25 1090.49 807.82C1088.32 796.04 1081.37 786 1072.28 782.46C1063.15 778.9 1053 782.4 1046.15 790.76C1041.61 761.71 1024.16 737.18 1002.52 727.56C979.85 717.48 955.2 726.23 938.09 747.35C931.92 754.96 926.92 764.06 923.47 774.07C916.67 769.14 908.37 768.91 900.98 771.58C893.01 774.46 885.52 780.46 879.22 787.3C873.49 793.52 867.54 802.43 867.21 812.59C867.07 816.84 868.24 820.67 870.47 823.52C871.09 825.25 871.89 826.89 872.85 828.33C878.41 836.69 885.3 850.6 893.57 852.27C952.57 864.18 1014.51 847.49 1073.4 846.42C1156.17 844.91 1245.54 847.43 1325.21 871.33C1343.27 876.83 1361.53 882.67 1380.18 883.17C1396.24 883.6 1422.45 875.76 1428.23 853.07C1431.31 840.96 1426.5 827.71 1414.11 823.32L1414.1 823.3Z" fill="#3B5C45"/>
<path d="M956.72 800.25C948.28 800.27 940.36 803.72 932.85 807.32C939.18 784.02 928.89 758.4 909.57 744.3C888.36 728.81 859.89 727.12 835.85 736.51C822.48 741.74 810.49 750.07 800.4 760.23C799.71 752.32 794.4 745.87 787.51 741.95C778.58 736.86 768.51 736.56 758.75 739.23C752.94 740.82 747.41 743.27 742.03 745.95C739.56 747.17 737.12 748.45 734.68 749.72C731.91 751.16 729.04 753.03 726.06 753.99C719.94 755.95 718.6 747.39 717.83 743.29C716.94 738.6 715.83 733.94 714.48 729.36C709 710.69 699.38 692.17 683.77 680.01C666.23 666.34 642.9 664.37 621.65 668.59C598.66 673.16 576.72 685.56 561.65 703.66C560.92 698.68 558.77 694.03 555.56 690.24C553.85 686.08 550.34 682.45 546.33 680.74C516.06 667.85 480.21 715.81 468.25 737.17C455.85 759.32 448.54 784.12 443.86 808.96C441.39 822.03 440.15 835.57 443.92 848.53C447.26 859.99 453.75 870.74 461.22 879.98C468.39 888.85 477.18 896.58 487.48 901.6C493.57 904.57 500.22 906.54 506.98 907.32C511.07 909.29 515.45 910.73 519.83 911.75C534.56 915.16 550.25 914.68 565.13 912.54C597.23 907.92 627.37 895.09 658.65 887.11C675.39 882.84 692.33 880.44 709.61 879.95C727.87 879.43 746.13 880.55 764.38 881.05C803.06 882.12 842.19 882.05 880.36 874.87C907.36 869.79 970.39 855.94 978.44 823.47C981.82 809.84 969.3 800.24 956.71 800.27L956.72 800.25Z" fill="#23382A"/>
<path d="M689.66 907.56C679.47 907.44 665.86 903.88 657.26 897.42C658.19 889.29 662.33 860.96 663.26 852.83C664.48 842.1 665.65 831.36 666.76 820.62C668.96 799.34 670.93 778.03 672.66 756.68C676.13 713.99 678.63 671.2 680.23 628.35C680.93 609.5 681.44 590.64 681.81 571.77C688.07 571.14 694.24 569.98 699.94 568.74C701.63 568.37 703.47 567.94 705.38 567.44C705.38 584.45 705.6 601.45 706 618.45C706.57 642.18 707.49 665.89 708.64 689.59C709.8 713.42 711.17 737.23 712.63 761.03C714.05 784.14 715.33 807.29 717.15 830.36C718.9 852.64 721.47 873.25 725.87 897.79C725.87 897.79 714.32 907.85 689.66 907.57V907.56Z" fill="#151C21"/>
<path d="M909.29 534.24C906.82 530.1 902.52 527.77 898.02 526.42C892.4 524.74 886.45 523.98 880.69 522.92C874.13 521.71 867.58 520.5 861.02 519.29C841.5 515.69 820.73 512.99 802.53 504.55C813.38 501.06 824.08 497.13 834.43 492.37C853.48 483.6 871.93 471.65 884.9 454.88C888.17 450.65 891.02 445.45 889.67 439.94C888.54 435.32 884.85 431.94 880.88 429.61C875.94 426.72 870.17 425.3 864.59 424.27C858.23 423.1 851.77 422.6 845.33 422.08C820.27 420.05 795.21 415.4 772.54 404.1C762.04 398.87 752.14 392.16 743.53 384.12C750.86 383.5 758.12 381.52 765.02 379.11C770.89 377.06 776.68 374.73 782.42 372.33C787.6 370.17 792.74 367.87 797.72 365.27C807.46 360.2 816.77 353.96 823.97 345.56C827.44 341.51 831.26 336.58 831.95 331.12C832.3 328.39 831.65 325.64 829.86 323.51C828.02 321.32 825.46 319.89 822.98 318.54C811.83 312.49 799.33 309.53 787.7 304.57C770.09 297.07 753.17 286.56 740.17 272.36C726.16 257.06 723.4 238.12 720.12 218.15C717.55 202.47 716.01 186.63 715.53 170.75C715.29 162.68 716.09 146.91 703.87 147.33C694.58 147.66 693.83 165.39 693.18 171.69C691.74 185.64 689.52 198.18 685.35 211.75C681.1 225.6 675.84 239.2 668.74 251.85C662.03 263.79 653.57 274.64 644.04 284.46C634.64 294.14 624.25 302.82 613.47 310.93C602.56 319.14 591.23 326.79 579.89 334.38C577.08 336.26 574.26 338.14 571.45 340.03C568.86 341.77 566 343.44 564.04 345.93C559.47 351.75 563.91 358.56 568.28 362.95C577.15 371.86 590.28 375.22 602.44 376.29C614.5 377.35 626.69 376.1 638.35 372.87C650.04 369.63 661.19 364.39 671.15 357.47C673.68 355.72 676.13 353.85 678.5 351.88C677.28 357.17 675.73 362.38 673.64 367.4C671.11 373.5 667.79 379.28 663.46 384.29C658.63 389.89 652.59 394.23 646.04 397.6C639.05 401.19 631.6 403.89 624.16 406.38C616.21 409.05 608.13 411.35 599.96 413.26C591.86 415.16 583.67 416.67 575.43 417.82C567.28 418.96 559.1 419.79 550.96 421.02C542.94 422.24 534.89 423.83 527.22 426.52C521.64 428.48 515.64 431.59 512.8 437.07C509.46 443.53 512.55 451.04 516.2 456.66C519.7 462.04 524.54 466.47 529.91 469.95C540.76 476.98 553.7 480.66 566.47 482.08C578.88 483.46 591.51 482.62 603.66 479.77C606.32 479.15 608.95 478.42 611.56 477.61C600.02 487.06 585.48 493.59 572.09 498.69C543.24 509.67 512.9 516 483.77 526.12C476.47 528.66 469.25 531.43 462.19 534.56C456.4 537.13 450.42 539.83 445.85 544.33C441.48 548.62 439.4 554.51 440.87 560.55C442.5 567.23 447.4 572.64 452.71 576.74C463.44 585.04 476.94 588.81 490.25 590.27C504.14 591.79 518.21 590.02 532.13 588.94C559.94 586.78 577.7 583.91 577.7 583.91C577.7 583.91 549.94 601.21 533.93 607.44C518.06 613.62 500.31 619.13 484.45 625.31C469.01 631.32 453.61 638.59 440.75 649.19C437.7 651.7 434.9 654.68 434.06 658.67C433.28 662.34 434.43 666.06 436.36 669.18C440.76 676.3 448.6 680.5 456.09 683.64C471.97 690.31 489.49 691.76 506.55 690.91C518.84 690.29 531.09 688.57 543.21 686.28C543.42 692.23 544.52 698.19 546.58 703.93C552.78 721.27 565.94 735.54 579.92 747.08C607.04 769.48 641.27 782.39 676.13 785.8C711.55 789.27 747.18 782.74 779.38 767.71C811.69 752.63 840.09 729.74 862.85 702.39C868.6 695.48 873.99 688.28 879.01 680.83C881.46 677.19 883.83 673.5 886.08 669.74C888.38 665.91 890.8 661.34 890.09 656.7C888.72 647.75 877.76 646.29 870.65 644.62C859.46 641.99 848.26 639.36 837.07 636.73C832.27 635.6 827.47 634.46 822.67 633.33C840.61 622.32 858.54 611.09 874.52 597.33C882.55 590.42 890.06 582.88 896.59 574.53C902.8 566.59 909.34 557.51 911.15 547.38C911.94 542.92 911.66 538.18 909.3 534.21L909.29 534.24Z" fill="#3B5C45"/>
<path d="M589.37 884.64C615.96 843.45 632.23 794.15 638.33 745.88C638.13 744.93 637.96 744.03 637.82 743.28C636.93 738.59 635.82 733.93 634.47 729.35C628.99 710.68 619.37 692.16 603.76 680C586.22 666.33 562.89 664.36 541.64 668.58C518.65 673.15 496.71 685.55 481.64 703.65C480.91 698.67 478.76 694.02 475.55 690.23C473.84 686.07 470.33 682.44 466.32 680.73C436.05 667.84 400.2 715.8 388.24 737.16C375.84 759.31 368.53 784.11 363.85 808.95C361.38 822.02 360.14 835.56 363.91 848.52C367.25 859.98 373.74 870.73 381.21 879.97C388.38 888.84 397.17 896.57 407.47 901.59C413.56 904.56 420.21 906.53 426.97 907.31C431.06 909.28 435.44 910.72 439.82 911.74C454.55 915.15 470.24 914.67 485.12 912.53C517.22 907.91 547.36 895.08 578.64 887.1C582.2 886.19 585.77 885.39 589.34 884.65L589.37 884.64Z" fill="#23382A"/>
<path d="M677.52 353.15C680.07 365.05 685.76 376.69 695 384.81C703.78 392.52 715.5 396.21 727.1 394.24C733.37 393.18 739.3 390.33 743.8 385.8C744.62 384.98 743.35 383.7 742.53 384.53C734.73 392.37 722.83 394.47 712.32 391.97C701.04 389.28 692.07 381.15 686.33 371.3C682.97 365.53 680.66 359.2 679.26 352.68C679.02 351.55 677.28 352.03 677.52 353.16V353.15Z" fill="#151C21"/>
<path d="M574.45 584.82C564.52 596.56 564.54 614.55 572.69 627.25C576.9 633.81 583.35 638.85 590.97 640.72C598.79 642.63 607.07 641.22 614.28 637.83C622.58 633.92 629.78 627.24 633.78 618.93C634.28 617.9 632.81 617 632.23 618.02C625.82 629.16 622.47 642.47 624.03 655.32C624.78 661.52 626.69 667.58 629.95 672.93C633.3 678.41 638.01 682.96 643.32 686.53C654.18 693.84 667.68 696.88 680.66 695.94C694.01 694.97 706.52 689.64 717.01 681.41C727.62 673.08 736 661.98 741.7 649.8C742.4 648.3 743.06 646.77 743.69 645.24C743.1 645.16 742.51 645.08 741.92 645C741.71 659.34 754.28 671.1 767.81 673.52C783.74 676.37 799.61 667.67 810.18 656.32C816.97 649.03 822.2 640.47 826.87 631.71C827.41 630.69 825.86 629.78 825.32 630.8C817.74 645.03 808.37 658.99 793.84 666.84C787.14 670.46 779.58 672.59 771.94 672.18C765.09 671.82 758.44 669.06 753.24 664.58C747.51 659.65 743.62 652.66 743.73 644.99C743.75 643.9 742.32 643.87 741.96 644.75C737.04 656.79 729.57 667.85 719.92 676.6C710.36 685.27 698.57 691.51 685.76 693.54C673.32 695.52 660.09 693.67 648.92 687.76C643.36 684.82 638.23 680.85 634.27 675.94C630.41 671.16 627.86 665.43 626.55 659.45C623.89 647.29 626.22 634.2 631.59 623.08C632.27 621.66 633.01 620.28 633.8 618.92C633.28 618.62 632.76 618.31 632.25 618.01C625.69 631.64 609.75 641.54 594.46 639.54C579.22 637.54 569.37 623.19 568.63 608.55C568.23 600.5 570.48 592.3 575.73 586.09C576.47 585.21 575.21 583.93 574.46 584.82H574.45Z" fill="#151C21"/>
<path d="M610.82 477.84C601.09 485.61 591.01 494.31 585.41 505.69C580.46 515.76 579.63 528.87 587.12 537.95C594.55 546.97 607.33 549.06 618.36 549.14C630.65 549.23 642.96 546.78 654.33 542.14C665.67 537.51 676.14 530.74 684.87 522.14C685.98 521.05 687.06 519.92 688.11 518.77C687.64 518.71 687.17 518.65 686.7 518.59C692.45 528.12 700.19 536.32 709.2 542.83C718.24 549.35 728.55 554.14 739.36 556.85C749.98 559.51 761.45 560.34 772.27 558.38C777.73 557.39 783.02 555.19 787.84 552.51C792.53 549.9 797.13 546.64 800.39 542.31C807.43 532.97 808.33 519.57 804.99 508.67C804.51 507.11 803.93 505.6 803.29 504.1C802.83 503.04 801.28 503.95 801.74 505.01C806.33 515.69 806.46 529.06 800.33 539.19C797.65 543.62 793.54 546.94 789.19 549.63C784.5 552.53 779.36 554.84 774 556.17C768.99 557.41 763.67 557.67 758.52 557.59C753.1 557.51 747.7 556.87 742.4 555.72C732.02 553.46 722.1 549.27 713.22 543.44C703.13 536.81 694.48 528.04 688.23 517.69C687.94 517.21 687.22 517.07 686.82 517.51C670.77 535.03 647.8 545.86 624.09 547.21C613.31 547.82 600.71 547.11 591.88 540.12C582.66 532.82 581.69 520.27 585.55 509.85C587.88 503.57 592.1 497.98 596.58 493.08C601.28 487.94 606.64 483.46 612.07 479.12C612.98 478.4 611.69 477.13 610.8 477.85L610.82 477.84Z" fill="#151C21"/>
<path d="M620.13 683.84C619.02 673.98 614.12 664.94 606.74 658.36C601.07 653.32 594.19 649.75 586.92 647.53C587.64 644.83 588.39 642.13 589.18 639.45C591.53 631.47 594.31 623.65 596.93 615.77C599.46 608.17 601.77 600.42 602.71 592.43C604.59 576.39 599.75 560.79 593.04 546.4C587.44 534.38 580.24 520.93 566.56 516.95C553.63 513.19 540.31 518.95 529.08 525.52C526.2 519.58 521.65 514.43 516.16 510.61C506.32 503.78 494.24 501.72 482.57 504.16C470.22 506.73 458.98 513.7 450.49 522.94C442.7 531.41 437.25 541.86 434.27 552.94C431.27 564.1 430.8 576 433.06 587.33C433.12 587.64 433.21 587.95 433.27 588.26C428.39 588.6 423.5 590.19 419.25 592.67C407.89 599.3 401.62 611.68 397.82 623.82C397.49 624.89 397.19 625.98 396.88 627.06C393.04 625.09 388.84 623.75 384.43 623.16C374.33 621.81 364.18 624.08 355.08 628.5C345.71 633.05 337.43 639.58 329.89 646.71C322.61 653.6 316.07 661.26 310.37 669.5C299 685.93 290.94 704.63 286.92 724.21C285 733.54 283.73 743.26 284.3 752.8C284.34 753.43 284.4 754.07 284.46 754.71C281.97 755.99 279.58 757.48 277.34 759.16C265.94 767.73 258.77 780.49 255.6 794.26C252.21 809.01 252.81 825.27 257.37 839.7C261.52 852.84 269.84 863.91 280.89 872.06C291.48 879.88 303.87 884.99 316.53 888.37C330.01 891.96 344.02 893.66 357.95 893.94C372.07 894.22 386.2 892.93 400.05 890.15C413.89 887.37 427.45 883.12 440.38 877.45C453.35 871.76 465.75 864.67 477.09 856.18C478.23 855.32 479.36 854.44 480.48 853.56C487.8 856.9 496.3 857.03 504.09 854.84C514.22 851.98 522.6 845.06 529.09 836.96C535.63 828.81 540.52 819.43 544.95 810.01C549.27 800.82 553.09 791.41 557.06 782.07C564.79 763.87 573.25 745.36 587.19 730.99C590.78 727.28 594.74 724.03 598.85 720.92C603.07 717.74 607.36 714.61 611.05 710.81C614.56 707.19 617.34 702.93 618.85 698.1C620.28 693.5 620.67 688.63 620.13 683.85V683.84Z" fill="#23382A"/>
<path d="M646.6 838.95C640.84 837.17 634.86 836.21 628.92 835.24C621.76 834.07 614.58 833.1 607.39 832.14C593.03 830.22 578.64 828.34 564.51 825.1C552.65 822.38 541.01 818.6 530.09 813.2C519.49 807.97 509.57 801.16 501.48 792.49C500.39 791.32 499.33 790.12 498.3 788.89C502.76 789.56 507.24 790.13 511.74 790.59C529.4 792.4 547.23 792.62 564.93 791.22C582.27 789.86 599.75 787.16 616.48 782.32C631.72 777.91 646.56 770.86 657.27 758.85C662.17 753.35 666.11 746.9 668.29 739.85C670.57 732.49 671.18 724.04 667.67 716.95C661.17 703.81 644.69 700.66 631.93 697C614.99 692.13 598.13 686.92 581.67 680.61C565.61 674.45 549.89 667.25 535.14 658.36C522.2 650.56 510.01 641.41 499.16 630.87C498.21 629.95 497.28 629 496.36 628.06C502.17 629.48 508.11 630.35 514.09 630.59C524.95 631.03 535.99 629.55 546.2 625.78C556.48 621.98 566.26 615.42 571.25 605.37C575.92 595.96 575.92 584.37 569.18 575.95C563.27 568.57 553.98 565.08 545.12 562.74C540.34 561.48 535.49 560.53 530.65 559.53C525.42 558.45 520.23 557.14 515.11 555.59C504.99 552.52 495.13 548.53 485.8 543.56C468.35 534.25 452.67 521.21 441.96 504.47C447.38 507.62 453.23 510.03 459.34 511.52C468.96 513.86 479.14 513.92 488.81 511.84C493.75 510.78 498.58 509.19 503.16 507.04C507.45 505.03 511.78 502.65 515.21 499.35C518.32 496.37 520.81 492.18 519.72 487.74C518.57 483.08 514.12 480.03 510.53 477.28C503.26 471.71 495.54 466.78 487.96 461.66C480.49 456.61 473.1 451.36 466.57 445.12C459.77 438.62 454.19 431 450.69 422.23C446.72 412.27 445.24 401.54 444.17 390.94C443.2 381.3 442.34 371.64 441.45 361.99C441.45 361.8 441.44 361.61 441.43 361.43C441.2 353.85 441.57 345.65 438.65 338.49C438.09 337.12 437.39 335.85 436.56 334.68C435.79 332.26 434.55 330.04 432.36 328.73C427.95 326.11 422.81 329.1 420.49 333.08C419.09 335.48 418.45 338.24 417.92 340.95C417.33 343.98 416.81 347.02 416.31 350.06C415.31 356.2 414.46 362.37 413.7 368.54C411.94 382.95 410.68 397.42 409.25 411.87C404.94 422.75 399.06 433.04 392.18 442.52C378.7 461.08 361.42 476.43 343.31 490.33C334 497.47 324.43 504.27 314.87 511.07C310.78 513.98 306.28 516.83 303.34 520.99C300.78 524.62 299.82 529.06 301.14 533.34C302.41 537.45 305.51 540.81 308.9 543.33C312.65 546.12 316.95 548.07 321.44 549.32C331.17 552.01 341.41 552.72 351.45 551.73C355.81 551.3 360.13 550.54 364.39 549.51C360.54 553.08 356.62 556.57 352.62 559.95C343.67 567.5 334.31 574.56 324.6 581.1C319.69 584.4 314.69 587.57 309.6 590.6C304.6 593.58 299.22 596.21 294.87 600.14C290.93 603.7 287.94 608.52 287.84 613.96C287.74 619.26 290.89 623.43 295.28 626.1C300.36 629.2 306.49 630.77 312.31 631.77C318.55 632.85 324.9 633.12 331.21 633.01C349.32 632.67 367.76 629.28 384.3 621.72C383.21 623.44 382.1 625.14 380.94 626.81C372.86 638.49 363.24 649.12 352.36 658.26C341.55 667.33 329.51 674.95 316.59 680.63C310.16 683.46 303.52 685.81 296.73 687.63C288.6 689.81 280.29 691.25 272.15 693.4C264.19 695.51 256.17 698.34 249.43 703.18C246.43 705.33 243.63 708.07 242.18 711.52C240.56 715.4 241.13 719.61 242.49 723.47C247.15 736.65 258.09 746.47 270.33 752.59C277.24 756.05 284.6 758.42 292.15 759.95C284.75 763.83 277.34 767.7 269.94 771.59C263.84 774.79 257.43 777.73 251.82 781.75C246.97 785.22 243.1 789.72 240.84 795.27C236.31 806.41 238.22 819.03 243.88 829.37C249.88 840.32 259.58 848.95 269.77 855.91C273.18 858.24 276.72 860.38 280.34 862.35C268.91 864.48 257.56 866.98 246.3 869.89C238.5 871.91 230.65 873.97 223.01 876.53C217.78 878.28 211.91 880.95 208.8 885.75C207.34 888 206.66 890.67 207.07 893.34C207.58 896.75 209.66 899.63 211.95 902.09C216.39 906.85 221.73 910.74 227.46 913.81C239.29 920.15 252.78 922.95 266.06 924.04C276.87 924.93 287.82 924.83 298.64 923.75C296.69 924.96 294.73 926.16 292.78 927.37C289.59 929.34 286.37 931.26 283.31 933.42C278.12 937.09 272.83 941.67 270.54 947.78C268.41 953.48 269.48 959.69 273.11 964.52C276.86 969.51 282.51 972.88 288.16 975.31C294.92 978.22 302.22 980.1 309.39 981.69C324.78 985.1 340.65 986.29 356.38 985.31C372.04 984.34 387.58 981.21 402.36 975.97C415.79 971.21 428.57 964.64 440.32 956.57C442.15 957.69 444.01 958.76 445.9 959.76C462.46 968.52 481.13 972.48 499.77 972.86C510.19 973.07 520.6 972.24 530.89 970.64C539.38 969.32 547.88 967.64 556.01 964.81C563.18 962.31 570.22 958.87 575.92 953.79C581.79 948.56 586 941.66 587.27 933.84C587.82 930.43 587.81 926.93 587.3 923.5C590.91 923.06 594.51 922.49 598.07 921.75C609.14 919.44 619.85 915.49 629.69 909.93C639.45 904.42 648.35 897.26 655.48 888.59C659.02 884.28 662.11 879.59 664.64 874.62C667.46 869.07 669.65 862.83 668.06 856.59C665.59 846.85 655.47 841.66 646.62 838.93L646.6 838.95Z" fill="#3B5C45"/>
<path d="M291.58 759.99C290.62 767 295.94 773.21 302.16 775.7C309.18 778.51 317.42 776.95 324.07 773.88C328.4 771.88 332.37 769.2 336.3 766.53C335.94 766.06 335.57 765.59 335.21 765.12C326.04 776.3 316.53 788.78 316.16 803.9C315.84 817 323.95 828.5 335.08 834.83C347.41 841.85 362.45 842.51 376.19 840.46C388.71 838.59 400.83 834.1 411.65 827.54C422.45 820.99 431.97 812.37 439.43 802.17C440.38 800.87 441.29 799.54 442.17 798.2C441.62 797.97 441.07 797.74 440.52 797.51C438.05 810.72 451.57 820.86 463.5 821.64C474.78 822.38 484.42 815.02 490.75 806.33C494.51 801.16 497.35 795.29 499.15 789.16C499.48 788.05 497.74 787.57 497.41 788.68C494.51 798.52 488.78 808.27 480.42 814.43C476.45 817.35 471.8 819.44 466.85 819.82C461.27 820.25 455.64 818.59 451.01 815.48C445.33 811.67 440.93 805.06 442.25 797.98C442.44 796.99 441.18 796.4 440.6 797.29C433.92 807.51 425.16 816.32 415.08 823.19C405.02 830.04 393.69 834.99 381.8 837.6C368.79 840.45 354.5 840.87 341.9 836.06C330.47 831.7 320.43 822.07 318.34 809.65C315.87 794.98 324.48 781.42 333.18 770.47C334.27 769.1 335.37 767.75 336.48 766.39C337.08 765.66 336.3 764.36 335.39 764.98C329.36 769.06 323.12 773.3 315.86 774.76C309.24 776.09 302.03 775.22 297.1 770.23C294.58 767.67 292.8 764.15 293.31 760.48C293.47 759.35 291.73 758.86 291.57 760L291.58 759.99Z" fill="#151C21"/>
<path d="M496.42 627.18C498.84 634.31 496.38 643.63 490.68 648.6C487.37 651.48 482.87 652.56 478.61 651.55C474.45 650.57 471.04 647.86 468.34 644.64C464.98 640.64 462.62 635.83 460.71 631C460.43 630.28 459.51 630.1 459.06 630.79C451.7 642.09 440.93 651.99 427.71 655.7C420.67 657.67 413.16 657.68 406.13 655.65C399.51 653.74 392.82 650.08 388.3 644.78C383.36 639 381.54 629.87 385.48 623.06C386.06 622.06 384.51 621.15 383.93 622.15C380.4 628.26 381.04 636.43 384.47 642.43C388.1 648.78 394.77 653.17 401.4 655.89C408.5 658.81 416.34 659.66 423.91 658.38C430.92 657.2 437.53 654.17 443.31 650.07C450.23 645.16 456 638.79 460.62 631.69C460.07 631.62 459.52 631.55 458.97 631.47C462.33 640.02 467.59 649.99 476.99 652.97C481.52 654.4 486.52 653.75 490.44 651.04C493.87 648.67 496.19 645.04 497.61 641.17C499.29 636.6 499.74 631.36 498.16 626.7C497.79 625.61 496.05 626.08 496.42 627.18Z" fill="#151C21"/>
<path d="M362.77 547.4C362.46 553.34 367.01 558.34 372.42 560.13C378.29 562.07 384.5 559.62 388.6 555.27C391.02 552.7 392.76 549.55 393.72 546.16C393.13 546.08 392.54 546 391.95 545.92C393.58 559.09 407.06 568.25 419.9 566.83C434.22 565.26 445.21 553.46 448.79 539.99C451.05 531.49 450.75 522.47 448.79 513.94C448.53 512.81 446.8 513.29 447.05 514.42C450.2 528.17 448.76 543.96 438.92 554.79C434.67 559.47 429.12 563.04 422.93 564.5C416.83 565.94 410.49 565.02 405.06 561.9C399.21 558.54 394.59 552.75 393.74 545.92C393.62 544.97 392.27 544.63 391.97 545.68C390.14 552.16 384.74 558.4 377.67 558.99C371.18 559.53 364.2 554.23 364.56 547.39C364.62 546.23 362.82 546.24 362.76 547.39L362.77 547.4Z" fill="#151C21"/>
<path d="M279.81 863.67C300.29 876.92 325.01 883.49 349.34 882.95C352.75 882.87 356.15 882.66 359.54 882.29C362.75 881.94 366.24 881.71 369.34 880.82C369 880.38 368.66 879.94 368.32 879.5C363.91 887.89 363.82 897.41 367.46 906.1C371.06 914.67 377.71 922.31 385.61 927.19C402.12 937.38 422.98 935.47 439.55 926.56C449.57 921.17 458.24 913.54 465.72 905.03C465.25 904.97 464.78 904.91 464.31 904.85C472.11 921.92 485.85 936.15 503.78 942.41C512.56 945.47 521.93 946.32 531.19 945.96C541.1 945.57 551 943.77 560.38 940.53C570.53 937.02 580.22 931.76 587.92 924.19C588.75 923.38 587.47 922.1 586.65 922.92C573.11 936.24 553.41 942.55 534.81 943.96C525.77 944.64 516.49 944.27 507.73 941.78C499.14 939.34 491.14 934.97 484.38 929.13C476.4 922.24 470.25 913.52 465.88 903.95C465.65 903.44 464.82 903.36 464.47 903.77C452.2 917.73 435.93 930 416.92 932.04C408.09 932.98 398.93 931.77 390.86 927.99C382.57 924.1 375.59 917.39 371.1 909.42C366 900.38 364.99 889.78 369.9 880.44C370.26 879.76 369.67 878.89 368.88 879.12C366.08 879.92 362.94 880.15 360.06 880.47C357.18 880.79 354.29 881.01 351.4 881.12C345.42 881.35 339.43 881.14 333.48 880.51C321.55 879.24 309.77 876.26 298.7 871.62C292.44 869 286.43 865.82 280.73 862.14C279.75 861.51 278.85 863.07 279.82 863.69L279.81 863.67Z" fill="#151C21"/>
<path d="M432.17 975.39C436.21 974.19 440.34 972.99 444.41 971.6C449.98 957.71 453.68 943.08 455.43 928.22C457.46 910.96 456.9 893.38 453.66 876.3C452.86 872.08 451.9 867.9 450.78 863.75C449.91 860.53 449.21 856.03 446.24 853.97C444.94 853.07 443.33 852.95 441.93 853.68C440.34 854.51 439.38 856.13 438.47 857.62C436.31 861.16 434.56 864.93 433.17 868.83C427.93 883.6 427.66 899.61 427.91 915.18C425.61 910.38 423.16 905.66 420.51 901.03C411.51 885.3 400.58 870.7 388.01 857.64C386.51 856.08 385.03 854.36 383.32 853.03C381.9 851.93 380.14 851.23 378.35 851.75C375.22 852.65 374.16 856.5 373.98 859.36C373.84 861.5 374.09 863.69 374.32 865.82C374.59 868.37 374.97 870.91 375.44 873.43C376.35 878.29 377.61 883.08 379.1 887.79C380.45 892.08 381.99 896.31 383.63 900.51C379.8 897 375.72 893.77 371.25 891.1C367.3 888.74 363.05 886.88 358.57 885.77C354.69 884.81 350.24 884.25 346.46 885.93C344.81 886.66 343.41 887.82 342.52 889.41C341.38 891.46 341.32 893.87 341.4 896.15C341.55 900.6 342.22 905.02 343.31 909.33C347.67 926.75 358.98 942.09 373.06 953C378.06 956.88 383.39 960.24 388.96 963.18C374.84 962.13 360.54 963.56 346.94 967.55C339.3 969.79 315.49 977.14 332.55 983.57C341.79 987.05 354.81 986.61 364.58 986.07C387.12 984.81 410.52 981.82 432.19 975.39H432.17Z" fill="#7DBA6B"/>
<path d="M382.739 901.18C393.619 922.4 408.409 941.62 426.229 957.49C431.179 961.9 436.369 966.05 441.759 969.92C442.699 970.6 443.599 969.04 442.669 968.37C423.539 954.61 407.069 937.21 394.239 917.46C390.629 911.91 387.319 906.17 384.299 900.28C383.769 899.25 382.219 900.16 382.749 901.19L382.739 901.18Z" fill="#151C21"/>
<path d="M388.949 964.09C403.509 964 418.219 964.47 432.449 967.84C436.409 968.78 440.319 969.95 444.139 971.35C445.229 971.75 445.699 970.01 444.619 969.61C430.859 964.55 416.189 962.84 401.609 962.4C397.389 962.27 393.169 962.25 388.949 962.28C387.789 962.28 387.789 964.09 388.949 964.08V964.09Z" fill="#151C21"/>
<path d="M426.55 915.55C429.88 921.66 432.18 928.38 434.38 934.96C437.04 942.92 439.38 951 441.29 959.18C442.16 962.92 442.97 966.68 443.48 970.49C443.63 971.62 445.43 971.64 445.28 970.49C444.27 962.97 442.38 955.57 440.34 948.27C438.09 940.22 435.55 932.23 432.51 924.44C431.21 921.11 429.82 917.79 428.11 914.64C427.56 913.62 426 914.53 426.56 915.55H426.55Z" fill="#151C21"/>
<path d="M1024.16 939.93C1037.9 936.06 1049.98 928.7 1062.03 921.24C1060.72 911.84 1059.31 902.45 1058.01 893.05C1056.3 880.64 1054.66 868.22 1053.1 855.79C1050.02 831.18 1047.26 806.53 1044.83 781.84C1039.97 732.47 1036.46 682.97 1034.22 633.42C1033.23 611.62 1032.53 589.8 1032.01 567.98C1023.23 567.25 1014.58 565.91 1006.6 564.47C1004.23 564.04 1001.66 563.55 998.97 562.96C998.97 582.63 998.67 602.3 998.09 621.96C997.29 649.4 996 676.83 994.39 704.23C992.77 731.79 990.84 759.32 988.79 786.85C986.8 813.58 985 840.35 982.46 867.04C980.01 892.81 976.38 918.62 968.75 943.42C968.63 943.81 968.5 944.2 968.37 944.59C987.02 944.62 1005.66 945.13 1024.14 939.93H1024.16Z" fill="#151C21"/>
<path d="M1242.01 564.16C1238.56 556.68 1232.93 550.47 1226.62 545.29C1219.96 539.82 1212.51 535.42 1205.01 531.23C1196.54 526.49 1187.91 522.06 1179.33 517.52C1162.42 508.58 1145.6 499.17 1131.06 486.61C1131.01 486.57 1130.97 486.52 1130.92 486.48C1145.09 487.75 1159.47 486.69 1173.29 483.31C1181.97 481.19 1190.43 478.18 1198.46 474.27C1205.49 470.85 1212.19 466.63 1217.85 461.2C1223.39 455.89 1227.74 449.32 1229.59 441.81C1231.59 433.7 1230.41 425.04 1227.23 417.4C1220.63 401.53 1205.93 391.13 1190.71 384.35C1173.45 376.65 1154.84 372.81 1136.94 366.98C1128.68 364.29 1120.57 361.14 1112.86 357.12C1106.04 353.56 1099.54 349.4 1093.43 344.73C1092.42 343.96 1091.43 343.15 1090.44 342.35C1101.34 341.33 1112.04 338.54 1121.88 333.71C1131.15 329.15 1139.59 322.92 1146.53 315.26C1150.02 311.41 1153.1 307.2 1155.71 302.7C1158.37 298.11 1160.71 293.15 1161.78 287.93C1162.87 282.68 1162.35 276.97 1158.81 272.72C1155.79 269.09 1151.36 267.08 1146.93 265.72C1142.09 264.24 1137.09 263.35 1132.19 262.06C1126.9 260.67 1121.67 259.04 1116.53 257.16C1096.58 249.84 1077.58 238.46 1064.24 221.64C1059.86 216.11 1054.18 209.42 1052.59 202.51C1037.12 134.88 1046.17 53.97 1042.03 26.26C1040.87 18.46 1039.46 -3.85 1026.2 0.590001C1015.8 4.08 1015.22 20.41 1013.65 29.27C1010.06 49.59 1008.74 70.14 1007.09 90.68C1005.46 110.92 1001.72 131.63 996.09 151.39C982.16 200.28 944.53 242.6 899.5 266.09C858.09 287.69 861.09 312.6 894.7 322.2C918.67 329.05 941.86 327.18 961.69 319.25C953.69 333.27 943.36 346 931.14 356.55C917.11 368.66 900.74 377.34 883.68 384.37C866.17 391.59 848.08 397.24 830.46 404.16C821.72 407.59 813.1 411.34 804.79 415.72C800.74 417.86 796.68 420.08 792.88 422.65C789.45 424.98 786.17 427.95 785.01 432.07C783.74 436.57 785.27 441.26 787.42 445.23C789.56 449.19 792.35 452.85 795.34 456.2C801.05 462.61 807.86 467.93 815.32 472.17C832.07 481.68 851.48 485.08 870.58 484.23C885.94 483.55 901.21 480.31 915.83 475.43C911.57 478.76 907.19 481.94 902.71 484.98C882.48 498.7 860.52 509.61 838.33 519.75C827.56 524.67 816.66 529.31 805.91 534.27C797.09 538.34 788.3 542.9 780.8 549.14C773.59 555.14 767.79 562.82 765.57 572.06C762.8 583.63 765.8 595.86 770.31 606.58C778.51 626.04 793.13 642.38 810.46 654.24C829.97 667.61 896.9 669.39 932.51 654.54C928.51 671.74 938.13 683.45 939.67 684.92C947.4 692.3 957.77 696.12 968.16 697.84C989.29 701.33 1011.65 697.7 1031 688.72C1049.94 679.92 1066.03 665.77 1077.19 648.11C1077.65 647.38 1078.09 646.64 1078.53 645.9C1091.41 656.16 1107.32 662.11 1123.61 664.18C1141.05 666.4 1158.98 664.43 1175.63 658.89C1191.43 653.63 1206.18 645.1 1218.35 633.71C1230.79 622.06 1241.5 606.84 1244.72 589.83C1246.35 581.2 1245.69 572.18 1241.99 564.15L1242.01 564.16Z" fill="#3B5C45"/>
<path d="M915.54 475.49C908.71 483.72 906.2 495.65 909.1 505.95C912.05 516.42 920.83 524.58 930.6 528.8C955.68 539.63 983.11 526.28 1004.34 512.96C1014.84 506.37 1025.35 498 1029.17 485.71C1029.47 484.74 1028.01 484.12 1027.52 485.02C1023 493.37 1023.33 503.48 1027.13 512.04C1031.14 521.06 1039.07 527.55 1048.23 530.91C1068.66 538.42 1090.93 529.8 1107.03 516.73C1116.78 508.82 1125 498.83 1131.27 487.97C1131.85 486.96 1130.3 486.06 1129.72 487.06C1119.24 505.21 1103.07 521.24 1083.09 528.45C1073.64 531.86 1063.4 533.02 1053.57 530.64C1044.37 528.41 1035.71 523.15 1030.7 514.96C1025.42 506.33 1024.17 495 1029.08 485.92C1028.53 485.69 1027.98 485.46 1027.43 485.23C1024.19 495.66 1015.73 503.2 1006.94 509.12C1002.04 512.42 996.92 515.4 991.74 518.23C986.17 521.28 980.44 524.06 974.47 526.24C962.38 530.65 948.93 532.59 936.37 528.97C926.3 526.07 917.07 519.3 912.45 509.75C907.41 499.34 909.47 485.59 916.8 476.76C917.53 475.87 916.27 474.59 915.53 475.49H915.54Z" fill="#151C21"/>
<path d="M960.92 319.41C957.1 329.83 954.09 342.86 961.5 352.47C968.85 362 982.48 361.35 992.37 356.63C998.77 353.58 1004.25 348.97 1009.63 344.43C1009.13 344.3 1008.63 344.17 1008.13 344.03C1009.57 354.15 1012.82 364.18 1018.89 372.5C1024.29 379.91 1031.84 385.79 1040.58 388.68C1057.77 394.36 1078.86 386.73 1086.92 370.18C1091.09 361.62 1092.69 351.53 1091.32 342.1C1091.15 340.96 1089.42 341.44 1089.58 342.58C1090.74 350.61 1089.52 359.13 1086.52 366.65C1085.03 370.38 1082.99 373.96 1080.27 376.93C1077.33 380.14 1073.66 382.71 1069.77 384.65C1061.81 388.61 1052.43 389.89 1043.77 387.73C1035.18 385.6 1027.58 380.37 1021.98 373.58C1014.98 365.09 1011.39 354.32 1009.86 343.55C1009.76 342.81 1008.81 342.77 1008.36 343.15C999.67 350.48 990.03 358.32 978.04 358.22C972.76 358.18 967.5 356.46 963.87 352.5C960.35 348.66 958.7 343.32 958.71 338.17C958.73 331.95 960.54 325.68 962.66 319.88C963.06 318.79 961.32 318.32 960.92 319.4V319.41Z" fill="#151C21"/>
<path d="M1127.29 899.7C1122.09 894.22 1114.71 891.03 1107.23 890.35C1100.22 889.71 1093.03 891.19 1087.04 894.85C1087.49 892.84 1087.22 890.64 1086.37 888.71C1084.53 884.51 1080.76 882.08 1076.23 881.66C1070.7 881.15 1065.3 883.25 1060.38 885.56C1055.56 887.82 1050.95 890.55 1046.72 893.79C1045.54 894.7 1044.38 895.64 1043.26 896.62C1044.43 894.47 1045.49 892.26 1046.4 889.99C1048.81 884.02 1050.64 877.42 1049.79 870.93C1049 864.92 1045.69 859.87 1040.49 856.76C1035.27 853.63 1029.01 852.77 1023.04 853.51C1016.17 854.37 1009.7 857.07 1003.48 860.01C997.819 862.69 992.319 865.7 987.019 869.04C976.439 875.71 966.65 883.66 957.92 892.61C948.81 901.95 940.859 912.45 934.349 923.76C933.939 922.62 933.209 921.58 932.259 920.77C930.079 918.9 927.139 918.53 924.379 918.88C919.199 919.54 914.02 921.73 909.43 924.13C898 930.1 869.009 945.58 876.099 962.44C877.909 966.75 881.99 968.94 886.31 970.1C891.46 971.48 896.859 972.2 902.149 972.7C941.309 976.39 974.699 951.03 1014.19 958.97C1047.48 965.67 1076.91 973.3 1107.58 953.29C1124.08 942.52 1144.57 917.96 1127.25 899.69L1127.29 899.7Z" fill="#7DBA6B"/>
<path d="M969.159 945.05C976.329 934.93 985.139 925.74 994.399 917.53C999.139 913.32 1004.14 909.3 1009.61 906.08C1011.91 904.72 1014.29 903.54 1016.82 902.68C1020.71 901.35 1025.03 900.31 1029.11 901.31C1038.73 903.66 1040.65 914.93 1041.42 923.23C1041.48 923.9 1042.42 924.55 1042.96 923.87C1051.46 913.03 1062.93 904.6 1075.83 899.75C1079.51 898.37 1083.28 897.28 1087.13 896.49C1088.26 896.26 1087.78 894.52 1086.65 894.75C1072.91 897.59 1060.05 904.27 1049.77 913.8C1046.85 916.51 1044.15 919.45 1041.69 922.59C1042.2 922.8 1042.71 923.01 1043.23 923.23C1042.49 915.32 1041.1 906.35 1034 901.53C1027.55 897.14 1018.79 899.48 1012.29 902.6C1006.61 905.32 1001.48 909.21 996.659 913.22C991.079 917.86 985.849 922.92 980.879 928.21C976.149 933.25 971.599 938.5 967.599 944.15C966.929 945.1 968.489 946 969.149 945.06L969.159 945.05Z" fill="#151C21"/>
<path d="M521.53 650.15C538.48 661.24 556.53 670.49 575.21 678.28C580.62 680.53 586.07 682.67 591.56 684.72C592.65 685.13 593.12 683.39 592.04 682.98C573.1 675.91 554.58 667.69 537.04 657.59C532.09 654.73 527.22 651.73 522.43 648.6C521.46 647.96 520.55 649.52 521.52 650.15H521.53Z" fill="#151C21"/>
<path d="M520.73 557.57C529.55 561.09 539.02 562.28 548.11 564.87C556.22 567.18 564.59 570.83 569.77 577.79C572.38 581.3 573.83 585.41 573.83 589.79C573.83 590.95 575.63 590.95 575.63 589.79C575.63 581.49 570.73 574.62 564.11 570.01C556.29 564.55 546.73 562.52 537.58 560.48C532.04 559.24 526.49 557.95 521.2 555.84C520.12 555.41 519.66 557.15 520.72 557.58L520.73 557.57Z" fill="#151C21"/>
</svg>
