<svg width="70" height="56" viewBox="0 0 70 56" fill="none" xmlns="http://www.w3.org/2000/svg">
<path d="M62.6909 16.5804C59.566 14.2519 55.454 15.5301 52.5117 17.4687C46.4869 21.4375 41.409 27.0275 37.7534 33.2395C35.8704 36.4372 34.136 39.9501 33.2359 43.5653C32.7519 45.5039 32.512 47.6257 33.03 49.5877C33.1616 50.0862 33.3654 50.5783 33.6222 51.0449C33.3272 51.2068 33.1234 51.522 33.2168 51.9566C33.6392 53.9165 35.8852 54.5833 37.6027 54.0145C39.3371 53.4393 40.925 52.2442 42.4259 51.2217C45.4382 49.1702 48.2659 46.846 50.8749 44.3002C56.0463 39.2513 60.5447 33.2651 63.6207 26.6973C65.1365 23.4613 65.9941 19.0452 62.6909 16.5825V16.5804Z" fill="#47A372"/>
<path d="M49.4717 4.38848C48.9707 2.79073 48.0642 1.28246 46.5209 0.51767C44.5721 -0.44737 42.445 0.0298244 40.7084 1.21429C38.9401 2.42219 37.6536 4.16906 36.5603 5.98836C35.4798 7.78636 34.603 9.71218 33.8961 11.687C32.4716 15.6728 31.7329 19.876 31.1746 24.06C30.5823 28.5145 30.1237 33.0223 30.3148 37.5236C30.5016 41.9441 31.3168 46.3858 33.3314 50.3589C33.8749 51.4326 34.707 52.9387 35.8492 53.6289C35.7918 53.9677 35.9022 54.3128 36.2185 54.5237C36.6007 54.7772 37.2099 54.692 37.4519 54.2723C37.5177 54.1594 37.5793 54.0444 37.643 53.9315C37.7279 53.9101 37.8107 53.8952 37.8977 53.8654C38.9422 53.5011 39.4963 52.4487 39.993 51.5306C40.5429 50.5165 41.0184 49.4578 41.3878 48.3649C41.738 47.3232 41.9843 46.258 42.1711 45.1758C42.1902 45.0608 42.1754 44.9478 42.1435 44.8392C44.2643 39.8734 45.9583 34.718 47.2321 29.4816C48.2871 25.1358 49.0599 20.7153 49.529 16.2672C49.7647 14.041 49.9239 11.8084 50.0024 9.57158C50.064 7.84814 49.9897 6.05014 49.4696 4.39487L49.4717 4.38848Z" fill="#47A372"/>
<path d="M33.9396 13.2885C32.8193 10.0025 25.8944 23.0404 28.1838 4.44484C27.4856 0.97546 24.8549 3.68299 23.3557 4.54959C21.8426 5.42621 21.041 7.12129 20.5926 8.74498C19.5749 12.4249 20.1775 16.3308 21.0033 19.9841C21.8859 23.8927 23.0621 27.7319 24.5153 31.4648C25.9864 35.2452 27.737 38.9234 29.7425 42.4483C30.6931 44.1199 31.6892 45.7781 32.782 47.3619C33.5426 48.4644 34.4104 49.5321 35.4875 50.3357C35.5065 51.756 36.835 52.9616 38.2596 52.9896C40.0738 53.0282 41.4226 51.4212 41.8508 49.7889C42.3327 47.9561 41.9213 45.8701 41.6934 44.0262C41.4334 41.9179 41.1018 39.8192 40.7118 37.7332C39.1514 29.406 36.6683 21.2979 33.9396 13.2885Z" fill="#47A372"/>
<path d="M36.0805 50.9106C34.5223 47.5341 32.5948 44.3258 30.5504 41.2262C28.47 38.0754 26.2495 35.0248 24.0204 31.9784C22.0483 29.2835 20.0506 26.5801 17.6645 24.2368C16.4693 23.063 15.1807 21.9701 13.7818 21.0434C12.3552 20.0997 10.6824 19.1325 8.91187 19.2539C7.16898 19.3732 5.30721 20.2222 5.30721 22.2556C4.73191 24.0323 11.0426 28.6419 11.6667 30.3333C17.1111 37.3333 12.1769 39.262 16.8599 43.8848C19.2355 46.2303 21.7935 48.3905 24.4556 50.4015C25.7761 51.3985 27.1135 52.47 28.5655 53.2689C29.4699 53.7674 30.4422 54.1083 31.4293 54.1509C32.5863 55.1777 34.0107 56.1193 35.5859 55.3822C36.3077 55.0456 36.8151 54.3852 36.9 53.5842C36.9976 52.6511 36.4584 51.7266 36.0805 50.9106Z" fill="#47A372"/>
<path d="M36.7747 50.3759C36.3204 49.7219 35.6857 49.2 35.0849 48.6866C34.4353 48.1327 33.7496 47.6235 33.0427 47.1463C31.5928 46.1706 30.0579 45.3377 28.521 44.5133C22.3752 41.2198 16.0002 37.8879 9.01589 36.8952C7.32183 36.6545 5.60229 36.5692 3.89337 36.6736C3.05908 36.7248 2.11439 36.7269 1.34166 37.0869C0.520108 37.4682 0.0658103 38.2756 0.00849241 39.1619C-0.0912832 40.6978 0.736642 42.3446 1.56457 43.5823C2.50713 44.9883 4.91241 46.0833 6.22223 47.1463C11.4233 51.3623 16.7821 53.2642 23.3333 54.4444C26.5686 55.0281 29.9093 56.1917 33.1913 55.8594C34.3504 55.7422 35.7048 55.2991 36.3502 54.2638C36.382 54.251 36.416 54.2403 36.4478 54.2254C38.006 53.4606 37.5793 51.5284 36.7769 50.3738L36.7747 50.3759Z" fill="#47A372"/>
<path d="M69.8238 44.051C68.8027 40.9812 64.7076 40.9109 62.0455 40.7234C55.7576 40.2824 49.391 41.3369 43.5531 43.7101C40.5768 44.9202 37.5984 46.4774 35.2823 48.7484C34.6582 49.3619 33.7241 50.2694 33.3038 51.2345C32.3146 51.4731 31.7201 52.7086 31.9197 53.6992C32.2105 55.1457 33.7624 55.6251 35.0552 55.559C36.7132 55.4738 38.3754 55.2054 40.0227 55.003C41.7019 54.7964 43.379 54.5791 45.0519 54.3341C51.5585 53.3818 58.184 52.1739 64.3213 49.7262C66.6395 48.8016 70.9213 47.353 69.8238 44.051Z" fill="#47A372"/>
<path d="M38.04 54.3895C40.5407 50.4271 42.549 46.1643 44.1985 41.78C45.8989 37.2637 47.2151 32.6005 48.1789 27.8711C48.699 25.3147 49.1129 22.737 49.4144 20.1465C49.4611 19.7546 48.8476 19.7588 48.803 20.1465C48.2617 24.7864 47.3509 29.3858 46.1133 33.8893C44.8481 38.4887 43.241 43.0007 41.2052 47.3146C40.1077 49.6388 38.8849 51.9055 37.5114 54.0784C37.2991 54.4129 37.8298 54.7218 38.04 54.3895Z" fill="#404040"/>
<path d="M37.35 55.4802C40.477 50.4611 44.8608 46.2665 49.9897 43.3458C51.4439 42.5171 52.9554 41.795 54.5114 41.1836C54.8745 41.0408 54.7174 40.4465 54.348 40.5913C48.7202 42.8005 43.6741 46.4306 39.7871 51.0747C38.7044 52.3699 37.7131 53.7376 36.8193 55.1713C36.6092 55.5079 37.1399 55.8168 37.3479 55.4823L37.35 55.4802Z" fill="#404040"/>
<path d="M33.4444 13.2222C30.0077 30.4872 31.8291 39.5144 37.3333 55.2222" stroke="#404040" stroke-width="0.6" stroke-linecap="round"/>
<path d="M31.1111 50.5556C23.8428 42.2094 25.3191 43.1224 14.7778 38.1111" stroke="#404040" stroke-width="0.6" stroke-linecap="round"/>
</svg>
