<svg width="75" height="49" viewBox="0 0 75 49" fill="none" xmlns="http://www.w3.org/2000/svg">
<path d="M74.4958 34.6085C73.9479 33.7958 73.0392 33.362 72.1557 33.0081C69.9047 32.1086 67.5258 31.5584 65.1287 31.2297C60.2499 30.5608 55.2867 30.8302 50.392 31.1749C51.8257 30.5334 53.2503 29.8713 54.6543 29.1636C56.5789 28.1956 58.4715 27.166 60.3298 26.0793C62.2042 24.9811 64.099 23.8602 65.8615 22.5863C67.2016 21.616 68.6422 20.2074 68.9093 18.4975C69.197 16.6482 67.729 15.3652 66.0145 15.1278C65.0031 14.9885 63.9849 15.1209 62.9804 15.2579C61.9393 15.4017 60.8983 15.5615 59.8618 15.7396C57.8437 16.0843 55.8346 16.493 53.8416 16.9633C45.8351 18.8536 38.0593 21.7347 30.74 25.4903C29.3474 26.2048 27.9776 26.9628 26.6192 27.7413C26.795 27.513 26.9754 27.287 27.1466 27.0564C29.2584 24.2255 31.1852 21.2553 32.9111 18.1733C34.5846 15.1826 36.7922 13.0634 37.9543 9.83301C38.7054 7.75092 40.71 2.62515 39 0.833008C36.8654 -1.39976 31.8107 1.37504 30.0003 3.08957C28.7082 4.31553 27.3635 5.4792 26.2106 6.83301C25.0166 8.23705 23.1346 10.3833 22 11.833C19.6759 14.8055 18.4005 17.4016 16.3389 20.5613C13.0811 25.5519 12.5592 30.4497 10 35.833C10.468 33.7075 9.36302 32.0064 9.5 29.833C9.64839 27.4975 9.74885 25.2916 9.5 22.9653C9.24431 20.5727 7.0015 13.7077 3.7528 13.1301C0.515527 12.5571 0.492698 21.2964 0.298644 22.9653C-0.308631 28.1728 0.010987 33.4898 1.25065 38.5855C1.61364 40.0808 2.07024 41.5488 2.59305 42.9962C2.60903 43.0396 2.62501 43.083 2.64099 43.1286C2.92865 43.9163 3.23 44.6993 3.56332 45.471C3.68432 45.7518 3.96969 45.7404 4.15918 45.592C6.00611 47.5759 8.8804 48.6261 11.5812 48.7813C14.0171 48.9206 16.4485 48.4914 18.8297 48.0302C21.2907 47.5531 23.7495 47.0691 26.2106 46.5873C30.0848 47.1901 34.0229 47.4184 37.9543 47.3248C47.1113 47.1056 56.1862 45.2586 64.9186 42.5624C66.0008 42.2291 67.0806 41.8798 68.1559 41.5191C69.133 41.1904 70.1375 40.8913 71.0759 40.4575C72.5963 39.7566 74.3976 38.5535 74.8702 36.8413C75.0825 36.0719 74.9455 35.2683 74.5003 34.6062L74.4958 34.6085Z" fill="#2FC173"/>
<path d="M7.14533 47.1763C10.5538 40.6766 15.5878 35.065 21.6469 30.9259C23.3454 29.7662 25.1216 28.7229 26.9594 27.8028C27.3384 27.6133 27.005 27.0449 26.6261 27.2344C19.9849 30.5629 14.1838 35.5102 9.84839 41.5418C8.63384 43.2313 7.54257 45.0029 6.57687 46.8452C6.38053 47.2196 6.94899 47.553 7.14533 47.1785V47.1763Z" fill="#404040"/>
<path d="M13.5445 48.7447C17.5078 45.1718 21.8957 42.0852 26.5781 39.526C31.3199 36.9325 36.3516 34.8847 41.5522 33.4144C44.4836 32.5857 47.4675 31.9442 50.481 31.4898C50.8988 31.4259 50.7207 30.7913 50.3052 30.8552C44.8831 31.6748 39.5569 33.1039 34.4567 35.1175C29.425 37.1014 24.6125 39.6378 20.1538 42.7016C17.6767 44.4047 15.3116 46.2676 13.0811 48.2789C12.766 48.5643 13.2318 49.0278 13.5468 48.7447H13.5445Z" fill="#404040"/>
<path d="M9.86533 35.6572C9.35166 38.9676 5.73442 42.5008 4.24819 45.5029C4.06099 45.8819 4.62945 46.2152 4.81665 45.8362C6.32799 42.7839 9.9772 39.2004 10.5 35.833C10.5639 35.4175 9.92925 35.2394 9.86533 35.6572Z" fill="#404040"/>
</svg>
