<svg width="90" height="53" viewBox="0 0 90 53" fill="none" xmlns="http://www.w3.org/2000/svg">
<path d="M53.0248 4.97542C51.3745 0.665849 48.6398 1.06079 49.0248 4.97548C34.2107 4.33376 -13.485 27.2418 4.99992 40.5C10.8707 44.7108 31.0586 38.5377 32.9881 45.5C33.8173 48.492 36.4476 47.5747 36.9881 45.5C39.1354 48.6327 40.0276 48.7204 40.9881 45.5C42.1553 47.8295 45.0922 49.284 44.4881 45.5C43.6309 40.1303 51.1643 53.4133 56.5248 52.5C62.291 51.5175 65.4881 40.5 65.4881 40.5C69.433 41.4109 69.0265 39.996 66.9881 36.5C69.7185 36.6501 71.8262 37.0136 66.9881 33.5C70.1964 33.9126 72.157 34.5953 68 30.9213C68 30.9213 83.7689 32.2273 88.5 25.4213C95.8306 14.876 61.0248 4.97542 61.0248 4.97542C61.3188 -1.66912 58.7406 -1.64782 56.5248 4.97542C55.9016 2.19765 54.2856 2.77206 53.0248 4.97542Z" fill="#9BD552"/>
</svg>
