<svg width="45" height="36" viewBox="0 0 45 36" fill="none" xmlns="http://www.w3.org/2000/svg">
<g clip-path="url(#clip0_590_4490)">
<path d="M40.3015 10.6588C38.2927 9.1619 35.6492 9.9836 33.7577 11.2298C29.8847 13.7812 26.6203 17.3748 24.2703 21.3682C23.0598 23.4239 21.9448 25.6822 21.3662 28.0062C21.055 29.2524 20.9008 30.6165 21.2338 31.8778C21.3184 32.1982 21.4494 32.5146 21.6145 32.8145C21.4248 32.9186 21.2938 33.1213 21.3539 33.4007C21.6254 34.6606 23.0693 35.0892 24.1734 34.7236C25.2883 34.3538 26.3091 33.5855 27.274 32.9282C29.2105 31.6094 31.0283 30.1152 32.7055 28.4787C36.03 25.233 38.9218 21.3847 40.8993 17.1625C41.8737 15.0822 42.425 12.2433 40.3015 10.6601V10.6588Z" fill="#47A372"/>
<path d="M31.8034 2.82113C31.4813 1.79401 30.8986 0.824404 29.9064 0.332754C28.6536 -0.287629 27.2862 0.019139 26.1698 0.78058C25.033 1.55709 24.206 2.68007 23.5032 3.84963C22.8086 5.00548 22.2449 6.24351 21.7905 7.51303C20.8748 10.0754 20.3998 12.7774 20.0409 15.4671C19.6602 18.3307 19.3654 21.2286 19.4882 24.1223C19.6083 26.964 20.1324 29.8194 21.4275 32.3735C21.7768 33.0638 22.3118 34.032 23.046 34.4757C23.0092 34.6935 23.0801 34.9153 23.2835 35.0509C23.5291 35.2139 23.9208 35.1591 24.0764 34.8893C24.1187 34.8167 24.1583 34.7428 24.1992 34.6702C24.2538 34.6565 24.307 34.6469 24.363 34.6277C25.0344 34.3935 25.3906 33.717 25.7099 33.1268C26.0634 32.4749 26.3691 31.7942 26.6066 31.0917C26.8317 30.422 26.99 29.7372 27.1101 29.0415C27.1224 28.9676 27.1129 28.895 27.0924 28.8252C28.4557 25.6329 29.5448 22.3187 30.3636 18.9525C31.0419 16.1587 31.5386 13.317 31.8402 10.4575C31.9917 9.02633 32.0941 7.59109 32.1445 6.15312C32.1841 5.0452 32.1364 3.88934 31.802 2.82524L31.8034 2.82113Z" fill="#47A372"/>
<path d="M22.7988 8.8059C22.3034 6.62976 21.8462 3.95513 19.7132 2.76504C18.7633 2.23504 17.6361 2.05427 16.6194 2.50757C15.5931 2.96635 14.9667 3.99622 14.5709 5.00417C13.6729 7.28849 13.7958 9.82617 14.0783 12.2173C14.3799 14.7755 14.8739 17.3091 15.5522 19.7934C16.2386 22.3091 17.1107 24.7784 18.156 27.1668C18.6514 28.2993 19.1768 29.4264 19.7691 30.5124C20.1813 31.2684 20.6644 32.0093 21.299 32.5954C21.2157 33.5048 21.984 34.3648 22.8929 34.4785C24.0502 34.625 25.0205 33.6883 25.404 32.6735C25.8353 31.5341 25.7124 30.1728 25.6906 28.9786C25.666 27.6132 25.5951 26.2492 25.4859 24.8893C25.0478 19.4606 24.0052 14.11 22.7988 8.8059Z" fill="#47A372"/>
<path d="M23.1947 32.7283C22.193 30.5576 20.9538 28.4951 19.6396 26.5025C18.3022 24.477 16.8747 22.5159 15.4418 20.5575C14.174 18.8251 12.8898 17.0872 11.3558 15.5808C10.5875 14.8262 9.75911 14.1236 8.85976 13.5279C7.94268 12.9212 6.86728 12.2994 5.72911 12.3775C4.60869 12.4542 3.75165 13.2567 3.41183 14.3071C3.042 15.4493 3.35315 16.6353 3.75438 17.7227C5.22963 21.7216 7.82804 25.2398 10.8386 28.2116C12.3657 29.7195 14.0102 31.1081 15.7215 32.4009C16.5704 33.0419 17.4302 33.7307 18.3636 34.2443C18.945 34.5648 19.57 34.7839 20.2046 34.8113C20.9484 35.4714 21.8641 36.0767 22.8767 35.6028C23.3407 35.3864 23.6669 34.9619 23.7215 34.447C23.7843 33.8471 23.4376 33.2528 23.1947 32.7283Z" fill="#47A372"/>
<path d="M23.6407 32.3845C23.3487 31.9641 22.9406 31.6286 22.5544 31.2985C22.1368 30.9424 21.696 30.6151 21.2415 30.3084C20.3094 29.6811 19.3228 29.1457 18.3347 28.6157C14.3839 26.4984 10.2856 24.3565 5.79574 23.7183C4.7067 23.5636 3.60129 23.5088 2.50269 23.5759C1.96636 23.6088 1.35906 23.6102 0.862309 23.8416C0.334166 24.0867 0.0421178 24.6058 0.00527058 25.1755C-0.0588709 26.1629 0.473367 27.2215 1.0056 28.0172C1.61154 28.9211 2.38533 29.6757 3.22735 30.359C6.5709 33.0693 10.7401 34.8017 14.9516 35.5604C17.0314 35.9356 19.2272 36.1233 21.3371 35.9096C22.0822 35.8343 22.9529 35.5494 23.3678 34.8839C23.3882 34.8756 23.4101 34.8688 23.4305 34.8592C24.4322 34.3676 24.1579 33.1254 23.6421 32.3832L23.6407 32.3845Z" fill="#47A372"/>
<path d="M44.8868 28.3184C44.2303 26.345 41.5978 26.2998 39.8865 26.1793C35.8442 25.8958 31.7514 26.5737 27.9985 28.0993C26.0851 28.8772 24.1704 29.8783 22.6815 31.3382C22.2803 31.7326 21.6798 32.316 21.4096 32.9364C20.7737 33.0898 20.3916 33.8841 20.5198 34.5209C20.7068 35.4508 21.7044 35.7589 22.5355 35.7165C23.6014 35.6617 24.6699 35.4891 25.7289 35.359C26.8084 35.2262 27.8865 35.0865 28.9619 34.929C33.1448 34.3168 37.404 33.5403 41.3494 31.9668C42.8397 31.3724 45.5923 30.4412 44.8868 28.3184Z" fill="#47A372"/>
<path d="M24.4544 34.9647C26.0621 32.4174 27.3531 29.6771 28.4135 26.8586C29.5066 23.9553 30.3527 20.9575 30.9723 17.9172C31.3067 16.2738 31.5728 14.6167 31.7666 12.9514C31.7966 12.6994 31.4022 12.7021 31.3735 12.9514C31.0255 15.9342 30.4401 18.8909 29.6444 21.786C28.8311 24.7428 27.798 27.6434 26.4892 30.4166C25.7837 31.9107 24.9976 33.3679 24.1146 34.7648C23.9782 34.9798 24.3193 35.1783 24.4544 34.9647Z" fill="#191626"/>
<path d="M22.0646 6.54209C23.1414 10.0877 23.9043 13.7278 24.3423 17.4077C24.7749 21.0492 24.8978 24.7263 24.7299 28.3883C24.6344 30.4741 24.4447 32.5543 24.169 34.6237C24.1349 34.8743 24.5293 34.8729 24.562 34.6237C25.052 30.9438 25.2676 27.227 25.1734 23.5157C25.0793 19.8344 24.6835 16.1601 23.9711 12.5487C23.5644 10.4876 23.054 8.44706 22.444 6.43801C22.3703 6.19561 21.9909 6.29832 22.0646 6.54346V6.54209Z" fill="#191626"/>
<path d="M15.8294 21.3203C17.3838 25.2494 19.3654 29.0196 21.8055 32.4694C22.4892 33.4362 23.2098 34.3785 23.9672 35.2892C24.1296 35.485 24.4066 35.2043 24.2456 35.0098C21.5885 31.8093 19.3927 28.2308 17.6185 24.4688C17.1136 23.3992 16.6441 22.3146 16.2102 21.2148C16.1174 20.982 15.7366 21.0834 15.8308 21.3203H15.8294Z" fill="#191626"/>
<path d="M7.08009 24.121C9.53793 25.0564 11.8852 26.2793 14.1193 27.668C16.4161 29.095 18.6037 30.7069 20.6289 32.5023C21.7071 33.4583 22.7388 34.4689 23.7023 35.5426C23.8715 35.7316 24.1499 35.4522 23.9807 35.2632C22.2175 33.298 20.2291 31.5423 18.1288 29.9482C15.9384 28.2857 13.6102 26.797 11.1688 25.533C9.87502 24.8633 8.54715 24.258 7.18517 23.7403C6.94771 23.6499 6.84536 24.032 7.08009 24.121Z" fill="#191626"/>
<path d="M24.0109 35.6659C26.0211 32.4394 28.8393 29.7428 32.1364 27.8652C33.0712 27.3325 34.0429 26.8682 35.0433 26.4752C35.2766 26.3834 35.1756 26.0013 34.9382 26.0945C31.3203 27.5146 28.0764 29.8483 25.5776 32.8338C24.8816 33.6664 24.2443 34.5456 23.6697 35.4673C23.5346 35.6837 23.8758 35.8823 24.0096 35.6673L24.0109 35.6659Z" fill="#191626"/>
</g>
<defs>
<clipPath id="clip0_590_4490">
<rect width="45" height="36" fill="white"/>
</clipPath>
</defs>
</svg>