<svg width="34" height="30" viewBox="0 0 34 30" fill="none" xmlns="http://www.w3.org/2000/svg">
<path d="M1.49957 15.9999C1.11462 12.0852 3.8493 11.6903 5.49957 15.9998C6.76034 13.7965 8.37633 13.2221 8.99957 15.9998C11.2153 9.37659 13.7936 9.35529 13.4996 15.9998" stroke="#5DA46C" stroke-linecap="round" stroke-linejoin="round"/>
<path d="M9.03668 5.97548C8.65173 2.06079 11.3864 1.66585 13.0367 5.97542C14.2975 3.77206 15.9134 3.19765 16.5367 5.97542C18.7524 -0.647821 21.3307 -0.669119 21.0367 5.97542" stroke="#5DA46C" stroke-linecap="round" stroke-linejoin="round"/>
<path d="M21.0367 15.9755C20.6517 12.0608 23.3864 11.6658 25.0367 15.9754C26.2975 13.7721 27.9134 13.1976 28.5367 15.9754C30.7524 9.35218 33.3307 9.33088 33.0367 15.9754" stroke="#5DA46C" stroke-linecap="round" stroke-linejoin="round"/>
<path d="M17.0367 28.9755C16.6517 25.0608 19.3864 24.6658 21.0367 28.9754C22.2975 26.7721 23.9134 26.1976 24.5367 28.9754C26.7524 22.3522 29.3307 22.3309 29.0367 28.9754" stroke="#5DA46C" stroke-linecap="round" stroke-linejoin="round"/>
</svg>
