<svg width="495" height="1491" viewBox="0 0 495 1491" fill="none" xmlns="http://www.w3.org/2000/svg">
<g clip-path="url(#clip0_152_11035)">
<path d="M318.5 1265.56C306.071 1353.98 194.5 1408.56 135.5 1466.56C76.5 1524.56 51 727.562 51 727.562L105.5 -123.438C105.5 -123.438 349.5 -126.938 331 -123.938C312.5 -120.939 263.5 9.06152 299.5 145.562C327.05 250.021 495.5 235.062 469.5 352.562C456.039 413.396 398.5 431.562 343 450.062C224.245 489.646 336 609.062 312 722.062C290.514 823.223 415.3 813.517 441.5 913.561C476.572 1047.49 336 1141.06 318.5 1265.56Z" fill="#548945"/>
<path d="M318.5 1265.56C306.071 1353.98 194.5 1408.56 135.5 1466.56C76.5 1524.56 51 727.562 51 727.562L105.5 -123.438C105.5 -123.438 349.5 -126.938 331 -123.938C312.5 -120.939 263.5 9.06152 299.5 145.562C327.05 250.021 495.5 235.062 469.5 352.562C456.039 413.396 398.5 431.562 343 450.062C224.245 489.646 336 609.062 312 722.062C290.514 823.223 415.3 813.517 441.5 913.561C476.572 1047.49 336 1141.06 318.5 1265.56Z" fill="#A6B2C8"/>
<path d="M291.5 1262.56C279.071 1350.98 167.5 1405.56 108.5 1463.56C49.5 1521.56 24 724.561 24 724.561L78.5 -126.439C78.5 -126.439 343 -136.438 324.5 -133.438C306 -130.439 236.5 6.06119 272.5 142.561C300.05 247.021 468.5 232.061 442.5 349.561C429.039 410.396 371.5 428.561 316 447.061C197.245 486.646 309 606.061 285 719.061C263.514 820.223 388.3 810.516 414.5 910.561C449.572 1044.49 309 1138.06 291.5 1262.56Z" fill="#548945"/>
<path d="M291.5 1262.56C279.071 1350.98 167.5 1405.56 108.5 1463.56C49.5 1521.56 24 724.561 24 724.561L78.5 -126.439C78.5 -126.439 343 -136.438 324.5 -133.438C306 -130.439 236.5 6.06119 272.5 142.561C300.05 247.021 468.5 232.061 442.5 349.561C429.039 410.396 371.5 428.561 316 447.061C197.245 486.646 309 606.061 285 719.061C263.514 820.223 388.3 810.516 414.5 910.561C449.572 1044.49 309 1138.06 291.5 1262.56Z" fill="#CFDFFA"/>
</g>
<defs>
<clipPath id="clip0_152_11035">
<rect width="495" height="1491" fill="white"/>
</clipPath>
</defs>
</svg>
