<svg width="495" height="1364" viewBox="0 0 495 1364" fill="none" xmlns="http://www.w3.org/2000/svg">
<g clip-path="url(#clip0_152_11035)">
<path d="M318.5 1145.56C306.071 1233.98 194.5 1288.56 135.5 1346.56C76.5 1404.56 51 607.562 51 607.562L105.5 -243.438C105.5 -243.438 349.5 -246.938 331 -243.938C312.5 -240.939 263.5 -110.938 299.5 25.5615C327.05 130.021 495.5 115.062 469.5 232.562C456.039 293.396 398.5 311.562 343 330.062C224.245 369.646 336 489.062 312 602.062C290.514 703.223 415.3 693.517 441.5 793.561C476.572 927.486 336 1021.06 318.5 1145.56Z" fill="#548945"/>
<path d="M318.5 1145.56C306.071 1233.98 194.5 1288.56 135.5 1346.56C76.5 1404.56 51 607.562 51 607.562L105.5 -243.438C105.5 -243.438 349.5 -246.938 331 -243.938C312.5 -240.939 263.5 -110.938 299.5 25.5615C327.05 130.021 495.5 115.062 469.5 232.562C456.039 293.396 398.5 311.562 343 330.062C224.245 369.646 336 489.062 312 602.062C290.514 703.223 415.3 693.517 441.5 793.561C476.572 927.486 336 1021.06 318.5 1145.56Z" fill="#A6B2C8"/>
<path d="M291.5 1142.56C279.071 1230.98 167.5 1285.56 108.5 1343.56C49.5 1401.56 24 604.561 24 604.561L78.5 -246.439C78.5 -246.439 343 -256.438 324.5 -253.438C306 -250.439 236.5 -113.939 272.5 22.5611C300.05 127.021 468.5 112.061 442.5 229.561C429.039 290.396 371.5 308.561 316 327.061C197.245 366.646 309 486.061 285 599.061C263.514 700.223 388.3 690.516 414.5 790.561C449.572 924.485 309 1018.06 291.5 1142.56Z" fill="#548945"/>
<path d="M291.5 1142.56C279.071 1230.98 167.5 1285.56 108.5 1343.56C49.5 1401.56 24 604.561 24 604.561L78.5 -246.439C78.5 -246.439 343 -256.438 324.5 -253.438C306 -250.439 236.5 -113.939 272.5 22.5611C300.05 127.021 468.5 112.061 442.5 229.561C429.039 290.396 371.5 308.561 316 327.061C197.245 366.646 309 486.061 285 599.061C263.514 700.223 388.3 690.516 414.5 790.561C449.572 924.485 309 1018.06 291.5 1142.56Z" fill="#CFDFFA"/>
</g>
<defs>
<clipPath id="clip0_152_11035">
<rect width="495" height="1364" fill="white"/>
</clipPath>
</defs>
</svg>
