<svg width="1486" height="531" viewBox="0 0 1486 531" fill="none" xmlns="http://www.w3.org/2000/svg">
<path d="M742.004 525.5C710.43 498.036 702.594 477.324 699.504 434.5L669.004 222L936.004 208L1283 249L1275 511.5C1275 511.5 1208.83 426.768 1147.5 408C1099.71 393.372 1057.64 375.681 1019.5 408C1009.24 416.696 1010.95 434.306 997.504 434.5C986.253 434.662 985.658 412.88 975.004 416.5C967.106 419.184 971.46 431.993 963.504 434.5C953.06 437.791 951.328 410.758 942.004 416.5C935.695 420.386 942.86 431.689 936.004 434.5C927.421 438.02 929.446 418.97 920.504 416.5C905.597 412.382 911.149 453.272 896.504 448C881.859 442.728 882.504 419 851.004 437.5C819.504 456 773.578 552.964 742.004 525.5Z" fill="#CFDFFA"/>
<path d="M742.004 525.5C710.43 498.036 702.594 477.324 699.504 434.5L669.004 222L936.004 208L1283 249L1275 511.5C1275 511.5 1208.83 426.768 1147.5 408C1099.71 393.372 1057.64 375.681 1019.5 408C1009.24 416.696 1010.95 434.306 997.504 434.5C986.253 434.662 985.658 412.88 975.004 416.5C967.106 419.184 971.46 431.993 963.504 434.5C953.06 437.791 951.328 410.758 942.004 416.5C935.695 420.386 942.86 431.689 936.004 434.5C927.421 438.02 929.446 418.97 920.504 416.5C905.597 412.382 911.149 453.272 896.504 448C881.859 442.728 882.504 419 851.004 437.5C819.504 456 773.578 552.964 742.004 525.5Z" fill="black" fill-opacity="0.2"/>
<path d="M742.004 505.5C710.43 478.036 702.594 457.324 699.504 414.5L669.004 14H1283L1275 491.5C1275 491.5 1208.83 406.768 1147.5 388C1099.71 373.372 1057.64 355.681 1019.5 388C1009.24 396.696 1010.95 414.306 997.504 414.5C986.253 414.662 985.658 392.88 975.004 396.5C967.106 399.184 971.46 411.993 963.504 414.5C953.06 417.791 951.328 390.758 942.004 396.5C935.695 400.386 942.86 411.689 936.004 414.5C927.421 418.02 929.446 398.97 920.504 396.5C905.597 392.383 911.149 433.272 896.504 428C881.859 422.728 882.504 399 851.004 417.5C819.504 436 773.578 532.964 742.004 505.5Z" fill="#CFDFFA"/>
<g clip-path="url(#clip0_111_15338)">
<path d="M1399.27 297.816C1397.95 298.466 1396.63 297.165 1395.31 297.816C1393.33 299.11 1391.35 301.056 1390.03 301.056C1328.61 306.234 1267.85 304.296 1206.43 310.125C1202.26 310.396 1197.74 311.59 1193.27 313.358C1189.86 314.704 1186.47 316.39 1183.29 318.259C1182.81 318.537 1182.34 318.821 1181.87 319.106C1181.52 319.017 1181.13 318.954 1180.74 318.941C1175.52 318.727 1170.31 317.874 1165.06 317.981C1159.83 318.089 1154.59 318.556 1149.37 318.941C1139.35 319.68 1129.34 320.426 1119.32 321.165C1098.88 322.674 1078.46 324.272 1058.02 325.705C1048.16 326.394 1038.28 326.918 1028.4 326.64C1018.71 326.369 1009.22 325.08 999.688 323.426C980.416 320.078 961.448 317.116 941.808 317.741C930.995 318.083 920.207 319.264 909.565 321.165C900.789 322.737 890.966 324.676 883.3 329.583C875.051 329.615 866.814 329.64 858.59 329.672C849.313 329.703 840.054 329.741 830.828 329.773C822.172 329.811 813.529 329.842 804.931 329.88C786.262 329.95 767.764 330.032 749.551 330.114C716.547 330.259 684.451 330.411 653.877 330.575C650.26 330.587 646.668 330.606 643.095 330.625C641.154 330.638 639.224 330.651 637.302 330.657H637.295C624.75 330.726 612.49 330.796 600.573 330.865C503.508 331.44 428.489 332.084 400.066 332.785C294.404 335.375 202.39 313.415 162.983 312.493C131.179 311.754 98.6123 310.554 68.8254 305.653C68.8191 305.647 68.8127 305.653 68.8127 305.653C66.0587 305.199 63.3364 304.712 60.6394 304.188C43.2141 300.841 26.8865 296.066 12.4182 289.176C-4.89931 280.934 -2.76714 265.694 10.5081 253.543C11.9486 252.217 13.5287 250.928 15.223 249.691C25.1604 242.453 39.248 236.901 55.3408 235.638C83.7696 233.409 157.52 227.055 228.148 224.415C232.945 224.232 237.85 224.112 242.825 224.03C246.106 223.98 249.425 223.948 252.763 223.935C253.436 223.929 254.115 223.929 254.787 223.929C255.174 223.923 255.568 223.923 255.955 223.923C259.197 223.923 262.459 223.929 265.734 223.948C273.932 223.999 282.207 224.119 290.418 224.258C290.634 224.264 290.85 224.27 291.066 224.27C294.08 224.321 297.082 224.378 300.077 224.441C301.333 224.466 302.583 224.485 303.84 224.51C307.571 224.58 311.277 224.655 314.938 224.719C315.548 224.731 316.15 224.744 316.76 224.75C318.924 224.788 321.075 224.826 323.207 224.858C323.423 224.858 323.645 224.864 323.86 224.864H323.867C325.377 224.889 326.875 224.908 328.366 224.927C342.111 225.11 355.05 225.129 366.504 224.719C376.619 224.371 385.573 223.683 392.858 222.483C393.74 222.338 394.603 222.192 395.434 222.028C396.253 221.87 397.078 221.573 397.991 221.169C399.248 220.613 400.657 219.856 402.408 218.99C408.678 215.896 419.294 211.462 442.767 210.155C477.541 208.21 498.019 206.485 497.797 201.3C497.581 196.121 494.612 192.351 497.137 187.703C499.441 183.465 517.259 179.916 541.938 177.137C545.181 176.77 548.544 176.417 552.002 176.076C554.141 175.867 556.324 175.659 558.532 175.463C562.225 175.135 566.014 174.813 569.872 174.503C605.903 171.68 648.07 170.126 678.752 170.025C713.063 169.912 747.388 170.24 781.705 170.43C858.787 170.846 919.617 179.499 996.21 180.231C997.378 180.244 998.552 180.257 999.732 180.263C1006.6 180.307 1013.48 180.484 1020.35 180.743C1056.76 182.113 1093.31 185.934 1129.65 186.174C1176.72 186.49 1222 185.631 1268.03 197.062C1293.97 203.504 1314.01 224.125 1340.5 227.876C1346.36 228.704 1352.14 229.916 1357.71 231.445C1359.36 231.893 1360.99 232.379 1362.61 232.885C1406.61 246.659 1436.22 279.721 1399.28 297.822L1399.27 297.816Z" fill="#CFDFFA"/>
<path d="M1020.34 180.743C1011.69 182.638 1003.03 184.488 994.358 186.269C962.661 192.762 930.792 198.723 898.689 202.942C882.577 205.064 866.428 206.77 850.233 208.203C834.014 209.637 817.737 211.708 802.114 216.376C787.442 220.759 773.095 226.79 757.878 229.228C742.026 231.773 725.92 231.306 709.923 230.87C694.09 230.434 678.099 230.693 662.362 232.569C646.389 234.47 630.696 238.057 615.397 242.927C614.242 243.293 613.772 241.537 614.902 241.146C631.775 235.348 649.156 231.186 666.791 228.287C684.064 225.451 701.394 224.927 718.889 225.015C735.204 225.098 751.005 224.283 766.99 220.917C774.618 219.312 782.125 217.203 789.727 215.498C797.5 213.755 805.312 212.372 813.168 211.083C829.127 208.462 845.303 206.927 861.332 204.742C877.247 202.582 893.118 200.214 908.931 197.454C938.166 192.351 967.236 186.661 996.192 180.231C997.359 180.244 998.533 180.257 999.713 180.263C1006.58 180.307 1013.46 180.484 1020.33 180.743H1020.34Z" fill="#DEEBFF"/>
<path d="M1213.01 190.759C1203.13 191.631 1193.61 193.936 1183.97 196.128C1174.56 198.262 1165.15 200.391 1155.74 202.532C1136.91 206.807 1118.1 211.089 1099.28 215.365C1080.67 219.597 1062.09 224.049 1043.3 227.396C1024.97 230.655 1006.47 232.209 987.942 233.902C967.998 235.72 947.869 239.011 928.832 245.257C927.518 245.686 928.064 247.714 929.409 247.303C947.171 241.948 965.263 240.735 983.665 239.232C1001.78 237.754 1019.92 236.762 1037.88 233.927C1056.46 230.99 1074.78 226.733 1093.12 222.615C1111.96 218.384 1130.79 214.159 1149.63 209.927C1160.32 207.521 1171.02 205.115 1181.72 202.709C1192.45 200.296 1203.2 198.225 1213.51 194.385C1215.32 193.709 1215.28 190.57 1213.01 190.766L1213.01 190.759Z" fill="#DEEBFF"/>
<path d="M605.554 218.485C597.013 219.9 588.103 219.78 579.467 219.881C570.868 219.982 562.264 220.19 553.665 220.601C537.731 221.352 521.968 223.14 506.174 225.331C490.931 227.441 475.727 229.165 460.307 228.565C437.817 227.687 415.379 223.335 392.877 222.502C393.759 222.357 394.622 222.211 395.453 222.047C396.272 221.889 397.097 221.592 398.011 221.188C399.267 220.632 400.676 219.875 402.427 219.009C408.157 219.293 413.888 219.786 419.592 220.386C434.803 221.99 450.001 224.005 465.326 224.201C481.229 224.409 496.903 222.016 512.596 219.849C527.946 217.721 543.328 216.414 558.818 215.845C574.143 215.296 590.356 214.102 605.548 216.635C606.481 216.792 606.481 218.327 605.548 218.479L605.554 218.485Z" fill="#DEEBFF"/>
<path d="M524.9 276.715C518.948 276.26 513.103 275.679 507.132 275.711C501.212 275.743 495.285 275.932 489.364 276.046C477.517 276.273 465.669 276.81 453.822 277.22C430.222 278.041 406.597 279.128 382.978 279.286C371.251 279.361 359.511 279.071 347.835 277.985C336.337 276.917 324.921 275.161 313.46 273.778C290.457 271.012 267.688 271.479 244.628 273.229C218.814 275.193 192.904 278.288 166.994 276.292C164.608 276.109 164.678 279.652 166.994 279.905C213.096 284.919 259.065 273.703 305.179 278.433C328.354 280.808 351.129 284.572 374.5 284.793C398.309 285.014 422.137 283.694 445.927 282.974C459.089 282.576 472.256 282.267 485.417 281.78C492.22 281.528 499.022 281.193 505.819 280.846C512.361 280.511 518.688 279.5 525.167 278.578C526.322 278.414 525.928 276.778 524.907 276.702L524.9 276.715Z" fill="#DEEBFF"/>
<path d="M638.641 271.593C633.533 270.475 627.949 270.557 622.726 270.305C617.04 270.027 611.361 269.762 605.675 269.49C594.545 268.96 583.338 268.536 572.252 267.406C560.982 266.256 550.924 262.574 540.276 259.057C530.116 255.697 519.43 253.935 508.795 252.848C496.598 251.611 484.332 251.39 472.085 251.181C469.756 251.143 469.762 254.667 472.085 254.724C493.831 255.255 515.864 255.842 536.811 262.189C546.723 265.189 556.331 268.745 566.687 269.989C577.646 271.309 588.757 271.126 599.767 271.612C606.107 271.89 612.446 272.181 618.785 272.465C625.201 272.755 632.08 273.614 638.457 272.837C639.123 272.755 639.415 271.757 638.628 271.587L638.641 271.593Z" fill="#DEEBFF"/>
<path d="M173.733 260.623C167.4 262.467 160.255 262.524 153.7 262.953C146.872 263.402 140.044 263.8 133.216 264.122C109.299 265.227 84.9755 265.783 61.179 262.707C49.4648 261.198 38.0298 258.634 26.4805 256.265C21.1882 255.179 15.8705 254.175 10.521 253.549C11.9615 252.223 13.5416 250.935 15.2359 249.697C19.8429 250.196 24.4435 250.992 28.9998 251.92C40.9742 254.352 52.828 256.745 64.9738 258.229C77.2147 259.732 89.5318 260.516 101.862 260.768C114.026 261.021 126.191 260.673 138.343 260.092C144.314 259.808 150.292 259.467 156.257 259.088C161.981 258.735 168.048 258.097 173.74 258.911C174.673 259.05 174.527 260.396 173.74 260.623H173.733Z" fill="#DEEBFF"/>
<path d="M134.231 299.995C122.479 302.357 110.009 301.668 98.0668 302.584C88.2944 303.336 78.541 304.302 68.8383 305.66C68.832 305.653 68.8256 305.66 68.8256 305.66C66.0716 305.205 63.3493 304.719 60.6523 304.194C72.5823 301.592 84.6329 299.439 96.7976 298.201C108.924 296.976 122.212 295.289 134.237 297.942C135.259 298.169 135.278 299.78 134.237 299.988L134.231 299.995Z" fill="#DEEBFF"/>
<path d="M1193.27 313.352C1189.86 314.697 1186.47 316.384 1183.29 318.253C1180.64 318.436 1177.97 318.588 1175.31 318.746C1164.53 319.396 1153.74 319.895 1142.96 320.255C1064.69 322.863 986.242 318.007 909.109 304.63C908.037 304.447 908.513 302.912 909.553 303.064C931.656 306.19 953.866 308.71 976.095 310.857C1014.33 314.539 1052.74 316.504 1091.16 316.769C1110.59 316.908 1130.02 316.579 1149.43 315.79C1158.93 315.398 1168.41 314.912 1177.89 314.299C1183.02 313.977 1188.14 313.586 1193.27 313.352Z" fill="#DEEBFF"/>
<path d="M1016.53 278.168C1007.12 276.197 996.801 277.012 987.212 276.823C977.548 276.633 967.889 276.444 958.231 276.26C938.667 275.881 919.11 275.275 899.552 274.707C862.506 273.627 825.167 272.945 788.292 277.277C767.504 279.721 746.886 283.631 726.809 289.504C724.721 290.117 725.597 293.287 727.71 292.713C763.601 283.031 801.016 279.715 838.132 278.85C875.94 277.972 913.843 278.736 951.638 279.677C962.616 279.949 973.594 280.239 984.572 280.517C989.839 280.65 995.113 280.789 1000.38 280.921C1005.77 281.06 1011.19 281.414 1016.52 280.549C1017.76 280.347 1017.7 278.401 1016.52 278.155L1016.53 278.168Z" fill="#DEEBFF"/>
<path d="M1362.6 232.885C1354.15 239.838 1344.04 244.739 1333.55 248.156C1319.67 252.684 1305.15 254.743 1290.84 257.465C1283.43 258.874 1276.03 260.389 1268.8 262.543C1265.38 263.56 1261.96 264.722 1258.95 266.648C1256.22 268.404 1254.48 270.791 1252.65 273.368C1249.04 278.414 1244.56 281.382 1238.5 283.006C1231.49 284.881 1224.13 285.841 1216.99 287.168C1201.27 290.079 1185.46 293.224 1169.56 294.986C1167.57 295.207 1167.28 292.132 1169.1 291.652C1186.26 287.123 1203.93 284.205 1221.38 280.953C1227.82 279.747 1235.12 279.191 1241.14 276.475C1247.13 273.778 1249.07 267.52 1253.97 263.604C1258.82 259.726 1265.04 257.926 1270.97 256.328C1278.06 254.427 1285.27 253.044 1292.51 251.794C1314.69 247.966 1339.2 244.714 1357.7 231.438C1359.35 231.887 1360.99 232.373 1362.6 232.878V232.885Z" fill="#DEEBFF"/>
</g>
<g clip-path="url(#clip1_111_15338)">
<path d="M1469.27 127.816C1467.95 128.466 1466.63 127.165 1465.31 127.816C1463.33 129.11 1461.35 131.056 1460.03 131.056C1398.61 136.234 1337.85 134.296 1276.43 140.125C1272.26 140.396 1267.74 141.59 1263.27 143.358C1259.86 144.704 1256.47 146.39 1253.29 148.259C1252.81 148.537 1252.34 148.821 1251.87 149.106C1251.52 149.017 1251.13 148.954 1250.74 148.941C1245.52 148.727 1240.31 147.874 1235.06 147.981C1229.83 148.089 1224.59 148.556 1219.37 148.941C1209.35 149.68 1199.34 150.426 1189.32 151.165C1168.88 152.674 1148.46 154.272 1128.02 155.705C1118.16 156.394 1108.28 156.918 1098.4 156.64C1088.71 156.369 1079.22 155.08 1069.69 153.426C1050.42 150.078 1031.45 147.116 1011.81 147.741C1001 148.083 990.207 149.264 979.565 151.165C970.789 152.737 960.966 154.676 953.3 159.583C945.051 159.615 936.814 159.64 928.59 159.672C919.313 159.703 910.054 159.741 900.828 159.773C892.172 159.811 883.529 159.842 874.931 159.88C856.262 159.95 837.764 160.032 819.551 160.114C786.547 160.259 754.451 160.411 723.877 160.575C720.26 160.587 716.668 160.606 713.095 160.625C711.154 160.638 709.224 160.651 707.302 160.657H707.295C694.75 160.726 682.49 160.796 670.573 160.865C573.508 161.44 498.489 162.084 470.066 162.785C364.404 165.375 272.39 143.415 232.983 142.493C201.179 141.754 168.612 140.554 138.825 135.653C138.819 135.647 138.813 135.653 138.813 135.653C136.059 135.199 133.336 134.712 130.639 134.188C113.214 130.841 96.8865 126.066 82.4182 119.176C65.1007 110.934 67.2329 95.6944 80.5081 83.5431C81.9486 82.2169 83.5287 80.9285 85.223 79.6906C95.1604 72.4529 109.248 66.9015 125.341 65.6383C153.77 63.4089 227.52 57.0554 298.148 54.4155C302.945 54.2323 307.85 54.1123 312.825 54.0302C316.106 53.9797 319.425 53.9481 322.763 53.9355C323.436 53.9292 324.115 53.9292 324.787 53.9292C325.174 53.9229 325.568 53.9229 325.955 53.9229C329.197 53.9229 332.459 53.9292 335.734 53.9481C343.932 53.9986 352.207 54.1186 360.418 54.2576C360.634 54.2639 360.85 54.2702 361.066 54.2702C364.08 54.3207 367.082 54.3776 370.077 54.4407C371.333 54.466 372.583 54.4849 373.84 54.5102C377.571 54.5797 381.277 54.6555 384.938 54.7186C385.548 54.7313 386.15 54.7439 386.76 54.7502C388.924 54.7881 391.075 54.826 393.207 54.8576C393.423 54.8576 393.645 54.8639 393.86 54.8639H393.867C395.377 54.8891 396.875 54.9081 398.366 54.927C412.111 55.1102 425.05 55.1291 436.504 54.7186C446.619 54.3713 455.573 53.6829 462.858 52.4829C463.74 52.3376 464.603 52.1924 465.434 52.0282C466.253 51.8703 467.078 51.5734 467.991 51.1692C469.248 50.6135 470.657 49.8556 472.408 48.9904C478.678 45.8957 489.294 41.4621 512.767 40.1548C547.541 38.2096 568.019 36.4854 567.797 31.3003C567.581 26.1215 564.612 22.351 567.137 17.7027C569.441 13.465 587.259 9.91557 611.938 7.1367C615.181 6.77039 618.544 6.41672 622.002 6.07567C624.141 5.86726 626.324 5.65884 628.532 5.46306C632.225 5.13464 636.014 4.81255 639.872 4.50308C675.903 1.68 718.07 0.126352 748.752 0.0253019C783.063 -0.0883793 817.388 0.240033 851.705 0.429502C928.787 0.846333 989.617 9.49874 1066.21 10.2314C1067.38 10.244 1068.55 10.2566 1069.73 10.2629C1076.6 10.3071 1083.48 10.484 1090.35 10.7429C1126.76 12.1134 1163.31 15.9344 1199.65 16.1744C1246.72 16.4901 1292 15.6312 1338.03 27.0625C1363.97 33.5044 1384.01 54.125 1410.5 57.8764C1416.36 58.7038 1422.14 59.9164 1427.71 61.4448C1429.36 61.8932 1430.99 62.3795 1432.61 62.8847C1476.61 76.6591 1506.22 109.721 1469.28 127.822L1469.27 127.816Z" fill="#CFDFFA"/>
<path d="M1090.34 10.7429C1081.69 12.6376 1073.03 14.4881 1064.36 16.2691C1032.66 22.7615 1000.79 28.7235 968.689 32.9423C952.577 35.0644 936.428 36.7696 920.233 38.2032C904.014 39.6369 887.737 41.7084 872.114 46.3757C857.442 50.7587 843.095 56.7901 827.878 59.228C812.026 61.7732 795.92 61.3058 779.923 60.87C764.09 60.4342 748.099 60.6932 732.362 62.5689C716.389 64.4699 700.696 68.0572 685.397 72.9266C684.242 73.2929 683.772 71.5371 684.902 71.1455C701.775 65.3478 719.156 61.1858 736.791 58.2869C754.064 55.4512 771.394 54.927 788.889 55.0154C805.204 55.0975 821.005 54.2828 836.99 50.9166C844.618 49.3124 852.125 47.203 859.727 45.4978C867.5 43.7547 875.312 42.3715 883.168 41.0832C899.127 38.4622 915.303 36.9275 931.332 34.7423C947.247 32.5823 963.118 30.214 978.931 27.454C1008.17 22.351 1037.24 16.6606 1066.19 10.2313C1067.36 10.244 1068.53 10.2566 1069.71 10.2629C1076.58 10.3071 1083.46 10.4839 1090.33 10.7429H1090.34Z" fill="#DEEBFF"/>
<path d="M1283.01 20.7595C1273.13 21.631 1263.61 23.9362 1253.97 26.1278C1244.56 28.2624 1235.15 30.3908 1225.74 32.5318C1206.91 36.8075 1188.1 41.0895 1169.28 45.3652C1150.67 49.5966 1132.09 54.0491 1113.3 57.3964C1094.97 60.6553 1076.47 62.2089 1057.94 63.9015C1038 65.7204 1017.87 69.0109 998.832 75.257C997.518 75.6865 998.064 77.7138 999.409 77.3033C1017.17 71.9476 1035.26 70.735 1053.67 69.2319C1071.78 67.754 1089.92 66.7625 1107.88 63.9268C1126.46 60.99 1144.78 56.7333 1163.12 52.6155C1181.96 48.384 1200.79 44.1589 1219.63 39.9274C1230.32 37.5211 1241.02 35.1149 1251.72 32.7086C1262.45 30.2961 1273.2 28.2245 1283.51 24.3846C1285.32 23.7089 1285.28 20.57 1283.01 20.7658L1283.01 20.7595Z" fill="#DEEBFF"/>
<path d="M675.554 48.4851C667.013 49.8998 658.103 49.7798 649.467 49.8808C640.868 49.9819 632.264 50.1903 623.665 50.6008C607.731 51.3524 591.968 53.1397 576.174 55.3312C560.931 57.4406 545.727 59.1648 530.307 58.5648C507.817 57.6869 485.379 53.3355 462.877 52.5018C463.759 52.3566 464.622 52.2113 465.453 52.0471C466.272 51.8892 467.097 51.5924 468.011 51.1882C469.267 50.6324 470.676 49.8745 472.427 49.0093C478.157 49.2935 483.888 49.7861 489.592 50.3861C504.803 51.9902 520.001 54.0049 535.326 54.2007C551.229 54.4091 566.903 52.0155 582.596 49.8493C597.946 47.7209 613.328 46.4135 628.818 45.8451C644.143 45.2957 660.356 44.102 675.548 46.6346C676.481 46.7925 676.481 48.3272 675.548 48.4788L675.554 48.4851Z" fill="#DEEBFF"/>
<path d="M594.9 106.715C588.948 106.26 583.103 105.679 577.132 105.711C571.212 105.743 565.285 105.932 559.364 106.046C547.517 106.273 535.669 106.81 523.822 107.22C500.222 108.041 476.597 109.128 452.978 109.286C441.251 109.361 429.511 109.071 417.835 107.985C406.337 106.917 394.921 105.161 383.46 103.778C360.457 101.012 337.688 101.479 314.628 103.229C288.814 105.193 262.904 108.288 236.994 106.292C234.608 106.109 234.678 109.652 236.994 109.905C283.096 114.919 329.065 103.703 375.179 108.433C398.354 110.808 421.129 114.572 444.5 114.793C468.309 115.014 492.137 113.694 515.927 112.974C529.089 112.576 542.256 112.267 555.417 111.78C562.22 111.528 569.022 111.193 575.819 110.846C582.361 110.511 588.688 109.5 595.167 108.578C596.322 108.414 595.928 106.778 594.907 106.702L594.9 106.715Z" fill="#DEEBFF"/>
<path d="M708.641 101.593C703.533 100.475 697.949 100.557 692.726 100.305C687.04 100.027 681.361 99.7617 675.675 99.4901C664.545 98.9596 653.338 98.5364 642.252 97.4059C630.982 96.2565 620.924 92.5745 610.276 89.0567C600.116 85.6968 589.43 83.9347 578.795 82.8484C566.598 81.6106 554.332 81.3895 542.085 81.1811C539.756 81.1432 539.762 84.6673 542.085 84.7242C563.831 85.2547 585.864 85.842 606.811 92.1892C616.723 95.1892 626.331 98.7449 636.687 99.989C647.646 101.309 658.757 101.126 669.767 101.612C676.107 101.89 682.446 102.181 688.785 102.465C695.201 102.755 702.08 103.614 708.457 102.837C709.123 102.755 709.415 101.757 708.628 101.587L708.641 101.593Z" fill="#DEEBFF"/>
<path d="M243.733 90.6229C237.4 92.4671 230.255 92.5239 223.7 92.9534C216.872 93.4018 210.044 93.7997 203.216 94.1218C179.299 95.227 154.976 95.7828 131.179 92.7071C119.465 91.1976 108.03 88.6335 96.4805 86.2651C91.1882 85.1789 85.8705 84.1747 80.521 83.5494C81.9615 82.2231 83.5416 80.9348 85.2359 79.6969C89.8429 80.1958 94.4435 80.9916 98.9998 81.92C110.974 84.3515 122.828 86.7451 134.974 88.2293C147.215 89.7324 159.532 90.5156 171.862 90.7682C184.026 91.0208 196.191 90.6735 208.343 90.0924C214.314 89.8082 220.292 89.4672 226.257 89.0882C231.981 88.7346 238.048 88.0967 243.74 88.9114C244.673 89.0503 244.527 90.3956 243.74 90.6229H243.733Z" fill="#DEEBFF"/>
<path d="M204.231 129.995C192.479 132.357 180.009 131.668 168.067 132.584C158.294 133.336 148.541 134.302 138.838 135.66C138.832 135.653 138.826 135.66 138.826 135.66C136.072 135.205 133.349 134.719 130.652 134.194C142.582 131.592 154.633 129.439 166.798 128.201C178.924 126.976 192.212 125.289 204.237 127.942C205.259 128.169 205.278 129.78 204.237 129.988L204.231 129.995Z" fill="#DEEBFF"/>
<path d="M1263.27 143.352C1259.86 144.697 1256.47 146.384 1253.29 148.253C1250.64 148.436 1247.97 148.588 1245.31 148.746C1234.53 149.396 1223.74 149.895 1212.96 150.255C1134.69 152.863 1056.24 148.007 979.109 134.63C978.037 134.447 978.513 132.912 979.553 133.064C1001.66 136.19 1023.87 138.71 1046.09 140.857C1084.33 144.539 1122.74 146.504 1161.16 146.769C1180.59 146.908 1200.02 146.579 1219.43 145.79C1228.93 145.398 1238.41 144.912 1247.89 144.299C1253.02 143.977 1258.14 143.586 1263.27 143.352Z" fill="#DEEBFF"/>
<path d="M1086.53 108.168C1077.12 106.197 1066.8 107.012 1057.21 106.823C1047.55 106.633 1037.89 106.444 1028.23 106.26C1008.67 105.881 989.11 105.275 969.552 104.707C932.506 103.627 895.167 102.945 858.292 107.277C837.504 109.721 816.886 113.631 796.809 119.504C794.721 120.117 795.597 123.287 797.71 122.713C833.601 113.031 871.016 109.715 908.132 108.85C945.94 107.972 983.843 108.736 1021.64 109.677C1032.62 109.949 1043.59 110.239 1054.57 110.517C1059.84 110.65 1065.11 110.789 1070.38 110.921C1075.77 111.06 1081.19 111.414 1086.52 110.549C1087.76 110.347 1087.7 108.401 1086.52 108.155L1086.53 108.168Z" fill="#DEEBFF"/>
<path d="M1432.6 62.8847C1424.15 69.8382 1414.04 74.7391 1403.55 78.1559C1389.67 82.6842 1375.15 84.7431 1360.84 87.4651C1353.43 88.8735 1346.03 90.3892 1338.8 92.5429C1335.38 93.5597 1331.96 94.7218 1328.95 96.648C1326.22 98.4038 1324.48 100.791 1322.65 103.368C1319.04 108.414 1314.56 111.382 1308.5 113.006C1301.49 114.881 1294.13 115.841 1286.99 117.168C1271.27 120.079 1255.46 123.224 1239.56 124.986C1237.57 125.207 1237.28 122.132 1239.1 121.652C1256.26 117.123 1273.93 114.205 1291.38 110.953C1297.82 109.747 1305.12 109.191 1311.14 106.475C1317.13 103.778 1319.07 97.5196 1323.97 93.6039C1328.82 89.7261 1335.04 87.9262 1340.97 86.3283C1348.06 84.4273 1355.27 83.0442 1362.51 81.7937C1384.69 77.9664 1409.2 74.7139 1427.7 61.4384C1429.35 61.8868 1430.99 62.3731 1432.6 62.8784V62.8847Z" fill="#DEEBFF"/>
</g>
<path d="M827.644 378.541L830.59 378.88L834.065 379.219C835.337 379.028 836.629 379.07 837.88 379.388H838.049C838.897 379.303 839.745 379.494 840.486 379.918L843.962 381.995L850.044 383.563L851.951 383.902C855.766 384.241 861.318 385.64 864.794 383.372L865.493 382.843L866.193 382.503H866.532C866.532 382.122 866.85 381.804 867.231 381.804H867.401L867.93 381.465H868.969C871.575 380.766 873.313 380.088 874.521 377.311C875.305 375.425 875.835 373.433 876.089 371.42C875.39 367.605 873.483 355.293 871.067 352.856C868.651 350.418 869.689 356.331 866.913 350.948C862.06 341.052 851.464 331.345 844.704 323.017C840.063 316.935 834.15 311.955 827.347 308.437C827.368 307.97 827.326 307.504 827.178 307.059C827.22 305.194 827.114 303.351 826.839 301.507C826.266 299.261 825.525 297.035 824.592 294.916C822.96 291.695 821.032 288.622 818.87 285.719C817.938 284.066 816.624 282.646 815.056 281.565C810.309 279.594 804.884 280.315 800.836 283.472C796.682 286.418 791.299 282.603 787.485 286.079C783.67 289.554 782.271 286.418 779.156 287.817C776.041 289.194 772.735 294.407 770.997 294.747C764.746 295.785 761.461 302.376 755.379 303.414C753.81 303.753 751.034 304.792 750.865 302.037C751.013 300.574 751.416 299.176 752.073 297.883C752.878 296.018 753.344 294.026 753.45 291.992C753.45 287.478 749.975 284.701 747.898 281.056C742.515 271.689 742.515 259.546 736.094 250.858C733.89 247.53 730.457 245.22 726.557 244.436C720.666 243.567 714.923 246.873 709.201 247.912C697.927 249.819 686.462 248.251 675.187 251.387C664.252 254.842 653.995 260.119 644.819 267.006C642.742 268.383 640.835 269.952 638.927 271.52L635.982 273.957C634.774 274.826 635.643 273.088 634.414 273.427C633.206 273.766 629.9 278.111 628.692 278.98C627.484 279.848 622.97 282.286 620.024 284.532C617.078 286.778 613.603 289.554 610.657 292.161L598.514 303.096C598.535 303.287 598.472 303.478 598.344 303.626C596.776 305.385 595.335 307.25 594 309.178V310.217L594.699 312.463L596.437 313.671C602.159 315.748 603.897 322.869 606.143 328.93L608.05 332.236C613.603 340.564 622.27 344.379 630.959 347.494C635.961 349.528 641.131 351.16 646.408 352.347L649.524 352.686C652.236 352.622 654.97 352.75 657.683 353.025L660.628 353.555H664.718L666.626 353.894C669.232 353.894 671.479 352.686 673.916 352.326C676.353 351.987 677.391 351.987 678.26 352.856C679.129 354.085 679.659 355.526 679.828 357.009C680.146 357.666 680.379 358.366 680.528 359.086C680.697 359.277 680.697 359.574 680.528 359.785V360.125C684.872 362.901 688.856 366.376 693.201 369.322C697.545 372.268 700.66 373.476 704.475 374.705C708.29 375.913 709.328 375.404 710.366 378.011C711.405 380.617 710.705 378.18 710.705 378.541V378.88C710.833 379.028 710.896 379.219 710.875 379.409C716.046 381.677 721.386 383.521 726.833 384.962C736.729 387.568 747.474 388.607 757.032 384.262C762.414 381.825 766.928 377.142 772.65 375.764C778.372 374.387 784.963 375.934 790.876 377.142C803.188 379.77 815.331 377.672 827.644 378.541Z" fill="#7497A4"/>
<path d="M900.524 346.095C897.409 344.357 897.218 339.165 893.594 337.237C889.97 335.308 882.828 338.445 880.582 334.122C879.438 331.981 878.102 329.947 876.598 328.039C875.432 326.386 874.034 324.924 872.444 323.695C870.918 321.766 869.096 320.071 867.061 318.672C863.416 316.066 860.004 313.162 856.825 310.005C856.995 309.835 856.825 309.305 856.656 309.136C855.766 308.076 854.77 307.08 853.71 306.19C853.71 306.084 853.625 306.021 853.541 306.021C853.562 305.83 853.498 305.639 853.371 305.491C850.87 302.715 847.798 300.511 844.343 299.07C843.39 297.968 842.521 296.823 841.737 295.594C839.13 291.61 837.053 286.926 834.107 283.112C831.162 279.297 827.686 275.822 823.872 274.783C820.057 273.745 816.242 278.428 813.466 280.505L810.521 282.942C813.021 284.044 815.374 285.507 817.45 287.287C820.481 290.656 822.685 294.704 823.872 299.091C826.118 306.211 827.178 316.447 831.501 323.038C833.747 324.776 836.523 325.984 838.96 327.552C841.398 329.12 845.382 334.312 847.628 338.826C849.429 342.408 851.782 345.671 854.558 348.532C857.504 351.647 866.701 352.516 868.969 356.331C871.215 360.146 873.652 369.512 875.898 370.911C876.619 367.245 878.145 363.812 880.412 360.845C885.795 355.123 899.316 353.915 904.529 348.172C904.847 348.002 901.032 346.455 900.524 346.095Z" fill="#6A8A94"/>
<path d="M823.13 268.362C823.13 268.362 823.3 268.532 823.3 268.362H823.469C824.147 270.142 824.571 272.007 824.677 273.915C824.571 274.974 824.741 276.055 825.207 277.03C825.546 277.517 826.034 277.878 826.585 278.068L831.438 281.184C831.438 281.353 831.607 281.184 831.607 281.184C836.121 286.905 837.499 294.895 843.92 298.879C848.54 301.401 852.63 304.813 855.893 308.945C859.009 312.93 861.785 317.104 865.091 321.088C868.397 325.073 871.512 328.718 875.157 332.893C878.802 337.046 891.814 335.669 894.929 340.013C901.52 349.719 904.635 348.342 904.466 348.172L908.45 349.74H908.62L915.91 352.177C920.911 353.301 926.04 353.83 931.168 353.746C938.289 353.746 944.879 353.216 951.47 349.931C957.15 346.964 962.66 343.658 967.958 340.034V338.466C967.258 334.652 967.089 330.138 966.05 326.493C961.536 318.164 957.023 309.666 950.093 303.753C940.026 295.255 927.184 296.993 915.21 298.54C912.265 298.879 908.789 300.108 905.674 299.578C902.559 299.049 899.952 295.594 897.875 292.649C895.374 289.088 891.306 286.969 886.94 286.927C884.27 286.99 881.6 287.223 878.95 287.626C877.17 287.923 875.327 287.859 873.568 287.456C871.682 286.694 869.923 285.634 868.354 284.341C862.823 280.124 857.97 275.08 853.944 269.422C849.96 264.463 844.916 260.436 839.194 257.618C833.642 254.503 827.75 252.765 821.837 255.88C821.668 255.88 821.668 256.05 821.668 256.219C821.604 259.398 821.732 262.598 822.007 265.756C822.431 267.154 822.431 267.684 823.13 268.362Z" fill="#7497A4"/>
<path d="M750.61 187.874C749.741 185.797 747.495 184.929 745.757 184.06C744.02 183.191 737.259 179.715 737.09 180.076C735.522 183.551 734.314 188.235 735.882 192.049C737.45 195.864 742.812 194.825 746.118 193.617C749.402 192.388 752.348 191.519 750.61 187.874Z" fill="#F7F8FC"/>
<path d="M945.791 300.129C942.315 294.577 935.385 294.047 931.91 288.325C928.434 282.603 912.137 274.614 901.033 269.231C899.125 268.701 897.388 267.854 895.48 267.154C891.708 265.459 888.381 262.895 885.774 259.695C876.577 249.289 863.904 229.686 857.843 227.419L845.869 222.735L843.093 222.206C837.371 220.468 832.327 216.823 826.775 214.916L826.436 214.576L825.398 214.047H824.529L809.779 207.117C801.98 203.472 793.821 197.411 785.323 196.711C782.78 196.754 780.258 196.33 777.864 195.503C775.977 194.571 774.176 193.469 772.481 192.197L759.638 183.191L757.731 184.759C757.964 189.803 759.214 194.762 761.376 199.339C762.711 201.819 764.216 204.192 765.89 206.46C767.967 210.274 767.797 214.089 767.797 218.433C767.797 229.369 774.558 234.561 783.246 238.206C788.46 240.283 793.482 242.359 797.827 246.365C801.344 249.904 804.523 253.718 807.363 257.809C812.576 265.099 817.938 272.389 825.588 276.203C826.118 276.373 826.288 275.674 826.288 275.504C826.161 270.418 825.037 265.417 822.982 260.754C821.774 258.317 823.851 259.186 830.78 262.831C831.12 263.001 831.31 262.301 831.31 261.962C831.31 261.623 830.971 258.847 832.179 258.148C833.387 257.448 836.693 260.394 837.732 261.623C838.77 262.831 840.847 266.476 842.585 268.553C844.322 270.63 850.574 274.444 854.389 277.581C858.203 280.717 862.717 286.948 866.532 291.631L872.254 298.921C874.33 301.698 873.822 301.528 877.107 301.528C877.509 301.189 877.594 300.574 877.276 300.151C876.068 298.434 875.072 296.569 874.33 294.598L884.736 297.544C888.211 298.413 894.103 298.921 895.501 302.927C896.9 306.932 895.501 305.703 895.84 307.61C895.819 308.182 896.01 308.733 896.37 309.178C897.939 311.425 901.923 310.916 903.83 310.386C906.797 309.348 909.637 308.013 912.328 306.402C915.888 304.559 919.788 303.435 923.772 303.096C931.062 302.566 938.352 303.965 945.642 301.358C945.981 301.337 945.981 300.468 945.791 300.129Z" fill="#F7F8FC"/>
<path d="M799.713 381.677C800.899 380.596 802.319 379.812 803.866 379.431C806.833 378.816 809.864 378.646 812.894 378.901H822.791C823.321 378.901 823.321 377.862 822.96 377.523C819.527 374.959 817.217 371.166 816.539 366.948C815.84 363.473 816.37 360.018 815.162 356.712C814.378 354.318 813 352.177 811.178 350.461C810.076 349.804 809.079 348.977 808.232 348.024C806.494 345.417 807.532 344.718 807.532 342.641C807.405 341.263 806.706 340.013 805.625 339.165C803.548 336.919 801.641 335.52 800.603 332.405L796.958 321.131C796.089 318.694 795.389 316.214 794.881 313.671L794.542 314.201L794.203 315.07C791.596 320.453 790.727 327.912 784.666 329.65L777.037 334.863C768.539 341.285 768.009 354.826 760.91 362.625C757.794 365.931 754.319 368.177 752.051 372.331C751.627 372.755 751.331 373.306 751.182 373.899L750.843 373.37H750.144L747.898 368.686C747.559 366.44 748.427 364.871 747.198 362.604C745.99 360.358 743.723 358.62 742.176 356.522C740.607 354.445 736.793 347.663 738.192 342.111C739.569 336.559 740.438 336.029 740.968 332.744C741.201 329.862 741.264 326.959 741.137 324.076C741.54 322.254 742.578 320.665 744.083 319.563C748.237 317.486 752.941 316.087 757.095 314.18L758.133 313.65L759.002 312.951C761.439 311.064 763.982 309.327 766.632 307.737L767.5 307.038L769.577 305.131L774.6 298.709C776.677 296.463 779.453 295.234 781.53 292.988C781.975 291.101 782.801 289.342 783.967 287.774C785.704 285.528 787.612 284.299 787.082 280.844C786.828 278.619 785.238 276.776 783.098 276.161C779.983 275.123 776.338 276.33 773.392 277.199C768.56 278.365 763.855 279.997 759.341 282.052C751.161 285.464 743.638 290.275 737.132 296.272C729.333 302.863 718.907 310.853 713.884 320.389C712.168 323.822 710.197 327.128 707.993 330.286L702.779 334.1C701.741 334.8 700.173 336.177 698.965 336.008C693.582 334.969 697.397 332.702 697.587 331.324C697.757 329.947 698.287 329.756 697.757 328.379C697.757 328.188 697.609 328.039 697.418 328.039C694.642 328.209 691.166 330.816 688.559 329.417C685.953 328.039 686.483 324.733 686.483 321.258C687.012 318.503 687.881 315.812 689.089 313.268C691.526 308.585 694.472 304.41 695.68 299.049C695.85 298.879 695.68 298.01 695.341 298.18C692.48 299.536 689.746 301.147 687.182 303.033C684.936 304.94 682.838 307.547 680.422 308.755C679.002 309.751 677.158 309.962 675.569 309.284C675.039 308.076 674.53 307.038 674.191 305.978C672.369 300.744 671.5 295.213 671.585 289.66C671.733 288.876 671.966 288.135 672.284 287.414C673.322 283.938 674.89 276.309 676.967 273.533C679.044 270.757 679.044 269.379 687.373 263.636C685.635 261.03 676.607 268.15 675.23 266.942C673.852 265.734 674.022 272.156 673.492 272.495C672.792 273.999 671.966 275.44 671.055 276.839C668.724 280.336 667.685 285.019 666.626 289.364C663.002 295.064 658.064 299.833 652.215 303.245C649.968 304.622 647.531 305.682 645.285 306.89C639.394 307.419 633.311 306.89 627.59 307.589C618.562 308.458 607.118 309.157 599.658 315.748C603.473 319.393 604.681 326.323 607.118 331.367C609.555 336.41 617.523 344.209 624.983 347.494L627.229 347.833L629.306 348.172C632.782 349.21 636.066 350.609 639.203 351.648L649.439 352.686C652.151 352.622 654.885 352.75 657.598 353.025C660.565 353.618 663.595 353.979 666.626 354.063C669.232 354.063 671.479 352.855 673.916 352.495C676.353 352.135 677.391 352.156 678.26 353.025C679.129 354.254 679.659 355.695 679.828 357.179C680.146 357.836 680.379 358.535 680.528 359.256C680.697 359.446 680.697 359.743 680.528 359.955V360.824L681.736 362.901C683.473 364.109 685.042 365.507 686.758 366.546L688.496 367.754C689.661 368.093 690.785 368.622 691.802 369.322C696.316 370.191 700.13 373.666 704.475 375.044C708.819 376.421 709.328 375.743 710.366 378.35C711.405 380.956 710.705 378.519 710.705 378.88V379.219C710.854 379.727 710.896 380.257 710.875 380.787C717.338 383.86 724.247 385.894 731.347 386.869C737.492 387.759 743.702 388.225 749.911 388.246H754.764C766.208 388.946 778.012 389.454 789.286 386.678C791.617 386.191 793.885 385.428 796.046 384.432L799.713 382.185V381.677Z" fill="#6A8A94"/>
<path d="M834.934 286.418C834.404 283.811 832.158 281.734 830.42 279.997C828.513 278.132 826.945 275.949 825.737 273.575C825.334 270.587 824.402 267.705 822.961 265.077C820.714 260.394 817.408 257.279 813.933 253.803C811.941 251.981 810.288 249.798 809.08 247.382C807.512 243.737 809.419 240.791 808.91 237.146C808.402 233.501 805.265 232.992 802.659 232.632C796.428 232.018 790.346 230.428 784.624 227.949C782.039 226.783 779.559 225.448 777.164 223.964C775.024 222.926 773.244 221.209 772.142 219.111C770.574 216.335 770.934 214.089 771.103 211.122C771.273 208.176 771.442 202.264 768.666 198.11C765.89 193.956 760.868 189.781 759.808 183.699C759.808 183.36 759.638 183.17 759.469 183.17C754.955 184.907 751.31 188.192 746.987 190.099C742.663 192.007 738.319 185.946 737.45 180.393C737.281 180.224 737.111 179.864 736.92 180.054C703.076 210.423 669.232 240.791 635.41 271.499C634.117 272.622 632.888 273.851 631.765 275.144C631.595 275.483 631.595 276.352 631.934 276.182H632.803C634.88 275.928 636.83 275.144 638.525 273.936C649.269 270.036 659.654 265.205 669.572 259.525C669.868 259.525 670.101 259.758 670.101 260.055C670.271 260.055 670.101 260.224 670.101 260.224V260.563C669.593 261.072 669.19 261.665 668.893 262.301C668.639 262.979 668.639 263.721 668.893 264.378C669.762 265.247 671.839 262.81 672.708 262.471C673.577 262.132 674.085 259.864 675.484 259.525L679.129 261.093C679.129 261.263 677.391 263.53 677.391 263.7C677.391 263.869 676.353 264.039 676.014 264.738C675.675 265.438 677.752 263.53 677.222 265.438C676.692 267.345 676.523 264.06 677.052 264.738C677.582 265.438 678.26 265.607 678.621 264.908C687.988 255.88 695.617 260.055 707.76 261.793C712.782 262.492 717.657 262.831 722.171 259.716C726.685 256.6 728.592 253.294 732.406 252.256H733.106C733.636 252.786 733.275 253.634 733.106 254.163C728.91 262.386 723.675 270.036 717.487 276.903H717.318C716.364 277.75 715.495 278.662 714.711 279.679L711.596 282.455C710.939 282.794 710.536 283.451 710.557 284.193C710.557 284.362 710.557 284.892 710.896 284.892C712.443 284.511 713.906 283.854 715.241 282.985L718.716 280.908L725.964 277.92H726.663L730.139 276.881C730.669 277.22 730.308 278.089 729.969 278.958C727.871 281.48 725.561 283.811 723.039 285.888C723.039 285.888 722.87 286.058 723.039 286.418C723.209 286.757 724.078 287.626 724.777 287.117C726.494 286.397 728.083 285.401 729.461 284.172L733.275 282.603C733.445 282.773 733.445 282.773 733.275 283.133V283.663C731.813 285.443 730.52 287.35 729.461 289.385C729.27 289.703 729.27 290.105 729.461 290.423L729.8 290.762H729.969C730.669 291.101 731.538 290.423 732.216 290.063C733.445 289.406 734.589 288.664 735.691 287.817C738.298 286.821 740.968 286.015 743.681 285.379C743.808 285.909 743.744 286.46 743.511 286.948C741.773 289.025 741.074 290.254 739.357 292.5C737.853 294.005 736.454 295.637 735.204 297.353C735.204 297.692 737.641 295.976 737.98 295.785C757.244 285.21 786.913 273.575 778.224 285.019C778.054 285.358 776.486 288.664 777.186 289.173C780.661 291.25 781.339 291.25 779.792 293.517C778.245 295.785 777.016 295.764 777.546 295.764C788.651 294.026 787.252 287.096 794.203 285.358L798.357 285.888C798.039 288.876 797.466 291.843 796.619 294.746C796.364 295.17 796.174 295.637 796.089 296.124C795.39 297.162 796.089 298.731 795.75 300.108C795.411 301.486 795.22 307.229 796.28 305.83C797.318 304.452 800.264 295.255 803.4 293.517C806.516 291.78 810.33 287.795 814.166 290.211C816.264 291.483 818.553 292.415 820.926 292.987C821.265 292.987 821.265 292.458 821.265 292.119C821.096 290.911 820.608 289.787 819.888 288.813C818.849 287.244 816.582 285.697 819.718 283.26C822.834 280.823 821.795 282.921 822.494 282.73C824.804 282.54 827.114 283.091 829.085 284.299C830.463 285.379 832.2 285.93 833.938 285.867C834.235 286.248 834.934 286.757 834.934 286.418Z" fill="#E1E2E8"/>
<path d="M833.197 265.777C832.328 263.34 829.891 262.132 827.983 261.093C826.373 260.479 824.932 259.462 823.83 258.148L822.452 256.94L821.414 256.24C821.244 256.071 821.244 256.41 821.244 256.579C821.922 258.762 822.982 260.818 824.359 262.662L824.698 263.361C824.698 263.53 824.868 263.53 825.038 263.361C825.207 263.191 825.377 263.022 825.207 262.662C825.038 262.301 825.038 262.492 825.038 262.322L823.999 259.377C824.571 260.14 825.271 260.797 826.076 261.284C828.64 262.428 830.95 264.081 832.836 266.137C833.197 266.646 833.197 265.946 833.197 265.777Z" fill="#7497A4"/>
<path d="M881.599 302.376C879.692 301.676 877.446 302.037 875.517 301.168C873.589 300.023 871.851 298.625 870.304 297.014C870.134 296.845 870.134 297.184 870.134 297.353C871.427 299.006 872.932 300.468 874.648 301.698C876.725 302.906 879.162 302.736 881.409 303.435C883.676 304.113 881.96 302.545 881.599 302.376Z" fill="#7497A4"/>
<path d="M781.148 199.149L780.449 197.58C780.279 197.241 780.279 196.711 780.11 196.372C780.025 195.991 779.771 195.673 779.411 195.504H778.711C778.372 195.504 778.181 195.504 778.012 195.164L776.444 194.465H776.274C776.274 194.635 776.105 194.804 776.274 194.804C776.677 196.203 777.609 197.39 778.881 198.11L780.449 200.017C780.788 200.357 780.979 200.547 781.318 200.187C781.657 199.848 781.318 199.318 781.148 199.149Z" fill="#7497A4"/>
<path d="M785.832 202.433C784.899 201.692 784.073 200.823 783.395 199.827C782.865 199.127 782.695 198.258 782.017 197.75C781.318 197.22 781.678 197.75 781.678 198.089C781.339 198.788 782.017 199.996 782.378 200.526C783.31 201.628 784.433 202.56 785.684 203.302C786.001 203.662 786.001 202.624 785.832 202.433Z" fill="#7497A4"/>
<path d="M784.094 203.832L782.716 202.454L783.755 204.192C784.094 204.531 784.094 204.001 784.094 203.832Z" fill="#7497A4"/>
<path d="M783.395 217.543C783.225 217.374 783.225 217.713 783.225 217.882C783.225 218.052 783.225 218.412 783.564 218.582C783.564 218.688 783.649 218.751 783.734 218.751C784.073 219.79 784.942 220.998 785.302 220.489C785.662 219.959 783.924 217.882 783.395 217.543Z" fill="#7497A4"/>
<path d="M786.001 219.281C785.662 218.942 785.472 219.98 785.832 220.319H786.001L786.87 221.697C787.04 221.867 787.209 221.867 787.209 221.527C787.209 221.188 786.701 219.959 786.001 219.281Z" fill="#7497A4"/>
<path d="M789.986 222.227C789.286 221.697 788.608 221.697 788.248 220.658C787.909 219.62 787.909 220.828 787.909 220.998C787.909 221.167 788.947 223.074 789.816 223.074C790.091 222.968 790.219 222.672 790.113 222.396C790.091 222.333 790.049 222.269 789.986 222.227Z" fill="#7497A4"/>
<path d="M835.973 261.771C834.871 259.016 832.582 256.897 829.721 256.049C829.551 256.049 829.551 256.579 829.721 256.749C830.06 257.766 830.463 258.741 830.929 259.694C831.395 260.924 831.692 262.195 831.798 263.509C831.967 263.848 832.137 263.679 832.328 263.509C832.476 262.513 832.37 261.496 831.988 260.563L832.328 261.093C832.328 261.093 832.497 261.432 832.497 261.263H832.836L833.366 261.962C833.536 262.132 833.705 261.793 833.705 261.432C833.641 260.669 833.345 259.928 832.836 259.355C833.853 260.394 834.722 261.559 835.443 262.831C835.803 263.17 836.142 262.132 835.973 261.771Z" fill="#7497A4"/>
<path d="M946.49 301.168C943.544 300.468 941.277 297.692 938.5 296.484C935.724 295.276 932.609 294.916 929.833 293.538H929.663C928.625 294.577 929.133 296.315 929.494 297.522C929.684 298.37 929.96 299.175 930.363 299.96L930.892 300.659C931.592 303.266 924.302 300.659 923.602 300.489L922.034 299.96L917.88 298.222C917.711 298.052 917.711 298.222 917.541 298.222L916.503 297.883C915.676 297.544 914.786 297.374 913.896 297.353L911.29 296.823C910.95 296.823 910.95 297.692 911.12 297.862L912.158 299.599C912.18 300.129 912.307 300.659 912.498 301.168C912.667 301.697 912.667 302.036 912.837 302.545C913.006 303.075 912.667 303.075 912.498 303.414C912.328 303.753 907.284 301.168 905.568 298.9C903.83 296.654 903.131 296.124 901.054 295.954C898.977 295.785 900.715 296.654 900.884 296.993L905.398 303.923C905.737 304.622 906.776 305.66 907.305 306.699L906.606 307.568C900.354 304.791 895.162 297.671 887.703 298.54V298.879L892.386 300.617C892.238 300.892 892.238 301.21 892.386 301.485L893.764 302.015C893.764 302.185 893.594 302.354 893.594 302.545C893.255 302.227 892.831 302.058 892.386 302.015C891.856 302.015 891.856 302.884 892.047 303.223L892.577 303.923C892.238 303.753 892.047 304.622 892.238 304.961C893.043 306.508 894.166 307.864 895.544 308.945C896.582 309.983 897.79 311.891 899.358 312.06L900.058 312.929C900.397 313.035 900.588 312.866 900.588 312.399C900.927 312.569 901.117 312.23 901.117 311.87C901.456 312.039 901.647 311.87 901.647 311.53C901.965 311.679 902.198 311.912 902.346 312.23C902.516 312.399 902.686 312.23 902.876 312.06L903.215 312.399C903.745 312.738 903.915 312.23 903.745 311.7C903.576 311.17 904.275 311.7 904.275 311.361L905.144 312.06L904.275 312.76C903.936 313.099 904.105 314.328 904.614 313.968C906.225 312.908 907.75 311.679 909.128 310.323C909.298 310.662 909.658 310.323 909.658 309.983H910.357L910.696 310.513C911.035 311.213 911.565 309.983 911.226 309.475C910.887 308.945 911.226 308.945 911.056 308.776L911.925 307.907H912.095C912.625 307.737 912.794 307.207 913.133 306.868H913.303C913.303 307.207 913.642 308.076 914.002 307.398C914.341 306.699 914.172 306.868 914.341 306.529C914.511 306.19 914.871 306.699 914.871 306.19V305.491C914.85 305.681 914.913 305.872 915.041 306.021C915.041 306.72 915.74 306.55 915.74 305.851V306.021C915.909 306.55 916.439 306.36 916.439 305.851C916.418 305.66 916.482 305.47 916.609 305.321C916.778 305.851 917.139 306.529 917.139 306.36C917.139 306.19 917.668 306.19 917.668 306.021C917.838 306.36 918.198 305.681 918.198 305.321C918.495 305.745 918.728 306.211 918.898 306.699C919.067 307.228 919.597 306.529 919.427 306.169V305.681L919.957 306.211C920.296 306.741 920.487 305.872 920.487 305.512H920.826C920.996 305.851 921.356 306.042 921.525 306.211C921.695 306.381 922.055 305.872 922.055 305.681V304.982C922.394 305.321 922.755 304.643 922.585 304.113L923.115 304.452L924.492 304.791C924.831 304.791 924.831 304.452 924.831 304.092H925.361L927.268 305.13C927.608 305.47 927.608 304.961 927.608 304.601C928.434 305.13 929.409 305.427 930.384 305.47C931.592 305.639 932.821 305.47 933.16 303.901C933.329 304.071 933.499 303.732 933.499 303.372L934.029 304.071C934.368 304.41 934.559 303.732 934.368 303.372V303.202L935.745 304.77H935.915L936.254 304.24C936.424 304.41 936.424 304.41 936.593 304.24V303.901H936.932C937.102 304.071 937.271 303.901 937.462 303.732L937.801 304.262H937.971C938.14 304.431 938.31 304.262 938.31 304.092C938.416 304.092 938.479 304.177 938.479 304.262C938.649 304.431 938.818 304.262 938.818 303.923L939.157 304.452C939.157 304.558 939.242 304.622 939.327 304.622H939.496C939.835 304.961 940.026 304.622 940.026 304.283H940.196C940.365 304.622 940.535 303.944 940.365 303.583C940.704 303.753 940.895 303.244 940.704 303.054H940.874C941.043 303.223 941.043 303.393 941.213 303.393C941.382 303.393 941.382 303.562 941.552 303.393C941.722 303.923 942.082 303.562 942.082 303.223C942.251 303.562 942.612 303.223 942.612 302.884V302.354H943.141C943.311 302.693 943.481 302.524 943.671 302.354L944.371 303.054C944.54 303.223 944.71 302.884 944.71 302.524C944.71 302.164 945.239 302.185 945.049 301.824L946.087 302.164C946.85 302.736 947.02 301.337 946.49 301.168ZM928.964 303.774L928.265 303.244C929.155 303.435 930.066 303.308 930.871 302.905C930.702 303.414 930.002 303.774 928.964 303.774Z" fill="#7497A4"/>
<path d="M801.959 279.657C801.62 278.45 800.921 277.92 799.713 278.45C798.505 278.979 799.543 279.318 798.335 280.187C797.127 281.056 798.166 279.318 798.335 278.11C798.823 276.542 798.886 274.868 798.505 273.257C798.505 272.918 798.335 272.558 797.975 272.728C797.615 272.897 795.728 276.034 795.199 278.11C794.203 282.391 791.829 286.248 788.438 289.046C785.62 291.504 782.399 293.432 778.902 294.767C776.528 295.848 774.706 297.84 773.879 300.32C773.71 300.489 773.879 301.189 774.049 300.85C774.218 300.511 776.126 297.544 777.694 296.696C778.944 295.997 780.301 295.467 781.678 295.128H781.487C781.318 295.467 781.487 296.696 782.017 296.505C783.14 295.764 784.369 295.17 785.662 294.767C788.608 294.767 786.87 295.297 787.739 296.844C788.862 298.773 789.795 300.807 790.515 302.926C790.685 303.096 791.045 303.456 791.215 303.096L794.16 299.112C793.503 302.672 793.44 306.296 793.991 309.878C793.991 310.577 794.69 310.916 794.86 310.047L796.936 296.866C797.106 295.827 797.466 294.619 797.636 293.39C798.102 292.564 798.526 291.695 798.844 290.783C799.713 288.537 800.221 286.1 801.09 283.854C801.959 281.565 802.489 280.865 801.959 279.657ZM794.499 306.19C794.224 303.859 794.415 301.507 795.029 299.26C795.029 299.599 795.199 299.96 795.368 299.79C795.538 299.599 794.86 304.113 794.499 306.19ZM791.723 299.96C791.024 300.998 790.515 300.828 790.346 299.43C789.943 298.836 789.583 298.201 789.307 297.522C788.777 296.484 788.777 294.217 788.099 293.538C787.803 293.072 787.273 292.818 786.722 292.839C787.697 292.415 788.629 291.907 789.498 291.271L791.935 289.024C792.062 289.173 792.274 289.173 792.422 289.046C792.444 289.046 792.444 289.024 792.444 289.024L793.313 288.495H793.652C793.821 288.664 793.991 288.834 794.181 288.664H794.521C794.69 288.664 794.69 288.834 794.86 288.664C795.029 288.495 795.559 288.834 795.728 288.325C795.728 288.156 795.898 288.156 795.898 287.986V288.325C795.517 289.809 795.22 291.313 795.029 292.839C795.029 293.178 795.368 293.877 795.559 293.708V294.577C794.902 296.124 793.97 297.544 792.783 298.73C792.571 299.239 792.211 299.684 791.723 299.96Z" fill="#7497A4"/>
<path d="M801.79 273.406C801.641 272.495 801.578 271.562 801.62 270.63C801.62 270.291 801.79 269.931 801.62 269.591C801.45 269.252 800.582 269.422 800.412 269.931C800.2 271.138 800.094 272.346 800.073 273.576C800.094 273.766 800.031 273.957 799.903 274.105C799.522 274.911 799.416 275.822 799.564 276.712C799.734 277.411 800.264 277.581 800.772 277.242C801.111 277.411 801.472 277.072 801.811 276.542C802.044 275.504 802.044 274.423 801.79 273.406Z" fill="#7497A4"/>
<path d="M964.546 332.914C962.469 330.307 959.862 328.929 958.124 325.793C956.069 322.402 953.483 319.372 950.495 316.765C946.85 313.65 942.696 312.251 938.691 309.644H938.522C938.352 309.475 938.352 309.814 938.352 309.984V310.323C940.111 312.696 941.637 315.26 942.866 317.952C943.036 318.482 943.036 318.99 943.205 319.52C943.375 320.05 944.413 321.597 944.943 322.996C945.473 324.373 944.413 330.985 944.243 334.63C944.01 336.665 944.138 338.72 944.583 340.712C945.112 342.789 947.02 346.964 949.266 346.794C951.512 346.625 953.081 344.018 954.479 343.149C956.387 342.217 958.23 341.178 960.032 340.034C961.6 338.996 965.754 337.957 965.584 335.181C965.542 334.312 965.16 333.507 964.546 332.914Z" fill="#6A8A94"/>
<path d="M769.874 216.674C762.754 221.527 758.939 207.646 754.425 204.001C754.086 203.662 753.217 203.302 752.857 202.793C752.497 202.285 753.026 198.11 754.065 196.711C755.103 195.334 755.972 194.973 756.502 193.765C756.777 193.214 757.011 192.621 757.201 192.028C757.731 189.252 757.54 186.306 759.109 183.699C760.677 181.093 759.278 182.83 758.939 183C749.954 187.196 741.35 192.176 733.254 197.919C726.324 202.772 718.335 207.286 713.482 214.915H713.312C708.565 220.192 703.267 224.96 697.524 229.135C696.465 230.428 694.875 231.191 693.18 231.212C692.184 231.636 691.124 231.869 690.064 231.911C689.598 231.827 689.28 231.382 689.365 230.894C689.365 230.873 689.365 230.873 689.365 230.852V229.813C689.365 229.644 689.196 229.114 688.835 229.284C686.25 230.513 683.58 231.551 680.846 232.399L681.185 231.7L685 227.885L688.814 225.278L691.421 223.371H691.76L692.099 222.841C692.099 222.672 691.929 222.672 691.929 222.502H689.853L689.153 222.841L688.623 223.18L687.585 224.049C684.47 225.978 681.651 228.394 679.256 231.17C669.72 237.421 661.391 245.58 653.232 253.909C648.718 258.253 644.374 262.577 639.691 266.582C635.007 270.566 634.477 270.566 632.061 272.834C630.726 273.639 629.879 275.08 629.815 276.648C629.646 276.818 629.815 277.517 630.154 277.517C643.505 274.571 658.255 270.587 668.851 260.521L667.113 264.675C667.113 264.844 667.113 265.374 667.452 265.543C668.597 265.925 669.868 265.671 670.758 264.844C671.839 263.954 672.814 262.958 673.704 261.898C675.272 260.161 678.557 259.122 676.819 262.937L675.251 265.713C674.043 267.79 677.158 267.62 678.727 266.243L679.256 265.904L680.634 265.565C685.847 263.318 691.209 262.788 698.16 262.449C705.111 262.11 708.926 263.149 714.287 262.449C719.67 261.75 722.616 259.673 726.261 256.198C729.906 252.722 735.797 251.853 739.273 247.7C742.748 243.546 744.995 239.371 749.17 236.065C756.46 230.343 765.297 226.529 770.171 217.67C770.383 217.352 770.213 216.314 769.874 216.674Z" fill="#CBD0E8"/>
<path d="M743.85 259.694C738.828 264.908 734.992 271.668 728.761 274.953C725.985 276.521 723.039 277.39 720.263 278.937C720.094 278.937 720.094 278.937 720.094 279.107C718.865 279.446 717.699 279.975 716.618 280.675C714.711 281.883 713.503 283.62 711.596 284.659C709.688 285.697 711.257 285.528 711.596 285.697C715.58 285.867 719.543 285.146 723.23 283.62C726.006 282.582 730.351 281.014 732.428 278.407C734.504 275.801 736.942 271.287 739.548 268.171C742.155 265.056 743.702 263.657 744.401 260.373C744.359 260.034 744.189 259.355 743.85 259.694Z" fill="#CBD0E8"/>
<path d="M806.303 233.332C801.45 230.555 794.33 230.026 788.778 229.347H788.608L786.531 228.479C784.963 227.779 783.056 226.402 781.509 226.571C779.94 226.741 777.355 229.687 775.956 231.954C773.498 236.171 770.531 240.092 767.098 243.589C764.152 246.895 760.338 248.971 757.201 252.087C751.31 257.809 748.873 266.667 743.659 273.088C738.446 279.509 733.424 281.247 730.308 286.969H730.139C728.931 288.007 728.062 289.915 729.8 290.953C731.537 291.992 732.745 290.254 733.784 289.745C736.518 288.219 739.527 287.287 742.642 286.969C741.519 288.495 740.311 289.936 738.997 291.313C737.535 292.373 736.136 293.539 734.843 294.789C733.975 295.997 733.805 296.696 734.504 297.904H734.843C739.696 294.598 745.418 293.39 750.632 290.614C755.23 287.923 760.105 285.761 765.212 284.193L771.103 282.286H771.273C771.972 282.116 776.126 281.247 778.033 281.946C778.309 283.091 778.309 284.278 778.033 285.422C777.864 286.121 777.164 286.799 776.995 287.668C776.571 288.474 776.571 289.449 776.995 290.275H777.334C779.411 289.936 780.64 287.16 781.848 285.592C783.691 283.324 785.005 280.654 785.662 277.793C786.362 273.279 786.192 268.934 787.231 264.442L787.76 261.666C790.325 256.834 793.397 252.299 796.958 248.124C798.992 245.793 801.387 243.801 804.078 242.232C805.604 241.533 806.876 240.367 807.723 238.926C808.91 237.189 808.486 234.815 806.749 233.628C806.579 233.48 806.452 233.395 806.303 233.332Z" fill="#CBD0E8"/>
<path d="M799.713 368.834C799.882 371.271 800.243 373.687 800.582 375.955C800.921 378.201 800.751 377.163 800.751 377.693C800.9 378.901 800.963 380.109 800.921 381.338C801.896 381.444 802.807 381.868 803.527 382.546H804.227L805.435 381.846L807.681 380.638C814.102 378.032 820.693 379.769 827.453 380.469H829.022C830.759 379.854 832.561 379.515 834.404 379.43C833.069 377.714 831.48 376.188 829.721 374.916C827.792 372.988 826.055 370.911 824.508 368.665C823.279 367.33 821.88 366.164 820.354 365.189H819.655C817.917 365.889 817.048 364.49 816.709 361.375C816.455 360.463 816.285 359.531 816.179 358.598C815.586 356.522 814.59 354.572 813.233 352.877C810.796 349.401 808.719 347.854 807.851 343.34C807.681 342.026 807.342 340.733 806.812 339.525C805.965 338.572 805.053 337.703 804.036 336.919C802.192 335.202 800.836 333.062 800.052 330.667C799.882 330.137 799.353 330.667 799.353 331.006C799.543 336.092 799.013 341.157 797.784 346.095C797.17 348.638 797.339 351.308 798.314 353.724C799.713 358.429 799.183 363.621 799.713 368.834Z" fill="#5B8282"/>
<path d="M627.25 347.833L629.327 348.172C632.803 349.211 636.088 350.609 639.224 351.648L649.46 352.686C652.172 352.622 654.906 352.75 657.619 353.025C660.586 353.618 663.616 353.979 666.647 354.064C669.253 354.064 671.5 352.856 673.937 352.495C675.272 352.305 676.628 352.347 677.921 352.665C679.659 349.189 680.867 345.036 682.265 341.73C683.643 338.424 684.872 336.877 684.342 334.44C683.812 332.002 681.905 330.964 681.396 328.718C680.867 326.471 681.396 325.242 680.019 324.034C678.642 322.826 675.314 323.886 673.407 324.755C667.685 327.361 663.002 331.685 658.149 336.029C653.296 340.373 644.268 347.833 635.6 345.735C631.955 344.866 628.84 343.489 625.025 343.489L618.604 344.188C620.66 345.459 622.8 346.561 625.025 347.494L627.25 347.833Z" fill="#5B8282"/>
<path d="M680.506 359.976V360.845C680.973 361.502 681.375 362.201 681.714 362.922C683.961 366.397 687.267 367.075 690.212 368.474C693.158 369.852 689.513 363.96 689.004 362.922C687.881 360.718 687.012 358.387 686.398 355.992C686.228 355.293 686.228 354.085 685.529 354.085C684.83 354.085 683.622 355.653 683.283 356.161C682.583 357.539 681.651 358.768 680.506 359.807V359.976Z" fill="#5B8282"/>
<path d="M859.559 314.688H859.39L859.729 315.027C859.941 315.345 860.11 315.706 860.259 316.066C865.811 325.772 872.932 335.499 883.506 337.936C886.622 338.635 890.097 338.275 893.043 339.674C895.989 341.073 896.518 344.527 898.934 346.265C901.371 348.002 903.787 348.002 906.224 349.21C908.662 350.418 911.247 351.287 913.854 352.326L918.707 353.703L922.691 354.402L924.429 354.742C930.49 355.356 936.572 355.526 942.654 355.271C946.426 354.339 950.05 352.877 953.42 350.927C956.323 349.21 959.12 347.303 961.748 345.205C963.655 343.828 966.601 342.259 968 340.352V338.784C967.83 337.915 967.83 336.877 967.661 335.838C966.877 335.075 965.923 334.482 964.885 334.1C964.715 333.931 964.545 334.27 964.545 334.439C964.206 337.915 959.332 340.331 956.916 341.899C954.649 343.34 952.254 344.612 949.796 345.714C948.672 346.138 947.507 346.434 946.32 346.583C943.714 346.053 941.976 343.806 939.899 341.369C937.822 338.932 936.084 339.123 933.647 337.724C931.21 336.347 929.133 333.571 926.527 332.002C923.793 330.455 920.784 329.396 917.668 328.887C916.969 328.718 917.138 329.925 917.499 330.265C923.051 333.74 927.396 338.932 931.909 343.806C923.92 343.806 919.766 333.401 912.815 330.455L906.733 328.209C904.826 327.128 902.855 326.132 900.842 325.263C896.9 324.14 892.767 323.78 888.699 324.225C888.508 324.288 888.423 324.479 888.487 324.67C888.487 324.691 888.508 324.733 888.529 324.755C888.699 325.454 888.529 325.623 888.868 325.793C888.699 325.793 888.699 325.963 888.868 326.132C889.038 326.302 893.382 327.001 895.798 327.7C898.426 328.802 900.757 330.519 902.558 332.723C904.021 334.079 905.716 335.139 907.581 335.838C908.852 336.326 910.081 336.982 911.226 337.745C912.285 338.318 913.197 339.144 913.832 340.183C914.638 340.691 914.892 341.772 914.383 342.577C914.383 342.598 914.362 342.598 914.362 342.62C914.193 342.45 914.023 342.62 914.023 342.959C910.463 341.878 907.115 340.183 904.126 337.936C900.905 335.224 897.197 333.168 893.191 331.854C888.338 330.476 883.295 330.476 878.611 328.039C873.928 325.602 870.452 322.487 866.298 319.541C862.145 316.596 859.708 313.65 857.271 311.213L858.478 313.459C858.839 313.925 859.199 314.328 859.559 314.688Z" fill="#5B8282"/>
<path d="M607.118 331.346C609.11 335.478 612.014 339.102 615.616 341.92H615.955C619.6 341.751 622.377 340.882 626.022 341.391C626.361 341.56 626.551 340.691 626.361 340.522C624.983 337.407 621.338 336.538 618.731 334.8C616.125 333.062 614.048 331.854 611.971 330.286C610.594 328.993 609.004 327.934 607.288 327.171C606.673 326.916 605.995 326.916 605.38 327.171L607.118 331.346Z" fill="#5B8282"/>
<path d="M830.59 367.796C832.688 371.907 835.189 375.807 838.05 379.431C838.897 379.325 839.745 379.515 840.487 379.96C842.034 380.956 843.665 381.825 845.34 382.567C847.48 383.288 849.684 383.733 851.93 383.944C855.745 384.284 861.297 385.682 864.773 383.415L865.472 382.885L866.172 382.546L867.04 381.846C866.701 376.993 862.018 373.179 857.673 371.441C855.66 370.678 853.562 370.148 851.422 369.873C848.476 369.534 845.869 370.042 843.093 369.174C840.317 368.305 835.295 364.49 830.611 365.528L830.272 366.058V367.626L830.59 367.796Z" fill="#5B8282"/>
<path d="M729.8 391.913L733.275 391.383C735.882 391.383 738.298 392.082 740.905 391.913C744.274 391.637 747.559 390.768 750.611 389.306L753.917 387.929C753.683 387.039 753.281 386.212 752.709 385.492C750.632 382.715 747.495 381.677 745.588 378.731C743.681 375.786 743.151 371.441 742.282 367.626C741.837 365.868 740.947 364.236 739.675 362.943C737.259 360.718 735.458 357.92 734.462 354.784C734.462 351.309 734.801 344.887 732.555 343.51C730.308 342.132 726.134 349.761 725.265 351.669C722.658 357.391 720.581 363.473 717.466 368.856C714.351 374.238 710.176 376.654 711.045 381.338C711.914 386.021 716.067 386.721 719.204 387.229C722.319 387.759 724.756 389.836 727.702 391.044L729.8 391.913Z" fill="#5B8282"/>
<path d="M847.247 222.905H846.717L843.072 222.206C837.35 220.468 832.306 216.823 826.754 214.915L826.224 214.386L825.185 214.047H824.656L824.317 213.517H821.879C819.612 213.623 817.387 214.089 815.289 214.894C812.385 215.89 809.334 216.293 806.261 216.102C806.091 216.102 806.091 216.441 806.091 216.441C806.091 216.441 806.261 216.611 806.261 216.78C808.952 219.048 812.301 220.447 815.797 220.764C821.223 221.252 826.605 222.057 831.925 223.202C836.947 224.367 842.182 224.304 847.183 223.032L847.247 222.905Z" fill="#CBD0E8"/>
<path d="M885.774 259.695C882.468 257.448 879.353 253.443 875.877 251.705C868.418 248.23 860.259 245.814 852.63 243.038C852.1 242.868 852.1 243.737 852.291 244.076C854.367 247.891 858.881 250.667 862.187 253.273C865.811 256.389 869.838 259.017 874.161 261.072C880.964 264.103 888.148 266.201 895.501 267.324C891.729 265.523 888.402 262.916 885.774 259.695Z" fill="#CBD0E8"/>
<path d="M905.716 274.974C905.016 273.936 903.279 274.105 902.41 273.766C901.541 273.427 898.765 272.029 896.857 271.329C894.95 270.63 889.059 269.761 885.223 268.383C881.408 267.006 878.463 267.345 875.326 266.307C874.351 266.01 873.419 265.607 872.55 265.099C871.596 264.018 870.177 263.446 868.735 263.53C868.566 263.53 868.566 263.87 868.566 264.06C868.566 267.006 871.173 268.405 873.249 269.952C876.767 272.474 880.412 274.784 884.185 276.882C887.66 278.958 890.945 280.696 894.95 280.696C898.956 280.696 903.618 279.997 905.525 277.39C906.118 276.712 906.182 275.737 905.716 274.974Z" fill="#CBD0E8"/>
<path d="M896.879 289.024C894.971 287.647 893.573 285.379 891.666 284.002C889.758 282.624 886.812 282.624 884.736 280.696C884.736 280.505 884.587 280.357 884.397 280.357C884.227 280.526 884.227 280.526 884.227 280.887C884.566 284.532 887.003 285.231 889.61 286.778C892.216 288.346 893.424 290.932 895.692 292.33C897.938 293.708 898.468 293.369 899.168 292.33C899.825 291.271 897.917 289.703 896.879 289.024Z" fill="#CBD0E8"/>
<path d="M1154.36 248.541L1151.41 248.88L1147.93 249.219C1146.66 249.028 1145.37 249.07 1144.12 249.388H1143.95C1143.1 249.303 1142.26 249.494 1141.51 249.918L1138.04 251.995L1131.96 253.563L1130.05 253.902C1126.23 254.241 1120.68 255.64 1117.21 253.372L1116.51 252.843L1115.81 252.503H1115.47C1115.47 252.122 1115.15 251.804 1114.77 251.804H1114.6L1114.07 251.465H1113.03C1110.42 250.766 1108.69 250.088 1107.48 247.311C1106.69 245.425 1106.16 243.433 1105.91 241.42C1106.61 237.605 1108.52 225.293 1110.93 222.856C1113.35 220.418 1112.31 226.331 1115.09 220.948C1119.94 211.052 1130.54 201.345 1137.3 193.017C1141.94 186.935 1147.85 181.955 1154.65 178.437C1154.63 177.97 1154.67 177.504 1154.82 177.059C1154.78 175.194 1154.89 173.351 1155.16 171.507C1155.73 169.261 1156.48 167.035 1157.41 164.916C1159.04 161.695 1160.97 158.622 1163.13 155.719C1164.06 154.066 1165.38 152.646 1166.94 151.565C1171.69 149.594 1177.12 150.315 1181.16 153.472C1185.32 156.418 1190.7 152.603 1194.52 156.079C1198.33 159.554 1199.73 156.418 1202.84 157.817C1205.96 159.194 1209.27 164.407 1211 164.747C1217.25 165.785 1220.54 172.376 1226.62 173.414C1228.19 173.753 1230.97 174.792 1231.14 172.037C1230.99 170.574 1230.58 169.176 1229.93 167.883C1229.12 166.018 1228.66 164.026 1228.55 161.992C1228.55 157.478 1232.03 154.701 1234.1 151.056C1239.49 141.689 1239.49 129.546 1245.91 120.858C1248.11 117.53 1251.54 115.22 1255.44 114.436C1261.33 113.567 1267.08 116.873 1272.8 117.912C1284.07 119.819 1295.54 118.251 1306.81 121.387C1317.75 124.842 1328 130.119 1337.18 137.006C1339.26 138.383 1341.17 139.952 1343.07 141.52L1346.02 143.957C1347.23 144.826 1346.36 143.088 1347.59 143.427C1348.79 143.766 1352.1 148.111 1353.31 148.98C1354.52 149.848 1359.03 152.286 1361.98 154.532C1364.92 156.778 1368.4 159.554 1371.34 162.161L1383.49 173.096C1383.46 173.287 1383.53 173.478 1383.66 173.626C1385.22 175.385 1386.66 177.25 1388 179.178V180.217L1387.3 182.463L1385.56 183.671C1379.84 185.748 1378.1 192.869 1375.86 198.93L1373.95 202.236C1368.4 210.564 1359.73 214.379 1351.04 217.494C1346.04 219.528 1340.87 221.16 1335.59 222.347L1332.48 222.686C1329.76 222.622 1327.03 222.75 1324.32 223.025L1321.37 223.555H1317.28L1315.37 223.894C1312.77 223.894 1310.52 222.686 1308.08 222.326C1305.65 221.987 1304.61 221.987 1303.74 222.856C1302.87 224.085 1302.34 225.526 1302.17 227.009C1301.85 227.666 1301.62 228.366 1301.47 229.086C1301.3 229.277 1301.3 229.574 1301.47 229.785V230.125C1297.13 232.901 1293.14 236.376 1288.8 239.322C1284.45 242.268 1281.34 243.476 1277.53 244.705C1273.71 245.913 1272.67 245.404 1271.63 248.011C1270.6 250.617 1271.29 248.18 1271.29 248.541V248.88C1271.17 249.028 1271.1 249.219 1271.13 249.409C1265.95 251.677 1260.61 253.521 1255.17 254.962C1245.27 257.568 1234.53 258.607 1224.97 254.262C1219.59 251.825 1215.07 247.142 1209.35 245.764C1203.63 244.387 1197.04 245.934 1191.12 247.142C1178.81 249.77 1166.67 247.672 1154.36 248.541Z" fill="#7497A4"/>
<path d="M1081.48 216.095C1084.59 214.357 1084.78 209.165 1088.41 207.237C1092.03 205.308 1099.17 208.445 1101.42 204.122C1102.56 201.981 1103.9 199.947 1105.4 198.039C1106.57 196.386 1107.97 194.924 1109.56 193.695C1111.08 191.766 1112.9 190.071 1114.94 188.672C1118.58 186.066 1122 183.162 1125.17 180.005C1125.01 179.835 1125.17 179.305 1125.34 179.136C1126.23 178.076 1127.23 177.08 1128.29 176.19C1128.29 176.084 1128.37 176.021 1128.46 176.021C1128.44 175.83 1128.5 175.639 1128.63 175.491C1131.13 172.715 1134.2 170.511 1137.66 169.07C1138.61 167.968 1139.48 166.823 1140.26 165.594C1142.87 161.61 1144.95 156.926 1147.89 153.112C1150.84 149.297 1154.31 145.822 1158.13 144.783C1161.94 143.745 1165.76 148.428 1168.53 150.505L1171.48 152.942C1168.98 154.044 1166.63 155.507 1164.55 157.287C1161.52 160.656 1159.32 164.704 1158.13 169.091C1155.88 176.211 1154.82 186.447 1150.5 193.038C1148.25 194.776 1145.48 195.984 1143.04 197.552C1140.6 199.12 1136.62 204.312 1134.37 208.826C1132.57 212.408 1130.22 215.671 1127.44 218.532C1124.5 221.647 1115.3 222.516 1113.03 226.331C1110.79 230.146 1108.35 239.512 1106.1 240.911C1105.38 237.245 1103.86 233.812 1101.59 230.845C1096.2 225.123 1082.68 223.915 1077.47 218.172C1077.15 218.002 1080.97 216.455 1081.48 216.095Z" fill="#6A8A94"/>
<path d="M1158.87 138.362C1158.87 138.362 1158.7 138.532 1158.7 138.362H1158.53C1157.85 140.142 1157.43 142.007 1157.32 143.915C1157.43 144.974 1157.26 146.055 1156.79 147.03C1156.45 147.517 1155.97 147.878 1155.42 148.068L1150.56 151.184C1150.56 151.353 1150.39 151.184 1150.39 151.184C1145.88 156.905 1144.5 164.895 1138.08 168.879C1133.46 171.401 1129.37 174.813 1126.11 178.945C1122.99 182.93 1120.22 187.104 1116.91 191.088C1113.6 195.073 1110.49 198.718 1106.84 202.893C1103.2 207.046 1090.19 205.669 1087.07 210.013C1080.48 219.719 1077.36 218.342 1077.53 218.172L1073.55 219.74H1073.38L1066.09 222.177C1061.09 223.301 1055.96 223.83 1050.83 223.746C1043.71 223.746 1037.12 223.216 1030.53 219.931C1024.85 216.964 1019.34 213.658 1014.04 210.034V208.466C1014.74 204.652 1014.91 200.138 1015.95 196.493C1020.46 188.164 1024.98 179.666 1031.91 173.753C1041.97 165.255 1054.82 166.993 1066.79 168.54C1069.74 168.879 1073.21 170.108 1076.33 169.578C1079.44 169.049 1082.05 165.594 1084.12 162.649C1086.63 159.088 1090.69 156.969 1095.06 156.927C1097.73 156.99 1100.4 157.223 1103.05 157.626C1104.83 157.923 1106.67 157.859 1108.43 157.456C1110.32 156.694 1112.08 155.634 1113.65 154.341C1119.18 150.124 1124.03 145.08 1128.06 139.422C1132.04 134.463 1137.08 130.436 1142.81 127.618C1148.36 124.503 1154.25 122.765 1160.16 125.88C1160.33 125.88 1160.33 126.05 1160.33 126.219C1160.4 129.398 1160.27 132.598 1159.99 135.756C1159.57 137.154 1159.57 137.684 1158.87 138.362Z" fill="#7497A4"/>
<path d="M1231.39 57.8743C1232.26 55.7974 1234.5 54.9285 1236.24 54.0597C1237.98 53.1908 1244.74 49.7153 1244.91 50.0755C1246.48 53.551 1247.69 58.2345 1246.12 62.0491C1244.55 65.8637 1239.19 64.8253 1235.88 63.6173C1232.6 62.3882 1229.65 61.5193 1231.39 57.8743Z" fill="#F7F8FC"/>
<path d="M1036.21 170.129C1039.68 164.577 1046.61 164.047 1050.09 158.325C1053.57 152.603 1069.86 144.614 1080.97 139.231C1082.87 138.701 1084.61 137.854 1086.52 137.154C1090.29 135.459 1093.62 132.895 1096.23 129.695C1105.42 119.289 1118.1 99.6865 1124.16 97.4189L1136.13 92.7354L1138.91 92.2056C1144.63 90.4679 1149.67 86.8228 1155.22 84.9155L1155.56 84.5764L1156.6 84.0466H1157.47L1172.22 77.1168C1180.02 73.4717 1188.18 67.4108 1196.68 66.7114C1199.22 66.7538 1201.74 66.33 1204.14 65.5035C1206.02 64.571 1207.82 63.469 1209.52 62.1975L1222.36 53.1908L1224.27 54.759C1224.04 59.8028 1222.79 64.7617 1220.62 69.3392C1219.29 71.8187 1217.78 74.1923 1216.11 76.4598C1214.03 80.2744 1214.2 84.089 1214.2 88.4334C1214.2 99.3686 1207.44 104.561 1198.75 108.206C1193.54 110.283 1188.52 112.359 1184.17 116.365C1180.66 119.904 1177.48 123.718 1174.64 127.809C1169.42 135.099 1164.06 142.389 1156.41 146.203C1155.88 146.373 1155.71 145.674 1155.71 145.504C1155.84 140.418 1156.96 135.417 1159.02 130.754C1160.23 128.317 1158.15 129.186 1151.22 132.831C1150.88 133.001 1150.69 132.301 1150.69 131.962C1150.69 131.623 1151.03 128.847 1149.82 128.148C1148.61 127.448 1145.31 130.394 1144.27 131.623C1143.23 132.831 1141.15 136.476 1139.42 138.553C1137.68 140.63 1131.43 144.444 1127.61 147.581C1123.8 150.717 1119.28 156.948 1115.47 161.631L1109.75 168.921C1107.67 171.698 1108.18 171.528 1104.89 171.528C1104.49 171.189 1104.41 170.574 1104.72 170.151C1105.93 168.434 1106.93 166.569 1107.67 164.598L1097.26 167.544C1093.79 168.413 1087.9 168.921 1086.5 172.927C1085.1 176.932 1086.5 175.703 1086.16 177.61C1086.18 178.182 1085.99 178.733 1085.63 179.178C1084.06 181.425 1080.08 180.916 1078.17 180.386C1075.2 179.348 1072.36 178.013 1069.67 176.402C1066.11 174.559 1062.21 173.435 1058.23 173.096C1050.94 172.566 1043.65 173.965 1036.36 171.358C1036.02 171.337 1036.02 170.468 1036.21 170.129Z" fill="#F7F8FC"/>
<path d="M1182.29 251.677C1181.1 250.596 1179.68 249.812 1178.13 249.431C1175.17 248.816 1172.14 248.646 1169.11 248.901H1159.21C1158.68 248.901 1158.68 247.862 1159.04 247.523C1162.47 244.959 1164.78 241.166 1165.46 236.948C1166.16 233.473 1165.63 230.018 1166.84 226.712C1167.62 224.318 1169 222.177 1170.82 220.461C1171.92 219.804 1172.92 218.977 1173.77 218.024C1175.51 215.417 1174.47 214.718 1174.47 212.641C1174.59 211.263 1175.29 210.013 1176.37 209.165C1178.45 206.919 1180.36 205.52 1181.4 202.405L1185.04 191.131C1185.91 188.694 1186.61 186.214 1187.12 183.671L1187.46 184.201L1187.8 185.07C1190.4 190.453 1191.27 197.912 1197.33 199.65L1204.96 204.863C1213.46 211.285 1213.99 224.826 1221.09 232.625C1224.21 235.931 1227.68 238.177 1229.95 242.331C1230.37 242.755 1230.67 243.306 1230.82 243.899L1231.16 243.37H1231.86L1234.1 238.686C1234.44 236.44 1233.57 234.871 1234.8 232.604C1236.01 230.358 1238.28 228.62 1239.82 226.522C1241.39 224.445 1245.21 217.663 1243.81 212.111C1242.43 206.559 1241.56 206.029 1241.03 202.744C1240.8 199.862 1240.74 196.959 1240.86 194.076C1240.46 192.254 1239.42 190.665 1237.92 189.563C1233.76 187.486 1229.06 186.087 1224.9 184.18L1223.87 183.65L1223 182.951C1220.56 181.064 1218.02 179.327 1215.37 177.737L1214.5 177.038L1212.42 175.131L1207.4 168.709C1205.32 166.463 1202.55 165.234 1200.47 162.988C1200.03 161.101 1199.2 159.342 1198.03 157.774C1196.3 155.528 1194.39 154.299 1194.92 150.844C1195.17 148.619 1196.76 146.776 1198.9 146.161C1202.02 145.123 1205.66 146.33 1208.61 147.199C1213.44 148.365 1218.14 149.997 1222.66 152.052C1230.84 155.464 1238.36 160.275 1244.87 166.272C1252.67 172.863 1263.09 180.853 1268.12 190.389C1269.83 193.822 1271.8 197.128 1274.01 200.286L1279.22 204.1C1280.26 204.8 1281.83 206.177 1283.04 206.008C1288.42 204.969 1284.6 202.702 1284.41 201.324C1284.24 199.947 1283.71 199.756 1284.24 198.379C1284.24 198.188 1284.39 198.039 1284.58 198.039C1287.36 198.209 1290.83 200.816 1293.44 199.417C1296.05 198.039 1295.52 194.733 1295.52 191.258C1294.99 188.503 1294.12 185.812 1292.91 183.268C1290.47 178.585 1287.53 174.41 1286.32 169.049C1286.15 168.879 1286.32 168.01 1286.66 168.18C1289.52 169.536 1292.25 171.147 1294.82 173.033C1297.06 174.94 1299.16 177.547 1301.58 178.755C1303 179.751 1304.84 179.962 1306.43 179.284C1306.96 178.076 1307.47 177.038 1307.81 175.978C1309.63 170.744 1310.5 165.213 1310.42 159.66C1310.27 158.876 1310.03 158.135 1309.72 157.414C1308.68 153.938 1307.11 146.309 1305.03 143.533C1302.96 140.757 1302.96 139.379 1294.63 133.636C1296.37 131.03 1305.39 138.15 1306.77 136.942C1308.15 135.734 1307.98 142.156 1308.51 142.495C1309.21 143.999 1310.03 145.44 1310.95 146.839C1313.28 150.336 1314.31 155.019 1315.37 159.364C1319 165.064 1323.94 169.833 1329.79 173.245C1332.03 174.622 1334.47 175.682 1336.71 176.89C1342.61 177.419 1348.69 176.89 1354.41 177.589C1363.44 178.458 1374.88 179.157 1382.34 185.748C1378.53 189.393 1377.32 196.323 1374.88 201.367C1372.45 206.41 1364.48 214.209 1357.02 217.494L1354.77 217.833L1352.69 218.172C1349.22 219.21 1345.93 220.609 1342.8 221.648L1332.56 222.686C1329.85 222.622 1327.11 222.75 1324.4 223.025C1321.44 223.618 1318.4 223.979 1315.37 224.063C1312.77 224.063 1310.52 222.855 1308.08 222.495C1305.65 222.135 1304.61 222.156 1303.74 223.025C1302.87 224.254 1302.34 225.695 1302.17 227.179C1301.85 227.836 1301.62 228.535 1301.47 229.256C1301.3 229.446 1301.3 229.743 1301.47 229.955V230.824L1300.26 232.901C1298.53 234.109 1296.96 235.507 1295.24 236.546L1293.5 237.754C1292.34 238.093 1291.22 238.622 1290.2 239.322C1285.68 240.191 1281.87 243.666 1277.53 245.044C1273.18 246.421 1272.67 245.743 1271.63 248.35C1270.6 250.956 1271.29 248.519 1271.29 248.88V249.219C1271.15 249.727 1271.1 250.257 1271.13 250.787C1264.66 253.86 1257.75 255.894 1250.65 256.869C1244.51 257.759 1238.3 258.225 1232.09 258.246H1227.24C1215.79 258.946 1203.99 259.454 1192.71 256.678C1190.38 256.191 1188.12 255.428 1185.95 254.432L1182.29 252.185V251.677Z" fill="#6A8A94"/>
<path d="M1147.07 156.418C1147.6 153.811 1149.84 151.734 1151.58 149.997C1153.49 148.132 1155.06 145.949 1156.26 143.575C1156.67 140.587 1157.6 137.705 1159.04 135.077C1161.29 130.394 1164.59 127.279 1168.07 123.803C1170.06 121.981 1171.71 119.798 1172.92 117.382C1174.49 113.737 1172.58 110.791 1173.09 107.146C1173.6 103.501 1176.73 102.992 1179.34 102.632C1185.57 102.018 1191.65 100.428 1197.38 97.9486C1199.96 96.783 1202.44 95.4479 1204.84 93.9645C1206.98 92.9261 1208.76 91.2095 1209.86 89.1115C1211.43 86.3353 1211.07 84.0889 1210.9 81.122C1210.73 78.1763 1210.56 72.2637 1213.33 68.11C1216.11 63.9563 1221.13 59.7815 1222.19 53.6993C1222.19 53.3602 1222.36 53.1695 1222.53 53.1695C1227.05 54.9073 1230.69 58.1921 1235.01 60.0994C1239.34 62.0067 1243.68 55.9457 1244.55 50.3933C1244.72 50.2238 1244.89 49.8635 1245.08 50.0543C1278.92 80.4227 1312.77 110.791 1346.59 141.499C1347.88 142.622 1349.11 143.851 1350.24 145.144C1350.4 145.483 1350.4 146.352 1350.07 146.182H1349.2C1347.12 145.928 1345.17 145.144 1343.48 143.936C1332.73 140.036 1322.35 135.205 1312.43 129.525C1312.13 129.525 1311.9 129.758 1311.9 130.055C1311.73 130.055 1311.9 130.224 1311.9 130.224V130.563C1312.41 131.072 1312.81 131.665 1313.11 132.301C1313.36 132.979 1313.36 133.721 1313.11 134.378C1312.24 135.247 1310.16 132.81 1309.29 132.471C1308.42 132.132 1307.91 129.864 1306.52 129.525L1302.87 131.093C1302.87 131.263 1304.61 133.53 1304.61 133.7C1304.61 133.869 1305.65 134.039 1305.99 134.738C1306.33 135.438 1304.25 133.53 1304.78 135.438C1305.31 137.345 1305.48 134.06 1304.95 134.738C1304.42 135.438 1303.74 135.607 1303.38 134.908C1294.01 125.88 1286.38 130.055 1274.24 131.793C1269.22 132.492 1264.34 132.831 1259.83 129.716C1255.32 126.6 1253.41 123.294 1249.59 122.256H1248.89C1248.36 122.786 1248.72 123.634 1248.89 124.163C1253.09 132.386 1258.32 140.036 1264.51 146.903H1264.68C1265.64 147.75 1266.5 148.662 1267.29 149.679L1270.4 152.455C1271.06 152.794 1271.46 153.451 1271.44 154.193C1271.44 154.362 1271.44 154.892 1271.1 154.892C1269.56 154.511 1268.09 153.854 1266.76 152.985L1263.28 150.908L1256.04 147.92H1255.34L1251.86 146.881C1251.33 147.22 1251.69 148.089 1252.03 148.958C1254.13 151.48 1256.44 153.811 1258.96 155.888C1258.96 155.888 1259.13 156.058 1258.96 156.418C1258.79 156.757 1257.92 157.626 1257.22 157.117C1255.51 156.397 1253.92 155.401 1252.54 154.172L1248.72 152.603C1248.56 152.773 1248.56 152.773 1248.72 153.133V153.663C1250.19 155.443 1251.48 157.35 1252.54 159.385C1252.73 159.703 1252.73 160.105 1252.54 160.423L1252.2 160.762H1252.03C1251.33 161.101 1250.46 160.423 1249.78 160.063C1248.56 159.406 1247.41 158.664 1246.31 157.817C1243.7 156.821 1241.03 156.015 1238.32 155.379C1238.19 155.909 1238.26 156.46 1238.49 156.948C1240.23 159.025 1240.93 160.254 1242.64 162.5C1244.15 164.005 1245.55 165.637 1246.8 167.353C1246.8 167.692 1244.36 165.976 1244.02 165.785C1224.76 155.21 1195.09 143.575 1203.78 155.019C1203.95 155.358 1205.51 158.664 1204.81 159.173C1201.34 161.25 1200.66 161.25 1202.21 163.517C1203.75 165.785 1204.98 165.764 1204.45 165.764C1193.35 164.026 1194.75 157.096 1187.8 155.358L1183.64 155.888C1183.96 158.876 1184.53 161.843 1185.38 164.746C1185.64 165.17 1185.83 165.637 1185.91 166.124C1186.61 167.162 1185.91 168.731 1186.25 170.108C1186.59 171.486 1186.78 177.229 1185.72 175.83C1184.68 174.452 1181.74 165.255 1178.6 163.517C1175.48 161.78 1171.67 157.795 1167.83 160.211C1165.74 161.483 1163.45 162.415 1161.07 162.987C1160.73 162.987 1160.73 162.458 1160.73 162.119C1160.9 160.911 1161.39 159.787 1162.11 158.813C1163.15 157.244 1165.42 155.697 1162.28 153.26C1159.17 150.823 1160.2 152.921 1159.51 152.73C1157.2 152.54 1154.89 153.091 1152.91 154.299C1151.54 155.379 1149.8 155.93 1148.06 155.867C1147.77 156.248 1147.07 156.757 1147.07 156.418Z" fill="#E1E2E8"/>
<path d="M1148.8 135.777C1149.67 133.34 1152.11 132.132 1154.02 131.093C1155.63 130.479 1157.07 129.462 1158.17 128.148L1159.55 126.94L1160.59 126.24C1160.76 126.071 1160.76 126.41 1160.76 126.579C1160.08 128.762 1159.02 130.818 1157.64 132.662L1157.3 133.361C1157.3 133.53 1157.13 133.53 1156.96 133.361C1156.79 133.191 1156.62 133.022 1156.79 132.662C1156.96 132.301 1156.96 132.492 1156.96 132.322L1158 129.377C1157.43 130.14 1156.73 130.797 1155.92 131.284C1153.36 132.428 1151.05 134.081 1149.16 136.137C1148.8 136.646 1148.8 135.946 1148.8 135.777Z" fill="#7497A4"/>
<path d="M1100.4 172.376C1102.31 171.676 1104.55 172.037 1106.48 171.168C1108.41 170.023 1110.15 168.625 1111.7 167.014C1111.87 166.845 1111.87 167.184 1111.87 167.353C1110.57 169.006 1109.07 170.468 1107.35 171.698C1105.27 172.906 1102.84 172.736 1100.59 173.435C1098.32 174.113 1100.04 172.545 1100.4 172.376Z" fill="#7497A4"/>
<path d="M1200.85 69.1486L1201.55 67.5803C1201.72 67.2413 1201.72 66.7115 1201.89 66.3724C1201.97 65.9909 1202.23 65.673 1202.59 65.5035H1203.29C1203.63 65.5035 1203.82 65.5035 1203.99 65.1644L1205.56 64.4651H1205.73C1205.73 64.6346 1205.9 64.8042 1205.73 64.8042C1205.32 66.2028 1204.39 67.3896 1203.12 68.1101L1201.55 70.0174C1201.21 70.3565 1201.02 70.5472 1200.68 70.187C1200.34 69.8479 1200.68 69.3181 1200.85 69.1486Z" fill="#7497A4"/>
<path d="M1196.17 72.4333C1197.1 71.6916 1197.93 70.8227 1198.61 69.8266C1199.14 69.1273 1199.3 68.2584 1199.98 67.7498C1200.68 67.22 1200.32 67.7498 1200.32 68.0889C1200.66 68.7882 1199.98 69.9962 1199.62 70.526C1198.69 71.628 1197.57 72.5604 1196.32 73.3022C1196 73.6624 1196 72.624 1196.17 72.4333Z" fill="#7497A4"/>
<path d="M1197.91 73.832L1199.28 72.4545L1198.25 74.1922C1197.91 74.5313 1197.91 74.0015 1197.91 73.832Z" fill="#7497A4"/>
<path d="M1198.61 87.5433C1198.77 87.3738 1198.77 87.7129 1198.77 87.8824C1198.77 88.0519 1198.77 88.4122 1198.44 88.5818C1198.44 88.6877 1198.35 88.7513 1198.27 88.7513C1197.93 89.7897 1197.06 90.9977 1196.7 90.4891C1196.34 89.9592 1198.08 87.8824 1198.61 87.5433Z" fill="#7497A4"/>
<path d="M1196 89.2811C1196.34 88.942 1196.53 89.9804 1196.17 90.3195H1196L1195.13 91.697C1194.96 91.8665 1194.79 91.8665 1194.79 91.5274C1194.79 91.1884 1195.3 89.9592 1196 89.2811Z" fill="#7497A4"/>
<path d="M1192.01 92.2267C1192.71 91.6969 1193.39 91.6969 1193.75 90.6584C1194.09 89.62 1194.09 90.828 1194.09 90.9975C1194.09 91.167 1193.05 93.0743 1192.18 93.0743C1191.91 92.9684 1191.78 92.6717 1191.89 92.3962C1191.91 92.3326 1191.95 92.269 1192.01 92.2267Z" fill="#7497A4"/>
<path d="M1146.03 131.771C1147.13 129.016 1149.42 126.897 1152.28 126.049C1152.45 126.049 1152.45 126.579 1152.28 126.749C1151.94 127.766 1151.54 128.741 1151.07 129.694C1150.6 130.924 1150.31 132.195 1150.2 133.509C1150.03 133.848 1149.86 133.679 1149.67 133.509C1149.52 132.513 1149.63 131.496 1150.01 130.563L1149.67 131.093C1149.67 131.093 1149.5 131.432 1149.5 131.263H1149.16L1148.63 131.962C1148.46 132.132 1148.29 131.793 1148.29 131.432C1148.36 130.669 1148.66 129.928 1149.16 129.355C1148.15 130.394 1147.28 131.559 1146.56 132.831C1146.2 133.17 1145.86 132.132 1146.03 131.771Z" fill="#7497A4"/>
<path d="M1035.51 171.168C1038.46 170.468 1040.72 167.692 1043.5 166.484C1046.28 165.276 1049.39 164.916 1052.17 163.538H1052.34C1053.38 164.577 1052.87 166.315 1052.51 167.522C1052.32 168.37 1052.04 169.175 1051.64 169.96L1051.11 170.659C1050.41 173.266 1057.7 170.659 1058.4 170.489L1059.97 169.96L1064.12 168.222C1064.29 168.052 1064.29 168.222 1064.46 168.222L1065.5 167.883C1066.32 167.544 1067.21 167.374 1068.1 167.353L1070.71 166.823C1071.05 166.823 1071.05 167.692 1070.88 167.862L1069.84 169.599C1069.82 170.129 1069.69 170.659 1069.5 171.168C1069.33 171.697 1069.33 172.036 1069.16 172.545C1068.99 173.075 1069.33 173.075 1069.5 173.414C1069.67 173.753 1074.72 171.168 1076.43 168.9C1078.17 166.654 1078.87 166.124 1080.95 165.954C1083.02 165.785 1081.29 166.654 1081.12 166.993L1076.6 173.923C1076.26 174.622 1075.22 175.66 1074.69 176.699L1075.39 177.568C1081.65 174.791 1086.84 167.671 1094.3 168.54V168.879L1089.61 170.617C1089.76 170.892 1089.76 171.21 1089.61 171.485L1088.24 172.015C1088.24 172.185 1088.41 172.354 1088.41 172.545C1088.74 172.227 1089.17 172.058 1089.61 172.015C1090.14 172.015 1090.14 172.884 1089.95 173.223L1089.42 173.923C1089.76 173.753 1089.95 174.622 1089.76 174.961C1088.96 176.508 1087.83 177.864 1086.46 178.945C1085.42 179.983 1084.21 181.891 1082.64 182.06L1081.94 182.929C1081.6 183.035 1081.41 182.866 1081.41 182.399C1081.07 182.569 1080.88 182.23 1080.88 181.87C1080.54 182.039 1080.35 181.87 1080.35 181.53C1080.04 181.679 1079.8 181.912 1079.65 182.23C1079.48 182.399 1079.31 182.23 1079.12 182.06L1078.78 182.399C1078.25 182.738 1078.09 182.23 1078.25 181.7C1078.42 181.17 1077.73 181.7 1077.73 181.361L1076.86 182.06L1077.73 182.76C1078.06 183.099 1077.89 184.328 1077.39 183.968C1075.78 182.908 1074.25 181.679 1072.87 180.323C1072.7 180.662 1072.34 180.323 1072.34 179.983H1071.64L1071.3 180.513C1070.96 181.213 1070.43 179.983 1070.77 179.475C1071.11 178.945 1070.77 178.945 1070.94 178.776L1070.07 177.907H1069.91C1069.38 177.737 1069.21 177.207 1068.87 176.868H1068.7C1068.7 177.207 1068.36 178.076 1068 177.398C1067.66 176.699 1067.83 176.868 1067.66 176.529C1067.49 176.19 1067.13 176.699 1067.13 176.19V175.491C1067.15 175.681 1067.09 175.872 1066.96 176.021C1066.96 176.72 1066.26 176.55 1066.26 175.851V176.021C1066.09 176.55 1065.56 176.36 1065.56 175.851C1065.58 175.66 1065.52 175.47 1065.39 175.321C1065.22 175.851 1064.86 176.529 1064.86 176.36C1064.86 176.19 1064.33 176.19 1064.33 176.021C1064.16 176.36 1063.8 175.681 1063.8 175.321C1063.51 175.745 1063.27 176.211 1063.1 176.699C1062.93 177.228 1062.4 176.529 1062.57 176.169V175.681L1062.04 176.211C1061.7 176.741 1061.51 175.872 1061.51 175.512H1061.17C1061 175.851 1060.64 176.042 1060.47 176.211C1060.31 176.381 1059.94 175.872 1059.94 175.681V174.982C1059.61 175.321 1059.25 174.643 1059.41 174.113L1058.89 174.452L1057.51 174.791C1057.17 174.791 1057.17 174.452 1057.17 174.092H1056.64L1054.73 175.13C1054.39 175.47 1054.39 174.961 1054.39 174.601C1053.57 175.13 1052.59 175.427 1051.62 175.47C1050.41 175.639 1049.18 175.47 1048.84 173.901C1048.67 174.071 1048.5 173.732 1048.5 173.372L1047.97 174.071C1047.63 174.41 1047.44 173.732 1047.63 173.372V173.202L1046.25 174.77H1046.09L1045.75 174.24C1045.58 174.41 1045.58 174.41 1045.41 174.24V173.901H1045.07C1044.9 174.071 1044.73 173.901 1044.54 173.732L1044.2 174.262H1044.03C1043.86 174.431 1043.69 174.262 1043.69 174.092C1043.58 174.092 1043.52 174.177 1043.52 174.262C1043.35 174.431 1043.18 174.262 1043.18 173.923L1042.84 174.452C1042.84 174.558 1042.76 174.622 1042.67 174.622H1042.5C1042.16 174.961 1041.97 174.622 1041.97 174.283H1041.8C1041.63 174.622 1041.47 173.944 1041.63 173.583C1041.3 173.753 1041.1 173.244 1041.3 173.054H1041.13C1040.96 173.223 1040.96 173.393 1040.79 173.393C1040.62 173.393 1040.62 173.562 1040.45 173.393C1040.28 173.923 1039.92 173.562 1039.92 173.223C1039.75 173.562 1039.39 173.223 1039.39 172.884V172.354H1038.86C1038.69 172.693 1038.52 172.524 1038.33 172.354L1037.63 173.054C1037.46 173.223 1037.29 172.884 1037.29 172.524C1037.29 172.164 1036.76 172.185 1036.95 171.824L1035.91 172.164C1035.15 172.736 1034.98 171.337 1035.51 171.168ZM1053.04 173.774L1053.74 173.244C1052.85 173.435 1051.93 173.308 1051.13 172.905C1051.3 173.414 1052 173.774 1053.04 173.774Z" fill="#7497A4"/>
<path d="M1180.04 149.657C1180.38 148.45 1181.08 147.92 1182.29 148.45C1183.5 148.979 1182.46 149.318 1183.66 150.187C1184.87 151.056 1183.83 149.318 1183.66 148.11C1183.18 146.542 1183.11 144.868 1183.5 143.257C1183.5 142.918 1183.66 142.558 1184.03 142.728C1184.39 142.897 1186.27 146.034 1186.8 148.11C1187.8 152.391 1190.17 156.248 1193.56 159.046C1196.38 161.504 1199.6 163.432 1203.1 164.767C1205.47 165.848 1207.29 167.84 1208.12 170.32C1208.29 170.489 1208.12 171.189 1207.95 170.85C1207.78 170.511 1205.87 167.544 1204.31 166.696C1203.06 165.997 1201.7 165.467 1200.32 165.128H1200.51C1200.68 165.467 1200.51 166.696 1199.98 166.505C1198.86 165.764 1197.63 165.17 1196.34 164.767C1193.39 164.767 1195.13 165.297 1194.26 166.844C1193.14 168.773 1192.21 170.807 1191.48 172.926C1191.32 173.096 1190.96 173.456 1190.79 173.096L1187.84 169.112C1188.5 172.672 1188.56 176.296 1188.01 179.878C1188.01 180.577 1187.31 180.916 1187.14 180.047L1185.06 166.866C1184.89 165.827 1184.53 164.619 1184.36 163.39C1183.9 162.564 1183.47 161.695 1183.16 160.783C1182.29 158.537 1181.78 156.1 1180.91 153.854C1180.04 151.565 1179.51 150.865 1180.04 149.657ZM1187.5 176.19C1187.78 173.859 1187.59 171.507 1186.97 169.26C1186.97 169.599 1186.8 169.96 1186.63 169.79C1186.46 169.599 1187.14 174.113 1187.5 176.19ZM1190.28 169.96C1190.98 170.998 1191.48 170.828 1191.65 169.43C1192.06 168.836 1192.42 168.201 1192.69 167.522C1193.22 166.484 1193.22 164.217 1193.9 163.538C1194.2 163.072 1194.73 162.818 1195.28 162.839C1194.3 162.415 1193.37 161.907 1192.5 161.271L1190.06 159.024C1189.94 159.173 1189.73 159.173 1189.58 159.046C1189.56 159.046 1189.56 159.024 1189.56 159.024L1188.69 158.495H1188.35C1188.18 158.664 1188.01 158.834 1187.82 158.664H1187.48C1187.31 158.664 1187.31 158.834 1187.14 158.664C1186.97 158.495 1186.44 158.834 1186.27 158.325C1186.27 158.156 1186.1 158.156 1186.1 157.986V158.325C1186.48 159.809 1186.78 161.313 1186.97 162.839C1186.97 163.178 1186.63 163.877 1186.44 163.708V164.577C1187.1 166.124 1188.03 167.544 1189.22 168.73C1189.43 169.239 1189.79 169.684 1190.28 169.96Z" fill="#7497A4"/>
<path d="M1180.21 143.406C1180.36 142.495 1180.42 141.562 1180.38 140.63C1180.38 140.291 1180.21 139.931 1180.38 139.591C1180.55 139.252 1181.42 139.422 1181.59 139.931C1181.8 141.138 1181.91 142.346 1181.93 143.576C1181.91 143.766 1181.97 143.957 1182.1 144.105C1182.48 144.911 1182.58 145.822 1182.44 146.712C1182.27 147.411 1181.74 147.581 1181.23 147.242C1180.89 147.411 1180.53 147.072 1180.19 146.542C1179.96 145.504 1179.96 144.423 1180.21 143.406Z" fill="#7497A4"/>
<path d="M1017.45 202.914C1019.53 200.307 1022.14 198.929 1023.88 195.793C1025.93 192.402 1028.52 189.372 1031.5 186.765C1035.15 183.65 1039.3 182.251 1043.31 179.644H1043.48C1043.65 179.475 1043.65 179.814 1043.65 179.984V180.323C1041.89 182.696 1040.36 185.26 1039.13 187.952C1038.96 188.482 1038.96 188.99 1038.79 189.52C1038.63 190.05 1037.59 191.597 1037.06 192.996C1036.53 194.373 1037.59 200.985 1037.76 204.63C1037.99 206.665 1037.86 208.72 1037.42 210.712C1036.89 212.789 1034.98 216.964 1032.73 216.794C1030.49 216.625 1028.92 214.018 1027.52 213.149C1025.61 212.217 1023.77 211.178 1021.97 210.034C1020.4 208.996 1016.25 207.957 1016.42 205.181C1016.46 204.312 1016.84 203.507 1017.45 202.914Z" fill="#6A8A94"/>
<path d="M1212.13 86.6742C1219.25 91.5273 1223.06 77.6464 1227.57 74.0013C1227.91 73.6622 1228.78 73.302 1229.14 72.7934C1229.5 72.2847 1228.97 68.1099 1227.94 66.7112C1226.9 65.3337 1226.03 64.9734 1225.5 63.7655C1225.22 63.2145 1224.99 62.6211 1224.8 62.0277C1224.27 59.2515 1224.46 56.3058 1222.89 53.6992C1221.32 51.0925 1222.72 52.8303 1223.06 52.9998C1232.05 57.1959 1240.65 62.1761 1248.75 67.9191C1255.68 72.7722 1263.67 77.2861 1268.52 84.9153H1268.69C1273.43 90.1921 1278.73 94.9604 1284.48 99.1353C1285.54 100.428 1287.12 101.191 1288.82 101.212C1289.82 101.636 1290.88 101.869 1291.94 101.911C1292.4 101.827 1292.72 101.382 1292.63 100.894C1292.63 100.873 1292.63 100.873 1292.63 100.852V99.8134C1292.63 99.6439 1292.8 99.1141 1293.16 99.2836C1295.75 100.513 1298.42 101.551 1301.15 102.399L1300.82 101.7L1297 97.8849L1293.19 95.2783L1290.58 93.371H1290.24L1289.9 92.8412C1289.9 92.6716 1290.07 92.6716 1290.07 92.5021H1292.15L1292.85 92.8412L1293.38 93.1802L1294.42 94.0491C1297.53 95.9776 1300.35 98.3935 1302.74 101.17C1312.28 107.421 1320.61 115.58 1328.77 123.909C1333.28 128.253 1337.63 132.577 1342.31 136.582C1346.99 140.566 1347.52 140.566 1349.94 142.834C1351.27 143.639 1352.12 145.08 1352.18 146.648C1352.35 146.818 1352.18 147.517 1351.85 147.517C1338.49 144.571 1323.75 140.587 1313.15 130.521L1314.89 134.675C1314.89 134.844 1314.89 135.374 1314.55 135.543C1313.4 135.925 1312.13 135.671 1311.24 134.844C1310.16 133.954 1309.19 132.958 1308.3 131.898C1306.73 130.161 1303.44 129.122 1305.18 132.937L1306.75 135.713C1307.96 137.79 1304.84 137.62 1303.27 136.243L1302.74 135.904L1301.37 135.565C1296.15 133.318 1290.79 132.788 1283.84 132.449C1276.89 132.11 1273.07 133.149 1267.71 132.449C1262.33 131.75 1259.38 129.673 1255.74 126.198C1252.09 122.722 1246.2 121.853 1242.73 117.7C1239.25 113.546 1237.01 109.371 1232.83 106.065C1225.54 100.343 1216.7 96.5286 1211.83 87.6703C1211.62 87.3524 1211.79 86.314 1212.13 86.6742Z" fill="#CBD0E8"/>
<path d="M1238.15 129.694C1243.17 134.908 1247.01 141.668 1253.24 144.953C1256.01 146.521 1258.96 147.39 1261.74 148.937C1261.91 148.937 1261.91 148.937 1261.91 149.107C1263.14 149.446 1264.3 149.975 1265.38 150.675C1267.29 151.883 1268.5 153.62 1270.4 154.659C1272.31 155.697 1270.74 155.528 1270.4 155.697C1266.42 155.867 1262.46 155.146 1258.77 153.62C1255.99 152.582 1251.65 151.014 1249.57 148.407C1247.5 145.801 1245.06 141.287 1242.45 138.171C1239.85 135.056 1238.3 133.657 1237.6 130.373C1237.64 130.034 1237.81 129.355 1238.15 129.694Z" fill="#CBD0E8"/>
<path d="M1175.7 103.332C1180.55 100.555 1187.67 100.026 1193.22 99.3474H1193.39L1195.47 98.4786C1197.04 97.7792 1198.94 96.4017 1200.49 96.5713C1202.06 96.7408 1204.65 99.6865 1206.04 101.954C1208.5 106.171 1211.47 110.092 1214.9 113.589C1217.85 116.895 1221.66 118.971 1224.8 122.087C1230.69 127.809 1233.13 136.667 1238.34 143.088C1243.55 149.509 1248.58 151.247 1251.69 156.969H1251.86C1253.07 158.007 1253.94 159.915 1252.2 160.953C1250.46 161.992 1249.25 160.254 1248.22 159.745C1245.48 158.219 1242.47 157.287 1239.36 156.969C1240.48 158.495 1241.69 159.936 1243 161.313C1244.47 162.373 1245.86 163.539 1247.16 164.789C1248.03 165.997 1248.2 166.696 1247.5 167.904H1247.16C1242.3 164.598 1236.58 163.39 1231.37 160.614C1226.77 157.923 1221.9 155.761 1216.79 154.193L1210.9 152.286H1210.73C1210.03 152.116 1205.87 151.247 1203.97 151.946C1203.69 153.091 1203.69 154.278 1203.97 155.422C1204.14 156.121 1204.84 156.799 1205.01 157.668C1205.43 158.474 1205.43 159.449 1205.01 160.275H1204.67C1202.59 159.936 1201.36 157.16 1200.15 155.592C1198.31 153.324 1196.99 150.654 1196.34 147.793C1195.64 143.279 1195.81 138.934 1194.77 134.442L1194.24 131.666C1191.68 126.834 1188.6 122.299 1185.04 118.124C1183.01 115.793 1180.61 113.801 1177.92 112.232C1176.4 111.533 1175.12 110.367 1174.28 108.926C1173.09 107.189 1173.51 104.815 1175.25 103.628C1175.42 103.48 1175.55 103.395 1175.7 103.332Z" fill="#CBD0E8"/>
<path d="M1182.29 238.834C1182.12 241.271 1181.76 243.687 1181.42 245.955C1181.08 248.201 1181.25 247.163 1181.25 247.693C1181.1 248.901 1181.04 250.109 1181.08 251.338C1180.1 251.444 1179.19 251.868 1178.47 252.546H1177.77L1176.57 251.846L1174.32 250.638C1167.9 248.032 1161.31 249.769 1154.55 250.469H1152.98C1151.24 249.854 1149.44 249.515 1147.6 249.43C1148.93 247.714 1150.52 246.188 1152.28 244.916C1154.21 242.988 1155.95 240.911 1157.49 238.665C1158.72 237.33 1160.12 236.164 1161.65 235.189H1162.35C1164.08 235.889 1164.95 234.49 1165.29 231.375C1165.55 230.463 1165.71 229.531 1165.82 228.598C1166.41 226.522 1167.41 224.572 1168.77 222.877C1171.2 219.401 1173.28 217.854 1174.15 213.34C1174.32 212.026 1174.66 210.733 1175.19 209.525C1176.04 208.572 1176.95 207.703 1177.96 206.919C1179.81 205.202 1181.16 203.062 1181.95 200.667C1182.12 200.137 1182.65 200.667 1182.65 201.006C1182.46 206.092 1182.99 211.157 1184.22 216.095C1184.83 218.638 1184.66 221.308 1183.69 223.724C1182.29 228.429 1182.82 233.621 1182.29 238.834Z" fill="#5B8282"/>
<path d="M1354.75 217.833L1352.67 218.172C1349.2 219.211 1345.91 220.609 1342.78 221.648L1332.54 222.686C1329.83 222.622 1327.09 222.75 1324.38 223.025C1321.41 223.618 1318.38 223.979 1315.35 224.064C1312.75 224.064 1310.5 222.856 1308.06 222.495C1306.73 222.305 1305.37 222.347 1304.08 222.665C1302.34 219.189 1301.13 215.036 1299.73 211.73C1298.36 208.424 1297.13 206.877 1297.66 204.44C1298.19 202.002 1300.09 200.964 1300.6 198.718C1301.13 196.471 1300.6 195.242 1301.98 194.034C1303.36 192.826 1306.69 193.886 1308.59 194.755C1314.31 197.361 1319 201.685 1323.85 206.029C1328.7 210.373 1337.73 217.833 1346.4 215.735C1350.04 214.866 1353.16 213.489 1356.97 213.489L1363.4 214.188C1361.34 215.459 1359.2 216.561 1356.97 217.494L1354.75 217.833Z" fill="#5B8282"/>
<path d="M1301.49 229.976V230.845C1301.03 231.502 1300.62 232.201 1300.29 232.922C1298.04 236.397 1294.73 237.075 1291.79 238.474C1288.84 239.852 1292.49 233.96 1293 232.922C1294.12 230.718 1294.99 228.387 1295.6 225.992C1295.77 225.293 1295.77 224.085 1296.47 224.085C1297.17 224.085 1298.38 225.653 1298.72 226.161C1299.42 227.539 1300.35 228.768 1301.49 229.807V229.976Z" fill="#5B8282"/>
<path d="M1122.44 184.688H1122.61L1122.27 185.027C1122.06 185.345 1121.89 185.706 1121.74 186.066C1116.19 195.772 1109.07 205.499 1098.49 207.936C1095.38 208.635 1091.9 208.275 1088.96 209.674C1086.01 211.073 1085.48 214.527 1083.07 216.265C1080.63 218.002 1078.21 218.002 1075.78 219.21C1073.34 220.418 1070.75 221.287 1068.15 222.326L1063.29 223.703L1059.31 224.402L1057.57 224.742C1051.51 225.356 1045.43 225.526 1039.35 225.271C1035.57 224.339 1031.95 222.877 1028.58 220.927C1025.68 219.21 1022.88 217.303 1020.25 215.205C1018.34 213.828 1015.4 212.259 1014 210.352V208.784C1014.17 207.915 1014.17 206.877 1014.34 205.838C1015.12 205.075 1016.08 204.482 1017.12 204.1C1017.29 203.931 1017.45 204.27 1017.45 204.439C1017.79 207.915 1022.67 210.331 1025.08 211.899C1027.35 213.34 1029.75 214.612 1032.2 215.714C1033.33 216.138 1034.49 216.434 1035.68 216.583C1038.29 216.053 1040.02 213.806 1042.1 211.369C1044.18 208.932 1045.92 209.123 1048.35 207.724C1050.79 206.347 1052.87 203.571 1055.47 202.002C1058.21 200.455 1061.22 199.396 1064.33 198.887C1065.03 198.718 1064.86 199.925 1064.5 200.265C1058.95 203.74 1054.6 208.932 1050.09 213.806C1058.08 213.806 1062.23 203.401 1069.18 200.455L1075.27 198.209C1077.17 197.128 1079.15 196.132 1081.16 195.263C1085.1 194.14 1089.23 193.78 1093.3 194.225C1093.49 194.288 1093.58 194.479 1093.51 194.67C1093.51 194.691 1093.49 194.733 1093.47 194.755C1093.3 195.454 1093.47 195.623 1093.13 195.793C1093.3 195.793 1093.3 195.963 1093.13 196.132C1092.96 196.302 1088.62 197.001 1086.2 197.7C1083.57 198.802 1081.24 200.519 1079.44 202.723C1077.98 204.079 1076.28 205.139 1074.42 205.838C1073.15 206.326 1071.92 206.982 1070.77 207.745C1069.71 208.318 1068.8 209.144 1068.17 210.183C1067.36 210.691 1067.11 211.772 1067.62 212.577C1067.62 212.598 1067.64 212.598 1067.64 212.62C1067.81 212.45 1067.98 212.62 1067.98 212.959C1071.54 211.878 1074.89 210.183 1077.87 207.936C1081.09 205.224 1084.8 203.168 1088.81 201.854C1093.66 200.476 1098.71 200.476 1103.39 198.039C1108.07 195.602 1111.55 192.487 1115.7 189.541C1119.86 186.596 1122.29 183.65 1124.73 181.213L1123.52 183.459C1123.16 183.925 1122.8 184.328 1122.44 184.688Z" fill="#5B8282"/>
<path d="M1374.88 201.346C1372.89 205.478 1369.99 209.102 1366.38 211.92H1366.04C1362.4 211.751 1359.62 210.882 1355.98 211.391C1355.64 211.56 1355.45 210.691 1355.64 210.522C1357.02 207.407 1360.66 206.538 1363.27 204.8C1365.88 203.062 1367.95 201.854 1370.03 200.286C1371.41 198.993 1373 197.934 1374.71 197.171C1375.33 196.916 1376.01 196.916 1376.62 197.171L1374.88 201.346Z" fill="#5B8282"/>
<path d="M1151.41 237.796C1149.31 241.907 1146.81 245.807 1143.95 249.431C1143.1 249.325 1142.26 249.515 1141.51 249.96C1139.97 250.956 1138.33 251.825 1136.66 252.567C1134.52 253.288 1132.32 253.733 1130.07 253.944C1126.25 254.284 1120.7 255.682 1117.23 253.415L1116.53 252.885L1115.83 252.546L1114.96 251.846C1115.3 246.993 1119.98 243.179 1124.33 241.441C1126.34 240.678 1128.44 240.148 1130.58 239.873C1133.52 239.534 1136.13 240.042 1138.91 239.174C1141.68 238.305 1146.71 234.49 1151.39 235.528L1151.73 236.058V237.626L1151.41 237.796Z" fill="#5B8282"/>
<path d="M1252.2 261.913L1248.72 261.383C1246.12 261.383 1243.7 262.082 1241.1 261.913C1237.73 261.637 1234.44 260.768 1231.39 259.306L1228.08 257.929C1228.32 257.039 1228.72 256.212 1229.29 255.492C1231.37 252.715 1234.5 251.677 1236.41 248.731C1238.32 245.786 1238.85 241.441 1239.72 237.626C1240.16 235.868 1241.05 234.236 1242.32 232.943C1244.74 230.718 1246.54 227.92 1247.54 224.784C1247.54 221.309 1247.2 214.887 1249.45 213.51C1251.69 212.132 1255.87 219.761 1256.74 221.669C1259.34 227.391 1261.42 233.473 1264.53 238.856C1267.65 244.238 1271.82 246.654 1270.96 251.338C1270.09 256.021 1265.93 256.721 1262.8 257.229C1259.68 257.759 1257.24 259.836 1254.3 261.044L1252.2 261.913Z" fill="#5B8282"/>
<path d="M1134.75 92.9049H1135.28L1138.93 92.2055C1144.65 90.4678 1149.69 86.8227 1155.25 84.9154L1155.78 84.3856L1156.81 84.0465H1157.34L1157.68 83.5167H1160.12C1162.39 83.6227 1164.61 84.0889 1166.71 84.8942C1169.61 85.8902 1172.67 86.2929 1175.74 86.1022C1175.91 86.1022 1175.91 86.4412 1175.91 86.4412C1175.91 86.4412 1175.74 86.6108 1175.74 86.7803C1173.05 89.0479 1169.7 90.4466 1166.2 90.7645C1160.78 91.2519 1155.39 92.0572 1150.08 93.2016C1145.05 94.3671 1139.82 94.3036 1134.82 93.032L1134.75 92.9049Z" fill="#CBD0E8"/>
<path d="M1096.23 129.695C1099.53 127.448 1102.65 123.443 1106.12 121.705C1113.58 118.23 1121.74 115.814 1129.37 113.038C1129.9 112.868 1129.9 113.737 1129.71 114.076C1127.63 117.891 1123.12 120.667 1119.81 123.273C1116.19 126.389 1112.16 129.017 1107.84 131.072C1101.04 134.103 1093.85 136.201 1086.5 137.324C1090.27 135.523 1093.6 132.916 1096.23 129.695Z" fill="#CBD0E8"/>
<path d="M1076.28 144.974C1076.98 143.936 1078.72 144.105 1079.59 143.766C1080.46 143.427 1083.24 142.029 1085.14 141.329C1087.05 140.63 1092.94 139.761 1096.78 138.383C1100.59 137.006 1103.54 137.345 1106.67 136.307C1107.65 136.01 1108.58 135.607 1109.45 135.099C1110.4 134.018 1111.82 133.446 1113.26 133.53C1113.43 133.53 1113.43 133.87 1113.43 134.06C1113.43 137.006 1110.83 138.405 1108.75 139.952C1105.23 142.474 1101.59 144.784 1097.82 146.882C1094.34 148.958 1091.06 150.696 1087.05 150.696C1083.04 150.696 1078.38 149.997 1076.47 147.39C1075.88 146.712 1075.82 145.737 1076.28 144.974Z" fill="#CBD0E8"/>
<path d="M1085.12 159.024C1087.03 157.647 1088.43 155.379 1090.33 154.002C1092.24 152.624 1095.19 152.624 1097.26 150.696C1097.26 150.505 1097.41 150.357 1097.6 150.357C1097.77 150.526 1097.77 150.526 1097.77 150.887C1097.43 154.532 1095 155.231 1092.39 156.778C1089.78 158.346 1088.58 160.932 1086.31 162.33C1084.06 163.708 1083.53 163.369 1082.83 162.33C1082.18 161.271 1084.08 159.703 1085.12 159.024Z" fill="#CBD0E8"/>
<defs>
<clipPath id="clip0_111_15338">
<rect width="1416" height="163" fill="white" transform="translate(0 170)"/>
</clipPath>
<clipPath id="clip1_111_15338">
<rect width="1416" height="163" fill="white" transform="translate(70)"/>
</clipPath>
</defs>
</svg>
