<svg width="414" height="252" viewBox="0 0 414 252" fill="none" xmlns="http://www.w3.org/2000/svg">
<path d="M223.595 209.137C222.78 193.159 212.912 182.167 204.401 173.102C191.093 159.277 177.422 146.019 163.39 133.441C157.052 127.775 150.715 121.882 144.106 116.783C141.209 114.29 137.859 112.703 134.328 112.137C130.797 111.684 125.909 112.93 123.374 108.624C122.468 107.038 121.563 108.284 121.291 109.757C103.366 114.177 85.0777 116.783 66.7898 117.349C66.1561 117.463 65.8845 118.596 65.8845 119.276C65.975 125.848 70.049 128.341 74.2136 129.248C72.1313 131.968 66.8804 132.534 64.7981 133.101C60.8146 134.347 56.8311 135.254 52.7571 136.047C45.0617 137.633 37.1852 138.313 29.3993 138.313C18.7163 138.427 4.04981 137.52 0.518982 155.198C-0.567425 160.524 -0.0242214 166.303 2.87286 170.269C5.76995 174.235 13.0127 175.255 18.0826 175.368C26.0496 175.482 34.1071 175.482 42.0741 175.255L54.0245 174.688C56.5595 174.462 60.4525 173.895 62.7158 176.275L43.4321 185.68C39.0864 187.72 31.9343 189.42 30.3047 196.332C27.136 209.93 41.3498 216.956 48.4114 218.656C63.1685 221.942 78.6498 221.489 93.4973 220.696C101.193 220.242 108.798 219.562 116.493 218.883C119.752 218.543 123.917 217.183 127.267 217.863C129.168 218.203 129.077 219.109 129.53 221.602C129.983 224.095 129.711 224.095 130.526 225.342C131.341 226.588 133.785 227.381 135.415 227.721C138.945 228.401 142.567 228.741 146.188 228.855C153.612 228.855 161.126 227.721 168.55 226.702C175.974 225.682 182.945 224.435 190.007 225.228C193.537 225.568 194.986 229.195 198.064 230.668C201.142 232.141 203.225 231.688 205.759 231.688C211.01 231.688 216.805 230.668 220.426 224.888C224.047 219.109 223.957 214.576 223.595 209.137Z" fill="#548945"/>
<path d="M323.595 229.137C322.78 213.159 312.912 202.167 304.401 193.102C291.093 179.277 277.422 166.019 263.39 153.441C257.052 147.775 250.715 141.882 244.106 136.783C241.209 134.29 237.859 132.703 234.328 132.137C230.797 131.684 225.909 132.93 223.374 128.624C222.468 127.038 221.563 128.284 221.291 129.757C203.366 134.177 185.078 136.783 166.79 137.349C166.156 137.463 165.884 138.596 165.884 139.276C165.975 145.848 170.049 148.341 174.214 149.248C172.131 151.968 166.88 152.534 164.798 153.101C160.815 154.347 156.831 155.254 152.757 156.047C145.062 157.633 137.185 158.313 129.399 158.313C118.716 158.427 104.05 157.52 100.519 175.198C99.4326 180.524 99.9758 186.303 102.873 190.269C105.77 194.235 113.013 195.255 118.083 195.368C126.05 195.482 134.107 195.482 142.074 195.255L154.025 194.688C156.559 194.462 160.452 193.895 162.716 196.275L143.432 205.68C139.086 207.72 131.934 209.42 130.305 216.332C127.136 229.93 141.35 236.956 148.411 238.656C163.168 241.942 178.65 241.489 193.497 240.696C201.193 240.242 208.798 239.562 216.493 238.883C219.752 238.543 223.917 237.183 227.267 237.863C229.168 238.203 229.077 239.109 229.53 241.602C229.983 244.095 229.711 244.095 230.526 245.342C231.341 246.588 233.785 247.381 235.415 247.721C238.945 248.401 242.567 248.741 246.188 248.855C253.612 248.855 261.126 247.721 268.55 246.702C275.974 245.682 282.945 244.435 290.007 245.228C293.537 245.568 294.986 249.195 298.064 250.668C301.142 252.141 303.225 251.688 305.759 251.688C311.01 251.688 316.805 250.668 320.426 244.888C324.047 239.109 323.957 234.576 323.595 229.137Z" fill="#74774E"/>
<path d="M154.47 153.837C155.498 156.736 157.692 160.919 157.013 164.28C156.333 167.64 153.838 168.535 151 170.06C150.631 173.214 154.522 172.736 155.344 175.324C149.01 176.438 142.707 177.8 136.415 178.572C125.984 179.853 115.818 178.497 105.422 178.009C100.188 177.811 74.246 175.955 73.5501 181.922C73.0968 185.759 82.1436 183.471 84.8028 183.229C85.3531 187.026 70.6322 186.901 67.4341 187.546C62.6834 188.55 46.5768 192.88 47.7413 199.627C49.2224 208.268 75.5289 204.197 81.3223 204.158C101.134 203.994 120.629 201.937 140.45 201.855C141.961 201.838 145.78 200.781 146.812 202.335C148.76 205.204 144.254 208.194 148.678 210.004C151.065 210.971 154.148 210.761 156.735 210.611C161.919 210.395 166.907 209.278 172.04 208.648C180.153 207.652 191.06 206.144 185.848 195.861C182.614 189.368 175.699 186.436 171.997 180.925C169.141 176.823 167.632 171.378 167.032 166.495C166.433 161.611 166.177 155.424 162.417 152.861C160.589 151.657 158.166 152.459 154.47 153.837Z" fill="#A6B2C8"/>
<path d="M154.47 153.837C155.498 156.736 157.692 160.919 157.013 164.28C156.333 167.64 153.838 168.535 151 170.06C150.631 173.214 154.522 172.736 155.344 175.324C149.01 176.438 142.707 177.8 136.415 178.572C125.984 179.853 115.818 178.497 105.422 178.009C100.188 177.811 74.246 175.955 73.5501 181.922C73.0968 185.759 82.1436 183.471 84.8028 183.229C85.3531 187.026 70.6322 186.901 67.4341 187.546C62.6834 188.55 46.5768 192.88 47.7413 199.627C49.2224 208.268 75.5289 204.197 81.3223 204.158C101.134 203.994 120.629 201.937 140.45 201.855C141.961 201.838 145.78 200.781 146.812 202.335C148.76 205.204 144.254 208.194 148.678 210.004C151.065 210.971 154.148 210.761 156.735 210.611C161.919 210.395 166.907 209.278 172.04 208.648C180.153 207.652 191.06 206.144 185.848 195.861C182.614 189.368 175.699 186.436 171.997 180.925C169.141 176.823 167.632 171.378 167.032 166.495C166.433 161.611 166.177 155.424 162.417 152.861C160.589 151.657 158.166 152.459 154.47 153.837Z" fill="#74774E" fill-opacity="0.8"/>
<path d="M351.029 146.946C351.029 143.777 348.36 141.192 345.191 141.275C345.107 141.275 344.94 141.275 344.857 141.275C343.856 141.359 342.939 141.609 342.021 142.026C339.436 142.192 336.767 142.609 334.181 142.359C332.513 142.192 330.928 141.692 329.51 140.942C328.176 139.857 326.925 138.69 325.841 137.355L325.34 136.188L325.173 136.021C325.34 133.436 325.924 130.934 327.092 128.599L327.342 128.349C327.759 127.765 328.093 127.098 328.426 126.43C328.676 126.013 328.927 125.68 329.26 125.346C329.344 125.013 329.427 124.596 329.427 124.262L329.594 124.012C330.344 122.594 330.094 120.843 328.843 119.759L328.676 119.508C327.592 118.508 325.09 119.925 323.922 119.091C322.755 118.257 333.264 119.842 332.263 119.258C327.676 116.59 312.996 110.585 307.908 109.334C302.821 108.083 290.81 101.578 288.725 100.077L279.967 93.822L263.536 81.8962C252.444 73.8067 241.434 65.6337 230.341 57.3774C225.503 53.7079 220.499 50.0384 216.329 45.6184L213.993 42.8662C213.91 42.7828 213.91 42.616 213.827 42.616H213.66C211.324 39.5303 208.155 36.945 206.153 33.6091C203.234 28.7721 201.399 23.0177 197.396 19.098C194.81 14.5945 191.39 10.6749 187.304 7.58916C183.884 5.08724 180.131 3.0023 176.127 1.58455C173.625 0.667179 170.873 0.0833974 168.204 0C165.034 0 161.948 1.75134 158.946 2.50192C156.193 3.2525 153.441 3.66948 150.605 3.83628C149.354 3.75288 148.186 4.16987 147.185 4.92044C146.268 5.67102 145.351 6.58839 144.6 7.50576L139.345 13.844C136.009 18.1806 132.756 22.6007 129.67 27.1875C128.252 29.1891 126.918 31.274 125.583 33.2755L123.915 35.8609C118.244 44.3674 112.572 52.9573 105.816 60.6299L103.731 62.8816C95.3905 71.7217 86.3826 79.8947 78.7927 89.3186C71.2028 98.7425 66.3653 107.082 60.4434 116.173C54.5216 125.263 48.1828 134.103 40.0924 141.359L39.7588 141.525L36.6728 144.277L36.4226 144.444C36.4226 144.528 36.4226 144.528 36.3392 144.528L35.0047 145.779C31.0012 148.03 30.751 150.032 27.0811 152.784C26.4973 153.284 22.9943 155.87 23.9951 155.786C61.7779 152.284 97.3088 136.104 124.666 109.834C128.086 121.427 126.834 133.853 121.163 144.528C120.746 145.278 121.079 147.53 122.247 146.613L122.914 146.112C121.58 148.28 120.329 150.365 119.161 152.534C117.993 154.702 119.578 155.87 120.412 154.452C121.246 153.034 123.665 149.448 125.333 146.946C125.834 147.363 126.417 147.697 127.085 147.947C126.584 148.948 126.167 149.948 125.75 150.866C125.333 151.783 126.668 153.868 127.418 152.284L129.17 148.447H129.337C134.675 149.031 140.013 147.113 143.766 143.277C144.099 144.277 145.1 144.945 145.601 143.527L146.185 141.692L148.77 139.857C149.02 139.691 149.187 139.357 149.187 139.023L157.528 135.854C158.529 135.771 159.613 135.437 160.53 135.02H161.031C163.366 137.189 165.535 139.524 167.536 142.026C169.038 144.945 170.539 147.864 171.874 150.949C173.208 154.035 174.459 157.037 175.627 160.206C175.71 160.54 175.877 160.957 175.96 161.374C175.794 161.541 175.627 161.874 175.543 162.124C175.21 164.376 175.21 166.711 175.46 168.963C175.377 169.13 175.377 169.297 175.293 169.38C174.042 177.386 173.875 185.559 174.793 193.649C174.793 193.982 174.96 194.316 175.21 194.483C173.625 198.652 171.874 202.656 169.955 206.575L171.707 208.076C173.542 204.324 175.21 200.487 176.711 196.484C176.961 197.151 177.378 197.318 177.795 197.068C178.212 196.818 177.879 197.568 177.879 197.819C175.46 200.654 175.877 205.658 177.962 208.493C179.38 210.412 181.465 211.662 183.801 212.079C185.719 213.247 187.887 213.998 190.139 214.331C195.311 215.082 200.732 214.498 205.903 214.331C211.074 214.164 216.829 214.081 222.251 213.831C231.592 213.414 241.184 212.33 249.775 208.493C256.947 205.241 262.619 200.07 267.874 194.399C275.881 189.729 285.305 188.561 294.397 186.393C299.985 185.893 305.49 184.809 310.828 183.057L309.576 183.641C311.912 183.057 314.331 182.557 316.583 181.89C319.835 180.472 322.921 178.637 325.757 176.552L325.924 176.385C328.76 174.467 331.429 172.299 333.931 169.964L335.933 168.129L337.851 167.212C342.355 164.877 346.692 162.124 350.779 159.039L350.946 158.872C351.279 158.121 351.53 157.371 351.78 156.62C352.364 153.368 352.03 150.032 351.029 146.946ZM31.168 152.367L36.2558 148.864H36.4226L38.0073 149.031H38.2575L44.2627 149.365C44.2627 149.531 44.2627 149.698 44.3461 149.865C40.009 150.949 35.5885 151.783 31.168 152.367ZM45.0968 149.782C44.93 149.698 44.7632 149.615 44.7632 149.448H46.7649L45.0968 149.782ZM128.169 145.612C127.919 145.612 127.668 145.528 127.418 145.362H128.336L128.169 145.612ZM279.133 187.31L280.301 186.727L280.468 186.977L279.133 187.31Z" fill="#C0BEBF"/>
<path d="M237.764 87.9843C228.006 78.9774 218.581 69.9704 210.24 59.5458C206.404 54.7087 202.734 49.7049 199.231 44.5343C197.396 41.7821 195.644 38.9466 193.893 36.1111C192.141 33.2756 187.47 27.1876 188.805 25.2695C188.888 25.1027 188.805 24.6023 188.638 24.8525C188.471 25.1027 187.887 27.0208 188.388 28.3552C189.639 31.6077 191.724 34.8602 193.476 37.8625C197.312 44.4509 201.483 50.789 206.07 56.8771C215.078 68.8029 225.337 80.5619 237.18 89.7356C238.014 90.4028 238.348 88.4847 237.764 87.9843Z" fill="#C0BEBF"/>
<path d="M288.808 111.335C275.463 107.583 262.368 103.83 249.274 99.2429C248.857 99.0761 248.773 99.9935 249.19 100.077C262.035 105.164 275.213 109.251 288.641 112.336C289.142 112.503 289.225 111.419 288.808 111.335Z" fill="#C0BEBF"/>
<path d="M131.255 113.003C131.088 112.253 130.254 109.751 129.503 107.749C128.753 105.748 128.586 104.997 128.085 103.663C127.585 102.329 127.502 103.746 127.668 104.08C128.502 106.915 129.42 109.667 130.254 112.503C130.254 112.837 130.337 113.254 130.421 113.587C129.67 111.419 128.919 109.251 128.002 107.166C127.835 106.832 127.585 107.166 127.585 107.499C128.502 110.668 129.587 113.837 130.671 117.006C130.921 117.674 131.422 117.006 131.422 116.589C131.588 117.423 131.755 118.174 132.005 119.008C133.09 123.678 133.674 128.349 134.508 133.019C134.591 133.519 135.091 133.352 135.008 132.935C134.758 126.18 133.173 119.425 131.255 113.003Z" fill="#C0BEBF"/>
<path d="M262.618 107.166C264.286 102.579 259.616 98.6594 258.865 97.325C258.114 95.9906 258.114 92.488 260.7 91.654C263.285 90.82 271.209 98.3258 274.212 99.2431C280.384 100.911 283.053 95.9072 282.135 95.4069C281.218 94.9065 277.298 91.7374 276.13 90.9868C274.962 90.2362 266.455 86.4833 266.372 86.3999L262.451 84.0648L250.775 76.6425C246.187 71.722 241.683 66.8016 235.261 64.4664C233.593 62.2147 232.092 59.8796 230.34 57.7113C226.003 52.7908 219.08 50.1221 213.242 46.6194L212.158 45.4519C211.741 45.2851 211.407 45.0349 211.073 44.7013C210.323 43.8673 209.656 42.9499 209.239 41.9492L208.488 40.7816C208.238 40.5314 208.071 40.1978 207.987 39.8642L207.821 39.614H207.737C203.984 32.7755 199.814 26.2705 195.06 20.0991C193.558 17.1801 191.723 14.5114 189.638 12.0095C187.386 9.67439 187.97 7.67285 185.218 6.1717C182.465 4.67055 176.21 1.50145 173.624 4.08676C171.039 6.67208 162.448 3.91997 159.445 4.58715C156.443 5.25433 160.196 5.25433 160.947 7.58945C161.781 10.008 163.532 12.0095 165.784 13.2605C168.203 14.7616 170.955 15.7624 173.374 17.4303C175.96 19.3485 178.295 21.6002 180.297 24.1855C184.3 29.4396 186.302 35.5276 187.803 41.8658C189.305 48.204 190.973 54.4588 193.058 60.6302C196.311 70.2209 198.813 83.0641 209.405 86.9837C214.91 88.9853 220.915 89.3189 225.503 93.4053C230.09 97.4918 232.425 101.828 236.679 105.415C246.187 113.587 247.188 113.171 251.859 113.087C253.277 113.087 261.784 109.501 262.618 107.166Z" fill="#9DA5B0"/>
<path d="M187.053 53.374C185.552 47.7864 185.385 41.4482 182.132 36.6111C180.631 34.276 177.795 33.025 175.043 33.6088C173.625 33.7756 172.207 34.1092 170.789 34.6096C169.705 34.8598 167.87 34.8598 167.536 36.1107C167.203 37.3617 168.37 38.0289 169.038 38.9462C169.872 40.364 170.539 41.9485 170.872 43.6165C171.623 46.035 172.124 48.5369 172.29 51.1222C172.457 53.5408 172.791 55.9593 173.208 58.3778C174.125 64.5492 175.543 70.6372 177.462 76.5584C178.462 79.5607 179.63 82.4797 180.965 85.3986C182.132 87.9005 183.217 90.8194 185.218 92.9043C186.636 94.3221 188.471 95.2394 190.473 95.573C192.058 95.9066 194.059 96.4904 195.394 94.9893C196.728 93.4881 196.144 91.8202 196.228 90.4024C196.395 87.3167 196.144 84.231 195.644 81.1453C194.476 74.9739 192.224 68.9693 190.139 63.0481C188.888 59.879 187.887 56.6265 187.053 53.374Z" fill="#9DA5B0"/>
<path d="M123.999 59.1287C123.832 58.2947 123.332 58.2947 122.915 58.6283H122.331C122.08 58.6283 121.914 58.7951 121.83 58.9619C118.828 64.0492 114.324 67.9688 111.405 73.0561C110.07 75.3912 108.902 77.8097 107.568 80.1448C102.647 85.6491 97.2256 90.6529 91.4706 95.2398L79.7104 104.413C75.4567 107.666 68.951 103.746 66.1986 108.25C61.4445 115.756 55.6895 122.261 51.0188 129.016C47.9328 133.436 43.5957 136.938 39.6756 140.608C35.7555 144.277 28.1656 151.199 27.9154 151.45C26.6643 152.617 25.9136 154.202 25.7468 155.953C25.6634 156.287 25.7468 156.954 26.1639 157.121C30.5844 158.705 34.8381 157.704 39.0918 156.203C43.3455 154.702 48.2664 152.784 52.7703 150.782C61.5279 146.779 69.9519 141.859 77.2082 135.521C84.4645 129.182 91.1369 120.342 96.9753 112.003C99.7277 108.083 101.98 103.746 103.481 99.1594C105.316 93.9054 106.567 88.4846 109.236 83.5641C111.905 78.6437 116.409 74.307 120.246 69.8036C122.915 66.6345 124.749 63.2986 123.999 59.1287Z" fill="#9DA5B0"/>
<path d="M128.002 109.751C125.666 109.167 123.248 109.167 120.912 109.668C120.078 109.835 119.828 111.085 120.078 111.836C119.077 112.086 118.16 112.336 117.242 112.753C116.992 112.92 116.992 113.587 117.242 113.671C120.328 114.255 123.665 113.838 126.834 114.171C127.501 114.171 127.751 113.337 127.668 112.587H127.835C129.003 112.753 129.003 110.085 128.002 109.751Z" fill="#C0BEBF"/>
<path d="M127.752 119.008C127.669 116.339 127.502 113.17 124.416 112.336C121.33 111.502 119.912 113.17 119.245 115.505C118.577 117.84 117.91 120.759 116.159 123.428L111.738 129.683C109.403 132.935 106.233 136.438 106.233 140.691C106.233 144.944 108.819 146.863 111.238 149.281C113.657 151.7 117.91 154.702 122.331 154.118C122.915 154.035 123.248 153.534 123.248 152.951C123.415 151.783 123.582 150.615 123.665 149.364C123.915 149.281 123.999 149.031 124.082 148.781C126.751 139.107 128.002 129.099 127.752 119.008ZM119.161 141.609C119.161 141.525 119.161 141.442 119.245 141.358C119.412 141.358 119.578 141.192 119.829 140.941V140.775C119.745 140.941 119.662 141.192 119.662 141.442C119.495 141.442 119.245 141.442 119.161 141.609ZM109.82 143.944C109.987 144.194 110.237 144.277 110.487 144.277L110.654 144.611C110.57 144.694 110.57 144.861 110.57 144.944C110.237 144.611 109.987 144.277 109.82 143.944ZM124.666 115.255C125.5 116.006 126.001 117.09 126.001 118.174C125.834 116.839 125.083 115.755 123.915 115.088L124.666 115.255ZM120.746 151.199L120.996 150.615V150.282H121.497C121.497 150.615 121.413 150.949 121.413 151.283L120.746 151.199Z" fill="#9DA5B0"/>
<path d="M276.714 91.4033C259.95 78.31 243.018 66.1339 226.337 52.9572C220.749 48.6205 215.077 44.2004 210.657 38.6128C206.236 33.0252 202.4 25.1858 198.062 18.6808C195.727 15.0114 192.808 11.6755 189.388 8.92335C187.804 7.67239 185.885 6.17124 183.967 5.58746C182.049 5.00367 180.964 6.67162 181.131 8.25617C181.465 9.25694 181.882 10.2577 182.549 11.0917C183.216 12.1758 183.8 13.26 184.384 14.3442C184.968 15.4283 186.803 18.5974 187.887 20.7658C190.055 25.1024 192.057 29.6059 193.642 34.1928C193.976 35.3603 194.393 36.6113 194.726 37.8622C196.561 44.534 197.395 51.456 198.897 58.2946C200.398 65.1332 202.817 71.8884 207.237 77.2258C207.988 78.31 208.989 79.0605 210.24 79.4775C211.407 79.8111 212.992 79.3107 213.326 78.1432C213.659 76.9756 213.075 76.0582 212.575 75.1409C209.823 70.554 217.162 77.6428 225.002 84.4814L244.436 101.494C245.937 102.829 247.605 104.163 249.607 104.33C251.609 104.497 253.777 102.829 253.277 100.827C252.777 98.8257 250.024 98.4921 248.189 97.3246C246.354 96.157 245.02 91.1532 247.022 88.4844C249.023 85.8157 252.777 84.815 256.113 85.4821C259.449 86.1493 262.285 88.0675 264.704 90.3192C267.122 92.5709 268.624 94.4056 271.126 95.5732C273.628 96.7408 278.549 96.157 279.967 93.8219C279.216 93.2381 277.381 91.9871 276.714 91.4033Z" fill="#858F9C"/>
<path d="M155.358 67.9688C155.108 64.9665 154.107 59.5457 150.521 58.9619C148.853 58.6283 147.435 59.6291 146.267 60.6299C145.1 61.6306 142.014 64.8831 139.928 67.0515C136.008 70.9711 131.671 74.8074 128.418 79.3109C123.331 86.5664 122.08 96.1571 121.663 105.331C119.577 117.34 119.327 130.1 125.416 140.942C125.749 141.609 126.5 141.275 126.667 140.691C128.502 134.687 131.338 129.099 135.007 124.095C138.01 119.925 141.513 116.089 144.099 111.586C146.267 107.666 147.602 103.329 147.769 98.8259C147.935 95.7402 147.769 92.7379 148.269 89.6521C148.769 86.5664 150.521 83.6475 152.106 80.812C153.69 77.9765 155.775 72.5557 155.358 67.9688Z" fill="#858F9C"/>
<path d="M122.747 115.839C117.993 108.083 108.152 118.841 104.148 121.843C99.3105 125.596 93.9725 128.682 88.3009 131.017C83.5468 132.935 78.5425 134.353 73.7049 136.188C68.8674 138.023 63.9464 141.859 56.3565 147.113C54.188 148.697 53.0203 149.198 49.3504 150.699C45.6806 152.2 40.8431 153.451 38.1741 152.534C35.5051 151.616 31.0846 148.28 28.6658 150.699C26.5807 152.784 24.2453 154.535 21.6597 155.953C20.6589 156.537 17.8231 157.788 19.241 159.289C19.658 159.622 20.075 159.873 20.5755 160.039C22.6606 160.707 24.7457 161.124 26.8309 161.457C29.6667 161.874 32.5025 162.541 35.2549 163.375C38.0907 164.293 40.843 165.293 43.7622 166.044C44.9299 166.378 53.6875 167.295 56.0229 167.879L58.4417 168.129H59.1089C59.1089 168.129 64.6137 167.712 66.115 167.462L77.0412 165.71C81.128 165.043 85.2149 164.96 89.3018 164.459C93.3887 163.959 95.307 162.041 98.0594 160.623C99.5607 159.789 101.145 159.289 102.563 158.455C103.981 157.621 105.483 156.203 106.984 155.202C108.485 154.202 110.57 153.951 112.655 153.451C114.991 153.034 117.076 151.866 118.744 150.115C121.079 147.28 121.163 143.61 120.996 140.107C120.662 134.77 121.246 129.433 122.831 124.345C123.665 121.677 124.332 118.424 122.747 115.839Z" fill="#518367"/>
<path d="M319.751 172.966C317.082 171.965 314.08 172.299 311.327 171.131C308.325 169.714 305.656 167.629 303.487 165.127C299.317 160.54 296.564 154.952 292.644 150.115C289.225 145.778 284.637 142.443 279.466 140.524C272.961 138.023 266.038 137.355 259.199 136.271C255.112 135.771 251.108 134.853 247.272 133.519C243.685 132.268 240.266 130.517 236.512 129.599C235.928 129.433 235.511 130.016 235.511 130.517C234.844 135.27 237.43 139.107 239.515 143.11C242.017 148.03 244.102 153.201 245.77 158.538C248.356 166.711 251.359 175.385 256.78 182.223C256.78 182.723 256.863 183.14 257.113 183.557C260.366 187.227 264.286 193.565 269.374 194.649C272.293 195.316 275.546 194.399 278.465 193.899C281.635 193.315 284.637 192.481 287.64 191.313C290.476 189.979 293.478 188.812 296.481 187.894C300.485 186.81 304.655 186.56 308.658 186.143C312.662 185.726 320.669 186.226 322.837 181.639C324.339 178.554 323.171 174.217 319.751 172.966Z" fill="#729781"/>
<path d="M165.785 183.725C165.785 183.558 165.618 183.224 165.368 183.224C165.118 183.224 164.951 183.558 164.951 183.725C164.868 184.225 164.784 184.642 164.784 185.142C164.868 185.392 165.118 185.726 165.368 185.726C165.702 185.643 165.952 185.392 165.952 185.059C165.952 184.642 165.868 184.141 165.785 183.725Z" fill="#518367"/>
<path d="M166.201 193.315L165.951 192.482C165.868 192.148 165.701 191.814 165.367 191.898C165.034 191.981 164.95 192.398 164.95 192.732V193.649C165.034 193.983 165.2 194.65 165.701 194.566C166.201 194.483 166.285 193.732 166.201 193.315Z" fill="#518367"/>
<path d="M160.196 4.50357C155.442 4.08658 149.603 3.6696 145.433 6.7553C145.183 7.08889 145.016 7.42248 145.016 7.83946C144.849 8.25645 144.933 8.92363 145.35 9.09042C145.767 9.25722 146.684 9.17382 147.268 9.34061C147.852 9.50741 149.52 9.6742 150.187 11.1754L150.437 12.1761C150.688 13.1769 151.188 14.1777 151.855 14.9282C152.106 15.1784 152.439 15.1784 152.689 14.9282C154.191 13.4271 155.025 11.1754 156.86 10.0078C158.695 8.84023 159.696 9.00703 160.696 7.58927C161.697 6.17152 160.863 4.50357 160.196 4.50357Z" fill="#D5D5D5"/>
<path d="M152.107 18.7643V18.5975C152.107 18.4307 152.023 18.1805 151.856 18.0971V17.6802C151.856 17.1798 151.606 16.596 151.106 16.5126C150.605 16.4292 149.354 18.5975 149.104 19.5983C148.854 20.5991 148.603 21.85 148.437 22.9342L147.936 24.4353C147.519 25.6029 146.852 27.2709 147.352 28.5218C147.519 28.9388 147.769 29.2724 148.186 29.4392C148.353 29.6894 148.603 29.8562 148.854 29.9396C149.688 30.1064 150.438 29.3558 150.939 28.5218C151.439 27.6878 150.939 28.4384 151.022 28.4384C151.689 27.4376 152.107 26.2701 152.107 25.0191C152.107 24.8523 152.023 24.6021 151.94 24.4353C152.44 22.6006 152.44 20.6825 152.107 18.7643Z" fill="#D5D5D5"/>
<path d="M149.771 34.1098V33.943C149.854 33.526 149.354 33.2758 149.187 33.6928C149.02 34.1098 148.77 34.6102 148.603 34.9438C148.353 35.5276 148.27 36.1947 148.27 36.8619C148.27 37.4457 148.853 38.2797 149.354 37.5291C149.604 36.8619 149.771 36.1947 149.771 35.5276C149.854 35.0272 149.854 34.6102 149.771 34.1098Z" fill="#D5D5D5"/>
<path d="M150.438 50.7052C150.021 47.7029 150.021 44.5338 149.27 41.6149C149.187 41.2813 148.77 41.0311 148.603 41.5315C147.519 44.5338 148.019 48.4535 148.603 51.4558C149.187 54.4581 150.605 52.123 150.438 50.7052Z" fill="#D5D5D5"/>
<path d="M384.308 140.859C384.808 140.025 385.559 139.357 386.56 139.191L393.232 137.94C394.9 137.689 395.985 136.188 395.818 134.52C395.651 133.269 394.65 132.269 393.399 132.018C384.058 129.683 373.465 130.684 363.54 129.767C352.03 128.766 333.68 118.758 322.504 115.923C311.328 113.087 306.74 111.336 296.398 116.089C294.48 117.007 290.977 121.093 290.393 123.095C289.809 125.096 292.812 128.182 295.481 129.35L320.252 140.775C326.007 143.444 331.512 146.113 337.684 147.78C340.937 148.698 348.86 152.534 345.608 157.121C345.024 157.955 344.19 158.622 343.189 158.956C340.52 160.04 337.767 159.54 335.098 159.873C328.092 160.79 331.262 171.799 322.921 171.132C321.92 171.132 321.003 170.882 320.085 170.548C314.664 168.63 309.493 165.878 304.822 162.458C300.735 159.54 296.315 156.954 293.562 152.701C295.647 155.953 297.816 159.206 299.985 162.458L299.401 163.126L306.991 168.963C299.151 167.212 290.977 168.63 284.137 172.883C278.132 176.636 273.795 182.39 269.458 188.061L257.781 203.49L338.018 193.899C348.86 192.565 360.12 191.147 369.462 185.393C371.714 183.975 374.049 182.14 374.883 179.555C375.467 177.72 375.05 175.802 373.799 174.384C371.046 171.132 367.043 174.968 364.457 172.8C363.206 171.632 362.956 169.797 363.957 168.38C365.708 165.794 368.794 165.628 371.63 165.461L401.072 164.21C404.492 164.043 408.078 163.876 410.998 161.875C411.998 161.207 412.833 160.29 413.333 159.206C416.002 153.702 410.164 148.781 404.659 148.114C399.154 147.447 394.65 148.948 389.729 148.197C387.811 148.031 385.976 147.113 384.641 145.696C383.557 144.278 383.39 142.36 384.308 140.859Z" fill="#729781"/>
<path d="M177.378 171.715C177.461 167.378 176.21 162.791 175.459 158.788C173.875 150.449 170.789 142.109 164.7 135.937C164.116 135.354 163.366 134.853 162.782 134.186C162.198 133.519 160.863 130.934 159.362 130.767C157.861 130.6 154.441 132.768 152.606 133.769C150.771 134.77 147.435 137.022 144.766 138.606C140.179 141.191 134.591 143.61 130.42 139.023C128.585 137.188 127.501 134.603 127.584 132.018C127.584 130.6 128.001 129.266 127.835 127.764C127.668 126.263 127.418 124.762 127.084 123.261C126.75 120.926 126.417 116.506 124.415 114.921C122.413 113.337 120.662 118.758 120.328 120.342C119.995 121.927 119.995 123.678 119.744 125.346C119.494 127.014 118.16 130.1 117.576 132.602C116.325 137.689 114.657 142.693 113.239 147.696C111.821 152.7 109.235 157.037 112.988 160.54C113.405 160.957 113.739 161.457 113.906 162.041C114.657 162.958 115.574 163.876 116.241 163.876C118.326 165.293 120.745 166.211 122.747 167.879C124.415 169.046 124.749 171.214 123.664 172.882L123.581 172.966C122.664 174.217 121.412 175.134 119.995 175.551C118.577 176.135 117.075 176.469 115.657 176.969C112.571 178.136 108.568 180.972 111.821 184.224C112.988 185.392 114.907 185.892 116.491 186.226C119.911 186.977 123.331 186.893 126.75 187.06C132.255 187.394 137.426 187.811 142.264 190.646C147.101 193.482 151.522 199.987 156.443 204.74C157.861 205.991 159.445 206.992 161.197 207.743L161.781 208.16C165.117 209.494 168.87 210.328 172.29 211.746H172.457C173.207 211.579 173.374 210.661 173.207 210.078C170.872 201.655 172.04 192.898 174.208 184.641C175.293 180.305 177.378 176.135 177.378 171.715Z" fill="#729781"/>
<path d="M277.382 201.822C281.802 198.986 269.792 170.131 265.705 166.544C260.033 161.624 246.188 159.539 246.188 159.539C250.525 178.554 255.696 189.979 246.605 189.979C240.516 189.979 237.681 195.15 232.843 194.066C230.424 193.565 218.08 189.229 214.577 187.978C210.157 186.476 205.486 185.559 200.815 185.225C198.063 184.892 195.227 185.059 192.475 185.559C190.89 185.976 189.556 187.06 188.138 187.894C186.72 188.728 179.63 189.646 177.545 187.561C175.46 185.476 176.377 181.473 176.794 177.97C177.795 172.966 177.545 167.712 176.127 162.792C176.127 162.792 167.286 177.636 164.951 184.475C161.948 193.232 161.948 202.322 161.948 208.076C161.948 208.076 171.874 212.163 175.543 213.247C180.381 214.665 185.302 215.749 190.306 216.583C200.899 218.334 211.658 218.668 222.334 217.417C232.426 216.249 242.351 212.997 251.526 208.827C258.699 205.574 268.541 207.659 277.382 201.822Z" fill="#518367"/>
</svg>
