<svg width="81" height="89" viewBox="0 0 81 89" fill="none" xmlns="http://www.w3.org/2000/svg">
<g clip-path="url(#clip0_152_11036)">
<path d="M74.689 50.6426C74.689 50.6426 77.1083 56.7608 74.3592 59.6408C72.809 61.2628 71.0375 62.398 68.621 63.3195C66.7468 64.0315 64.4865 64.6165 61.6405 65.1986C61.6405 65.1986 61.4814 68.5335 58.7063 70.1021C56.378 71.4193 51.8921 73.32 48.1163 72.1371C47.3932 71.9118 46.6991 71.5724 46.0483 71.0958C46.0483 71.0958 35.9413 68.1667 32.4489 62.3922C31.078 60.1246 30.8423 55.6631 30.8423 55.6631C30.8423 55.6631 26.3057 55.0377 25.2877 49.7688C24.6629 46.5421 24.7916 45.4675 25.0924 44.1229C25.2819 43.2707 25.5407 42.3102 25.7215 40.6247C26.1872 36.2773 26.0049 30.5346 29.7909 29.2217C33.5769 27.9074 38.3115 29.4615 38.3115 29.4615C38.3115 29.4615 36.5979 26.1409 36.2002 20.9543C35.8025 15.7677 36.0642 9.21191 36.2248 6.30736C36.3853 3.39992 37.7099 -0.528665 42.7367 1.91803C47.7634 4.36618 50.3043 8.43342 50.3043 8.43342C50.3043 8.43342 50.9507 6.5009 53.5306 5.5332C56.1091 4.56694 60.741 6.68866 64.66 10.7126C68.5791 14.7379 72.5501 21.8079 73.2009 29.5929C73.2009 29.5929 74.4171 25.244 76.3014 25.5343C78.1843 25.8232 78.8307 30.5476 78.9883 34.5571C79.143 38.5665 78.5024 45.0935 74.6919 50.6411L74.689 50.6426Z" fill="#8AA7D6"/>
<path d="M62.0152 49.3312C61.1706 49.7645 60.5806 50.8333 59.9993 51.5555C59.3283 52.3889 58.6269 53.1934 57.9168 53.9935C57.1374 54.8702 56.3377 55.7325 55.5192 56.5775C55.9761 54.8529 56.5271 53.1529 57.1764 51.4876C57.1981 51.4313 57.2082 51.3793 57.2097 51.3287C57.3283 51.0442 57.3225 50.699 57.3268 50.4044C57.3312 49.9465 57.0087 49.4959 56.4924 49.6273C56.3811 49.6562 56.2914 49.7227 56.2278 49.8079C55.6479 50.3914 55.3716 51.1511 55.068 51.8993C54.7166 52.7673 54.3753 53.6382 54.0499 54.5164C53.4179 56.2236 52.8467 57.9525 52.3912 59.7145C52.0267 61.1242 51.752 62.5555 51.577 63.9999C50.6312 59.2769 48.0831 49.4944 48.0687 49.402C48.0224 49.0958 43.5915 49.1406 43.6565 49.4193C44.2871 52.1477 45.94 58.9418 45.9414 58.9462C45.4541 58.666 42.3145 55.7961 41.2762 54.7258C40.2755 53.696 38.9132 51.6682 37.9964 50.5661C37.496 49.9639 36.9826 49.3702 36.4852 48.7651C36.0528 48.2379 35.6739 47.6385 35.201 47.1402C35.2401 47.0059 35.1967 46.8455 35.0622 46.7661C34.679 46.5393 34.073 46.6217 33.752 46.9105C33.7129 46.9452 33.6941 46.9871 33.6884 47.029C33.6276 47.0997 33.6016 47.2008 33.6536 47.3077C35.2343 50.556 37.0578 53.6498 39.3673 56.4518C40.504 57.8311 41.7419 59.1325 43.094 60.3111C44.1656 61.2455 45.3659 62.0053 46.7874 62.9282C46.9537 63.8121 47.107 64.6975 47.2473 65.5843C47.6739 68.3011 47.9732 71.0367 48.1511 73.7795C48.3319 76.5742 48.2422 79.3806 48.4678 82.171C48.5098 82.6939 56.8626 83.3164 56.9306 82.8138C57.1287 82.7054 57.2675 82.4974 57.1735 82.2562C55.9356 79.0469 54.7802 75.8318 53.7766 72.5633C53.8836 69.1836 53.9154 65.0355 54.449 61.7482C54.5286 61.26 54.6124 60.662 54.7079 60.1767C56.3782 58.536 57.9067 56.8317 59.1547 55.3137C59.7954 54.5337 60.4288 53.7379 60.9913 52.9016C61.4656 52.1953 62.3521 51.2204 62.3102 50.335C62.3102 50.3264 62.3073 50.3177 62.3058 50.3105C62.4027 50.1126 62.475 49.9104 62.5098 49.7053C62.5575 49.4222 62.2914 49.1897 62.0152 49.3312Z" fill="#8C573B"/>
<path d="M44.8264 54.2058C43.4164 53.4302 41.6218 53.1803 40.154 53.9617C39.3441 54.3906 38.6963 55.0854 38.3478 55.8985C36.4678 54.5293 33.9501 52.8986 31.5929 52.5823C30.5849 52.448 29.6247 52.5043 28.6702 52.8784C26.582 53.6858 26.3781 55.5721 27.065 56.9197C29.1402 60.9999 34.8351 64.3089 39.253 63.6965C43.4121 63.1216 46.4345 58.8161 46.4345 58.8161C47.1113 58.91 48.1554 58.338 48.3492 57.74C48.6847 56.7102 46.4042 55.0752 44.825 54.2072L44.8264 54.2058Z" fill="#FEFFFF"/>
<path d="M54.4101 27.2286C54.3797 27.0365 54.1281 27.0509 54.0341 27.1751C53.1216 28.3638 52.8656 29.9295 52.4491 31.3391C51.9979 32.8716 51.4889 34.3896 50.896 35.8743C50.3103 37.3432 49.5872 38.7312 48.7745 40.0903C47.9907 41.4032 47.2778 42.6757 46.8815 44.1561C46.7948 44.4797 47.2604 44.6905 47.4368 44.393C48.2308 43.0613 49.1519 41.8004 49.9719 40.4817C50.8193 39.1197 51.5453 37.7029 52.1671 36.2267C52.7875 34.7506 53.2734 33.2254 53.7116 31.6887C54.1194 30.253 54.6472 28.7278 54.4086 27.23L54.4101 27.2286Z" fill="#8C573B"/>
<path d="M63.2632 35.9162C63.2256 35.1204 63.149 34.3304 63.0362 33.5418C62.935 32.8326 62.9089 32.0007 62.29 31.5385C62.1772 31.4547 62.0008 31.5226 61.9342 31.6309C61.5958 32.1798 61.7896 32.8268 61.8778 33.4248C62.0065 34.2972 62.1511 35.1753 62.1815 36.0578C62.2408 37.7765 62.0933 38.9262 62.0123 40.788C61.9979 41.1173 62.9104 41.37 62.9581 41.0277C63.1996 39.3263 63.3442 37.635 63.2618 35.9177L63.2632 35.9162Z" fill="#8C573B"/>
<path d="M47.1749 30.9116C47.1793 29.6753 47.2574 28.4505 47.3528 27.2213C47.3702 26.996 47.3991 26.7563 47.4323 26.5093C46.5487 26.024 45.6102 25.6759 44.6832 25.3062C44.6225 26.3316 44.6023 27.3383 44.5907 28.2656C44.5632 30.526 44.6211 32.7849 44.7483 35.0395C44.7845 35.6692 44.8279 36.2961 44.8785 36.9229C45.7519 37.0197 46.6268 37.0428 47.5003 37.0486C47.3687 35.0048 47.1677 32.9698 47.1749 30.9116Z" fill="#8C573B"/>
<path d="M80.6079 33.5953C80.4517 29.5858 78.1813 25.8247 76.2985 25.5359C74.4141 25.2456 72.8726 27.0828 72.8726 27.0828C72.2218 19.2978 68.8581 13.4367 64.9391 9.41136C61.0201 5.38745 56.3881 3.26717 53.8097 4.23198C51.2298 5.19968 50.5833 7.1322 50.5833 7.1322C50.5833 7.1322 48.0425 3.06496 43.0157 0.616816C37.989 -1.82988 34.8827 3.59792 33.6246 6.54147C32.5284 9.10805 32.2059 16.6778 33.1155 20.0359C33.5407 21.603 35.4554 23.9125 36.861 25.2196C37.746 25.9518 38.7641 26.5151 39.8588 26.8416C41.0504 27.1954 42.2999 27.3456 43.5407 27.2026C44.7236 27.0698 45.681 26.5166 46.6788 27.4352C47.5595 28.2469 48.4011 28.9907 49.4423 29.606C50.4546 30.2069 51.5277 30.7023 52.6369 31.1038C54.8596 31.9097 57.1994 32.3705 59.5378 32.7171C60.9073 32.9193 62.31 33.149 63.7012 32.9901C64.8364 32.8601 65.7692 32.2694 66.8089 31.8678C67.2601 31.6931 67.5219 32.1841 67.5335 32.5799C67.545 33.0045 67.4655 33.7686 67.4076 34.0993C67.1763 35.4007 66.0121 36.7266 65.0591 37.5426C64.0454 38.4121 62.8697 39.0736 61.5884 39.4809C59.2225 40.2334 56.7453 39.816 54.5573 38.7559C52.4286 37.7232 51.0504 35.7993 48.9709 34.6828C47.9586 34.1398 46.7034 33.9202 45.5595 33.7455C44.9478 33.6516 43.8024 33.4999 43.6781 33.2891C43.5204 33.0204 42.5024 31.6873 42.0642 31.2757C40.9434 30.2227 39.2992 29.0326 37.8878 28.7019C37.8878 28.7019 33.1531 27.1478 29.3671 28.4621C25.5783 29.7721 22.9839 34.8287 22.9998 38.3341C23.0071 40.0283 24.1206 43.3199 25.0909 44.123C26.0512 45.0401 27.0852 45.8735 28.1553 46.6693C31.023 48.8012 34.2522 50.556 37.8126 51.2306C39.5985 51.57 41.4076 51.6451 43.2124 51.3865C45.049 51.1222 46.7916 50.4925 48.5501 49.9379C48.5949 49.9234 48.8379 49.8599 49.0172 49.8064C49.1791 50.0736 49.4351 50.3293 49.6506 50.5286C50.2551 51.0905 50.9969 51.4602 51.7706 51.7418C53.5508 52.3875 55.5523 52.4857 57.4322 52.5637C59.4886 52.6489 61.5537 52.6922 63.5927 52.3672C63.2254 54.0831 64.5197 55.9535 65.8588 56.9458C67.6448 58.2702 71.3787 59.8734 73.9138 60.0872C77.5118 60.3905 79.587 58.8451 80.6152 56.862C82.8379 52.5767 74.6889 50.6427 74.6889 50.6427C78.4995 45.095 80.7627 37.6047 80.6079 33.5953Z" fill="#FEFFFF"/>
<path d="M56.4722 43.9237C55.3847 43.9945 54.3088 44.305 53.2372 44.4942C52.0485 44.7036 50.841 44.7816 49.6349 44.7383C47.2545 44.6545 45.1389 43.9829 42.9523 43.1149C41.1128 42.384 38.9697 42.2338 37.6783 43.9656C37.3457 44.4119 37.0608 44.4234 36.5156 44.3108C35.9458 44.1923 35.4151 43.9569 34.9176 43.6651C33.9718 43.112 33.1504 42.3696 32.3637 41.6185C30.4693 39.8146 28.9292 37.7506 27.3731 35.6693C27.0969 35.2996 26.5662 35.6087 26.7527 36.0261C27.7057 38.1565 29.1548 40.0644 30.7412 41.7817C32.2263 43.3893 34.0065 45.2221 36.2466 45.7161C37.2676 45.9414 38.1569 45.8302 38.7961 44.9564C39.483 44.0161 40.4433 43.8616 41.5582 44.1577C42.7947 44.4855 43.94 45.0936 45.1707 45.4532C46.3261 45.7898 47.5163 46.0079 48.7166 46.1176C50.0615 46.2404 51.4136 46.2072 52.7527 46.0324C54.0976 45.8576 55.5915 45.5731 56.6992 44.7527C57.0188 44.5159 56.9668 43.8934 56.4722 43.9251V43.9237Z" fill="#E0ECFF"/>
<path d="M68.1323 23.9139C67.5321 24.4049 67.1475 25.1907 66.7425 25.8348C66.2971 26.5469 65.8112 27.2387 65.2111 27.8338C64.0932 28.943 62.4229 29.6768 60.8467 29.1972C60.1699 28.9907 59.9154 29.9887 60.5589 30.227C62.3767 30.9015 64.3261 30.3671 65.8141 29.2203C66.6095 28.6065 67.2501 27.8453 67.7982 27.0134C68.3275 26.2104 68.9103 25.2325 68.9826 24.2605C69.0173 23.7983 68.436 23.6698 68.1352 23.9153L68.1323 23.9139Z" fill="#E0ECFF"/>
<path d="M51.1315 9.89664C50.945 9.78976 50.7541 9.89953 50.6818 10.0757C50.4678 10.6044 50.6095 11.198 50.475 11.7497C50.3087 12.4314 49.8879 12.9399 49.2863 13.3024C48.3535 13.8642 47.2111 14.2268 46.7613 15.3042C46.5459 15.8199 46.5618 16.3687 46.5516 16.9161C46.5473 17.1414 46.5907 17.5458 46.3984 17.7148C46.1959 17.8925 45.7649 17.8015 45.5249 17.774C44.6399 17.6758 43.7693 17.4794 42.8973 17.3061C42.138 17.1544 41.347 16.8699 40.5733 16.8612C40.3058 16.8583 40.099 17.2425 40.3362 17.4259C41.0332 17.9676 42.0166 18.2492 42.8597 18.4948C43.7852 18.7634 44.7715 18.9902 45.7331 19.0927C46.4331 19.1664 47.1605 19.0046 47.5625 18.3835C47.9457 17.7914 47.8589 17.0822 47.8806 16.4164C47.9327 14.8623 50.0325 14.6211 50.919 13.5725C51.6377 12.7218 52.3969 10.6203 51.1286 9.89664H51.1315Z" fill="#E0ECFF"/>
</g>
<g clip-path="url(#clip1_152_11036)">
<path d="M66.8156 86.4294C65.7901 83.8458 63.0764 82.4123 60.484 81.7953C58.7658 81.385 57.0004 81.2448 55.255 80.9905C55.1479 80.9746 55.0393 80.9572 54.9322 80.9413C54.0281 80.8012 53.1283 80.6249 52.2513 80.359C51.3957 80.1004 50.5645 79.742 49.6818 79.5729C48.3706 79.323 46.6824 79.6582 46.1696 81.0353C45.3126 80.2954 44.4085 79.6062 43.463 78.9819C42.5117 78.3519 41.5105 77.7089 40.4293 77.3231C39.5123 76.998 38.4811 76.9113 37.6127 77.417C36.9785 77.7855 36.49 78.4198 36.4643 79.1524C36.3401 78.9834 36.2129 78.8158 36.0887 78.6453C36.0016 78.5297 35.9144 78.4126 35.8273 78.2956C33.3149 74.9374 30.5997 71.5692 26.7262 69.7528C24.7594 68.8295 22.5499 68.3208 20.3731 68.578C18.4064 68.8092 16.5953 69.7066 15.2384 71.1516C13.8701 72.6124 13.026 74.5993 13.2773 76.6093C13.1059 76.4142 12.8803 76.3073 12.6346 76.2711C12.199 76.2032 11.7076 76.3549 11.3634 76.6295C10.8064 77.0746 10.6836 77.7508 10.7335 78.4415C9.95798 78.2724 9.15099 78.2204 8.37257 78.3794C6.80002 78.7002 4.86039 80.4139 4.84325 82.1754C4.11196 81.2737 2.95361 80.7029 1.77669 80.8749C1.03969 80.9818 0.482658 81.4456 0.352683 82.1927C0.331258 82.3054 0.318403 82.4456 0.314119 82.606C0.279839 83.6478 0.646912 85.493 2.66795 85.5581C2.66795 85.6043 11.6077 86.532 15.1827 86.5045C15.4526 86.5031 16.5082 86.5479 18.1364 86.6274C18.3207 86.636 18.5135 86.6476 18.7134 86.6563C20.9544 86.769 24.0896 86.9366 27.6674 87.1302C27.946 87.1447 28.2259 87.1606 28.5101 87.175C30.684 87.2935 33.0036 87.4207 35.3731 87.5507C35.5731 87.5608 35.7759 87.5724 35.9787 87.5825C40.0651 87.8065 44.2728 88.0377 48.1149 88.2486C48.3335 88.2588 48.552 88.2718 48.7677 88.2833C49.5875 88.3281 50.3888 88.3715 51.1686 88.4148C51.3558 88.4235 51.54 88.435 51.7243 88.4452C57.9659 88.7818 62.5979 89.0217 62.9949 89.0044C64.0733 88.9567 65.3288 88.7327 66.2372 88.1157C66.5985 87.8701 66.8928 87.5204 66.9742 87.0825C67.0242 86.8152 67.027 86.5248 66.8185 86.4337L66.8156 86.4294Z" fill="#B8CFF5"/>
<path d="M28.5089 87.1706C28.2247 87.1562 27.9448 87.1403 27.6662 87.1258C27.3663 86.7256 27.0821 86.3152 26.8035 85.9265C26.5236 85.5349 26.2565 85.1361 25.9966 84.7329C24.564 84.0191 23.3242 82.7865 22.2573 81.6378C20.9347 80.2145 19.7863 78.6394 18.6408 77.0702C18.518 76.8997 18.8008 76.68 18.9293 76.8448C20.0905 78.323 21.2618 79.7969 22.5529 81.1624C23.3999 82.0583 24.3297 82.8169 25.2767 83.5654C25.0453 83.1709 24.8182 82.7735 24.6054 82.3689C23.3028 79.9168 22.3358 77.3057 21.706 74.5964C21.6631 74.4143 21.9316 74.3391 21.9845 74.5198C22.7243 77.1525 23.7513 79.7029 25.0653 82.0987C25.1581 82.2678 25.2553 82.4354 25.351 82.603C25.2767 82.1926 25.2324 81.7837 25.1924 81.4138C24.9896 79.5671 24.6425 77.8548 23.8127 76.1786C23.7356 76.024 23.9584 75.8882 24.0455 76.0413C24.7825 77.3404 25.2796 78.7261 25.5095 80.2087C25.6409 81.0439 25.7023 81.8921 25.8966 82.7157C26.0651 83.4382 26.3294 84.1232 26.7993 84.9338C26.9121 85.1029 27.0249 85.2705 27.1406 85.4366C27.5591 86.0349 28.0447 86.5984 28.5118 87.1735L28.5089 87.1706Z" fill="#8C573B"/>
<path d="M35.9773 87.5782C35.7745 87.5681 35.5731 87.5565 35.3717 87.5464C35.3503 87.5103 35.3303 87.4756 35.3089 87.4395C34.5904 86.2228 33.9634 84.9526 33.4135 83.6478C33.2793 83.3299 33.155 83.0077 33.035 82.6811C32.1081 81.7375 31.4096 80.5136 30.6712 79.4198C29.8656 78.2262 29.0729 77.0225 28.2731 75.8246C28.1745 75.6773 28.4073 75.5458 28.5059 75.6859C29.3143 76.8217 30.1284 77.9531 30.9326 79.0918C31.481 79.8663 32.0966 80.6437 32.6123 81.4644C31.9667 79.5137 31.3939 77.5196 30.2884 75.8001C30.2084 75.6758 30.397 75.5747 30.4812 75.6859C32.1566 77.9155 32.6622 80.7694 33.7478 83.2967C34.3048 84.5972 34.9518 85.8543 35.6617 87.0739C35.7602 87.2444 35.8645 87.4106 35.9716 87.5782H35.9773Z" fill="#8C573B"/>
<path d="M48.7663 88.2789C48.5507 88.2674 48.3321 88.2544 48.1136 88.2443C47.6951 87.4278 47.2566 86.6201 46.7624 85.8456C45.6155 84.0408 44.1915 82.4426 42.7504 80.8748C42.6475 80.7636 42.8018 80.6089 42.9132 80.7101C44.49 82.1363 45.954 83.6882 47.1395 85.467C47.2595 85.6462 47.3738 85.8282 47.488 86.0103C47.4952 85.8008 47.508 85.597 47.5109 85.4034C47.5209 84.311 47.5309 83.2287 47.3038 82.1565C47.2766 82.0323 47.4495 81.9831 47.4909 82.1045C48.0236 83.6232 47.8865 85.2401 47.9794 86.8267C48.255 87.3036 48.5178 87.7891 48.7663 88.2804V88.2789Z" fill="#8C573B"/>
<path d="M18.712 86.652C18.5135 86.6433 18.3192 86.6317 18.135 86.6231C17.8665 85.6477 17.6822 84.6405 17.5065 83.71C17.1337 81.7116 16.9881 79.6958 17.0323 77.6613C17.0352 77.5009 17.2723 77.5023 17.278 77.6613C17.358 79.6929 17.5951 81.726 17.9893 83.7201C18.1807 84.6825 18.4178 85.6333 18.6877 86.5739C18.6949 86.5999 18.702 86.6245 18.712 86.6505V86.652Z" fill="#8C573B"/>
<path d="M52.0228 86.3529C51.9628 87.0176 51.8985 87.7531 51.7228 88.4395C51.5386 88.4293 51.3543 88.4178 51.1672 88.4091C51.3086 87.6317 51.52 86.8529 51.6072 86.0755C51.7414 84.8776 51.7471 83.6753 51.6457 82.4746C51.63 82.2968 51.8928 82.3055 51.9142 82.4746C52.0842 83.7591 52.1371 85.0611 52.0228 86.3529Z" fill="#8C573B"/>
<path d="M26.6032 69.2413C24.6364 68.318 22.4269 67.8093 20.2501 68.0666C18.2834 68.2978 16.4723 69.1951 15.1154 70.6401C13.7471 72.101 12.6759 74.1326 12.9273 76.1411C12.7559 75.9461 12.5302 75.8391 12.2845 75.803C11.8489 75.7351 11.3576 75.8868 11.0133 76.1614C10.4563 76.6064 10.3335 77.2827 10.3835 77.9734C9.6079 77.8043 8.80091 77.7523 8.02249 77.9113C6.44994 78.232 4.51031 79.9458 4.49317 81.7072C3.76188 80.8056 2.60353 80.2348 1.42661 80.4067C0.689612 80.5137 0.132576 80.9775 0.00260081 81.7246C-0.0188237 81.8373 0.00260081 82.317 0.309685 82.6031C0.930994 83.1797 1.85653 83.6652 2.71208 83.6276C3.32768 83.6002 3.94899 83.2794 4.24179 82.7303C4.62886 83.0785 5.1459 83.2259 5.63152 83.3776C6.36567 83.6074 7.16408 83.7721 7.93537 83.7736C9.15799 83.775 10.9334 83.2866 11.6132 82.2506C11.7161 82.0945 11.836 80.4848 11.4904 80.4689C12.803 80.5281 14.2327 79.1496 14.1042 77.8202C14.0799 77.5616 14.0042 77.3174 13.8985 77.0876C15.8824 78.5586 17.7578 79.3635 20.2873 79.8663C21.4056 80.0888 22.734 80.3605 23.8437 79.9819C24.3122 79.8215 24.705 79.5152 24.9378 79.0687C25.1892 78.5875 25.2549 78.037 25.472 77.5442C25.8234 76.748 26.5632 76.6584 27.3216 76.9214C28.0315 77.1685 28.71 77.5009 29.4284 77.735C30.8681 78.206 32.3778 78.4994 33.8904 78.5745C34.5431 78.6077 35.2258 78.5759 35.8229 78.2927C37.0569 76.985 30.4768 71.0562 26.6032 69.2399V69.2413Z" fill="white"/>
<path d="M52.22 79.8547C51.3645 79.596 50.5147 79.4602 49.6305 79.2911C48.3194 79.0412 46.6011 79.4949 46.0884 80.8705C45.2314 80.1307 44.4444 79.151 43.4989 78.5267C42.5476 77.8967 41.5464 77.2537 40.4652 76.8679C39.5482 76.5428 38.517 76.4561 37.6486 76.9618C37.0144 77.3303 36.3688 78.1221 36.0846 78.6438C36.076 78.6669 36.0689 78.6886 36.0603 78.7131C35.836 79.4573 36.2631 80.1321 36.6902 80.7043C37.1258 81.2867 37.6086 81.843 38.207 82.2606C39.5896 83.2316 41.2421 82.9383 42.8204 82.9311C44.6815 82.9224 46.4069 83.7504 48.2237 84.0509C50.7575 84.4714 55.0038 84.2012 55.2537 80.989C55.3166 80.0931 53.097 80.1206 52.22 79.8547Z" fill="white"/>
<path d="M66.4372 85.025C65.9545 84.2302 65.1589 83.5973 64.4576 83.0092C63.6992 82.372 62.8822 81.7954 61.9795 81.3894C61.5367 81.19 61.0754 81.0296 60.6012 80.927C60.0799 80.8143 59.5371 80.8489 59.0229 80.7247C58.5559 80.612 58.1074 80.3331 57.6118 80.3967C57.4189 80.4212 57.0405 80.2767 56.4706 80.3576C56.0963 80.4111 55.9192 80.8547 55.9478 80.9197C55.9478 80.9212 55.9492 80.9241 55.9507 80.9255C56.1221 81.7463 56.5763 82.4803 57.229 83.0005C57.866 83.5077 58.6387 83.7707 59.41 83.9817C60.3141 84.2288 61.2211 84.4282 62.0738 84.8342C62.9536 85.2533 63.7649 85.7995 64.6004 86.2994C64.9904 86.5335 65.3846 86.7604 65.7973 86.9526C66.0773 87.0826 66.4244 87.2098 66.7057 87.0104C67.2656 86.613 66.7015 85.457 66.4386 85.0235L66.4372 85.025Z" fill="white"/>
</g>
<defs>
<clipPath id="clip0_152_11036">
<rect width="58" height="83" fill="white" transform="translate(23)"/>
</clipPath>
<clipPath id="clip1_152_11036">
<rect width="67" height="21" fill="white" transform="translate(0 68)"/>
</clipPath>
</defs>
</svg>
