<svg width="207" height="431" viewBox="0 0 207 431" fill="none" xmlns="http://www.w3.org/2000/svg">
<path d="M47.7923 336.55C115.627 370.467 130.561 371.914 173.412 430.5L179.093 0C177.873 5.73719 162.093 148.543 71.6601 191.822C-18.7731 235.1 -20.0427 302.633 47.7923 336.55Z" fill="#51CE66"/>
<path d="M60.3909 366.846C102.861 381.844 122.798 397.37 155.862 429.656V394.482C122.742 355.42 101.179 343.966 60.3909 331.672C28.8613 322.49 19.1417 305.465 0.0932465 277.655V311.573C16.0377 341.512 28.6337 354.299 60.3909 366.846Z" fill="#27A64D"/>
<path d="M80.7921 294.55C148.627 328.468 163.56 329.914 206.412 388.5V141.028C205.192 146.765 194.773 113.316 104.66 149.822C14.5469 186.327 12.9572 260.633 80.7921 294.55Z" fill="#51CE66"/>
<path d="M80.7921 294.55C148.627 328.468 163.56 329.914 206.412 388.5V141.028C205.192 146.765 194.773 113.316 104.66 149.822C14.5469 186.327 12.9572 260.633 80.7921 294.55Z" fill="#2CBE00" fill-opacity="0.2"/>
<path d="M93.3908 324.846C135.861 339.844 155.798 355.37 188.862 387.656V352.482C155.742 313.42 134.179 301.966 93.3908 289.672C61.8611 280.49 52.1416 263.465 33.0931 235.655V269.573C49.0376 299.512 61.6336 312.299 93.3908 324.846Z" fill="#27A64D"/>
<path d="M93.3908 324.846C135.861 339.844 155.798 355.37 188.862 387.656V352.482C155.742 313.42 134.179 301.966 93.3908 289.672C61.8611 280.49 52.1416 263.465 33.0931 235.655V269.573C49.0376 299.512 61.6336 312.299 93.3908 324.846Z" fill="white" fill-opacity="0.05"/>
</svg>
