<svg width="223" height="431" viewBox="0 0 223 431" fill="none" xmlns="http://www.w3.org/2000/svg">
<path d="M174.62 336.55C106.785 370.467 91.8518 371.914 48.9999 430.5L43.3191 0C44.5391 5.73719 60.3191 148.543 150.752 191.822C241.185 235.1 242.455 302.633 174.62 336.55Z" fill="#51CE66"/>
<path d="M162.021 366.845C119.552 381.844 99.6146 397.37 66.55 429.655V394.482C99.67 355.42 121.233 343.966 162.021 331.672C193.551 322.49 203.271 305.465 222.319 277.655V311.572C206.375 341.512 193.779 354.299 162.021 366.845Z" fill="#27A64D"/>
<path d="M141.62 294.55C73.7853 328.468 58.8519 329.914 16 388.5V141.028C17.2201 146.765 27.6393 113.316 117.752 149.822C207.865 186.327 209.455 260.633 141.62 294.55Z" fill="#51CE66"/>
<path d="M141.62 294.55C73.7853 328.468 58.8519 329.914 16 388.5V141.028C17.2201 146.765 27.6393 113.316 117.752 149.822C207.865 186.327 209.455 260.633 141.62 294.55Z" fill="#2CBE00" fill-opacity="0.2"/>
<path d="M129.022 324.845C86.5518 339.844 66.6147 355.37 33.5502 387.655V352.482C66.6702 313.42 88.2333 301.966 129.022 289.672C160.551 280.49 170.271 263.465 189.319 235.655V269.572C173.375 299.512 160.779 312.299 129.022 324.845Z" fill="#27A64D"/>
<path d="M129.022 324.845C86.5518 339.844 66.6147 355.37 33.5502 387.655V352.482C66.6702 313.42 88.2333 301.966 129.022 289.672C160.551 280.49 170.271 263.465 189.319 235.655V269.572C173.375 299.512 160.779 312.299 129.022 324.845Z" fill="white" fill-opacity="0.05"/>
<path d="M125.62 247.05C57.7853 280.968 42.8519 282.414 0 341L0 93.5282C1.22005 99.2653 11.6393 65.8161 101.752 102.322C191.865 138.827 193.455 213.133 125.62 247.05Z" fill="#51CE66"/>
<path d="M125.62 247.05C57.7853 280.968 42.8519 282.414 0 341L0 93.5282C1.22005 99.2653 11.6393 65.8161 101.752 102.322C191.865 138.827 193.455 213.133 125.62 247.05Z" fill="#375722" fill-opacity="0.7"/>
<path d="M113.022 277.345C70.5518 292.344 50.6147 307.87 17.5502 340.155V304.982C50.6702 265.92 72.2333 254.466 113.022 242.172C144.551 232.99 154.271 215.965 173.319 188.155V222.072C157.375 252.012 144.779 264.799 113.022 277.345Z" fill="#27A64D"/>
</svg>
