<svg width="243" height="431" viewBox="0 0 243 431" fill="none" xmlns="http://www.w3.org/2000/svg">
<path d="M47.7923 336.55C115.627 370.467 130.561 371.914 173.412 430.5L179.093 0C177.873 5.73719 162.093 148.543 71.6601 191.822C-18.7731 235.1 -20.0427 302.633 47.7923 336.55Z" fill="#51CE66"/>
<path d="M60.3909 366.845C102.861 381.844 122.798 397.37 155.862 429.655V394.482C122.742 355.42 101.179 343.966 60.3909 331.672C28.8613 322.49 19.1417 305.465 0.0932465 277.655V311.572C16.0377 341.512 28.6337 354.299 60.3909 366.845Z" fill="#27A64D"/>
<path d="M80.7921 294.55C148.627 328.468 163.56 329.914 206.412 388.5V141.028C205.192 146.765 194.773 113.316 104.66 149.822C14.5469 186.327 12.9572 260.633 80.7921 294.55Z" fill="#51CE66"/>
<path d="M80.7921 294.55C148.627 328.468 163.56 329.914 206.412 388.5V141.028C205.192 146.765 194.773 113.316 104.66 149.822C14.5469 186.327 12.9572 260.633 80.7921 294.55Z" fill="#2CBE00" fill-opacity="0.2"/>
<path d="M93.3909 324.845C135.861 339.844 155.798 355.37 188.862 387.655V352.482C155.742 313.42 134.179 301.966 93.3909 289.672C61.8613 280.49 52.1417 263.465 33.0932 235.655V269.572C49.0377 299.512 61.6337 312.299 93.3909 324.845Z" fill="#27A64D"/>
<path d="M93.3909 324.845C135.861 339.844 155.798 355.37 188.862 387.655V352.482C155.742 313.42 134.179 301.966 93.3909 289.672C61.8613 280.49 52.1417 263.465 33.0932 235.655V269.572C49.0377 299.512 61.6337 312.299 93.3909 324.845Z" fill="white" fill-opacity="0.05"/>
<path d="M116.792 247.05C184.627 280.968 199.56 282.414 242.412 341V93.5282C241.192 99.2653 230.773 65.8161 140.66 102.322C50.5469 138.827 48.9572 213.133 116.792 247.05Z" fill="#51CE66"/>
<path d="M116.792 247.05C184.627 280.968 199.56 282.414 242.412 341V93.5282C241.192 99.2653 230.773 65.8161 140.66 102.322C50.5469 138.827 48.9572 213.133 116.792 247.05Z" fill="#375722" fill-opacity="0.5"/>
<path d="M129.391 277.345C171.861 292.344 191.798 307.87 224.862 340.155V304.982C191.742 265.92 170.179 254.466 129.391 242.172C97.8613 232.99 88.1417 215.965 69.0932 188.155V222.072C85.0377 252.012 97.6337 264.799 129.391 277.345Z" fill="#27A64D"/>
</svg>
