<svg width="207" height="431" viewBox="0 0 207 431" fill="none" xmlns="http://www.w3.org/2000/svg">
<path d="M158.62 336.55C90.7852 370.467 75.8518 371.914 32.9999 430.5L27.3192 0C28.5392 5.73719 44.3192 148.543 134.752 191.822C225.186 235.1 226.455 302.633 158.62 336.55Z" fill="#51CE66"/>
<path d="M146.021 366.846C103.552 381.844 83.6146 397.37 50.55 429.656V394.482C83.67 355.42 105.233 343.966 146.021 331.672C177.551 322.49 187.271 305.465 206.319 277.655V311.573C190.375 341.512 177.779 354.299 146.021 366.846Z" fill="#27A64D"/>
<path d="M125.62 294.55C57.7852 328.468 42.8518 329.914 -6.10352e-05 388.5V141.028C1.21999 146.765 11.6393 113.316 101.752 149.822C191.865 186.327 193.455 260.633 125.62 294.55Z" fill="#51CE66"/>
<path d="M125.62 294.55C57.7852 328.468 42.8518 329.914 -6.10352e-05 388.5V141.028C1.21999 146.765 11.6393 113.316 101.752 149.822C191.865 186.327 193.455 260.633 125.62 294.55Z" fill="#2CBE00" fill-opacity="0.2"/>
<path d="M113.021 324.846C70.5517 339.844 50.6146 355.37 17.55 387.656V352.482C50.67 313.42 72.2331 301.966 113.021 289.672C144.551 280.49 154.271 263.465 173.319 235.655V269.573C157.375 299.512 144.779 312.299 113.021 324.846Z" fill="#27A64D"/>
<path d="M113.021 324.846C70.5517 339.844 50.6146 355.37 17.55 387.656V352.482C50.67 313.42 72.2331 301.966 113.021 289.672C144.551 280.49 154.271 263.465 173.319 235.655V269.573C157.375 299.512 144.779 312.299 113.021 324.846Z" fill="white" fill-opacity="0.05"/>
</svg>
