<svg width="741" height="895" viewBox="0 0 741 895" fill="none" xmlns="http://www.w3.org/2000/svg">
<path d="M625.952 793.421C565.804 968.807 156.108 863.844 156.108 863.844C64.7345 846.85 -16.3374 634.624 95.0286 544.591C188.894 468.707 270.305 457.151 391.03 455.388C517.917 453.535 629.798 441.349 703.476 544.591C737.597 592.403 682.643 628.116 625.952 793.421Z" fill="#9BD552"/>
<path d="M640.62 395.28C636.8 395.34 632.96 395.18 629.13 395.28C626.59 395.35 624.69 397.43 622.62 395.28C628.63 393.3 634.77 394.29 640.62 395.28Z" fill="#34561F"/>
<path d="M626.62 608.28C625.65 608.85 625.16 609.79 623.62 610.28C623.41 608.26 625.72 605.81 626.62 608.28Z" fill="#2B4F1E"/>
<path d="M607.12 527.28C607.77 527.61 607.77 527.95 607.12 528.28V527.28Z" fill="#45671E"/>
<path d="M482.524 753.533C493.813 786.361 570.703 766.715 570.703 766.715C587.851 763.534 603.067 723.809 582.166 706.957C564.55 692.753 549.271 690.59 526.613 690.26C502.8 689.913 481.803 687.632 467.975 706.957C461.571 715.906 471.885 722.591 482.524 753.533Z" fill="#9BD552"/>
<path d="M482.524 753.533C493.813 786.361 570.703 766.715 570.703 766.715C587.851 763.534 603.067 723.809 582.166 706.957C564.55 692.753 549.271 690.59 526.613 690.26C502.8 689.913 481.803 687.632 467.975 706.957C461.571 715.906 471.885 722.591 482.524 753.533Z" fill="black" fill-opacity="0.1"/>
<path d="M507.62 333.28C513.6 334.02 528.62 339.78 533.62 343.28L534.62 344.28C535.04 344.6 535.89 345.63 536.62 346.28C537.55 347.1 539.68 349.28 540.62 350.28C540.94 350.62 541.33 350.93 541.62 351.28C542.67 352.55 541.98 354.97 544.11 354.27C544.92 353.87 545.14 352.78 545.62 352.28C545.95 351.94 546.3 351.63 546.62 351.28L548.62 350.28C553.79 346.94 560.52 343.31 566.62 342.28C571.14 343.74 576.49 343.49 581.42 344C583.02 344.17 585.58 345.15 586.62 343.28C603.36 347.54 619.45 365.76 621.51 382.89C621.94 386.42 620.6 393.19 622.62 395.28C624.64 397.37 626.6 395.35 629.13 395.28C632.96 395.18 636.8 395.34 640.62 395.28C660.76 398.7 675.44 417.74 678.62 437.28C676.96 441.33 676.93 449.02 678.62 453.28C677.56 458.8 674.06 467.87 670.62 472.28C670.53 472.4 669.29 472.06 668.88 472.51C668 473.49 668.29 475.12 667.34 476.01C666.01 477.26 660.66 477.92 659.59 478.76C658.04 479.98 659.04 482.6 658.5 483.17C658.01 483.69 654.48 482.89 653.61 484.78L656.6 485.29C657.09 487.24 652.31 485.28 653.61 487.77C654.46 489.39 657.33 489.1 657.55 489.34C658.86 490.79 653.7 498.58 653.65 500.86C653.64 501.31 655.64 501.24 655.62 501.77C655.52 504.38 652.18 504.19 651.87 504.49C651.1 505.23 651.28 508.58 649.54 510.73C648.56 511.94 641.29 516.83 639.85 517.07C638.26 517.33 636.86 516.18 635.36 516.49C634.39 516.69 633.49 518.1 632.07 518.27C627.95 518.77 626.3 515.38 625.9 515.3C622.59 514.6 619.09 517.13 615.62 515.28C616.1 522.27 613.45 523.84 610.17 528.34C606.56 533.29 603.81 537.89 597.61 540.28C594.64 541.42 587.56 542.96 584.61 542.28C584.42 542.24 583.65 541.05 582.65 540.78C574.27 538.47 565.42 533.08 561.22 525.31C560.72 524.39 562.01 522.25 560.1 521.29C559.64 521.1 556.22 528.87 555.29 529.98C554.86 530.49 548.06 537.02 547.6 537.29C541.42 540.95 531.28 540.27 524.6 538.29C515.92 535.71 508.36 530.33 504.1 522.29C501.34 526.46 496.78 534.25 492.53 536.76C491.42 537.42 489.47 536.94 488.76 537.51C488.35 537.84 489.11 539.98 486.59 541.29C484.97 542.13 474.14 545.23 472.59 545.29C471.69 545.32 461.02 543.72 460.6 543.27C460.08 542.71 462.13 539.32 458.07 538.28C457.17 538.05 458.07 540.33 457.09 540.3C456.11 540.27 456.95 538.84 456.46 538.41C456.1 538.1 453.79 539.22 451.87 538.63C450.25 538.13 443.46 529.49 442.57 527.31C441.92 526.9 436.2 531.93 436.02 532.29C435.44 533.43 436.73 535.19 436.61 535.28C435.85 535.88 426.14 537.12 424.37 537.55C422.69 537.96 421.09 539.8 418.85 540.11C410.62 541.24 400.25 533.45 397.56 525.84C396.62 523.19 396.86 517.64 396.61 517.29C394.87 514.96 394.83 519.9 393.63 519.28C392.82 517.17 394.72 514.29 394.64 512.86C394.62 512.44 390.64 507.11 390.63 506.69C390.61 505.73 392.08 504.37 391.19 503.25C390.64 502.56 388.68 502.64 388.54 501.63C388.41 500.69 389.54 499.26 389.33 497.95C388.99 495.76 387.02 495.59 387.83 490.97C388.08 489.54 393.64 482.58 392.61 481.28C392.41 481.03 390.98 481.5 390.61 481.28C388.58 480.05 387.05 478.14 385.61 476.28L378.62 454.77L378.73 440.9L382.61 425.28C382.95 424.58 383.24 423.97 383.61 423.28C386.48 424.03 385.36 420.22 387.59 418.77L386.61 418.28C390.93 412.2 393.51 409.6 399.61 405.28C405.59 409.54 402.31 405.28 405.16 403.33C406.61 402.35 408.8 402.75 409.83 402.2C410.86 401.65 410.77 400.49 411.86 400C418.9 396.85 418.33 400.33 421.11 400.31C421.85 400.31 421.12 397.41 423.1 398.28C424.45 398.88 423.95 401.48 425.6 401.27L424.61 397.28C425.21 396.69 429.83 399.09 431.31 399.05C432.79 399.01 433.69 397.28 434.91 397.45C436 397.6 437.08 399.31 440.14 399.39C443.78 399.48 442.3 397.55 442.6 397.28C442.81 397.1 448.44 396.4 442.6 395.28C444.18 388.8 442.08 383.65 444.34 375.52C450.43 353.64 472.22 336.06 494.62 333.28C497.68 332.9 504.57 332.9 507.62 333.28ZM641.12 512.28V513.28C641.77 512.95 641.77 512.61 641.12 512.28ZM607.12 527.28V528.28C607.77 527.95 607.77 527.61 607.12 527.28ZM417.12 538.28V539.28C417.77 538.95 417.77 538.61 417.12 538.28Z" fill="#507023"/>
<path d="M547.62 537.28V591.28C548.79 592.5 553.93 588.19 555.09 587.25C568.14 576.66 579.82 558.22 584.62 542.28C587.57 542.96 594.65 541.42 597.62 540.28C594.55 561.6 581.53 578.36 570.76 595.97C570.04 597.15 569.99 598.69 569.62 599.28C563.36 609.41 554.04 618.69 552.62 631.28L551.62 630.76V662.77C553.22 664.49 552.61 659.8 552.62 659.27L556.62 700.27C555.51 700.29 555.56 701.85 555.58 702.71C555.76 710.79 560.73 721.09 557.62 729.27C556.39 730.29 555.63 731.99 555.47 732.06C555.13 732.19 551.39 732.43 548.62 733.27H515.62C510.38 732.1 505.15 732.01 503.62 725.69C504.99 709.49 508.76 693.52 509.62 677.27C509.71 675.61 509.54 673.93 509.62 672.27C509.64 671.94 509.6 671.6 509.62 671.27L513.62 634.27C513.65 635.54 512.8 639.32 514.61 639.26C514.03 636.18 515.86 622.4 513.62 621.27C513.38 621.15 512.96 621.36 512.62 621.27C510.48 591.11 482.69 572.48 472.62 545.27C474.17 545.21 485 542.11 486.62 541.27C489.74 548.81 494.65 555.53 499.64 561.75C503.7 566.81 511.26 575.2 516.1 579.25C517.36 580.3 518.88 581.46 520.62 581.27L524.63 538.27C531.31 540.25 541.45 540.93 547.63 537.27L547.62 537.28Z" fill="#4F3D15"/>
<path d="M670.62 472.28C676.46 476.74 682.51 478.91 687.62 484.28L689.62 487.28C689.91 487.64 690.36 487.92 690.62 488.28C690.71 488.92 690.49 489.69 690.62 490.28C691.27 493.3 694.16 496.71 695.4 500C696.7 503.47 696.31 507.38 698.62 510.28C698.65 510.61 698.6 510.95 698.62 511.28C698.64 511.61 698.61 511.95 698.62 512.28C698.87 518.9 698.51 525.73 697.62 532.28C696.55 540.18 694.66 544.48 690.62 551.28C690.26 551.58 689.97 551.98 689.62 552.28C688.15 553.52 687.16 554.26 686.62 556.28C685.75 557.01 685.16 557.83 684.62 558.28C682.29 560.24 679.96 562.36 677.62 564.28C677.26 564.58 676.98 564.99 676.62 565.28C667.4 569.26 659.24 573.66 648.67 572.33L646.62 585.28C641.43 594.83 636.16 602.69 626.62 608.28C625.72 605.81 623.41 608.26 623.62 610.28C623.08 610.45 622.14 610.1 621.62 610.28C607.22 615.22 600.21 614.93 585.62 611.28C584.24 610.94 583 610.68 581.62 610.28H580.62C580.34 610.15 580.01 609.54 579.62 609.28L576.62 607.28C576.03 606.78 574.35 605.03 573.62 604.28L571.62 602.28C571.31 601.94 570.82 601.6 570.62 601.28C570.32 600.81 570.44 599.71 569.62 599.28C569.99 598.69 570.04 597.15 570.76 595.97C581.53 578.36 594.55 561.6 597.62 540.28C603.82 537.89 606.57 533.29 610.18 528.34C613.46 523.84 616.11 522.26 615.63 515.28C619.11 517.13 622.6 514.59 625.91 515.3C626.32 515.39 627.96 518.77 632.08 518.27C633.5 518.1 634.4 516.69 635.37 516.49C636.87 516.18 638.27 517.33 639.86 517.07C641.3 516.83 648.57 511.94 649.55 510.73C651.29 508.58 651.11 505.23 651.88 504.49C652.19 504.19 655.52 504.38 655.63 501.77C655.65 501.25 653.65 501.31 653.66 500.86C653.71 498.58 658.88 490.79 657.56 489.34C657.34 489.1 654.47 489.38 653.62 487.77C652.31 485.28 657.1 487.25 656.61 485.29L653.62 484.78C654.48 482.88 658.02 483.68 658.51 483.17C659.05 482.6 658.05 479.97 659.6 478.76C660.67 477.92 666.02 477.27 667.35 476.01C668.29 475.12 668.01 473.49 668.89 472.51C669.29 472.06 670.53 472.4 670.63 472.28H670.62Z" fill="#45671E"/>
<path d="M390.62 481.28C390.99 481.51 392.42 481.04 392.62 481.28C393.65 482.58 388.09 489.54 387.84 490.97C387.02 495.59 388.99 495.76 389.34 497.95C389.55 499.26 388.42 500.69 388.55 501.63C388.69 502.64 390.65 502.56 391.2 503.25C392.09 504.37 390.62 505.73 390.64 506.69C390.64 507.11 394.63 512.44 394.65 512.86C394.73 514.29 392.83 517.17 393.64 519.28C394.84 519.9 394.88 514.96 396.62 517.29C396.88 517.63 396.64 523.19 397.57 525.84C400.26 533.46 410.63 541.24 418.86 540.11C421.1 539.8 422.7 537.97 424.38 537.55C426.16 537.11 435.87 535.88 436.62 535.28C436.74 535.19 435.45 533.43 436.03 532.29C436.22 531.92 441.94 526.89 442.58 527.31C443.47 529.5 450.26 538.14 451.88 538.63C453.8 539.22 456.12 538.1 456.47 538.41C456.96 538.84 456.1 540.27 457.1 540.3C458.1 540.33 457.19 538.05 458.08 538.28C462.14 539.32 460.09 542.71 460.61 543.27C461.02 543.71 471.7 545.32 472.6 545.29C482.67 572.5 510.46 591.13 512.6 621.29C510.09 620.61 507.23 620.28 504.6 620.29C499.97 618.06 494.59 615.86 490.28 613.11C487.59 611.4 481.94 605.39 480.6 604.81C479.52 604.34 479.04 605.24 478.6 605.29C474.27 605.79 476.38 606.55 474.38 607.61C473.1 608.29 471 607.83 469.87 608.57C469.24 608.98 469.15 610.85 467.98 611.22C466.21 611.78 464.26 610.16 463.16 610.41C462.06 610.66 462.01 612.63 461.38 613.04C456.48 616.18 435.57 612.78 429.62 610.76C427.97 610.2 425.42 609.62 425.58 607.69L423.62 608.29C413.91 601.8 407.72 594.47 404.32 583.09C403.77 581.26 403.01 573.82 402.52 573.4C401.8 572.79 398 573.66 396.31 573.27C395.61 573.11 395.74 571.63 394.88 571.36C384.84 568.22 379.47 567.65 372.63 558.29L373.63 557.3H371.63C371.48 557.06 371.78 556.53 371.63 556.29C366.37 547.99 363.85 540.52 362.76 530.66C362.31 526.6 363.66 521.84 361.63 518.29C361.7 517.81 361.54 517.29 361.63 516.81C361.81 516.32 362.15 516.24 362.62 516.29C362.78 516.31 363.16 517.16 363.6 517.3C363.23 514.11 366.87 509.8 364.62 507.29C369.19 495.61 378.51 485.22 390.62 481.29V481.28Z" fill="#45671E"/>
<path d="M570.62 601.28C566.66 602.76 563.39 608.98 561.44 612.6C554.13 626.18 554.54 632.06 554.66 646.74C554.82 666.21 555.92 686.61 559.79 705.61C560.11 707.19 562.18 708.65 558.61 708.28C558.17 705.56 556.57 703.13 556.61 700.28L552.61 659.28C552.77 650.52 551.67 639.64 552.61 631.28C554.03 618.69 563.35 609.41 569.61 599.28C570.43 599.71 570.31 600.81 570.61 601.28H570.62Z" fill="#E3D9A3"/>
<path d="M442.62 397.28C442.7 396.64 442.48 395.84 442.62 395.28C448.46 396.4 442.83 397.1 442.62 397.28C442.31 397.55 443.79 399.49 440.16 399.39C437.1 399.31 436.02 397.61 434.93 397.45C433.71 397.28 432.82 399 431.33 399.05C429.84 399.1 425.24 396.69 424.63 397.28L425.62 401.27C423.96 401.49 424.47 398.88 423.12 398.28C421.14 397.41 421.87 400.3 421.13 400.31C418.36 400.33 418.93 396.85 411.88 400C410.79 400.49 410.84 401.66 409.85 402.2C408.86 402.74 406.63 402.35 405.18 403.33C402.33 405.27 405.6 409.53 399.63 405.28C412.88 395.91 426.72 392.88 442.63 397.28H442.62Z" fill="#45671E"/>
<path d="M512.62 621.28C512.96 621.37 513.38 621.16 513.62 621.28C513.7 625.6 513.51 629.96 513.62 634.28L509.62 671.28C510.22 658.52 510.62 645.45 510.82 632.78C510.87 629.82 512.35 626.19 511.68 622.86C509.01 622.22 507.1 621.48 504.62 620.28C507.25 620.28 510.11 620.6 512.62 621.28Z" fill="#E3D9A3"/>
<path d="M385.62 476.28C380.83 470.1 377.98 461.92 376.62 454.28V440.28C377.92 435.13 380.39 429.92 382.62 425.28L378.74 440.9L378.63 454.77L385.62 476.28Z" fill="#34561F"/>
<path d="M478.62 605.28C478.19 608.11 476.46 608.05 474.62 609.28C462.92 614.41 451.43 617.6 438.62 615.28C438.3 615.22 437.93 615.35 437.62 615.28L434.62 614.28C431.11 613.02 426.77 610.39 423.62 608.28L425.58 607.68C425.43 609.61 427.97 610.19 429.62 610.75C435.57 612.77 456.49 616.17 461.38 613.03C462.01 612.63 462.08 610.65 463.16 610.4C464.24 610.15 466.21 611.77 467.98 611.21C469.15 610.84 469.24 608.97 469.87 608.56C471.01 607.82 473.1 608.28 474.38 607.6C476.38 606.54 474.27 605.78 478.6 605.28H478.62Z" fill="#34561F"/>
<path d="M474.62 609.28C465.02 615.72 461.37 616.78 450.12 617.19C446.01 617.34 442.31 619.42 438.62 615.28C451.43 617.6 462.92 614.41 474.62 609.28Z" fill="#E3D9A3"/>
<path d="M621.62 610.28C619.81 612.24 614.17 614.31 611.69 614.85C604.44 616.43 591.19 616.8 585.62 611.28C600.21 614.93 607.22 615.22 621.62 610.28Z" fill="#2B4F1E"/>
<path d="M548.62 733.28C538.76 736.26 525.57 735.5 515.62 733.28H548.62Z" fill="#E3D9A3"/>
<path d="M371.62 556.28C362.26 546.38 359.64 531.32 361.62 518.28C363.65 521.83 362.3 526.59 362.75 530.65C363.84 540.51 366.36 547.98 371.62 556.28Z" fill="#2B4F1E"/>
<path d="M558.62 708.28C559.14 711.49 560.81 727.4 559.41 729.11C558.98 729.64 557.79 729.14 557.62 729.28C560.73 721.1 555.76 710.8 555.58 702.72C555.56 701.86 555.51 700.3 556.62 700.28C556.58 703.13 558.18 705.56 558.62 708.28Z" fill="#214518"/>
<path d="M364.62 507.28C366.87 509.79 363.23 514.11 363.6 517.29C363.16 517.14 362.78 516.29 362.62 516.28C362.14 512.91 363.46 510.25 364.62 507.28Z" fill="#2B4F1E"/>
<path d="M376.62 454.28C375.55 448.26 375.07 446.44 376.62 440.28V454.28Z" fill="#E3D9A3"/>
<path d="M509.62 677.28C506.32 678.19 506.98 673.24 509.62 672.28C509.54 673.94 509.71 675.62 509.62 677.28Z" fill="#E3D9A3"/>
<path d="M386.62 418.28L387.6 418.77C385.37 420.23 386.49 424.03 383.62 423.28C384.7 421.28 385.25 420.2 386.62 418.28Z" fill="#34561F"/>
<path d="M437.62 615.28C436.07 614.92 435.79 614.7 434.62 614.28L437.62 615.28Z" fill="#E3D9A3"/>
<path d="M371.62 557.28H373.62L372.62 558.28C372.37 557.94 371.88 557.67 371.62 557.28Z" fill="#2B4F1E"/>
<path d="M579.62 609.28C578.53 608.53 578.2 608.61 576.62 607.28L579.62 609.28Z" fill="#E3D9A3"/>
<path d="M580.62 610.28H581.62C581.62 610.28 581.87 610.84 580.62 610.28Z" fill="#E3D9A3"/>
<path d="M573.62 604.28C572.95 603.59 572.3 603.03 571.62 602.28L573.62 604.28Z" fill="#E3D9A3"/>
<path d="M547.62 537.28C548.08 537.01 554.88 530.49 555.31 529.97C556.24 528.86 559.66 521.09 560.12 521.28C562.03 522.24 560.74 524.38 561.24 525.3C565.44 533.07 574.28 538.46 582.67 540.77C583.66 541.04 584.44 542.23 584.63 542.27C579.83 558.22 568.16 576.65 555.1 587.24C553.94 588.18 548.8 592.5 547.63 591.27V537.27L547.62 537.28Z" fill="#45671E"/>
<path d="M524.62 538.28L520.61 581.28C518.87 581.47 517.35 580.32 516.09 579.26C511.25 575.21 503.7 566.82 499.63 561.76C494.64 555.54 489.73 548.82 486.61 541.28C489.13 539.97 488.37 537.84 488.78 537.5C489.49 536.92 491.43 537.4 492.55 536.75C496.79 534.24 501.36 526.46 504.12 522.28C508.38 530.32 515.94 535.7 524.62 538.28Z" fill="#45671E"/>
<path d="M417.12 538.28C417.77 538.61 417.77 538.95 417.12 539.28V538.28Z" fill="#45671E"/>
<path d="M552.62 631.28C551.68 639.64 552.78 650.52 552.62 659.28C552.62 659.81 553.21 664.49 551.62 662.78V630.77L552.62 631.29V631.28Z" fill="#214518"/>
<path d="M513.62 621.28C515.86 622.41 514.03 636.19 514.61 639.27C512.8 639.33 513.65 635.55 513.62 634.28C513.51 629.96 513.7 625.6 513.62 621.28Z" fill="#214518"/>
<g clip-path="url(#clip0_1955_2340)">
<path d="M212.95 93.0001C214.1 92.7601 215.7 93.1901 216.96 93.0001C215.01 71.6901 229.24 51.8601 247.03 41.5701C282.19 21.2401 327.73 33.3901 340.97 72.9901C389.22 42.9601 436.8 96.2301 419.95 144.98C454.23 147.03 482.37 178.54 474.88 213.3C519.73 243.67 492.81 311.96 439.95 309.98C426.53 309.48 412.61 301.79 404.95 290.98C403.83 289.4 400.8 282.91 400 282.43C399.1 281.89 394.69 283.85 392.95 283.98C386.75 284.43 378.87 283.91 372.95 281.98C369.08 280.72 360.98 275.76 357.95 272.98C345.5 261.55 340.07 238.42 346.25 222.78C348.3 217.59 358.55 206.41 358.76 205.35C359.12 203.51 354.88 192.44 355.95 188.99C354.47 188.61 354.67 188.98 353.95 189.6C344.58 197.69 337.09 200.96 323.95 198.99C321.11 198.56 316.39 195.72 313.95 193.99C310.17 191.31 306.91 187.72 304.31 183.91C296.94 186.6 286.92 190.85 278.95 189.99C275.99 189.67 267.78 186.58 264.95 184.99C259.71 182.04 251.79 173.96 248.56 168.88C248.18 168.27 245.65 159.74 243.95 162C245.15 170.72 236.63 177.59 229.63 181.18C228.02 182.01 221.36 183.7 221.09 184.13C220.08 185.7 222.04 191.75 221.98 194.44C221.92 197.13 220.66 202.23 219.95 205C219.38 207.22 215.59 218.92 214.95 220C214.88 220.11 213.27 220.17 212.46 220.97C207.86 225.52 204.92 230.13 198.63 233.18C192.34 236.23 187.41 235.94 180.89 236.44C179.07 237.71 180.23 244.43 179.95 247C179.72 249.09 176.9 257.09 175.95 259C166.01 279.08 146.27 289.45 123.95 287C118.06 286.35 109.46 282.53 103.95 280C103.35 279.73 102.51 279.32 101.95 279C101.7 278.6 101.24 278.35 100.95 278C96.32 272.47 92.97 271.48 88.95 264C79.96 247.28 77.91 230.82 82.96 212.5C83.32 211.18 84.92 208.91 82.95 208C91.29 184.74 115.57 162.8 140.95 162C133.3 128.53 166.27 95.9401 197.95 93.0001C202.34 95.2301 208.3 93.9801 212.95 93.0001Z" fill="#6C9026"/>
<path d="M281.95 228C284.05 234.73 282.84 242.99 285.45 250C294.13 240.94 300.96 229.44 305.95 218L306.95 217C307.07 216.72 306.83 216.29 306.95 216C309.23 215.07 311.98 214.91 314.22 216.04C315.37 216.62 314.4 218.37 315.94 217.99C316.28 211.39 317.93 215.85 318.95 219C312.6 240.16 298.76 256.48 293.06 274.61C288.81 288.11 291.58 303.15 292.95 317C292.97 317.16 292.01 317.94 292.13 320.14C292.68 329.67 297.58 342.4 299.43 352.02C300.51 353.51 302.49 353.31 303.93 352.5L308.94 347.01C312.08 344.18 315.97 339.57 317.94 336.01C320.87 334.94 321.47 331.96 322.94 330.01C329.24 321.65 334.94 313.03 340.77 304.34L357.94 273.01C360.97 275.79 369.07 280.75 372.94 282.01C371.78 283.95 365.94 294.93 366.95 296.01C375.85 292.73 385.24 289.74 392.94 284.01C394.68 283.88 399.09 281.93 399.99 282.46C400.79 282.94 403.82 289.43 404.94 291.01L374.81 306.38C371.28 307.99 361.55 310.31 359.21 312.29C355 315.86 343.34 339.44 338.94 346.01C333.57 354.01 326.35 361.69 320.94 370.01C316.64 376.63 312.01 383.45 310.92 391.5C310.72 391.98 310.42 392.07 309.94 392.01C309.79 391.99 309.45 391.1 308.96 391C308.81 398.61 307.68 405.91 307.94 413.56C308.01 415.48 306.92 417.57 309.94 417.02C310.12 421.05 310.51 424.13 310.94 428.02C308.36 437.34 312.72 448.3 317.94 456.02C319.4 458.18 322.13 461.64 323.91 463.55C333.31 473.64 349.64 481.99 321.94 482.02C315.69 482.02 319.37 481.63 317.25 481.05C312.71 479.82 306.33 480.27 301.55 477.94C298.93 484.63 293.33 490.3 285.94 489.02C286.06 485.8 282.24 487.07 279.9 484.55C278.7 483.26 278.23 480.17 277.28 479.95C274.3 479.25 268.36 482.35 264.94 483.02L259.57 482.13L245.94 483.02C244.92 482.72 243.86 482.6 242.94 482.02C242.63 481.69 242.09 481.31 241.94 481.02C241.49 474.94 247.97 471.44 251.94 467.02C255.02 463.59 256.42 461.98 258.94 458.02C260.81 455.08 262.56 452.23 263.94 449.02C268.46 438.5 268.27 433.62 268.94 423.02C269 422.03 268.89 421.01 268.94 420.02C271.64 417.05 271.32 410.55 271.57 406.36C272.5 390.6 271.85 375.87 261.94 363.02C260.1 360.63 257.95 358.28 255.94 356.02C255.63 355.67 255.26 355.36 254.94 355.02L251.94 352.02C249.69 349.68 247.94 346.65 244.94 345.02L242.94 344.02C242.72 343.91 241.4 343.96 240.94 344.02C242.7 342.58 232.84 335.93 231.75 334.94C209.05 314.31 203.99 300.64 188.94 276.02C186.74 273.88 190.4 269.44 191.94 268.49C194.13 267.13 197.75 271.72 199.94 269.02C222.83 297.76 228.21 308.73 260.94 328.02C262.48 328.93 265.37 333.6 268.93 333.02C269.64 329.83 268.23 326.86 267.94 324.02C266.41 309.34 266.34 293.96 264.84 279.62C262.65 258.76 248.39 253.88 234.93 241.53C227.66 234.86 221.9 226.94 214.94 220.02C215.58 218.94 219.37 207.24 219.94 205.02C224.36 213.07 255.66 244.7 263.94 242.02C265.5 241.51 265.52 239.27 263.94 239.02C263.96 238.37 263.85 237.64 263.94 237.02C263.98 236.75 264.88 235.94 264.99 234.6C265.7 225.7 265.44 216.04 266 207.06C270.74 206.76 275.06 205.8 278.94 203.01C278.52 208.62 280.1 214.03 280.74 219.52C281.21 223.61 280.33 222.79 281.95 228.01V228Z" fill="#64451C"/>
<path d="M188.95 276C204.01 300.62 209.06 314.29 231.76 334.92C232.85 335.91 242.7 342.56 240.95 344L237.95 345C237.62 345.04 237.28 344.97 236.95 345C229.66 345.74 222.39 346.52 214.95 346C214.84 345.97 213.84 345.32 212.95 345H211.95C209.38 343.88 206.38 342.39 203.95 341C201.36 339.52 198.66 337.18 195.95 336C195.62 335.66 195.26 335.34 194.95 335L193.95 334C193.62 333.69 193.29 333.19 192.95 333C189.86 331.33 186.77 334.86 183.47 336.02C179.44 337.43 175.28 338.87 170.95 339C170.29 338.96 169.6 339.07 168.95 339C161.36 338.17 153.76 336.58 146.95 333C140.14 329.42 134.08 323.08 129.95 317C125.58 307.38 123.13 297.69 123.95 287C146.27 289.45 166.01 279.08 175.95 259C179.92 264.21 185.6 270.53 188.95 276Z" fill="#55751D"/>
<path d="M404.95 291C412.61 301.81 426.53 309.5 439.95 310C440.51 317.09 437.7 323.68 434.95 330V331C434.78 331.32 434.2 331.61 433.95 332L432.95 334C432.69 334.35 432.25 334.64 431.95 335C420.92 348.25 405.36 355.32 387.95 352C379.35 350.36 373.31 346.16 366.47 340.98C359.71 344.68 349.37 349.68 341.64 347.98C340.8 347.79 340.96 345.3 338.95 346C343.36 339.44 355.01 315.85 359.22 312.28C361.55 310.3 371.29 307.98 374.82 306.37L404.95 291Z" fill="#55751D"/>
<path d="M123.95 287C123.13 297.69 125.58 307.38 129.95 317C123.31 307.22 122.03 300.02 122.91 288.04C116.65 286.88 107.98 285.37 103.95 280C109.46 282.53 118.06 286.35 123.95 287Z" fill="#E3D9A3"/>
<path d="M236.95 345C237.52 348.16 235.38 346.69 233.52 347.02C225.09 348.5 222.98 348.36 214.95 346C222.39 346.52 229.66 345.74 236.95 345Z" fill="#E3D9A3"/>
<path d="M431.95 335C432.72 337.95 431.24 337.51 430.11 338.65C418.45 350.38 408.26 354.59 391.4 354.01C389.48 353.94 387.39 355.03 387.94 352.01C405.35 355.33 420.91 348.26 431.94 335.01L431.95 335Z" fill="#E3D9A3"/>
<path d="M168.95 339C163.19 341.81 155.25 337.95 149.75 335.65C148.24 335.02 146.41 335.68 146.95 333C153.76 336.58 161.36 338.17 168.95 339Z" fill="#E3D9A3"/>
<path d="M192.95 333C186.33 334.68 181.67 339.81 174.34 340.07C172.32 340.14 171.23 339.02 170.95 339C175.28 338.87 179.44 337.42 183.47 336.02C186.78 334.87 189.87 331.33 192.95 333Z" fill="#E3D9A3"/>
<path d="M212.95 93C208.3 93.98 202.34 95.23 197.95 93C202.75 92.56 208.08 93.32 212.95 93Z" fill="#55751D"/>
<path d="M195.95 336C198.66 337.18 201.36 339.52 203.95 341C201.73 343.5 202.2 340.56 201.24 340.01C199.87 339.23 196.77 338.47 196.13 337.79C195.62 337.25 196.09 336.13 195.96 335.99L195.95 336Z" fill="#E3D9A3"/>
<path d="M240.95 344C240.77 344.02 240.33 344.7 237.95 345L240.95 344Z" fill="#E3D9A3"/>
<path d="M432.95 334L433.95 332C433.69 332.4 433.67 333.03 432.95 334Z" fill="#E3D9A3"/>
<path d="M434.95 331V330C434.95 330 435.59 329.82 434.95 331Z" fill="#E3D9A3"/>
<path d="M194.95 335C194.64 334.66 194.29 334.31 193.95 334L194.95 335Z" fill="#E3D9A3"/>
<path d="M244.95 345C244.38 347.41 243.54 344.29 242.95 344L244.95 345Z" fill="#E3D9A3"/>
<path d="M211.95 345H212.95C212.95 345 213.1 345.5 211.95 345Z" fill="#E3D9A3"/>
<path d="M254.95 355C254.01 354.01 252.93 353.02 251.95 352L254.95 355Z" fill="#E3D9A3"/>
<path d="M323.95 199C337.09 200.98 344.57 197.7 353.95 189.61C354.67 188.99 354.47 188.62 355.95 189C354.88 192.45 359.12 203.52 358.76 205.36C358.55 206.42 348.3 217.6 346.25 222.79C340.08 238.44 345.5 261.56 357.95 272.99L340.78 304.32C334.95 313.01 329.25 321.63 322.95 329.99C319.1 330.81 316.71 330.6 312.95 329.99C305.44 328.77 301.9 324.77 294.95 322.99C295.01 321.43 295.29 320.38 295.96 319C293.81 319.11 292.42 319.5 292.95 316.99C291.58 303.14 288.81 288.09 293.06 274.6C298.77 256.47 312.6 240.15 318.95 218.99C320.91 212.44 322.24 205.61 323.95 198.99V199Z" fill="#55751D"/>
<path d="M214.95 220C221.91 226.92 227.67 234.84 234.94 241.51C248.4 253.86 262.66 258.74 264.85 279.6C266.35 293.93 266.43 309.32 267.95 324L260.95 328C228.22 308.71 222.84 297.74 199.95 269C194.04 261.58 188.11 251.88 179.95 247C180.23 244.43 179.07 237.7 180.89 236.44C187.41 235.94 192.58 236.12 198.63 233.18C204.68 230.24 207.87 225.52 212.46 220.97C213.27 220.17 214.88 220.12 214.95 220Z" fill="#55751D"/>
<path d="M219.95 205C220.66 202.24 221.93 197.08 221.98 194.44C222.03 191.8 220.08 185.7 221.09 184.13C221.36 183.7 228.02 182 229.63 181.18C236.63 177.59 245.16 170.73 243.95 162C245.65 159.74 248.17 168.28 248.56 168.88C251.79 173.97 259.71 182.05 264.95 184.99L263.95 236.99C263.86 237.61 263.97 238.34 263.95 238.99C263.92 239.99 263.97 240.99 263.95 241.99C255.67 244.67 224.37 213.04 219.95 204.99V205Z" fill="#55751D"/>
<path d="M278.95 190C286.93 190.86 296.95 186.6 304.31 183.92C306.91 187.74 310.16 191.32 313.95 194C311.96 201.13 309.72 209.18 306.95 216C306.83 216.29 307.07 216.72 306.95 217C306.84 217.26 306.14 217.56 305.95 218C300.95 229.43 294.13 240.94 285.45 250C282.84 242.99 284.05 234.73 281.95 228L278.95 190Z" fill="#55751D"/>
<path d="M278.95 190L281.95 228C280.32 222.78 281.21 223.59 280.74 219.51C280.11 214.02 278.52 208.61 278.94 203C275.06 205.79 270.75 206.75 266 207.05C265.45 216.02 265.7 225.68 264.99 234.59C264.88 235.93 263.98 236.74 263.94 237.01L264.94 185.01C267.77 186.6 275.98 189.69 278.94 190.01L278.95 190Z" fill="#4F3D15"/>
<path d="M199.95 269C197.76 271.7 194.14 267.11 191.95 268.47C190.41 269.42 186.74 273.86 188.95 276C185.6 270.53 179.92 264.21 175.95 259C176.9 257.09 179.72 249.09 179.95 247C188.11 251.88 194.04 261.58 199.95 269Z" fill="#4F3D15"/>
<path d="M323.95 199C322.24 205.62 320.91 212.45 318.95 219C317.93 215.85 316.28 211.4 315.94 217.99C314.4 218.36 315.37 216.62 314.22 216.04C311.98 214.9 309.24 215.07 306.95 216C309.72 209.18 311.96 201.13 313.95 194C316.39 195.73 321.11 198.57 323.95 199Z" fill="#4F3D15"/>
<path d="M392.95 284C385.24 289.73 375.86 292.72 366.96 296C365.95 294.93 371.8 283.94 372.95 282C378.87 283.93 386.75 284.45 392.95 284Z" fill="#55751D"/>
<path d="M268.95 420C270.01 399.97 272.75 381.15 261.95 363C271.86 375.85 272.51 390.58 271.58 406.34C271.33 410.53 271.65 417.03 268.95 420Z" fill="#4F3D15"/>
<path d="M309.95 392V402C308.28 405.01 308.25 411.79 309.95 415C309.97 415.67 309.92 416.34 309.95 417C306.93 417.56 308.02 415.47 307.95 413.54C307.69 405.89 308.82 398.59 308.97 390.98C309.46 391.08 309.8 391.98 309.95 391.99V392Z" fill="#4F3D15"/>
<path d="M317.95 456C312.73 448.28 308.37 437.32 310.95 428C312.06 438.17 313.36 446.68 317.95 456Z" fill="#4F3D15"/>
<path d="M263.95 449L268.95 423C268.28 433.6 268.47 438.48 263.95 449Z" fill="#4F3D15"/>
<path d="M264.95 483C258.64 484.23 252.08 484.81 245.95 483L259.58 482.11L264.95 483Z" fill="#4F3D15"/>
<path d="M263.95 242C263.97 241 263.92 240 263.95 239C265.53 239.25 265.51 241.49 263.95 242Z" fill="#4F3D15"/>
<path d="M305.95 218C306.14 217.56 306.84 217.26 306.95 217L305.95 218Z" fill="#4F3D15"/>
<path d="M309.95 415C308.25 411.79 308.28 405.01 309.95 402C309.95 406.31 309.81 410.69 309.95 415Z" fill="#64451C"/>
</g>
<path d="M133.524 755.533C144.813 788.361 221.703 768.715 221.703 768.715C238.851 765.534 254.067 725.809 233.166 708.957C215.55 694.753 200.271 692.59 177.613 692.26C153.8 691.913 132.803 689.632 118.975 708.957C112.571 717.906 122.885 724.591 133.524 755.533Z" fill="#9BD552"/>
<path d="M133.524 755.533C144.813 788.361 221.703 768.715 221.703 768.715C238.851 765.534 254.067 725.809 233.166 708.957C215.55 694.753 200.271 692.59 177.613 692.26C153.8 691.913 132.803 689.632 118.975 708.957C112.571 717.906 122.885 724.591 133.524 755.533Z" fill="black" fill-opacity="0.1"/>
<path d="M93.286 387.896C93.406 388.156 94.936 388.596 95.346 389.296C97.426 392.936 96.056 405.076 97.276 410.186C97.486 411.056 99.3561 411.346 100.146 412.496C108.186 424.296 118.436 427.536 132.746 424.836C136.206 424.186 138.616 419.706 141.786 423.916C146.426 430.086 150.196 431.146 158.266 433.436C161.506 434.356 164.146 432.446 163.306 436.886L172.306 432.886C172.086 437.396 172.216 441.856 172.306 445.886C172.306 446.216 172.286 446.556 172.306 446.886L171.496 447.556L171.296 451.886C169.076 452.276 168.286 449.746 166.296 448.886C159.086 440.836 156.586 431.926 144.306 429.886C142.486 431.826 157.106 455.366 159.296 458.886C160.946 461.526 160.716 464.396 165.296 465.886C165.556 466.216 166.006 466.486 166.296 466.886C166.406 467.036 166.006 467.936 166.516 468.646C166.986 469.306 169.136 469.496 169.816 470.856C170.646 472.516 170.426 486.896 170.366 490.406C170.136 502.316 169.396 516.406 168.186 528.256C168.016 529.906 167.436 532.326 166.816 533.866L158.306 527.876C156.836 526.406 155.836 525.686 154.306 523.876C153.706 523.166 153.396 520.506 150.306 519.876C149.976 519.536 149.636 519.216 149.306 518.876C148.976 518.536 148.646 518.206 148.306 517.876C147.616 517.186 146.986 516.596 146.306 515.876C145.976 515.536 145.626 515.216 145.306 514.876C143.716 513.186 141.666 512.466 140.306 509.876C140.116 509.516 140.436 508.486 140.296 507.876C139.156 507.696 139.376 508.886 139.306 508.876C136.566 508.356 123.446 492.916 118.346 491.286C114.616 490.096 111.506 492.126 112.696 495.896C125.586 512.176 142.336 527.646 153.706 544.956C158.016 551.526 158.926 554.856 161.296 561.866C142.476 581.286 109.356 582.046 90.776 561.886C89.146 560.126 84.856 552.676 84.316 552.346C82.296 551.106 74.466 552.146 71.036 551.626C57.026 549.476 42.616 531.066 41.306 517.356C40.996 514.066 42.386 505.526 42.126 504.456C41.976 503.836 35.236 498.166 33.476 495.186C26.536 483.436 27.816 464.356 36.276 453.626C37.426 452.166 39.936 451.666 40.776 449.846C42.006 447.176 42.036 441.026 43.246 437.316C45.386 430.756 52.6361 421.086 58.7661 417.836C60.8661 416.726 67.736 415.186 68.106 414.666C68.596 413.976 68.376 411.606 69.076 410.166C74.3361 399.306 82.1361 392.406 93.2961 387.866L93.286 387.896Z" fill="#77A232"/>
<path d="M260.285 364.896C259.355 368.446 257.435 372.736 255.125 376.236C252.635 380.006 249.875 383.406 246.285 385.896C243.895 385.206 244.355 383.996 242.835 383.826C230.145 382.336 217.405 385.666 211.885 398.006C210.545 400.986 210.575 405.776 209.805 406.926C209.155 407.906 204.085 409.356 202.405 410.526C201.105 411.436 197.065 416.426 196.275 417.896C196.045 413.366 190.695 414.226 190.325 413.856C189.985 413.526 189.335 405.856 189.235 404.446C188.915 399.786 190.395 393.746 188.275 389.906H187.275C187.195 389.586 187.375 389.196 187.275 388.906C186.955 387.976 186.265 387.106 185.275 386.906C181.955 386.226 179.205 387.236 177.275 389.906C175.495 392.376 174.745 394.376 174.385 397.516C173.145 408.476 172.815 421.716 172.275 432.906L163.275 436.906C164.115 432.456 161.465 434.366 158.235 433.456C150.175 431.166 146.405 430.106 141.755 423.936C138.585 419.726 136.175 424.196 132.715 424.856C118.405 427.556 108.155 424.316 100.115 412.516C99.3252 411.366 97.4552 411.076 97.2452 410.206C96.0352 405.096 97.3952 392.956 95.3152 389.316C94.9152 388.606 93.3752 388.176 93.2552 387.916C84.4652 368.476 99.9152 340.276 122.185 339.846C123.305 323.206 133.775 310.066 150.205 306.366C157.915 304.636 155.135 307.606 161.595 302.256C176.855 289.606 202.685 289.556 217.295 304.376C219.315 306.426 222.385 312.896 223.245 313.426C224.985 314.496 231.585 313.736 235.075 314.596C255.775 319.696 265.175 346.096 260.255 364.916L260.285 364.896Z" fill="#81AB38"/>
<path d="M185.285 386.896L187.285 388.896C187.385 389.186 187.205 389.576 187.285 389.896C187.525 390.826 186.835 392.396 188.285 392.896V395.896C186.585 399.106 186.615 405.886 188.285 408.896C188.285 440.406 187.885 471.726 192.735 502.946C193.585 504.206 195.295 504.106 196.585 503.736C201.715 502.246 218.055 475.786 221.285 469.896C222.525 471.106 220.965 473.396 221.255 475.336C221.485 476.866 228.465 485.756 231.285 482.896C222.085 499.256 210.605 513.486 201.865 528.976C193.125 544.466 199.355 557.346 200.285 573.896C200.375 575.556 200.195 577.236 200.285 578.896C195.075 579.816 187.575 579.056 182.785 579.896C179.165 580.536 179.455 583.596 182.545 585.136C187.885 587.796 194.675 586.406 200.285 585.896C201.355 605.176 201.795 624.656 203.285 643.896C199.915 646.536 182.245 645.796 182.235 650.386C182.205 656.796 200.285 653.166 204.285 651.896C205.275 663.656 206.105 675.526 207.415 687.266C208.575 697.706 212.065 710.166 212.355 720.376C212.595 728.946 209.215 731.316 201.495 733.596C190.555 736.846 171.205 737.196 160.495 733.186C151.905 729.966 153.005 725.556 153.245 717.356C153.485 709.156 155.545 699.996 156.285 691.896C160.765 692.686 181.745 698.036 183.165 692.276C183.325 691.626 182.755 690.196 182.335 689.586C180.935 687.566 161.435 686.446 157.285 684.896C159.395 661.686 161.045 638.166 162.285 614.896C166.185 614.156 181.355 617.266 181.335 611.386C181.315 605.966 165.855 608.406 162.285 607.896C162.875 595.546 166.035 574.616 163.015 563.626C162.705 562.496 161.325 562.016 161.285 561.896C158.915 554.886 158.005 551.556 153.695 544.986C142.325 527.676 125.575 512.206 112.685 495.926C111.495 492.146 114.605 490.126 118.335 491.316C123.435 492.936 136.555 508.376 139.295 508.906L140.295 509.906C141.655 512.496 143.705 513.216 145.295 514.906L146.295 515.906C146.975 516.626 147.605 517.216 148.295 517.906L149.295 518.906C149.625 519.246 149.965 519.566 150.295 519.906C151.525 521.186 152.255 523.186 154.295 523.906C155.825 525.716 156.825 526.436 158.295 527.906C166.235 535.836 169.035 538.996 170.215 525.236L172.375 472.376C172.275 471.596 168.015 467.006 166.295 466.916C166.005 466.516 165.555 466.246 165.295 465.916C163.335 463.416 161.905 461.006 159.295 458.916C157.105 455.406 142.485 431.856 144.305 429.916C156.595 431.956 159.085 440.856 166.295 448.916C167.045 449.746 171.015 455.396 172.285 453.916C172.185 451.606 172.445 449.226 172.285 446.916C172.265 446.586 172.285 446.246 172.285 445.916L177.285 389.916C179.215 387.246 181.965 386.236 185.285 386.916V386.896Z" fill="#E3D9A3"/>
<path d="M297.286 454.896C296.966 456.776 297.676 458.896 296.286 460.886C303.996 458.826 300.066 461.976 302.206 463.466C303.486 464.356 306.676 463.686 308.586 464.096C309.996 464.406 313.696 467.716 313.036 464.616C312.746 463.266 311.686 461.706 313.806 460.906C316.566 459.856 316.276 462.936 316.846 462.936C318.826 462.946 321.346 460.006 321.816 464.006C321.976 465.416 319.986 465.756 323.996 466.696L335.296 456.896C334.116 464.666 333.216 468.136 328.726 474.826C327.716 476.336 324.676 478.306 324.436 479.536C324.146 481.036 327.286 484.556 328.066 486.616C340.666 519.986 311.666 554.116 276.946 546.996C268.536 559.626 256.576 567.446 240.806 565.876C237.576 565.556 230.996 562.656 229.036 563.066C227.336 563.426 217.626 569.816 213.256 571.336C209.716 572.566 204.066 574.046 200.296 573.876C199.366 557.326 193.286 544.176 201.876 528.956C210.466 513.736 222.096 499.236 231.296 482.876C232.206 481.256 235.566 479.086 235.296 475.876C238.506 476.316 242.736 474.846 244.656 475.156C246.026 475.376 248.126 477.856 250.096 478.586C262.336 483.096 276.326 480.146 284.126 469.256C286.436 466.036 286.936 460.846 288.296 459.386C289.446 458.156 295.326 455.926 297.296 454.886L297.286 454.896ZM319.286 464.906C314.836 464.016 316.466 466.746 316.296 469.886C319.826 470.566 316.566 466.366 319.286 464.906ZM324.286 467.906C323.196 466.816 321.206 468.806 322.296 469.896C323.386 470.986 325.376 468.996 324.286 467.906Z" fill="#6F992D"/>
<path d="M259.987 365.303C277.389 363.066 294.382 373.426 301.63 389.072C303.038 392.109 305.574 403.498 306.133 404.048C306.452 404.368 312.133 405.726 313.96 406.705C321.588 410.812 328.616 419.284 331.881 427.237C329.535 429.005 332.48 431.473 332.76 433.691C332.869 434.59 331.851 435.829 331.871 436.648C331.891 437.277 333.658 437.117 333.868 437.897C335.246 442.952 331.172 444.281 331.102 446.509C331.012 449.476 335.825 452.104 334.876 456.21C334.836 456.54 334.926 456.879 334.876 457.209L323.594 467C319.591 466.061 321.578 465.711 321.418 464.312C320.949 460.316 318.433 463.253 316.456 463.243C315.887 463.243 316.176 460.166 313.421 461.215C311.314 462.015 312.363 463.573 312.652 464.922C313.321 468.009 309.617 464.712 308.209 464.402C306.302 463.983 303.118 464.662 301.84 463.773C299.703 462.284 303.627 459.137 295.929 461.195C297.317 459.207 296.608 457.089 296.928 455.211C297.756 450.365 298.056 453.113 299.913 450.745C312.642 434.51 307.84 409.922 284.937 410.252C286.894 391.949 275.822 380.659 257.432 382.228C251.301 382.747 249.744 386.534 247.298 387.113C246.399 387.323 246.15 386.314 246 386.274C249.584 383.786 252.35 380.4 254.826 376.623C257.122 373.126 259.049 368.84 259.977 365.293L259.987 365.303ZM327.378 444.231V445.23C328.027 444.9 328.027 444.561 327.378 444.231ZM328.876 456.23H325.891V459.217C327.808 458.178 329.515 458.658 328.866 456.23H328.876ZM310.406 462.214V463.213C311.055 462.884 311.055 462.544 310.406 462.214Z" fill="#77A232"/>
<path d="M157.285 684.896C161.445 686.446 180.945 687.566 182.335 689.586C182.755 690.186 183.325 691.626 183.165 692.276C181.745 698.046 160.765 692.686 156.285 691.896C156.515 689.366 157.125 686.706 157.285 684.896Z" fill="#89B13C"/>
<path d="M204.285 651.896C200.285 653.156 182.205 656.796 182.235 650.386C182.255 645.796 199.925 646.546 203.285 643.896C203.445 645.986 204.055 649.126 204.285 651.896Z" fill="#89B13C"/>
<path d="M200.286 578.896C200.416 581.216 200.156 583.576 200.286 585.896C194.676 586.406 187.886 587.796 182.546 585.136C179.456 583.596 179.166 580.536 182.786 579.896C187.576 579.046 195.076 579.816 200.286 578.896Z" fill="#89B13C"/>
<path d="M162.286 614.896C162.406 612.576 162.176 610.216 162.286 607.896C165.856 608.406 181.326 605.956 181.336 611.386C181.356 617.276 166.186 614.156 162.286 614.896Z" fill="#89B13C"/>
<path d="M166.285 466.896C168.005 466.986 172.265 471.586 172.365 472.356L170.205 525.216C169.025 538.976 166.235 535.816 158.285 527.886L166.795 533.876C167.425 532.336 168.005 529.906 168.165 528.266C169.375 516.406 170.115 502.326 170.345 490.416C170.415 486.906 170.635 472.526 169.795 470.866C169.115 469.506 166.965 469.316 166.495 468.656C165.985 467.936 166.385 467.046 166.275 466.896H166.285Z" fill="#6C9026"/>
<path d="M159.285 458.896C161.895 460.986 163.325 463.396 165.285 465.896C160.705 464.406 160.935 461.536 159.285 458.896Z" fill="#6C9026"/>
<path d="M150.285 519.896C153.375 520.526 153.685 523.186 154.285 523.896C152.245 523.176 151.515 521.176 150.285 519.896Z" fill="#6C9026"/>
<path d="M140.285 509.896L139.285 508.896C139.355 508.906 139.135 507.716 140.275 507.896C140.415 508.506 140.095 509.536 140.285 509.896Z" fill="#6C9026"/>
<path d="M149.285 518.896L148.285 517.896C148.625 518.226 148.955 518.556 149.285 518.896Z" fill="#6C9026"/>
<path d="M146.285 515.896L145.285 514.896C145.605 515.236 145.955 515.556 146.285 515.896Z" fill="#6C9026"/>
<path d="M246.286 385.896C246.426 385.936 246.686 386.946 247.586 386.736C250.036 386.156 251.596 382.366 257.736 381.846C276.156 380.276 287.246 391.576 285.286 409.896C308.226 409.566 313.036 434.176 300.286 450.426C298.426 452.796 298.116 450.046 297.296 454.896C295.326 455.936 289.446 458.166 288.296 459.396C286.936 460.856 286.426 466.046 284.126 469.266C276.316 480.166 262.336 483.116 250.096 478.596C248.136 477.876 246.026 475.386 244.656 475.166C242.736 474.856 238.506 476.326 235.296 475.886C229.396 475.076 226.116 471.746 223.296 466.886C221.976 464.616 221.466 461.176 221.236 460.946C220.876 460.586 213.376 460.296 211.076 459.596C194.466 454.546 188.506 432.346 196.286 417.876C197.076 416.406 201.116 411.416 202.416 410.506C204.096 409.336 209.166 407.886 209.816 406.906C210.576 405.746 210.556 400.966 211.896 397.986C217.416 385.646 230.156 382.326 242.846 383.806C244.366 383.986 243.906 385.186 246.296 385.876L246.286 385.896Z" fill="#89B13C"/>
<path d="M188.285 389.896C190.405 393.736 188.925 399.786 189.245 404.436C189.345 405.846 189.995 413.516 190.335 413.846C190.715 414.216 196.065 413.356 196.285 417.886C188.495 432.356 194.455 454.556 211.075 459.606C213.365 460.306 220.865 460.596 221.235 460.956C221.465 461.186 221.975 464.616 223.295 466.896C222.115 467.586 221.885 468.826 221.295 469.896C218.065 475.786 201.725 502.246 196.595 503.736C195.295 504.116 193.585 504.206 192.745 502.946C187.905 471.726 188.295 440.406 188.295 408.896C188.295 404.576 188.295 400.216 188.295 395.896V389.896H188.285Z" fill="#77A232"/>
<path d="M172.286 445.896C172.196 441.866 172.066 437.406 172.286 432.896C172.826 421.706 173.156 408.466 174.396 397.506C174.756 394.356 175.496 392.366 177.286 389.896L172.286 445.896Z" fill="#6F992D"/>
<path d="M188.285 392.896C186.835 392.396 187.525 390.826 187.285 389.896H188.285V392.896Z" fill="#BFD390"/>
<path d="M187.285 388.896L185.285 386.896C186.275 387.096 186.965 387.966 187.285 388.896Z" fill="#77A232"/>
<path d="M235.285 475.896C235.555 479.106 232.195 481.276 231.285 482.896C228.465 485.756 221.485 476.876 221.255 475.336C220.965 473.396 222.525 471.096 221.285 469.896C221.875 468.826 222.105 467.586 223.285 466.896C226.105 471.756 229.385 475.086 235.285 475.896Z" fill="#BFD390"/>
<path d="M188.285 408.896C186.615 405.886 186.585 399.106 188.285 395.896C188.285 400.216 188.285 404.576 188.285 408.896Z" fill="#BFD390"/>
<path d="M172.286 446.896C172.446 449.206 172.176 451.576 172.286 453.896C171.006 455.376 167.036 449.736 166.296 448.896C168.276 449.746 169.076 452.286 171.296 451.896L171.496 447.566L172.306 446.896H172.286Z" fill="#6C9026"/>
<path d="M319.286 464.906C316.566 466.376 319.816 470.576 316.296 469.886C316.476 466.736 314.836 464.006 319.286 464.906Z" fill="#77A232"/>
<path d="M324.286 467.906C325.376 468.996 323.386 470.986 322.296 469.896C321.206 468.806 323.196 466.816 324.286 467.906Z" fill="#77A232"/>
<path d="M310.785 461.896C311.435 462.226 311.435 462.566 310.785 462.896V461.896Z" fill="#6F992D"/>
<path d="M310.12 801.986C321.408 834.815 398.298 815.168 398.298 815.168C415.447 811.987 430.662 772.263 409.762 755.411C392.145 741.207 376.866 739.043 354.209 738.714C330.395 738.367 309.398 736.086 295.57 755.411C289.167 764.36 299.48 771.045 310.12 801.986Z" fill="#9BD552"/>
<path d="M310.12 801.986C321.408 834.815 398.298 815.168 398.298 815.168C415.447 811.987 430.662 772.263 409.762 755.411C392.145 741.207 376.866 739.043 354.209 738.714C330.395 738.367 309.398 736.086 295.57 755.411C289.167 764.36 299.48 771.045 310.12 801.986Z" fill="black" fill-opacity="0.1"/>
<g clip-path="url(#clip1_1955_2340)">
<path d="M246.076 575.824C232.67 572.949 221.362 552.164 220.238 539.513C217.245 505.838 243.083 481.084 275.902 480.348C275.226 408.324 383.153 396.42 396.261 468.424C409.797 461.949 421.741 460.448 436.012 465.957C455.326 473.406 464.526 492.283 461.632 512.422C460.776 518.33 457.186 523.74 454.938 529.09C466.386 529.826 475.933 536.838 480.796 547.002C478.708 554.391 478.976 561.562 474.829 568.385C468.872 578.191 451.497 585.65 440.398 586.664C424.943 588.066 413.317 580.538 405.212 567.887C405.391 567.599 407.111 561.751 407.181 561.343C408.384 554.362 401.224 552.134 395.764 555.953C392.283 558.389 382.775 571.428 380.826 571.855C378.429 572.373 378.499 569.26 378.359 567.887C380.478 563.372 378.966 557.097 379.354 551.975C379.712 547.271 380.13 543.919 380.348 539.046C380.378 538.389 380.348 537.713 380.348 537.057C380.905 536.609 383.412 538.379 382.168 533.725L381.343 533.079C381.721 528.732 384.993 512.959 377.932 514.113C377.385 516.569 373.914 517.783 373.416 518.936C372.521 521.005 372.571 525.222 371.696 527.907C369.597 534.312 364.495 540.08 358.469 543.024C354.132 545.142 352.501 543.859 348.951 543.989C347.439 544.038 346.663 545.023 346.534 545.013C346.206 544.983 345.868 545.043 345.54 545.013C342.516 544.764 336.658 541.303 333.615 540.04C333.476 541.711 333.148 543.432 332.611 545.013L324.873 555.963C319.692 559.802 313.168 563.81 306.753 564.904C303.103 565.53 301.104 564.237 296.807 565.898C296.459 566.037 295.564 565.57 295.057 566.107C293.396 567.838 292.461 578.34 285.34 579.792C282.784 580.309 273.943 581.194 271.685 580.578C268.503 579.702 264.077 574.193 263.56 574.113C262.387 573.934 255.962 576.331 253.396 576.47C252.252 576.53 247.2 576.082 246.086 575.844L246.076 575.824Z" fill="#759D2F"/>
<path d="M380.339 539.026C379.782 543.342 378.628 547.589 378.35 551.955C378.071 556.321 377.912 563.432 378.35 567.867C378.489 569.24 378.419 572.363 380.816 571.836C382.765 571.408 392.273 558.37 395.754 555.933C401.204 552.114 408.375 554.342 407.171 561.323C407.102 561.731 405.381 567.579 405.202 567.867C405.123 568.007 403.303 567.947 402.358 569.459C394.939 581.343 385.431 594.77 380.339 607.649C372.79 609.071 365.122 608.604 357.455 608.643C357.594 609.459 357.236 611.329 357.455 611.607C358.807 613.268 374.66 613.059 377.345 614.611C376.669 617.176 376.709 620.886 376.351 623.561C373.049 624.854 357.226 620.488 356.47 624.069C355.515 628.604 372.174 630.135 375.356 629.529C375.068 632.681 375.466 636.232 375.356 639.474C375.207 644.049 375.356 648.574 375.356 652.9V676.769C375.356 680.359 376.132 686.854 376.351 691.19C373.476 694.342 355.923 695.685 354.909 697.097C352.681 700.19 356.241 700.886 358.936 701.135C365.431 701.752 371.169 700.797 377.345 699.136C378.31 716.69 379.225 734.303 380.329 751.846C372.392 755.735 363.432 754.741 355.426 757.396C354.55 764.905 377.216 762.03 381.323 757.814C380.577 773.955 388.593 786.774 367.46 791.19C356.569 793.468 326.435 794.363 324.615 779.216C325.808 763.164 326.365 746.983 327.618 730.961C332.094 732.712 350.642 736.232 352.392 730.364C353.964 725.113 346.942 728.007 345.132 727.878C339.722 727.49 333.854 725.352 328.613 723.999C330.145 703.413 332.144 683.064 332.591 662.338C335.883 664.596 352.392 667.599 352.492 661.851C352.512 660.827 334.749 658.3 332.591 657.366C332.591 652.91 334.073 644.685 330.602 642.448C332.283 640.827 331.726 635.247 331.597 632.502C330.294 604.138 306.027 587.579 296.579 565.699C299.563 563.213 303.541 565.202 306.524 564.705C313.148 571.408 322.536 580.329 330.602 584.765C331.07 585.023 331.408 586.893 332.581 586.754C332.422 579.484 332.84 572.144 332.581 564.874C337.096 563.999 340.627 562 345.51 562.885V544.983C345.838 545.013 346.167 544.953 346.505 544.983V561.89C346.505 565.858 346.415 569.866 346.505 573.825C346.525 574.491 346.485 575.147 346.505 575.814C346.535 576.808 346.455 577.813 346.505 578.797C346.674 581.831 346.365 584.983 347.996 587.748C350.413 584.496 351.636 579.832 351.477 575.814C351.786 575.187 352.293 575.068 352.472 573.825C352.561 573.188 352.412 572.482 352.472 571.836C352.959 571.905 353.218 571.776 353.447 571.328C354.182 569.866 357.047 560.786 357.445 558.907C360.587 559.344 362.159 558.141 364.426 556.44C370.354 551.975 375.605 540.836 380.319 537.027C380.319 537.683 380.349 538.36 380.319 539.016L380.339 539.026Z" fill="#E2DA9E"/>
<path d="M465.869 611.627C461.284 612.403 457.644 615.177 453.168 616.321C448.942 617.395 435.585 617.007 434.043 618.589C433.029 619.633 430.921 630.085 429.071 632.512C421.681 641.771 411.179 647.102 399.682 649.36C393.576 650.563 393.834 647.878 392.522 647.5C385.838 645.551 380.776 645.103 375.366 639.474C375.475 636.232 375.077 632.681 375.366 629.529C375.575 627.281 376.092 625.55 376.36 623.561C376.718 620.886 376.679 617.176 377.355 614.611C377.534 613.934 379.712 609.25 380.339 607.649C385.431 594.77 394.938 581.343 402.358 569.459C403.302 567.947 405.112 568.007 405.202 567.867C413.307 580.508 424.933 588.047 440.389 586.644C451.488 585.63 468.852 578.171 474.819 568.365C478.967 561.542 478.698 554.372 480.787 546.982C491.239 568.812 485.153 596.958 465.869 611.627Z" fill="#648827"/>
<path d="M296.798 565.878C298.161 569.558 300.826 572.502 302.766 575.824C315.605 597.803 330.304 604.148 331.607 632.512C329.33 633.974 331.388 640.578 330.563 641.413C329.737 642.249 321.165 641.682 319.673 643.452C317.694 643.193 315.933 643.711 313.666 642.995C307.589 641.075 298.071 632.303 295.157 626.465C273.427 636.192 249.588 628.812 242.049 605.212C238.539 594.213 239.285 585.212 246.077 575.824C247.181 576.062 252.243 576.52 253.387 576.45C255.953 576.311 262.378 573.914 263.551 574.093C264.068 574.173 268.494 579.682 271.677 580.558C273.934 581.174 282.776 580.289 285.331 579.772C292.452 578.32 293.387 567.818 295.048 566.087C295.555 565.56 296.45 566.018 296.798 565.878Z" fill="#648827"/>
<path d="M380.339 751.856C380.448 753.646 381.751 755.765 381.334 757.824C377.226 762.04 354.561 764.915 355.436 757.406C363.432 754.75 372.403 755.745 380.339 751.856Z" fill="#759D2F"/>
<path d="M327.629 730.971C327.808 728.644 328.444 726.486 328.623 724.009C333.865 725.362 339.732 727.5 345.143 727.888C346.953 728.017 353.974 725.123 352.403 730.374C350.652 736.242 332.104 732.722 327.629 730.971Z" fill="#759D2F"/>
<path d="M377.355 699.146C371.179 700.807 365.441 701.752 358.946 701.145C356.251 700.886 352.701 700.2 354.918 697.107C355.933 695.695 373.486 694.352 376.361 691.2C376.45 693.04 377.196 696.312 377.355 699.156V699.146Z" fill="#759D2F"/>
<path d="M332.602 657.376C334.76 658.31 352.522 660.837 352.502 661.861C352.403 667.609 335.893 664.606 332.602 662.348C332.641 660.697 332.602 659.026 332.602 657.376Z" fill="#759D2F"/>
<path d="M465.869 611.627C461.821 614.71 457.724 616.799 452.94 618.589C446.605 618.628 440.3 620.986 434.044 618.589C435.585 617.007 448.942 617.395 453.169 616.321C457.644 615.177 461.284 612.403 465.869 611.627Z" fill="#557D1F"/>
<path d="M452.94 618.589C451.458 619.146 450.762 620.18 448.385 620.488C441.572 621.383 436.699 617.743 433.149 625.153C431.14 629.34 432.164 628.653 429.081 632.512C430.931 630.086 433.039 619.633 434.054 618.589C440.309 620.986 446.615 618.628 452.95 618.589H452.94Z" fill="#E2DA9E"/>
<path d="M330.612 642.458C330.542 642.527 329.657 642.358 328.971 642.816C328.613 643.044 328.633 644.357 327.946 644.486C327.061 644.655 321.432 643.681 319.672 643.452C321.164 641.692 329.727 642.269 330.562 641.413C331.397 640.558 329.329 633.974 331.606 632.512C331.736 635.257 332.293 640.836 330.612 642.458Z" fill="#557D1F"/>
<path d="M381.334 533.059C381.284 533.695 380.309 534.739 380.339 537.037C375.625 540.846 370.374 551.985 364.446 556.45C362.179 558.151 360.608 559.354 357.465 558.917C358.569 553.725 358.559 548.295 358.459 543.004C364.486 540.06 369.588 534.292 371.687 527.887C372.562 525.202 372.512 520.985 373.407 518.916C373.904 517.763 377.375 516.549 377.922 514.093C384.984 512.939 381.712 528.713 381.334 533.059Z" fill="#C1D493"/>
<path d="M332.601 544.993C330.135 552.273 332.342 554.252 332.601 561.9L330.612 584.774C322.546 580.339 317.345 576.56 310.721 569.856C309.399 568.524 307.966 566.405 306.743 564.884C313.158 563.79 319.692 559.782 324.864 555.943L332.601 544.993Z" fill="#648827"/>
<path d="M358.459 543.004C358.558 548.295 358.568 553.725 357.464 558.917C357.066 560.786 354.202 569.876 353.466 571.338C353.237 571.796 352.979 571.925 352.492 571.846C352.342 571.826 352.084 570.871 351.517 570.841L352.492 573.835C352.312 575.078 351.805 575.197 351.497 575.824C350.562 577.713 349.06 581.403 347.519 578.807L346.524 575.824C346.504 575.157 346.544 574.501 346.524 573.835C348.185 571.179 348.215 564.754 346.524 561.9V544.993C346.654 545.003 347.429 544.018 348.941 543.969C352.491 543.839 354.123 545.122 358.459 543.004Z" fill="#648827"/>
<path d="M345.53 544.993V562.895C340.647 562.01 337.116 564.009 332.601 564.884C332.571 563.889 332.631 562.895 332.601 561.9C332.343 554.252 330.135 552.273 332.601 544.993C333.138 543.412 333.476 541.691 333.606 540.02C336.649 541.284 342.507 544.744 345.53 544.993Z" fill="#C1D493"/>
<path d="M379.344 551.955H378.35C378.628 547.589 379.782 543.342 380.339 539.026C380.12 543.899 379.702 547.251 379.344 551.955Z" fill="#648827"/>
<path d="M378.35 567.867C377.913 563.432 378.062 556.5 378.35 551.955H379.345C378.957 557.077 380.469 563.352 378.35 567.867Z" fill="#557D1F"/>
<path d="M381.333 533.059L382.159 533.705C383.402 538.37 380.896 536.589 380.339 537.037C380.309 534.739 381.283 533.695 381.333 533.059Z" fill="#648827"/>
<path d="M376.36 623.561C376.092 625.55 375.575 627.281 375.366 629.529C372.183 630.135 355.515 628.614 356.48 624.069C357.236 620.478 373.069 624.854 376.36 623.561Z" fill="#759D2F"/>
<path d="M380.339 607.649C379.712 609.25 377.534 613.934 377.355 614.611C374.67 613.059 358.817 613.268 357.465 611.607C357.246 611.329 357.594 609.459 357.465 608.643C365.123 608.604 372.8 609.061 380.349 607.649H380.339Z" fill="#759D2F"/>
<path d="M351.497 575.824C351.656 579.832 350.433 584.496 348.016 587.758C346.395 585.003 346.693 581.841 346.524 578.807H347.519C349.06 581.403 350.562 577.713 351.497 575.824Z" fill="#557D1F"/>
<path d="M332.601 564.884C332.85 572.144 332.432 579.494 332.601 586.764C331.428 586.913 331.09 585.033 330.622 584.775L332.611 561.9C332.641 562.895 332.581 563.889 332.611 564.884H332.601Z" fill="#4C6B21"/>
<path d="M346.525 573.835C346.436 569.876 346.525 565.868 346.525 561.9C348.216 564.755 348.186 571.179 346.525 573.835Z" fill="#4C6B21"/>
<path d="M352.492 571.846C352.433 572.492 352.582 573.198 352.492 573.835L351.518 570.841C352.084 570.871 352.343 571.826 352.492 571.846Z" fill="#557D1F"/>
<path d="M347.519 578.807H346.525C346.475 577.823 346.554 576.818 346.525 575.824L347.519 578.807Z" fill="#4C6B21"/>
</g>
<defs>
<clipPath id="clip0_1955_2340">
<rect width="497.57" height="489.18" fill="white"/>
</clipPath>
<clipPath id="clip1_1955_2340">
<rect width="265.859" height="372.483" fill="white" transform="translate(220 420)"/>
</clipPath>
</defs>
</svg>
