<svg width="435" height="626" viewBox="0 0 435 626" fill="none" xmlns="http://www.w3.org/2000/svg">
<g clip-path="url(#clip0_1568_202)">
<path d="M425.48 160.92C417.7 149.46 405.83 141.92 392.91 137.51C391.02 136.87 389.11 136.29 387.19 135.78C379.47 133.72 371.54 132.44 363.49 131.86C361.82 131.73 360.15 131.63 358.46 131.57C360.01 130.4 361.56 129.24 363.09 128.06C378.62 116 393.94 101.55 401.62 83.05C408.94 65.43 406.85 46.09 395.67 30.58C369.3 -5.99001 319.11 -3.31001 279.99 5.83999C238.39 15.58 199.23 35.28 166.48 62.67C148.4 77.79 129.75 95.73 119.94 117.54C118.09 121.65 115.94 128.36 114.8 135.48C75.92 142.33 39.47 168.72 17.89 200.4C4.22996 220.45 -4.64004 246.78 2.54996 270.9C10.19 296.57 41.22 303.97 64.92 304.84C86.47 305.63 107.31 300.87 127.61 294.17C137.97 290.75 148.18 286.83 158.27 282.87C154.8 296.67 165.81 308.79 178.38 314.2C193.1 320.52 209.46 321.44 225.35 320.13C229.07 319.83 232.78 319.4 236.43 318.9C278.76 313.03 320.71 299.85 359.46 282C391.45 267.25 424.54 245.25 432.84 208.66C436.5 192.56 434.91 174.83 425.47 160.91L425.48 160.92Z" fill="#D17E26"/>
<path d="M392.91 137.51C391.02 136.87 389.11 136.29 387.19 135.78C379.47 133.72 371.54 132.44 363.49 131.86C349.88 139.99 335.39 146.51 321.48 151.45C321.28 151.53 321.08 151.59 320.88 151.66C313.07 154.41 305.13 156.75 297.07 158.66C282.5 162.13 267.6 164.23 252.63 164.91C249.81 165.04 246.85 165.11 243.82 165.11C233.93 165.08 223.25 164.1 214.03 160.71C203.68 156.93 195.16 150.11 191.57 138.22C190.92 136.07 188.1 136.67 187.86 138.71C182.25 188.38 140.13 220.96 97.9 240.79C96.19 241.59 97.06 244.36 98.86 244.3C109.73 243.92 118.97 250.4 124.4 259.54C130.52 269.8 130.55 282.13 127.82 293.46C127.76 293.7 127.71 293.95 127.63 294.19C137.99 290.77 148.2 286.85 158.29 282.89C154.82 296.69 165.83 308.81 178.4 314.22C184.08 316.66 190 318.31 196.06 319.3C205.68 320.92 215.61 320.96 225.36 320.15C227.62 312.9 231.09 305.94 233.59 301.21C233.69 301.02 233.79 300.82 233.9 300.63C241.97 285.49 252.83 271.97 265.62 260.58C274.68 252.5 284.69 245.53 295.36 239.88C315.69 229.07 338.4 222.95 361.57 222.71C362.86 222.7 363.62 221.52 363.38 220.32C360.14 203.55 365.53 187.12 372.83 172.15C378.68 160.17 385.5 148.64 392.89 137.54L392.91 137.51Z" fill="#AD5F18"/>
<path d="M321.48 151.44C318.81 163.03 315.89 174.56 312.67 186.01C307.57 204.16 301.8 222.13 295.37 239.85C288.25 259.44 280.36 278.73 271.7 297.68C267.48 306.93 263.06 316.08 258.48 325.15C249.89 342.13 240.67 358.82 230.85 375.12C229.98 396.91 229.09 418.68 227.97 440.45C226.5 469.07 224.5 497.65 221.85 526.16C221.39 531.16 220.91 536.17 220.39 541.16C218.52 559.74 213.9 598.86 210.46 625.63H162.66C164.89 607.67 167.44 585.41 169.39 570.44C174.85 528.6 179.92 486.74 184.44 444.83C185.86 431.78 187.21 418.72 188.49 405.66C191.05 379.7 193.37 353.74 195.39 327.74C195.6 324.92 195.83 322.1 196.07 319.28C198.61 287.64 201.71 256.06 205.47 224.54C205.92 220.76 206.37 216.97 206.85 213.19C209.02 195.68 211.41 178.18 214.03 160.71C223.26 164.1 225.12 165.39 235.01 165.41C233.54 178.48 235.55 265.83 234.1 296.57C261.77 254 283.03 207.45 297.07 158.66C305.13 156.75 313.07 154.41 320.88 151.66C321.08 151.58 321.28 151.52 321.48 151.45V151.44Z" fill="#EDD0C1"/>
<path d="M206.56 402.77C201.19 401.39 193.91 403.61 188.47 405.65C187.19 418.71 185.84 431.77 184.42 444.82C185.51 444.29 186.61 443.79 187.7 443.3C193.45 440.75 203.05 439.33 207.32 434.34C209.58 431.71 210.29 427.83 207.84 425.09C204.84 421.75 200.22 422.84 196.09 423.09C198.04 419.28 201.63 417.32 205.44 415.12C207.35 414.01 209.74 412.79 210.78 410.7C212.65 406.94 210.26 403.75 206.56 402.78V402.77Z" fill="#212332"/>
<path d="M207.8 525.87C202.24 526.25 192.58 527.69 189.63 533.25C186.51 539.17 194.42 540.3 198.33 540.37C205.77 540.5 213.2 540.04 220.38 541.16C220.9 536.17 221.37 531.17 221.84 526.16C217.08 525.62 212.25 525.57 207.8 525.87Z" fill="#212332"/>
<path d="M231.86 305.74C229.31 307.01 225.65 309.46 227.37 312.86C227.75 313.61 228.35 314.18 229.08 314.61C226.36 315.46 223.69 316.46 221.05 317.6C217.39 319.21 211.5 321.2 209.64 325.18C205.32 334.48 219.17 335.06 224.47 334.33C236.01 332.76 247.5 329.33 258.47 325.15C263.06 316.09 267.47 306.93 271.69 297.68C258.09 297.24 244.06 299.65 231.85 305.74H231.86Z" fill="#212332"/>
<path d="M206.84 213.19C206.36 216.97 205.91 220.76 205.46 224.54C209.19 224.29 212.93 223.9 216.59 223.17C220.16 222.47 228.17 220.93 228.38 216.03C228.69 208.7 216.5 210.54 206.85 213.19H206.84Z" fill="#212332"/>
<path d="M206.18 74.03C188.5 93.04 179.17 119.44 189.87 144.36C190.83 146.58 194.07 144.66 193.13 142.46C183.13 119.18 192.45 94.33 208.85 76.7C210.5 74.92 207.84 72.25 206.18 74.03Z" fill="#212332"/>
<path d="M122.42 246.79C97.86 233.4 70.28 241.96 47.46 254.76C45.34 255.95 47.24 259.21 49.36 258.02C70.94 245.91 97.15 237.32 120.51 250.05C122.64 251.21 124.55 247.96 122.41 246.79H122.42Z" fill="#212332"/>
</g>
<defs>
<clipPath id="clip0_1568_202">
<rect width="434.66" height="625.62" fill="white"/>
</clipPath>
</defs>
</svg>
