<svg width="408" height="530" viewBox="0 0 408 530" fill="none" xmlns="http://www.w3.org/2000/svg">
<g clip-path="url(#clip0_1568_213)">
<path d="M406.44 163.57C405.47 159.09 403.95 154.71 401.76 150.49C391.51 130.83 371.37 118.98 350.28 114.22C315.44 106.34 278.32 112.8 246.46 129.05C260.03 116.56 271.76 102.11 281.05 86.06C288.81 72.67 296.11 57.16 293.71 41.28C291.86 29.11 284.36 18.73 274.6 11.52C247.86 -8.25003 213.24 0.619972 185.95 14.34C157.68 28.55 130.7 49.06 118.17 79.06C110.31 97.87 108.33 126.05 120.87 143.41C79.9501 146.29 42.1001 178.81 20.2201 211.29C7.47005 230.24 -1.81994 253.8 0.300055 277C1.64006 291.57 8.93005 302.64 19.9701 308.86C26.0001 312.27 33.1201 314.24 41.0201 314.53C56.6701 315.14 72.3301 310.09 87.1501 305.64C100.56 301.59 113.78 296.94 126.79 291.76C122.22 297.67 118.48 304.15 115.73 311.19C112.03 320.72 108.62 333 112.39 342.99C119.04 360.61 142.62 363.26 158.66 364.05C209.8 366.62 259.69 348.15 302.01 320.51C322.39 307.2 341.49 291.82 359.22 275.16C376.8 258.64 391.7 240.18 399.67 217.12C405.47 200.32 410.22 181.17 406.44 163.56V163.57Z" fill="#D17E26"/>
<path d="M406.44 163.57C379.6 180.86 350.15 194.01 319.25 202.32C302.38 206.86 284.21 211.09 266.39 210.82C261.49 210.75 256.63 210.31 251.82 209.48C250.72 209.29 249.62 209.08 248.54 208.81C230.14 204.66 213.14 192.79 207.95 173.87C207.49 172.18 204.81 171.61 203.99 173.35C202.05 177.44 199.94 181.42 197.7 185.29C189.17 200.01 178.58 213.22 166.66 225.23C152.87 239.16 137.33 251.47 121.21 262.65C104.28 274.37 86.73 285.78 68.38 295.1C53.22 302.79 36.74 308.79 19.98 308.85C26.01 312.26 33.13 314.23 41.03 314.52C56.68 315.13 72.34 310.08 87.16 305.63C100.57 301.58 118.48 304.14 115.74 311.18C112.04 320.71 108.63 332.99 112.4 342.98C116.61 354.11 127.55 359.27 139.1 361.74C145.82 363.2 152.76 363.75 158.67 364.04C171.88 364.7 184.99 363.97 197.92 362.03C235.07 356.47 270.63 341 302.03 320.5C322.41 307.19 341.51 291.81 359.24 275.15C376.82 258.63 391.72 240.17 399.69 217.11C405.49 200.31 410.24 181.16 406.46 163.55L406.44 163.57Z" fill="#AD5F18"/>
<path d="M266.37 210.82C264.72 216.59 262.99 222.33 261.17 228.05C259.87 232.13 258.52 236.17 257.12 240.21C254.85 246.79 252.45 253.32 249.94 259.8C236.11 295.55 218.63 329.84 197.9 362.04C187.82 377.71 176.98 392.87 165.4 407.47C158.46 441.24 146.78 491.83 137 529.91H85.1801C86.2801 526.3 87.1901 523.36 87.5701 522.38C108.01 469.94 125.21 416.26 139.09 361.75C141.11 353.8 143.08 345.83 144.96 337.86C147.01 329.16 148.98 320.44 150.87 311.7C157.04 283.06 162.3 254.23 166.66 225.24C178.57 213.23 189.17 200.02 197.7 185.3C196.37 200.78 194.85 216.25 193.15 231.7C189.9 261.09 185.97 290.42 181.37 319.62C204.24 302.74 220.1 278.19 231.83 252.3C238.23 238.16 243.65 223.59 248.54 208.82C249.62 209.08 250.72 209.3 251.82 209.48C256.63 210.32 261.49 210.75 266.39 210.82H266.37Z" fill="#EDD0C1"/>
<path d="M257.13 240.21C254.86 246.79 252.46 253.32 249.95 259.8C245.32 259.38 232.85 259.06 236.72 251.86C237.83 249.79 239.94 248.59 242.5 247.94C241.99 246.67 242.24 245.11 243.8 243.42C246.6 240.34 251.94 239.88 257.13 240.21Z" fill="#212332"/>
<path d="M177.99 323.63C174.64 322.05 170.82 321.27 166.9 320.87C169.15 319.4 169.81 317.29 166.7 314.21C163.06 310.6 156.91 310.44 150.87 311.69C148.98 320.44 147.01 329.15 144.96 337.85C147.13 337.89 149.31 337.76 151.35 337.82C156.74 337.96 162.12 338.12 167.51 338.27C172.32 338.4 182.37 340.96 185 335.23C187.36 330.1 182.12 325.56 177.99 323.62V323.63Z" fill="#212332"/>
<path d="M237.41 129.39C217.69 139.9 198.49 160.27 209.13 184.05C210.27 186.59 214.01 184.39 212.87 181.86C203.24 160.34 222.33 142.34 239.6 133.14C242.06 131.83 239.88 128.08 237.41 129.4V129.39Z" fill="#212332"/>
</g>
<defs>
<clipPath id="clip0_1568_213">
<rect width="407.79" height="529.91" fill="white"/>
</clipPath>
</defs>
</svg>
