<svg width="7623" height="5376" viewBox="0 0 7623 5376" fill="none" xmlns="http://www.w3.org/2000/svg">
<path d="M3658.08 119.603C2504.64 -304.365 2562.4 554.542 1366.27 305.293C1083.59 246.388 649.37 119.603 649.37 119.603C649.37 119.603 -467.897 1526.58 228.593 1622.28C925.084 1717.99 2151.11 1638.67 2290.89 1622.28C2430.67 1605.9 3574.6 1670.77 3955.06 2162.97C4330.17 2648.25 3856.42 3303.63 4337.92 3662.28C4733.11 3956.65 5286.82 3568.56 5681.9 3444.77C6076.98 3320.98 6636.16 6008.87 7416.38 5236.21C8052.36 4606.38 7046.23 3846.75 6731.01 2978.15C6214.51 1554.93 4995.31 611.128 3658.08 119.603Z" fill="#8CBEF2"/>
<path d="M4403.5 3426C4253.5 3214 4558.61 2265.15 4254.5 1813.5C4017.75 1461.88 3643.66 1515.28 3357 1203C3163.3 991.991 2990.47 876.128 2950.5 592.5C2864.62 -16.8652 3932.79 685.894 4482 963.5C5204.64 1328.77 6102.56 1613.39 5966 2411.5C5905.15 2767.13 5792.31 3009.25 5487 3201.5C5123.32 3430.5 4553.5 3638 4403.5 3426Z" fill="#72ABE8"/>
</svg>
