<svg width="5358" height="3191" viewBox="0 0 5358 3191" fill="none" xmlns="http://www.w3.org/2000/svg">
<path d="M5108.85 1556.92C4932.37 1473.43 4744.96 1418.13 4558.01 1364.19C4536.18 1357.88 4514.34 1351.59 4492.53 1345.3C4343.64 1302.24 4194.6 1259.66 4045.22 1218.3C4030.11 1214.11 4014.99 1209.93 3999.86 1205.78C3975.68 1199.14 3951.47 1192.52 3927.27 1185.92C3926.68 1185.77 3926.06 1185.6 3925.47 1185.43C3901.06 1178.81 3876.67 1172.21 3852.24 1165.68C3809.22 1154.14 3766.17 1142.81 3723.05 1131.65C3552.33 1087.42 3380.96 1045.98 3209.16 1005.9C3105.03 981.621 3000.77 955.025 2902.63 911.554C2878.79 900.985 2855.36 889.449 2832.51 876.751C2813.82 866.384 2785.58 852.514 2782.77 827.265C2779.59 798.448 2812.58 775.081 2832.82 761.033C2837.3 757.926 2842 754.888 2846.65 752.079L2283.02 611.549C2271.98 613.594 2260.72 614.876 2249.7 616.205C2221.94 619.615 2194.05 621.333 2166.17 621.8C2108.55 622.759 2051.07 618.491 1993.81 613.329C1884 603.456 1773.28 589.803 1662.6 602.739C1586.7 611.598 1452.64 641.691 1460.57 749.334C1463.98 795.7 1496.32 833.096 1533.29 854.649C1584.86 884.705 1647.2 895.733 1703.92 911.865C1941.94 979.591 2179.11 1050.42 2414.32 1127.51C2650.24 1204.86 2884.22 1288.52 3114.58 1381.66C3343.33 1474.18 3568.54 1576.06 3787.83 1690.19C3897.46 1747.24 4005.6 1807.33 4111.89 1870.76C4112.28 1870.99 4112.67 1871.21 4113.05 1871.45C4165.17 1902.51 4219.55 1932.41 4267.75 1969.81C4307.12 2000.38 4342.58 2042.19 4350.97 2094.1C4351.97 2100.28 4352.59 2106.61 4352.78 2113.07C4354.71 2178.06 4305.01 2223.97 4253.85 2251.95C4205.79 2278.25 4153.08 2292.76 4099.97 2300.61C3988.58 2317.06 3874.09 2311 3762.38 2309.51C3527.56 2306.4 3293.11 2296.03 3058.51 2288.53C2826.15 2281.12 2593.48 2276.47 2360.69 2284.72C2253.19 2288.53 2145.64 2295.1 2038.34 2305.48L4906.34 3020.55L5252.21 1633.34C5205.64 1605.39 5157.63 1580.01 5108.85 1556.93L5108.85 1556.92Z" fill="#8CBEF2"/>
<path d="M2408.02 691.198C2403.04 681.218 2394.92 673.285 2386.4 666.471C2388.58 666.533 2390.76 666.569 2392.93 666.591C2394.01 666.604 2394.27 664.852 2393.18 664.835C2390.14 664.797 2387.09 664.731 2384.04 664.628C2383.42 664.15 2382.81 663.651 2382.17 663.186C2381.49 662.668 2380.66 663.77 2381.34 664.301C2381.44 664.381 2381.55 664.461 2381.66 664.541C2346.93 663.231 2312.47 657.714 2279.2 647.921C2260.93 642.538 2243.05 635.903 2225.66 628.079C2208.19 620.234 2191.08 611.413 2173.05 604.964C2141.5 593.665 2108.88 593.497 2075.95 600.053C2043.13 606.584 2011.41 618.253 1979.13 627.203C1908.91 646.657 1836.84 645.421 1765.67 638.367C1747.93 636.617 1730.26 634.402 1712.55 632.419C1695.99 630.562 1679.16 629.226 1662.48 631.428C1630.52 635.661 1604.18 655.566 1583.93 681.374C1561.74 709.665 1546.74 744.146 1541.22 780.014C1536.32 811.867 1539.22 846.171 1556.18 873.252C1572.53 899.366 1599.45 915.74 1627.22 925.763C1659.61 937.462 1694.74 942.29 1729.17 942.095C1762.09 941.912 1796.57 937.626 1827.72 924.958C1841.85 919.207 1855.4 911.374 1866.85 900.785C1879.29 889.267 1888.3 874.701 1896.45 859.735C1904.93 844.17 1912.96 828.438 1923.44 814.172C1933.19 800.9 1944.41 788.797 1956.74 778.149C1982 756.356 2011.76 740.951 2043.42 733.289C2077.83 724.95 2113.26 724.977 2148.13 726.454C2186.74 728.104 2225.33 730.481 2263.92 732.526C2283.75 733.58 2303.57 734.635 2323.4 735.689C2339.85 736.569 2356.65 738.661 2373.16 737.299C2384.46 736.361 2397.27 733.5 2405.23 724.086C2413.22 714.64 2413.27 701.743 2408.02 691.198Z" fill="#72ABE8"/>
<path d="M5180.17 1922.28L5103.32 2230.49C5079.86 2209.5 5058.87 2185.45 5039.74 2160.14C4982.18 2083.94 4940.79 1995.13 4877.39 1923.67C4814.33 1852.55 4732.8 1799.7 4643.49 1771.87C4546.22 1741.55 4441.94 1745.46 4344.56 1715.61C4257.65 1688.94 4181.45 1636.65 4109.68 1580.97C4033.91 1522.18 3961.09 1459.31 3878.9 1410.09C3791.49 1357.75 3696.47 1318.9 3597.88 1294.98C3503.7 1272.13 3403.9 1261.88 3317.14 1215.34C3274.64 1192.53 3235.33 1160.9 3207.43 1120.66C3212 1114.51 3216.62 1108.36 3221.23 1102.24C3237.72 1104.15 3254.23 1105.82 3270.79 1107.23C3420.89 1120.1 3573.27 1115.38 3723.05 1131.67C3766.62 1136.41 3809.99 1142.94 3853.01 1152.18C3920.23 1166.63 3983.86 1189.19 4045.23 1218.32C4070.74 1230.43 4095.87 1243.67 4120.69 1257.96C4206.96 1307.56 4290.22 1363.08 4383.26 1398.8C4479.51 1435.74 4581.05 1456.01 4677.62 1492.01C4761.97 1523.43 4841.57 1567.8 4913.42 1623.15C4985.98 1679.03 5048.86 1745.84 5103.72 1820.48C5128.85 1854.71 5153.13 1889.72 5180.16 1922.3L5180.17 1922.28Z" fill="#72ABE8"/>
<path d="M2957.27 768.888L2545.28 676.966C2551.78 679.121 2558.27 681.313 2564.72 683.537C2589.23 692.027 2613.5 701.286 2637.2 711.925C2659.36 721.861 2681.05 732.988 2701.82 745.77C2712.47 752.327 2722.88 759.319 2733 766.761C2707.64 770.407 2682.95 779.86 2662.74 795.909C2627.36 823.997 2652.23 859.985 2681.24 877.695C3108.55 1138.65 3616.66 1217.54 4084.85 1370.93C4315.1 1446.36 4543.9 1541.62 4755.16 1661.72C4761.85 1665.51 4768.52 1669.37 4775.19 1673.24C4878.72 1733.43 4977.88 1802.55 5067.04 1884.09C5101.38 1915.52 5134.1 1948.83 5164.78 1984.04L5335.46 1299.48L2957.28 768.903L2957.27 768.888Z" fill="#A3DC7A"/>
<path d="M3334.96 1147.5C3360.21 1154.96 3384.48 1164.62 3410.15 1170.87C3436.64 1177.32 3463.46 1182.29 3490.09 1188.14C3585.42 1209.11 3679.23 1238.23 3772.63 1266.46C3866.27 1294.76 3959.65 1323.97 4053.81 1350.46C4101.2 1363.8 4149.06 1375.35 4196.54 1388.38C4242.33 1400.94 4287.38 1416.08 4332.14 1431.94C4392.18 1453.22 4451.83 1475.8 4512.38 1495.51C4512.18 1495.23 4511.99 1494.94 4511.75 1494.64C4452.54 1420.14 4381.28 1350.21 4279.94 1307.62C4135.93 1247.1 4060.82 1229.08 3905.99 1209.71C3860.71 1204.04 3815.15 1199.5 3770.62 1189.37C3687.36 1170.43 3612.45 1126.18 3529.95 1104.82C3448.38 1083.69 3361.32 1080.16 3277.39 1091.84C3267.62 1093.2 3257.89 1094.82 3248.17 1096.64C3247.39 1107.4 3247.58 1118.22 3248.57 1128.59C3277.22 1135.43 3306.9 1139.22 3334.94 1147.49L3334.96 1147.5Z" fill="#A3DC7A"/>
<path d="M5118.24 1675.98C5062.29 1598.74 4994.12 1525.5 4894.79 1478.22C4753.62 1411.05 4679.43 1389.54 4525.73 1363.01C4480.79 1355.25 4435.51 1348.6 4391.49 1336.41C4309.21 1313.61 4236.31 1265.9 4154.9 1240.72C4074.37 1215.82 3987.65 1208.27 3903.4 1216.08C3893.59 1216.99 3883.81 1218.15 3874.04 1219.53C3872.76 1230.58 3872.51 1241.76 3873.14 1252.47C3873.15 1252.72 3873.17 1252.95 3873.19 1253.19C3874.92 1254.81 3876.71 1256.4 3878.54 1257.91C3893.81 1270.53 3911.11 1280.73 3927.71 1291.31C3965.94 1315.67 4005.13 1338.59 4046.16 1357.59C4087.09 1376.55 4129.53 1390.63 4173.55 1400.11C4218.06 1409.68 4262.91 1417.07 4306.98 1428.66C4395.5 1451.93 4480.91 1485.44 4565.77 1519.64C4649.42 1553.36 4732.89 1587.96 4819.06 1614.59C4856.45 1626.14 4895.05 1638.61 4934.3 1641.79C4988.26 1646.14 5139.6 1705.48 5118.25 1676L5118.24 1675.98Z" fill="#A3DC7A"/>
<path d="M5205.48 1820.76L5148.75 2048.28C5129.69 2020.61 5109.56 1994.06 5086.86 1969.27C5025.53 1902.26 4953.24 1846.92 4879.78 1795.37C4801.98 1740.77 4720.91 1691.25 4637.66 1646.08C4472.68 1556.53 4299.5 1483.9 4123.49 1420.52C3938.36 1353.83 3749.88 1297.34 3561.6 1240.64C3419.32 1197.8 3138.4 1094.53 3089.44 1072.21C3280.67 1098.98 3467.67 1150.78 3651.24 1204.55C3849.18 1262.55 3935.36 1276.34 4133.3 1334.34C4279.83 1377.27 4540.17 1458.18 4681.5 1517.12C4820.48 1575.05 4952.76 1648.69 5079.99 1730.11C5123.12 1757.7 5165.73 1787.53 5205.46 1820.77L5205.48 1820.76Z" fill="#F0B067"/>
<path d="M4779.36 2544.74C4764.36 2563.73 4746.09 2579.55 4727.16 2594.02C4708.43 2608.34 4842.87 2666.81 4822.71 2678.77C4781.89 2703 4860.77 2794.07 4816.92 2811.11C4725.41 2846.66 4852.47 3140.76 4757.32 3161.73C4693.17 3175.87 4130.64 2803 4065.69 2810.98L42.636 1807.92L493.402 0C501.219 5.75761 509.114 11.4546 517.035 17.051C628.558 95.7988 753.782 151.516 882.23 193.899C1015.15 237.783 1152.04 267.343 1288.91 295.751C1290.07 295.998 1291.22 296.246 1292.38 296.482C1435.32 326.134 2055.42 533.581 2122.38 559.644C2217.58 596.691 2322.78 610.572 2416.09 651.691C2449.78 666.545 2427.66 687.45 2399.43 691.276C2312.6 703.09 2225.65 690.269 2140.03 678.706C2006.43 660.669 1869.55 657.172 1737.49 677.059C1716.12 680.282 1694.63 683.717 1673.46 688.408C1559.55 713.689 1576.49 799.564 1658.98 845.013C1721.18 879.285 1791.25 891.944 1856.11 917.418C2188.59 1047.98 2535.48 1150 2873.66 1265.79C3281.27 1405.34 3684.26 1533.38 4060.01 1752.25C4279.31 1880.01 4516.4 2025.35 4691.83 2215.18C4714.48 2239.68 4748.04 2270.38 4761.05 2302.25C4766.96 2316.73 4760.72 2382.14 4764.69 2385.49C4778.64 2397.32 4790.75 2411.22 4799.02 2428.01C4807.27 2444.74 4810.48 2464.06 4807.9 2482.98C4804.76 2505.95 4892.25 2536.87 4878.18 2554.68L4779.36 2544.74Z" fill="#A3DC7A"/>
<path d="M1705.58 853.96C1695.63 846.307 1584.44 771.84 1662.36 718.57C1702.17 691.356 1755.08 693.403 1801.61 690.304C1876.68 685.328 1959.81 691.074 2034.94 688.517C2082.31 686.924 2249.43 692.618 2265.99 693.5C2222.09 676.125 2137.1 663.569 2091.48 651.311C2010.13 629.465 1926.56 615.94 1842.32 611.199C1765.44 606.864 1687.05 609.851 1611.9 631.7C1593.57 637.031 1575.33 643.363 1557.79 651.284C1542.34 658.256 1526.73 667.274 1515.84 681.128C1505.87 693.823 1501.36 710.392 1504.17 726.367C1506.91 741.964 1515.25 755.737 1525.2 767.278C1536.43 780.316 1549.77 790.737 1563.69 800.41C1580.61 812.165 1598.25 822.844 1616.44 832.35C1652.7 851.308 1691.29 865.591 1731.05 874.771C1733.56 875.355 1736.07 875.901 1738.57 876.432C1727.22 869.512 1716.17 862.079 1705.58 853.948L1705.58 853.96Z" fill="#F0B067"/>
</svg>
