<svg width="4516" height="2774" viewBox="0 0 4516 2774" fill="none" xmlns="http://www.w3.org/2000/svg">
<path d="M4273.19 1245.86C4082.77 1158.89 3881.14 1100.04 3680.03 1042.58C3656.54 1035.85 3633.04 1029.15 3609.59 1022.45C3449.42 976.578 3289.09 931.178 3128.43 887.004C3112.17 882.536 3095.91 878.068 3079.64 873.638C3053.63 866.537 3027.6 859.459 3001.57 852.408C3000.93 852.249 3000.26 852.07 2999.63 851.884C2973.38 844.805 2947.15 837.745 2920.88 830.753C2874.62 818.404 2828.32 806.272 2781.96 794.3C2598.39 746.873 2414.18 702.227 2229.53 658.942C2117.62 632.723 2005.52 604.172 1899.68 558.781C1873.97 547.746 1848.67 535.746 1823.99 522.59C1803.79 511.847 1773.31 497.419 1769.86 472.01C1765.95 443.01 1798 446.5 1798 446.5C1798 446.5 1878.86 449.238 1836.93 397.619C1795 346 1473.76 223.335 1230.99 246.54C1217.06 247.871 1207.17 249.488 1195.4 250.629C1165.74 253.564 1125.91 254.799 1096.07 254.777C1034.38 254.725 982.764 249.425 921.37 243.231C803.625 231.38 684.842 215.716 566.567 226.759C485.46 234.319 342.456 262.182 352.842 370.437C357.308 417.067 392.59 455.197 432.555 477.496C488.299 508.594 555.246 520.769 616.254 537.971C872.295 610.188 1127.47 685.503 1380.66 767.086C1634.61 848.926 1886.61 937.081 2134.89 1034.69C2381.44 1131.64 2624.35 1237.94 2861.16 1356.44C2979.54 1415.67 3096.38 1477.93 3211.31 1543.51C3211.72 1543.75 3212.14 1543.97 3212.56 1544.22C3268.91 1576.34 3327.66 1607.33 3379.92 1645.74C3422.62 1677.14 3461.32 1719.76 3471.21 1772.04C3472.4 1778.27 3473.17 1784.64 3473.49 1791.13C3476.7 1856.44 3424.3 1901.68 3370.02 1928.88C3319.02 1954.45 3538.49 2256.18 3481.77 2263.12C3362.79 2277.68 3692.6 2347.91 3572.96 2344.45C3321.49 2337.18 3645.71 2482.71 3394.4 2471.04C3643.49 2466.86 3145.49 2459.51 3394.4 2471.04C3279.36 2472.98 3753.08 2655.29 3638.38 2663.83L4082.16 2712.35L4428.03 1325.14C4377.67 1296.24 4325.83 1269.91 4273.19 1245.87L4273.19 1245.86Z" fill="#8CBEF2"/>
<path d="M1724.85 401.797C1719.88 394.34 1712.15 388.213 1704.13 382.877C1706.1 383.026 1708.07 383.157 1710.04 383.277C1711.01 383.338 1711.16 382.083 1710.18 382.019C1707.43 381.846 1704.67 381.652 1701.91 381.431C1701.32 381.055 1700.75 380.665 1700.15 380.298C1699.51 379.891 1698.81 380.648 1699.45 381.064C1699.55 381.127 1699.65 381.19 1699.75 381.253C1668.3 378.639 1636.9 372.995 1606.35 364.315C1589.59 359.546 1573.11 353.889 1557.02 347.396C1540.85 340.884 1524.97 333.683 1508.36 328.154C1479.31 318.469 1449.82 316.781 1420.38 319.942C1391.03 323.089 1362.92 330.005 1334.18 334.927C1271.64 345.625 1206.46 341.271 1141.8 332.753C1125.68 330.636 1109.6 328.185 1093.5 325.902C1078.45 323.764 1063.18 321.99 1048.21 322.781C1019.53 324.308 996.675 337.438 979.613 355.129C960.919 374.524 949.02 398.739 945.753 424.413C942.854 447.213 947.114 472.159 963.744 492.558C979.778 512.228 1004.89 525.362 1030.47 533.943C1060.31 543.959 1092.28 549.136 1123.39 550.649C1153.14 552.096 1184.09 550.652 1211.63 542.986C1224.13 539.506 1236 534.492 1245.84 527.384C1256.53 519.651 1263.97 509.55 1270.62 499.119C1277.54 488.27 1284.04 477.278 1292.82 467.465C1300.99 458.335 1310.55 450.12 1321.19 443.012C1342.97 428.465 1369.13 418.753 1397.37 414.732C1428.07 410.354 1460.09 412.074 1491.67 414.816C1526.65 417.863 1561.63 421.434 1596.61 424.766C1614.58 426.48 1632.55 428.195 1650.52 429.909C1665.42 431.335 1680.71 433.654 1695.57 433.462C1705.73 433.326 1717.17 431.872 1723.91 425.446C1730.68 418.999 1730.11 409.674 1724.85 401.797Z" fill="#72ABE8"/>
<path d="M4356.69 1654.25L4279.85 1962.46C4254.36 1940.97 4231.46 1916.44 4210.54 1890.68C4147.56 1813.13 4101.68 1723.21 4032.54 1650.31C3963.78 1577.78 3875.54 1523.25 3779.44 1493.73C3674.76 1461.56 3563.17 1463.65 3458.39 1431.95C3364.86 1403.63 3282.36 1349.78 3204.54 1292.58C3122.37 1232.2 3043.3 1167.77 2954.43 1116.88C2859.92 1062.77 2757.5 1022.08 2651.53 996.313C2550.29 971.713 2443.25 959.658 2349.54 911.386C2303.64 887.726 2260.99 855.256 2230.4 814.355C2235.2 808.253 2240.03 802.161 2244.86 796.097C2262.55 798.301 2280.26 800.272 2298.01 801.984C2458.95 817.549 2622.01 815.494 2782.66 834.501C2829.4 840.021 2875.94 847.349 2922.17 857.391C2994.4 873.087 3062.92 896.867 3129.14 927.209C3156.67 939.819 3183.8 953.561 3210.63 968.347C3303.88 1019.69 3394 1076.92 3494.24 1114.43C3597.95 1153.24 3707.02 1175.38 3811.05 1213.24C3901.91 1246.29 3987.91 1292.25 4065.82 1349.11C4144.49 1406.52 4212.99 1474.73 4273.05 1550.66C4300.56 1585.48 4327.17 1621.07 4356.69 1654.28L4356.69 1654.25Z" fill="#72ABE8"/>
</svg>
