<svg width="5562" height="2818" viewBox="0 0 5562 2818" fill="none" xmlns="http://www.w3.org/2000/svg">
<path d="M5325.09 1546.12C5134.4 1468.12 4934.19 1411.59 4734.55 1356.17C4711.23 1349.68 4687.91 1343.22 4664.63 1336.75C4505.63 1292.53 4346.5 1248.67 4187.11 1205.76C4170.98 1201.42 4154.85 1197.08 4138.72 1192.77C4112.91 1185.86 4087.09 1178.97 4061.27 1172.1C4060.64 1171.94 4059.98 1171.76 4059.35 1171.59C4033.31 1164.68 4007.3 1157.79 3981.25 1150.96C3935.37 1138.89 3889.47 1126.99 3843.52 1115.22C3661.56 1068.57 3479.11 1024.07 3296.31 980.618C3185.52 954.293 3074.43 926.13 2968.58 885.086C2942.87 875.109 2917.51 864.396 2892.7 852.809C2872.39 843.345 2841.84 830.461 2837.16 810.362C2831.84 787.422 2864.79 771.276 2885.04 761.596C2889.52 759.456 2894.23 757.385 2898.92 755.492L2298.56 605.807C2287.13 606.657 2275.42 606.892 2263.97 607.18C2235.12 607.952 2206.01 607.382 2176.83 605.827C2116.5 602.607 2055.97 595.276 1995.61 587.256C1879.86 571.896 1762.89 553.492 1647.8 556.054C1568.87 557.802 1430.46 572.278 1446.19 657.692C1452.97 694.483 1489.43 726.197 1529.67 745.741C1585.78 772.996 1651.88 785.992 1712.42 802.624C1966.53 872.442 2219.95 944.645 2471.76 1021.66C2724.32 1098.92 2975.3 1181.02 3223.13 1270.35C3469.23 1359.07 3712.26 1454.93 3949.94 1560.05C4068.76 1612.59 4186.23 1667.43 4302 1724.77C4302.42 1724.98 4302.84 1725.18 4303.26 1725.39C4360.02 1753.48 4419.07 1780.81 4472.16 1813.61C4515.53 1840.43 4555.57 1875.84 4567.94 1917.35C4569.43 1922.29 4570.51 1927.32 4571.15 1932.43C4577.66 1983.8 4528.75 2016.57 4477.06 2035.1C4428.51 2052.52 4374.28 2060.32 4319.16 2062.84C4203.56 2068.13 4083.17 2055.45 3966 2046.57C3719.71 2027.92 3473.3 2003.56 3226.94 1981.46C2982.93 1959.59 2738.78 1939.87 2495.41 1930.31C2383.01 1925.9 2270.76 1923.66 2159.04 1924.44L5213.86 2686.09L5480.6 1616.27C5429.87 1591.01 5377.81 1567.7 5325.09 1546.13L5325.09 1546.12Z" fill="#8CBEF2"/>
<path d="M2435.05 677.228C2429.15 669.016 2420.09 662.201 2410.69 656.242C2412.98 656.44 2415.27 656.62 2417.55 656.787C2418.67 656.872 2418.83 655.508 2417.69 655.419C2414.49 655.18 2411.29 654.917 2408.1 654.626C2407.41 654.206 2406.73 653.77 2406.04 653.36C2405.29 652.905 2404.49 653.716 2405.24 654.181C2405.36 654.252 2405.47 654.322 2405.59 654.393C2369.1 650.964 2332.62 644.237 2297.07 634.22C2277.56 628.716 2258.36 622.251 2239.6 614.882C2220.75 607.492 2202.21 599.357 2182.87 593.028C2149.03 581.943 2114.84 579.56 2080.78 582.457C2046.84 585.341 2014.4 592.353 1981.19 597.182C1908.94 607.674 1833.34 601.727 1758.27 591.255C1739.56 588.652 1720.88 585.686 1702.19 582.901C1684.71 580.295 1666.98 578.08 1649.65 578.665C1616.45 579.798 1590.22 593.673 1570.78 612.623C1549.48 633.397 1536.14 659.547 1532.83 687.445C1529.9 712.221 1535.29 739.466 1554.94 761.987C1573.88 783.704 1603.22 798.471 1633.01 808.289C1667.76 819.748 1704.9 825.977 1740.97 828.2C1775.46 830.327 1811.3 829.327 1843.06 821.488C1857.48 817.929 1871.14 812.688 1882.4 805.13C1894.65 796.907 1903.08 786.044 1910.59 774.808C1918.41 763.122 1925.73 751.273 1935.73 740.748C1945.03 730.957 1955.95 722.188 1968.14 714.645C1993.11 699.205 2023.23 689.113 2055.88 685.257C2091.37 681.057 2128.5 683.523 2165.14 687.093C2205.72 691.058 2246.32 695.594 2286.9 699.869C2307.75 702.068 2328.6 704.268 2349.45 706.467C2366.74 708.296 2384.5 711.104 2401.71 711.17C2413.48 711.21 2426.7 709.838 2434.4 702.965C2442.13 696.069 2441.29 685.904 2435.05 677.228Z" fill="#72ABE8"/>
<path d="M5425.04 1839.09L5365.78 2076.79C5339.74 2058.62 5316.09 2038.21 5294.3 2016.94C5228.71 1952.89 5179.22 1880.02 5107.84 1819.3C5036.86 1758.88 4947.76 1711.58 4852.26 1683.48C4748.23 1652.87 4639.22 1648.75 4535.12 1618.5C4442.19 1591.48 4358.74 1545 4279.69 1496.14C4196.22 1444.57 4115.57 1389.98 4026.05 1345.5C3930.84 1298.2 3828.58 1261.01 3723.62 1235.35C3623.34 1210.84 3518.05 1195.88 3423.93 1153.2C3377.81 1132.28 3334.43 1104.62 3302.42 1070.98C3306.79 1066.44 3311.2 1061.91 3315.62 1057.41C3333.02 1060.05 3350.44 1062.51 3367.89 1064.76C3526.08 1085.26 3685.43 1092.05 3843.52 1115.24C3889.51 1121.97 3935.4 1130.12 3981.12 1140.37C4052.56 1156.4 4120.8 1178.58 4187.12 1205.78C4214.69 1217.09 4241.94 1229.26 4268.93 1242.24C4362.77 1287.3 4453.85 1336.81 4553.81 1371.39C4657.23 1407.16 4765.03 1430.15 4868.71 1465.19C4959.27 1495.79 5045.75 1536.26 5124.87 1584.85C5204.76 1633.92 5275.26 1690.93 5337.9 1753.56C5366.6 1782.28 5394.46 1811.56 5425.03 1839.11L5425.04 1839.09Z" fill="#72ABE8"/>
<path d="M3015.99 776.376L2577.92 675.478C2584.87 677.625 2591.82 679.801 2598.74 682C2625.01 690.385 2651.09 699.359 2676.65 709.383C2700.56 718.745 2724.06 729.014 2746.71 740.525C2758.32 746.429 2769.71 752.66 2780.83 759.225C2754.51 760.351 2729.29 766.1 2709.21 777.358C2674.07 797.062 2702.62 827.151 2734.24 843.115C3200.05 1078.34 3737.95 1175.59 4239.17 1328.83C4485.66 1404.19 4732.01 1495.08 4961.68 1604.34C4968.96 1607.8 4976.21 1611.3 4983.46 1614.8C5096.12 1669.41 5204.8 1730.74 5303.85 1801.18C5342.01 1828.33 5378.6 1856.85 5413.18 1886.73L5544.81 1358.79L3016 776.389L3015.99 776.376Z" fill="#A3DC7A"/>
<path d="M3437.91 1100.94C3464.89 1108.56 3490.99 1117.85 3518.32 1124.55C3546.53 1131.46 3574.98 1137.24 3603.29 1143.69C3704.64 1166.79 3804.95 1196.22 3904.77 1224.92C4004.85 1253.7 4104.73 1283.17 4205.23 1310.55C4255.82 1324.34 4306.77 1336.75 4357.42 1350.29C4406.27 1363.36 4454.52 1378.4 4502.53 1394C4566.91 1414.91 4630.98 1436.84 4695.79 1456.55C4695.57 1456.32 4695.35 1456.08 4695.07 1455.82C4627.88 1393 4548.38 1332.95 4439.25 1292.38C4284.15 1234.73 4204.21 1215.34 4040.62 1189.38C3992.77 1181.79 3944.71 1175.07 3897.35 1164.01C3808.8 1143.33 3727.24 1103.27 3639.31 1080.74C3552.37 1058.46 3460.89 1049.66 3373.75 1053.08C3363.6 1053.48 3353.51 1054.09 3343.46 1054.85C3343.38 1063.28 3344.33 1071.82 3346.08 1080.07C3376.57 1087.44 3407.94 1092.47 3437.89 1100.93L3437.91 1100.94Z" fill="#A3DC7A"/>
<path d="M5343.15 1640.64C5279.18 1575.88 5202.7 1513.43 5095.34 1469.31C4942.77 1406.61 4863.54 1384.53 4700.64 1353.01C4653.01 1343.79 4605.1 1335.42 4558.13 1322.77C4470.33 1299.12 4390.65 1256.48 4303.59 1231.01C4217.49 1205.82 4126.08 1193.88 4038.34 1194.23C4028.13 1194.27 4017.95 1194.51 4007.81 1194.92C4007.23 1203.55 4007.74 1212.34 4009.14 1220.83C4009.17 1221.02 4009.2 1221.21 4009.24 1221.4C4011.17 1222.8 4013.15 1224.17 4015.17 1225.49C4032.04 1236.5 4050.88 1245.73 4069.01 1255.22C4110.75 1277.06 4153.4 1297.84 4197.71 1315.65C4241.9 1333.42 4287.36 1347.45 4334.13 1357.96C4381.44 1368.58 4428.95 1377.5 4475.93 1389.67C4570.3 1414.13 4662.12 1446.44 4753.41 1479.26C4843.39 1511.61 4933.25 1544.65 5025.39 1571.6C5065.37 1583.28 5106.68 1595.78 5148.03 1600.99C5204.88 1608.14 5367.57 1665.37 5343.16 1640.65L5343.15 1640.64Z" fill="#A3DC7A"/>
<path d="M5444.56 1760.8L5400.81 1936.27C5378.93 1913.14 5356 1890.82 5330.51 1869.7C5261.61 1812.64 5182.04 1764.03 5101.5 1718.32C5016.19 1669.9 4927.83 1625.27 4837.47 1583.91C4658.4 1501.92 4471.91 1432.71 4283.08 1370.59C4084.48 1305.25 3883.07 1247.7 3681.85 1190.01C3529.79 1146.42 3228.28 1045.61 3175.43 1024.64C3377.67 1058.94 3577.21 1112.68 3773.29 1167.74C3984.72 1227.12 4075.99 1243.94 4287.42 1303.33C4443.93 1347.28 4722.34 1429.04 4874.51 1485.26C5024.15 1540.52 5167.85 1607.7 5306.8 1680.67C5353.91 1705.4 5400.61 1731.86 5444.54 1760.81L5444.56 1760.8Z" fill="#F0B067"/>
<path d="M5047.97 2302.2C5033.56 2316.14 5015.51 2327.34 4996.67 2337.44C4978.03 2347.44 5122.94 2402.82 5102.64 2410.86C5061.54 2427.15 5150.48 2504.39 5105.71 2514.8C5012.26 2536.51 5165.71 2777.15 5067.43 2787.12C5001.19 2793.84 4385.97 2461.06 4318.45 2462.86L33.3251 1394.46L380.96 0.177246C389.549 5.25596 398.216 10.2923 406.902 15.251C529.204 85.0314 664.277 137.6 801.807 179.877C944.122 223.646 1089.62 256.398 1235.01 288.238C1236.24 288.513 1237.47 288.788 1238.7 289.054C1390.54 322.294 2054.67 528.632 2126.64 553.802C2228.97 589.578 2340.17 607.781 2440.79 646.638C2477.11 660.673 2455.38 675.628 2426.06 676.697C2335.88 680.021 2243.87 663.913 2153.36 648.889C2012.11 625.45 1868.43 613.249 1731.41 619.816C1709.23 620.883 1686.95 622.108 1665.09 624.346C1547.46 636.418 1571.14 705.292 1660.71 746.816C1728.27 778.129 1802.56 792.943 1872.3 817.503C2229.72 943.38 2600.28 1047.75 2962.66 1162.37C3399.44 1300.52 3830.59 1429.27 4239.45 1627.76C4478.08 1743.62 4736.57 1874.56 4933.5 2036.33C4958.93 2057.21 4996.22 2083.73 5012.04 2109.75C5019.24 2121.57 5017.22 2172.71 5021.61 2175.63C5037.04 2185.92 5050.69 2197.71 5060.52 2211.52C5070.32 2225.28 5075.01 2240.73 5073.62 2255.48C5071.91 2273.36 5165.73 2303.78 5152.21 2316.85L5047.97 2302.2Z" fill="#A3DC7A"/>
<path d="M1710.17 757.086C1699.21 750.364 1577.56 683.983 1655.54 647.36C1695.37 628.651 1750.96 633.916 1799.51 634.683C1877.84 635.939 1965.35 646.205 2043.9 649.373C2093.43 651.385 2268.96 667.406 2286.38 669.244C2239.17 652.516 2149.24 636.753 2100.58 623.94C2013.83 601.104 1925.33 584.675 1836.72 575.125C1755.85 566.402 1673.91 563.348 1596.67 575.39C1577.82 578.327 1559.15 582.061 1541.31 587.096C1525.6 591.527 1509.87 597.56 1499.41 607.731C1489.84 617.052 1486.25 629.804 1490.3 642.593C1494.25 655.079 1503.94 666.513 1515.16 676.299C1527.83 687.353 1542.53 696.489 1557.79 705.076C1576.33 715.511 1595.55 725.148 1615.27 733.898C1654.58 751.346 1695.99 765.269 1738.3 775.25C1740.96 775.883 1743.63 776.487 1746.29 777.079C1733.92 770.839 1721.83 764.217 1710.17 757.076L1710.17 757.086Z" fill="#F0B067"/>
</svg>
