<svg width="858" height="387" viewBox="0 0 858 387" fill="none" xmlns="http://www.w3.org/2000/svg">
<g clip-path="url(#clip0_1561_1467)">
<path d="M3.13995 292.28C9.42995 300.41 106.54 320.41 91.5899 322.98C40.9999 331.65 130.14 347.32 163.86 356.22C204.39 366.92 254.76 372.85 296.46 380.39C316.5 384.01 336.97 386.55 357.87 386.32C363.52 386.26 369.22 386.06 374.9 385.48C377.69 385.2 380.11 384.6 382.52 382.97C384.85 381.4 387.43 378.5 386.45 376.44C392.94 376.75 399.44 377.05 405.93 377.34C463.03 379.87 520.27 381.55 577.63 382.38C625.39 383.07 673.24 384.32 721.38 381.29C744.58 379.83 767.91 377.35 791.02 372.7C810.81 368.73 831.42 363.41 849.92 354.44C855.89 351.54 859.97 346.84 855.03 342.02C848.19 335.34 836.26 332.46 826.9 329.69C800.15 321.75 772.14 317.08 745 310.15C752.93 306.68 772.63 302.34 762.99 293.34C756.93 287.68 747.1 285.17 738.91 282.91C725 279.06 710.56 276.47 696.09 274.21C663.88 269.18 631.06 265.94 598.09 264.12C589.45 263.08 580.79 262.11 572.12 261.18C533.42 257.04 494.53 253.71 455.79 249.7C415.05 245.49 374.59 240.12 333.92 235.64C290.9 230.9 247.71 226.8 204.2 224.36C183.74 223.21 163.13 221.92 142.43 222.4C132.91 222.62 123.3 223.4 113.79 225.39C106.41 226.93 96.2199 228.79 90.6499 234.47C88.7399 236.42 87.59 238.82 88.41 241.22C88.83 242.44 89.9699 243.19 90.5499 244.29C92.6299 248.27 90.4399 250.41 86.7699 252.47C81.5899 255.38 75.3299 256.87 69.6799 258.3C56.9799 261.51 44.1199 263.6 31.3699 266.53C22.5199 268.57 11.5899 270.68 4.19995 276.59C-1.82005 281.41 -0.630053 287.4 3.13995 292.28Z" fill="#B0D0E8"/>
<path d="M702.14 229.51C702.14 229.51 690.45 211.16 682.99 206.02C676.03 201.23 671.79 204.57 670.7 207.1C669.62 209.63 669.98 211.92 668.53 212.52C667.08 213.12 626.85 186.86 614.33 180.96C601.8 175.06 597.98 174.94 593.61 177.59C591.55 178.84 589.27 185.78 592.89 192.77C592.89 192.77 561.39 167.9 517.49 156.7C473.59 145.5 469.43 153.99 466.54 161.94C463.65 169.89 469.25 186.51 469.25 186.51L502.31 205.66L702.14 229.51Z" fill="#D3E6F5"/>
<path d="M793.38 260.62C793.11 261.48 792.76 262.35 792.33 263.24C792.12 263.69 791.88 264.13 791.64 264.59C779.68 286.35 726.33 316.53 697.08 327.07C666.01 338.27 556.87 351.65 417.4 339.37C277.92 327.07 170.71 276.97 163.97 272.88C157.23 268.79 143.25 253.84 123.5 235.3C108.27 221 93.19 195.29 89.07 183.35C88.73 182.34 88.46 181.44 88.28 180.65C88.02 179.56 87.92 178.68 88 178.05C88.07 177.52 88.25 177.16 88.58 177C88.62 176.99 88.65 176.96 88.69 176.95C103.06 170.4 254.89 174.13 389.94 183.26C525.32 192.42 698.78 225.17 737.8 236.26C770.71 245.61 788.67 253.28 792.63 258.19C792.97 258.62 793.22 259.04 793.35 259.42C793.49 259.85 793.5 260.25 793.39 260.63L793.38 260.62Z" fill="#496CD6"/>
<path d="M792.34 263.24C792.13 263.69 791.89 264.13 791.65 264.59C788.68 265.2 785.7 265.8 782.71 266.37C735.09 275.61 686.74 281.14 638.38 284.62C583.79 288.54 529 289.71 474.31 288.11C420.19 286.51 366.07 282.26 312.57 273.82C266.15 266.49 219.64 256.19 175.86 238.81C144.13 226.2 111.89 209.38 89.0698 183.33C88.7298 182.32 88.4598 181.42 88.2798 180.63C90.3898 183.13 92.5898 185.56 94.8898 187.9C121.21 214.73 157.04 231.28 192.01 243.6C237.33 259.56 284.88 269 332.4 275.58C386.37 283.04 440.9 286.54 495.37 287.41C549.38 288.28 603.45 286.52 657.27 281.97C702.57 278.14 747.81 272.47 792.34 263.24Z" fill="#2748AB"/>
<path d="M349.94 193.13L503.75 203.67C503.75 203.67 432.56 247.57 386.31 240.59C340.06 233.6 349.93 193.13 349.93 193.13H349.94Z" fill="#2748AB"/>
<path d="M793.35 259.41C792.59 259.35 791.82 259.29 791.06 259.22C777.58 258.05 764.1 256.67 750.63 255.3C730.16 253.21 709.69 251.04 689.23 248.84C663.52 246.08 637.83 243.26 612.14 240.42C582.98 237.2 553.83 233.94 524.67 230.65C493.82 227.16 462.98 223.65 432.13 220.1C401.35 216.57 370.58 212.98 339.8 209.38C310.86 205.99 281.93 202.56 252.99 199.08C227.65 196.03 202.3 192.94 176.98 189.78C157 187.28 137.03 184.75 117.07 182.08C107.37 180.79 97.6702 179.48 87.9902 178.04C88.0602 177.51 88.2402 177.15 88.5702 176.99C88.6102 176.98 88.6402 176.95 88.6802 176.94C102.67 179.03 116.7 180.87 130.73 182.71C152.24 185.53 173.78 188.22 195.31 190.88C221.62 194.12 247.93 197.3 274.25 200.45C303.82 203.97 333.39 207.46 362.97 210.91C393.93 214.53 424.88 218.1 455.85 221.64C486.3 225.13 516.75 228.58 547.21 232C575.67 235.19 604.12 238.37 632.58 241.49C657.14 244.19 681.68 246.86 706.25 249.48C725.05 251.49 743.88 253.46 762.7 255.34C772.66 256.34 782.63 257.35 792.62 258.17C792.96 258.6 793.21 259.02 793.34 259.4L793.35 259.41Z" fill="#2748AB"/>
<path d="M699.01 195.9C699.01 195.9 700.21 187.59 699.13 178.07C698.05 168.55 696.48 163.13 693.95 163.25C691.42 163.37 690.22 168.43 690.82 175.54C691.42 182.65 699.01 195.9 699.01 195.9Z" fill="#D3E6F5"/>
<path d="M666.37 166.39C666.37 166.39 664.68 152.78 660.83 143.5C656.98 134.23 652.64 126.4 649.51 127.48C646.38 128.56 646.25 138.35 648.79 145.19C652.76 155.91 666.38 166.39 666.38 166.39H666.37Z" fill="#D3E6F5"/>
<path d="M283.59 130.15C283.59 130.15 280.75 127.98 277.58 124.03C273.73 119.23 271.32 109.37 282.52 103.76C293.53 98.26 314.85 100.14 321.64 100.51C330.43 100.99 337.22 109.41 333.58 118.62C331.36 124.21 324.98 129.51 320.22 130.48C315.46 131.45 283.6 130.15 283.6 130.15H283.59Z" fill="#F58142"/>
<path d="M309.84 129.23C294.54 132.31 290.74 117.76 290.74 117.76C290.74 117.76 292.51 117.6 295.34 117.4H295.35C301.42 116.95 312.34 116.32 320.86 116.73C322.05 116.78 323.19 116.86 324.25 116.95C324.25 116.95 325.12 126.17 309.83 129.23H309.84Z" fill="#FFE5DE"/>
<path d="M320.87 116.73C320.52 117.6 319.9 118.83 318.84 120.11C316.22 123.32 310.71 125.35 304.21 124.27C299.47 123.48 296.58 119.5 295.37 117.4C301.44 116.95 312.36 116.32 320.88 116.73H320.87Z" fill="#FFC099"/>
<path d="M279.18 239.81C279.18 239.81 243.47 232.04 225.16 216.74C206.85 201.44 229.01 192.89 233.23 191.57C237.45 190.25 265.63 189.64 281.41 194.82C297.19 200 279.18 239.81 279.18 239.81Z" fill="#2748AB"/>
<path d="M357.95 199.34C357.95 199.34 376.2 201.51 393.36 204.58C410.52 207.65 422.09 213.61 422.09 213.61C429.68 218.49 437.99 232.58 438.89 236.92C439.79 241.26 437.99 256.61 437.99 256.61C437.99 256.61 399.87 259.5 360.48 255.53C321.09 251.56 279.18 239.81 279.18 239.81L277.92 223.73L357.96 199.34H357.95Z" fill="#524469"/>
<path d="M361.25 227.43C385.2 233 409.18 238.46 433.18 243.81C433.73 243.93 433.97 243.08 433.41 242.96C409.41 237.62 385.43 232.16 361.48 226.58C360.93 226.45 360.69 227.3 361.25 227.43Z" fill="#2F2031"/>
<path d="M359.91 222.52C359.89 224.17 360.23 225.65 360.94 227.14C361.03 226.92 361.12 226.71 361.2 226.49C358.68 227.14 356.5 228.48 354.79 230.46C354.42 230.89 355.04 231.51 355.41 231.08C357.02 229.21 359.04 227.96 361.43 227.34C361.72 227.26 361.81 226.94 361.69 226.69C361.05 225.35 360.76 224.01 360.78 222.52C360.78 221.95 359.91 221.95 359.9 222.52H359.91Z" fill="#2F2031"/>
<path d="M275.92 150.37L273.81 166.37L273.69 167.25L273.23 170.76L264.18 175.07L238.95 172.42C238.95 172.42 240.58 168 242.91 162.21C243.02 161.93 243.12 161.63 243.24 161.35C246.67 152.81 251.41 141.73 254.61 137.28C260.12 129.6 267.53 124.09 267.53 124.09L275.93 150.37H275.92Z" fill="#FFE5DE"/>
<path d="M273.81 166.37L273.69 167.25C263.51 165.1 253.27 163.08 242.91 162.21C243.02 161.93 243.12 161.63 243.24 161.35C253.53 162.23 263.7 164.24 273.81 166.36V166.37Z" fill="#D1A89D"/>
<path d="M357.95 199.33C357.95 199.33 347.52 214.1 325.89 220.8C325.61 220.88 325.33 220.98 325.04 221.05C323.99 221.37 322.91 221.66 321.81 221.93C297.42 227.88 277.09 225.81 277.09 225.81L275.75 213.7L275.23 208.96L273.47 193L272.94 188.26L271.88 178.69C271.88 178.69 277 169.91 267.51 124.1C267.51 124.1 270.12 122.55 274.65 120.96C274.94 120.87 275.25 120.76 275.55 120.67C279.46 119.37 284.64 118.12 290.72 117.77C290.72 117.77 292.55 124.02 299.36 126.84C299.81 127.03 300.29 127.2 300.78 127.36C302.74 127.97 305.04 128.3 307.77 128.18C307.84 128.18 307.9 128.17 307.97 128.17C308.2 128.16 308.43 128.15 308.65 128.12C312.83 127.8 315.92 126.59 318.19 125.09C318.57 124.84 318.92 124.59 319.25 124.31C323.35 121.07 324.24 116.96 324.24 116.96C324.24 116.96 328.91 117.55 333.55 118.63C333.86 118.7 334.17 118.78 334.48 118.85C336.35 119.32 338.16 119.86 339.59 120.48C339.59 120.48 343.3 151.55 351.79 166.46L353.3 174.58L354.17 179.24L356.57 192.03L357.43 196.65L357.93 199.35L357.95 199.33Z" fill="#F58142"/>
<path d="M325.89 220.8C325.61 220.88 325.33 220.98 325.04 221.05C320.11 189.94 314.35 158.97 307.79 128.17C307.86 128.17 307.92 128.16 307.99 128.16C308.22 128.15 308.45 128.14 308.67 128.11C315.23 158.84 320.97 189.75 325.89 220.8Z" fill="#B54141"/>
<path d="M354.2 179.23C326.86 180.67 299.77 185.3 273.48 192.99L272.95 188.25C299.1 180.65 326.11 176.06 353.32 174.57L354.19 179.23H354.2Z" fill="#B54141"/>
<path d="M357.45 196.63C329.8 200 302.47 205.72 275.76 213.69L275.24 208.95C301.84 201.05 329.06 195.4 356.59 192.02L357.45 196.64V196.63Z" fill="#B54141"/>
<path d="M373.76 147.53L408.9 170.43L406.56 186.33L356.63 167.84L373.76 147.53Z" fill="#FFC099"/>
<path d="M374.98 147.62L356.62 169.16L351.8 166.45C351.8 166.45 350.43 165.11 348.61 161.88C348.46 161.62 348.32 161.35 348.15 161.06C344.78 154.73 340.16 142.22 339.6 120.47C339.6 120.47 346.83 123.18 350.17 125.98C352.15 127.65 360.55 134.99 367.02 140.66C367.24 140.85 367.47 141.05 367.68 141.24C371.79 144.83 374.97 147.63 374.97 147.63L374.98 147.62Z" fill="#FFE5DE"/>
<path d="M367.69 141.24C360.9 147.72 354.53 154.62 348.62 161.89C348.47 161.63 348.33 161.36 348.16 161.07C354.02 153.89 360.32 147.08 367.03 140.67C367.25 140.86 367.48 141.06 367.69 141.25V141.24Z" fill="#D1A89D"/>
<path d="M172.28 145.75L173.24 139.93L492.31 191.88L491.35 197.71L172.28 145.75Z" fill="#2F2031"/>
<path d="M228.94 154.23L229.71 149.55L224.76 146.2C208.27 135.03 188.76 127.38 168.18 124.01L159.54 122.6C148.81 120.84 138.97 126.41 137.56 135.03L136.93 138.87C135.52 147.49 143.07 155.91 153.8 157.66L162 159C182.86 162.41 204.07 161.3 223.46 155.79L228.94 154.23Z" fill="#FFBA45"/>
<path d="M178.45 141.35C175.47 141.44 172.49 141.62 169.54 142.08C167.84 142.35 161.12 142.98 164.07 145.75C164.96 146.58 167.21 147 168.32 147.37C169.55 147.78 170.78 148.15 172.03 148.49C174.98 149.3 177.98 149.93 181 150.43C191.94 152.23 203.07 152.29 214.12 152.12C214.69 152.12 214.59 152.99 214.03 153C200.05 153.21 185.79 153.09 172.19 149.44C170.54 149 160.8 147.16 161.91 143.97C162.43 142.47 165.56 141.98 166.82 141.7C170.59 140.85 174.46 140.61 178.31 140.49C178.87 140.47 179.01 141.34 178.45 141.36V141.35Z" fill="#D9851E"/>
<path d="M238.95 172.42C238.95 172.42 233.23 183.98 232.63 193.5C232.03 203.02 235.28 209.4 245.28 208.92C255.28 208.44 303.94 172.06 303.94 172.06C303.94 172.06 311.56 164.43 311.11 162.79C309.42 156.71 304.42 155.8 299.25 155.92C294.07 156.04 289.67 162.94 289.67 162.94L264.19 175.08L238.96 172.43L238.95 172.42Z" fill="#FFC099"/>
<path d="M312.3 113.72L314.18 113.79C323.04 113.33 327.97 105.7 327.51 96.84L326.88 84.78C326.42 75.91 318.86 69.09 309.99 69.55C301.12 70.01 294.3 77.57 294.76 86.44L295.38 98.47C295.84 107.35 303.41 114.17 312.29 113.71L312.3 113.72Z" fill="#FFC099"/>
<path d="M327.94 76.8701C327.8 76.6301 327.57 76.56 327.36 76.6C326.4 75.66 326.17 74.14 325 73.31C323.96 72.58 322.74 72.4101 321.51 72.5101C317.59 72.8101 314.8 75.2101 311.32 76.5401C304.27 79.2401 301.05 84.35 298.89 91.42C298.67 92.14 299.8 92.4501 300.02 91.7301C300.1 91.4701 300.18 91.21 300.27 90.95C300.33 90.94 300.4 90.8501 300.45 90.9001C302.66 93.5201 304.69 91.02 305.37 89.45C305.96 88.09 306.55 86.28 307.43 85.85C308.29 85.43 309.37 85.81 310.48 85.77C311.63 85.72 312.68 85.4201 313.65 84.8001C315.19 83.8101 316.68 82.1901 317.75 80.5001C318.4 81.5001 319.27 82.3701 320.32 83.1201C321.57 84.0001 323.45 84.54 324.66 83.56C325.23 84.89 325.59 85.94 327.46 85.95C327.56 85.95 327.64 85.9301 327.71 85.9001C331.5 85.2201 329.08 78.9201 327.92 76.8901L327.94 76.8701Z" fill="#2F2031"/>
<path d="M319.54 118.37L297.06 117.85L295.98 101.59L298.89 101.81L301.49 102.01L318.76 103.31L319.54 118.37Z" fill="#FFC099"/>
<path d="M293.63 101.46C293.63 101.46 295.01 106.65 296.25 106.47C297.49 106.29 297.63 98.75 297.63 98.75L293.63 101.46Z" fill="#2F2031"/>
<path d="M313.72 92.26C314.18 93.37 315.57 93.3 315.89 92.14C316.05 91.55 316 90.68 315.77 90.06C315.34 88.94 313.94 89.03 313.6 90.18C313.46 90.67 313.44 91.58 313.72 92.26Z" fill="#2F2031"/>
<path d="M323.79 91.7901C324.25 92.9001 325.64 92.8301 325.96 91.6701C326.12 91.0801 326.07 90.2101 325.84 89.5901C325.41 88.4701 324.01 88.5601 323.67 89.7101C323.53 90.2001 323.51 91.1101 323.79 91.7901Z" fill="#2F2031"/>
<path d="M300.81 127.34C291.46 129.88 281.06 128.7 274.67 120.95C274.96 120.86 275.27 120.75 275.57 120.66C281.45 127.59 290.8 128.83 299.39 126.83C299.84 127.02 300.32 127.19 300.81 127.35V127.34Z" fill="#B54141"/>
<path d="M334.5 118.84C333.44 120.64 331.94 122.16 329.86 123.3C326.24 125.26 322.2 125.52 318.21 125.07C318.59 124.82 318.94 124.57 319.27 124.29C322.32 124.55 325.38 124.31 328.24 123.08C330.64 122.05 332.37 120.51 333.57 118.61C333.88 118.68 334.19 118.76 334.5 118.83V118.84Z" fill="#B54141"/>
<path d="M302.96 87.65C303.2 86.81 304.54 83.98 307.56 82.16C311.75 79.65 314.88 79.22 319.88 79.11C325.08 78.99 329.18 79.62 329.18 79.62C329.18 79.62 331.06 69.66 325.2 64.58C320.29 60.32 313.85 58.69 305.85 59.35C297.15 60.07 288.63 64.22 284.86 75.41C281.91 84.17 288.64 99.79 293.7 102.46C296.61 103.99 301.04 94.31 302.96 87.66V87.65Z" fill="#F58142"/>
<path d="M307.53 72.85C307.53 74 306.6 74.93 305.45 74.93C304.3 74.93 303.37 74 303.37 72.85C303.37 71.7 304.3 70.77 305.45 70.77C306.6 70.77 307.53 71.7 307.53 72.85Z" fill="#2F2031"/>
<path d="M317.98 70.7701C317.98 71.9201 317.05 72.8501 315.9 72.8501C314.75 72.8501 313.82 71.9201 313.82 70.7701C313.82 69.6201 314.75 68.6901 315.9 68.6901C317.05 68.6901 317.98 69.6201 317.98 70.7701Z" fill="#2F2031"/>
<path d="M327.86 71.5C327.86 72.65 326.93 73.58 325.78 73.58C324.63 73.58 323.7 72.65 323.7 71.5C323.7 70.35 324.63 69.42 325.78 69.42C326.93 69.42 327.86 70.35 327.86 71.5Z" fill="#2F2031"/>
<path d="M319.36 115.09C312.85 115.07 306.57 112.92 302.23 107.63C300.77 105.86 299.67 103.9 298.89 101.8C298.47 100.68 298.13 99.5301 297.88 98.3601C297.46 96.4101 297.25 94.4101 297.23 92.4101C297.22 90.9001 299.57 90.9001 299.58 92.4101C299.6 94.5101 299.83 96.6301 300.33 98.6501C300.61 99.8001 300.99 100.93 301.48 102.01C302.09 103.41 302.88 104.75 303.88 105.97C307.79 110.81 313.42 112.72 319.25 112.77C319.25 112.77 319.68 113 319.68 113.98C319.68 114.75 319.37 115.09 319.37 115.09H319.36Z" fill="#2F2031"/>
<path d="M320.61 91.5101C321.03 93.1401 321.5 94.8501 321.67 96.5201C321.72 97.0201 321.81 97.3401 321.42 97.5901C321.23 97.7201 320.86 97.7601 320.62 97.8001C320.07 97.8901 319.54 97.9801 318.99 98.0701C318.43 98.1701 318.61 99.0301 319.17 98.9301C320.03 98.7801 322.12 98.7701 322.61 97.9001C323.01 97.1801 322.59 95.8701 322.46 95.1501C322.22 93.8901 321.8 92.5701 321.48 91.3301C321.34 90.7801 320.48 90.9601 320.62 91.5101H320.61Z" fill="#B85F3E"/>
<path d="M316.23 102.96C318.71 106.53 323.03 105.6 324.23 102.38C324.33 102.1 324.29 101.84 324.11 101.7C323.98 101.57 323.79 101.52 323.57 101.55C321.28 101.82 319.17 101.95 316.7 101.98C316.12 101.98 316.08 102.67 316.22 102.96H316.23Z" fill="#B85F3E"/>
<path d="M517.85 144.77C517.85 144.77 555.23 142.18 559.95 140.8C573.5 136.83 611.98 109 611.98 109L606.98 96.53C606.98 96.53 559.22 116.04 554.16 116.22C549.1 116.4 506.28 114.59 506.28 114.59L517.84 144.76L517.85 144.77Z" fill="#FFC099"/>
<path d="M518.84 146.48L510.9 147.29L510.04 147.38L507 147.69L506.13 147.77L494.9 148.92L478.27 111.34L501.03 113.63L501.93 113.72L502.95 113.83L503.88 113.92L510.61 114.59C510.61 114.59 518.65 124.26 518.83 146.47L518.84 146.48Z" fill="#FFE5DE"/>
<path d="M510.91 147.3L510.05 147.39C509.98 146.74 509.92 146.09 509.84 145.44C508.56 134.73 505.53 124.32 502.97 113.84L503.9 113.93C506.45 124.34 509.43 134.67 510.7 145.3C510.78 145.97 510.85 146.63 510.91 147.3Z" fill="#D1A89D"/>
<path d="M573.5 234.39C573.41 235.47 573.25 236.52 573.03 237.5C572.97 237.79 572.9 238.08 572.82 238.36C571.22 244.35 566.92 248.66 557.06 252.1C545.13 256.26 472.68 257.88 456.78 257.16C450.04 256.85 445.64 256.7 442.8 256.63C442.42 256.63 442.07 256.62 441.74 256.61C438.77 256.56 437.98 256.61 437.98 256.61V255.35L437.87 247.43L437.8 241.97L438.38 241.63L439.35 241.04L455.44 231.45L480.33 216.61L480.94 216.25L481.17 216.11L494.19 208.35L500.48 204.59C500.48 204.59 500.96 204.66 501.82 204.8C502.24 204.87 502.76 204.95 503.36 205.05C511.91 206.44 537.28 210.7 548.01 214.34C563.85 219.7 574.2 226.27 573.48 234.4L573.5 234.39Z" fill="#524469"/>
<path d="M442.8 256.63C442.42 256.63 442.07 256.62 441.74 256.61C441.08 255.6 440.52 254.55 440.04 253.46C439.15 251.42 438.56 249.24 438.33 247.02C438.14 245.35 438.14 243.65 438.35 241.93C438.35 241.84 438.36 241.73 438.39 241.62C438.43 241.31 438.47 241.01 438.53 240.69C438.57 240.45 438.61 240.21 438.66 239.97C438.77 239.5 439.39 239.61 439.51 239.98C439.53 240.05 439.53 240.12 439.52 240.2C439.46 240.47 439.41 240.75 439.37 241.02C439.32 241.3 439.28 241.58 439.25 241.87C439.06 243.35 439.03 244.82 439.14 246.27C439.32 248.53 439.86 250.73 440.74 252.81C441.28 254.13 441.97 255.39 442.81 256.6L442.8 256.63Z" fill="#2F2031"/>
<path d="M573.03 237.5C572.97 237.79 572.9 238.08 572.82 238.36C553.88 235.64 534.91 233.08 515.92 230.68C515.37 230.61 515.37 229.73 515.92 229.8C534.98 232.21 554.02 234.78 573.03 237.5Z" fill="#2F2031"/>
<path d="M516.65 224.45C516.56 227.51 515.5 230.3 513.51 232.63C513.14 233.06 513.76 233.69 514.13 233.25C516.27 230.74 517.43 227.74 517.53 224.45C517.55 223.88 516.67 223.88 516.65 224.45Z" fill="#2F2031"/>
<path d="M503.75 203.68C503.75 203.68 501.35 215.82 487.13 226.26C485.59 227.39 483.99 228.43 482.35 229.4C482.07 229.58 481.79 229.74 481.5 229.9C462.25 240.93 437.8 241.97 437.8 241.97L437.33 219.55L437.24 214.86L436.95 200.88L436.9 198.43C436.9 198.43 436.89 197.61 436.85 196.19C436.7 190.07 436 172.84 432.93 162.3C429.14 149.29 417.2 141.88 417.2 141.88C417.2 141.88 418.7 140.08 421.16 137.52C421.37 137.31 421.59 137.09 421.81 136.86C423.99 134.65 426.8 131.97 429.95 129.41C433.48 126.52 437.45 123.77 441.42 122C448.81 118.69 460.91 115.45 469.22 113.43C471.64 112.84 473.75 112.34 475.33 112C475.65 111.93 475.94 111.86 476.21 111.8C477.53 111.51 478.28 111.34 478.28 111.34C478.28 111.34 489.12 115.32 493.28 129.41C496.31 139.67 497.04 150.53 497.21 155.65C497.27 157.56 497.26 158.68 497.26 158.68L498.05 164.15L499.57 174.64L500.7 182.47L503.77 203.67L503.75 203.68Z" fill="#F58142"/>
<path d="M498.05 164.16C492.84 172.32 485.12 179.03 477.19 184.44C465.08 192.72 451.37 198.42 436.96 200.89L436.91 198.44C436.91 198.44 436.9 197.62 436.86 196.2C450.13 193.84 462.78 188.47 473.98 180.96C483.52 174.58 492.72 166.3 497.21 155.66C497.27 157.57 497.26 158.69 497.26 158.69L498.05 164.16Z" fill="#B54141"/>
<path d="M436.95 193.65V198.17L436.97 199.09L436.99 207.29C423.17 216.6 405.94 211.93 405.94 211.93C405.66 209.31 405.48 206.5 405.4 203.62C405.39 203.33 405.39 203.03 405.38 202.74C405.06 188.4 406.91 171.97 408.54 163.03C410.52 152.1 417.21 141.89 417.21 141.89C424.53 144.6 438.89 158.85 439.79 174.83C440.69 190.83 436.95 193.66 436.95 193.66V193.65Z" fill="#FFE5DE"/>
<path d="M436.98 199.09C426.54 201.19 416.04 203.01 405.41 203.61C405.4 203.32 405.4 203.02 405.39 202.73C416.02 202.13 426.53 200.3 436.97 198.17V199.09H436.98Z" fill="#D1A89D"/>
<path d="M500.69 182.48C495.48 190.63 487.76 197.34 479.84 202.75C467.1 211.46 452.58 217.31 437.34 219.56C436.07 219.76 434.8 219.91 433.53 220.05C430.52 220.37 430.55 215.67 433.53 215.35C434.77 215.22 436.01 215.06 437.24 214.87C451.34 212.74 464.78 207.2 476.63 199.26C485.94 193.02 494.96 184.96 499.55 174.64L500.68 182.47L500.69 182.48Z" fill="#B54141"/>
<path d="M482.36 229.4C482.08 229.58 481.8 229.74 481.51 229.9C478.76 193.48 472.28 157.39 462.16 122.28C462.01 121.73 462.85 121.5 463.02 122.05C473.11 157.08 479.59 193.08 482.36 229.4Z" fill="#B54141"/>
<path d="M472.81 122.84C472.81 122.84 474.58 119.47 475.34 114.47C476.27 108.39 469.47 98.3 457.5 101.15C445.53 104.01 424.28 114.04 419.66 119.03C415.04 124.02 416.71 133.69 421.85 136.83C426.99 139.97 436.68 143.03 441.29 141.48C445.9 139.94 472.82 122.84 472.82 122.84H472.81Z" fill="#F58142"/>
<path d="M453.45 129.57C447.33 142.08 432.25 143.69 421.17 137.52C421.38 137.31 421.6 137.09 421.82 136.86C432.5 142.66 446.8 141.15 452.69 129.13C452.95 128.61 453.7 129.06 453.45 129.56V129.57Z" fill="#B54141"/>
<path d="M467.86 128.11C467.35 128.36 466.91 127.59 467.41 127.35C473.52 124.36 475.74 118.21 475.33 112.01C475.65 111.94 475.94 111.87 476.21 111.81C476.68 118.4 474.31 124.94 467.86 128.11Z" fill="#B54141"/>
<path d="M472.32 126.88C471.97 137.18 460.94 140.97 450.1 139.16C439.91 137.47 430.98 130.75 429.96 129.41C433.49 126.52 437.46 123.77 441.43 122C448.82 118.69 460.92 115.45 469.23 113.43C470.96 117.36 472.48 122.23 472.32 126.88Z" fill="#FFE5DE"/>
<path d="M638.197 65.1799L368.58 310.513L372.557 314.884L642.175 69.5511L638.197 65.1799Z" fill="#2F2031"/>
<path d="M640.34 70.34L637.14 66.83L639.46 61.32C647.19 42.97 659.38 25.92 674.8 11.87L681.27 5.98001C689.31 -1.33999 700.6 -2.03999 706.48 4.42001L709.1 7.30001C714.98 13.76 713.24 24.93 705.2 32.25L699.05 37.85C683.42 52.08 665.04 62.71 645.78 68.66L640.34 70.34Z" fill="#FFBA45"/>
<path d="M671.91 34.1C674.42 32.49 676.97 30.94 679.66 29.65C681.21 28.91 687.11 25.61 686.24 29.57C685.98 30.76 684.37 32.38 683.66 33.31C682.88 34.34 682.07 35.35 681.24 36.34C679.27 38.68 677.16 40.9 674.95 43.02C666.97 50.71 657.83 57.07 648.64 63.21C648.17 63.52 648.74 64.19 649.21 63.88C660.84 56.12 672.51 47.93 681.65 37.21C682.76 35.91 689.74 28.87 687.01 26.87C685.73 25.93 682.87 27.31 681.68 27.79C678.1 29.23 674.77 31.23 671.53 33.31C671.06 33.61 671.43 34.41 671.91 34.1Z" fill="#D9851E"/>
<path d="M414.37 275.72L411.17 272.21L405.47 274.01C386.48 280 368.36 290.54 352.94 304.58L346.47 310.47C338.43 317.79 336.68 328.96 342.57 335.42L345.19 338.3C351.07 344.76 362.36 344.06 370.4 336.74L376.55 331.14C392.18 316.91 404.48 299.6 412.19 280.97L414.37 275.71V275.72Z" fill="#FFBA45"/>
<path d="M701.42 325.39C701.42 325.39 677.09 318.16 670.1 318.16C663.11 318.16 658.05 322.26 647.46 322.5C636.86 322.74 586.99 303.23 565.31 304.43C543.63 305.63 530.86 329 515.44 329C500.02 329 434.5 308.76 417.63 309.73C400.77 310.69 384.87 332.37 374.75 334.3C364.63 336.23 285.14 290.22 255.87 276.85C226.6 263.48 216.24 256.49 201.19 256.61C186.13 256.73 181.53 261.77 174.45 271.3C171.68 275.03 143.2 255.97 127.6 250.46C111.04 244.62 103.93 244.32 97.2502 246.49C90.5702 248.66 97.0702 270.34 112.79 282.99C112.79 282.99 216.02 351.41 402.95 360.56C589.89 369.71 701.42 325.39 701.42 325.39Z" fill="#D3E6F5"/>
<path d="M376.31 304.22C374.64 306.69 373.02 309.2 371.67 311.86C370.89 313.39 367.45 319.2 371.42 318.44C372.62 318.21 374.27 316.63 375.22 315.95C376.27 315.2 377.3 314.41 378.31 313.61C380.7 311.7 382.97 309.64 385.14 307.49C393.02 299.7 399.61 290.72 405.97 281.68C406.3 281.22 406.95 281.81 406.63 282.27C398.58 293.71 390.11 305.17 379.18 314.04C377.85 315.12 370.65 321.92 368.71 319.15C367.8 317.84 369.25 315.03 369.76 313.84C371.29 310.29 373.36 307.01 375.53 303.83C375.84 303.37 376.63 303.76 376.31 304.23V304.22Z" fill="#D9851E"/>
<path d="M405.95 211.92C405.95 211.92 408.99 234.47 412.6 240.26C416.21 246.04 425.07 247.4 429.31 246.58C433.56 245.77 481.28 207.94 481.28 207.94C481.28 207.94 492.12 209.2 496.46 207.94C500.8 206.68 506.22 201.26 505.86 198.73C505.5 196.2 498.09 192.59 498.09 192.59L501.64 189.43C501.64 189.43 489.06 187.89 482.56 190.79C476.06 193.68 436.92 214.16 436.92 214.16L437.01 207.29C437.01 207.29 424.87 213.58 405.96 211.93L405.95 211.92Z" fill="#FFC099"/>
<path d="M606.41 101.07C605.6 97.47 600.87 95.09 603.16 89.45C604.85 85.29 609.21 84.75 612.56 84.75C615.91 84.75 617.5 88.56 618.16 90.44C619.18 93.32 621.35 99.68 616.65 104.92C612.78 109.24 605.57 112.51 605.57 112.51C605.57 112.51 606.76 102.63 606.41 101.07Z" fill="#FFC099"/>
<path d="M448.61 125.17C439.79 126.14 431.85 119.77 430.89 110.95L429.57 98.95C428.6 90.12 434.97 82.18 443.8 81.21C452.63 80.24 460.57 86.61 461.54 95.44L462.85 107.41C463.82 116.25 457.44 124.2 448.6 125.17H448.61Z" fill="#FFC099"/>
<path d="M464.13 125.2L441.82 129.18L440.15 116.01L462.62 109.66L464.13 125.2Z" fill="#FFC099"/>
<path d="M441.83 125.49C441.83 125.49 441.02 126.3 441.02 128.7C441.02 131.1 447.07 134.3 452.76 134.17C457.69 134.05 465.27 131.46 466.72 126.85C468.17 122.24 460.94 120.07 460.94 120.07L441.83 125.49Z" fill="#FFC099"/>
<path d="M466.24 114.18C466.1 113.69 465.89 113.23 465.65 112.88C466.26 111.19 466.51 109.77 466.27 108.76C466.02 107.68 465.22 107.08 463.72 107.12C463.44 107.12 463.26 107.3 463.19 107.51C463.14 107.37 463 107.19 462.8 107C462.74 106.94 462.67 106.88 462.6 106.82C462.04 106.33 461.27 105.85 461.17 105.83C460.92 105.77 461.02 106.97 461.28 108.6C461.35 109.03 461.43 109.49 461.51 109.97C461.6 110.45 461.7 110.94 461.8 111.44C461.95 112.2 462.12 112.98 462.29 113.68C462.41 114.19 462.53 114.67 462.64 115.1C462.92 116.17 463.17 116.94 463.33 117.16C463.35 117.18 463.37 117.2 463.38 117.21C464.21 117.79 465.38 117.93 466.1 116.62C466.49 115.94 466.45 115 466.22 114.18H466.24Z" fill="#2F2031"/>
<path d="M444.67 103.94C444.4 105.11 443.01 105.26 442.51 104.17C442.25 103.61 442.16 102.74 442.29 102.1C442.53 100.92 443.93 100.79 444.45 101.87C444.67 102.33 444.83 103.23 444.67 103.94Z" fill="#2F2031"/>
<path d="M434.38 105.31C434.11 106.48 432.72 106.63 432.22 105.54C431.96 104.98 431.87 104.11 432 103.47C432.24 102.29 433.64 102.16 434.16 103.24C434.38 103.7 434.54 104.6 434.38 105.31Z" fill="#2F2031"/>
<path d="M458 100.1C454.5 93.59 450.34 89.23 442.9 87.96C439.86 87.44 437.13 86.12 434.08 85.94C433.45 85.92 432.79 85.93 432.12 86.01C431.18 86.13 430.28 86.4 429.51 86.93C429.28 87.09 429.05 87.28 428.85 87.49C428.78 87.56 428.72 87.63 428.66 87.71C427.86 88.73 427.89 90.14 427.18 91.17C426.96 91.17 426.76 91.29 426.66 91.55C426.47 92.11 426.33 92.92 426.28 93.83C426.27 93.91 426.26 93.98 426.26 94.06C426.2 95.54 426.38 97.23 427.04 98.43C427.57 99.4 428.39 100.05 429.65 100.03C429.65 100.03 429.664 100.027 429.69 100.02C429.85 99.91 430.52 99.19 430.93 98.23C431.04 97.98 431.13 97.71 431.19 97.44C432.56 98.17 434.31 97.26 435.36 96.16C436.24 95.22 436.92 94.2 437.37 93.08C438.61 94.4 440.19 95.57 441.73 96.27C441.91 96.35 442.07 96.42 442.23 96.49C443.31 96.91 444.4 96.99 445.53 96.82C446.63 96.64 447.61 96.06 448.54 96.3C449.49 96.55 450.43 98.21 451.28 99.42C452.08 100.57 453.86 102.14 455.4 101.04C455.75 100.81 456.08 100.43 456.39 99.88C456.41 99.82 456.51 99.89 456.57 99.89C456.7 100.12 456.84 100.37 456.97 100.61C457.32 101.28 458.38 100.75 458.02 100.08L458 100.1Z" fill="#2F2031"/>
<path d="M453.43 97.2801C453.03 96.5101 451.18 94.0101 447.87 92.8301C443.3 91.2001 440.17 91.4001 435.28 92.2601C430.19 93.1601 425.22 94.7501 425.22 94.7501C425.22 94.7501 422.55 85.2401 427.26 79.1401C431.21 74.0401 437.17 71.1801 445.08 70.2701C453.7 69.2701 462.81 71.6501 468.66 81.8101C473.25 89.7701 469.74 106.3 465.34 109.88C462.8 111.94 456.6 103.38 453.43 97.2701V97.2801Z" fill="#F58142"/>
<path d="M445.89 83.59C446.12 84.72 447.21 85.44 448.34 85.22C449.47 84.99 450.19 83.9 449.97 82.77C449.74 81.64 448.65 80.92 447.52 81.14C446.39 81.37 445.67 82.46 445.89 83.59Z" fill="#2F2031"/>
<path d="M435.24 83.61C435.47 84.74 436.56 85.46 437.69 85.24C438.82 85.01 439.54 83.92 439.32 82.79C439.09 81.66 438 80.94 436.87 81.16C435.74 81.39 435.02 82.48 435.24 83.61Z" fill="#2F2031"/>
<path d="M425.7 86.26C425.93 87.39 427.02 88.11 428.15 87.89C429.28 87.66 430 86.57 429.78 85.44C429.55 84.32 428.46 83.59 427.33 83.81C426.2 84.03 425.48 85.13 425.7 86.26Z" fill="#2F2031"/>
<path d="M441.26 126.59C448.35 126.24 455.03 123.47 459.14 117.31C461.1 114.38 462.16 111.07 462.54 107.66C462.77 105.68 462.78 103.67 462.59 101.67C462.45 100.16 460.11 100.4 460.25 101.9C460.44 103.99 460.43 106.12 460.12 108.18C459.73 110.87 458.86 113.48 457.32 115.81C453.58 121.51 447.56 123.89 441.11 124.23C441.11 124.23 440.22 124.44 440.32 125.42C440.43 126.51 441.25 126.58 441.25 126.58L441.26 126.59Z" fill="#2F2031"/>
<path d="M425.53 94.09C425.53 94.09 417.04 97.79 417.04 98.34C417.04 98.89 434.11 98.41 437.73 97.53C444.46 95.89 448.11 92.87 448.11 92.87C448.11 92.87 445.04 90.71 437.27 91.57C429.78 92.4 425.53 94.1 425.53 94.1V94.09Z" fill="#B54141"/>
<path d="M437.76 105.29C437.34 106.92 436.87 108.63 436.7 110.3C436.65 110.8 436.56 111.12 436.95 111.37C437.14 111.5 437.51 111.54 437.75 111.58C438.3 111.67 438.83 111.76 439.38 111.85C439.94 111.95 439.76 112.81 439.2 112.71C438.34 112.56 436.25 112.55 435.77 111.68C435.37 110.96 435.79 109.64 435.92 108.93C436.16 107.67 436.58 106.35 436.9 105.11C437.04 104.56 437.9 104.74 437.76 105.29Z" fill="#B85F3E"/>
<path d="M442.75 117.09C442.77 115.72 441.82 114.86 440.51 114.66C439.38 114.49 437.85 114.9 437.41 116.09C436.26 119.24 442.44 120.85 442.75 117.09ZM438.85 115.79C439.98 115.12 441.9 115.55 441.88 117.08C441.77 118.41 440.24 118.71 439.24 118.17C438.3 117.66 437.73 116.45 438.85 115.79Z" fill="#B85F3E"/>
</g>
<defs>
<clipPath id="clip0_1561_1467">
<rect width="857.24" height="386.34" fill="white"/>
</clipPath>
</defs>
</svg>
