<svg width="506" height="2671" viewBox="0 0 506 2671" fill="none" xmlns="http://www.w3.org/2000/svg">
<path d="M478.707 2568.93C484.954 2531.37 491.878 2519.85 505 2501.44V1754.29H0.618713V2666.65C8.58203 2670.84 2.59811 2667.23 23.4057 2670.59C44.2133 2673.96 89.2778 2654.18 90.452 2628.52C98.8446 2591.12 105.17 2572.85 132.082 2566.3C150.44 2563.51 184.297 2575.84 192.993 2600.48C224.983 2648.24 259.43 2653.98 311.749 2655.26C349.435 2659.2 416.043 2685.05 452.415 2633.34C464.438 2618.9 469.804 2602.41 478.707 2568.93Z" fill="#5D984D"/>
<path d="M478.707 2568.93C484.954 2531.37 491.878 2519.85 505 2501.44V1754.29H0.618713V2666.65C8.58203 2670.84 2.59811 2667.23 23.4057 2670.59C44.2133 2673.96 89.2778 2654.18 90.452 2628.52C98.8446 2591.12 105.17 2572.85 132.082 2566.3C150.44 2563.51 184.297 2575.84 192.993 2600.48C224.983 2648.24 259.43 2653.98 311.749 2655.26C349.435 2659.2 416.043 2685.05 452.415 2633.34C464.438 2618.9 469.804 2602.41 478.707 2568.93Z" fill="black" fill-opacity="0.1"/>
<path d="M478.707 2532.63C484.954 2495.08 491.878 2483.55 505 2465.15V381H0.618713V2630.36C8.58203 2634.55 13.5583 2635.46 23.4057 2634.3C22.9142 2640.67 23.1456 2643.53 26.9114 2643.94C31.4767 2644.05 32.6762 2641.61 33.9228 2635.61C37.194 2642.17 39.0765 2644.79 42.687 2643.94C46.4107 2642.49 46.935 2640.34 45.3163 2634.3C49.5032 2638.5 51.7745 2640.05 55.3951 2638.24C57.5488 2636.98 57.8379 2635.49 55.3951 2630.36C75.3544 2621.67 84.0371 2613.47 90.452 2592.23C98.8446 2554.83 105.17 2536.55 132.082 2530.01C131.921 2534.08 132.393 2535.59 133.835 2537.46C137.033 2538.31 138.566 2536.64 141.285 2533.51C142.195 2538.42 142.899 2540.91 146.105 2542.71C149.731 2542.52 150.066 2539.55 150.487 2533.95C151.524 2537.15 152.492 2538.35 155.307 2538.77C157.388 2538.89 158.204 2537.66 159.251 2533.95C172.957 2541.72 180.312 2548.59 192.993 2564.19C232.598 2608.51 259.43 2617.69 311.749 2618.96C310.688 2624.43 311.045 2626.63 315.254 2627.29C319.02 2627.33 321.043 2626.38 324.457 2622.47C323.831 2628.91 324.574 2631.06 327.963 2632.11C331.24 2633.11 333.102 2632.09 336.289 2627.29C375.659 2640.64 397.423 2640.09 435.324 2615.46C436.337 2618.66 437.794 2618.61 441.021 2617.21C442.572 2616.26 442.994 2614.34 443.65 2610.64C446.443 2614 447.343 2613.8 448.471 2611.95C449.769 2609.41 449.54 2607.72 448.471 2604.5C450.698 2605.32 451.523 2605.28 452.415 2604.5C453.829 2602.47 453.808 2600.82 452.415 2597.05C464.438 2582.6 469.804 2566.12 478.707 2532.63Z" fill="#5D984D" stroke="#93CE66"/>
<path d="M478.711 2498.93C484.958 2461.37 491.882 2449.85 505.004 2431.44V1684.29H0.62262V2596.65C8.58594 2600.84 2.60202 2597.23 23.4096 2600.59C44.2172 2603.96 89.2817 2584.18 90.4559 2558.52C98.8485 2521.12 105.174 2502.85 132.086 2496.3C150.444 2493.51 184.301 2505.84 192.997 2530.48C224.987 2578.24 259.434 2583.98 311.753 2585.26C349.439 2589.2 416.047 2615.05 452.419 2563.34C464.441 2548.9 469.808 2532.41 478.711 2498.93Z" fill="#6C9A60"/>
<path d="M478.711 2498.93C484.958 2461.37 491.882 2449.85 505.004 2431.44V1684.29H0.62262V2596.65C8.58594 2600.84 2.60202 2597.23 23.4096 2600.59C44.2172 2603.96 89.2817 2584.18 90.4559 2558.52C98.8485 2521.12 105.174 2502.85 132.086 2496.3C150.444 2493.51 184.301 2505.84 192.997 2530.48C224.987 2578.24 259.434 2583.98 311.753 2585.26C349.439 2589.2 416.047 2615.05 452.419 2563.34C464.441 2548.9 469.808 2532.41 478.711 2498.93Z" fill="black" fill-opacity="0.1"/>
<path d="M478.711 2462.63C484.958 2425.08 491.882 2413.55 505.004 2395.15V1H0.62262V2560.36C8.58594 2564.55 13.5623 2565.46 23.4096 2564.3C22.9181 2570.67 23.1495 2573.53 26.9153 2573.94C31.4806 2574.05 32.6801 2571.61 33.9267 2565.61C37.1979 2572.17 39.0804 2574.79 42.6909 2573.94C46.4146 2572.49 46.9389 2570.34 45.3202 2564.3C49.5071 2568.5 51.7784 2570.05 55.399 2568.24C57.5527 2566.98 57.8418 2565.49 55.399 2560.36C75.3583 2551.67 84.041 2543.47 90.4559 2522.23C98.8485 2484.83 105.174 2466.55 132.086 2460.01C131.925 2464.08 132.397 2465.59 133.839 2467.46C137.037 2468.31 138.57 2466.64 141.288 2463.51C142.199 2468.42 142.903 2470.91 146.109 2472.71C149.735 2472.52 150.07 2469.55 150.491 2463.95C151.528 2467.15 152.496 2468.35 155.311 2468.77C157.392 2468.89 158.208 2467.66 159.255 2463.95C172.961 2471.72 180.316 2478.59 192.997 2494.19C232.602 2538.51 259.434 2547.69 311.753 2548.96C310.692 2554.43 311.048 2556.63 315.258 2557.29C319.024 2557.33 321.047 2556.38 324.461 2552.47C323.835 2558.91 324.578 2561.06 327.967 2562.11C331.244 2563.11 333.105 2562.09 336.293 2557.29C375.663 2570.64 397.427 2570.09 435.328 2545.46C436.341 2548.66 437.798 2548.61 441.025 2547.21C442.576 2546.26 442.998 2544.34 443.654 2540.64C446.447 2544 447.346 2543.8 448.475 2541.95C449.773 2539.41 449.544 2537.72 448.475 2534.5C450.702 2535.32 451.526 2535.28 452.419 2534.5C453.833 2532.47 453.811 2530.82 452.419 2527.05C464.441 2512.6 469.808 2496.12 478.711 2462.63Z" fill="#6C9A60" stroke="#93CE66"/>
</svg>
