<svg width="506" height="2291" viewBox="0 0 506 2291" fill="none" xmlns="http://www.w3.org/2000/svg">
<path d="M479.134 2188.93C485.38 2151.37 492.304 2139.85 505.427 2121.44V1374.29H1.04523V2286.65C9.00854 2290.84 3.02463 2287.23 23.8322 2290.59C44.6398 2293.96 89.7043 2274.18 90.8785 2248.52C99.2711 2211.12 105.597 2192.85 132.509 2186.3C150.867 2183.51 184.723 2195.84 193.42 2220.48C225.409 2268.24 259.856 2273.98 312.175 2275.26C349.861 2279.2 416.47 2305.05 452.841 2253.34C464.864 2238.9 470.231 2222.41 479.134 2188.93Z" fill="#62B34C"/>
<path d="M479.134 2188.93C485.38 2151.37 492.304 2139.85 505.427 2121.44V1374.29H1.04523V2286.65C9.00854 2290.84 3.02463 2287.23 23.8322 2290.59C44.6398 2293.96 89.7043 2274.18 90.8785 2248.52C99.2711 2211.12 105.597 2192.85 132.509 2186.3C150.867 2183.51 184.723 2195.84 193.42 2220.48C225.409 2268.24 259.856 2273.98 312.175 2275.26C349.861 2279.2 416.47 2305.05 452.841 2253.34C464.864 2238.9 470.231 2222.41 479.134 2188.93Z" fill="black" fill-opacity="0.1"/>
<path d="M479.134 2152.63C485.38 2115.08 492.304 2103.55 505.427 2085.15V1H1.04523V2250.36C9.00854 2254.55 13.9849 2255.46 23.8322 2254.3C23.3407 2260.67 23.5721 2263.53 27.3379 2263.94C31.9032 2264.05 33.1027 2261.61 34.3493 2255.61C37.6205 2262.17 39.503 2264.79 43.1135 2263.94C46.8372 2262.49 47.3615 2260.34 45.7428 2254.3C49.9297 2258.5 52.201 2260.05 55.8216 2258.24C57.9753 2256.98 58.2644 2255.49 55.8216 2250.36C75.7809 2241.67 84.4636 2233.47 90.8785 2212.23C99.2711 2174.83 105.597 2156.55 132.509 2150.01C132.347 2154.08 132.82 2155.59 134.261 2157.46C137.46 2158.31 138.993 2156.64 141.711 2153.51C142.622 2158.42 143.326 2160.91 146.531 2162.71C150.157 2162.52 150.492 2159.55 150.914 2153.95C151.951 2157.15 152.919 2158.35 155.734 2158.77C157.814 2158.89 158.631 2157.66 159.678 2153.95C173.384 2161.72 180.739 2168.59 193.42 2184.19C233.024 2228.51 259.856 2237.69 312.175 2238.96C311.115 2244.43 311.471 2246.63 315.681 2247.29C319.447 2247.33 321.469 2246.38 324.883 2242.47C324.258 2248.91 325 2251.06 328.389 2252.11C331.666 2253.11 333.528 2252.09 336.715 2247.29C376.086 2260.64 397.849 2260.09 435.751 2235.46C436.763 2238.66 438.22 2238.61 441.448 2237.21C442.998 2236.26 443.42 2234.34 444.077 2230.64C446.87 2234 447.769 2233.8 448.897 2231.95C450.195 2229.41 449.967 2227.72 448.897 2224.5C451.124 2225.32 451.949 2225.28 452.841 2224.5C454.256 2222.47 454.234 2220.82 452.841 2217.05C464.864 2202.6 470.231 2186.12 479.134 2152.63Z" fill="#62B34C" stroke="#93CE66"/>
</svg>
