<svg width="464" height="32769" viewBox="0 0 464 32769" fill="none" xmlns="http://www.w3.org/2000/svg">
<rect y="32272.8" width="463.222" height="495.61" fill="#2C96D7"/>
<path d="M42.9333 32563.2C37.5652 32530.9 31.6144 32521 20.3371 32505.2V31863.1H453.808V32647.2C446.964 32650.8 452.86 32648 434.977 32650.9C417.095 32653.8 377.613 32636.4 376.604 32614.4C369.391 32582.3 359.436 32559.8 336.307 32554.1C320.53 32551.7 297.894 32573 288.479 32590.3C260.987 32631.3 231.383 32636.3 186.419 32637.4C154.031 32640.8 96.7876 32663 65.5295 32618.5C55.1969 32606.1 50.5849 32592 42.9333 32563.2Z" fill="#1EB8E8"/>
<path d="M46.6983 32542.1C41.3302 32509.8 35.3794 32499.9 24.1021 32484.1V31842H457.573V32626.1C450.729 32629.7 456.625 32626.9 438.742 32629.8C420.86 32632.7 381.378 32615.4 380.369 32593.3C373.156 32561.2 363.201 32538.7 340.072 32533.1C324.295 32530.7 301.659 32551.9 292.244 32569.2C264.752 32610.3 235.148 32615.2 190.184 32616.3C157.796 32619.7 100.553 32641.9 69.2945 32597.5C58.9619 32585 54.3498 32570.9 46.6983 32542.1Z" fill="#0ED0DD"/>
<ellipse cx="326.14" cy="32576.4" rx="6.77886" ry="5.27245" fill="#1BBEEB"/>
<ellipse cx="342.712" cy="32584.3" rx="3.01283" ry="2.63622" fill="#1BBEEB"/>
<path d="M46.6983 32515.7C41.3302 32483.4 35.3794 32473.5 24.1021 32457.7V31815.6H457.573V32599.7C450.729 32603.3 455.871 32600.2 437.989 32603.1C420.107 32606 381.378 32589 380.369 32566.9C373.156 32534.8 367.72 32519.1 344.592 32513.5C328.815 32511.1 299.718 32521.7 292.244 32542.8C264.752 32583.9 235.148 32588.8 190.184 32589.9C157.796 32593.3 100.553 32615.5 69.2945 32571.1C58.9619 32558.7 54.3498 32544.5 46.6983 32515.7Z" fill="#5DA46C"/>
<path d="M46.6983 32493.1C41.3302 32460.9 35.3794 32450.9 24.1021 32435.1V0.85941H457.573V32577.1C450.729 32580.7 446.452 32581.5 437.989 32580.5C438.412 32586 438.213 32588.4 434.976 32588.8C431.053 32588.9 430.022 32586.8 428.951 32581.6C426.139 32587.3 424.522 32589.5 421.419 32588.8C418.218 32587.5 417.768 32585.7 419.159 32580.5C415.561 32584.1 413.609 32585.4 410.497 32583.9C408.646 32582.8 408.398 32581.5 410.497 32577.1C393.344 32569.6 385.882 32562.6 380.369 32544.3C373.156 32512.2 367.72 32496.5 344.592 32490.9C344.73 32494.4 344.324 32495.7 343.085 32497.3C340.337 32498 339.019 32496.6 336.683 32493.9C335.9 32498.1 335.295 32500.2 332.54 32501.8C329.424 32501.6 329.136 32499.1 328.774 32494.3C327.883 32497 327.051 32498 324.632 32498.4C322.843 32498.5 322.142 32497.5 321.242 32494.3C309.463 32500.9 303.142 32506.8 292.244 32520.2C258.207 32558.3 235.148 32566.2 190.184 32567.3C191.096 32572 190.789 32573.9 187.171 32574.5C183.935 32574.5 182.197 32573.7 179.263 32570.3C179.801 32575.9 179.162 32577.7 176.25 32578.6C173.433 32579.5 171.833 32578.6 169.094 32574.5C135.259 32586 116.555 32585.5 83.982 32564.3C83.112 32567.1 81.8597 32567 79.0862 32565.8C77.7535 32565 77.3908 32563.4 76.8266 32560.2C74.4263 32563.1 73.6535 32562.9 72.6839 32561.3C71.5683 32559.1 71.7647 32557.7 72.6839 32554.9C70.7699 32555.6 70.0612 32555.6 69.2945 32554.9C68.0788 32553.1 68.0974 32551.7 69.2945 32548.5C58.9619 32536.1 54.3498 32521.9 46.6983 32493.1Z" fill="#A2DC76" stroke="#93CE66"/>
</svg>
