<svg width="539" height="5382" viewBox="0 0 539 5382" fill="none" xmlns="http://www.w3.org/2000/svg">
<rect y="4805.28" width="539" height="576.686" fill="#2C96D7"/>
<path d="M49.956 5143.14C43.7097 5105.58 36.7854 5094.06 23.6633 5075.66V4328.51H528.045V5240.86C520.081 5245.06 526.942 5241.88 506.134 5245.25C485.326 5248.61 439.385 5228.4 438.211 5202.74C429.819 5165.33 418.235 5139.17 391.323 5132.63C372.965 5129.84 346.625 5154.54 335.67 5174.69C303.68 5222.46 269.234 5228.2 216.915 5229.47C179.228 5233.41 112.62 5259.27 76.2487 5207.56C64.2258 5193.11 58.8592 5176.63 49.956 5143.14Z" fill="#1EB8E8"/>
<path d="M54.3381 5118.6C48.0918 5081.04 41.1675 5069.52 28.0454 5051.12V4303.97H532.427V5216.32C524.463 5220.52 531.324 5217.34 510.516 5220.71C489.709 5224.07 443.768 5203.86 442.593 5178.2C434.201 5140.79 422.617 5114.63 395.705 5108.09C377.347 5105.3 351.007 5130 340.052 5150.15C308.062 5197.92 273.616 5203.66 221.297 5204.93C183.61 5208.87 117.002 5234.73 80.6308 5183.02C68.6079 5168.57 63.2413 5152.09 54.3381 5118.6Z" fill="#0ED0DD"/>
<ellipse cx="379.493" cy="5158.48" rx="7.8878" ry="6.13496" fill="#1BBEEB"/>
<ellipse cx="398.774" cy="5167.68" rx="3.50569" ry="3.06748" fill="#1BBEEB"/>
<g filter="url(#filter0_d_905_1461)">
<path d="M54.3381 5087.93C48.0918 5050.37 41.1675 5038.85 28.0454 5020.44V4273.29H532.427V5185.65C524.463 5189.84 530.447 5186.23 509.64 5189.59C488.832 5192.96 443.768 5173.18 442.593 5147.52C434.201 5110.12 427.875 5091.85 400.963 5085.3C382.605 5082.51 348.749 5094.84 340.052 5119.48C308.062 5167.24 273.616 5172.98 221.297 5174.26C183.61 5178.2 117.002 5204.05 80.6308 5152.34C68.6079 5137.9 63.2413 5121.41 54.3381 5087.93Z" fill="#5DA46C"/>
</g>
<path d="M54.3381 5061.63C48.0918 5024.08 41.1675 5012.55 28.0454 4994.15V1H532.427V5159.36C524.463 5163.55 519.487 5164.46 509.64 5163.3C510.131 5169.67 509.9 5172.53 506.134 5172.94C501.569 5173.05 500.369 5170.61 499.123 5164.61C495.851 5171.17 493.969 5173.79 490.358 5172.94C486.635 5171.49 486.11 5169.34 487.729 5163.3C483.542 5167.5 481.271 5169.05 477.65 5167.24C475.497 5165.98 475.208 5164.49 477.65 5159.36C457.691 5150.67 449.008 5142.47 442.593 5121.23C434.201 5083.83 427.875 5065.55 400.963 5059.01C401.125 5063.08 400.652 5064.59 399.21 5066.46C396.012 5067.31 394.479 5065.64 391.761 5062.51C390.85 5067.42 390.146 5069.91 386.941 5071.71C383.315 5071.52 382.98 5068.55 382.558 5062.95C381.521 5066.15 380.553 5067.35 377.738 5067.77C375.657 5067.89 374.841 5066.66 373.794 5062.95C360.088 5070.72 352.733 5077.59 340.052 5093.19C300.448 5137.51 273.616 5146.69 221.297 5147.96C222.357 5153.43 222.001 5155.63 217.791 5156.29C214.025 5156.33 212.003 5155.38 208.589 5151.47C209.214 5157.91 208.472 5160.06 205.083 5161.11C201.806 5162.11 199.944 5161.09 196.757 5156.29C157.386 5169.64 135.623 5169.09 97.721 5144.46C96.7087 5147.66 95.2515 5147.61 92.0243 5146.21C90.4735 5145.26 90.0515 5143.34 89.395 5139.64C86.6021 5143 85.7029 5142.8 84.5747 5140.95C83.2765 5138.41 83.5051 5136.72 84.5747 5133.5C82.3475 5134.32 81.5229 5134.28 80.6308 5133.5C79.2162 5131.47 79.2379 5129.82 80.6308 5126.05C68.6079 5111.6 63.2413 5095.12 54.3381 5061.63Z" fill="#A2DC76" stroke="#93CE66"/>
<defs>
<filter id="filter0_d_905_1461" x="24.0454" y="4270.29" width="512.381" height="924.674" filterUnits="userSpaceOnUse" color-interpolation-filters="sRGB">
<feFlood flood-opacity="0" result="BackgroundImageFix"/>
<feColorMatrix in="SourceAlpha" type="matrix" values="0 0 0 0 0 0 0 0 0 0 0 0 0 0 0 0 0 0 127 0" result="hardAlpha"/>
<feOffset dy="1"/>
<feGaussianBlur stdDeviation="2"/>
<feComposite in2="hardAlpha" operator="out"/>
<feColorMatrix type="matrix" values="0 0 0 0 0 0 0 0 0 0 0 0 0 0 0 0 0 0 0.25 0"/>
<feBlend mode="normal" in2="BackgroundImageFix" result="effect1_dropShadow_905_1461"/>
<feBlend mode="normal" in="SourceGraphic" in2="effect1_dropShadow_905_1461" result="shape"/>
</filter>
</defs>
</svg>
