<svg width="506" height="11737" viewBox="0 0 506 11737" fill="none" xmlns="http://www.w3.org/2000/svg">
<path d="M479.088 11634.9C485.334 11597.4 492.259 11585.8 505.381 11567.4V10820.3H0.999573V11732.6C8.96289 11736.8 2.97897 11733.2 23.7866 11736.6C44.5941 11740 89.6587 11720.2 90.8329 11694.5C99.2255 11657.1 105.551 11638.8 132.463 11632.3C150.821 11629.5 184.678 11641.8 193.374 11666.5C225.364 11714.2 259.811 11720 312.13 11721.3C349.816 11725.2 416.424 11751.1 452.795 11699.3C464.818 11684.9 470.185 11668.4 479.088 11634.9Z" fill="#62B34C"/>
<path d="M479.088 11634.9C485.334 11597.4 492.259 11585.8 505.381 11567.4V10820.3H0.999573V11732.6C8.96289 11736.8 2.97897 11733.2 23.7866 11736.6C44.5941 11740 89.6587 11720.2 90.8329 11694.5C99.2255 11657.1 105.551 11638.8 132.463 11632.3C150.821 11629.5 184.678 11641.8 193.374 11666.5C225.364 11714.2 259.811 11720 312.13 11721.3C349.816 11725.2 416.424 11751.1 452.795 11699.3C464.818 11684.9 470.185 11668.4 479.088 11634.9Z" fill="black" fill-opacity="0.1"/>
<path d="M479.088 11598.6C485.334 11561.1 492.259 11549.6 505.381 11531.2V1H0.999573V11696.4C8.96289 11700.6 13.9392 11701.5 23.7866 11700.3C23.295 11706.7 23.5264 11709.5 27.2922 11709.9C31.8575 11710 33.057 11707.6 34.3036 11701.6C37.5749 11708.2 39.4573 11710.8 43.0678 11709.9C46.7916 11708.5 47.3159 11706.3 45.6971 11700.3C49.884 11704.5 52.1554 11706.1 55.776 11704.2C57.9297 11703 58.2188 11701.5 55.776 11696.4C75.7352 11687.7 84.418 11679.5 90.8329 11658.2C99.2255 11620.8 105.551 11602.6 132.463 11596C132.302 11600.1 132.774 11601.6 134.216 11603.5C137.414 11604.3 138.947 11602.6 141.665 11599.5C142.576 11604.4 143.28 11606.9 146.486 11608.7C150.111 11608.5 150.447 11605.5 150.868 11599.9C151.905 11603.2 152.873 11604.3 155.688 11604.8C157.769 11604.9 158.585 11603.7 159.632 11599.9C173.338 11607.7 180.693 11614.6 193.374 11630.2C232.979 11674.5 259.811 11683.7 312.13 11685C311.069 11690.4 311.425 11692.6 315.635 11693.3C319.401 11693.3 321.424 11692.4 324.838 11688.5C324.212 11694.9 324.955 11697.1 328.343 11698.1C331.621 11699.1 333.482 11698.1 336.669 11693.3C376.04 11706.6 397.804 11706.1 435.705 11681.5C436.718 11684.7 438.175 11684.6 441.402 11683.2C442.953 11682.3 443.375 11680.3 444.031 11676.6C446.824 11680 447.723 11679.8 448.852 11678C450.15 11675.4 449.921 11673.7 448.852 11670.5C451.079 11671.3 451.903 11671.3 452.795 11670.5C454.21 11668.5 454.188 11666.8 452.795 11663.1C464.818 11648.6 470.185 11632.1 479.088 11598.6Z" fill="#62B34C" stroke="#93CE66"/>
</svg>
