<svg width="1091" height="901" viewBox="0 0 1091 901" fill="none" xmlns="http://www.w3.org/2000/svg">
<g clip-path="url(#clip0_1659_165300)">
<path d="M772.01 383.28C752.83 376.72 732.75 376.15 712.77 378.57C700.67 380.04 681.79 380.48 669.15 386.76C666.42 386.99 663.72 387.32 661.06 387.81C653.27 389.27 650.48 400.68 656.31 405.81C671.66 419.31 695.49 418.32 714.74 419.37C735.76 420.52 752.26 421.11 772.01 413.68C786.57 408.2 787.31 388.51 772.01 383.28Z" fill="#6F7C65"/>
<path d="M1070.63 664.41C1060.05 648.14 1038.01 653 1021.85 657.14C1013.24 659.34 1005.52 662.66 998.27 667.8C988.09 675.01 983.1 671.68 970.93 671.05C967.77 670.88 964.6 670.97 961.44 671.16C943.4 650.86 911.88 657.43 888.56 666.94C884.88 668.44 881.37 670.03 877.97 671.7C878.39 670.69 878.77 669.66 879.02 668.59C880.2 663.53 878.27 657.68 873.52 655.08C863.96 649.86 854.44 653 844.56 655.33C843.65 655.54 842.75 655.78 841.84 656.02C840.92 655.34 839.94 654.69 838.85 654.1C818.38 643.08 784.73 642.93 761.97 655.4C734.2 659.18 711.95 677.13 705.03 706.31C697.6 707.81 689.94 711.41 683.49 716.42C684.99 712.27 687.23 707.91 688.19 705.17C690.94 697.31 693.81 689.63 693.79 681.18C693.79 678.44 692.93 675.84 691.52 673.6C702.76 661.06 689.85 639.7 672.8 648.95C659.93 655.93 647.43 661.6 638.96 674.04C638.13 675.26 637.55 676.53 637.17 677.8C635.13 680.9 633.69 684.18 633.25 687.66C632.24 695.53 636.88 704 641.48 710.09C643.75 713.1 646.83 715.1 649.14 717.91C653.95 723.76 654.01 730.01 653.89 737.45C653.78 744.3 658.8 750.55 665.28 752.41C679.87 756.58 693.99 753.38 707.71 747.7C712.6 745.68 717.39 743.44 721.92 740.73C727.1 745.4 731.49 752.09 736.81 756.25C744.08 761.94 752.53 766.42 761.27 769.45C781.18 776.36 803.54 776.65 824.37 776.48C842.77 776.33 861.64 775.24 878.89 768.35C912.86 754.78 928.32 710.13 968.26 710.72C978.24 710.87 987.85 713.83 997.87 711.73C1008.34 709.53 1013.27 703.49 1021.85 698.3C1035.73 689.9 1057.33 695.78 1068.21 683.31C1072.63 678.25 1074.58 670.42 1070.65 664.38L1070.63 664.41Z" fill="#6F7C65"/>
<path d="M769.91 382.77C770.88 373.98 768.54 364.49 764 357.76C747.6 333.51 716.86 343.46 694.71 352.35C680.35 358.11 661.18 375.48 671.88 392.44C680.7 406.44 703.08 405.24 717.35 404.84C731.27 404.45 750.95 410.21 762.32 399.31C766.82 395 769.21 389.06 769.91 382.77Z" fill="#C2A6A1"/>
<path d="M1090.89 672.22C1090.3 678.53 1080.92 677.36 1076.82 676.81C1071.13 676.09 1066.23 673.91 1061.51 670.74C1059.41 669.36 1057.48 667.74 1055.41 666.29C1054.07 665.32 1052.69 664.39 1051.24 663.57C1050.86 663.23 1050.45 662.91 1050.03 662.64C1049.31 664.74 1048.86 666.85 1049.51 668.98C1050.58 672.36 1056.3 678.57 1051.79 681.88C1048.07 684.64 1043.34 679.88 1041.27 677.26C1038.96 674.33 1037.24 671.16 1034.44 668.64C1032.47 666.85 1028.72 663.12 1025.34 661.98C1023.48 664.64 1021.65 667.32 1019.96 670.12C1016.96 675.19 1015.65 677.36 1019.68 682.09C1022.54 685.5 1026.68 689.23 1023.89 694.06C1020.96 699.2 1013.27 697.54 1008.44 697.16C999.99 696.47 991.61 695.16 983.96 691.33C974.72 686.74 966.72 679.3 955.82 679.33C950.37 679.33 945.06 681.02 939.61 681.02C935.51 681.02 931.58 680.19 927.58 679.5C915.34 677.36 904.72 678.57 892.68 681.5C888.34 682.57 883.75 683.64 879.92 686.09C876.89 688.02 873.99 692.92 874.2 696.61C874.58 702.82 879.75 700.47 881.41 704.23C884.27 710.68 870.34 710.54 866.86 709.16C861.2 706.92 856.58 702.57 851.69 699.16C839.14 690.4 823.66 687.19 811.04 678.64C803.8 673.74 800.07 666.88 790.14 668.19C783.52 669.09 778.66 669.6 771.83 668.78C754.59 666.75 738.83 679.47 726.62 690.44C714.86 701.03 706.65 713.54 697.65 726.34C694.48 730.86 684.13 746.62 677.51 739.34C671.48 732.72 684.23 712.62 679.13 709.79C678.54 709.48 676.65 710.14 675.75 709.89C674.34 709.44 673.1 708.37 672.34 707.13C670.58 704.27 671.37 701.1 672.93 698.41C676.96 691.48 681.48 687 683.48 678.82C685.1 672.23 685.58 665.44 686.55 658.72C686.86 656.55 687.27 654.41 687.76 652.31C684.93 655.31 682.14 658.34 678.83 660.79C674.45 664.07 669.42 665.93 664.42 667.93C660.7 669.45 656.87 670.9 653.52 673.1C650.62 675 648 678.2 644.76 679.69C641.38 681.21 638.52 681.17 635.35 679.28C634.69 678.9 634.21 677.97 634.49 677.21C646.25 647.93 677.28 633.24 690.7 605.14C700.01 585.62 699.84 562.59 700.18 541.38C700.46 522.17 699.46 502.86 700.04 483.66C700.07 481.9 700.14 480.11 700.25 478.35C700.25 478.04 700.35 477.8 700.46 477.56C700.53 477.35 700.63 477.18 700.84 477.01C740.39 445.29 792.91 433.29 842.74 432.29C896.57 431.19 950.12 443.15 998.71 466.22C999.68 466.67 999.99 467.5 999.85 468.29C1000.33 468.46 1000.71 468.88 1000.71 469.57C1000.74 471.05 1000.78 472.5 1000.78 473.98C1001.26 501.26 999.47 528.43 1006.54 555.19C1010.47 570.12 1017.57 583.78 1024.26 597.6C1026.92 603.12 1029.36 608.81 1033.4 613.46C1037.85 618.6 1043.71 622.22 1049.33 625.94C1059.02 632.39 1067.92 639.6 1075.64 648.35C1079.09 652.28 1082.29 656.42 1085.23 660.76C1087.13 663.59 1091.26 668.35 1090.92 672.24L1090.89 672.22Z" fill="#855240"/>
<path d="M1000.69 469.53C1000.69 468.84 1000.31 468.43 999.83 468.25C999.97 467.46 999.66 466.63 998.69 466.18C950.1 443.11 896.55 431.15 842.72 432.25C792.89 433.25 740.38 445.25 700.82 476.97C700.61 477.14 700.51 477.32 700.44 477.52C700.34 477.76 700.23 478 700.23 478.31C700.13 480.07 700.06 481.86 700.02 483.62C707.19 486.52 713.92 488.59 717.16 489.55C749.68 499.45 785.13 501.69 818.82 504.1C874.75 508.13 951.61 509.27 1000.75 473.93C1000.75 472.45 1000.72 471 1000.68 469.52L1000.69 469.53Z" fill="#E3B093"/>
<path d="M720.81 540.87C720.31 530.57 720.76 516.07 715.3 506.99C715.03 506.54 714.23 506.58 714.12 507.14C712.21 517.19 715.78 529.01 716.28 539.26C716.83 550.51 716.64 561.81 715.65 573.03C714.68 584.02 713.61 596.14 710.01 606.66C706.21 617.76 696.65 625.99 691.84 636.56C691.02 638.36 693.18 640.41 694.74 638.8C701.93 631.34 709.51 620.41 713.6 610.85C717.72 601.23 718.59 589.75 719.66 579.44C720.99 566.63 721.44 553.74 720.82 540.87H720.81Z" fill="#734434"/>
<path d="M743.64 541.05C740.25 551.52 739.35 563.13 737.03 573.92C734.62 585.13 732.02 596.35 729.01 607.41C726.25 617.55 720.4 625.42 715.24 634.38C710.44 642.73 706.29 651.43 703.68 660.72C703.28 662.14 705.38 663.08 706.09 661.74C711.21 652.09 715.88 642.24 721.64 632.94C726.58 624.97 731.2 617.83 733.73 608.71C736.79 597.66 739.45 586.46 742.05 575.3C744.56 564.54 748.07 552.7 747.7 541.6C747.62 539.24 744.35 538.81 743.63 541.05H743.64Z" fill="#734434"/>
<path d="M766.71 592.16C762.6 600.46 766.09 610.26 762.14 618.78C759.23 625.06 754.37 630.34 755.51 637.7C755.63 638.45 756.84 638.59 757.16 637.92C758.76 634.56 759.52 630.92 761.28 627.62C763.05 624.29 765.46 621.58 766.76 617.98C769.56 610.27 768.48 601.44 769.71 593.44C769.97 591.76 767.61 590.36 766.71 592.17V592.16Z" fill="#734434"/>
<path d="M812.58 662.6C809 651.74 802 642.05 798.12 631.14C796.02 625.25 796.42 616.99 789.02 614.37C786.75 620.96 793.03 631.91 795.5 638.13C799.04 647.03 803.01 657.42 810.08 664.05C811.12 665.02 813.07 664.08 812.58 662.6Z" fill="#734434"/>
<path d="M1040.29 638.77C1035.22 634.3 1030.5 629.61 1026.52 624.12C1023.65 620.16 1021.53 615.65 1018.5 611.82C1015.28 607.74 1010.78 605.82 1007.27 602.13C1002.45 597.07 1001.25 589.83 999.49 583.23C992.82 558.22 987.9 533.43 986.19 507.6C986.1 506.25 984.08 505.82 983.73 507.27C980.64 519.95 983.2 533.32 985.61 545.91C988.2 559.43 991.3 572.86 994.88 586.16C997.82 597.07 1000.16 603.83 1009.35 610.45C1015.87 615.15 1018.97 622.91 1023.8 629.16C1027.59 634.07 1031.94 638.43 1036.75 642.34C1039.21 644.34 1042.75 640.96 1040.29 638.8V638.77Z" fill="#734434"/>
<path d="M1012.24 636.54C1005.73 634.28 1001.99 623.38 998.22 618.11C994.44 612.84 989.48 608.58 985.7 603.31C982.02 598.19 979.17 592.5 977.2 586.51C975.15 580.27 975.27 573.67 973.26 567.51C972.78 566.05 970.63 565.95 970.19 567.51C966.32 581.25 975.79 599.41 984.28 609.69C987.68 613.81 991.61 617.44 994.69 621.84C997.47 625.81 999.6 630.21 1002.45 634.13C1005.09 637.77 1008.13 641.23 1012.52 638.73C1013.46 638.19 1013.17 636.87 1012.23 636.54H1012.24Z" fill="#734434"/>
<path d="M951.27 659.9C943.47 652.78 935.7 646.74 930.47 637.28C924.86 627.15 920.87 615.82 916.99 604.93C909.22 583.11 906.37 562.35 906.44 539.3C906.44 537.73 904.05 537.35 903.66 538.92C898.02 561.87 905.8 587.65 913.66 609.14C921.49 630.53 929.44 649.79 948.56 663.42C950.63 664.89 953.13 661.61 951.27 659.91V659.9Z" fill="#734434"/>
<path d="M912.04 652.55C907.82 641.93 909.08 621.79 898.12 615.43C897.33 614.97 896.12 615.54 896.19 616.54C896.43 619.75 897.63 621.45 898.99 624.43C900.96 628.73 902.27 633.22 903.19 637.85C904.35 643.73 905.09 649.67 909.75 653.87C910.66 654.69 912.56 653.91 912.02 652.55H912.04Z" fill="#734434"/>
<path d="M856.02 631.27C853.72 619.2 854.48 606.04 854 593.79C853.08 570.46 851.92 547.65 854.16 524.4C854.35 522.41 851.55 522.38 850.93 523.96C847.02 533.88 847.23 545.06 847.51 555.57C847.85 568.31 848.47 581.05 848.96 593.79C849.41 605.48 849.16 617.46 850.62 629.07C852.02 640.21 858.19 649.79 860.76 660.64C861.34 663.1 865.5 662.64 865.26 660.03C864.3 649.78 857.92 641.3 856.02 631.27Z" fill="#734434"/>
<path d="M951.66 454.12C920.99 442.69 885.02 443.25 852.71 442.45C837.07 442.06 821.35 441.42 805.73 442.67C792.39 443.74 776.71 445.43 765.49 453.29C764.33 454.1 765.01 455.99 766.48 455.63C781.88 451.84 795.56 447.34 811.64 446.62C826.4 445.96 841.22 446.62 855.98 447.05C871.75 447.52 887.53 448.13 903.25 449.57C919.41 451.05 935.32 454.12 951.43 455.9C952.51 456.02 952.55 454.46 951.67 454.13L951.66 454.12Z" fill="#CF9778"/>
<path d="M803.81 494.54C789.01 491.53 773.68 490.81 758.74 488.66C754.95 488.11 751.16 487.52 747.45 486.55C743.8 485.59 737.42 484.82 737.26 480.87C737.03 475.22 747.46 470.23 751.43 466.82C751.98 466.35 751.4 465.38 750.72 465.6C742.98 468.2 723.67 480.57 737.65 487.36C745.95 491.39 755.25 492.57 764.3 493.77C777.2 495.48 790.27 497.92 803.27 498.59C805.57 498.71 806.11 495.01 803.82 494.54H803.81Z" fill="#CF9778"/>
<path d="M963.47 475.34C953.44 481.46 944.22 485.99 932.73 488.97C920.55 492.13 908.08 493.97 895.55 494.98C883.76 495.94 871.94 496.15 860.12 496.06C849.35 495.98 838.11 494.68 827.44 496.32C825.93 496.55 826.05 498.93 827.44 499.26C839.41 502.03 852.72 501.31 864.97 501.31C878.38 501.31 891.81 500.84 905.13 499.25C917 497.83 928.81 495.64 940.27 492.16C949.38 489.4 960.39 486.03 965.69 477.55C966.55 476.18 964.84 474.5 963.48 475.34H963.47Z" fill="#CF9778"/>
<path d="M935.13 474.86C910.13 482.82 883.51 483.56 857.51 482.57C844.64 482.08 831.79 481.21 818.94 480.44C807.23 479.74 794.22 477.32 782.63 479.34C781.12 479.6 781.35 481.78 782.63 482.17C794.4 485.75 808.33 484.81 820.58 485.58C833.95 486.42 847.32 487.41 860.7 487.88C886.48 488.78 911.72 487.29 936.07 478.27C938.17 477.49 937.33 474.17 935.13 474.87V474.86Z" fill="#CF9778"/>
<path d="M928.59 465.07C923.32 460.99 916.91 459.13 910.61 457.14C903.8 454.99 895.94 452.05 888.75 452.64C887.16 452.77 886.18 455.06 887.87 455.9C893.98 458.97 901.3 459.71 907.88 461.59C914.48 463.48 920.91 466.36 927.77 467.07C928.73 467.17 929.39 465.68 928.6 465.07H928.59Z" fill="#CF9778"/>
<path d="M865.65 456.72C844.66 450.37 818.16 455 797.14 459.54C793.25 460.38 753.23 469 768.09 479.76C769.3 480.63 770.54 479.2 770.35 478.03C768.27 465.62 812.59 461.31 820.1 460.54C835.15 459.01 850.36 460.89 865.3 459.38C866.76 459.23 867.19 457.2 865.66 456.73L865.65 456.72Z" fill="#CF9778"/>
<path d="M563.87 717.55C558.09 678.82 499.54 667.81 466.51 670.17C438.86 672.14 412.09 680.29 385.35 687.58C317.55 706.07 248.27 719.36 178.28 725.65C149 728.28 118.91 729.85 91.9598 741.61C60.4598 755.36 23.0698 796.64 50.6798 830.78C71.7198 856.79 113.76 864.15 144.89 868.59C208.86 877.71 274.95 876.47 338.55 865.07C414.32 851.48 500.7 830.1 548.67 764.25C555.42 754.99 561.26 744.77 563.4 733.51C564.5 727.73 564.61 722.42 563.88 717.55H563.87Z" fill="#6F7C65"/>
<path d="M4.65995 569.94C28.9899 557.3 54.2999 555.77 80.8199 551C117.11 544.47 149.46 524.37 178.8 502.73C226.96 467.19 268.65 427.91 293.25 374.97C293.22 373.52 293.2 372.07 293.16 370.62C288.54 375.79 283.61 380.68 277.87 384.86C260.55 397.48 239.44 404.29 219.66 412.09C193.05 422.6 165.25 430.83 139.9 444.05C123.45 452.63 115.42 458.81 96.66 455.65C91.93 454.85 88.3599 448.43 90.0399 444C95.0599 430.76 104.2 418.55 115.43 407.68C88.2899 410.65 61.41 405.99 41.18 387.58C35.4 382.32 38.9999 373.67 45.4599 371.36C70.58 362.36 96.65 359.84 122.23 352.82C149.44 345.35 174.22 331.77 197.21 315.66C236 288.49 273.95 256.32 286.42 210.8C271.8 219.75 256.18 226 241.16 225.7C235.42 225.58 229.22 219.42 231.7 213.28C234.12 207.28 237.42 201.91 239.12 195.81C203.31 209.88 173.19 233.76 132.01 231.02C124.55 230.52 115.43 227.49 114.56 220.07C114.2 217.03 115.45 214.03 116.91 211.33C130.08 187 159.46 177.66 185.21 167.55C231.21 149.5 275.98 120.77 290.68 71.55C290.55 66.34 290.47 61.13 290.54 55.93C290.76 39.31 290.08 14.71 303.35 2.34003C308.69 -2.63997 316.82 1.05003 317.26 8.10003C317.86 17.89 318.47 28.08 318.92 38.37C321.67 101.65 348.22 146.2 404.33 174.61C430.82 188.02 481.15 206.09 481.87 242.18C481.97 247.02 477.84 250.54 473.26 250.79C456.51 251.71 438.79 242.88 422.01 231.34C421.98 231.94 422.01 232.52 421.94 233.14C420.39 245.81 412.55 249.59 400.78 247.73C383.33 244.97 364.22 224.07 352.5 212.62C344.36 204.67 335.33 195.84 327.88 186.1C327.07 195.29 325.99 204.23 325.73 212.1C325.39 222.31 325.13 232.61 324.79 242.95C326.85 253.39 329.73 263.61 334.87 273.24C354.78 310.5 395.27 336.52 429.34 359.29C452.35 374.66 476.39 383.93 500.6 396.58C516.81 405.05 530.73 415.28 533.58 434.35C534.27 438.96 532.49 444.44 527.23 445.54C506.75 449.79 484.49 436.58 466.84 427.73C439.57 414.06 414.2 398.13 389.38 380.84C389.85 382.43 390.33 384.02 390.8 385.61C393.36 391.04 391.34 397.2 385.32 399.08C362.75 406.1 345.39 389.69 330.39 371.38C331.57 384.54 332.15 397.91 331.58 410.84C353.71 453.29 385.82 487.02 429.02 512.74C472.2 538.44 529.34 552.46 567.16 585.75C573.78 591.58 567.93 600.96 560.58 601.65C515.81 605.83 479.43 587.76 442.28 568.72C457.87 585.49 468.03 603.12 446.64 611.93C431.29 618.26 404.06 601.47 391.06 594.85C365.77 581.98 347.66 561.1 327.42 542.23C330.27 581.07 327.2 621.01 326.9 659.34C326.67 688.49 336.38 723.32 325.7 751.98C322.16 761.48 306.99 787.17 292 776.26C281.29 768.47 290.89 690.2 290.55 674.72C289.66 634.97 290.22 595.3 291.2 555.62C289.83 556.55 288.37 557.33 286.96 558.2C279.84 567.39 271.2 575.51 261.99 582.21C236.62 600.64 195.83 625.51 163.34 622.49C152.26 621.46 144.23 607.65 150.42 599.01C141.01 601.62 131.57 604.03 121.98 605.73C94.33 610.65 67.1399 602.71 40.07 598.07C33.85 597 32.34 590.86 33.84 585.79C25.87 587.06 17.7699 587.82 9.44995 587.78C0.329948 587.73 -3.95005 574.49 4.63995 570.02L4.65995 569.94Z" fill="#456151"/>
<path d="M379.88 511.84C379.91 510.12 381.73 508.72 383.49 509.68C388.24 512.28 391.29 516.89 395.31 520.5C400.71 525.36 406.78 529.39 412.81 533.39C421.97 539.47 433.05 545.19 437.67 555.74C438.31 557.21 437.23 559.29 435.4 558.69C423.08 554.7 411.48 545.72 401.17 538.07C392.87 531.91 380.61 522.92 379.76 511.81C379.8 511.81 379.84 511.82 379.88 511.83V511.84Z" fill="#314F3E"/>
<path d="M338.09 499.07C338.61 498.01 340.05 497.53 341.14 497.83C349.04 500.02 352.5 509.52 358.19 515.11C365.26 522.04 372.64 528.44 379.45 535.65C388.13 544.85 408.29 558.78 405.43 573.39C405.02 575.46 402.38 575.79 401.02 574.56C387.35 562.23 375.87 546.76 362.23 534.11C354.24 526.69 331.82 511.94 338.1 499.08L338.09 499.07Z" fill="#314F3E"/>
<path d="M194.53 582.37C228.03 573.82 247.03 547.15 264.33 519.33C274.31 503.28 292.16 482.21 293.23 462.74C293.36 460.42 296.98 458.85 298.1 461.42C306.17 480.05 282.44 509.86 273.42 524.63C255.24 554.4 233.48 584.64 197.3 592.38C190.8 593.77 188.02 584.03 194.54 582.36L194.53 582.37Z" fill="#314F3E"/>
<path d="M135.76 567.73C147.39 563.35 159.59 560.52 171.34 556.47C184.19 552.04 196.01 545.84 208.38 540.36C209.98 539.65 212.36 541.26 211.09 543.07C196.17 564.41 162.19 571.63 138.49 577.64C131.97 579.29 129.66 570.03 135.76 567.73Z" fill="#314F3E"/>
<path d="M333.08 322.19C333.71 320.3 335.83 319.82 337.3 321.08C344.12 326.91 348.7 334.8 355.7 340.81C361.74 346 370.12 351.47 373.34 359.05C374.94 362.83 371 366.02 367.71 363.4C360.02 357.26 352.01 351.26 344.67 344.7C338.31 339.01 329.99 331.45 333.08 322.2V322.19Z" fill="#314F3E"/>
<path d="M144.05 381.27C152.64 374.69 164.56 373.73 174.4 369.03C187 363.01 198.63 355.01 209.41 346.19C225.97 332.64 240.36 310.39 259.23 300.68C261.94 299.29 263.67 301.86 263.26 303.88H263.39C255.34 326.14 228.56 346.58 210.29 360.55C194.94 372.28 165.44 394.02 144.84 387.26C141.96 386.31 141.85 382.97 144.06 381.28L144.05 381.27Z" fill="#314F3E"/>
<path d="M145.98 410.28C148.48 406.66 152.68 406.2 156.65 404.99C163.95 402.77 171.09 400.02 178.02 396.83C189.52 391.53 198.52 383.96 209.07 377.42C209.28 377.29 209.67 377.3 209.83 377.52C217.52 387.34 194.78 400.52 188.66 403.93C181.06 408.18 154.57 424.1 146.59 415.04C145.5 413.8 144.95 411.76 145.98 410.27V410.28Z" fill="#314F3E"/>
<path d="M236.45 166.23C245.76 157.51 258.47 152.02 268.56 144.09C279.25 135.69 285.88 125.44 294.83 115.62C295.85 114.51 298.1 114.99 298.38 116.56C300.66 129.52 287.6 142.23 278.8 149.94C268.26 159.17 254.86 170.41 241.34 174.63C236.58 176.11 232.82 169.64 236.45 166.24V166.23Z" fill="#314F3E"/>
<path d="M265.36 179.99C267.77 177.09 270.73 174.9 273.75 172.68C276.32 170.79 279.13 168.47 282.28 167.68C284.05 167.24 285.18 168.75 284.96 170.36C284.52 173.58 281.94 176.39 279.82 178.69C277.3 181.43 274.84 184.22 272.44 187.07C271.31 188.41 269.19 188.78 267.57 188.36C266.2 188 265.25 187.29 264.58 186.06C263.42 183.95 263.89 181.76 265.36 179.99Z" fill="#314F3E"/>
<path d="M345.32 163.93C350.6 163.87 353.67 167.54 357.64 170.66C363.64 175.38 370.09 179.48 376.14 184.13C379.66 186.84 387.48 190.04 389.61 194.36C394.4 204.06 387.93 203.31 380.08 198.41C373.38 194.23 366.9 189.42 360.42 184.91C354.36 180.7 342.45 174.73 343.14 166.11C343.24 164.92 344.06 163.94 345.32 163.93Z" fill="#314F3E"/>
<path d="M414.95 820.12C407.39 802.87 391.46 793.15 381.68 777.72C380.28 775.51 383.18 773.38 385.08 774.92C394.06 782.18 403.42 790.89 410.35 800.86C401.86 782.32 391.83 763.98 385.66 744.79C385.01 742.76 387.9 741.52 389.03 743.27C397.53 756.5 405.55 771.88 411.41 787.51C411.26 784.76 411.16 782 411.19 779.23C410.56 770.17 412.36 760.39 415.69 753.16C416.47 751.47 419.3 752.17 419.22 754.02C418.73 766.45 414.93 778.82 417.94 791.23C418.04 791.64 417.97 792.02 417.82 792.37C419.38 801.13 421.39 809.78 423.61 818.37C424.66 806.51 426.93 794.46 430.56 784.24C431.34 782.06 434.98 782.02 434.91 784.72C434.67 793.68 432.91 802.59 431.8 811.47C430.78 819.64 430.01 827.86 428.34 835.92C429.08 838.59 429.82 841.27 430.55 843.94C431.61 846.06 432.44 848.24 433.05 850.47C436.03 837.43 443.31 824.22 449.42 814.6C450.6 812.75 453.86 813.71 453.19 816.05C450.69 824.8 446.01 832.79 442.55 841.19C439.05 849.67 437.92 858.05 436.48 866.83C437.97 873.14 439.33 879.49 440.42 885.91C441.01 889.39 440.96 902.95 435.08 899.63C430.93 897.29 433.68 883.16 432.1 879.16C429.69 873.04 422.53 867.8 417.95 864.23C412.42 859.92 404.66 856.79 400 851.52C399.03 850.42 399.43 848.06 401.27 848.21C409.71 848.92 418.74 857.23 424.89 862.51C426.24 863.67 427.74 864.99 429.21 866.43C427.21 858.53 424.96 850.67 422.71 842.8C419.75 838.85 416.31 835.25 412.47 831.74C406.73 826.49 400.04 821.67 395.9 814.99C394.5 812.73 397.37 810.78 399.28 812.21C404.61 816.19 410.88 820.99 416.65 826.4C416.41 825.54 416.18 824.66 415.93 823.78C415.59 822.58 415.28 821.37 414.95 820.12Z" fill="#2C4939"/>
<path d="M477.29 763C484.13 774.43 492.56 789.58 495.99 804.54C496.45 802.87 496.91 801.21 497.36 799.55C495.62 789.9 493.79 780.89 490.16 771.37C486.26 761.14 480.48 750.08 480.69 738.92C480.74 736.15 484.38 735.73 485.34 738.21C490.15 750.67 494.36 763.76 498.6 776.46C499.49 779.13 500.45 782.02 501.23 784.99C502.99 778.48 504.9 772.05 507.07 765.75C506.79 756.53 506.52 747.42 505.36 738.23C504.14 728.56 501.77 718.75 501.87 708.98C501.9 706.48 505.39 705.93 506.18 708.32C510.17 720.44 513.05 735.85 512.96 750.14C515.74 743.35 518.74 736.66 522 730.07C524.38 712.29 517.98 695.61 518.15 677.81C518.17 675.49 521.48 674.93 522.18 677.19C525.6 688.17 529.39 702.71 529.36 716.11C532.26 710.88 535.32 705.7 538.51 700.56C541.21 695.34 544 690.16 546.02 684.57C550.06 673.4 551.31 661.51 554.88 650.23C555.59 647.97 559.42 648.07 559.27 650.72C558.65 661.48 556.47 670.96 553.26 679.94C555.47 676.78 557.92 673.69 560.89 670.61C568.93 662.28 575.22 651.59 585.73 646.14C587.73 645.1 589.92 647.6 588.23 649.32C580.64 657.06 573.75 665.39 566.23 673.18C557.99 681.71 552.42 690.74 545.43 700.17C544.99 700.76 544.39 700.98 543.8 700.97C543.03 702.43 542.27 703.89 541.48 705.37C539.37 710.7 536.89 715.87 534.27 720.97C545.45 710.98 559.04 703.44 569.63 692.22C571.28 690.47 574.03 692.64 572.94 694.71C567.58 704.9 558.06 711.42 548.84 717.87C543.31 721.73 537.54 725.48 532.93 730.46C529.74 733.91 527.25 737.75 523.91 740.95C521.73 745.4 519.76 749.92 517.94 754.48C529.18 741.7 546.35 731.43 558.83 726.16C560.99 725.25 562.04 728.5 560.37 729.7C542.65 742.38 518.33 756.31 510.59 777.92C510.38 778.52 510.02 778.91 509.61 779.14C508.65 782.49 507.73 785.86 506.86 789.26C505.6 794.2 504.27 799.15 502.92 804.1C514.82 788.29 535.12 776.27 550.19 766.66C552.23 765.36 554.41 768.23 552.77 769.94C534.93 788.57 512.39 799.4 498.47 822.08C498.29 822.37 498.05 822.58 497.8 822.75C495.98 829.43 494.23 836.12 492.59 842.84C502.21 830.38 517.26 819.54 531.1 815.34C533.48 814.62 534.9 817.99 532.82 819.28C524.45 824.45 516.24 829.33 508.84 835.91C502.21 841.8 496.79 848.97 490.05 854.69C489.98 854.75 489.9 854.77 489.83 854.82C488.81 859.6 487.91 864.4 487.1 869.21C494.79 860.03 505.36 853.43 516.44 849.03C518.33 848.28 520.13 851.21 518.51 852.5C512.54 857.26 505.79 860.95 499.69 865.55C495.96 868.37 491.15 874.7 486.12 875.56C485.44 880.33 484.87 885.12 484.5 889.93C484.3 892.65 480.32 892.84 480.2 890.03C479.98 884.9 480.14 879.76 480.52 874.63C480.42 874.45 480.32 874.26 480.28 874.02C477.88 860.49 468.52 850.13 463.6 837.66C462.84 835.73 465.75 834.01 467.09 835.57C472.71 842.1 478.87 851.34 482.16 860.69C482.46 858.77 482.75 856.84 483.11 854.92C483.09 854.77 483.04 854.63 483.06 854.45C483.94 842.89 481.33 832.34 477.47 821.52C474.27 812.53 469.78 803.64 469.23 794C469.12 792.05 472.19 790.98 473.05 792.9C477.64 803.09 481.38 814 484.73 824.66C485.81 828.1 486.82 831.66 487.54 835.28C488.87 830.09 490.28 824.91 491.73 819.76C490.12 799.83 477.74 784.13 473.96 764.51C473.58 762.55 476.17 761.16 477.3 763.06L477.29 763Z" fill="#2C4939"/>
</g>
<defs>
<clipPath id="clip0_1659_165300">
<rect width="1090.91" height="900.15" fill="white"/>
</clipPath>
</defs>
</svg>
