<svg width="3902" height="1324" viewBox="0 0 3902 1324" fill="none" xmlns="http://www.w3.org/2000/svg">
<g clip-path="url(#clip0_1642_255)">
<path d="M646.09 1243.05C665.25 1209.48 675.73 1166.67 675.73 1121.54C675.73 1073.42 663.8 1027.92 642.15 993.44C618.98 956.56 587.37 936.25 553.14 936.25C551.12 936.25 504.06 933.64 495.51 936.34C462.73 937.78 432.57 957.92 410.27 993.44C388.61 1027.92 376.69 1073.41 376.69 1121.54C376.69 1169.67 388.62 1215.17 410.27 1249.64C433.43 1286.53 465.05 1306.83 499.28 1306.83C508.49 1306.83 550.85 1306.83 553.13 1306.83C570.06 1306.83 586.34 1301.86 601.29 1292.38C612.19 1285.47 622.36 1276.15 631.56 1264.61C635.25 1259.97 638.79 1254.99 642.15 1249.64C643.5 1247.48 644.82 1245.28 646.1 1243.04L646.09 1243.05Z" fill="#383C52"/>
<path d="M1623.17 1226.38C1642.33 1192.81 1652.81 1150 1652.81 1104.87C1652.81 1056.75 1640.88 1011.25 1619.23 976.77C1596.06 939.89 1564.45 919.58 1530.22 919.58C1528.2 919.58 1481.14 916.97 1472.59 919.67C1439.81 921.11 1409.65 941.25 1387.35 976.77C1365.69 1011.25 1353.77 1056.74 1353.77 1104.87C1353.77 1153 1365.7 1198.5 1387.35 1232.97C1410.51 1269.86 1442.13 1290.16 1476.36 1290.16C1485.57 1290.16 1527.93 1290.16 1530.21 1290.16C1547.14 1290.16 1563.42 1285.19 1578.37 1275.71C1589.27 1268.8 1599.44 1259.48 1608.64 1247.94C1612.33 1243.3 1615.87 1238.32 1619.23 1232.97C1620.58 1230.81 1621.9 1228.61 1623.18 1226.37L1623.17 1226.38Z" fill="#383C52"/>
<path d="M1920.66 1226.38C1939.82 1192.81 1950.3 1150 1950.3 1104.87C1950.3 1056.75 1938.38 1011.25 1916.72 976.77C1893.55 939.89 1861.94 919.58 1827.71 919.58C1825.69 919.58 1778.63 916.97 1770.08 919.67C1737.3 921.11 1707.14 941.25 1684.84 976.77C1663.18 1011.25 1651.26 1056.74 1651.26 1104.87C1651.26 1153 1663.18 1198.5 1684.84 1232.97C1708 1269.86 1739.62 1290.16 1773.85 1290.16C1783.06 1290.16 1825.42 1290.16 1827.7 1290.16C1844.63 1290.16 1860.91 1285.19 1875.86 1275.71C1886.76 1268.8 1896.93 1259.48 1906.13 1247.94C1909.82 1243.3 1913.36 1238.32 1916.72 1232.97C1918.07 1230.81 1919.39 1228.61 1920.67 1226.37L1920.66 1226.38Z" fill="#383C52"/>
<path d="M3184.97 1200.73C3204.13 1167.16 3214.61 1124.35 3214.61 1079.22C3214.61 1031.1 3202.69 985.6 3181.03 951.12C3157.86 914.24 3126.25 893.93 3092.02 893.93C3090 893.93 3042.94 891.32 3034.39 894.02C3001.61 895.46 2971.45 915.6 2949.15 951.12C2927.49 985.6 2915.57 1031.09 2915.57 1079.22C2915.57 1127.35 2927.5 1172.85 2949.15 1207.32C2972.31 1244.21 3003.93 1264.51 3038.16 1264.51C3047.37 1264.51 3089.73 1264.51 3092.01 1264.51C3108.94 1264.51 3125.22 1259.54 3140.17 1250.06C3151.07 1243.15 3161.24 1233.83 3170.44 1222.29C3174.13 1217.65 3177.67 1212.67 3181.03 1207.32C3182.38 1205.16 3183.7 1202.96 3184.98 1200.72L3184.97 1200.73Z" fill="#292D40"/>
<path d="M3482.45 1200.73C3501.61 1167.16 3512.09 1124.35 3512.09 1079.22C3512.09 1031.1 3500.16 985.6 3478.51 951.12C3455.34 914.24 3423.73 893.93 3389.5 893.93C3387.48 893.93 3340.42 891.32 3331.87 894.02C3299.09 895.46 3268.93 915.6 3246.63 951.12C3224.97 985.6 3213.05 1031.09 3213.05 1079.22C3213.05 1127.35 3224.98 1172.85 3246.63 1207.32C3269.79 1244.21 3301.41 1264.51 3335.64 1264.51C3344.85 1264.51 3387.21 1264.51 3389.49 1264.51C3406.42 1264.51 3422.7 1259.54 3437.65 1250.06C3448.55 1243.15 3458.72 1233.83 3467.92 1222.29C3471.61 1217.65 3475.15 1212.67 3478.51 1207.32C3479.86 1205.16 3481.18 1202.96 3482.46 1200.72L3482.45 1200.73Z" fill="#292D40"/>
<path d="M2189.93 1218.68C2209.09 1185.11 2219.57 1142.3 2219.57 1097.17C2219.57 1049.05 2207.64 1003.55 2185.99 969.07C2162.82 932.19 2131.21 911.88 2096.98 911.88C2094.96 911.88 2047.9 909.27 2039.35 911.97C2006.57 913.41 1976.41 933.55 1954.11 969.07C1932.45 1003.55 1920.53 1049.04 1920.53 1097.17C1920.53 1145.3 1932.46 1190.8 1954.11 1225.27C1977.27 1262.16 2008.89 1282.46 2043.12 1282.46C2052.33 1282.46 2094.69 1282.46 2096.97 1282.46C2113.9 1282.46 2130.18 1277.49 2145.13 1268.01C2156.03 1261.1 2166.2 1251.78 2175.4 1240.24C2179.09 1235.6 2182.63 1230.62 2185.99 1225.27C2187.34 1223.11 2188.66 1220.91 2189.94 1218.67L2189.93 1218.68Z" fill="#383C52"/>
<path d="M3226.86 1180.05L2416.78 1191.24V1163.67L3226.86 1152.49V1180.05Z" fill="#4D516B"/>
<path d="M3038.15 430.68L3028.77 854.17L2650.05 861.06L2659.51 440.92L3038.15 430.68Z" fill="#52281D"/>
<path d="M2676.8 606.27H2526.78L2539.61 241.7H2689.62L2676.8 606.27Z" fill="#383C52"/>
<path d="M2833.84 196.61L2445.74 186.58L2501.63 865.43L2913.34 870.88L2926.19 293.79C2927.59 241.44 2886.21 197.88 2833.84 196.61ZM2879.58 566.13L2727.02 564.16L2700.11 563.8L2550.47 561.86L2556.46 318.23L2707.16 322.54L2734.06 323.31L2885.56 327.63L2879.58 566.13Z" fill="#212332"/>
<path d="M1179.88 666.88V847.69L647.16 840.54V659.73L1179.88 666.88Z" fill="#212332"/>
<path d="M2437.82 185.41L2239.66 187.88C2197.36 188.41 2163.04 222.26 2161.92 264.54L2146.97 860.63L2501.72 865.34L2517.51 266.22C2518.69 221.55 2482.5 184.85 2437.81 185.41H2437.82Z" fill="#4D516B"/>
<path d="M2360.45 266.06L2157.73 257.61L2217.07 776.86L2216.55 859.14L2426.08 865.77L2438.28 347.97C2439.46 303.84 2404.58 267.14 2360.45 266.06Z" fill="#212332"/>
<path d="M2029.24 681.33C2080.21 681.01 2131.18 680.71 2182.14 681.48C2193.22 681.65 2204.31 681.88 2215.39 682.16L2218.23 324.72C2219.22 287.07 2188.72 256.14 2151.06 256.61L2064.83 258.69C2029.18 259.13 2000.25 287.66 1999.31 323.3L1995.46 681.52C2006.72 681.46 2017.98 681.39 2029.23 681.32L2029.24 681.33Z" fill="#4D516B"/>
<path d="M2218 689.786V851L1177 838.214V677L2206.06 689.634L2216.83 689.777L2218 689.786Z" fill="#212332"/>
<path d="M1106.81 280.33C1104.74 280.3 1102.68 280.39 1100.64 280.57L742.09 276.11V811.56L1101.97 816.04C1103.58 816.19 1105.19 816.29 1106.81 816.31C1176.82 817.18 1233.58 697.9 1233.58 549.9C1233.58 401.9 1176.82 281.2 1106.81 280.33Z" fill="#212332"/>
<path d="M2377.17 558.26C2377.17 682.07 2320.42 788.27 2250.41 787.54C2248.78 787.53 2247.18 787.44 2245.56 787.31L1183.35 766.51L1178.75 766.47L1142.15 766.18V318.24L1168.99 318.46L1173.9 318.5L2093.99 345.68C2096.03 345.53 2098.09 345.45 2100.16 345.47C2151.39 346 2195.52 391.28 2215.51 464.05C2217.03 469.57 2219.64 481.09 2219.64 481.09C2219.64 481.09 2377.18 531.93 2377.18 558.27L2377.17 558.26Z" fill="#212332"/>
<path d="M743.322 812.154C813.335 811.897 869.651 691.702 869.109 543.691C868.566 395.68 811.37 275.901 741.357 276.157C671.345 276.414 615.028 396.609 615.571 544.62C616.113 692.632 673.309 812.41 743.322 812.154Z" fill="#4D516B"/>
<path d="M734.42 742.09C734.25 742.09 734.07 742.09 733.9 742.09C711.38 741.77 690.33 720.83 674.64 683.11C659.14 645.85 650.6 596.52 650.6 544.2C650.6 464.88 670.48 394.03 701.24 363.7C711.4 353.68 722.23 348.6 733.43 348.6C733.6 348.6 733.78 348.6 733.95 348.6C756.47 348.92 777.52 369.86 793.21 407.58C808.71 444.84 817.25 494.17 817.25 546.49C817.25 625.81 797.37 696.66 766.61 726.99C756.45 737.01 745.62 742.09 734.42 742.09ZM733.43 351.98C723.15 351.98 713.12 356.73 703.61 366.1C673.46 395.83 653.98 465.74 653.98 544.19C653.98 650.82 689.85 738.08 733.95 738.7C744.41 738.85 754.59 734.1 764.24 724.58C794.39 694.85 813.87 624.94 813.87 546.49C813.87 439.86 778 352.6 733.9 351.98C733.74 351.98 733.59 351.98 733.43 351.98Z" fill="#212332"/>
<path d="M426.1 987.52L293.07 970.5L12.39 1173.32C2.27001 1180.63 -2.18999 1193.13 1.03001 1205.2C4.24001 1217.25 14.33 1225.88 26.73 1227.2L110.63 1237.11L468.47 1279.39C472.74 1279.84 477 1280.06 481.22 1280.06C520.98 1280.06 558.3 1260.39 580.76 1226.86L581.62 1225.56L629.32 1013.5L426.11 987.52H426.1ZM560.71 1215.26C542.49 1241.58 512.81 1256.97 481.18 1256.97C477.77 1256.97 474.33 1256.79 470.88 1256.43L287.45 1234.76L29.15 1204.24C24.97 1203.79 23.67 1200.6 23.32 1199.25C22.96 1197.89 22.49 1194.48 25.9 1192.02L299.43 994.37L413.85 1009.32L598.32 1033.44L560.71 1215.25V1215.26Z" fill="#212332"/>
<path d="M579.23 1197.48L92.78 1125.72C89.41 1128.88 85.31 1131.4 81.42 1133.57C75.34 1136.96 68.75 1139.66 62.54 1142.96C65.69 1144.63 69.15 1145.78 72.82 1146.27L578.44 1220.59C579.44 1212.9 579.99 1205.21 579.21 1197.48H579.23Z" fill="#212332"/>
<path d="M602.31 1117.67L192.18 1058.09C188.78 1061.26 184.65 1063.8 180.73 1065.97C174.6 1069.38 167.95 1072.1 161.7 1075.42C164.87 1077.08 168.36 1078.22 172.07 1078.7L598.32 1140.36C599.85 1132.83 601.2 1125.27 602.31 1117.67Z" fill="#212332"/>
<path d="M337.84 992.81L120.14 1222.52C127.09 1224.03 133.95 1226.06 140.76 1227.89C142.38 1228.32 144.01 1228.75 145.65 1229.17L355.72 1007.51C350.48 1002.16 344.57 996.58 337.85 992.82L337.84 992.81Z" fill="#212332"/>
<path d="M431.31 972.03L272.27 1245.65C279.38 1245.52 286.52 1245.92 293.57 1246.13C295.24 1246.18 296.93 1246.22 298.62 1246.25L453.37 982.22C447.04 978.22 438.73 974.14 431.31 972.03Z" fill="#212332"/>
<path d="M507.8 978.17L430.66 1268.1C437.94 1265.99 445.44 1264.35 452.76 1262.57C454.5 1262.15 456.25 1261.71 458 1261.26L532.43 981.48C524.63 979.66 516.1 977.98 507.79 978.16L507.8 978.17Z" fill="#212332"/>
<path d="M1200.43 359.11C1193.04 343.39 1184.89 329.8 1176.14 318.49L1171.23 318.45C1208.65 364.92 1233.89 451.41 1233.89 549.9C1233.89 636.67 1213.67 717.45 1180.98 766.47L1185.58 766.51C1198.11 747.22 1208.92 723.2 1217.43 695.45C1230.71 652.16 1237.73 601.83 1237.73 549.9C1237.73 478.03 1224.48 410.29 1200.42 359.11H1200.43Z" fill="#4D516B"/>
<path d="M2913.55 852.13L2912.88 1096.25L1264.26 1100.29H1260.41L967.51 1101.01H963.66L631.62 1101.84L585.23 1116.12L201.03 1062.91C234.38 1025.72 293.93 981.46 293.93 981.46C293.93 981.46 294.83 975.54 294.83 972.43C294.83 933.32 310.69 897.92 336.33 872.29C361.97 846.67 397.38 830.82 436.5 830.82L618.57 832.38L630.32 832.48L2913.54 852.12L2913.55 852.13Z" fill="#212332"/>
<path d="M630.48 1102.16L613.44 1102.2C589.17 1096.88 566.87 1084.66 548.85 1066.49C524 1041.43 510.31 1008.1 510.31 972.6C510.31 934.02 525.18 897.74 552.18 870.46C554.09 868.52 556.04 866.66 558.04 864.86C575.22 849.31 595.52 838.39 617.45 832.71L621.17 832.75H621.18C621.46 833.02 621.8 832.96 622.04 832.75H622.05L629.19 832.81C604.34 837.11 581.21 848.09 561.9 864.88C559.19 867.24 556.55 869.7 553.99 872.29C527.49 899.08 512.88 934.71 512.88 972.6C512.88 1007.39 526.31 1040.09 550.67 1064.65C572.35 1086.51 600.36 1099.59 630.49 1102.16H630.48Z" fill="#4D516B"/>
<path d="M2740.91 308.17L2740.46 323.31L2733.42 564.16L2706.51 563.8L2713.56 322.54L2713.98 308.17H2740.91Z" fill="#212332"/>
<path d="M3895.73 958.95L3895.77 1072.2L3724.95 1071.21H3721.09L3550.46 1070.21H3546.6L2913.34 1066.56C2913.34 1066.56 2924.57 850.9 2928.06 849.77C2928.92 849.49 2928.55 848.13 2927.69 848.41C2923.01 849.92 3038.16 430.68 3038.16 430.68L3210.48 435.23L3214.33 435.32L3384.88 439.82L3388.74 439.92L3561.31 444.47L3565.17 444.57L3735.71 449.07L3739.57 449.17L3901.97 453.29L3895.71 895.22V917.84L3895.74 958.95H3895.73Z" fill="#7A3C2B"/>
<path d="M3895.77 1072.2L2910.85 1066.51L2912.05 949.53L3895.73 958.95L3895.77 1072.2Z" fill="#292D40"/>
<path d="M3203.28 1067.22L2910.91 1062.96V1066.81L3203.28 1071.07V1067.22Z" fill="#212332"/>
<path d="M1040.08 154.81V141.69C1040.08 114.72 1045.87 88.0699 1057.05 63.5299L1080.35 12.4099C1080.35 12.4099 1038.27 2.4899 967.5 0.269901C905.58 -1.6701 850.82 7.2799 850.82 7.2799L879.19 70.1399C887.53 88.6199 891.85 108.65 891.88 128.92L891.99 148.94C891.99 175.74 886.28 202.22 875.23 226.64L851.68 278.67C851.68 278.67 866.02 282.05 891.99 285.27V291.49H1040.08V288.2C1064.07 286.08 1079.71 283.48 1079.71 283.48L1056.59 231.95C1045.71 207.69 1040.08 181.4 1040.08 154.81Z" fill="#212332"/>
<path d="M770.89 286.6L653.63 280.19V99.3799L770.89 105.79C811.61 105.79 844.63 138.8 844.63 179.53V212.87C844.63 253.59 811.62 286.61 770.89 286.61V286.6Z" fill="#212332"/>
<path d="M3320.94 1229.53C3316.2 1232.19 3311.29 1234.14 3306.27 1235.37C3293.05 1220.16 3278.01 1206.56 3266.69 1189.74C3253.29 1169.85 3244.49 1147.28 3240.16 1123.73C3235.84 1100.24 3235.91 1075.95 3239.5 1052.37C3243.04 1029.09 3249.46 1004.89 3260.87 984.18C3270.97 965.84 3286.33 951.09 3296.78 933.1C3305.14 933.56 3313.25 936.07 3320.94 940.38C3329.48 935.6 3338.53 933.01 3347.87 933.01C3355.03 933.01 3362.03 934.54 3368.75 937.41C3354.62 921.06 3338.4 909.74 3320.95 904.01C3312.24 901.14 3303.23 899.68 3294.02 899.68C3259.78 899.68 3228.16 919.99 3205.01 956.87C3183.35 991.35 3171.43 1036.84 3171.43 1084.97C3171.43 1133.1 3183.35 1178.6 3205.01 1213.07C3228.17 1249.96 3259.79 1270.26 3294.02 1270.26C3303.23 1270.26 3312.24 1268.8 3320.95 1265.93C3338.4 1260.2 3354.63 1248.88 3368.75 1232.53C3362.03 1235.4 3355.03 1236.93 3347.87 1236.93C3338.54 1236.93 3329.48 1234.34 3320.94 1229.56V1229.53Z" fill="#4A4D63"/>
<path d="M3619.71 1226.11C3614.97 1228.77 3610.06 1230.72 3605.04 1231.95C3591.82 1216.74 3576.78 1203.14 3565.46 1186.32C3552.06 1166.43 3543.26 1143.86 3538.93 1120.31C3534.61 1096.82 3534.68 1072.53 3538.27 1048.95C3541.81 1025.67 3548.23 1001.47 3559.64 980.76C3569.74 962.42 3585.1 947.67 3595.55 929.68C3603.91 930.14 3612.02 932.65 3619.71 936.96C3628.25 932.18 3637.3 929.59 3646.64 929.59C3653.8 929.59 3660.8 931.12 3667.52 933.99C3653.39 917.64 3637.17 906.32 3619.72 900.59C3611.01 897.72 3602 896.26 3592.79 896.26C3558.55 896.26 3526.93 916.57 3503.78 953.45C3482.12 987.93 3470.2 1033.42 3470.2 1081.55C3470.2 1129.68 3482.12 1175.18 3503.78 1209.65C3526.94 1246.54 3558.56 1266.84 3592.79 1266.84C3602 1266.84 3611.01 1265.38 3619.72 1262.51C3637.17 1256.78 3653.4 1245.46 3667.52 1229.11C3660.8 1231.98 3653.8 1233.51 3646.64 1233.51C3637.31 1233.51 3628.25 1230.92 3619.71 1226.14V1226.11Z" fill="#4A4D63"/>
<path d="M653.963 280.262C677.595 280.176 696.604 239.601 696.421 189.636C696.238 139.671 676.932 99.237 653.3 99.3236C629.668 99.4103 610.659 139.985 610.842 189.95C611.025 239.915 630.331 280.349 653.963 280.262Z" fill="#E7E1D5"/>
<path d="M652.3 261.07C652.24 261.07 652.17 261.07 652.11 261.07C635.79 260.83 623.01 229.27 623.01 189.22C623.01 159.94 630.06 134.08 640.96 123.34C644.48 119.87 648.26 118.16 652.14 118.2C668.46 118.44 681.24 150 681.24 190.05C681.24 219.33 674.19 245.19 663.29 255.93C659.83 259.34 656.13 261.07 652.3 261.07ZM651.96 120.77C648.82 120.77 645.73 122.25 642.77 125.17C632.49 135.3 625.58 161.04 625.58 189.23C625.58 226.57 637.75 258.3 652.15 258.51C655.34 258.56 658.48 257.08 661.49 254.11C671.77 243.98 678.68 218.24 678.68 190.05C678.68 152.71 666.51 120.98 652.11 120.77C652.06 120.77 652.01 120.77 651.96 120.77Z" fill="#212332"/>
<path d="M775.59 1260.37C770.85 1263.03 765.94 1264.98 760.92 1266.21C747.7 1251 732.66 1237.4 721.34 1220.58C707.94 1200.69 699.14 1178.12 694.81 1154.57C690.49 1131.08 690.56 1106.79 694.15 1083.21C697.69 1059.93 704.11 1035.73 715.52 1015.02C725.62 996.68 740.98 981.93 751.43 963.94C759.79 964.4 767.9 966.91 775.59 971.22C784.13 966.44 793.18 963.85 802.52 963.85C809.68 963.85 816.68 965.38 823.4 968.25C809.27 951.9 793.05 940.58 775.6 934.85C766.89 931.98 757.88 930.52 748.67 930.52C714.43 930.52 682.81 950.83 659.66 987.71C638 1022.19 626.08 1067.68 626.08 1115.81C626.08 1163.94 638 1209.44 659.66 1243.91C682.82 1280.8 714.44 1301.1 748.67 1301.1C757.88 1301.1 766.89 1299.64 775.6 1296.77C793.05 1291.04 809.28 1279.72 823.4 1263.37C816.68 1266.24 809.68 1267.77 802.52 1267.77C793.19 1267.77 784.13 1265.18 775.59 1260.4V1260.37Z" fill="#4A4D63"/>
<path d="M885.15 831.38L1179.88 834.43V838.28L885.15 835.23L881.3 835.19L647.16 832.77V828.92L881.3 831.34L885.15 831.38Z" fill="#4D516B"/>
<path d="M2498.46 848.09V851.94L2366.16 850.56L2315.93 850.05L2249.06 849.36L2218.35 849.04L2198.84 848.83L1959.14 846.35L1934.78 846.1L1846 845.18V841.33L1934.76 842.26L1959.12 842.5L2198.8 844.99L2218.35 845.19L2249.02 845.51L2315.89 846.2L2366.12 846.72L2498.46 848.09Z" fill="#4D516B"/>
<path d="M2077.79 1250.1C2072.78 1253.07 2067.58 1255.27 2062.26 1256.65C2048.27 1239.6 2032.34 1224.34 2020.36 1205.5C2006.18 1183.2 1996.86 1157.9 1992.28 1131.49C1987.7 1105.15 1987.78 1077.93 1991.57 1051.49C1995.31 1025.4 2002.11 998.26 2014.19 975.04C2019.83 964.2 2027.01 954.49 2034.17 944.77C2040.58 936.04 2046.98 927.32 2052.21 917.78C2061.06 918.29 2069.65 921.1 2077.79 925.94C2086.83 920.58 2096.42 917.68 2106.29 917.68C2113.87 917.68 2121.28 919.39 2128.4 922.6C2113.44 904.28 2121.03 887.02 2102.56 880.59C2102.37 880.53 2102.18 880.46 2101.97 880.41C2091.96 877.49 2058.83 880.29 2049.28 880.29C2013.03 880.29 1979.56 903.05 1955.05 944.4C1954.97 944.52 1954.91 944.64 1954.84 944.76C1939.03 971.52 1928.14 1004.17 1922.98 1039.61C1921.99 1046.26 1921.22 1053.01 1920.67 1059.83C1920.64 1060.06 1920.62 1060.3 1920.61 1060.54C1919.87 1069.58 1919.49 1078.75 1919.49 1088.01C1919.49 1095.31 1919.72 1102.54 1920.18 1109.71C1920.23 1110.44 1920.27 1111.18 1920.33 1111.92C1920.68 1116.98 1921.15 1122 1921.73 1126.97C1926.28 1166.21 1937.73 1202.44 1955.04 1231.63C1979.56 1273 2013.02 1295.74 2049.27 1295.74C2059.02 1295.74 2068.56 1294.1 2077.77 1290.88C2096.25 1284.46 2113.43 1271.76 2128.38 1253.44C2121.26 1256.66 2113.85 1258.36 2106.27 1258.36C2096.4 1258.36 2086.81 1255.46 2077.77 1250.1H2077.79Z" fill="#4A4D63"/>
<path d="M1921.74 1126.97C1920.87 1131.89 1919.82 1136.79 1918.53 1141.66C1917.9 1144.06 1914.2 1143.03 1914.82 1140.63C1917.5 1130.41 1919.19 1120.09 1920.18 1109.7C1921.73 1093.4 1921.51 1076.96 1920.6 1060.54C1921.16 1053.47 1921.95 1046.5 1922.97 1039.61C1925.32 1068.74 1926.8 1098.17 1921.73 1126.96L1921.74 1126.97Z" fill="#212332"/>
<path d="M2375.28 1244.97C2370.27 1247.94 2365.07 1250.14 2359.75 1251.52C2345.76 1234.47 2329.83 1219.21 2317.85 1200.37C2303.67 1178.07 2294.35 1152.77 2289.77 1126.36C2285.19 1100.02 2285.27 1072.8 2289.06 1046.36C2292.8 1020.27 2299.6 993.13 2311.68 969.91C2316.32 960.99 2322.02 952.8 2327.89 944.76C2335.52 934.3 2343.44 924.05 2349.7 912.64C2358.55 913.15 2367.14 915.96 2375.28 920.8C2384.32 915.44 2393.91 912.54 2403.78 912.54C2411.36 912.54 2418.77 914.25 2425.89 917.46C2410.93 899.14 2418.52 881.88 2400.05 875.45C2399.86 875.39 2399.67 875.32 2399.46 875.27C2389.45 872.35 2356.32 875.15 2346.77 875.15C2310.52 875.15 2277.05 897.91 2252.54 939.26C2251.48 941.07 2250.42 942.89 2249.41 944.75C2240.54 960.8 2233.37 978.81 2228.06 998.13C2227.29 1000.89 2226.56 1003.67 2225.89 1006.46C2225.83 1006.72 2225.76 1006.99 2225.7 1007.24C2219.97 1031.03 2216.98 1056.59 2216.98 1082.85C2216.98 1109.11 2220.02 1135.17 2225.85 1159.13C2226.27 1160.9 2226.72 1162.66 2227.18 1164.4C2227.46 1165.48 2227.76 1166.55 2228.05 1167.62C2233.97 1189.16 2242.21 1209.06 2252.53 1226.46C2277.05 1267.83 2310.51 1290.57 2346.76 1290.57C2356.51 1290.57 2366.05 1288.93 2375.26 1285.71C2393.74 1279.29 2410.92 1266.59 2425.87 1248.27C2418.75 1251.49 2411.34 1253.19 2403.76 1253.19C2393.89 1253.19 2384.3 1250.29 2375.26 1244.93L2375.28 1244.97Z" fill="#4A4D63"/>
<path d="M1763.21 1245.82C1758.18 1248.81 1752.99 1250.99 1747.68 1252.37C1733.68 1235.33 1717.76 1220.07 1705.78 1201.22C1691.59 1178.93 1682.28 1153.62 1677.69 1127.22C1673.13 1100.88 1673.2 1073.66 1677 1047.22C1680.74 1021.11 1687.54 993.99 1699.62 970.76C1704.43 961.51 1710.37 953.08 1716.46 944.77C1723.9 934.6 1731.55 924.6 1737.64 913.51C1746.49 914.02 1755.08 916.83 1763.22 921.67C1772.26 916.31 1781.84 913.4 1791.72 913.4C1799.3 913.4 1806.71 915.12 1813.83 918.34C1798.87 900 1806.46 882.76 1787.98 876.33C1787.79 876.27 1787.58 876.2 1787.36 876.14C1777.33 873.23 1744.25 876.02 1734.71 876.02C1698.46 876.02 1664.99 898.79 1640.48 940.13C1639.57 941.66 1638.68 943.21 1637.83 944.77C1616.57 982.83 1604.93 1031.93 1604.93 1083.74C1604.93 1135.55 1617.55 1188.71 1640.49 1227.35C1665.01 1268.7 1698.47 1291.46 1734.72 1291.46C1744.47 1291.46 1754.01 1289.82 1763.22 1286.6C1781.7 1280.18 1798.88 1267.48 1813.83 1249.16C1806.71 1252.38 1799.3 1254.08 1791.72 1254.08C1781.83 1254.08 1772.26 1251.18 1763.22 1245.81L1763.21 1245.82Z" fill="#4A4D63"/>
<path d="M803.38 930.51H746.64V960.32H803.38V930.51Z" fill="#4A4D63"/>
<path d="M2419.09 1079.7C2419.09 1071.2 2417.94 1063.07 2415.92 1055.81V1025.03H2388.16V1025.07C2372 1025.68 2358.45 1050.44 2358.45 1079.7C2358.45 1108.96 2371.99 1133.71 2388.16 1134.33V1134.37H2415.92V1103.59C2417.94 1096.33 2419.09 1088.21 2419.09 1079.7Z" fill="#212332"/>
<path d="M2403.78 1290.62C2367.54 1290.62 2334.07 1267.85 2309.54 1226.51C2286.62 1187.87 2273.99 1136.86 2273.99 1082.9C2273.99 1028.94 2286.61 977.93 2309.54 939.29C2334.07 897.95 2367.53 875.18 2403.78 875.18C2440.03 875.18 2473.49 897.95 2498.02 939.29C2520.94 977.93 2533.57 1028.94 2533.57 1082.9C2533.57 1136.86 2520.95 1187.87 2498.02 1226.51C2473.49 1267.85 2440.03 1290.62 2403.78 1290.62ZM2403.78 912.55C2352.56 912.55 2309.29 990.56 2309.29 1082.9C2309.29 1175.24 2352.56 1253.25 2403.78 1253.25C2455 1253.25 2498.27 1175.24 2498.27 1082.9C2498.27 990.56 2455 912.55 2403.78 912.55Z" fill="#4A4D63"/>
<path d="M2501.15 944.77C2500.14 942.91 2499.09 941.08 2498.02 939.28C2473.49 897.93 2440.02 875.17 2403.77 875.17C2402.32 875.17 2400.88 875.21 2399.45 875.29C2391.2 875.69 2383.11 877.28 2375.27 880.03C2356.79 886.45 2339.61 899.15 2324.67 917.47C2319.34 924.02 2314.27 931.32 2309.54 939.28C2308.48 941.08 2307.42 942.91 2306.41 944.77C2285.46 982.69 2273.99 1031.45 2273.99 1082.88C2273.99 1136.85 2286.61 1187.86 2309.53 1226.49C2314.26 1234.45 2319.33 1241.75 2324.66 1248.3C2339.6 1266.62 2356.78 1279.32 2375.26 1285.74C2384.48 1288.96 2394.02 1290.6 2403.76 1290.6C2440.01 1290.6 2473.48 1267.85 2498.01 1226.49C2520.94 1187.86 2533.55 1136.85 2533.55 1082.88C2533.55 1028.91 2522.09 982.68 2501.13 944.77H2501.15ZM2425.89 1248.31C2418.77 1251.53 2411.36 1253.23 2403.78 1253.23C2393.91 1253.23 2384.32 1250.33 2375.28 1244.97C2337.48 1222.59 2309.29 1157.42 2309.29 1082.88C2309.29 1026.81 2325.25 976 2349.27 944.77C2357.16 934.5 2365.93 926.34 2375.27 920.8C2384.31 915.44 2393.9 912.54 2403.77 912.54C2411.35 912.54 2418.76 914.25 2425.88 917.46C2437.64 922.77 2448.61 932.18 2458.28 944.76C2482.31 976 2498.27 1026.79 2498.27 1082.87C2498.27 1161.55 2466.85 1229.82 2425.87 1248.29L2425.89 1248.31ZM2349.69 912.65C2343.43 924.06 2335.51 934.31 2327.88 944.77H2349.27C2357.16 934.5 2365.93 926.34 2375.27 920.8C2367.13 915.97 2358.54 913.16 2349.69 912.64V912.65Z" fill="#4A4D63"/>
<path d="M2414.59 1026.04C2398.16 1026.04 2384.27 1051.07 2384.27 1080.7C2384.27 1110.33 2398.15 1135.36 2414.59 1135.36C2431.03 1135.36 2444.91 1110.33 2444.91 1080.7C2444.91 1051.07 2431.03 1026.04 2414.59 1026.04Z" fill="#4A4D63"/>
<path d="M2472.4 930.73L2335.96 1252.69L2344.08 1256.13L2479.14 937.43C2477.03 935.05 2474.77 932.8 2472.39 930.73H2472.4Z" fill="#4A4D63"/>
<path d="M2408.69 906.82L2407.46 1256.49L2416.28 1256.52L2417.5 910.38C2414.64 909 2411.68 907.81 2408.69 906.82Z" fill="#4A4D63"/>
<path d="M2298.91 1176.41C2299.37 1177.44 2299.81 1178.47 2300.24 1179.5L2510.8 1011.4C2510.58 1010.22 2510.38 1009.03 2510.19 1007.83C2509.87 1005.72 2509.62 1003.42 2509.3 1001.1L2296.39 1171.07C2297.28 1172.83 2298.11 1174.62 2298.9 1176.4L2298.91 1176.41Z" fill="#4A4D63"/>
<path d="M2517.97 1059.14L2294.02 1100.02C2293.97 1102 2293.85 1103.97 2293.71 1105.9C2293.63 1107.02 2293.53 1108.14 2293.42 1109.25L2517.61 1068.33C2517.71 1065.27 2517.86 1062.2 2517.98 1059.14H2517.97Z" fill="#4A4D63"/>
<path d="M2373.29 913.42L2456.86 1245.73L2448.27 1248.38L2365.55 919.45C2368.04 917.32 2370.62 915.31 2373.29 913.42Z" fill="#4A4D63"/>
<path d="M2496.41 1179.05L2315.1 948.31C2313.43 951.12 2311.9 954.02 2310.49 956.98L2492.55 1188.67C2493.92 1185.5 2495.22 1182.3 2496.42 1179.06L2496.41 1179.05Z" fill="#4A4D63"/>
<path d="M2295.62 1036.78L2292.63 1045.62L2520.23 1122.44L2523.21 1113.59L2295.62 1036.78Z" fill="#4A4D63"/>
<path d="M2498.03 939.28C2473.5 897.93 2440.03 875.17 2403.78 875.17C2402.33 875.17 2400.89 875.21 2399.46 875.29C2389.45 872.37 2356.32 875.17 2346.77 875.17C2310.52 875.17 2277.05 897.93 2252.54 939.28C2251.48 941.09 2250.42 942.91 2249.41 944.77H2349.27C2357.16 934.5 2365.93 926.34 2375.27 920.8C2384.31 915.44 2393.9 912.54 2403.77 912.54C2411.35 912.54 2418.76 914.25 2425.88 917.46C2437.64 922.77 2448.61 932.18 2458.28 944.76H2501.15C2500.14 942.9 2499.09 941.07 2498.02 939.27L2498.03 939.28Z" fill="#383C52"/>
<path d="M2397.7 871.1C2390.71 871.1 2383.82 871.93 2377.08 873.56C2377.3 872.77 2377.5 871.98 2377.67 871.18C2376.51 871.13 2375.34 871.11 2374.17 871.11C2337.19 871.11 2303.11 894.26 2278.21 936.28C2255.08 975.3 2242.34 1026.75 2242.34 1081.14C2242.34 1135.55 2255.07 1187 2278.19 1226C2290.05 1246.02 2303.99 1261.74 2319.34 1272.73C2320.39 1272.59 2321.44 1272.44 2322.5 1272.3C2322.66 1272.35 2322.84 1272.38 2323.03 1272.38C2329.41 1272.51 2335.78 1272.44 2342.16 1272.2C2342.4 1272.37 2342.63 1272.56 2342.87 1272.73C2344.96 1272.44 2347.06 1272.17 2349.15 1271.87C2347.62 1270.88 2346.11 1269.82 2344.61 1268.73C2344.37 1268.34 2344.01 1268.04 2343.51 1267.93C2329.28 1257.34 2316.3 1242.48 2305.18 1223.71C2282.46 1185.38 2269.95 1134.75 2269.95 1081.14C2269.95 1027.55 2282.47 976.92 2305.2 938.57C2329.33 897.85 2362.19 875.42 2397.72 875.42C2398.5 875.42 2399.28 875.45 2400.06 875.47C2400.51 874.06 2400.91 872.63 2401.22 871.18C2400.05 871.13 2398.89 871.11 2397.72 871.11L2397.7 871.1Z" fill="#212332"/>
<path d="M816.98 1112.95C816.98 1105.36 815.89 1098.12 813.99 1091.64V1064.19H787.77V1064.23C772.5 1064.78 759.71 1086.86 759.71 1112.96C759.71 1139.06 772.5 1161.14 787.77 1161.69V1161.73H813.99V1134.28C815.9 1127.8 816.98 1120.56 816.98 1112.97V1112.95Z" fill="#212332"/>
<path d="M802.52 1301.09C768.28 1301.09 736.67 1280.78 713.5 1243.9C691.85 1209.43 679.92 1163.94 679.92 1115.8C679.92 1067.66 691.85 1022.17 713.5 987.7C736.67 950.82 768.28 930.51 802.52 930.51C836.76 930.51 868.37 950.82 891.54 987.7C913.19 1022.17 925.12 1067.66 925.12 1115.8C925.12 1163.94 913.19 1209.43 891.54 1243.9C868.37 1280.78 836.76 1301.09 802.52 1301.09ZM802.52 963.86C754.14 963.86 713.26 1033.44 713.26 1115.81C713.26 1198.18 754.13 1267.76 802.52 1267.76C850.91 1267.76 891.78 1198.18 891.78 1115.81C891.78 1033.44 850.91 963.86 802.52 963.86Z" fill="#4A4D63"/>
<path d="M891.53 987.7C868.36 950.82 836.75 930.51 802.52 930.51C793.31 930.51 784.3 931.97 775.59 934.84C758.14 940.57 741.91 951.89 727.79 968.24C722.75 974.09 717.97 980.59 713.51 987.69C691.85 1022.17 679.93 1067.66 679.93 1115.79C679.93 1163.92 691.85 1209.42 713.51 1243.89C717.97 1250.99 722.76 1257.49 727.79 1263.34C741.91 1279.69 758.14 1291.01 775.59 1296.74C784.3 1299.61 793.31 1301.07 802.52 1301.07C836.76 1301.07 868.36 1280.77 891.53 1243.88C913.19 1209.41 925.11 1163.92 925.11 1115.78C925.11 1067.64 913.18 1022.16 891.53 987.68V987.7ZM823.4 1263.35C816.68 1266.22 809.68 1267.75 802.52 1267.75C793.19 1267.75 784.13 1265.16 775.59 1260.38C739.88 1240.43 713.26 1182.29 713.26 1115.81C713.26 1049.33 739.88 991.19 775.59 971.24C784.13 966.46 793.18 963.87 802.52 963.87C809.68 963.87 816.68 965.4 823.4 968.27C862.11 984.75 891.78 1045.64 891.78 1115.82C891.78 1186 862.11 1246.89 823.4 1263.37V1263.35Z" fill="#4A4D63"/>
<path d="M812.73 1065.09C797.21 1065.09 784.09 1087.42 784.09 1113.84C784.09 1140.26 797.2 1162.59 812.73 1162.59C828.26 1162.59 841.37 1140.26 841.37 1113.84C841.37 1087.42 828.26 1065.09 812.73 1065.09Z" fill="#4A4D63"/>
<path d="M808.5 943.98H800.17V1281.86H808.5V943.98Z" fill="#4A4D63"/>
<path d="M881.21 993.68L713.5 1239.95L720.39 1244.64L886.32 1000.99C884.73 998.48 883.03 996.04 881.21 993.68Z" fill="#4A4D63"/>
<path d="M723.73 993.68L891.44 1239.95L884.55 1244.64L718.62 1000.99C720.21 998.48 721.91 996.04 723.73 993.68Z" fill="#4A4D63"/>
<path d="M911.03 1109.39H684.13V1117.72H911.03V1109.39Z" fill="#4A4D63"/>
<path d="M793.54 926.51C786.94 926.51 780.44 927.25 774.08 928.7C774.28 928 774.47 927.29 774.62 926.57C773.52 926.53 772.42 926.5 771.31 926.5C736.38 926.5 704.37 947.17 681.19 984.69C659.66 1019.53 648.03 1065.47 648.47 1114.04C648.9 1162.62 661.35 1208.56 683.5 1243.39C694.86 1261.26 708.16 1275.3 722.74 1285.12C723.73 1284.99 724.72 1284.86 725.72 1284.73C725.88 1284.77 726.04 1284.8 726.22 1284.8C732.25 1284.91 738.27 1284.86 744.29 1284.64C744.52 1284.79 744.74 1284.96 744.97 1285.11C746.94 1284.86 748.92 1284.61 750.89 1284.34C749.44 1283.45 748 1282.51 746.57 1281.53C746.34 1281.18 746 1280.91 745.52 1280.82C731.99 1271.36 719.61 1258.09 708.96 1241.33C687.19 1207.11 674.96 1161.9 674.53 1114.03C674.1 1066.17 685.52 1020.96 706.68 986.73C729.15 950.37 760 930.34 793.56 930.34C794.3 930.34 795.03 930.36 795.77 930.38C796.19 929.12 796.55 927.84 796.83 926.55C795.73 926.51 794.63 926.48 793.52 926.48L793.54 926.51Z" fill="#212332"/>
<path d="M1807.03 1080.55C1807.03 1072.05 1805.88 1063.92 1803.86 1056.66V1025.88H1776.1V1025.92C1759.94 1026.53 1746.39 1051.29 1746.39 1080.55C1746.39 1109.81 1759.93 1134.56 1776.1 1135.18V1135.22H1803.86V1104.44C1805.88 1097.18 1807.03 1089.06 1807.03 1080.55Z" fill="#212332"/>
<path d="M1802.52 1026.89C1786.09 1026.89 1772.2 1051.92 1772.2 1081.55C1772.2 1111.18 1786.08 1136.21 1802.52 1136.21C1818.96 1136.21 1832.84 1111.18 1832.84 1081.55C1832.84 1051.92 1818.96 1026.89 1802.52 1026.89Z" fill="#4A4D63"/>
<path d="M1860.33 931.59L1723.89 1253.55L1732.01 1256.99L1867.07 938.29C1864.96 935.91 1862.7 933.66 1860.32 931.59H1860.33Z" fill="#4A4D63"/>
<path d="M1796.63 907.67L1795.4 1257.34L1804.22 1257.37L1805.44 911.23C1802.58 909.85 1799.62 908.66 1796.63 907.67Z" fill="#4A4D63"/>
<path d="M1686.85 1177.26C1687.31 1178.29 1687.75 1179.32 1688.18 1180.35L1898.74 1012.25C1898.52 1011.07 1898.32 1009.88 1898.13 1008.68C1897.81 1006.57 1897.56 1004.27 1897.24 1001.95L1684.33 1171.92C1685.22 1173.68 1686.05 1175.47 1686.84 1177.25L1686.85 1177.26Z" fill="#4A4D63"/>
<path d="M1905.9 1059.99L1681.95 1100.87C1681.9 1102.85 1681.78 1104.82 1681.64 1106.75C1681.56 1107.87 1681.46 1108.99 1681.35 1110.1L1905.54 1069.18C1905.64 1066.12 1905.79 1063.05 1905.91 1059.99H1905.9Z" fill="#4A4D63"/>
<path d="M1761.23 914.27L1844.8 1246.58L1836.21 1249.23L1753.49 920.3C1755.98 918.17 1758.56 916.16 1761.23 914.27Z" fill="#4A4D63"/>
<path d="M1884.34 1179.91L1703.03 949.17C1701.36 951.98 1699.83 954.88 1698.42 957.83L1880.48 1189.52C1881.85 1186.35 1883.15 1183.15 1884.35 1179.91H1884.34Z" fill="#4A4D63"/>
<path d="M1683.58 1037.64L1680.6 1046.49L1908.19 1123.31L1911.18 1114.46L1683.58 1037.64Z" fill="#4A4D63"/>
<path d="M1791.72 1291.48C1755.48 1291.48 1722.01 1268.71 1697.48 1227.37C1674.56 1188.73 1661.93 1137.72 1661.93 1083.76C1661.93 1029.8 1674.55 978.79 1697.48 940.15C1722.01 898.81 1755.47 876.04 1791.72 876.04C1827.97 876.04 1861.43 898.81 1885.96 940.15C1908.88 978.79 1921.51 1029.8 1921.51 1083.76C1921.51 1137.72 1908.89 1188.73 1885.96 1227.37C1861.43 1268.71 1827.97 1291.48 1791.72 1291.48ZM1791.72 913.4C1740.5 913.4 1697.23 991.41 1697.23 1083.75C1697.23 1176.09 1740.5 1254.1 1791.72 1254.1C1842.94 1254.1 1886.21 1176.09 1886.21 1083.75C1886.21 991.41 1842.94 913.4 1791.72 913.4Z" fill="#4A4D63"/>
<path d="M1920.68 1059.84C1917.67 1016.95 1906.56 976.92 1888.61 944.77C1887.75 943.21 1886.87 941.65 1885.96 940.13C1861.43 898.79 1827.98 876.02 1791.73 876.02C1790.27 876.02 1788.82 876.06 1787.37 876.14C1779.14 876.55 1771.06 878.15 1763.23 880.88C1744.75 887.3 1727.57 900 1712.62 918.33C1707.29 924.88 1702.22 932.17 1697.5 940.13C1696.59 941.66 1695.7 943.21 1694.85 944.77C1673.6 982.83 1661.95 1031.93 1661.95 1083.74C1661.95 1135.55 1674.58 1188.71 1697.51 1227.35C1702.23 1235.31 1707.29 1242.6 1712.63 1249.16C1727.58 1267.48 1744.76 1280.18 1763.24 1286.6C1772.46 1289.82 1782 1291.46 1791.74 1291.46C1827.99 1291.46 1861.44 1268.7 1885.97 1227.35C1904.86 1195.51 1916.76 1155.27 1920.36 1111.91C1921.14 1102.65 1921.53 1093.24 1921.53 1083.74C1921.53 1075.7 1921.25 1067.72 1920.7 1059.84H1920.68ZM1813.83 1249.17C1806.71 1252.39 1799.3 1254.09 1791.72 1254.09C1781.83 1254.09 1772.26 1251.19 1763.22 1245.82C1725.42 1223.46 1697.24 1158.28 1697.24 1083.74C1697.24 1027.14 1713.5 975.93 1737.87 944.77C1745.59 934.9 1754.13 927.04 1763.22 921.66C1772.26 916.3 1781.84 913.39 1791.72 913.39C1799.3 913.39 1806.71 915.11 1813.83 918.33C1825.33 923.51 1836.08 932.61 1845.58 944.77C1869.97 975.93 1886.21 1027.14 1886.21 1083.74C1886.21 1162.42 1854.81 1230.69 1813.83 1249.16V1249.17ZM1737.63 913.51C1731.54 924.6 1723.88 934.6 1716.45 944.77H1737.86C1745.58 934.9 1754.12 927.04 1763.21 921.66C1755.07 916.83 1746.48 914.02 1737.63 913.5V913.51Z" fill="#4A4D63"/>
<path d="M1885.95 940.13C1861.42 898.79 1827.97 876.02 1791.72 876.02C1790.26 876.02 1788.81 876.06 1787.36 876.14C1777.33 873.23 1744.25 876.02 1734.71 876.02C1698.46 876.02 1664.99 898.79 1640.48 940.13C1639.57 941.66 1638.68 943.21 1637.83 944.77H1737.87C1745.59 934.9 1754.13 927.04 1763.22 921.66C1772.26 916.3 1781.84 913.39 1791.72 913.39C1799.3 913.39 1806.71 915.11 1813.83 918.33C1825.33 923.51 1836.08 932.61 1845.58 944.77H1888.61C1887.75 943.21 1886.87 941.65 1885.96 940.13H1885.95Z" fill="#383C52"/>
<path d="M1785.64 871.96C1778.65 871.96 1771.76 872.79 1765.02 874.42C1765.24 873.63 1765.44 872.84 1765.61 872.04C1764.45 871.99 1763.28 871.97 1762.11 871.97C1725.13 871.97 1691.05 895.12 1666.15 937.14C1643.02 976.16 1630.28 1027.61 1630.28 1082C1630.28 1136.41 1643.01 1187.86 1666.13 1226.86C1677.99 1246.88 1691.93 1262.6 1707.28 1273.59C1708.33 1273.45 1709.38 1273.3 1710.44 1273.16C1710.6 1273.21 1710.78 1273.24 1710.97 1273.24C1717.35 1273.37 1723.72 1273.3 1730.1 1273.06C1730.34 1273.23 1730.57 1273.42 1730.81 1273.59C1732.9 1273.31 1735 1273.03 1737.09 1272.73C1735.56 1271.74 1734.05 1270.68 1732.55 1269.59C1732.31 1269.2 1731.95 1268.9 1731.45 1268.79C1717.22 1258.2 1704.24 1243.34 1693.12 1224.57C1670.4 1186.24 1657.89 1135.61 1657.89 1082C1657.89 1028.41 1670.41 977.78 1693.14 939.43C1717.27 898.71 1750.13 876.28 1785.66 876.28C1786.44 876.28 1787.22 876.31 1788 876.33C1788.45 874.92 1788.85 873.49 1789.16 872.04C1788 871.99 1786.83 871.97 1785.66 871.97L1785.64 871.96Z" fill="#212332"/>
<path d="M2121.61 1084.83C2121.61 1076.33 2120.46 1068.2 2118.44 1060.94V1030.16H2090.68V1030.2C2074.52 1030.81 2060.97 1055.57 2060.97 1084.83C2060.97 1114.09 2074.51 1138.84 2090.68 1139.46V1139.5H2118.44V1108.72C2120.46 1101.46 2121.61 1093.34 2121.61 1084.83Z" fill="#212332"/>
<path d="M2117.11 1031.17C2100.68 1031.17 2086.79 1056.2 2086.79 1085.83C2086.79 1115.46 2100.67 1140.49 2117.11 1140.49C2133.55 1140.49 2147.43 1115.46 2147.43 1085.83C2147.43 1056.2 2133.55 1031.17 2117.11 1031.17Z" fill="#4A4D63"/>
<path d="M2174.91 935.86L2038.47 1257.82L2046.59 1261.26L2181.65 942.56C2179.54 940.18 2177.28 937.93 2174.9 935.86H2174.91Z" fill="#4A4D63"/>
<path d="M2111.21 911.95L2109.98 1261.62L2118.8 1261.65L2120.02 915.51C2117.16 914.13 2114.2 912.94 2111.21 911.95Z" fill="#4A4D63"/>
<path d="M2001.43 1181.54C2001.89 1182.57 2002.33 1183.6 2002.76 1184.63L2213.32 1016.53C2213.1 1015.35 2212.9 1014.16 2212.71 1012.96C2212.39 1010.85 2212.14 1008.55 2211.82 1006.23L1998.91 1176.2C1999.8 1177.96 2000.63 1179.75 2001.42 1181.53L2001.43 1181.54Z" fill="#4A4D63"/>
<path d="M2220.48 1064.26L1996.53 1105.14C1996.48 1107.12 1996.36 1109.09 1996.22 1111.02C1996.14 1112.14 1996.04 1113.26 1995.93 1114.37L2220.12 1073.45C2220.22 1070.39 2220.37 1067.32 2220.49 1064.26H2220.48Z" fill="#4A4D63"/>
<path d="M2075.81 918.55L2159.38 1250.86L2150.79 1253.51L2068.07 924.58C2070.56 922.45 2073.14 920.44 2075.81 918.55Z" fill="#4A4D63"/>
<path d="M2198.93 1184.18L2017.62 953.44C2015.95 956.25 2014.42 959.15 2013.01 962.11L2195.07 1193.8C2196.44 1190.63 2197.74 1187.43 2198.94 1184.19L2198.93 1184.18Z" fill="#4A4D63"/>
<path d="M1998.15 1041.9L1995.16 1050.75L2222.76 1127.57L2225.74 1118.72L1998.15 1041.9Z" fill="#4A4D63"/>
<path d="M2106.3 1295.75C2070.06 1295.75 2036.59 1272.98 2012.06 1231.64C1989.14 1193 1976.51 1141.99 1976.51 1088.03C1976.51 1034.07 1989.13 983.06 2012.06 944.42C2036.59 903.08 2070.05 880.31 2106.3 880.31C2142.55 880.31 2176.01 903.08 2200.54 944.42C2223.46 983.06 2236.09 1034.07 2236.09 1088.03C2236.09 1141.99 2223.47 1193 2200.54 1231.64C2176.01 1272.98 2142.55 1295.75 2106.3 1295.75ZM2106.3 917.68C2055.08 917.68 2011.81 995.69 2011.81 1088.03C2011.81 1180.37 2055.08 1258.38 2106.3 1258.38C2157.52 1258.38 2200.79 1180.37 2200.79 1088.03C2200.79 995.69 2157.52 917.68 2106.3 917.68Z" fill="#4A4D63"/>
<path d="M2225.89 1006.49C2219.94 983.85 2211.49 962.96 2200.74 944.77C2200.68 944.65 2200.6 944.53 2200.53 944.41C2176 903.06 2142.53 880.3 2106.28 880.3C2104.83 880.3 2103.39 880.34 2101.96 880.42C2093.72 880.82 2085.62 882.41 2077.78 885.16C2059.3 891.58 2042.12 904.28 2027.18 922.6C2021.85 929.15 2016.78 936.45 2012.05 944.41C2011.99 944.53 2011.91 944.65 2011.84 944.77C1989.04 983.37 1976.5 1034.23 1976.5 1088.01C1976.5 1141.79 1989.12 1192.99 2012.04 1231.62C2016.77 1239.58 2021.84 1246.88 2027.17 1253.43C2042.11 1271.75 2059.29 1284.45 2077.77 1290.87C2086.99 1294.09 2096.53 1295.73 2106.27 1295.73C2142.52 1295.73 2175.99 1272.98 2200.52 1231.62C2212.16 1212 2221.14 1189.19 2227.17 1164.43C2233.02 1140.41 2236.07 1114.58 2236.07 1088.01C2236.07 1059.56 2232.56 1031.92 2225.88 1006.48L2225.89 1006.49ZM2128.4 1253.44C2121.28 1256.66 2113.87 1258.36 2106.29 1258.36C2096.42 1258.36 2086.83 1255.46 2077.79 1250.1C2039.99 1227.72 2011.8 1162.55 2011.8 1088.01C2011.8 1028.74 2029.62 975.38 2055.95 944.77C2062.72 936.88 2070.05 930.51 2077.79 925.93C2086.83 920.57 2096.42 917.67 2106.29 917.67C2113.87 917.67 2121.28 919.38 2128.4 922.59C2138.5 927.15 2148.03 934.73 2156.64 944.76C2182.96 975.37 2200.8 1028.74 2200.8 1088C2200.8 1166.68 2169.38 1234.95 2128.4 1253.42V1253.44ZM2052.21 917.78C2046.98 927.32 2040.58 936.04 2034.17 944.77H2055.96C2062.73 936.88 2070.06 930.51 2077.8 925.93C2069.66 921.1 2061.07 918.29 2052.22 917.77L2052.21 917.78Z" fill="#4A4D63"/>
<path d="M2200.54 944.41C2176.01 903.06 2142.54 880.3 2106.29 880.3C2104.84 880.3 2103.4 880.34 2101.97 880.42C2091.96 877.5 2058.83 880.3 2049.28 880.3C2013.03 880.3 1979.56 903.06 1955.05 944.41C1954.97 944.53 1954.91 944.65 1954.84 944.77H2055.95C2062.72 936.88 2070.05 930.51 2077.79 925.93C2086.83 920.57 2096.42 917.67 2106.29 917.67C2113.87 917.67 2121.28 919.38 2128.4 922.59C2138.5 927.15 2148.03 934.73 2156.64 944.76H2200.75C2200.69 944.64 2200.61 944.52 2200.54 944.4V944.41Z" fill="#383C52"/>
<path d="M2228.06 1167.65C2227.28 1164.84 2226.55 1162.02 2225.85 1159.16C2235.47 1109.25 2233.85 1057.67 2225.7 1007.26C2226.43 1004.2 2227.21 1001.16 2228.06 998.14C2237.95 1054.28 2240.1 1112.09 2228.06 1167.64V1167.65Z" fill="#212332"/>
<path d="M2100.22 876.23C2093.23 876.23 2086.34 877.06 2079.6 878.69C2079.82 877.9 2080.02 877.11 2080.19 876.31C2079.03 876.26 2077.86 876.24 2076.69 876.24C2039.71 876.24 2005.63 899.39 1980.73 941.41C1957.6 980.43 1944.86 1031.88 1944.86 1086.27C1944.86 1140.68 1957.59 1192.13 1980.71 1231.13C1992.57 1251.15 2006.51 1266.87 2021.86 1277.86C2022.91 1277.72 2023.96 1277.57 2025.02 1277.43C2025.18 1277.48 2025.36 1277.51 2025.55 1277.51C2031.93 1277.64 2038.3 1277.57 2044.68 1277.33C2044.92 1277.5 2045.15 1277.69 2045.39 1277.86C2047.48 1277.58 2049.58 1277.3 2051.67 1277C2050.14 1276.01 2048.63 1274.95 2047.13 1273.86C2046.89 1273.47 2046.53 1273.17 2046.03 1273.06C2031.8 1262.47 2018.82 1247.61 2007.7 1228.84C1984.98 1190.51 1972.47 1139.88 1972.47 1086.27C1972.47 1032.68 1984.99 982.05 2007.72 943.7C2031.85 902.98 2064.71 880.55 2100.24 880.55C2101.02 880.55 2101.8 880.58 2102.58 880.6C2103.03 879.19 2103.43 877.76 2103.74 876.31C2102.57 876.26 2101.41 876.24 2100.24 876.24L2100.22 876.23Z" fill="#212332"/>
<path d="M381.52 1020.92C396.746 1020.92 409.09 997.567 409.09 968.76C409.09 939.953 396.746 916.6 381.52 916.6C366.293 916.6 353.95 939.953 353.95 968.76C353.95 997.567 366.293 1020.92 381.52 1020.92Z" fill="#4D516B"/>
<path d="M458.45 1011.3C444.84 1011.3 433.77 992.89 433.77 970.27C433.77 947.65 444.84 929.24 458.45 929.24C472.06 929.24 483.13 947.65 483.13 970.27C483.13 992.89 472.06 1011.3 458.45 1011.3ZM458.45 931.8C446.25 931.8 436.33 949.06 436.33 970.27C436.33 991.48 446.25 1008.74 458.45 1008.74C470.65 1008.74 480.57 991.48 480.57 970.27C480.57 949.06 470.65 931.8 458.45 931.8Z" fill="#4D516B"/>
<path d="M372.33 952.31H452.65C461.16 952.31 468.07 959.22 468.07 967.73V971.94C468.07 980.45 461.16 987.36 452.65 987.36H372.33V952.31Z" fill="#4D516B"/>
<path d="M244.31 1015.79C259.536 1015.79 271.88 992.437 271.88 963.63C271.88 934.823 259.536 911.47 244.31 911.47C229.083 911.47 216.74 934.823 216.74 963.63C216.74 992.437 229.083 1015.79 244.31 1015.79Z" fill="#4D516B"/>
<path d="M321.25 1006.17C307.64 1006.17 296.57 987.76 296.57 965.14C296.57 942.52 307.64 924.11 321.25 924.11C334.86 924.11 345.93 942.52 345.93 965.14C345.93 987.76 334.86 1006.17 321.25 1006.17ZM321.25 926.67C309.05 926.67 299.13 943.93 299.13 965.14C299.13 986.35 309.05 1003.61 321.25 1003.61C333.45 1003.61 343.37 986.35 343.37 965.14C343.37 943.93 333.45 926.67 321.25 926.67Z" fill="#4D516B"/>
<path d="M235.12 947.18H315.44C323.95 947.18 330.86 954.09 330.86 962.6V966.81C330.86 975.32 323.95 982.23 315.44 982.23H235.12V947.18Z" fill="#4D516B"/>
<path d="M1039.76 579.03C1030.51 583.04 1025.04 592.68 1026.33 602.67L1059.84 861.59H1105.36L1071.17 596.88C1069.24 581.97 1053.57 573.06 1039.77 579.04L1039.76 579.03Z" fill="#4D516B"/>
<path d="M2217.93 335.76V847.11C2217.93 849.74 2214.08 849.74 2214.08 847.11V335.76C2214.08 333.13 2217.93 333.13 2217.93 335.76Z" fill="#4D516B"/>
<path d="M3347.86 1270.25C3313.62 1270.25 3282.01 1249.94 3258.84 1213.06C3237.19 1178.59 3225.26 1133.1 3225.26 1084.96C3225.26 1036.82 3237.19 991.33 3258.84 956.86C3282.01 919.98 3313.62 899.67 3347.86 899.67C3382.1 899.67 3413.71 919.98 3436.88 956.86C3458.53 991.33 3470.46 1036.82 3470.46 1084.96C3470.46 1133.1 3458.53 1178.59 3436.88 1213.06C3413.71 1249.94 3382.1 1270.25 3347.86 1270.25ZM3347.86 933.02C3299.48 933.02 3258.6 1002.6 3258.6 1084.97C3258.6 1167.34 3299.47 1236.92 3347.86 1236.92C3396.25 1236.92 3437.12 1167.34 3437.12 1084.97C3437.12 1002.6 3396.25 933.02 3347.86 933.02Z" fill="#4A4D63"/>
<path d="M3436.88 956.86C3413.71 919.98 3382.1 899.67 3347.87 899.67C3338.66 899.67 3329.65 901.13 3320.94 904C3303.49 909.73 3287.26 921.05 3273.14 937.4C3268.1 943.25 3263.32 949.75 3258.86 956.85C3237.2 991.33 3225.28 1036.82 3225.28 1084.95C3225.28 1133.08 3237.2 1178.58 3258.86 1213.05C3263.32 1220.15 3268.11 1226.65 3273.14 1232.5C3287.26 1248.85 3303.49 1260.17 3320.94 1265.9C3329.65 1268.77 3338.66 1270.23 3347.87 1270.23C3382.11 1270.23 3413.71 1249.93 3436.88 1213.04C3458.54 1178.57 3470.46 1133.08 3470.46 1084.94C3470.46 1036.8 3458.53 991.32 3436.88 956.84V956.86ZM3368.74 1232.51C3362.02 1235.38 3355.02 1236.91 3347.86 1236.91C3338.53 1236.91 3329.47 1234.32 3320.93 1229.54C3285.22 1209.59 3258.6 1151.45 3258.6 1084.97C3258.6 1018.49 3285.22 960.35 3320.93 940.4C3329.47 935.62 3338.52 933.03 3347.86 933.03C3355.02 933.03 3362.02 934.56 3368.74 937.43C3407.45 953.91 3437.12 1014.8 3437.12 1084.98C3437.12 1155.16 3407.45 1216.05 3368.74 1232.53V1232.51Z" fill="#4A4D63"/>
<path d="M3353.85 913.14H3345.52V1251.02H3353.85V913.14Z" fill="#4A4D63"/>
<path d="M3426.56 962.84L3258.85 1209.11L3265.74 1213.8L3431.67 970.15C3430.08 967.64 3428.38 965.2 3426.56 962.84Z" fill="#4A4D63"/>
<path d="M3269.08 962.84L3436.79 1209.11L3429.9 1213.8L3263.97 970.15C3265.56 967.64 3267.26 965.2 3269.08 962.84Z" fill="#4A4D63"/>
<path d="M3456.38 1078.55H3229.48V1086.88H3456.38V1078.55Z" fill="#4A4D63"/>
<path d="M3338.89 895.67C3332.29 895.67 3325.79 896.41 3319.43 897.86C3319.63 897.16 3319.82 896.45 3319.97 895.73C3318.87 895.69 3317.77 895.66 3316.66 895.66C3281.73 895.66 3249.72 916.33 3226.54 953.85C3205.01 988.69 3193.38 1034.63 3193.82 1083.2C3194.25 1131.78 3206.7 1177.72 3228.85 1212.55C3240.21 1230.42 3253.51 1244.46 3268.09 1254.28C3269.08 1254.15 3270.07 1254.02 3271.07 1253.89C3271.23 1253.93 3271.39 1253.96 3271.57 1253.96C3277.6 1254.07 3283.62 1254.02 3289.64 1253.8C3289.87 1253.95 3290.09 1254.12 3290.32 1254.27C3292.29 1254.02 3294.27 1253.77 3296.24 1253.5C3294.79 1252.61 3293.35 1251.67 3291.92 1250.69C3291.69 1250.34 3291.35 1250.07 3290.87 1249.98C3277.34 1240.52 3264.96 1227.25 3254.31 1210.49C3232.54 1176.27 3220.31 1131.06 3219.88 1083.19C3219.45 1035.33 3230.87 990.12 3252.03 955.89C3274.5 919.53 3305.35 899.5 3338.91 899.5C3339.65 899.5 3340.38 899.52 3341.12 899.54C3341.54 898.28 3341.9 897 3342.18 895.71C3341.08 895.67 3339.98 895.64 3338.87 895.64L3338.89 895.67Z" fill="#212332"/>
<path d="M3646.63 1266.83C3612.39 1266.83 3580.78 1246.52 3557.61 1209.64C3535.96 1175.17 3524.03 1129.68 3524.03 1081.54C3524.03 1033.4 3535.96 987.91 3557.61 953.44C3580.78 916.56 3612.39 896.25 3646.63 896.25C3680.87 896.25 3712.48 916.56 3735.65 953.44C3757.3 987.91 3769.23 1033.4 3769.23 1081.54C3769.23 1129.68 3757.3 1175.17 3735.65 1209.64C3712.48 1246.52 3680.87 1266.83 3646.63 1266.83ZM3646.63 929.6C3598.25 929.6 3557.37 999.18 3557.37 1081.55C3557.37 1163.92 3598.24 1233.5 3646.63 1233.5C3695.02 1233.5 3735.89 1163.92 3735.89 1081.55C3735.89 999.18 3695.02 929.6 3646.63 929.6Z" fill="#4A4D63"/>
<path d="M3735.65 953.44C3712.48 916.56 3680.87 896.25 3646.64 896.25C3637.43 896.25 3628.42 897.71 3619.71 900.58C3602.26 906.31 3586.03 917.63 3571.91 933.98C3566.87 939.83 3562.09 946.33 3557.63 953.43C3535.97 987.91 3524.05 1033.4 3524.05 1081.53C3524.05 1129.66 3535.98 1175.16 3557.63 1209.63C3562.09 1216.73 3566.88 1223.23 3571.91 1229.08C3586.03 1245.43 3602.26 1256.75 3619.71 1262.48C3628.42 1265.35 3637.43 1266.81 3646.64 1266.81C3680.88 1266.81 3712.48 1246.51 3735.65 1209.62C3757.31 1175.15 3769.23 1129.66 3769.23 1081.52C3769.23 1033.38 3757.31 987.9 3735.65 953.42V953.44ZM3667.51 1229.09C3660.79 1231.96 3653.79 1233.49 3646.63 1233.49C3637.3 1233.49 3628.24 1230.9 3619.7 1226.12C3583.99 1206.17 3557.37 1148.03 3557.37 1081.55C3557.37 1015.07 3583.99 956.93 3619.7 936.98C3628.24 932.2 3637.29 929.61 3646.63 929.61C3653.79 929.61 3660.79 931.14 3667.51 934.01C3706.22 950.49 3735.89 1011.38 3735.89 1081.56C3735.89 1151.74 3706.22 1212.63 3667.51 1229.11V1229.09Z" fill="#4A4D63"/>
<path d="M3652.62 909.72H3644.29V1247.6H3652.62V909.72Z" fill="#4A4D63"/>
<path d="M3725.32 959.42L3557.61 1205.69L3564.5 1210.38L3730.43 966.73C3728.84 964.22 3727.14 961.78 3725.32 959.42Z" fill="#4A4D63"/>
<path d="M3567.85 959.42L3735.56 1205.69L3728.67 1210.38L3562.74 966.73C3564.33 964.22 3566.03 961.78 3567.85 959.42Z" fill="#4A4D63"/>
<path d="M3755.14 1075.13H3528.24V1083.46H3755.14V1075.13Z" fill="#4A4D63"/>
<path d="M3637.66 892.25C3631.06 892.25 3624.56 892.99 3618.2 894.44C3618.4 893.74 3618.59 893.03 3618.74 892.31C3617.64 892.27 3616.54 892.24 3615.43 892.24C3580.5 892.24 3548.49 912.91 3525.31 950.43C3503.78 985.27 3492.15 1031.21 3492.59 1079.78C3493.02 1128.36 3505.47 1174.3 3527.62 1209.13C3538.98 1227 3552.28 1241.04 3566.86 1250.86C3567.85 1250.73 3568.84 1250.6 3569.84 1250.47C3570 1250.51 3570.16 1250.54 3570.34 1250.54C3576.37 1250.65 3582.39 1250.6 3588.41 1250.38C3588.64 1250.53 3588.86 1250.7 3589.09 1250.85C3591.06 1250.6 3593.04 1250.35 3595.01 1250.08C3593.56 1249.19 3592.12 1248.25 3590.69 1247.27C3590.46 1246.92 3590.12 1246.65 3589.64 1246.56C3576.11 1237.1 3563.73 1223.83 3553.08 1207.07C3531.31 1172.85 3519.08 1127.64 3518.65 1079.77C3518.22 1031.91 3529.64 986.7 3550.8 952.47C3573.27 916.11 3604.12 896.08 3637.68 896.08C3638.42 896.08 3639.15 896.1 3639.89 896.12C3640.31 894.86 3640.67 893.58 3640.95 892.29C3639.85 892.25 3638.75 892.22 3637.64 892.22L3637.66 892.25Z" fill="#212332"/>
<path d="M937.7 541.78C937.7 593.71 930.69 644.04 917.4 687.33C908.89 715.08 897.68 739.7 885.15 758.98V835.22L881.3 835.18V757.8C882.61 755.84 883.89 753.82 885.15 751.75C915.36 702.27 933.85 624.77 933.85 541.78C933.85 444.43 909.18 358.8 872.48 311.96C872.26 311.68 864.35 301.24 854.67 292.38C845.69 284.15 834.9 277.46 834.69 277.21L839.6 277.25C839.77 277.47 849.75 283.42 858.24 291.19C868.24 300.35 876.99 311.55 877.18 311.81C885.51 322.83 893.3 335.94 900.38 351.01C924.45 402.18 937.69 469.93 937.69 541.8L937.7 541.78Z" fill="#4D516B"/>
<path d="M3038.15 430.68L3028.34 884.94H2912.94L2922.83 434.03L3038.15 430.68Z" fill="#52281D"/>
<path d="M2411.34 1164.03H2115.84V1204.42H2411.34V1164.03Z" fill="#656880"/>
<path d="M2149.43 1177.35L2094.29 1203.31L2096.61 1100.49L2096.18 1096.37L2093.58 1071.92L2132.29 1060.41L2134.72 1083.26L2135.3 1088.76L2149.43 1177.35Z" fill="#656880"/>
<path d="M2103.59 1164.88V1205.28L2093.56 1202.81L2089.49 1201.81L1539.18 1065.15L1518.35 1059.97L1424.31 1036.62L1424.63 1011.94L1518.35 1033.02L1539.18 1037.7L2091.59 1161.94L2095.33 1162.86L2103.59 1164.88Z" fill="#656880"/>
<path d="M2105.19 1076.05L1425.27 961.93L1435.77 937.22L2109.36 1027.96L2105.19 1076.05Z" fill="#656880"/>
<path d="M2122.23 1140.77C2105.8 1140.77 2091.91 1161.4 2091.91 1185.82C2091.91 1210.24 2105.79 1230.87 2122.23 1230.87C2138.67 1230.87 2152.55 1210.24 2152.55 1185.82C2152.55 1161.4 2138.67 1140.77 2122.23 1140.77Z" fill="#656880"/>
<path d="M2110.05 1011.26C2104.09 1011.26 2098.46 1013.98 2093.71 1018.61C2092.95 1019.34 2092.24 1020.11 2091.53 1020.93C2091.31 1021.19 2091.08 1021.47 2090.86 1021.74C2090.14 1022.61 2089.46 1023.55 2088.82 1024.51C2083.23 1032.73 2079.73 1044.05 2079.73 1056.32C2079.73 1062.04 2080.49 1067.54 2081.86 1072.63C2082.23 1074 2082.64 1075.34 2083.1 1076.64C2083.39 1077.5 2083.72 1078.33 2084.05 1079.15C2084.56 1080.39 2085.1 1081.61 2085.69 1082.78C2091.27 1093.97 2100.19 1101.37 2110.04 1101.37C2126.48 1101.37 2140.35 1080.74 2140.35 1056.31C2140.35 1031.88 2126.48 1011.25 2110.04 1011.25L2110.05 1011.26Z" fill="#656880"/>
<path d="M2415.87 1137.6C2399.44 1137.6 2385.55 1158.23 2385.55 1182.65C2385.55 1207.07 2399.43 1227.7 2415.87 1227.7C2432.31 1227.7 2446.19 1207.07 2446.19 1182.65C2446.19 1158.23 2432.31 1137.6 2415.87 1137.6Z" fill="#656880"/>
<path d="M2416.56 1155.07C2407.58 1155.07 2399.98 1167.89 2399.98 1183.05C2399.98 1198.21 2407.57 1211.03 2416.56 1211.03C2425.55 1211.03 2433.14 1198.22 2433.14 1183.05C2433.14 1167.88 2425.55 1155.07 2416.56 1155.07Z" fill="#212332"/>
<path d="M2093.56 1202.81L2089.48 1201.81C2087.36 1188.55 2088.07 1175.02 2091.58 1161.93L2095.32 1162.85C2091.79 1176.01 2091.2 1189.53 2093.55 1202.81H2093.56Z" fill="#212332"/>
<path d="M2153.65 1204.42H2149.73C2152.22 1190.97 2152.15 1177.15 2148.52 1164.03H2152.48C2155.93 1177.17 2156.03 1190.96 2153.65 1204.42Z" fill="#212332"/>
<path d="M2120.4 1031.84C2115.99 1026.35 2109.71 1022.92 2102.7 1022.15L2091.53 1020.93C2091.31 1021.19 2091.08 1021.47 2090.86 1021.74C2090.14 1022.61 2089.46 1023.55 2088.82 1024.51L2102.28 1025.97C2108.26 1026.62 2113.63 1029.57 2117.38 1034.25C2121.15 1038.94 2122.87 1044.82 2122.21 1050.8L2121.83 1054.34C2121.18 1060.33 2118.23 1065.69 2113.55 1069.46C2108.86 1073.23 2102.98 1074.94 2097 1074.28L2081.86 1072.63C2082.23 1074 2082.64 1075.34 2083.1 1076.64L2096.59 1078.11C2097.56 1078.21 2098.54 1078.26 2099.5 1078.26C2105.48 1078.26 2111.23 1076.25 2115.96 1072.45C2121.45 1068.04 2124.88 1061.76 2125.65 1054.75L2126.03 1051.2C2126.8 1044.2 2124.79 1037.33 2120.38 1031.83L2120.4 1031.84Z" fill="#212332"/>
<path d="M3895.55 893.33V897.19L3729.07 895.47L3725.21 895.42L3554.61 893.66L3550.75 893.62L3378.1 891.83L3374.25 891.79L3203.64 890.02L3199.78 889.98L2912.12 887.01V883.15L2917.47 883.2L3199.87 886.12L3203.73 886.16L3374.34 887.93L3378.19 887.97L3550.84 889.76L3554.7 889.8L3725.3 891.56L3729.16 891.61L3895.55 893.33Z" fill="#212332"/>
<path d="M3214.32 435.32L3203.73 886.16L3203.64 890.02L3199.78 889.98L3199.87 886.12L3210.48 435.23L3214.32 435.32Z" fill="#52281D"/>
<path d="M3388.73 439.92L3378.19 887.97L3378.1 891.83L3374.25 891.79L3374.34 887.93L3384.88 439.82L3388.73 439.92Z" fill="#52281D"/>
<path d="M3565.16 444.57L3554.7 889.8L3554.61 893.66L3550.75 893.62L3550.84 889.76L3561.3 444.47L3565.16 444.57Z" fill="#52281D"/>
<path d="M3739.56 449.18L3729.16 891.61L3729.07 895.47L3725.21 895.42L3725.3 891.56L3735.7 449.08L3739.56 449.18Z" fill="#52281D"/>
<path d="M3623.33 1059.47L3652.78 994.13L3666.55 963.59C3668.9 958.39 3675.32 956.52 3680.1 959.63C3697.2 970.79 3714.29 981.94 3731.4 993.12C3729.94 996.38 3728.45 999.69 3726.96 1003.02C3723.34 1011.06 3719.65 1019.29 3715.89 1027.67C3710.79 1039.09 3705.54 1050.73 3700.31 1062.39C3691.95 1081.02 3683.58 1099.65 3675.59 1117.48C3675.01 1118.79 3674.42 1120.1 3673.83 1121.39C3673.8 1121.45 3673.79 1121.51 3673.77 1121.57L3621.95 1121.69V1062.53L3623.32 1059.49L3623.33 1059.47Z" fill="#656880"/>
<path d="M3675.4 1104.51C3677.25 1104.27 3679.26 1104 3681.43 1103.7C3682.85 1103.51 3684.33 1103.3 3685.87 1103.08C3697.69 1101.46 3712.54 1099.38 3725.97 1097.5C3741.09 1095.39 3751.77 1081.62 3750.04 1066.45L3744.1 1014.19L3742.54 1000.37C3738.82 997.95 3735.12 995.52 3731.4 993.1C3723.95 988.24 3716.51 983.37 3709.08 978.52L3692.74 980.66L3682.89 981.96L3675.4 1104.51Z" fill="#656880"/>
<path d="M3681.43 1103.71C3682.85 1103.52 3684.33 1103.31 3685.87 1103.09L3730.27 1005.18L3734.76 995.31C3733.68 994.6 3732.62 993.91 3731.54 993.21L3727.06 1003.08L3681.42 1103.71H3681.43Z" fill="#212332"/>
<path d="M3700.3 1062.5C3691.29 1082.52 3682.28 1102.56 3673.74 1121.57L3316.98 1120.82L3290.69 1062.44H3365.88L3621.93 1062.48L3700.3 1062.5Z" fill="#656880"/>
<path d="M3367.26 1058.56L3337.81 993.22L3324.04 962.68C3321.69 957.48 3315.27 955.61 3310.49 958.72C3293.39 969.88 3276.3 981.03 3259.19 992.21C3260.65 995.47 3262.14 998.78 3263.63 1002.11C3267.25 1010.15 3270.94 1018.38 3274.7 1026.76C3279.8 1038.18 3285.05 1049.82 3290.28 1061.48C3298.64 1080.11 3307.01 1098.74 3315 1116.57C3315.58 1117.88 3316.17 1119.19 3316.76 1120.48C3316.79 1120.54 3316.8 1120.6 3316.82 1120.66L3368.64 1120.78V1061.62L3367.27 1058.58L3367.26 1058.56Z" fill="#656880"/>
<path d="M3315.18 1103.61C3313.33 1103.37 3311.32 1103.1 3309.15 1102.8C3307.73 1102.61 3306.25 1102.4 3304.71 1102.18C3292.89 1100.56 3278.04 1098.48 3264.61 1096.6C3249.49 1094.49 3238.81 1080.72 3240.54 1065.55L3246.48 1013.29L3248.04 999.47C3251.76 997.05 3255.46 994.62 3259.18 992.2C3266.63 987.34 3274.07 982.47 3281.5 977.62L3297.84 979.76L3307.69 981.06L3315.18 1103.61Z" fill="#656880"/>
<path d="M3368.63 1061.59V1062.88C3351.34 1082.07 3334.03 1101.28 3316.74 1120.47C3316.15 1119.18 3315.57 1117.87 3314.99 1116.56C3332.41 1097.22 3349.83 1077.9 3367.27 1058.56L3368.63 1061.59Z" fill="#212332"/>
<path d="M3621.97 1062.26V1063.55C3639.26 1082.35 3656.44 1102.79 3673.74 1121.59C3674.33 1120.28 3674.91 1118.96 3675.49 1117.64C3658.07 1098.69 3640.77 1078.14 3623.34 1059.2L3621.98 1062.27L3621.97 1062.26Z" fill="#212332"/>
<path d="M3335.09 1063.38C3325.15 1063.49 3325.13 1079.27 3335.09 1079.16C3345.03 1079.05 3345.05 1063.27 3335.09 1063.38Z" fill="#212332"/>
<path d="M3662.77 1060.15C3652.83 1060.26 3652.81 1076.04 3662.77 1075.93C3672.71 1075.82 3672.73 1060.04 3662.77 1060.15Z" fill="#212332"/>
<path d="M3309.16 1102.8C3307.74 1102.61 3306.26 1102.4 3304.72 1102.18L3260.32 1004.27L3255.83 994.4C3256.91 993.69 3257.97 993 3259.05 992.3L3263.52 1002.17L3309.16 1102.8Z" fill="#212332"/>
<path d="M1429.52 939.33L1428.19 1104.64L1428.1 1115.72L1428.05 1122.2C1427.96 1133.74 1418.59 1143.04 1407.05 1143.04H1398.01L1398.19 1122.2L1398.24 1115.49L1398.33 1104.23L1399.66 938.84C1399.66 938.33 1399.65 937.47 1399.67 936.96L1429.44 937.18C1429.48 937.85 1429.52 938.64 1429.52 939.33Z" fill="#656880"/>
<path d="M1428.1 1083.96L1427.84 1109.99L1417.93 1109.91L1397.97 1109.78L1251.25 1108.78C1245.77 1108.74 1240.84 1107.28 1237.26 1104.93C1233.68 1102.57 1231.48 1099.34 1231.48 1095.77C1231.48 1088.54 1240.55 1082.69 1251.66 1082.77L1398.24 1083.76H1398.33L1428.1 1083.95V1083.96Z" fill="#656880"/>
<path d="M1428.78 1013.01L1428.43 1035.66L1391.87 1035.45L1245.15 1034.58C1239.67 1034.55 1234.74 1033.27 1231.16 1031.23C1227.58 1029.18 1225.38 1026.37 1225.38 1023.26C1225.38 1016.97 1234.45 1011.87 1245.56 1011.94L1392.22 1012.8L1428.76 1013.01H1428.78Z" fill="#656880"/>
<path d="M1435.77 937.22L1435.42 959.71L1243.89 958.29C1238.41 958.26 1233.48 956.99 1229.9 954.96C1226.32 952.92 1224.12 950.13 1224.12 947.04C1224.12 940.79 1233.19 935.73 1244.3 935.8L1435.76 937.21L1435.77 937.22Z" fill="#656880"/>
<path d="M3035.79 200.27L3033.44 230.19L2985.99 229.65C2953.37 229.01 2926.58 255.27 2926.58 287.9V289.15L2645.34 283.61V192.57L3035.79 200.26V200.27Z" fill="#212332"/>
<path d="M1595.13 219.69H1610.16C1640.51 219.69 1665.15 244.33 1665.15 274.68V365.86H1540.14V274.68C1540.14 244.33 1564.78 219.69 1595.13 219.69Z" fill="#212332"/>
<path d="M1449.42 1022.84C1449.42 1034.05 1440.33 1043.14 1429.12 1043.14H1352.98V1002.54H1429.12C1440.33 1002.54 1449.42 1011.63 1449.42 1022.84Z" fill="#656880"/>
<path d="M1364.15 1022.81C1364.15 1030.29 1361.98 1036.81 1358.74 1040.36C1358.74 1040.37 1358.73 1040.37 1358.73 1040.39C1357.09 1042.17 1355.19 1043.2 1353.15 1043.2C1350.62 1043.2 1348.3 1041.62 1346.44 1038.97C1345.66 1037.87 1344.97 1036.57 1344.38 1035.12C1342.98 1031.7 1342.15 1027.44 1342.15 1022.81C1342.15 1018.99 1342.71 1015.41 1343.7 1012.36C1344.15 1010.96 1344.69 1009.67 1345.3 1008.51C1347.3 1004.75 1350.08 1002.42 1353.15 1002.42C1353.66 1002.42 1354.16 1002.48 1354.66 1002.61C1354.67 1002.61 1354.67 1002.62 1354.69 1002.62C1360.04 1003.99 1364.15 1012.51 1364.15 1022.8V1022.81Z" fill="#656880"/>
<path d="M1366.65 1023.58C1366.65 1031.5 1364.68 1038.49 1361.51 1043.13H1356.57C1357.34 1042.37 1358.06 1041.46 1358.72 1040.39C1358.72 1040.38 1358.73 1040.38 1358.73 1040.36C1359 1039.92 1359.26 1039.45 1359.5 1038.96H1346.43C1345.65 1037.86 1344.96 1036.56 1344.37 1035.11H1361.08C1362.16 1031.75 1362.8 1027.78 1362.8 1023.57C1362.8 1019.36 1362.2 1015.65 1361.17 1012.35H1343.69C1344.14 1010.95 1344.68 1009.66 1345.29 1008.5H1359.66C1358.3 1005.73 1356.58 1003.64 1354.67 1002.61C1354.66 1002.61 1354.66 1002.6 1354.64 1002.6C1354.6 1002.56 1354.55 1002.55 1354.51 1002.52H1360.34C1364.17 1007.08 1366.62 1014.74 1366.62 1023.56L1366.65 1023.58Z" fill="#212332"/>
<path d="M1539.18 936.24V1065.15L1518.36 1059.97V943.26C1518.36 936.14 1512.97 930.18 1505.9 929.45L1336.51 912.01C1328.32 911.16 1321.2 917.59 1321.2 925.82V1108.31C1321.2 1115.98 1327.42 1122.2 1335.09 1122.2H1428.05C1427.96 1133.74 1418.59 1143.04 1407.05 1143.04H1327.31C1312.44 1143.04 1300.38 1130.99 1300.38 1116.11V917.19C1300.38 901.23 1314.19 888.78 1330.06 890.4L1515.01 909.45C1528.74 910.86 1539.18 922.43 1539.18 936.24Z" fill="#656880"/>
<path d="M1319.17 886.92C1309.47 886.92 1301.22 895.17 1301.22 904.87C1301.22 914.57 1309.44 922.82 1319.17 922.82C1328.9 922.82 1337.12 914.57 1337.12 904.87C1337.12 895.17 1328.9 886.92 1319.17 886.92Z" fill="#656880"/>
<path d="M1522.41 904.87C1512.71 904.87 1504.46 913.12 1504.46 922.82C1504.46 932.52 1512.68 940.77 1522.41 940.77C1532.14 940.77 1540.36 932.52 1540.36 922.82C1540.36 913.12 1532.14 904.87 1522.41 904.87Z" fill="#656880"/>
<path d="M1313.72 1109.07C1304.02 1109.07 1295.77 1117.32 1295.77 1127.02C1295.77 1136.72 1303.99 1144.97 1313.72 1144.97C1323.45 1144.97 1331.67 1136.72 1331.67 1127.02C1331.67 1117.32 1323.45 1109.07 1313.72 1109.07Z" fill="#656880"/>
<path d="M1412.13 1110.99C1402.43 1110.99 1394.18 1119.24 1394.18 1128.94C1394.18 1138.64 1402.4 1146.89 1412.13 1146.89C1421.86 1146.89 1430.08 1138.64 1430.08 1128.94C1430.08 1119.24 1421.86 1110.99 1412.13 1110.99Z" fill="#656880"/>
<path d="M3895.71 893.25L2904.8 884.3C2904.56 905.55 2904.86 928.78 2905.74 950.01L3895.73 958.96L3895.71 893.25Z" fill="#212332"/>
<path d="M2909.09 865.16L2907.62 960.47L2907.58 963.42H2907.23L2868.63 963.02L2868.59 960.53L2868.53 942.03C2868.43 909 2841.82 882.16 2808.78 881.78L2500.54 878.06L2496.69 878.01L2496.56 881.87L2500.41 881.92L2808.55 885.64C2839.58 886 2864.58 911.21 2864.69 942.24L2864.75 960.29L2864.8 962.98L2864.88 966.84L2868.71 966.88L2907.33 967.28H2907.52L2911.37 967.32L2911.42 963.46L2911.46 960.52L2912.93 865.27C2912.96 862.8 2909.11 862.67 2909.08 865.15L2909.09 865.16Z" fill="#4D516B"/>
<path d="M1411.81 1119.65C1402.73 1119.65 1402.72 1133.75 1411.81 1133.75C1420.9 1133.75 1420.9 1119.65 1411.81 1119.65Z" fill="#212332"/>
<path d="M1315.64 1117.08C1306.56 1117.08 1306.55 1131.18 1315.64 1131.18C1324.73 1131.18 1324.73 1117.08 1315.64 1117.08Z" fill="#212332"/>
<path d="M1319.17 897.49C1310.09 897.49 1310.08 911.59 1319.17 911.59C1328.26 911.59 1328.26 897.49 1319.17 897.49Z" fill="#212332"/>
<path d="M1520.16 916.73C1511.08 916.73 1511.07 930.83 1520.16 930.83C1529.25 930.83 1529.25 916.73 1520.16 916.73Z" fill="#212332"/>
<path d="M2123.47 1181.84C2114.39 1181.84 2114.38 1195.94 2123.47 1195.94C2132.56 1195.94 2132.56 1181.84 2123.47 1181.84Z" fill="#212332"/>
<path d="M2776.39 736L2653.7 734.11C2630.79 733.76 2612.65 715.27 2612.65 692.27V665.85C2612.65 641.62 2632.7 621.8 2656.84 622.17L2779.53 624.06C2802.44 624.41 2820.58 642.9 2820.58 665.9V692.32C2820.58 716.55 2800.53 736.37 2776.39 736Z" fill="#A68881"/>
<path d="M2765.85 722.79C2765.4 722.79 2764.95 722.8 2764.5 722.79L2664.56 721.67C2644.77 721.45 2629.27 707.39 2629.27 689.66V670.59C2629.27 662.33 2632.71 654.36 2638.96 648.16C2646.23 640.95 2656.56 636.87 2667.25 637L2767.19 638.12C2786.98 638.34 2802.48 652.4 2802.48 670.13V689.2C2802.48 697.46 2799.04 705.43 2792.79 711.63C2785.83 718.54 2776.07 722.56 2765.85 722.78V722.79ZM2665.89 640.86C2656.66 641.06 2647.87 644.67 2641.62 650.87C2636.12 656.32 2633.1 663.3 2633.1 670.51V689.58C2633.1 705.22 2646.97 717.63 2664.68 717.82L2764.62 718.94C2774.29 719.04 2783.59 715.4 2790.12 708.92C2795.62 703.47 2798.64 696.49 2798.64 689.28V670.21C2798.64 654.57 2784.77 642.16 2767.06 641.96L2667.12 640.84C2666.71 640.84 2666.3 640.84 2665.89 640.84V640.86Z" fill="#212332"/>
<path d="M2502.16 847.7L2501.09 882L561.89 864.87L558.03 864.84C575.21 849.29 596.27 838.07 618.2 832.38L2502.16 847.69V847.7Z" fill="#4D516B"/>
<path d="M1263.71 876.129V1143.98C1263.71 1172.46 1241.18 1195.74 1213 1196.36L1045.09 1200.07L1041.24 1200.16L1035.56 1200.3L1016.88 1200.76C1008.87 1200.94 1001.88 1199.85 995.9 1197.63C977.63 1190.82 968.79 1173.37 968.79 1148.6V873.653C968.79 853.045 983.59 835.955 1003 832.609C1005.42 832.185 1007.92 831.983 1010.48 832.013L1042.99 832.387L1222.99 834.499C1245.56 834.772 1263.71 853.328 1263.71 876.139V876.129Z" fill="#4D516B"/>
<path d="M1042.98 832.377L1010.47 832.003C1007.92 831.973 1005.42 832.175 1002.99 832.599H1025.2C1048.06 832.599 1066.66 851.388 1066.66 874.502V1155.72C1066.66 1178.83 1048.07 1197.63 1025.2 1197.63H995.89C1001.87 1199.86 1008.85 1200.94 1016.87 1200.76L1035.55 1200.3C1055.55 1195.56 1070.5 1177.36 1070.5 1155.72V874.502C1070.5 855.633 1059.14 839.381 1042.97 832.387L1042.98 832.377Z" fill="#212332"/>
<path d="M1012.87 1025.79C1028.01 1025.79 1040.28 1006.65 1040.28 983.029C1040.28 959.412 1028.01 940.267 1012.87 940.267C997.732 940.267 985.46 959.412 985.46 983.029C985.46 1006.65 997.732 1025.79 1012.87 1025.79Z" fill="#212332"/>
<path d="M1000.95 962.714L807.68 960.865C796.57 960.754 787.5 969.051 787.5 979.33C787.5 989.457 796.32 997.694 807.27 997.795L1000.55 999.645C1011.66 999.756 1020.73 991.458 1020.73 981.18C1020.73 971.053 1011.91 962.815 1000.96 962.714H1000.95Z" fill="#656880"/>
<path d="M2218 785.262V789L2207.98 788.932L1250 783.728V780L2207.98 785.204L2218 785.262Z" fill="#4D516B"/>
</g>
<defs>
<clipPath id="clip0_1642_255">
<rect width="3901.96" height="1323.03" fill="white"/>
</clipPath>
</defs>
</svg>
