<svg width="1064" height="1202" viewBox="0 0 1064 1202" fill="none" xmlns="http://www.w3.org/2000/svg">
<g clip-path="url(#clip0_1718_1335)">
<path d="M332.4 891.15C310.86 891.15 293.4 908.61 293.4 930.15C293.4 951.69 310.86 969.15 332.4 969.15C353.94 969.15 371.4 951.69 371.4 930.15C371.4 908.61 353.94 891.15 332.4 891.15ZM332.4 948.12C322.47 948.12 314.43 940.08 314.43 930.15C314.43 920.22 322.47 912.18 332.4 912.18C342.33 912.18 350.37 920.23 350.37 930.15C350.37 940.07 342.32 948.12 332.4 948.12Z" fill="#1F2236"/>
<path d="M300.32 902.37C308.31 896.21 320.98 891.15 331.4 891.15C341.82 891.15 325.57 909.12 325.57 909.12L300.33 902.37H300.32Z" fill="#1F2236"/>
<path d="M320.73 973.29C329.33 973.29 348.55 972.3 362.81 954.57C377.07 936.84 326.73 961.51 326.73 961.51L320.73 973.29Z" fill="#1F2236"/>
<path d="M322.74 895.29C301.2 895.29 283.74 912.75 283.74 934.29C283.74 955.83 301.2 973.29 322.74 973.29C344.28 973.29 361.74 955.83 361.74 934.29C361.74 912.75 344.28 895.29 322.74 895.29ZM322.74 952.26C312.81 952.26 304.77 944.22 304.77 934.29C304.77 924.36 312.81 916.32 322.74 916.32C332.67 916.32 340.71 924.37 340.71 934.29C340.71 944.21 332.66 952.26 322.74 952.26Z" fill="#1F2236"/>
<path d="M340.25 970.26C354.69 963.17 363.72 947.75 362.65 931.66C361.66 916.8 352.21 903.39 338.5 897.52C329.76 893.78 319.88 893.31 310.8 896.1C309.57 896.48 310.1 898.41 311.33 898.03C326.09 893.5 342.31 898.28 352.14 910.2C361.53 921.59 363.38 938.01 356.77 951.21C353 958.75 346.8 964.81 339.24 968.53C338.08 969.1 339.1 970.82 340.25 970.26Z" fill="#6B7BB0"/>
<path d="M332.32 948.3C325.36 952.92 316 951.97 310.28 945.83C305 940.16 304.33 931.38 308.58 924.92C310.97 921.29 314.7 918.78 318.9 917.76C320.15 917.46 319.62 915.53 318.37 915.83C309.8 917.92 303.6 925.79 303.77 934.65C303.93 942.97 309.7 950.42 317.75 952.61C323.05 954.05 328.77 953.07 333.34 950.04C334.41 949.33 333.41 947.6 332.33 948.31L332.32 948.3Z" fill="#6B7BB0"/>
<path d="M326.54 893.17V643.74C326.54 642.45 324.54 642.45 324.54 643.74V893.17C324.54 894.46 326.54 894.46 326.54 893.17Z" fill="#70453A"/>
<path d="M331.09 890.01C325.21 890.92 320.88 895.03 319.04 900.6C317.6 904.97 317.39 910.42 319.42 914.65C320.19 916.26 321.57 917.83 323.49 917.79C324.78 917.77 324.78 915.77 323.49 915.79C323.04 915.79 322.71 915.66 322.34 915.35C321.84 914.93 321.5 914.35 321.21 913.78C320.4 912.15 320.09 910.25 320 908.45C319.78 904 320.92 899.14 324.02 895.8C326.04 893.62 328.7 892.4 331.62 891.95C332.89 891.75 332.35 889.83 331.09 890.02V890.01Z" fill="#70453A"/>
<path d="M323.77 915.31C326.85 905.76 333.79 897.74 342.74 893.24C343.89 892.66 342.88 890.94 341.73 891.51C332.32 896.24 325.07 904.75 321.84 914.77C321.44 916 323.37 916.52 323.77 915.3V915.31Z" fill="#70453A"/>
<path d="M997.96 622.39C997.44 615.8 995.56 609.39 992.43 603.57C989.33 597.81 985.11 592.69 980.12 588.46C975.11 584.22 969.33 580.87 963.13 578.71C956.07 576.25 948.34 575.21 940.91 576.33C938.63 576.67 936.38 577.27 934.21 578.06C935.95 574.98 937.46 571.77 938.72 568.45C942.89 557.44 944.31 545.46 942.79 533.78C941.23 521.83 936.75 510.35 930.19 500.26C923.47 489.92 914.48 480.81 903.96 474.31C896.22 469.53 887.33 466.28 878.27 465.78C878.41 464.52 878.51 463.26 878.51 462.01C878.56 454.91 876.46 447.89 872.44 442.03C868.58 436.41 863.13 431.91 856.94 429.07C850.46 426.1 843.24 425.07 836.19 426C832.02 426.55 827.93 427.78 824.11 429.57C822.53 423.75 820.11 418.15 817.17 412.92C813.32 406.07 808.42 399.82 802.71 394.43C796.81 388.87 790 384.29 782.66 380.85C778.97 379.12 775.13 377.69 771.21 376.56C778.76 370.6 785.1 363.13 789.71 354.69C795.56 344 798.54 331.8 797.78 319.6C797.02 307.49 792.76 295.56 785.52 285.81C778.2 275.95 767.9 268.76 756.11 265.33C753.06 264.44 749.94 263.81 746.78 263.43C747 260.98 747.11 258.53 747.09 256.07C747.03 248.1 745.67 240.17 743.03 232.65C740.5 225.45 736.84 218.64 732.18 212.59C727.52 206.54 721.85 201.24 715.4 197.14C708.64 192.85 701.06 189.91 693.19 188.45C685.3 186.99 677.11 187.01 669.25 188.66C661.76 190.24 654.64 193.32 648.42 197.8C645.12 200.18 642.1 202.93 639.39 205.96C636.56 203.99 633.55 202.28 630.39 200.9C622.75 197.55 614.42 196 606.09 195.98C600.77 195.97 595.36 196.56 590.13 197.81C592.18 193.13 593.97 188.34 595.46 183.43C599.16 171.28 601.13 158.64 601.34 145.94C601.55 133.14 599.92 120.31 596.43 107.99C593.24 96.74 588.46 85.95 582.4 75.95C576.3 65.89 568.88 56.63 560.43 48.44C552.01 40.29 542.55 33.22 532.32 27.51C520.91 21.14 508.51 16.45 495.65 14.04C482.31 11.54 468.43 11.55 455.26 14.99C444.03 17.92 433.55 23.53 424.94 31.33C423.89 32.28 422.86 33.27 421.87 34.29C421.39 31.47 420.7 28.68 419.8 25.96C416.47 15.96 409.96 5.67999 399.69 1.78999C388.85 -2.32001 376.4 1.27999 366.8 6.92999C357.65 12.31 350.07 20.38 345.4 29.93C342.57 35.71 340.79 42.05 340.15 48.49C336.14 51.41 332.56 54.92 329.51 58.85C324.51 65.3 320.92 72.86 319.17 80.83C317.43 88.76 317.63 97 319.77 104.84C321.88 112.58 325.79 119.83 331 125.93C331.69 126.74 332.41 127.53 333.15 128.3C329.8 128.89 326.56 130.07 323.66 131.88C318.51 135.1 314.5 140 312.02 145.52C309.64 150.81 308.76 156.62 309.28 162.37C299.39 163.85 289.76 167.35 281.1 172.18C266.41 180.37 253.84 192.45 244.08 206.08C234.3 219.73 227.27 235.5 224.86 252.18C222.39 269.27 224.66 287.27 232.68 302.68C237.17 311.32 243.4 319.12 250.93 325.32C246.91 329.05 243.43 333.38 240.68 338.03C234.39 348.65 232.01 361.25 233.74 373.46C233.76 373.57 233.78 373.67 233.79 373.78C228.36 369.98 222.31 367.04 216.01 365.05C205.97 361.88 195.24 361.14 184.88 363.13C174.63 365.1 164.87 369.55 156.67 376C148.35 382.54 141.79 391.11 137.61 400.83C136.8 402.71 136.08 404.63 135.45 406.58C128.71 408.36 122.18 411.05 116.05 414.29C105.08 420.1 95.17 427.75 86.19 436.29C77.01 445.03 68.62 454.72 62.02 465.58C55.48 476.34 50.82 488.29 49.41 500.85C48.22 511.46 49.26 522.48 53.18 532.45C53 532.69 52.82 532.91 52.65 533.16C46.07 542.69 45.78 555.13 49.37 565.83C49.45 566.08 49.55 566.33 49.64 566.58C40.91 568.95 33.23 574.08 27.29 580.89C21.2 587.88 16.98 596.4 14.57 605.32C11.8 615.59 11.3 626.83 14.93 636.96C15.36 638.15 15.85 639.31 16.39 640.46C13.15 642.35 10.23 644.78 7.85001 647.62C-0.199989 657.21 -1.63999 670.87 1.60001 682.65C4.68001 693.82 12.17 703.53 21.78 709.9C31.42 716.29 43.02 719.2 54.52 717.73C58.67 717.2 62.75 716.13 66.65 714.59C67.95 716.86 69.4 719.05 71.02 721.1C78.54 730.67 89.06 737.49 100.9 740.34C113.61 743.39 127.18 742 139.32 737.33C148.17 733.92 156.17 728.72 163.04 722.26C163.6 722.7 164.17 723.14 164.75 723.54C171.42 728.17 179.58 730.37 187.66 729.54C196.3 728.66 204.4 724.71 211.01 719.18C218.09 713.25 223.37 705.57 227.03 697.13C229.21 702.36 232 707.35 235.37 711.94C241.52 720.32 249.41 727.4 258.36 732.68C267.34 737.98 277.45 741.44 287.84 742.48C298.55 743.56 309.46 742.13 319.62 738.6C329.78 735.06 339.2 729.39 347.01 721.98C355 714.39 361.05 704.94 365.08 694.71C366.92 690.03 368.33 685.2 369.41 680.3C372.87 680.53 376.36 680.07 379.69 678.98C385.15 677.21 390.04 673.96 394.25 670.1C398.37 666.33 401.92 661.97 404.84 657.21C406.67 654.22 408.25 651.07 409.54 647.81C415.29 656.24 423.47 663.08 432.71 667.39C450.81 675.83 472.32 674.18 490.3 666.29C492.64 665.26 494.87 663.97 497.21 662.95C499.64 661.89 502.72 661.64 503.63 664.73C504.25 666.85 503.81 669.15 503.92 671.31C504.03 673.62 504.52 675.91 505.3 678.08C508.6 687.3 516.5 693.69 525.06 697.85C529.83 700.17 534.86 701.96 539.92 703.54C545.23 705.19 550.64 706.54 556.12 707.47C566.62 709.25 577.48 709.52 587.96 707.45C595.75 705.91 603.32 703.11 610.13 699.02C612.03 699.91 613.98 700.69 615.98 701.35C624.04 704.02 632.7 704.84 641.12 703.82C649.61 702.79 657.73 699.79 664.94 695.21C672.2 690.59 678.47 684.44 683.45 677.44C684.82 675.51 686.1 673.5 687.28 671.43C689.72 673.17 692.29 674.73 694.98 676.08C701.75 679.5 709.18 681.67 716.73 682.37C724.17 683.06 731.68 682.3 738.82 680.12C745.84 677.98 752.46 674.52 758.26 670.03C761.19 667.76 763.91 665.22 766.37 662.46C768.21 672.31 772.71 681.69 779.55 689.04C787.73 697.82 799.17 703.46 811.11 704.66C817.21 705.28 823.38 704.69 829.25 702.92C835.32 701.09 841.01 698.07 846.1 694.31C851.09 690.64 855.49 686.28 859.42 681.5C861.92 685.03 865.14 688.09 868.74 690.46C877.14 696.01 887.41 698.59 897.41 698.76C907.43 698.93 917.52 696.6 926.41 691.97C934.56 687.72 941.57 681.51 946.92 674.04C948.07 674.15 949.23 674.23 950.4 674.26C957.02 674.39 963.66 673.12 969.77 670.57C975.85 668.03 981.36 664.21 985.78 659.3C990.23 654.36 993.55 648.42 995.6 642.1C997.66 635.76 998.48 629.04 997.96 622.4V622.39Z" fill="#1B2F36"/>
<path d="M942.79 533.77C941.23 521.82 936.75 510.34 930.2 500.25C923.47 489.91 914.48 480.8 903.97 474.3C896.23 469.52 887.34 466.27 878.27 465.77C878.41 464.52 878.51 463.26 878.52 462C878.55 457.75 877.79 453.53 876.33 449.57C893.2 442.61 905.08 426.01 905.08 406.63C905.08 400.05 903.7 393.8 901.24 388.13C906.9 380.26 909.37 370.29 908.8 360.63C908.12 349.06 903.4 337.8 896.38 328.64C889.99 320.29 881.57 313.55 872.13 308.91C868.81 307.28 865.35 305.92 861.82 304.83C863.2 298.78 863.96 292.59 863.78 286.38C863.5 276.25 860.56 266.2 854.58 257.95C851.63 253.89 847.96 250.33 843.69 247.69C839.74 245.25 835.34 243.61 830.78 242.76C821.62 241.04 812.03 242.35 803.34 245.54C794.3 248.87 786.11 254.07 778.45 259.86C777.99 257 777.34 254.19 776.49 251.42C774.3 244.3 770.82 237.57 766.25 231.69C761.88 226.06 756.48 221.24 750.39 217.54C745.53 214.58 740.26 212.33 734.78 210.8C735.76 210.24 736.71 209.63 737.64 208.99C745.22 203.72 750.69 195.92 752.92 186.96C755.14 178.08 754.24 168.52 750.82 160.05C747.33 151.39 741.09 144.11 733.28 139.04C727.56 135.32 721.09 132.77 714.38 131.51C714.25 130.24 714 128.98 713.61 127.77C712.25 123.53 709.35 119.99 705.87 117.28C699.1 112 690.27 109.19 681.79 108.54C673.06 107.86 664.22 109.52 656.38 113.43C648.11 117.54 640.88 124.03 636.16 131.99C634.7 134.46 633.51 137.14 632.91 139.94C628.97 139.31 624.97 139.17 621.01 139.59C614.3 140.29 607.69 142.63 602.33 146.78C597.5 150.52 593.86 155.78 591.92 161.56C591.43 163.03 591.04 164.53 590.78 166.07C591.13 167.65 579.59 216.47 580.21 217.97C581.94 222.17 604.29 223.33 620.47 224.78C621.33 227.63 622.45 230.4 623.81 233.05C614.54 235.19 605.8 239.7 598.79 246.15C591.5 252.86 586.06 261.43 582.64 270.71C579.17 280.17 577.76 290.34 578.4 300.4C579.14 311.81 582.41 322.98 587.43 333.22C592.44 343.42 599.14 352.83 607.1 360.93C614.99 368.97 624.23 375.75 634.59 380.23C644.1 384.34 654.51 386.41 664.88 385.93C675.02 385.46 685.01 382.45 693.44 376.74C694.39 376.11 695.3 375.44 696.21 374.73C698.7 380.61 702.02 386.14 705.98 391.13C710.51 396.84 715.92 401.88 721.97 405.96C727.83 409.91 734.31 412.92 741.1 414.93C747.76 416.91 754.69 417.94 761.64 418.06C767.89 418.16 774.15 417.55 780.26 416.22C785.67 420.55 792.54 423.15 800.01 423.15C805.08 423.15 809.87 421.95 814.12 419.83C815.4 424.15 817.29 428.21 819.69 431.91C818.2 432.81 816.75 433.77 815.36 434.79C807.66 440.44 801.56 447.76 797.34 455.78C795.17 459.9 793.41 464.26 792.35 468.7C791.99 470.19 791.75 471.76 791.84 473.29C790.59 472.87 789.3 472.55 787.98 472.34C782.26 471.44 776.48 472.7 771.38 475.21C761.19 480.23 753.62 489.52 749.22 498.95C744.92 508.17 743.31 518.32 744.42 528.16C745.54 537.96 749.4 547.53 756.03 555.35C762.69 563.2 773.96 570.31 785.68 568.46C786.77 568.28 787.84 568.01 788.89 567.68C786.54 581.74 794.79 596.54 808.93 602.83C823.4 609.26 843.33 606.37 854.32 595.12C856.21 593.18 857.84 590.83 858.59 588.33C861.82 591.29 865.61 593.79 869.75 595.72C878.59 599.85 888.88 601.32 898.82 599.69C908.92 598.04 918.31 593.49 925.84 587.2C929.15 584.43 932.05 581.33 934.5 577.99C934.41 578.02 934.31 578.06 934.22 578.09C935.97 575.01 937.48 571.79 938.73 568.47C942.9 557.46 944.32 545.48 942.8 533.8L942.79 533.77Z" fill="#3F7368"/>
<g style="mix-blend-mode:multiply" opacity="0.3">
<path d="M942.79 533.77C941.23 521.82 936.75 510.34 930.2 500.25C923.47 489.91 914.48 480.8 903.97 474.3C896.23 469.52 887.34 466.27 878.27 465.77C878.41 464.52 878.51 463.26 878.52 462C878.55 457.75 877.79 453.53 876.33 449.57C893.2 442.61 905.08 426.01 905.08 406.63C905.08 400.05 903.7 393.8 901.23 388.12C906.9 380.25 909.36 370.29 908.79 360.63C908.11 349.05 903.39 337.8 896.38 328.64C889.99 320.29 881.57 313.54 872.13 308.9C868.81 307.27 865.35 305.91 861.82 304.82C849.53 327.94 830.63 329.15 808.77 329.05C807.37 333.86 805.06 338.33 801.95 342.25C794.28 351.93 782.27 358.17 769.97 359.05C768.15 361.4 766.33 363.75 764.52 366.12C753.27 380.85 742.31 395.95 732.69 411.83C735.42 413.03 738.24 414.05 741.1 414.9C747.76 416.89 754.69 417.91 761.64 418.04C767.89 418.14 774.14 417.52 780.25 416.2C785.67 420.53 792.53 423.12 800 423.12C805.07 423.12 809.86 421.92 814.11 419.8C815.39 424.13 817.28 428.18 819.68 431.88C818.19 432.78 816.74 433.74 815.35 434.76C807.65 440.41 801.55 447.73 797.33 455.75C795.16 459.87 793.4 464.23 792.34 468.67C791.98 470.16 791.74 471.73 791.83 473.26C790.58 472.84 789.29 472.52 787.97 472.31C782.25 471.41 776.47 472.67 771.37 475.18C761.18 480.2 753.61 489.49 749.21 498.92C744.91 508.14 743.3 518.29 744.41 528.13C745.53 537.93 749.39 547.5 756.02 555.32C762.68 563.17 773.95 570.28 785.67 568.43C786.76 568.25 787.83 567.98 788.88 567.65C786.53 581.71 794.78 596.51 808.92 602.8C823.39 609.23 843.32 606.34 854.31 595.09C856.2 593.15 857.83 590.8 858.58 588.3C861.81 591.26 865.6 593.76 869.74 595.69C878.58 599.82 888.87 601.29 898.81 599.66C908.91 598.01 918.3 593.46 925.83 587.17C929.14 584.4 932.04 581.3 934.49 577.96C934.4 577.99 934.3 578.03 934.21 578.06C935.96 574.98 937.47 571.76 938.72 568.44C942.89 557.43 944.31 545.45 942.79 533.77Z" fill="#22224D"/>
</g>
<path d="M820.46 431.15C828.63 427.39 837.97 426.1 846.83 427.77C854.56 429.23 861.8 432.91 867.63 438.17C870.9 441.12 873.7 444.52 875.96 448.3C876.62 449.4 878.35 448.4 877.69 447.29C868.81 432.43 851.88 423.56 834.58 425.28C829.33 425.8 824.25 427.21 819.45 429.42C818.28 429.96 819.3 431.68 820.46 431.15Z" fill="#1F2236"/>
<path d="M304.75 603.5C294.75 607.49 221.11 608.17 208.18 606.28C196.02 604.5 184.15 600.99 172.96 595.89C162.26 591.01 152.21 584.72 143.12 577.25C135.42 570.92 128.43 563.72 122.32 555.84C120.65 559.48 119.19 563.24 117.8 566.97C121.73 574.01 126.18 580.76 131.2 587.08C137.9 595.51 145.57 603.2 154.14 609.73C162.88 616.39 172.55 621.85 182.88 625.6C193.02 629.28 217.78 635.69 228.41 637.5C239.33 639.36 256.24 641.33 265.34 640.53C272.29 634.33 271.17 633.02 275.12 624.56C279.19 615.85 306.02 612.67 304.75 603.5Z" fill="#573C36"/>
<path d="M201.309 576.92C198.179 567.16 192.649 558.25 185.399 551.01C182.639 548.25 179.619 545.79 176.419 543.59C174.269 544.7 172.179 545.92 170.109 547.2C175.999 551.59 180.879 557.35 184.179 563.91C188.409 572.31 189.939 581.87 188.659 591.18C187.069 599.21 184.849 600.6 180.689 599.1C180.689 599.1 185.589 605.32 189.249 606.15C191.899 606.75 193.299 605.61 194.279 604.5C197.389 605.35 200.519 606.11 203.679 606.79C205.349 596.88 204.369 586.42 201.319 576.92H201.309Z" fill="#573C36"/>
<path d="M183.65 601.5C188.65 606.32 195.97 608.34 202.58 605.85C203.77 605.4 203.26 603.47 202.05 603.92C196.09 606.16 189.59 604.44 185.07 600.08C184.14 599.19 182.73 600.6 183.66 601.49L183.65 601.5Z" fill="#1F2236"/>
<path d="M166.02 615.15C164.42 614.14 162.79 613.16 161.16 612.16C161.93 610.51 162.07 609.02 160.58 608.27C157.69 606.83 152.02 605.49 151.3 605.6C150.58 605.71 149.65 606.12 149.65 606.12C151.06 607.29 155.56 612.25 149.01 615.23C144.06 616.91 138.63 616.26 133.68 614.91C124 612.27 114.82 607.37 106.93 601.22C103.88 598.85 101.03 596.25 98.3398 593.48C99.0598 597.41 99.1598 601.39 98.4498 605.35C106.79 612.97 115.47 620.44 125.73 625.33C136.03 630.25 147.93 632.38 158.96 628.64C164.37 626.81 169.53 623.59 173.02 619.01C170.63 617.94 168.31 616.61 166.02 615.16V615.15Z" fill="#573C36"/>
<path d="M152.78 610.43C157.34 615.29 162.93 619.06 169.11 621.53C170.31 622.01 170.82 620.07 169.64 619.6C163.78 617.26 158.5 613.61 154.19 609.01C153.31 608.07 151.9 609.49 152.78 610.42V610.43Z" fill="#1F2236"/>
<path d="M445.76 644.25C441.6 648.05 437.08 657.09 433.05 667.5C432.95 667.46 432.84 667.41 432.74 667.36C423.5 663.05 415.32 656.21 409.57 647.78C408.28 651.05 406.7 654.2 404.87 657.19C401.95 661.94 398.4 666.3 394.28 670.07C390.08 673.93 385.18 677.18 379.72 678.95C376.39 680.03 372.9 680.5 369.44 680.27C368.37 685.17 366.96 690 365.11 694.68C361.08 704.91 355.03 714.36 347.04 721.95C339.23 729.36 329.81 735.03 319.64 738.57C309.49 742.11 298.58 743.53 287.86 742.45C277.47 741.41 267.37 737.95 258.38 732.65C249.43 727.37 241.55 720.3 235.4 711.92C232.18 707.53 229.5 702.8 227.36 697.82L227.41 697.17C221.51 675.32 222.25 650.58 233.42 631.24C244.59 611.91 265.2 603.94 286.38 604.02C283.09 597.33 281.95 587.12 284.31 576.55C289.09 555.17 299.85 543.94 317.98 535.83C336.98 527.33 380.76 532.83 393.42 560.5C393.42 560.5 448.42 567.5 458.42 573.17C468.42 578.83 472.42 601.5 473.76 618.08C475.09 634.65 456.42 634.5 445.76 644.25Z" fill="#3F7368"/>
<g style="mix-blend-mode:multiply" opacity="0.3">
<path d="M455.02 619.95C434.02 622.02 414.25 614.81 396.36 604.38C384.72 597.59 373.44 589.87 363.06 581.16C362.17 583.57 361.24 585.96 360.23 588.33C354.89 600.85 347.49 612.81 336.54 621.17C326.54 628.81 313.87 633.36 301.24 631.41C301.77 641.37 299.87 651.36 295.88 660.49C292.35 668.58 287.22 675.86 280.91 681.87C282.13 683.99 283.19 686.28 284.07 688.79C288.02 700 289.29 713.32 286.19 724.88C284.63 730.71 282.1 736.03 278.91 740.94C281.85 741.63 284.83 742.16 287.85 742.46C298.57 743.54 309.48 742.12 319.63 738.58C329.8 735.04 339.22 729.37 347.03 721.96C355.02 714.37 361.07 704.92 365.1 694.69C366.95 690.01 368.36 685.18 369.43 680.28C372.89 680.51 376.38 680.04 379.71 678.96C385.17 677.19 390.07 673.94 394.27 670.08C398.39 666.31 401.94 661.95 404.86 657.2C406.69 654.21 408.27 651.06 409.56 647.79C415.31 656.22 423.49 663.06 432.73 667.37C432.83 667.42 432.94 667.47 433.04 667.51C437.07 657.1 441.59 648.06 445.75 644.26C452.28 638.29 461.82 636.03 467.92 631.36C469.46 626.38 470.9 621.37 472.31 616.35C466.72 618.13 460.95 619.38 455.01 619.96L455.02 619.95Z" fill="#22224D"/>
</g>
<path d="M443.08 370.93C450.81 369.43 457.86 367.09 465.22 364.31C468.57 363.04 471.92 361.75 475.24 360.41C473.88 352.79 472.89 345.11 472.4 337.36C471.65 325.55 471.93 313.68 473.24 301.92C474.54 290.34 476.97 278.96 479.63 267.63C482.26 256.42 485.09 245.24 487.12 233.89C489.12 222.71 490.31 211.35 489.7 199.99C489.7 199.91 489.69 199.83 489.68 199.74C484.76 197.46 480.08 194.68 475.58 191.59C474.55 200.98 472.75 210.28 470.48 219.44C467.19 232.74 462.93 245.76 458.62 258.75C454.35 271.61 450.03 284.47 446.53 297.58C443.09 310.51 440.47 323.69 439.58 337.05C438.83 348.44 439.27 360 441.61 371.2C442.1 371.11 442.58 371.01 443.07 370.92L443.08 370.93Z" fill="#573C36"/>
<path d="M531.15 201.98C530.07 208.67 529.09 215.35 527.44 221.94C525.76 228.63 523.49 235.19 520.24 241.29C514.99 251.15 507.05 259.82 496.71 264.15C492.18 265.75 487.51 265.88 485.83 265.42C481.17 264.15 481.86 258.21 483.97 249.18C483.97 249.18 470.75 263.5 469.25 265.5C468.58 266.4 470.8 269.05 474.43 271.64C473.31 277.2 472.63 282.84 472.39 288.59C479.49 289.73 486.75 289.01 493.6 286.77C500.95 284.37 507.68 280.31 513.39 275.12C519.06 269.98 523.73 263.84 527.53 257.21C531.6 250.11 534.61 242.46 536.91 234.62C538.89 227.88 540.37 220.99 541.58 214.07C538.31 209.8 534.98 205.59 531.16 201.99L531.15 201.98Z" fill="#573C36"/>
<path d="M474.83 287.21C472.59 275.69 475.39 263.53 482.31 254.08C483.07 253.04 481.34 252.04 480.58 253.07C473.33 262.96 470.55 275.72 472.89 287.74C473.14 289 475.06 288.47 474.82 287.21H474.83Z" fill="#1F2236"/>
<path d="M452.85 276.35C452.85 276.35 451.02 282.14 446.64 282.28C442.27 282.42 437.67 277.09 434.87 272.17C434.24 270.83 433.67 269.46 433.17 268.07C431.15 262.49 429.95 256.6 428.88 250.77C427.73 244.49 426.89 238.15 426.38 231.78C425.87 225.41 425.74 219.02 425.79 212.63C426.2 212.37 426.61 212.11 427.02 211.85C427.45 211.58 427.07 210.89 426.6 211.08C426.33 211.19 426.06 211.33 425.79 211.47C425.79 211.13 425.79 210.8 425.79 210.46C425.79 209.98 424.97 209.96 424.94 210.44C424.91 210.95 424.91 211.47 424.89 211.98C423.98 212.55 423.12 213.23 422.35 213.93C421.79 214.44 421.27 214.98 420.78 215.54C420.8 215.43 420.82 215.31 420.84 215.2C420.93 214.66 420.1 214.53 419.99 215.07C419.86 215.72 419.74 216.36 419.62 217.01C419.42 217.29 419.23 217.56 419.05 217.85C418.85 218.17 419.05 218.52 419.32 218.62C417.98 225.78 416.85 233 416.22 240.25C415.53 248.13 415.48 256.09 416.7 263.92C417.83 271.19 420.02 278.31 423.62 284.75C426.95 290.71 431.56 295.94 437.19 299.83C440.13 301.86 443.37 303.51 446.76 304.68C447.35 303.12 447.93 301.56 448.47 299.97C449.9 295.77 451.21 291.54 452.59 287.34C452.36 287.3 452.14 287.24 451.91 287.2C452.87 282.26 452.87 276.35 452.87 276.35H452.85Z" fill="#573C36"/>
<path d="M797.78 319.6C797.02 307.49 792.76 295.55 785.52 285.8C778.2 275.94 767.9 268.76 756.11 265.32C753.07 264.44 749.94 263.81 746.78 263.43C747 260.98 747.11 258.52 747.1 256.06C747.04 248.09 745.67 240.16 743.04 232.64C740.51 225.45 736.84 218.63 732.19 212.59C727.53 206.54 721.86 201.23 715.41 197.14C708.65 192.84 701.06 189.91 693.19 188.45C685.31 186.98 677.11 187 669.25 188.66C661.76 190.24 654.64 193.32 648.43 197.8C645.13 200.18 642.11 202.93 639.39 205.96C636.57 203.98 633.55 202.28 630.39 200.9C622.76 197.55 614.42 195.99 606.1 195.97C600.78 195.96 595.36 196.55 590.14 197.8C592.19 193.12 593.98 188.33 595.47 183.43C599.16 171.28 601.14 158.63 601.35 145.93C601.56 133.13 599.93 120.3 596.43 107.98C593.24 96.73 588.46 85.94 582.4 75.94C576.3 65.87 568.88 56.62 560.43 48.43C552.01 40.28 542.55 33.21 532.31 27.5C520.9 21.13 508.5 16.44 495.65 14.03C482.31 11.54 468.43 11.54 455.26 14.98C444.03 17.92 433.55 23.53 424.94 31.32C423.89 32.27 422.86 33.26 421.87 34.28C421.39 31.45 420.7 28.66 419.8 25.94C416.47 15.94 409.96 5.66 399.68 1.77C388.84 -2.34 376.39 1.26 366.79 6.91C357.64 12.29 350.06 20.36 345.4 29.91C342.57 35.69 340.79 42.03 340.15 48.47C336.14 51.39 332.56 54.9 329.51 58.83C324.5 65.29 320.92 72.84 319.17 80.82C317.42 88.75 317.63 96.99 319.76 104.83C321.87 112.57 325.79 119.82 331 125.92C331.69 126.73 332.41 127.52 333.15 128.29C329.8 128.88 326.55 130.06 323.66 131.87C318.52 135.09 314.5 139.99 312.02 145.51C309.65 150.79 308.77 156.61 309.29 162.36C299.4 163.84 289.76 167.34 281.11 172.17C266.42 180.36 253.85 192.44 244.09 206.06C234.3 219.72 227.28 235.48 224.87 252.17C222.4 269.26 224.67 287.26 232.68 302.67C237.18 311.31 243.4 319.11 250.93 325.31C246.91 329.04 243.43 333.36 240.68 338.01C234.38 348.63 232.01 361.24 233.74 373.44C233.75 373.55 233.78 373.65 233.79 373.76C228.36 369.96 222.32 367.02 216.01 365.03C205.97 361.85 195.24 361.12 184.88 363.11C174.64 365.07 164.87 369.53 156.67 375.98C148.35 382.52 141.79 391.09 137.61 400.81C136.8 402.69 136.08 404.61 135.45 406.56C128.71 408.35 122.18 411.03 116.06 414.27C105.08 420.08 95.1698 427.73 86.1998 436.27C77.0198 445.01 68.6298 454.71 62.0298 465.56C55.4898 476.32 50.8298 488.27 49.4098 500.83C48.2198 511.44 49.2598 522.46 53.1898 532.43C53.0098 532.66 52.8298 532.89 52.6598 533.13C46.0798 542.66 45.7898 555.1 49.3798 565.8C49.4598 566.06 49.5598 566.3 49.6498 566.55C40.9098 568.93 33.2398 574.05 27.2998 580.86C21.2098 587.85 16.9898 596.37 14.5798 605.29C11.8098 615.56 11.3198 626.8 14.9398 636.93C15.3698 638.12 15.8598 639.29 16.4098 640.44C16.3798 640.46 16.3398 640.48 16.3098 640.5C29.2098 644.95 52.5798 645.17 63.0298 642.57C73.7398 639.9 83.6298 634.08 91.2698 626.13C99.3298 617.75 104.56 607.03 106.28 595.53C107.03 590.47 107.13 585.27 106.57 580.15C108.09 579.94 109.6 579.68 111.09 579.34C117.47 577.91 123.58 575.35 129.05 571.77C134.55 568.18 139.33 563.55 143.07 558.16C146.49 553.24 149.05 547.74 150.69 541.98C153.02 547.66 156.97 552.6 162.1 556.04C167.96 559.96 174.97 561.94 181.99 561.98C189.03 562.01 195.92 559.93 201.91 556.26C203.3 555.41 204.63 554.47 205.92 553.47C210.49 559.87 217.77 564.29 225.7 564.94C231.03 565.37 236.46 564.21 241.17 561.68C245.88 559.14 249.69 555.24 252.16 550.49C253.44 548.04 254.35 545.34 254.86 542.58C258.64 543.19 262.47 543.52 266.31 543.53C275.55 543.55 284.81 541.84 293.41 538.46C301.76 535.19 309.4 530.32 315.91 524.14C322.23 518.15 327.44 511 331.29 503.19C333.54 498.62 335.35 493.76 336.62 488.77C343.98 486.25 351.02 482.87 357.59 478.64C366.14 473.14 373.84 466.29 380.25 458.4C386.94 450.16 392.24 440.78 395.91 430.82C399.55 420.97 401.67 410.47 401.86 399.95C401.87 399.36 401.87 398.77 401.86 398.17C404.32 397.55 406.58 396.15 408.2 394.2C411.08 390.74 411.32 385.84 409.28 381.89C408.41 380.22 407.17 378.77 405.64 377.72C405.69 374.67 405.56 371.61 405.23 368.57C404.4 360.93 402.4 353.41 399.28 346.39C396.31 339.69 392.32 333.47 387.46 327.99C382.76 322.69 377.3 318.07 371.3 314.31C369.66 313.29 367.98 312.33 366.27 311.43C370.04 310.27 373.65 308.59 376.97 306.48C383.31 302.47 388.65 296.9 392.34 290.36C396.01 283.84 397.82 276.44 397.55 268.97C397.27 261.52 395.02 254.19 391.26 247.78C388.46 243.01 384.79 238.73 380.43 235.32C386.35 235.94 392.34 235.79 398.22 234.9C405.24 233.83 412.12 231.74 418.53 228.67C424.72 225.71 430.46 221.85 435.52 217.21C440.4 212.74 444.66 207.61 448.14 201.98C448.73 201.04 449.28 200.08 449.83 199.12C454.49 202.57 459.6 205.41 465 207.54C472.03 210.32 479.53 211.95 487.09 212.26C494.5 212.58 501.9 211.63 508.99 209.46C514.78 207.68 520.33 205.08 525.45 201.83C522.07 208.1 519.87 215.02 519.14 222.12C518.3 230.31 519.48 238.6 522.64 246.21C525.77 253.74 530.67 260.51 536.76 265.91C536.96 266.09 537.18 266.26 537.38 266.44C537.02 266.71 536.67 266.99 536.32 267.27C530.81 271.75 526.85 277.9 525.32 284.85C523.78 291.9 524.67 299.49 527.74 306.01C530.82 312.54 536.07 317.75 542.58 320.86C544.96 322 547.5 322.87 550.1 323.43C550.26 324.5 550.45 325.58 550.7 326.64C552.38 333.7 556.08 340.12 561.4 345.06C566.69 349.97 573.35 353.31 580.37 354.87C581.65 355.15 582.94 355.35 584.23 355.51C586.42 361.94 590.39 367.69 595.62 372.01C600.95 376.42 607.44 379.35 614.2 380.7C621.17 382.1 628.38 381.72 635.22 379.85C637.97 379.09 640.66 378.09 643.26 376.88C644 378.33 644.83 379.74 645.75 381.08C651.04 388.78 659.05 394.07 667.91 396.8C677.41 399.74 687.54 399.86 697.28 398.08C707.71 396.17 717.76 392.27 727.28 387.66C731.56 385.58 735.79 383.15 738.98 379.55C741.89 376.28 743.82 371.87 743.53 367.44C743.53 367.38 743.51 367.32 743.51 367.26C747.69 373 754.62 376.4 761.68 377.03C764.9 377.32 768.13 377.1 771.29 376.5C778.8 370.55 785.11 363.09 789.71 354.69C795.56 343.99 798.54 331.79 797.78 319.6Z" fill="#3F7368"/>
<g style="mix-blend-mode:multiply" opacity="0.3">
<path d="M588.69 196.84C580.76 191.54 571.63 188.13 561.52 187.57C550.62 186.97 538.89 189.85 530.2 196.64C527.99 198.37 525.99 200.39 524.16 202.62C519.41 205.51 514.3 207.83 508.99 209.46C501.9 211.63 494.5 212.58 487.09 212.26C479.53 211.95 472.03 210.32 465 207.54C459.6 205.41 454.49 202.57 449.83 199.12C449.28 200.08 448.73 201.04 448.14 201.98C444.66 207.61 440.4 212.74 435.52 217.21C430.46 221.85 424.72 225.71 418.53 228.67C412.12 231.74 405.24 233.83 398.22 234.9C392.34 235.79 386.35 235.94 380.43 235.32C381.59 226.83 385.84 216.5 380.58 204.5C376.53 195.26 367.87 191.45 367.87 191.45C376.32 192.19 380.28 192.27 388.61 190.68C403.47 187.85 417.62 181.51 429.75 172.5C441.83 163.52 451.86 151.84 458.51 138.32C458.66 138.01 459.09 137.86 459.37 138.12C465.72 143.94 473.02 148.66 480.93 152.07C494.9 158.09 510.49 159.93 525.45 157.07C540.36 154.23 554.38 146.93 565.2 136.26C565.59 135.88 566.25 136.12 566.19 136.7C565.45 143.7 566.19 150.81 568.31 157.52C571.54 167.7 577.83 176.75 586.36 183.11C586.53 187.77 587.28 192.36 588.69 196.84Z" fill="#22224D"/>
</g>
<g style="mix-blend-mode:multiply" opacity="0.3">
<path d="M672.62 295.06C665.64 300.53 657.48 304.52 648.83 306.45C641.01 308.19 632.77 308.17 625.08 305.8C618.24 303.69 612.3 299.65 607.79 294.09C599.75 284.16 599.48 272.17 602.72 258.1C595.31 261.49 587.84 264.83 580.08 267.34C572.83 269.68 565.29 271.28 557.65 271.38C551.73 271.46 545.83 270.47 540.27 268.41C539.08 267.97 537.91 267.48 536.75 266.93C536.6 267.04 536.46 267.16 536.32 267.27C530.81 271.75 526.85 277.9 525.32 284.85C523.78 291.9 524.67 299.49 527.74 306.01C530.82 312.54 536.07 317.75 542.58 320.86C544.96 322 547.5 322.87 550.1 323.43C550.26 324.5 550.45 325.58 550.7 326.64C552.38 333.7 556.08 340.12 561.4 345.06C566.69 349.97 573.35 353.31 580.37 354.87C581.65 355.15 582.94 355.35 584.23 355.51C586.42 361.94 590.39 367.69 595.62 372.01C600.95 376.42 607.44 379.35 614.2 380.7C621.17 382.1 628.38 381.72 635.22 379.85C637.97 379.09 640.66 378.09 643.26 376.88C643.65 377.64 644.06 378.39 644.5 379.12C649.35 374.83 653.58 369.84 657.14 364.42C663.52 354.72 667.67 343.73 670.04 332.4C672.6 320.14 673.13 307.55 672.62 295.06Z" fill="#22224D"/>
</g>
<g style="mix-blend-mode:multiply" opacity="0.3">
<path d="M408.2 394.2C406.58 396.15 404.32 397.55 401.86 398.17C401.87 398.77 401.87 399.36 401.86 399.95C401.67 410.47 399.55 420.97 395.91 430.82C392.24 440.78 386.94 450.16 380.25 458.4C373.84 466.29 366.14 473.14 357.59 478.64C351.02 482.87 343.98 486.25 336.62 488.77C335.35 493.76 333.54 498.62 331.29 503.19C327.44 511 322.23 518.15 315.91 524.14C309.4 530.32 301.76 535.19 293.41 538.46C284.81 541.84 275.55 543.55 266.31 543.53C262.47 543.52 258.64 543.19 254.86 542.58C254.35 545.34 253.44 548.04 252.16 550.49C249.69 555.24 245.88 559.14 241.17 561.68C236.46 564.21 231.03 565.37 225.7 564.94C217.77 564.29 210.49 559.87 205.92 553.47C204.63 554.47 203.3 555.41 201.91 556.26C195.92 559.93 189.03 562.01 181.99 561.98C174.97 561.94 167.96 559.96 162.1 556.04C156.97 552.6 153.02 547.66 150.69 541.98C149.88 544.82 148.85 547.6 147.61 550.26C149.36 540.01 149.55 529.5 148.13 519.13C148.07 518.62 148.65 518.41 149.02 518.65C155.68 523.04 163.18 526.08 171 527.63C184.35 530.27 198.31 528.51 210.48 522.39C222.1 516.54 231.79 507.04 237.78 495.49C237.95 495.17 238.34 495.07 238.64 495.29C239.08 495.63 239.54 495.95 240 496.27C244.92 499.19 290.25 501.95 287.3 451.94L283.22 437.53C283.22 437.53 300.05 433.57 306.82 424.95C306.41 424.35 307.28 423.73 307.73 424.3C308.24 424.93 308.72 425.58 309.19 426.24C313.52 431.65 319.46 435.59 326.05 437.77C339.41 442.19 354.54 438.95 363.81 428.07C372.67 417.67 375.54 402.28 369.97 389.66C369.78 389.23 370.19 388.88 370.58 388.9C377.65 389.13 384.73 388 391.39 385.63C396.59 383.77 401.49 381.17 405.91 377.92C407.32 378.95 408.46 380.32 409.28 381.89C411.32 385.84 411.08 390.74 408.2 394.2Z" fill="#22224D"/>
</g>
<path d="M136.57 407.83C145.98 401.66 157.82 399.5 168.82 401.9C179.06 404.14 188.08 410.42 194.01 419.04C197.32 423.85 199.61 429.28 200.71 435.02C200.89 435.97 202.07 435.87 202.54 435.26C211.86 423.06 223.84 411.69 239.45 408.75C246.98 407.34 254.89 408.14 261.69 411.78C268.01 415.16 273.12 420.5 276.86 426.56C281.7 434.39 284.36 443.3 286.34 452.22C286.46 452.75 287.07 453.05 287.57 452.92C305.53 448.13 327.05 456.46 334.03 474.43C335.8 478.99 336.5 483.86 336.02 488.73C335.89 490.01 337.89 490 338.02 488.73C338.95 479.41 335.54 470.1 329.4 463.11C322.91 455.71 313.46 451.25 303.79 449.96C298.2 449.21 292.5 449.54 287.04 451C287.45 451.23 287.86 451.47 288.27 451.7C284.84 436.27 278.75 419.99 264.7 411.23C250.62 402.45 232.91 406 219.93 415.08C212.47 420.3 206.32 427.07 200.81 434.27C201.42 434.35 202.03 434.43 202.64 434.51C200.62 423.95 194.54 414.35 186.04 407.8C176.94 400.8 165.31 397.87 153.95 399.36C147.4 400.22 141.09 402.5 135.57 406.12C134.5 406.82 135.5 408.56 136.58 407.85L136.57 407.83Z" fill="#1F2236"/>
<path d="M724.32 570.26C712.42 575.85 699.48 578.68 686.42 579.75C673.21 580.84 659.92 580.23 646.73 579.14C632.96 578 619.24 576.33 605.44 575.59C591.78 574.86 577.97 575 564.47 577.48C552.28 579.73 539.99 583.78 529.92 591.2C520.48 598.16 513.39 608.4 512.15 620.26C511.55 625.95 512.41 631.73 514.92 636.9C517.44 642.1 521.33 646.47 525.56 650.35C530.17 654.57 535.18 658.37 540.1 662.21C545.45 666.39 550.86 670.49 556.5 674.27C562 677.96 567.72 681.34 573.72 684.15C579.67 686.94 586.06 689.16 592.65 689.66C598.56 690.11 604.58 689.11 609.62 685.86C613.95 683.07 617.53 678.83 618.97 673.84C619.42 672.28 619.62 670.67 619.6 669.05C633.3 658.88 648.81 651.22 663.76 643.04C682.72 632.66 701.72 620.71 713.92 602.37C720.17 592.96 724.43 582.16 725.05 570.81C725.07 570.44 724.73 570.04 724.33 570.23L724.32 570.26Z" fill="#573C36"/>
<path d="M310.69 163.13C318.33 161.88 325.18 166.15 330.14 171.63C335.24 177.26 336.96 185.12 337.82 192.45C337.91 193.22 338.59 193.67 339.32 193.31C344.39 190.86 350.32 190.13 355.89 190.13C360.33 190.13 364.76 190.93 368.73 192.96C376.92 197.15 381.26 205.66 381.9 214.61C382.35 220.97 381.18 227.31 379.17 233.33C378.76 234.55 380.69 235.08 381.1 233.86C384.56 223.5 385.67 211.38 380.22 201.47C375.64 193.13 366.87 188.49 357.49 188.15C351.05 187.91 344.14 188.75 338.3 191.58C338.8 191.87 339.3 192.16 339.8 192.44C338.86 184.43 336.96 175.99 331.27 169.92C325.74 164.02 318.43 159.84 310.14 161.19C308.87 161.4 309.41 163.32 310.67 163.12L310.69 163.13Z" fill="#1F2236"/>
<path d="M1047.74 1052.04C1039.7 1046.97 1030.38 1043.32 1024.46 1040.78C988.84 1025.46 950.58 1017.28 912.39 1011.44C819.18 997.19 724.46 996.45 630.18 997.95C563.99 999.01 497.81 1001.16 431.69 1004.41C370.19 1007.43 309.13 1010.48 249.34 1026.58C232.97 1030.87 216.9 1036.11 201.51 1042.67C194.27 1045.76 187.19 1049.14 180.32 1052.84C174.32 1056.07 168.04 1059.49 163.66 1064.47C143.53 1087.36 192.14 1105.08 209.24 1111.02C239.85 1121.66 272.66 1126.29 305.21 1129.31C342.2 1132.74 379.39 1134.74 416.56 1135.94C535.31 1139.76 537.91 1171.26 656.68 1169.49C841.41 1166.75 934.41 1140.82 1013.07 1112.82C1027.04 1107.85 1066.57 1091.15 1063.07 1070.55C1061.77 1062.91 1055.33 1056.83 1047.73 1052.03L1047.74 1052.04Z" fill="#568763"/>
<path d="M408.38 1023.52C405.38 1018.34 398.14 1014.77 392.4 1017.48C391.91 1017.71 391.45 1018 391.01 1018.31C385.05 1007.16 376.11 997.7 365.32 991.12C362.81 989.59 360.2 988.08 357.4 987.17C354.91 986.35 352.14 985.85 349.54 986.44C346.99 987.02 344.95 988.76 344.2 991.29C343.25 994.47 344.21 997.99 345.05 1001.09C346.13 1005.09 347.68 1008.95 349.62 1012.6C346.92 1009.67 344.04 1006.9 340.98 1004.35C338.05 1001.9 334.96 999.63 331.74 997.57C328.63 995.58 325.38 993.6 321.96 992.18C319.03 990.97 315.4 990.03 312.37 991.45C309.3 992.89 308.16 996.09 308.18 999.29C308.2 1002.87 309.34 1006.45 310.37 1009.85C311.53 1013.67 312.91 1017.42 314.51 1021.07C317.68 1028.32 321.7 1035.21 326.48 1041.52C323.01 1039.4 319.35 1037.58 315.53 1036.16C313.15 1035.27 310.72 1034.53 308.26 1033.93C306.28 1033.45 304.24 1032.98 302.19 1033.27C300.56 1033.5 298.88 1034.27 298.3 1035.93C297.54 1038.12 299.01 1040.15 300.47 1041.65C308.25 1049.66 318.05 1053.99 328.88 1056.69C340.14 1059.49 351.68 1059.81 363.06 1057.54C373.59 1055.44 383.75 1051.8 394.06 1048.87C395.55 1048.45 396.72 1049.03 397.41 1049.99C400.13 1048.47 402.63 1046.58 404.72 1044.18C409.45 1038.75 412.25 1030.23 408.39 1023.56L408.38 1023.52Z" fill="#4C946C"/>
<path d="M326.81 1042.57C336.15 1047.11 345.5 1051.64 354.84 1056.18C355.99 1056.74 357.01 1055.02 355.85 1054.45C346.51 1049.91 337.16 1045.38 327.82 1040.84C326.67 1040.28 325.65 1042 326.81 1042.57Z" fill="#1F2236"/>
<path d="M348.67 1014.24C357.57 1024.31 364.11 1036.33 367.75 1049.27C368.1 1050.51 370.03 1049.98 369.68 1048.74C365.94 1035.46 359.22 1023.16 350.09 1012.82C349.24 1011.85 347.83 1013.27 348.68 1014.23L348.67 1014.24Z" fill="#1F2236"/>
<path d="M651.34 900.17H494.4C492.6 900.17 490.83 900.54 489.19 901.27L448.01 919.4H607.68L651.35 900.18L651.34 900.17Z" fill="#EDA972"/>
<path d="M492.39 892.35C490.59 892.35 488.82 892.72 487.18 893.45L446 911.58H605.67L649.34 892.36H492.4L492.39 892.35Z" fill="#EDA972"/>
<path d="M787.84 730.47L648.63 804.73L604.97 847.25L764.63 762.07L787.84 730.47Z" fill="#EDA972"/>
<path d="M660.59 809.38C663.33 807.92 666.06 806.46 668.8 805C675.33 801.51 681.87 798.03 688.4 794.54C696.34 790.31 704.28 786.07 712.22 781.84C719.05 778.19 725.89 774.55 732.72 770.9C734.99 769.69 737.27 768.47 739.54 767.26C740.59 766.7 741.74 766.2 742.74 765.55C742.78 765.52 742.83 765.5 742.88 765.47C744.02 764.86 743.01 763.14 741.87 763.74C739.13 765.2 736.4 766.66 733.66 768.12C727.13 771.61 720.59 775.09 714.06 778.58C706.12 782.81 698.18 787.05 690.24 791.28C683.41 794.93 676.57 798.57 669.74 802.22C667.47 803.43 665.19 804.65 662.92 805.86C661.87 806.42 660.72 806.92 659.72 807.57C659.68 807.6 659.63 807.62 659.58 807.65C658.44 808.26 659.45 809.98 660.59 809.38Z" fill="#1F2236"/>
<path d="M876.77 980.21C873.97 979.23 870.98 978.97 868.04 978.78C865.21 978.6 862.37 978.55 859.53 978.63C848.13 978.92 836.81 981.22 826.11 985.13C821.18 986.93 816.39 989.1 811.76 991.56C817.01 987.17 822.01 982.48 826.7 977.5C831.66 972.25 836.29 966.69 840.55 960.86C842.62 958.03 844.92 955.14 846.18 951.84C847.32 948.86 847.34 945.34 844.69 943.14C842 940.91 838.3 941.07 835.14 942C831.74 943 828.44 944.56 825.28 946.14C819.08 949.24 813.25 953.05 807.84 957.38C796.77 966.25 787.52 977.18 779.78 989.03C772.97 999.47 767.27 1010.57 762.1 1021.9C761.05 1022.99 760.02 1024.1 759.03 1025.25C756.6 1028.08 754.31 1031.07 752.34 1034.25C750.49 1037.25 748.78 1040.93 749.55 1044.54C751.04 1051.52 759.84 1052.65 765.62 1053.61C773.54 1054.93 781.57 1055.54 789.59 1055.54C805.94 1055.54 822.21 1052.98 837.98 1048.77C845.83 1046.67 853.58 1044.15 861.18 1041.28C864.57 1040 868.32 1038.66 870.38 1035.47C872.19 1032.67 871.95 1029.33 869.69 1026.87C867.41 1024.38 864.1 1023.07 861.05 1021.81C857.29 1020.25 853.45 1018.9 849.54 1017.76C841.82 1015.5 833.87 1014.08 825.85 1013.52C835.99 1012.16 846.11 1010.58 855.98 1007.84C861.88 1006.2 867.67 1004.14 873.18 1001.48C877.46 999.41 882.6 996.59 884.05 991.69C885.61 986.42 881.43 981.87 876.74 980.22L876.77 980.21Z" fill="#4C946C"/>
<path d="M762.62 1040.79C774.45 1026.86 787.39 1013.88 801.29 1002.02C805.2 998.69 809.18 995.45 813.23 992.29C814.24 991.5 812.82 990.09 811.82 990.88C797.4 1002.11 783.88 1014.48 771.43 1027.86C767.93 1031.62 764.53 1035.46 761.2 1039.38C760.37 1040.36 761.78 1041.78 762.61 1040.79H762.62Z" fill="#1F2236"/>
<path d="M752.54 1052.58C769.47 1039.3 788.42 1028.58 808.52 1020.92C814.23 1018.74 820.04 1016.81 825.92 1015.13C827.15 1014.78 826.63 1012.85 825.39 1013.2C804.39 1019.23 784.3 1028.43 766.04 1040.43C760.92 1043.8 755.95 1047.39 751.13 1051.17C750.12 1051.96 751.54 1053.37 752.54 1052.58Z" fill="#1F2236"/>
<path d="M816.23 1048.06C814.32 1046.4 812.24 1044.96 810.16 1043.51L802.29 1038.01C793.02 1031.54 783.75 1025.07 774.48 1018.61C774.77 983.31 751.28 952.6 731.31 925.12C719.86 909.35 709.33 893.19 701.84 875.12C694.72 857.96 689.84 839.98 685.61 821.92C677.3 786.39 671.42 749.74 655.85 716.42C642.19 687.21 620.63 662.09 594.4 643.41C569.06 625.37 539.37 613.32 508.49 609.33C508.15 607.79 507.26 606.43 506.04 605.39C504.35 603.94 502.21 603.14 500.1 602.54C497.46 601.79 494.73 601.34 491.99 601.13C481.14 600.3 470.18 603.02 459.99 606.52C458.21 607.13 456.44 607.79 454.68 608.46C438.4 615.95 403.69 591.17 388.42 600.98C381.29 605.56 388.09 622.5 385.52 649.66C403.18 662.16 420.84 674.66 438.52 687.14C458.11 700.97 477.97 714.53 496.43 729.87C504.82 736.84 513.68 744.07 519.9 753.13C523.06 757.74 525.3 762.85 526.34 768.35C527.44 774.15 527.4 780.1 527.03 785.98C526.67 791.73 526.05 797.46 525.69 803.21C525.33 808.96 525.14 814.72 525.1 820.49C525.02 832.19 525.61 843.89 526.84 855.53C529.04 876.24 531.88 899.51 538.13 919.38H535.99C530.07 928.89 525.5 930.03 518.85 938.38C511.85 947.17 503.17 968.45 495.64 976.78C488.03 985.2 480.44 993.65 473.47 1002.61C470.33 1006.64 467.29 1010.77 464.54 1015.08C461.63 1016.97 458.72 1018.87 455.83 1020.8C451.04 1024 446.02 1027.1 441.71 1030.95C437.9 1034.35 434.65 1038.7 433.89 1043.87C432.48 1053.42 435.81 1056.44 444.41 1057.99C450.31 1059.05 479.17 1059.54 485.13 1059.43C497.17 1059.22 509.16 1060.67 521.05 1062.38C532.87 1064.09 544.66 1066.09 556.56 1067.14C568.36 1068.18 580.16 1068.07 591.9 1066.43C602.84 1064.9 613.59 1062.25 624.13 1058.99C632.98 1056.25 642.24 1053.43 651.17 1050.6C661.66 1047.28 666.41 1044.25 675.28 1047.49C681.93 1049.92 691.47 1058.97 698.14 1061.35C705.1 1063.83 712.45 1064.26 719.78 1064.15C735.8 1063.92 751.82 1063.19 767.83 1062.7C783.87 1062.21 799.9 1061.71 815.94 1061.2C817.25 1061.16 818.57 1061.12 819.88 1061.07C820.44 1061.05 821.46 1061.03 822 1060.87C822.69 1060.67 822.77 1059.51 822.76 1059.44C822.64 1054.77 819.58 1050.97 816.2 1048.04L816.23 1048.06Z" fill="#573C36"/>
<path d="M481.75 609.39C502.47 610.13 523.07 613.78 542.78 620.23C561.62 626.4 579.68 635.14 595.89 646.59C604.55 652.71 612.64 659.62 619.93 667.32C620.82 668.26 622.23 666.84 621.34 665.91C608.05 651.88 592.12 640.47 574.99 631.57C556.75 622.1 537.09 615.39 516.93 611.44C505.33 609.17 493.55 607.81 481.74 607.39C480.45 607.34 480.45 609.34 481.74 609.39H481.75Z" fill="#1F2236"/>
<path d="M283.09 434.85L305.77 462.7L312.62 417.34L283.09 434.85Z" fill="#FFCA57"/>
<path d="M321.39 409.49L340.99 428.92L343.49 387.17L321.39 409.49Z" fill="#FFA1C5"/>
<path d="M353.399 379.5L375.459 399.94L373.969 350.81L353.399 379.5Z" fill="white"/>
<path d="M282.83 436.78C298.21 428.23 312.57 417.87 325.82 406.3C339.35 394.49 351.76 381.35 362.62 367.04C368.55 359.23 374 351.05 378.82 342.5C379.45 341.38 377.73 340.37 377.09 341.49C368.52 356.68 357.99 370.71 346.23 383.56C334.16 396.76 320.78 408.79 306.33 419.33C298.48 425.05 290.31 430.32 281.82 435.05C280.7 435.68 281.7 437.4 282.83 436.78Z" fill="#1F2236"/>
<path d="M860.47 746.94H785.79L742.12 766.16H830.15L861.6 752.32C864.38 751.1 863.51 746.94 860.47 746.94Z" fill="#EDA972"/>
<path d="M778.95 487.94H773.95V562.33H778.95V487.94Z" fill="#70453A"/>
<path d="M831.64 484.83H732.2V491.05H831.64V484.83Z" fill="#70453A"/>
<path d="M551.08 352.17H380.75V612.84H551.08V352.17Z" fill="#EDA972"/>
<g style="mix-blend-mode:multiply" opacity="0.3">
<path d="M399.729 352.17C406.789 353.88 413.869 355.53 420.969 357.1C440.649 361.46 460.449 365.28 480.339 368.56C500.139 371.82 520.02 374.54 539.96 376.72C543.67 377.12 547.38 377.51 551.09 377.87V352.17H399.729Z" fill="#22224D"/>
</g>
<path d="M538.689 570.17L352.609 613.5L352.689 624.17H658.419L844.419 570.17V558.83L538.689 570.17Z" fill="#EDA972"/>
<path d="M354.17 615.42H379.53C380.82 615.42 380.82 613.42 379.53 613.42H354.17C352.88 613.42 352.88 615.42 354.17 615.42Z" fill="#1F2236"/>
<path d="M551.08 518.94H380.75V613.5H551.08V518.94Z" fill="#FFF1E8"/>
<path d="M382.36 531.83H550.86C552.15 531.83 552.15 529.83 550.86 529.83H382.36C381.07 529.83 381.07 531.83 382.36 531.83Z" fill="#1F2236"/>
<path d="M411.48 353.27C411.53 358.1 411.57 362.93 411.6 367.76C411.65 374.89 411.68 382.02 411.72 389.16C411.76 398.1 411.8 407.03 411.84 415.97C411.88 426.06 411.92 436.15 411.96 446.24C412 457.02 412.04 467.79 412.08 478.57C412.12 489.41 412.16 500.26 412.2 511.1C412.24 521.4 412.28 531.7 412.32 541.99C412.36 551.27 412.39 560.55 412.44 569.84C412.47 577.46 412.51 585.07 412.56 592.69C412.59 598.14 412.63 603.6 412.68 609.05C412.68 609.98 412.7 610.91 412.71 611.85C412.72 613.14 414.72 613.14 414.71 611.85C414.66 607.02 414.62 602.19 414.59 597.36C414.54 590.23 414.51 583.1 414.47 575.96C414.43 567.02 414.39 558.09 414.35 549.15C414.31 539.06 414.27 528.97 414.23 518.88C414.19 508.1 414.15 497.33 414.11 486.55C414.07 475.71 414.03 464.86 413.99 454.02C413.95 443.72 413.91 433.42 413.87 423.13C413.83 413.85 413.8 404.57 413.75 395.28C413.72 387.66 413.68 380.05 413.63 372.43C413.6 366.98 413.56 361.52 413.51 356.07C413.51 355.14 413.49 354.21 413.48 353.27C413.47 351.98 411.47 351.98 411.48 353.27Z" fill="#1F2236"/>
<path d="M439.829 351.49C439.909 356.13 439.959 360.77 439.999 365.4C440.069 372.5 440.119 379.6 440.169 386.71C440.229 395.74 440.289 404.76 440.339 413.79C440.399 424.1 440.459 434.42 440.509 444.73C440.569 455.67 440.619 466.62 440.679 477.56C440.739 488.63 440.789 499.69 440.849 510.76C440.899 521.25 440.959 531.74 441.019 542.22C441.069 551.62 441.129 561.02 441.189 570.42C441.239 578.07 441.289 585.72 441.359 593.37C441.409 598.65 441.449 603.93 441.529 609.21C441.539 610.08 441.559 610.96 441.569 611.83C441.589 613.12 443.589 613.12 443.569 611.83C443.489 607.19 443.439 602.55 443.399 597.92C443.329 590.82 443.279 583.72 443.229 576.61C443.169 567.58 443.109 558.56 443.059 549.53C442.999 539.22 442.939 528.9 442.889 518.59C442.829 507.65 442.779 496.7 442.719 485.76C442.659 474.69 442.609 463.63 442.549 452.56C442.499 442.07 442.439 431.58 442.379 421.1C442.329 411.7 442.269 402.3 442.209 392.9C442.159 385.25 442.109 377.6 442.039 369.95C441.989 364.67 441.949 359.39 441.869 354.11C441.859 353.24 441.839 352.36 441.829 351.49C441.809 350.2 439.809 350.2 439.829 351.49Z" fill="#1F2236"/>
<path d="M473.82 354.17C473.76 358.55 473.73 362.93 473.7 367.31C473.65 374.27 473.609 381.24 473.579 388.2C473.539 397.17 473.499 406.14 473.459 415.12C473.419 425.39 473.38 435.66 473.34 445.93C473.3 456.91 473.26 467.89 473.22 478.86C473.18 489.96 473.14 501.07 473.1 512.17C473.06 522.67 473.02 533.17 472.98 543.67C472.94 553.03 472.899 562.38 472.859 571.74C472.819 579.24 472.789 586.74 472.739 594.24C472.709 599.31 472.68 604.39 472.62 609.46C472.62 610.25 472.6 611.03 472.59 611.82C472.57 613.11 474.57 613.11 474.59 611.82C474.65 607.44 474.679 603.06 474.709 598.68C474.759 591.72 474.799 584.75 474.829 577.79C474.869 568.82 474.91 559.85 474.95 550.87C474.99 540.6 475.03 530.33 475.07 520.06C475.11 509.08 475.15 498.1 475.19 487.13C475.23 476.03 475.27 464.92 475.31 453.82C475.35 443.32 475.39 432.82 475.43 422.32C475.47 412.96 475.509 403.61 475.549 394.25C475.589 386.75 475.62 379.25 475.67 371.75C475.7 366.68 475.73 361.6 475.79 356.53C475.79 355.74 475.81 354.96 475.82 354.17C475.84 352.88 473.84 352.88 473.82 354.17Z" fill="#1F2236"/>
<path d="M504.33 353.27C504.25 357.68 504.21 362.1 504.17 366.51C504.1 373.53 504.06 380.55 504.01 387.57C503.95 396.52 503.9 405.47 503.85 414.43C503.79 424.76 503.74 435.09 503.69 445.42C503.64 456.41 503.58 467.4 503.53 478.39C503.48 489.51 503.42 500.62 503.37 511.74C503.32 522.3 503.26 532.86 503.21 543.42C503.16 552.79 503.11 562.17 503.05 571.54C503 579.06 502.95 586.58 502.89 594.11C502.85 599.22 502.8 604.33 502.73 609.43C502.72 610.23 502.71 611.03 502.69 611.83C502.67 613.12 504.67 613.12 504.69 611.83C504.77 607.42 504.81 603 504.85 598.59C504.92 591.57 504.96 584.55 505.01 577.53C505.07 568.58 505.12 559.63 505.17 550.67C505.23 540.34 505.28 530.01 505.33 519.68C505.38 508.69 505.44 497.7 505.49 486.71C505.54 475.59 505.6 464.48 505.65 453.36C505.7 442.8 505.76 432.24 505.81 421.68C505.86 412.31 505.91 402.93 505.97 393.56C506.02 386.04 506.07 378.52 506.13 370.99C506.17 365.88 506.22 360.77 506.29 355.67C506.3 354.87 506.31 354.07 506.33 353.27C506.35 351.98 504.35 351.98 504.33 353.27Z" fill="#1F2236"/>
<path d="M530.21 353.27C529.81 366.93 529.56 380.6 529.31 394.27C528.98 412.54 528.69 430.8 528.41 449.07C528.1 469.06 527.81 489.05 527.51 509.03C527.23 527.65 526.94 546.27 526.61 564.89C526.36 579.23 526.09 593.57 525.71 607.91C525.68 609.22 525.64 610.52 525.6 611.83C525.56 613.12 527.56 613.12 527.6 611.83C528 598.17 528.25 584.5 528.5 570.83C528.83 552.56 529.12 534.3 529.4 516.03C529.71 496.04 530 476.05 530.3 456.07C530.58 437.45 530.87 418.83 531.2 400.21C531.45 385.87 531.72 371.53 532.1 357.19C532.14 355.88 532.17 354.58 532.21 353.27C532.25 351.98 530.25 351.98 530.21 353.27Z" fill="#1F2236"/>
<path d="M392.51 354.84C392.29 368.55 392.21 382.25 392.14 395.96C392.05 414.03 392.01 432.11 391.99 450.18C391.97 469.83 391.96 489.48 391.97 509.13C391.97 527.56 391.98 546 391.98 564.43C391.98 578.86 391.98 593.28 391.94 607.71C391.94 609.08 391.94 610.46 391.93 611.83C391.93 613.12 393.93 613.12 393.93 611.83C393.98 598.1 393.98 584.36 393.98 570.63C393.98 552.54 393.98 534.46 393.97 516.37C393.97 496.72 393.97 477.07 393.98 457.42C394 439 394.03 420.58 394.11 402.16C394.17 387.76 394.25 373.36 394.44 358.96C394.46 357.59 394.48 356.22 394.5 354.85C394.52 353.56 392.52 353.56 392.5 354.85L392.51 354.84Z" fill="#1F2236"/>
<path d="M517.72 424.33H404.24C402.047 424.33 400.27 426.107 400.27 428.3V539.53C400.27 541.723 402.047 543.5 404.24 543.5H517.72C519.912 543.5 521.69 541.723 521.69 539.53V428.3C521.69 426.107 519.912 424.33 517.72 424.33Z" fill="#70453A"/>
<path d="M551.09 612.83L737.09 558.83V329.06L551.09 352.17V612.83Z" fill="#EDA972"/>
<path d="M551.09 613.5L737.09 558.83V464.28L551.09 518.94V613.5Z" fill="#FFF1E8"/>
<path d="M594.76 370.5C594.73 390.91 594.7 411.33 594.67 431.75C594.67 437.56 594.65 443.37 594.64 449.18C594.64 450.47 596.64 450.47 596.64 449.18C596.67 428.77 596.7 408.35 596.73 387.93C596.73 382.12 596.75 376.31 596.76 370.5C596.76 369.21 594.76 369.21 594.76 370.5Z" fill="#1F2236"/>
<path d="M617.679 376.83C617.599 393.91 617.509 411 617.429 428.08C617.409 433 617.379 437.91 617.359 442.83C617.359 444.12 619.349 444.12 619.359 442.83C619.439 425.75 619.529 408.66 619.609 391.58C619.629 386.66 619.659 381.75 619.679 376.83C619.679 375.54 617.689 375.54 617.679 376.83Z" fill="#1F2236"/>
<path d="M669.029 399.51C669.129 407.1 669.119 414.68 669.139 422.27C669.169 435.61 669.179 448.96 669.199 462.3C669.209 477.61 669.219 492.93 669.239 508.24C669.249 522.03 669.259 535.82 669.289 549.61C669.309 558.09 669.309 566.56 669.389 575.04C669.389 575.53 669.399 576.01 669.409 576.5C669.429 577.79 671.429 577.79 671.409 576.5C671.309 568.91 671.319 561.32 671.299 553.74C671.269 540.4 671.259 527.05 671.239 513.71C671.229 498.4 671.219 483.08 671.199 467.77C671.189 453.98 671.179 440.19 671.149 426.4C671.129 417.92 671.129 409.45 671.049 400.97C671.049 400.48 671.039 400 671.029 399.51C671.009 398.22 669.009 398.22 669.029 399.51Z" fill="#1F2236"/>
<path d="M639.97 398.83C640.08 423.62 640.18 448.41 640.29 473.2C640.32 480.19 640.35 487.18 640.38 494.16C640.38 495.45 642.39 495.45 642.38 494.16C642.27 469.37 642.17 444.58 642.06 419.79C642.03 412.8 642 405.81 641.97 398.83C641.97 397.54 639.96 397.54 639.97 398.83Z" fill="#1F2236"/>
<path d="M689.6 397.65C689.8 404.89 689.81 412.15 689.87 419.39C689.98 432.35 690.06 445.31 690.14 458.26C690.23 473.22 690.32 488.18 690.41 503.13C690.49 516.49 690.57 529.85 690.68 543.21C690.74 551.35 690.78 559.5 690.95 567.65C690.95 568.11 690.97 568.57 690.98 569.03C691.02 570.31 693.02 570.32 692.98 569.03C692.78 561.79 692.77 554.53 692.71 547.29C692.6 534.33 692.52 521.38 692.44 508.42C692.35 493.46 692.26 478.5 692.17 463.55C692.09 450.19 692.01 436.83 691.9 423.47C691.84 415.33 691.8 407.18 691.63 399.03C691.63 398.57 691.61 398.11 691.6 397.65C691.56 396.37 689.56 396.36 689.6 397.65Z" fill="#1F2236"/>
<path d="M711.689 384.16C711.749 392.33 711.769 400.5 711.789 408.67C711.829 422.02 711.86 435.36 711.89 448.71C711.93 463.86 711.959 479.02 711.989 494.17C712.019 507.88 712.05 521.59 712.09 535.3C712.12 544.31 712.139 553.32 712.189 562.32C712.189 562.92 712.19 563.52 712.2 564.12C712.2 565.41 714.21 565.41 714.2 564.12C714.14 555.95 714.119 547.78 714.099 539.61C714.059 526.26 714.029 512.92 713.999 499.57C713.959 484.42 713.93 469.26 713.9 454.11C713.87 440.4 713.839 426.69 713.799 412.98C713.769 403.97 713.75 394.96 713.7 385.96C713.7 385.36 713.699 384.76 713.689 384.16C713.689 382.87 711.679 382.87 711.689 384.16Z" fill="#1F2236"/>
<path d="M571.51 361.5C570.62 393.06 569.98 424.63 569.58 456.2C569.18 487.78 569.03 519.37 569.11 550.95C569.16 568.74 569.29 586.52 569.49 604.31C569.5 605.6 571.5 605.6 571.49 604.31C571.13 572.73 571.01 541.14 571.13 509.56C571.25 477.98 571.62 446.4 572.24 414.82C572.58 397.04 573.01 379.27 573.51 361.5C573.55 360.21 571.55 360.21 571.51 361.5Z" fill="#1F2236"/>
<path d="M551.13 531.8C575.42 525.1 599.57 517.93 623.67 510.57C647.76 503.21 671.79 495.67 695.86 488.24C709.29 484.1 722.72 479.99 736.18 475.96C737.41 475.59 736.89 473.66 735.65 474.03C711.59 481.22 687.6 488.69 663.62 496.14C639.54 503.62 615.46 511.07 591.29 518.22C577.76 522.22 564.2 526.12 550.6 529.87C549.36 530.21 549.89 532.14 551.13 531.8Z" fill="#1F2236"/>
<path d="M721.08 410.04L658.47 421.78C657.39 421.98 656.6 422.93 656.6 424.03V520.92C656.6 522.45 658.06 523.55 659.53 523.12L722.14 504.94C723.12 504.66 723.79 503.76 723.79 502.74V412.29C723.79 410.86 722.49 409.77 721.08 410.04Z" fill="#EDA972"/>
<path d="M717.16 417.22L662.49 427.47C661.54 427.65 660.86 428.47 660.86 429.44V514.04C660.86 515.37 662.14 516.33 663.42 515.96L718.09 500.09C718.94 499.84 719.53 499.06 719.53 498.17V419.19C719.53 417.94 718.39 416.99 717.16 417.22Z" fill="#1F2236"/>
<path d="M688.98 419.33V511.89C688.98 513.18 690.98 513.18 690.98 511.89V419.33C690.98 418.04 688.98 418.04 688.98 419.33Z" fill="#EDA972"/>
<path d="M722.59 442.42C705.41 446.53 688.23 450.64 671.04 454.75C666.12 455.93 661.2 457.1 656.28 458.28C655.03 458.58 655.56 460.51 656.81 460.21C673.99 456.1 691.17 451.99 708.36 447.88C713.28 446.7 718.2 445.53 723.12 444.35C724.37 444.05 723.84 442.12 722.59 442.42Z" fill="#EDA972"/>
<path d="M641.42 423.16L582.1 434.83C581.12 435.02 580.41 435.88 580.41 436.88V604.31L643.91 585.87V425.2C643.91 423.88 642.71 422.89 641.42 423.15V423.16Z" fill="#C27F4A"/>
<path d="M626.09 444.33V492C626.09 492.55 625.72 493.04 625.19 493.19L599.81 500.19C599.03 500.41 598.25 499.82 598.25 499V449.32C598.25 448.73 598.67 448.22 599.24 448.11L624.62 443.12C625.38 442.97 626.09 443.55 626.09 444.33Z" fill="#1F2236"/>
<path d="M611.17 444V499.33C611.17 500.62 613.17 500.62 613.17 499.33V444C613.17 442.71 611.17 442.71 611.17 444Z" fill="#C27F4A"/>
<path d="M602.749 510.14C602.329 509.14 601.649 508.39 600.679 508.07C598.539 507.39 596.479 507.98 595.229 511.8C594.019 515.51 596.459 520.51 600.569 518.46C603.169 517.16 603.839 512.7 602.749 510.14Z" fill="#1F2236"/>
<path d="M638.99 585.89V449.72C638.99 443.47 639.21 437.17 638.99 430.92C638.99 430.84 638.99 430.75 638.99 430.66C638.99 429.97 638.35 429.57 637.72 429.7C631.89 430.84 626.05 431.98 620.22 433.12C610.97 434.93 601.72 436.74 592.47 438.55C590.34 438.97 588.21 439.38 586.07 439.8C585.64 439.88 585.34 440.35 585.34 440.76V581.5C585.34 587.98 585.13 594.49 585.34 600.97C585.34 601.06 585.34 601.15 585.34 601.24C585.34 602.53 587.34 602.53 587.34 601.24V443.18C587.34 442.49 587.45 441.71 587.34 441.03C587.33 440.94 587.34 440.85 587.34 440.76C587.1 441.08 586.85 441.4 586.61 441.72C592.44 440.58 598.28 439.44 604.11 438.3C613.36 436.49 622.61 434.68 631.86 432.87C633.99 432.45 636.12 432.04 638.26 431.62C637.84 431.3 637.42 430.98 636.99 430.66V566.83C636.99 573.08 636.77 579.38 636.99 585.63C636.99 585.71 636.99 585.8 636.99 585.89C636.99 587.18 638.99 587.18 638.99 585.89Z" fill="#1F2236"/>
<path d="M579.42 511.17V602.84C579.42 604.13 581.42 604.13 581.42 602.84V511.17C581.42 509.88 579.42 509.88 579.42 511.17Z" fill="#1F2236"/>
<path d="M643.09 492.56V584.71C643.09 586 645.09 586 645.09 584.71V492.56C645.09 491.27 643.09 491.27 643.09 492.56Z" fill="#1F2236"/>
<g style="mix-blend-mode:multiply" opacity="0.3">
<path d="M551.09 612.83L737.09 558.83V329.06L551.09 352.17V612.83Z" fill="#22224D"/>
</g>
<path d="M658.42 612.83L844.42 558.83H737.09L551.09 612.83H658.42Z" fill="#EDA972"/>
<g style="mix-blend-mode:multiply" opacity="0.3">
<path d="M737.09 558.83L604.92 597.2C635.58 597.99 666.31 598.62 677.97 598.81C687.67 598.96 696.37 599.34 704.89 599.34L844.42 558.83H737.09Z" fill="#22224D"/>
</g>
<path d="M758.95 509.28H753.95V584.92H758.95V509.28Z" fill="#70453A"/>
<path d="M725.57 516.05H720.57V594.64H725.57V516.05Z" fill="#70453A"/>
<path d="M796.729 497.39H791.729V574.02H796.729V497.39Z" fill="#70453A"/>
<path d="M550.09 353.63V611.17C550.09 612.46 552.09 612.46 552.09 611.17V353.63C552.09 352.34 550.09 352.34 550.09 353.63Z" fill="#1F2236"/>
<path d="M514.419 429.5H407.529C406.425 429.5 405.529 430.395 405.529 431.5V536.33C405.529 537.435 406.425 538.33 407.529 538.33H514.419C515.524 538.33 516.419 537.435 516.419 536.33V431.5C516.419 430.395 515.524 429.5 514.419 429.5Z" fill="#1F2236"/>
<path d="M439.979 426.94V541.55C439.979 542.84 441.979 542.84 441.979 541.55V426.94C441.979 425.65 439.979 425.65 439.979 426.94Z" fill="#70453A"/>
<path d="M479.98 426.28V541.56C479.98 542.85 481.98 542.85 481.98 541.56V426.28C481.98 424.99 479.98 424.99 479.98 426.28Z" fill="#70453A"/>
<path d="M401.86 467.61H520.08C521.37 467.61 521.37 465.61 520.08 465.61H401.86C400.57 465.61 400.57 467.61 401.86 467.61Z" fill="#70453A"/>
<path d="M658.31 414.5H650.53V612.83H658.31V414.5Z" fill="#70453A"/>
<path d="M831.64 384.4H823.86V564.44H831.64V384.4Z" fill="#70453A"/>
<path d="M828.63 484.766L720.519 515.991L722.245 521.967L830.356 490.742L828.63 484.766Z" fill="#70453A"/>
<path d="M822.99 735.76C810.73 735.79 751.18 735.83 738.92 735.86C736.83 735.86 734.65 734.7 734.47 732.37C734.32 730.42 735.72 727.93 737.96 727.92C750.22 727.89 809.77 727.85 822.03 727.82C824.12 727.82 826.3 728.98 826.48 731.31C826.63 733.26 825.23 735.75 822.99 735.76Z" fill="#EDA972"/>
<path d="M802.16 702.44C789.9 702.47 730.35 702.51 718.09 702.54C716 702.54 713.82 701.38 713.64 699.05C713.49 697.1 714.89 694.61 717.13 694.6C729.39 694.57 788.94 694.53 801.2 694.5C803.29 694.5 805.47 695.66 805.65 697.99C805.8 699.94 804.4 702.43 802.16 702.44Z" fill="#EDA972"/>
<path d="M780.7 669.19C768.44 669.22 708.89 669.26 696.63 669.29C694.54 669.29 692.36 668.13 692.18 665.8C692.03 663.85 693.43 661.36 695.67 661.35C707.93 661.32 767.48 661.28 779.74 661.25C781.83 661.25 784.01 662.41 784.19 664.74C784.34 666.69 782.94 669.18 780.7 669.19Z" fill="#EDA972"/>
<path d="M760.24 635.85C747.98 635.88 688.43 635.92 676.17 635.95C674.08 635.95 671.9 634.79 671.72 632.46C671.57 630.51 672.97 628.02 675.21 628.01C687.47 627.98 747.02 627.94 759.28 627.91C761.37 627.91 763.55 629.07 763.73 631.4C763.88 633.35 762.48 635.84 760.24 635.85Z" fill="#EDA972"/>
<path d="M676.16 608.86H741.45C742.75 608.86 743.97 609.53 744.65 610.64L839.1 762.19H751.07L666.44 626.35C661.69 618.73 667.17 608.86 676.15 608.86H676.16Z" fill="#EDA972"/>
<path d="M646.59 612.83H734.59L830.15 766.17H742.12L646.59 612.83Z" fill="#EDA972"/>
<path d="M654.92 626.17H741.84C743.13 626.17 743.13 624.17 741.84 624.17H654.92C653.63 624.17 653.63 626.17 654.92 626.17Z" fill="#1F2236"/>
<path d="M742.44 766.06H755.76C757.05 766.06 757.05 764.06 755.76 764.06H742.44C741.15 764.06 741.15 766.06 742.44 766.06Z" fill="#1F2236"/>
<path d="M737.64 758.81L741.58 765.12C741.86 765.56 742.49 765.78 742.95 765.48C743.39 765.19 743.61 764.59 743.31 764.11C742 762.01 740.68 759.9 739.37 757.8C739.09 757.36 738.46 757.14 738 757.44C737.56 757.73 737.34 758.33 737.64 758.81Z" fill="#1F2236"/>
<path d="M447.999 919.39L357.889 1063.98H351.729L353.669 1071.6C353.669 1071.6 353.669 1071.61 353.669 1071.62V1071.65H353.679C353.849 1072.25 354.389 1072.73 355.099 1072.73H438.639C439.769 1072.73 440.829 1072.15 441.419 1071.18L535.979 919.39H447.979H447.999Z" fill="#EDA972"/>
<path d="M534 911.58H446L351.85 1062.65C351.24 1063.64 351.94 1064.91 353.11 1064.91H436.65C437.78 1064.91 438.84 1064.33 439.43 1063.36L533.99 911.57L534 911.58Z" fill="#EDA972"/>
<path d="M363.92 1041.88C376.18 1041.91 435.73 1041.95 447.99 1041.98C450.08 1041.98 452.26 1040.82 452.44 1038.49C452.59 1036.54 451.19 1034.05 448.95 1034.04C436.69 1034.01 377.14 1033.97 364.88 1033.94C362.79 1033.94 360.61 1035.1 360.43 1037.43C360.28 1039.38 361.68 1041.87 363.92 1041.88Z" fill="#EDA972"/>
<path d="M384.75 1008.56C397.01 1008.59 456.56 1008.63 468.82 1008.66C470.91 1008.66 473.09 1007.5 473.27 1005.17C473.42 1003.22 472.02 1000.73 469.78 1000.72C457.52 1000.69 397.97 1000.65 385.71 1000.62C383.62 1000.62 381.44 1001.78 381.26 1004.11C381.11 1006.06 382.51 1008.55 384.75 1008.56Z" fill="#EDA972"/>
<path d="M406.21 975.31C418.47 975.34 478.02 975.38 490.28 975.41C492.37 975.41 494.55 974.25 494.73 971.92C494.88 969.97 493.48 967.48 491.24 967.47C478.98 967.44 419.43 967.4 407.17 967.37C405.08 967.37 402.9 968.53 402.72 970.86C402.57 972.81 403.97 975.3 406.21 975.31Z" fill="#EDA972"/>
<path d="M426.66 941.97C438.92 942 498.47 942.04 510.73 942.07C512.82 942.07 515 940.91 515.18 938.58C515.33 936.63 513.93 934.14 511.69 934.13C499.43 934.1 439.88 934.06 427.62 934.03C425.53 934.03 423.35 935.19 423.17 937.52C423.02 939.47 424.42 941.96 426.66 941.97Z" fill="#EDA972"/>
<path d="M439.72 920.47C451.98 920.5 511.53 920.54 523.79 920.57C525.88 920.57 528.06 919.41 528.24 917.08C528.39 915.13 526.99 912.64 524.75 912.63C512.49 912.6 452.94 912.56 440.68 912.53C438.59 912.53 436.41 913.69 436.23 916.02C436.08 917.97 437.48 920.46 439.72 920.47Z" fill="#EDA972"/>
<path d="M383.95 616.34L381.7 654.66L412.86 634.86L383.95 616.34Z" fill="#FFCA57"/>
<path d="M422.641 639.19L429.161 672.4L451.911 650.25L422.641 639.19Z" fill="#FFA1C5"/>
<path d="M462.53 654.16L477.26 683.01L498.28 659.2L462.53 654.16Z" fill="white"/>
<path d="M613.93 632.11L640.65 645.09L643.92 613.5L613.93 632.11Z" fill="white"/>
<path d="M517.54 659.42L541.81 684.19L556.51 654.31L517.54 659.42Z" fill="#FFCA57"/>
<path d="M571.79 650.38L598.64 670.99L605.71 636.47L571.79 650.38Z" fill="#FFA1C5"/>
<path d="M381.879 614.46C396.339 625.93 412.229 635.55 429.169 642.89C446.049 650.21 463.879 655.3 482.109 657.87C500.279 660.44 518.729 660.51 536.929 658.15C555.269 655.77 573.299 651.08 590.499 644.27C607.579 637.5 623.879 628.67 638.699 617.8C640.509 616.47 642.299 615.11 644.079 613.72C645.089 612.93 643.669 611.52 642.669 612.31C628.359 623.52 612.509 632.74 595.829 639.93C579.059 647.15 561.379 652.31 543.349 655.22C525.439 658.11 507.159 658.68 489.119 656.75C471.059 654.82 453.279 650.39 436.389 643.73C419.479 637.07 403.459 628.13 388.859 617.31C386.989 615.92 385.139 614.5 383.309 613.05C382.309 612.26 380.889 613.66 381.899 614.46H381.879Z" fill="#1F2236"/>
<path d="M588 538.44H583V612.83H588V538.44Z" fill="#70453A"/>
<path d="M554.89 538.44H549.89V613.5H554.89V538.44Z" fill="#70453A"/>
<path d="M622.45 538.44H617.45V612.83H622.45V538.44Z" fill="#70453A"/>
<path d="M651.25 535.33H549.89V541.55H651.25V535.33Z" fill="#70453A"/>
<path d="M737.09 329.06H538.02L367.68 352.17H469.09H551.09L737.09 329.06Z" fill="#70453A"/>
<path d="M551.09 352.17L656.42 424.17L844.42 388.61L737.09 329.06L551.09 352.17Z" fill="#70453A"/>
<path d="M844.42 375.96H808.2V388.63H844.42V375.96Z" fill="#70453A"/>
<path d="M737.09 316.39H538.02L367.68 339.5H469.09H551.09L737.09 316.39Z" fill="#70453A"/>
<path d="M551.09 339.5L656.42 411.5L844.42 375.94L737.09 316.39L551.09 339.5Z" fill="#70453A"/>
<path d="M551.08 339.5H367.68V352.17H551.08V339.5Z" fill="#70453A"/>
<path d="M369.25 341.61H552.51C553.8 341.61 553.8 339.61 552.51 339.61H369.25C367.96 339.61 367.96 341.61 369.25 341.61Z" fill="#1F2236"/>
<path d="M552.01 341.57C579.1 360.02 606.19 378.47 633.28 396.91C640.84 402.06 648.41 407.21 655.97 412.36C657.04 413.09 658.04 411.35 656.98 410.63C629.89 392.18 602.8 373.73 575.71 355.29C568.15 350.14 560.58 344.99 553.02 339.84C551.95 339.11 550.95 340.85 552.01 341.57Z" fill="#1F2236"/>
<path d="M657.46 422.69V411.5C657.46 410.21 655.46 410.21 655.46 411.5V422.69C655.46 423.98 657.46 423.98 657.46 422.69Z" fill="#1F2236"/>
<path d="M734.11 316.89C732.49 317.09 730.87 317.29 729.24 317.49C724.83 318.04 720.41 318.59 716 319.14C709.47 319.95 702.94 320.76 696.41 321.57C688.44 322.56 680.48 323.55 672.51 324.54L646.33 327.79L619.91 331.07C611.7 332.09 603.49 333.11 595.27 334.13C588.33 334.99 581.39 335.85 574.45 336.72C569.48 337.34 564.51 337.96 559.54 338.57C557.17 338.86 554.79 339.16 552.42 339.45C552.32 339.46 552.21 339.48 552.11 339.49C550.85 339.65 550.83 341.65 552.11 341.49C553.73 341.29 555.35 341.09 556.98 340.89C561.39 340.34 565.81 339.79 570.22 339.24C576.75 338.43 583.28 337.62 589.81 336.81C597.78 335.82 605.74 334.83 613.71 333.84C622.44 332.76 631.16 331.67 639.89 330.59C648.7 329.5 657.51 328.4 666.31 327.31C674.52 326.29 682.73 325.27 690.95 324.25C697.89 323.39 704.83 322.53 711.77 321.66C716.74 321.04 721.71 320.42 726.68 319.81C729.05 319.52 731.43 319.22 733.8 318.93C733.9 318.92 734.01 318.9 734.11 318.89C735.37 318.73 735.39 316.73 734.11 316.89Z" fill="#1F2236"/>
<path d="M657.3 316.89C655.68 317.09 654.06 317.29 652.43 317.49C648.02 318.04 643.6 318.59 639.19 319.14C632.66 319.95 626.13 320.76 619.6 321.57C611.63 322.56 603.67 323.55 595.7 324.54L569.52 327.79L543.1 331.07C534.89 332.09 526.68 333.11 518.46 334.13C511.52 334.99 504.58 335.85 497.64 336.72C492.67 337.34 487.7 337.96 482.73 338.57C480.36 338.86 477.98 339.16 475.61 339.45C475.51 339.46 475.4 339.48 475.3 339.49C474.04 339.65 474.02 341.65 475.3 341.49C476.92 341.29 478.54 341.09 480.17 340.89C484.58 340.34 489 339.79 493.41 339.24C499.94 338.43 506.47 337.62 513 336.81C520.97 335.82 528.93 334.83 536.9 333.84C545.63 332.76 554.35 331.67 563.08 330.59C571.89 329.5 580.7 328.4 589.5 327.31C597.71 326.29 605.92 325.27 614.14 324.25C621.08 323.39 628.02 322.53 634.96 321.66C639.93 321.04 644.9 320.42 649.87 319.81C652.24 319.52 654.62 319.22 656.99 318.93C657.09 318.92 657.2 318.9 657.3 318.89C658.56 318.73 658.58 316.73 657.3 316.89Z" fill="#1F2236"/>
<path d="M587.11 316.89C585.49 317.09 583.87 317.29 582.24 317.49C577.83 318.04 573.41 318.59 569 319.14C562.47 319.95 555.94 320.76 549.41 321.57C541.44 322.56 533.48 323.55 525.51 324.54L499.33 327.79L472.91 331.07C464.7 332.09 456.49 333.11 448.27 334.13C441.33 334.99 434.39 335.85 427.45 336.72C422.48 337.34 417.51 337.96 412.54 338.57C410.17 338.86 407.79 339.16 405.42 339.45C405.32 339.46 405.21 339.48 405.11 339.49C403.85 339.65 403.83 341.65 405.11 341.49C406.73 341.29 408.35 341.09 409.98 340.89C414.39 340.34 418.81 339.79 423.22 339.24C429.75 338.43 436.28 337.62 442.81 336.81C450.78 335.82 458.74 334.83 466.71 333.84C475.44 332.76 484.16 331.67 492.89 330.59C501.7 329.5 510.51 328.4 519.31 327.31C527.52 326.29 535.73 325.27 543.95 324.25C550.89 323.39 557.83 322.53 564.77 321.66C569.74 321.04 574.71 320.42 579.68 319.81C582.05 319.52 584.43 319.22 586.8 318.93C586.9 318.92 587.01 318.9 587.11 318.89C588.37 318.73 588.39 316.73 587.11 316.89Z" fill="#1F2236"/>
<path d="M841.99 375.65C840.33 375.96 838.67 376.27 837.01 376.59C832.52 377.43 828.02 378.28 823.53 379.12L803.5 382.88C795.39 384.4 787.28 385.92 779.18 387.44C770.26 389.11 761.34 390.79 752.42 392.46L725.4 397.53C717.04 399.1 708.68 400.67 700.32 402.24C693.22 403.57 686.13 404.9 679.03 406.23C673.95 407.18 668.87 408.14 663.78 409.09C661.37 409.54 658.91 409.9 656.52 410.45C656.42 410.47 656.31 410.49 656.21 410.51C654.95 410.75 655.48 412.67 656.74 412.44C658.4 412.13 660.06 411.82 661.72 411.51C666.21 410.67 670.71 409.82 675.2 408.98C681.88 407.73 688.55 406.48 695.23 405.22C703.34 403.7 711.45 402.18 719.55 400.66C728.47 398.99 737.39 397.31 746.31 395.64C755.32 393.95 764.32 392.26 773.33 390.57C781.69 389 790.05 387.43 798.41 385.86C805.51 384.53 812.6 383.2 819.7 381.87C824.78 380.92 829.86 379.96 834.95 379.01C837.36 378.56 839.82 378.2 842.21 377.65C842.31 377.63 842.42 377.61 842.52 377.59C843.78 377.35 843.25 375.43 841.99 375.66V375.65Z" fill="#1F2236"/>
<path d="M818.82 362.7C817.2 363 815.58 363.31 813.96 363.61C809.55 364.44 805.14 365.27 800.73 366.09C794.2 367.31 787.68 368.54 781.15 369.76C773.19 371.25 765.22 372.75 757.26 374.24C748.5 375.88 739.73 377.53 730.97 379.17C722.16 380.82 713.36 382.47 704.55 384.13C696.34 385.67 688.13 387.21 679.92 388.75C672.98 390.05 666.04 391.35 659.1 392.66C654.11 393.6 649.12 394.53 644.13 395.47C641.77 395.91 639.37 396.25 637.04 396.8C636.94 396.82 636.84 396.84 636.73 396.86C635.47 397.1 636 399.02 637.26 398.79C638.88 398.49 640.5 398.18 642.12 397.88C646.53 397.05 650.94 396.22 655.35 395.4C661.88 394.18 668.4 392.95 674.93 391.73C682.89 390.24 690.86 388.74 698.82 387.25C707.58 385.61 716.35 383.96 725.11 382.32C733.92 380.67 742.72 379.02 751.53 377.36C759.74 375.82 767.95 374.28 776.16 372.74C783.1 371.44 790.04 370.14 796.98 368.83C801.97 367.89 806.96 366.96 811.95 366.02C814.31 365.58 816.71 365.24 819.04 364.69C819.14 364.67 819.24 364.65 819.35 364.63C820.61 364.39 820.08 362.47 818.82 362.7Z" fill="#1F2236"/>
<path d="M791.27 347.03C789.65 347.32 788.03 347.6 786.41 347.89C782.03 348.67 777.64 349.44 773.26 350.22C766.75 351.37 760.24 352.53 753.73 353.68C745.82 355.08 737.91 356.48 730.01 357.89L703.9 362.52C695.16 364.07 686.41 365.62 677.67 367.17C669.48 368.62 661.29 370.08 653.1 371.53C646.21 372.75 639.32 373.97 632.43 375.2C627.45 376.08 622.47 376.97 617.49 377.85C615.15 378.27 612.76 378.58 610.44 379.1C610.34 379.12 610.23 379.14 610.13 379.15C608.86 379.37 609.4 381.3 610.66 381.08C612.28 380.79 613.9 380.51 615.52 380.22C619.9 379.44 624.29 378.67 628.67 377.89C635.18 376.74 641.69 375.58 648.2 374.43C656.11 373.03 664.02 371.62 671.92 370.22C680.62 368.68 689.32 367.13 698.03 365.59C706.77 364.04 715.52 362.49 724.26 360.94C732.45 359.49 740.64 358.03 748.83 356.58C755.72 355.36 762.61 354.14 769.5 352.91C774.48 352.03 779.46 351.14 784.44 350.26C786.78 349.84 789.17 349.53 791.49 349.01C791.59 348.99 791.7 348.97 791.8 348.96C793.07 348.74 792.53 346.81 791.27 347.03Z" fill="#1F2236"/>
<path d="M760.08 330.03C758.51 330.29 756.93 330.55 755.36 330.81C751.05 331.52 746.75 332.23 742.44 332.94C736.1 333.98 729.76 335.03 723.41 336.07C715.63 337.35 707.86 338.63 700.08 339.91C691.6 341.31 683.12 342.7 674.65 344.1C666.05 345.52 657.45 346.93 648.85 348.35C640.87 349.66 632.89 350.98 624.91 352.29C618.13 353.41 611.36 354.52 604.58 355.64C599.73 356.44 594.88 357.24 590.03 358.04C587.74 358.42 585.39 358.69 583.12 359.18C583.02 359.2 582.92 359.21 582.82 359.23C581.55 359.44 582.09 361.37 583.35 361.16C584.92 360.9 586.5 360.64 588.07 360.38C592.38 359.67 596.68 358.96 600.99 358.25C607.33 357.21 613.67 356.16 620.02 355.12C627.8 353.84 635.57 352.56 643.35 351.28C651.83 349.88 660.31 348.49 668.78 347.09C677.38 345.67 685.98 344.26 694.58 342.84C702.56 341.53 710.54 340.21 718.52 338.9C725.3 337.78 732.07 336.67 738.85 335.55C743.7 334.75 748.55 333.95 753.4 333.15C755.69 332.77 758.04 332.5 760.31 332.01C760.41 331.99 760.51 331.98 760.61 331.96C761.88 331.75 761.34 329.82 760.08 330.03Z" fill="#1F2236"/>
<path d="M512.29 941.99H427.79C426.5 941.99 426.5 943.99 427.79 943.99H512.29C513.58 943.99 513.58 941.99 512.29 941.99Z" fill="#1F2236"/>
<path d="M526.469 920.63H441.969C440.679 920.63 440.679 922.63 441.969 922.63H526.469C527.759 922.63 527.759 920.63 526.469 920.63Z" fill="#1F2236"/>
<path d="M491.509 975.32H407.009C405.719 975.32 405.719 977.32 407.009 977.32H491.509C492.799 977.32 492.799 975.32 491.509 975.32Z" fill="#1F2236"/>
<path d="M470.63 1008.66H386.13C384.84 1008.66 384.84 1010.66 386.13 1010.66H470.63C471.92 1010.66 471.92 1008.66 470.63 1008.66Z" fill="#1F2236"/>
<path d="M449.96 1041.99H365.46C364.17 1041.99 364.17 1043.99 365.46 1043.99H449.96C451.25 1043.99 451.25 1041.99 449.96 1041.99Z" fill="#1F2236"/>
<path d="M518.02 932.01H433.52C432.23 932.01 432.23 934.01 433.52 934.01H518.02C519.31 934.01 519.31 932.01 518.02 932.01Z" fill="#1F2236"/>
<path d="M497.24 965.34H412.74C411.45 965.34 411.45 967.34 412.74 967.34H497.24C498.53 967.34 498.53 965.34 497.24 965.34Z" fill="#1F2236"/>
<path d="M476.36 998.67H391.86C390.57 998.67 390.57 1000.67 391.86 1000.67H476.36C477.65 1000.67 477.65 998.67 476.36 998.67Z" fill="#1F2236"/>
<path d="M455.69 1032.01H371.19C369.9 1032.01 369.9 1034.01 371.19 1034.01H455.69C456.98 1034.01 456.98 1032.01 455.69 1032.01Z" fill="#1F2236"/>
<path d="M353.63 1065.91H435.55C436.45 1065.91 437.32 1065.95 438.18 1065.62C439.23 1065.21 439.94 1064.44 440.52 1063.52C441.34 1062.22 442.14 1060.91 442.96 1059.61C446.79 1053.47 450.62 1047.32 454.44 1041.18C460.29 1031.78 466.15 1022.39 472 1012.99C478.73 1002.18 485.47 991.37 492.2 980.56C498.68 970.16 505.15 959.77 511.63 949.37C516.7 941.23 521.77 933.09 526.84 924.96C529.4 920.85 531.96 916.74 534.52 912.64C534.64 912.45 534.75 912.27 534.87 912.08C535.27 911.43 534.75 910.58 534.01 910.58H449.62C448.33 910.58 448.33 912.58 449.62 912.58H534.01C533.72 912.08 533.43 911.58 533.15 911.08C531.39 913.9 529.63 916.72 527.87 919.55C523.34 926.82 518.81 934.1 514.27 941.37C508.08 951.31 501.89 961.24 495.7 971.18C488.97 981.99 482.23 992.8 475.5 1003.6L456.96 1033.35C452.49 1040.52 448.03 1047.69 443.56 1054.86C442.31 1056.87 441.06 1058.88 439.81 1060.88C439.09 1062.03 438.39 1063.7 436.89 1063.89C435.1 1064.11 433.19 1063.91 431.4 1063.91H353.63C352.34 1063.91 352.34 1065.91 353.63 1065.91Z" fill="#1F2236"/>
<path d="M551.09 613.83H734.59C735.88 613.83 735.88 611.83 734.59 611.83H551.09C549.8 611.83 549.8 613.83 551.09 613.83Z" fill="#1F2236"/>
<path d="M733.73 613.34C734.56 614.69 735.4 616.04 736.23 617.39L743.09 628.48C746.46 633.92 749.82 639.36 753.19 644.81C757.3 651.45 761.4 658.08 765.51 664.72C770.01 671.99 774.51 679.26 779 686.53C783.56 693.9 788.12 701.28 792.69 708.65C796.92 715.49 801.16 722.34 805.39 729.18C808.97 734.97 812.55 740.75 816.13 746.54C818.72 750.72 821.3 754.9 823.89 759.08C825.11 761.05 826.28 763.05 827.54 764.99C827.59 765.07 827.64 765.16 827.7 765.24C828.38 766.33 830.11 765.33 829.43 764.23L826.93 760.18C824.64 756.48 822.36 752.79 820.07 749.09C816.7 743.65 813.34 738.21 809.97 732.76C805.86 726.12 801.76 719.49 797.65 712.85C793.15 705.58 788.65 698.31 784.16 691.04C779.6 683.67 775.04 676.29 770.47 668.92C766.24 662.08 762 655.23 757.77 648.39C754.19 642.6 750.61 636.82 747.03 631.03C744.44 626.85 741.86 622.67 739.27 618.49C738.05 616.52 736.88 614.52 735.62 612.58C735.57 612.5 735.52 612.41 735.46 612.33C734.78 611.24 733.05 612.24 733.73 613.34Z" fill="#1F2236"/>
<path d="M817.83 729.35L821.42 735.15C821.59 735.42 821.76 735.7 821.93 735.97C822.21 736.43 822.82 736.61 823.3 736.33C823.76 736.06 823.94 735.42 823.66 734.96C822.46 733.03 821.27 731.1 820.07 729.16C819.9 728.89 819.73 728.61 819.56 728.34C819.28 727.88 818.67 727.7 818.19 727.98C817.73 728.25 817.55 728.89 817.83 729.35Z" fill="#1F2236"/>
<path d="M796.97 695.63C798.24 697.68 799.5 699.72 800.77 701.77L801.31 702.64C801.59 703.1 802.2 703.28 802.68 703C803.14 702.73 803.32 702.09 803.04 701.63C801.77 699.58 800.51 697.54 799.24 695.49C799.06 695.2 798.88 694.91 798.7 694.62C798.42 694.16 797.81 693.98 797.33 694.26C796.87 694.53 796.69 695.17 796.97 695.63Z" fill="#1F2236"/>
<path d="M776.66 662.81C777.78 664.62 778.9 666.42 780.01 668.23L780.49 669C780.77 669.44 781.4 669.66 781.86 669.36C782.31 669.07 782.51 668.47 782.22 667.99C781.1 666.18 779.98 664.38 778.87 662.57C778.71 662.31 778.55 662.06 778.39 661.8C778.12 661.36 777.48 661.14 777.02 661.44C776.57 661.73 776.37 662.33 776.66 662.81Z" fill="#1F2236"/>
<path d="M755.78 629.05C756.98 630.99 758.17 632.92 759.37 634.86C759.54 635.13 759.71 635.41 759.88 635.68C760.16 636.14 760.77 636.32 761.25 636.04C761.71 635.77 761.89 635.13 761.61 634.67C760.41 632.73 759.22 630.8 758.02 628.86C757.85 628.59 757.68 628.31 757.51 628.04C757.23 627.58 756.62 627.4 756.14 627.68C755.68 627.95 755.5 628.59 755.78 629.05Z" fill="#1F2236"/>
<path d="M828.91 748.44C830.5 751.01 832.09 753.58 833.68 756.15C833.91 756.51 834.13 756.88 834.36 757.24C835.04 758.33 836.77 757.33 836.09 756.23C834.5 753.66 832.91 751.09 831.32 748.52C831.09 748.16 830.87 747.79 830.64 747.43C829.96 746.34 828.23 747.34 828.91 748.44Z" fill="#1F2236"/>
<path d="M853.37 747.61C844.15 751.67 834.94 755.73 825.72 759.79C824.54 760.31 825.56 762.03 826.73 761.52C835.95 757.46 845.16 753.4 854.38 749.34C855.56 748.82 854.54 747.1 853.37 747.61Z" fill="#1F2236"/>
<path d="M741.68 608.71C739.18 609.81 736.67 610.91 734.17 612.02C733.68 612.24 733.56 612.96 733.81 613.39C734.11 613.9 734.68 613.97 735.18 613.75C737.68 612.65 740.19 611.55 742.69 610.44C743.18 610.22 743.3 609.5 743.05 609.07C742.75 608.56 742.18 608.49 741.68 608.71Z" fill="#1F2236"/>
<path d="M550.18 389.32C553.83 389.32 556.79 386.361 556.79 382.71C556.79 379.059 553.83 376.1 550.18 376.1C546.529 376.1 543.57 379.059 543.57 382.71C543.57 386.361 546.529 389.32 550.18 389.32Z" fill="white"/>
<path d="M599.57 430C599.57 433.65 596.61 436.61 592.96 436.61C589.31 436.61 586.35 433.65 586.35 430C586.35 426.35 589.31 423.39 592.96 423.39C596.61 423.39 599.57 426.35 599.57 430Z" fill="white"/>
<path d="M566.3 419.33C569.951 419.33 572.91 416.371 572.91 412.72C572.91 409.069 569.951 406.11 566.3 406.11C562.649 406.11 559.69 409.069 559.69 412.72C559.69 416.371 562.649 419.33 566.3 419.33Z" fill="white"/>
<path d="M627.96 439.5C631.61 439.5 634.57 436.541 634.57 432.89C634.57 429.239 631.61 426.28 627.96 426.28C624.309 426.28 621.35 429.239 621.35 432.89C621.35 436.541 624.309 439.5 627.96 439.5Z" fill="white"/>
<path d="M550.09 353.63C552.05 371.98 555.92 391.13 568.27 405.54C580.92 420.3 600.89 427.78 620.01 428.22C630.82 428.47 641.67 426.42 651.48 421.86C652.65 421.32 651.63 419.59 650.47 420.13C633.42 428.06 613.1 428.03 595.58 421.6C586.72 418.34 578.39 413.33 571.82 406.5C565.62 400.05 561.19 392.13 558.23 383.72C554.81 374.03 553.17 363.82 552.08 353.63C551.94 352.36 549.94 352.35 550.08 353.63H550.09Z" fill="#1F2236"/>
<path d="M682.56 455.07C682.56 458.72 679.6 461.68 675.95 461.68C672.3 461.68 669.34 458.72 669.34 455.07C669.34 451.42 672.3 448.46 675.95 448.46C679.6 448.46 682.56 451.42 682.56 455.07Z" fill="white"/>
<path d="M724.76 460.4C724.76 464.05 721.8 467.01 718.15 467.01C714.5 467.01 711.54 464.05 711.54 460.4C711.54 456.75 714.5 453.79 718.15 453.79C721.8 453.79 724.76 456.75 724.76 460.4Z" fill="white"/>
<path d="M766.96 450C766.96 453.65 764 456.61 760.35 456.61C756.7 456.61 753.74 453.65 753.74 450C753.74 446.35 756.7 443.39 760.35 443.39C764 443.39 766.96 446.35 766.96 450Z" fill="white"/>
<path d="M804.5 426.28C804.5 429.93 801.54 432.89 797.89 432.89C794.24 432.89 791.28 429.93 791.28 426.28C791.28 422.63 794.24 419.67 797.89 419.67C801.54 419.67 804.5 422.63 804.5 426.28Z" fill="white"/>
<path d="M650.01 421.25C654.22 433.32 663.19 442.51 674.78 447.72C686.39 452.94 699.42 454.49 712.05 454.2C723.75 453.93 735.6 452.14 746.76 448.56C752.48 446.72 757.75 444.09 763.08 441.32C771.32 437.05 779.44 432.5 787.17 427.36C799.55 419.13 810.36 409.18 820.06 397.93C821.33 396.46 822.58 394.97 823.82 393.48C824.64 392.5 823.23 391.07 822.41 392.07C813.15 403.21 803.11 413.56 791.33 422.06C784.41 427.05 777.08 431.47 769.61 435.58C763.24 439.08 756.78 442.78 749.95 445.34C739.66 449.2 728.58 451.19 717.64 451.94C705.23 452.79 692.4 451.98 680.58 447.88C669.1 443.9 659.13 436.36 653.8 425.24C653.09 423.77 652.49 422.25 651.95 420.71C651.53 419.5 649.6 420.02 650.02 421.24L650.01 421.25Z" fill="#1F2236"/>
<path d="M526.3 201.64C538.21 188.13 558.31 185.33 574.81 190.78C579.63 192.37 584.2 194.67 588.33 197.62C589.01 198.1 590.12 197.29 589.8 196.49C588.33 192.89 587.48 188.93 586.95 185.09C585.85 177.08 586.55 168.61 590.24 161.31C592.9 156.06 596.95 151.74 601.81 148.44C602.87 147.72 601.87 145.99 600.8 146.71C592.35 152.45 586.64 161.02 585.04 171.15C583.9 178.33 584.58 185.75 586.48 192.74C586.87 194.18 587.3 195.63 587.86 197.01C588.35 196.63 588.84 196.26 589.33 195.88C574.23 185.11 553.09 182.73 536.43 191.31C532.08 193.55 528.11 196.54 524.87 200.22C524.02 201.18 525.43 202.6 526.28 201.63L526.3 201.64Z" fill="#1F2236"/>
<path d="M673.12 947.89C689.4 942.52 706.65 949.99 718.9 960.75C731.85 972.13 740.93 987.01 751.92 1000.13C758.04 1007.43 764.83 1014.24 772.87 1019.42C773.95 1020.12 774.96 1018.39 773.88 1017.69C759 1008.09 748.96 993.15 738.33 979.37C727.96 965.93 716.13 952.68 699.69 946.86C691.01 943.79 681.43 943.04 672.6 945.95C671.38 946.35 671.9 948.28 673.13 947.88L673.12 947.89Z" fill="#1F2236"/>
<path d="M643.53 1038.22C652.13 1040.69 660.72 1043.16 669.32 1045.63C670.56 1045.99 671.09 1044.06 669.85 1043.7C661.25 1041.23 652.66 1038.76 644.06 1036.29C642.82 1035.93 642.29 1037.86 643.53 1038.22Z" fill="#1F2236"/>
<path d="M574.4 837.91C576.64 861.46 564.59 883.03 550.78 901.12C546.74 906.4 542.49 911.52 538.25 916.64C537.43 917.62 538.84 919.05 539.66 918.05C554.65 899.97 570.31 880.9 575.21 857.31C576.54 850.94 577.01 844.4 576.39 837.91C576.27 836.64 574.27 836.63 574.39 837.91H574.4Z" fill="#1F2236"/>
<path d="M662.22 613.53L667.07 612.12C671.44 610.85 675.82 609.58 680.19 608.31C686.69 606.42 693.18 604.54 699.68 602.65C707.57 600.36 715.46 598.07 723.35 595.78C732.03 593.26 740.71 590.74 749.4 588.22C758.17 585.68 766.93 583.13 775.7 580.59C783.84 578.23 791.97 575.87 800.11 573.5C807.02 571.49 813.93 569.49 820.84 567.48C825.81 566.04 830.77 564.6 835.74 563.16C838.08 562.48 840.44 561.86 842.76 561.12C842.86 561.09 842.96 561.06 843.06 561.03C844.29 560.67 843.77 558.74 842.53 559.1C840.91 559.57 839.3 560.04 837.68 560.51C833.31 561.78 828.93 563.05 824.56 564.32C818.06 566.21 811.57 568.09 805.07 569.98C797.18 572.27 789.29 574.56 781.4 576.85C772.72 579.37 764.04 581.89 755.35 584.41C746.58 586.95 737.82 589.5 729.05 592.04C720.91 594.4 712.78 596.76 704.64 599.13C697.73 601.14 690.82 603.14 683.91 605.15C678.94 606.59 673.98 608.03 669.01 609.47C666.67 610.15 664.31 610.77 661.99 611.51C661.89 611.54 661.79 611.57 661.69 611.6C660.46 611.96 660.98 613.89 662.22 613.53Z" fill="#1F2236"/>
<path d="M581.73 802.34C587.06 818.82 588.23 836.57 585.08 853.6C584.18 858.44 582.94 863.2 581.38 867.87C580.97 869.09 582.9 869.62 583.31 868.4C588.91 851.7 590.24 833.69 587.26 816.34C586.41 811.42 585.21 806.56 583.67 801.81C583.28 800.59 581.34 801.11 581.74 802.34H581.73Z" fill="#1F2236"/>
<path d="M741.84 278.54C729.33 278.54 718.06 283 710.06 290.14C704.26 279.44 692.93 272.17 679.91 272.17C660.98 272.17 645.64 287.51 645.64 306.44C645.64 325.37 660.98 340.71 679.91 340.71C688.51 340.71 696.36 337.54 702.38 332.3C709.52 344.72 724.51 353.27 741.84 353.27C766.09 353.27 785.75 336.54 785.75 315.91C785.75 295.28 766.09 278.55 741.84 278.55V278.54Z" fill="#3F7368"/>
<path d="M644.98 314.07C644.37 306.15 646.6 298.19 651.19 291.7C655.82 285.16 662.83 280.63 670.6 278.77C675.03 277.71 679.65 277.55 684.13 278.34C685.16 278.52 685.73 277.46 685.1 276.67C683.78 274.98 683.51 272.21 683.25 270.17C682.85 267.04 682.76 263.86 682.82 260.7C682.87 258.08 682.98 255.41 683.5 252.84C684.02 250.28 685.08 247.74 686.11 245.35C690.95 234.11 699.24 225.12 710.1 219.47C717.87 215.43 726.43 213.13 735.04 211.75C736.31 211.55 735.77 209.62 734.51 209.82C720 212.14 705.43 217.35 695.03 228.14C690.8 232.52 687.41 237.67 684.89 243.2C683.68 245.85 682.52 248.63 681.77 251.45C681.1 253.96 680.97 256.65 680.86 259.23C680.72 262.87 680.8 266.55 681.25 270.18C681.58 272.85 681.97 275.91 683.68 278.09C684 277.53 684.33 276.98 684.65 276.42C676.34 274.96 667.64 276.49 660.33 280.73C653.01 284.98 647.53 291.86 644.79 299.85C643.23 304.41 642.6 309.27 642.97 314.07C643.07 315.34 645.07 315.36 644.97 314.07H644.98Z" fill="#1F2236"/>
</g>
<defs>
<clipPath id="clip0_1718_1335">
<rect width="1063.3" height="1201.15" fill="white"/>
</clipPath>
</defs>
</svg>
