<svg width="142" height="123" viewBox="0 0 142 123" fill="none" xmlns="http://www.w3.org/2000/svg">
<ellipse cx="55.5" cy="116.5" rx="22.5" ry="6.5" fill="#968140"/>
<path d="M59 117.5C56.0744 119.827 54.2504 120.319 50.5 119C48.1861 105.664 65.8122 86.234 72.5 81C79.1878 75.7661 80.6546 67.2179 87.5 51.5C89.4142 51.104 90.1133 51.1526 91 51.5C86.8861 66.7931 83.4812 74.2287 75 85C64.9718 98.3453 62.0815 105.355 59 117.5Z" fill="#944D3A"/>
<path d="M52 79C55.685 85.6416 57.4391 89.4922 59 97L61 93C58.7882 82.1204 55.3641 78.2131 49.5 71C44.2504 60.5617 43.8916 56.1571 44 50H42.5C41.0776 52.9776 40.8142 55.4379 43.5 64.5C38.2546 61.3135 36.0054 58.8568 33 53.5L32 54C34.3308 61.9431 37.2747 64.9205 45 68L52 79Z" fill="#944D3A"/>
<path d="M96.5 73.5C90.066 81.2508 85.6817 84.5842 74 85.5L76.5 81.5C83.5575 80.7388 87.3497 79.3055 93.5 73L96.5 73.5Z" fill="#944D3A"/>
<path d="M71.5 52.5C71.3346 60.3948 72.5079 65.3709 77.5 75.5L79.5 73C75.1675 64.3198 73.7515 59.8569 74 53L71.5 52.5Z" fill="#944D3A"/>
<path d="M57.3287 71.2687C57.3287 71.2687 61.3287 61.7687 75.3287 67.2687C81.2066 69.2592 83.9648 67.5706 88.8287 64.2687C104.664 56.9614 109.414 57.5319 112.829 64.2687C125.563 65.347 128.067 66.9008 122.329 71.7687C113.105 77.4347 107.087 79.2417 92.8287 76.7687C88.6323 75.248 86.1142 75.2378 81.3287 76.7687C52.3288 85.2687 57.3287 71.2687 57.3287 71.2687Z" fill="#52AE7D"/>
<path d="M92.8287 76.7687C88.6323 75.2481 86.1142 75.2379 81.3287 76.7687C72.2547 79.2612 68.4796 79.8443 64.3288 79.2687C71.5648 70.5765 86.6279 70.9467 89.3288 72.7687C92.0297 74.5908 113.811 65.6687 122.329 71.7687C113.105 77.4348 107.087 79.2417 92.8287 76.7687Z" fill="#41A668"/>
<path d="M28.0656 46.3858C20.1139 43.4381 -1.93141 58.3755 9.69353 60.0638C30.1445 56.196 40.4513 55.4537 56.7824 56.6689C73.0293 60.5669 80.8796 60.1569 93.2237 52.22C117.94 50.4983 128.148 48.4569 140.003 42.9567C142.042 40.2659 139.817 38.4273 129.138 38.2952C138.483 32.1454 133.257 30.7576 118.686 30.9089C127.718 17.5726 113.978 13.519 89.5555 21.3017C97.3892 8.60512 66.8229 8.20187 56.9809 25.9187C47.4345 22.9733 34.0553 24.9364 28.0656 46.3858Z" fill="#52AE7D"/>
<path d="M56.9999 56.5002C54 56.5 46.5 56.15 46.5 56.15C30.8573 55.0311 63.8537 32.11 73.9999 45.0001C87.1951 40.6339 135.879 44.0266 125.5 48.0002C114.971 52.0276 107.596 52.741 93 52.5002C81.0073 60.212 73.1193 61.0907 56.9999 56.5002Z" fill="#41A668"/>
</svg>
