<svg width="148" height="165" viewBox="0 0 148 165" fill="none" xmlns="http://www.w3.org/2000/svg">
<ellipse cx="37.8353" cy="136.246" rx="10.836" ry="3.24688" fill="#98D049"/>
<path d="M81.3647 52.1345C81.105 48.2174 80.6895 44.3054 79.8597 40.4415C79.0325 36.5851 77.7846 32.7731 75.8502 29.1318C73.9006 25.4615 71.1326 22.1681 68.0149 18.928C66.4352 17.2857 64.8605 15.6321 63.5975 13.8596C62.4954 12.3122 61.7505 10.6738 61.0043 9.02901C59.8287 6.43535 58.5961 3.4773 55.3505 1.73765C53.6048 0.801398 51.341 0.34719 49.0544 0.483832C46.4777 0.636922 44.0454 1.45171 41.8994 2.4411C39.4595 3.56587 37.3274 4.9462 35.2397 6.35058C32.8163 7.98143 30.4144 9.62619 28.034 11.2849C25.7221 12.8955 23.4165 14.5137 21.1628 16.161C19.1701 17.6185 17.2331 19.1291 15.6534 20.8005C14.0205 22.5287 12.8917 24.3974 12.3356 26.3863C11.7617 28.4372 11.7212 30.5172 11.7313 32.5795C11.7516 36.7484 11.4336 40.8716 10.633 45.0354C9.82096 49.2549 8.69349 53.4528 7.66737 57.6571C5.71266 65.6646 4.57379 73.6936 5.99516 81.8529C7.01242 87.693 11.3399 88.8545 13.7696 89.5706C16.3958 90.3449 19.2651 90.6865 22.1269 90.9307C25.2876 91.2002 28.4736 91.438 31.666 91.5595C34.8457 91.6797 38.066 91.6493 41.2432 91.2647C44.0277 90.9281 46.7437 90.3171 49.3407 89.5187C54.6145 87.898 59.3499 85.546 63.8673 83.0953C68.3215 80.6787 73.1329 78.247 76.5926 75.1422C80.1992 71.9058 81.4369 68.0115 81.7042 64.1273C81.9791 60.1318 81.6294 56.1098 81.3659 52.1345H81.3647Z" fill="#4B4D19"/>
<path d="M73.4686 47.4216C73.0252 47.3318 72.5831 47.2281 72.1422 47.1003C72.298 49.4611 72.2917 51.8321 71.7318 54.2183C71.2605 56.2287 70.3573 58.3846 68.7978 59.8485C68.8358 56.9005 68.8624 53.9539 68.8941 51.0072C68.8941 50.9035 68.8953 50.7997 68.8966 50.696C67.7514 50.3708 66.6493 49.9685 65.5965 49.4333C65.6358 50.1102 65.6067 50.8023 65.5915 51.4703C65.5535 53.1239 65.4775 54.7801 65.3609 56.4349C65.162 59.2589 64.8479 62.0815 64.4222 64.8966C63.4328 64.1666 62.4624 63.4176 61.6276 62.5054C60.3291 61.0884 59.5665 59.4018 59.2827 57.4572C58.9787 55.3772 58.9901 53.2137 58.9381 51.097C58.8849 48.8829 58.8748 46.6663 58.8989 44.4459C58.9229 42.3115 59.0522 25.7791 59.1497 23.5991C58.2933 23.78 57.4458 23.9863 56.6249 24.3038C56.013 29.5241 55.7571 49.0158 55.932 54.212C56.0156 56.7032 56.0422 59.3019 56.6148 61.7045C57.1532 63.9692 58.4352 65.719 60.0935 67.2588C61.1804 68.2684 62.3294 69.2299 63.5278 70.1282C63.1364 72.1437 62.6677 74.1554 62.0216 76.1051C61.1057 78.8683 59.6133 81.5973 57.1532 83.3534C55.9383 84.2201 54.5549 84.7224 53.1184 84.9324C51.6058 85.1538 50.002 85.1576 48.5059 85.026C47.5735 84.9438 47.0148 84.4845 46.6842 83.6381C46.4118 82.9384 46.2421 82.1907 46.1356 81.4379C45.9152 79.8893 45.9748 78.2977 46.0571 76.7199C46.4055 70.1004 47.0452 63.4796 47.5291 56.8601C48.0143 50.2215 48.345 43.5716 48.0675 36.9711C48.0574 36.7395 48.0447 36.508 48.0333 36.2765C46.6094 35.9298 45.1995 35.5477 43.8262 35.077C43.8528 40.167 43.5007 45.2872 42.7456 50.3771C42.5594 51.6297 42.339 52.9417 41.6308 54.0589C40.9936 55.0635 39.8218 55.8947 38.6285 55.8175C37.3781 55.7365 36.7434 54.6219 36.3938 53.5642C35.9973 52.361 35.7566 51.0768 35.5514 49.8154C35.1612 47.414 35.0434 44.9709 35.1358 42.5139C33.513 42.4582 32.8315 42.519 31.2429 42.376C31.291 45.52 31.0313 48.6603 31.7129 51.6942C32.098 53.4111 32.5845 55.0116 33.3015 56.5956C34.0489 58.2467 34.3605 59.8307 34.9205 61.5691C35.9859 64.8764 36.4711 68.3949 36.4432 71.9375C36.4369 72.7156 36.4027 73.4911 36.3444 74.2654C33.0696 74.1174 30.726 73.1862 28.7701 70.6925C26.4277 67.7054 24.4489 62.723 23.6204 58.9527C23.4051 57.9709 23.248 56.9727 23.1454 55.9655C22.2928 56.0668 21.4364 56.1553 20.6029 56.3805C20.7283 60.4064 21.4934 64.3564 22.8489 68.0672C22.7793 68.0584 22.7109 68.0495 22.6437 68.0406C21.2578 67.8445 20.0809 67.2651 19.1359 66.277C17.1305 64.178 16.6263 61.0188 16.2564 58.1721C16.0537 56.6057 15.9714 55.0103 16.1323 53.4124C15.4811 53.2972 14.83 53.1695 14.1763 53.0758C13.5657 56.7361 13.3427 60.4785 14.2903 63.9844C15.2113 67.3916 17.1305 70.0688 20.3748 71.568C21.7392 72.1981 23.1175 72.4689 24.6732 72.3664C24.9962 72.9066 25.6625 73.9023 26.0616 74.3755C27.4057 75.9697 29.33 76.9198 31.2657 77.6764C32.6617 78.223 34.1654 78.7278 35.7097 78.9556C35.4677 80.2347 33.584 101.815 33.2115 104.959C32.459 111.304 31.6179 124.392 30.8654 130.737C30.6526 132.529 30.4397 134.322 30.2269 136.115C30.2193 136.184 30.1914 136.308 30.1623 136.457C34.643 136.639 39.1099 136.822 43.5754 137.004C43.9744 134.674 44.2949 132.337 44.5268 129.995C44.8283 126.952 43.5627 119.967 43.6881 116.927C43.9212 111.294 41.4636 101.938 47.272 93.8419C48.0713 92.7273 57.1519 91.7227 58.2351 90.7662C60.2645 88.9734 62.0761 87.0592 63.5164 84.7679C66.4846 80.0487 67.8147 74.6083 68.3645 69.2666C68.5736 67.2385 68.6762 65.2091 68.7345 63.1823C69.0524 62.9027 69.3476 62.5965 69.6162 62.308C70.5207 61.3338 71.2719 60.2293 71.8673 59.0552C73.1671 56.4906 73.6966 53.6654 73.7029 50.8921C73.7055 49.7357 73.6307 48.5704 73.4698 47.4267L73.4686 47.4216Z" fill="#D67936"/>
<path d="M57.4661 29.3508C61.1855 25.2452 66.9976 24.543 70.1051 19.796C72.0396 16.8405 59.773 3.14719 56.3867 1.33289C54.5651 0.356148 52.2037 -0.117038 49.8195 0.0246649C47.1313 0.185346 44.5952 1.0343 42.3567 2.06544C39.8117 3.23828 37.5884 4.67808 35.4107 6.14319C32.8834 7.84362 30.3776 9.55924 27.8959 11.29C25.4852 12.9702 23.0795 14.6567 20.7283 16.3762C18.6494 17.8957 16.6288 19.4721 14.982 21.2156C13.2794 23.0185 12.1012 24.9669 11.521 27.0418C10.9218 29.1813 10.88 31.3498 10.8901 33.5007C10.9117 37.8479 3.33482 56.5502 6.68303 59.5297C10.5633 62.9837 17.185 62.7307 22.3194 61.2719C27.4209 59.8447 29.4377 54.1387 32.7808 49.8585C33.1887 49.1449 34.1072 48.7881 34.4771 48.6097C38.8653 47.1826 43.3284 47.1826 47.296 44.1512C50.7025 41.4765 53.0499 38.6235 55.614 35.234C57.005 33.2729 56.0992 30.9538 57.4648 29.3495L57.4661 29.3508Z" fill="#727526"/>
<path d="M40.7301 77.0831C42.0388 74.1149 41.19 70.59 39.3455 68.1786C38.6791 67.2512 40.079 65.5811 40.9037 64.283C43.4171 59.8307 42.581 53.5224 38.2636 52.4091C31.9713 50.739 28.9208 60.2014 24.2235 64.4677C23.2417 65.3951 22.2738 66.1378 21.1615 66.3225C16.544 66.8792 12.1088 64.8384 7.45201 65.9518C5.65059 66.3744 3.90745 67.0842 2.42527 68.2102C-1.436 71.1442 0.108252 77.9712 1.63604 82.2881C3.89858 88.6812 7.98914 90.5309 10.5887 91.3077C13.3985 92.1478 18.2504 92.4047 23.6255 91.9416C26.6659 91.6797 29.558 89.8262 32.4603 87.8423C36.4901 85.2449 38.7805 81.3493 40.7314 77.0818L40.7301 77.0831Z" fill="#727526"/>
<path d="M96.7692 37.2038C96.2422 36.1473 95.5961 35.144 94.7968 34.2723C93.9936 33.3955 93.0295 32.6706 91.9363 32.1923C90.8506 31.7166 89.6851 31.4712 88.5197 31.289C87.3263 31.1017 86.1228 30.9765 84.9409 30.7247C83.6361 30.4463 82.4326 29.9567 81.2697 29.3077C79.2377 28.174 77.4527 27.1024 75.1851 26.5267C73.6624 26.1409 69.1614 25.3311 64.2892 28.4941C58.9039 31.9912 55.2694 36.9685 52.3583 42.9693C50.2186 47.6797 51.6552 52.7822 56.5375 54.3992C58.4327 55.0988 60.979 53.1188 61.5567 54.1967C64.4083 61.0276 72.1663 60.5696 76.908 57.4217C77.3653 57.1295 77.8011 56.822 78.2179 56.5007C80.8174 55.5809 83.6209 55.4252 86.2369 54.5561C88.4994 53.8045 90.4237 52.5317 91.5955 50.4176C92.609 48.5919 93.2018 46.2437 95.0159 45.0076C95.966 44.3598 97.1252 44.1384 97.6648 43.0199C98.0753 42.1697 98.0525 41.1753 97.884 40.2668C97.6851 39.1965 97.2519 38.1729 96.7679 37.2025L96.7692 37.2038Z" fill="#727526"/>
<path d="M140.533 151.021C140.52 149.787 139.937 148.635 138.564 147.73C139.534 146.321 140.167 144.73 140.341 142.992C140.4 142.409 140.407 141.821 140.365 141.237C140.252 139.502 139.706 137.799 138.75 136.338C137.471 134.376 135.603 132.881 133.454 131.967C131.29 131.049 128.878 130.849 126.574 131.285C126.42 131.314 126.267 131.346 126.117 131.382C126.612 130.671 127.061 129.932 127.46 129.166C128.869 126.437 129.732 123.309 129.568 120.22C129.534 119.506 129.444 118.796 129.294 118.091C128.903 116.247 128.054 114.521 126.77 113.135C125.355 111.609 123.533 110.497 121.622 109.703C119.685 108.895 117.614 108.448 115.534 108.223C113.569 108.014 111.568 107.995 109.601 108.174C108.342 108.289 107.057 108.494 105.813 108.828C106.919 107.15 107.772 105.273 107.916 103.253C107.943 102.887 107.944 102.52 107.921 102.153C107.838 100.631 107.347 99.1298 106.571 97.8209C105.604 96.1946 104.203 94.8042 102.543 93.8919C100.696 92.8793 98.5604 92.4355 96.4634 92.5055C92.1639 92.6433 88.2508 94.7836 85.368 97.9055C83.9396 99.4525 82.7366 101.205 81.7607 103.071C81.408 103.749 81.0848 104.443 80.7901 105.147C80.6126 104.691 80.3947 104.253 80.1318 103.843C79.2902 102.53 78.0723 101.557 76.6228 100.985C75.1378 100.396 73.4908 100.297 71.9188 100.518C68.543 100.993 65.7764 103.086 63.6787 105.677C62.6122 106.997 61.7123 108.446 60.9 109.934C59.9776 111.622 59.1443 113.361 58.416 115.139C57.2548 117.976 56.3628 120.975 55.9746 124.029C53.8683 122.626 51.0874 122.327 48.6022 122.823C42.7887 123.982 37.4638 129.225 37.9618 135.781C37.9933 136.231 38.0508 136.687 38.1389 137.15C38.5909 139.506 39.9634 141.389 41.7635 142.893C41.7679 142.895 41.7721 142.899 41.7761 142.904C44.5341 145.197 48.293 146.603 51.2898 147.456C58.7243 149.568 66.4692 150.752 74.182 151.143C76.1556 151.244 78.1326 151.286 80.1077 151.275C82.0718 151.264 84.0343 151.162 85.9987 151.216C87.9945 151.27 89.9332 151.563 91.8569 152.097C93.7545 152.626 95.6023 153.307 97.4764 153.902C104.652 156.183 111.012 159.168 128.225 159.136C130.762 159.131 133.319 158.447 135.44 157.353C138.435 155.806 140.56 153.442 140.534 151.021L140.533 151.021Z" fill="#50733A"/>
<path d="M75.7057 118.867C77.9109 116.859 80.1697 114.807 82.8564 113.462C84.1826 112.799 85.6268 112.285 87.1137 112.164C88.5318 112.049 90.1792 112.336 91.1258 113.499C91.9646 114.529 92.2422 116.16 91.269 117.197C91.0961 117.383 91.3924 117.69 91.5809 117.518C94.7494 114.62 98.3534 112.208 102.246 110.396C103.345 109.884 104.468 109.42 105.608 109.004C105.881 108.905 105.709 108.488 105.436 108.587C101.384 110.067 97.5591 112.164 94.1335 114.79C93.1568 115.538 92.2152 116.329 91.3076 117.159C91.4111 117.265 91.5162 117.371 91.6195 117.479C92.5015 116.539 92.5012 115.114 91.9664 113.999C91.3131 112.638 89.9474 111.907 88.4858 111.737C86.8779 111.55 85.2418 111.958 83.7584 112.56C82.285 113.158 80.9178 114 79.6407 114.943C78.1591 116.037 76.7904 117.272 75.4305 118.511C75.2169 118.705 75.4866 119.067 75.702 118.871L75.7057 118.867Z" fill="#191626"/>
<path d="M117.266 136.038C119.458 133.504 122.618 131.922 125.937 131.561C126.226 131.529 126.169 131.082 125.878 131.114C122.441 131.488 119.178 133.138 116.91 135.759C116.72 135.978 117.075 136.257 117.264 136.039L117.266 136.038Z" fill="#191626"/>
<path d="M115.439 157.353C112.963 158.801 108.842 159.632 106.307 159.674C93.9737 159.876 84.6504 156.183 77.4748 153.902C75.6009 153.306 73.7529 152.626 71.8553 152.097C69.9316 151.563 67.9929 151.27 65.9971 151.216C64.0327 151.162 62.0699 151.265 60.1061 151.275C58.131 151.286 56.154 151.244 54.1804 151.143C46.4678 150.751 38.7212 149.567 31.2882 147.455C28.2914 146.603 24.5325 145.197 21.7745 142.904C23.7868 141.167 26.4862 139.182 28.5036 137.915C31.8439 135.817 35.3602 133.995 38.999 132.47C42.6559 130.939 46.4362 129.699 50.2906 128.785C53.9214 127.923 57.7059 127.271 61.444 127.691C63.2206 127.89 64.9606 128.338 66.5614 129.147C68.2163 129.988 69.5356 131.228 70.7007 132.655C71.8889 134.108 72.9962 135.666 74.6304 136.653C76.2733 137.647 78.1952 138.037 80.0834 138.217C82.026 138.403 83.9778 138.378 85.9255 138.482C87.8184 138.584 89.7069 138.807 91.5719 139.153C95.3019 139.843 98.9591 141.074 102.241 142.995C103.678 143.837 105.052 144.816 106.296 145.933L106.298 145.934C110.389 148.765 114.175 155.099 115.435 157.355L115.439 157.353Z" fill="#375722"/>
</svg>
