<svg width="168" height="187" viewBox="0 0 168 187" fill="none" xmlns="http://www.w3.org/2000/svg">
<ellipse cx="49.9847" cy="183.065" rx="7.98467" ry="2.065" fill="#95CE49"/>
<path d="M50.2183 165.628C50.2183 165.073 49.7918 164.803 49.3653 164.803C48.9388 164.803 48.5123 165.073 48.5123 165.628C48.5123 171.329 48.0289 177.016 48.0146 182.717C48.0146 183.627 51.1567 183.627 51.1567 182.717C51.1425 177.002 50.2326 171.343 50.2183 165.628Z" fill="#6B472F"/>
<path d="M49.8202 169.026C53.1755 169.452 56.5166 167.76 56.7299 162.073C56.9431 156.387 57.3839 141.245 56.2891 127.34C55.1944 113.436 53.7584 94.0005 49.5643 94.0005C45.3702 94.0005 43.1238 107.208 41.9011 122.222C40.6784 137.236 40.7211 156.074 41.9011 162.244C43.0811 168.414 47.1047 168.67 49.8202 169.026Z" fill="#508560"/>
<mask id="mask0_152_11053" style="mask-type:luminance" maskUnits="userSpaceOnUse" x="41" y="94" width="16" height="76">
<path d="M49.8202 169.026C53.1755 169.452 56.5166 167.76 56.7299 162.073C56.9431 156.387 57.3839 141.245 56.2891 127.34C55.1944 113.436 53.7584 94.0005 49.5643 94.0005C45.3702 94.0005 43.1238 107.208 41.9011 122.222C40.6784 137.236 40.7211 156.074 41.9011 162.244C43.0811 168.414 47.1047 168.67 49.8202 169.026Z" fill="white"/>
</mask>
<g mask="url(#mask0_152_11053)">
<path d="M42.1713 103.555C43.3705 105.969 44.7289 108.301 46.2375 110.535C47.5029 112.398 48.953 114.175 50.9435 115.284C51.2563 115.455 51.5548 114.971 51.2278 114.786C49.1805 113.649 47.7446 111.772 46.465 109.853C45.0574 107.744 43.7893 105.545 42.6689 103.27C42.4983 102.943 42.0149 103.228 42.1713 103.555Z" fill="#153D30"/>
<path d="M47.1758 122.919C47.9578 125.876 49.9909 128.265 52.4221 130.042C55.1518 132.032 57.7252 134.051 59.1043 137.25C59.2464 137.591 59.744 137.293 59.5877 136.966C58.3792 134.136 56.1186 131.933 53.6163 130.184C51.1141 128.435 48.5834 126.018 47.7303 122.762C47.6308 122.407 47.0905 122.563 47.1758 122.919Z" fill="#153D30"/>
<path d="M51.0003 133.411C52.9623 134.577 54.7253 135.956 55.8911 137.947C56.0759 138.259 56.5593 137.975 56.3745 137.662C55.166 135.586 53.332 134.136 51.2989 132.928C51.2349 132.892 51.1596 132.882 51.0887 132.901C51.0178 132.919 50.9567 132.964 50.9182 133.027C50.8796 133.089 50.8667 133.164 50.882 133.235C50.8973 133.307 50.9397 133.37 51.0003 133.411Z" fill="#153D30"/>
<path d="M38.816 142.383C41.1304 143.419 43.236 144.869 45.029 146.662C46.6782 148.34 48.1853 150.302 50.6449 150.771C51.0146 150.828 51.1567 150.287 50.8013 150.216C48.1853 149.733 46.7209 147.458 44.9153 145.766C43.2119 144.162 41.251 142.854 39.1146 141.899C38.7734 141.743 38.489 142.24 38.816 142.383Z" fill="#153D30"/>
<path d="M46.1805 151.695C47.9719 153.046 49.7207 154.283 52.0097 154.524C52.3793 154.567 52.3651 153.998 52.0097 153.956C49.8486 153.728 48.1567 152.477 46.4649 151.212C46.1805 150.984 45.8962 151.482 46.1805 151.695Z" fill="#153D30"/>
</g>
<ellipse cx="93.9847" cy="183.065" rx="7.98467" ry="2.065" fill="#95CE49"/>
<path d="M94.2183 165.628C94.2183 165.073 93.7918 164.803 93.3653 164.803C92.9388 164.803 92.5123 165.073 92.5123 165.628C92.5123 171.329 92.0289 177.016 92.0146 182.717C92.0146 183.627 95.1567 183.627 95.1567 182.717C95.1425 177.002 94.2326 171.343 94.2183 165.628Z" fill="#6B472F"/>
<path d="M93.8202 169.026C97.1755 169.452 100.517 167.76 100.73 162.073C100.943 156.387 101.384 141.245 100.289 127.34C99.1944 113.436 97.7584 94.0005 93.5643 94.0005C89.3702 94.0005 87.1238 107.208 85.9011 122.222C84.6784 137.236 84.7211 156.074 85.9011 162.244C87.0811 168.414 91.1047 168.67 93.8202 169.026Z" fill="#508560"/>
<mask id="mask1_152_11053" style="mask-type:luminance" maskUnits="userSpaceOnUse" x="85" y="94" width="16" height="76">
<path d="M93.8202 169.026C97.1755 169.452 100.517 167.76 100.73 162.073C100.943 156.387 101.384 141.245 100.289 127.34C99.1944 113.436 97.7584 94.0005 93.5643 94.0005C89.3702 94.0005 87.1238 107.208 85.9011 122.222C84.6784 137.236 84.7211 156.074 85.9011 162.244C87.0811 168.414 91.1047 168.67 93.8202 169.026Z" fill="white"/>
</mask>
<g mask="url(#mask1_152_11053)">
<path d="M86.1713 103.555C87.3705 105.969 88.7289 108.301 90.2375 110.535C91.5029 112.398 92.953 114.175 94.9435 115.284C95.2563 115.455 95.5548 114.971 95.2278 114.786C93.1805 113.649 91.7446 111.772 90.465 109.853C89.0574 107.744 87.7893 105.545 86.6689 103.27C86.4983 102.943 86.0149 103.228 86.1713 103.555Z" fill="#153D30"/>
<path d="M91.1758 122.919C91.9578 125.876 93.9909 128.265 96.4221 130.042C99.1518 132.032 101.725 134.051 103.104 137.25C103.246 137.591 103.744 137.293 103.588 136.966C102.379 134.136 100.119 131.933 97.6163 130.184C95.1141 128.435 92.5834 126.018 91.7303 122.762C91.6308 122.407 91.0905 122.563 91.1758 122.919Z" fill="#153D30"/>
<path d="M95.0003 133.411C96.9623 134.577 98.7253 135.956 99.8911 137.947C100.076 138.259 100.559 137.975 100.375 137.662C99.166 135.586 97.332 134.136 95.2989 132.928C95.2349 132.892 95.1596 132.882 95.0887 132.901C95.0178 132.919 94.9567 132.964 94.9182 133.027C94.8796 133.089 94.8667 133.164 94.882 133.235C94.8973 133.307 94.9397 133.37 95.0003 133.411Z" fill="#153D30"/>
<path d="M82.816 142.383C85.1304 143.419 87.236 144.869 89.029 146.662C90.6782 148.34 92.1853 150.302 94.6449 150.771C95.0146 150.828 95.1567 150.287 94.8013 150.216C92.1853 149.733 90.7209 147.458 88.9153 145.766C87.2119 144.162 85.251 142.854 83.1146 141.899C82.7734 141.743 82.489 142.24 82.816 142.383Z" fill="#153D30"/>
<path d="M90.1805 151.695C91.9719 153.046 93.7207 154.283 96.0097 154.524C96.3793 154.567 96.3651 153.998 96.0097 153.956C93.8486 153.728 92.1567 152.477 90.4649 151.212C90.1805 150.984 89.8962 151.482 90.1805 151.695Z" fill="#153D30"/>
</g>
<ellipse cx="71.962" cy="183.835" rx="10.962" ry="2.835" fill="#95CE49"/>
<path d="M72.5229 160.894C72.5229 160.2 71.9898 159.863 71.4566 159.863C70.9235 159.863 70.3903 160.2 70.3903 160.894C70.3903 168.02 69.7861 175.129 69.7683 182.255C69.7683 183.393 73.6959 183.393 73.6959 182.255C73.6781 175.111 72.5407 168.038 72.5229 160.894Z" fill="#6B472F"/>
<path d="M72.0253 165.141C76.2194 165.674 80.3958 163.559 80.6623 156.451C80.9289 149.342 81.4798 130.415 80.1114 113.034C78.743 95.6534 76.948 71.3594 71.7054 71.3594C66.4627 71.3594 63.6547 87.8694 62.1264 106.636C60.598 125.403 60.6513 148.951 62.1264 156.664C63.6014 164.377 68.6308 164.697 72.0253 165.141Z" fill="#508560"/>
<mask id="mask2_152_11053" style="mask-type:luminance" maskUnits="userSpaceOnUse" x="61" y="71" width="20" height="95">
<path d="M72.0253 165.141C76.2194 165.674 80.3958 163.559 80.6623 156.451C80.9289 149.342 81.4798 130.415 80.1114 113.034C78.743 95.6534 76.948 71.3594 71.7054 71.3594C66.4627 71.3594 63.6547 87.8694 62.1264 106.636C60.598 125.403 60.6513 148.951 62.1264 156.664C63.6014 164.377 68.6308 164.697 72.0253 165.141Z" fill="white"/>
</mask>
<g mask="url(#mask2_152_11053)">
<path d="M62.4639 83.3021C63.9629 86.3202 65.6608 89.2353 67.5466 92.028C69.1283 94.3561 70.9411 96.5776 73.4291 97.9638C73.8201 98.1771 74.1933 97.5728 73.7845 97.3418C71.2254 95.92 69.4305 93.5742 67.831 91.175C66.0715 88.5387 64.4864 85.79 63.0859 82.9466C62.8727 82.5379 62.2684 82.8933 62.4639 83.3021Z" fill="#153D30"/>
<path d="M68.7196 107.507C69.6971 111.204 72.2384 114.189 75.2774 116.411C78.6896 118.899 81.9063 121.422 83.6301 125.421C83.8079 125.848 84.4299 125.474 84.2344 125.066C82.7238 121.529 79.8981 118.774 76.7702 116.589C73.6424 114.403 70.479 111.381 69.4127 107.312C69.2883 106.867 68.613 107.063 68.7196 107.507Z" fill="#153D30"/>
<path d="M73.5002 120.623C75.9527 122.08 78.1564 123.804 79.6137 126.292C79.8447 126.683 80.449 126.328 80.218 125.937C78.7074 123.342 76.4148 121.529 73.8734 120.019C73.7935 119.974 73.6994 119.962 73.6107 119.985C73.522 120.008 73.4457 120.064 73.3975 120.142C73.3494 120.22 73.3332 120.314 73.3523 120.403C73.3715 120.493 73.4244 120.572 73.5002 120.623Z" fill="#153D30"/>
<path d="M58.2698 131.837C61.1628 133.132 63.7948 134.945 66.0361 137.186C68.0976 139.283 69.9814 141.736 73.0559 142.322C73.518 142.393 73.6957 141.718 73.2514 141.629C69.9814 141.025 68.1509 138.181 65.8939 136.066C63.7646 134.06 61.3136 132.426 58.643 131.232C58.2165 131.037 57.8611 131.659 58.2698 131.837Z" fill="#153D30"/>
<path d="M67.4756 143.477C69.7148 145.166 71.9008 146.712 74.762 147.014C75.2241 147.067 75.2063 146.356 74.762 146.303C72.0607 146.019 69.9459 144.455 67.831 142.873C67.4756 142.589 67.1202 143.211 67.4756 143.477Z" fill="#153D30"/>
</g>
<path d="M5.79559 58.6074C5.79559 58.2627 5.53042 58.0947 5.26525 58.0947C5.00007 58.0947 4.7349 58.2627 4.7349 58.6074C4.7349 62.1518 4.43438 65.6875 4.42554 69.2319C4.42554 69.7976 6.37896 69.7976 6.37896 69.2319C6.37012 65.6786 5.80443 62.1607 5.79559 58.6074Z" fill="#6B472F"/>
<path d="M5.54801 60.7197C7.63402 60.9849 9.71119 59.9331 9.84378 56.3974C9.97636 52.8618 10.2504 43.4483 9.56977 34.8037C8.88916 26.1591 7.99642 14.0762 5.38891 14.0762C2.78139 14.0762 1.38483 22.2876 0.624671 31.6216C-0.135486 40.9557 -0.108969 52.6674 0.624671 56.5035C1.35831 60.3396 3.85976 60.4988 5.54801 60.7197Z" fill="#508560"/>
<mask id="mask3_152_11053" style="mask-type:luminance" maskUnits="userSpaceOnUse" x="0" y="14" width="11" height="47">
<path d="M5.54801 60.7197C7.63402 60.9849 9.71119 59.9331 9.84378 56.3974C9.97636 52.8618 10.2504 43.4483 9.56977 34.8037C8.88916 26.1591 7.99642 14.0762 5.38891 14.0762C2.78139 14.0762 1.38483 22.2876 0.624671 31.6216C-0.135486 40.9557 -0.108969 52.6674 0.624671 56.5035C1.35831 60.3396 3.85976 60.4988 5.54801 60.7197Z" fill="white"/>
</mask>
<g mask="url(#mask3_152_11053)">
<path d="M0.79277 20.0163C1.53829 21.5174 2.38281 22.9673 3.32073 24.3563C4.10741 25.5142 5.00899 26.6191 6.24645 27.3085C6.44091 27.4146 6.62653 27.1141 6.42323 26.9992C5.15041 26.292 4.25767 25.1253 3.46216 23.932C2.58703 22.6208 1.79867 21.2537 1.10214 19.8395C0.996068 19.6362 0.695541 19.813 0.79277 20.0163Z" fill="#153D30"/>
<path d="M3.90409 32.0551C4.39024 33.8937 5.65422 35.3786 7.16569 36.4835C8.86279 37.721 10.4627 38.9761 11.32 40.9649C11.4084 41.177 11.7178 40.9914 11.6206 40.7881C10.8692 39.0291 9.46384 37.6591 7.90817 36.5719C6.3525 35.4847 4.77916 33.982 4.24881 31.9579C4.18694 31.7369 3.85106 31.8342 3.90409 32.0551Z" fill="#153D30"/>
<path d="M6.2818 38.5784C7.50159 39.3032 8.59763 40.1606 9.32243 41.398C9.43734 41.5925 9.73787 41.4157 9.62296 41.2213C8.87164 39.9308 7.73141 39.0292 6.46742 38.2779C6.42766 38.2556 6.38085 38.2496 6.33675 38.261C6.29265 38.2725 6.25466 38.3005 6.23072 38.3393C6.20678 38.378 6.19873 38.4245 6.20825 38.4691C6.21776 38.5136 6.24411 38.5528 6.2818 38.5784Z" fill="#153D30"/>
<path d="M-1.2933 44.1556C0.14557 44.7998 1.45462 45.7015 2.56936 46.8162C3.59469 47.8592 4.53163 49.079 6.06078 49.3707C6.29059 49.406 6.37898 49.0701 6.15801 49.026C4.53163 48.7254 3.62121 47.3112 2.49865 46.2593C1.43963 45.2617 0.220561 44.449 -1.10768 43.8551C-1.31981 43.7579 -1.49659 44.0673 -1.2933 44.1556Z" fill="#153D30"/>
<path d="M3.28538 49.9451C4.3991 50.7848 5.4863 51.5538 6.90939 51.7041C7.1392 51.7306 7.13036 51.3771 6.90939 51.3505C5.56585 51.2091 4.51401 50.4313 3.46216 49.6446C3.28538 49.5032 3.1086 49.8126 3.28538 49.9451Z" fill="#153D30"/>
</g>
<ellipse cx="5.65014" cy="70.07" rx="4.9641" ry="1.28382" fill="#95CE49"/>
<path d="M33.1506 58.6074C33.1506 58.2627 32.8854 58.0947 32.6202 58.0947C32.3551 58.0947 32.0899 58.2627 32.0899 58.6074C32.0899 62.1518 31.7894 65.6875 31.7805 69.2319C31.7805 69.7976 33.7339 69.7976 33.7339 69.2319C33.7251 65.6786 33.1594 62.1607 33.1506 58.6074Z" fill="#6B472F"/>
<path d="M32.903 60.7197C34.989 60.9849 37.0662 59.9331 37.1988 56.3974C37.3313 52.8618 37.6054 43.4483 36.9247 34.8037C36.2441 26.1591 35.3514 14.0762 32.7439 14.0762C30.1364 14.0762 28.7398 22.2876 27.9797 31.6216C27.2195 40.9557 27.246 52.6674 27.9797 56.5035C28.7133 60.3396 31.2147 60.4988 32.903 60.7197Z" fill="#508560"/>
<mask id="mask4_152_11053" style="mask-type:luminance" maskUnits="userSpaceOnUse" x="27" y="14" width="11" height="47">
<path d="M32.903 60.7197C34.989 60.9849 37.0662 59.9331 37.1988 56.3974C37.3313 52.8618 37.6054 43.4483 36.9247 34.8037C36.2441 26.1591 35.3514 14.0762 32.7439 14.0762C30.1364 14.0762 28.7398 22.2876 27.9797 31.6216C27.2195 40.9557 27.246 52.6674 27.9797 56.5035C28.7133 60.3396 31.2147 60.4988 32.903 60.7197Z" fill="white"/>
</mask>
<g mask="url(#mask4_152_11053)">
<path d="M28.1478 20.0163C28.8933 21.5174 29.7378 22.9673 30.6757 24.3563C31.4624 25.5142 32.364 26.6191 33.6014 27.3085C33.7959 27.4146 33.9815 27.1141 33.7782 26.9992C32.5054 26.292 31.6127 25.1253 30.8171 23.932C29.942 22.6208 29.1537 21.2537 28.4571 19.8395C28.351 19.6362 28.0505 19.813 28.1478 20.0163Z" fill="#153D30"/>
<path d="M31.2591 32.0551C31.7452 33.8937 33.0092 35.3786 34.5207 36.4835C36.2178 37.721 37.8176 38.9761 38.675 40.9649C38.7634 41.177 39.0728 40.9914 38.9755 40.7881C38.2242 39.0291 36.8188 37.6591 35.2632 36.5719C33.7075 35.4847 32.1341 33.982 31.6038 31.9579C31.5419 31.7369 31.206 31.8342 31.2591 32.0551Z" fill="#153D30"/>
<path d="M33.6368 38.5784C34.8566 39.3032 35.9526 40.1606 36.6774 41.398C36.7923 41.5925 37.0928 41.4157 36.9779 41.2213C36.2266 39.9308 35.0864 39.0292 33.8224 38.2779C33.7826 38.2556 33.7358 38.2496 33.6917 38.261C33.6476 38.2725 33.6096 38.3005 33.5857 38.3393C33.5618 38.378 33.5537 38.4245 33.5632 38.4691C33.5727 38.5136 33.5991 38.5528 33.6368 38.5784Z" fill="#153D30"/>
<path d="M26.0617 44.1556C27.5006 44.7998 28.8096 45.7015 29.9243 46.8162C30.9497 47.8592 31.8866 49.079 33.4158 49.3707C33.6456 49.406 33.734 49.0701 33.513 49.026C31.8866 48.7254 30.9762 47.3112 29.8536 46.2593C28.7946 45.2617 27.5755 44.449 26.2473 43.8551C26.0352 43.7579 25.8584 44.0673 26.0617 44.1556Z" fill="#153D30"/>
<path d="M30.6404 49.9451C31.7541 50.7848 32.8413 51.5538 34.2644 51.7041C34.4942 51.7306 34.4853 51.3771 34.2644 51.3505C32.9208 51.2091 31.869 50.4313 30.8171 49.6446C30.6404 49.5032 30.4636 49.8126 30.6404 49.9451Z" fill="#153D30"/>
</g>
<ellipse cx="33.0051" cy="70.07" rx="4.9641" ry="1.28382" fill="#95CE49"/>
<path d="M19.6623 55.6638C19.6623 55.2329 19.3308 55.0229 18.9993 55.0229C18.6679 55.0229 18.3364 55.2329 18.3364 55.6638C18.3364 60.0943 17.9608 64.5139 17.9497 68.9444C17.9497 69.6515 20.3915 69.6515 20.3915 68.9444C20.3804 64.5028 19.6733 60.1054 19.6623 55.6638Z" fill="#6B472F"/>
<path d="M19.353 58.3044C21.9605 58.6359 24.557 57.3211 24.7227 52.9016C24.8884 48.4821 25.2309 36.7151 24.3802 25.9094C23.5294 15.1037 22.4135 0 19.1541 0C15.8947 0 14.149 10.2643 13.1988 21.9318C12.2486 33.5994 12.2818 48.239 13.1988 53.0342C14.1159 57.8293 17.2427 58.0282 19.353 58.3044Z" fill="#508560"/>
<mask id="mask5_152_11053" style="mask-type:luminance" maskUnits="userSpaceOnUse" x="12" y="0" width="13" height="59">
<path d="M19.353 58.3044C21.9605 58.6359 24.557 57.3211 24.7227 52.9016C24.8884 48.4821 25.2309 36.7151 24.3802 25.9094C23.5294 15.1037 22.4135 0 19.1541 0C15.8947 0 14.149 10.2643 13.1988 21.9318C12.2486 33.5994 12.2818 48.239 13.1988 53.0342C14.1159 57.8293 17.2427 58.0282 19.353 58.3044Z" fill="white"/>
</mask>
<g mask="url(#mask5_152_11053)">
<path d="M13.4086 7.42482C14.3405 9.30119 15.3962 11.1135 16.5686 12.8498C17.5519 14.2972 18.6789 15.6783 20.2257 16.5401C20.4688 16.6727 20.7008 16.297 20.4467 16.1534C18.8557 15.2695 17.7398 13.811 16.7454 12.3194C15.6515 10.6804 14.666 8.97158 13.7953 7.20385C13.6627 6.94972 13.2871 7.1707 13.4086 7.42482Z" fill="#153D30"/>
<path d="M17.2978 22.4735C17.9055 24.7716 19.4855 26.6278 21.3748 28.0089C23.4962 29.5557 25.496 31.1247 26.5678 33.6106C26.6783 33.8758 27.065 33.6438 26.9434 33.3897C26.0043 31.191 24.2475 29.4784 22.3029 28.1194C20.3584 26.7604 18.3917 24.8821 17.7287 22.3519C17.6514 22.0757 17.2315 22.1972 17.2978 22.4735Z" fill="#153D30"/>
<path d="M20.2699 30.6274C21.7947 31.5334 23.1647 32.6051 24.0707 34.152C24.2143 34.395 24.59 34.1741 24.4464 33.931C23.5072 32.3179 22.0819 31.1909 20.5019 30.2518C20.4522 30.2239 20.3937 30.2164 20.3386 30.2307C20.2835 30.245 20.236 30.28 20.2061 30.3285C20.1761 30.3769 20.1661 30.4351 20.178 30.4908C20.1899 30.5465 20.2228 30.5954 20.2699 30.6274Z" fill="#153D30"/>
<path d="M10.8012 37.5992C12.5997 38.4044 14.2361 39.5315 15.6295 40.9249C16.9111 42.2287 18.0823 43.7534 19.9938 44.118C20.281 44.1622 20.3915 43.7423 20.1153 43.6871C18.0823 43.3114 16.9443 41.5436 15.5411 40.2288C14.2173 38.9818 12.6935 37.9659 11.0332 37.2236C10.768 37.102 10.547 37.4887 10.8012 37.5992Z" fill="#153D30"/>
<path d="M16.5244 44.836C17.9165 45.8856 19.2755 46.8468 21.0544 47.0347C21.3417 47.0678 21.3306 46.6259 21.0544 46.5927C19.375 46.4159 18.0602 45.4436 16.7454 44.4603C16.5244 44.2835 16.3034 44.6702 16.5244 44.836Z" fill="#153D30"/>
</g>
<ellipse cx="19.3137" cy="70.5487" rx="6.81512" ry="1.76253" fill="#95CE49"/>
<path d="M140.69 110.692C140.69 110.399 140.465 110.257 140.24 110.257C140.015 110.257 139.79 110.399 139.79 110.692C139.79 113.697 139.536 116.695 139.528 119.7C139.528 120.179 141.184 120.179 141.184 119.7C141.177 116.687 140.697 113.704 140.69 110.692Z" fill="#6B472F"/>
<path d="M140.48 112.483C142.249 112.708 144.01 111.816 144.122 108.818C144.235 105.82 144.467 97.8386 143.89 90.509C143.313 83.1795 142.556 72.9346 140.345 72.9346C138.134 72.9346 136.95 79.8969 136.306 87.811C135.661 95.7251 135.684 105.655 136.306 108.908C136.928 112.16 139.049 112.295 140.48 112.483Z" fill="#508560"/>
<mask id="mask6_152_11053" style="mask-type:luminance" maskUnits="userSpaceOnUse" x="135" y="72" width="10" height="41">
<path d="M140.48 112.483C142.249 112.708 144.01 111.816 144.122 108.818C144.235 105.82 144.467 97.8386 143.89 90.509C143.313 83.1795 142.556 72.9346 140.345 72.9346C138.134 72.9346 136.95 79.8969 136.306 87.811C135.661 95.7251 135.684 105.655 136.306 108.908C136.928 112.16 139.049 112.295 140.48 112.483Z" fill="white"/>
</mask>
<g mask="url(#mask6_152_11053)">
<path d="M136.448 77.9709C137.08 79.2436 137.796 80.4729 138.591 81.6506C139.258 82.6324 140.023 83.5692 141.072 84.1538C141.237 84.2437 141.394 83.9889 141.222 83.8915C140.143 83.2919 139.386 82.3026 138.711 81.2909C137.969 80.1791 137.301 79.02 136.71 77.821C136.62 77.6486 136.365 77.7985 136.448 77.9709Z" fill="#153D30"/>
<path d="M139.086 88.1786C139.498 89.7374 140.57 90.9965 141.851 91.9333C143.29 92.9825 144.647 94.0467 145.374 95.733C145.449 95.9128 145.711 95.7554 145.628 95.5831C144.991 94.0917 143.8 92.93 142.481 92.0082C141.162 91.0864 139.828 89.8124 139.378 88.0961C139.326 87.9088 139.041 87.9912 139.086 88.1786Z" fill="#153D30"/>
<path d="M141.102 93.7094C142.136 94.324 143.065 95.0509 143.68 96.1002C143.777 96.265 144.032 96.1151 143.935 95.9503C143.298 94.8561 142.331 94.0916 141.259 93.4546C141.225 93.4358 141.186 93.4306 141.148 93.4403C141.111 93.45 141.079 93.4738 141.058 93.5067C141.038 93.5395 141.031 93.579 141.039 93.6167C141.048 93.6545 141.07 93.6877 141.102 93.7094Z" fill="#153D30"/>
<path d="M134.679 98.4381C135.899 98.9843 137.009 99.7488 137.954 100.694C138.824 101.578 139.618 102.613 140.915 102.86C141.109 102.89 141.184 102.605 140.997 102.568C139.618 102.313 138.846 101.114 137.894 100.222C136.996 99.3759 135.963 98.6868 134.837 98.1833C134.657 98.1009 134.507 98.3632 134.679 98.4381Z" fill="#153D30"/>
<path d="M138.561 103.347C139.506 104.059 140.427 104.711 141.634 104.838C141.829 104.861 141.821 104.561 141.634 104.539C140.495 104.419 139.603 103.759 138.711 103.092C138.561 102.972 138.411 103.235 138.561 103.347Z" fill="#153D30"/>
</g>
<ellipse cx="140.567" cy="120.411" rx="4.20896" ry="1.08852" fill="#95CE49"/>
<path d="M163.884 110.692C163.884 110.399 163.659 110.257 163.434 110.257C163.209 110.257 162.984 110.399 162.984 110.692C162.984 113.697 162.729 116.695 162.722 119.7C162.722 120.179 164.378 120.179 164.378 119.7C164.371 116.687 163.891 113.704 163.884 110.692Z" fill="#6B472F"/>
<path d="M163.674 112.483C165.442 112.708 167.204 111.816 167.316 108.818C167.429 105.82 167.661 97.8386 167.084 90.509C166.507 83.1795 165.75 72.9346 163.539 72.9346C161.328 72.9346 160.144 79.8969 159.499 87.811C158.855 95.7251 158.877 105.655 159.499 108.908C160.121 112.16 162.242 112.295 163.674 112.483Z" fill="#508560"/>
<mask id="mask7_152_11053" style="mask-type:luminance" maskUnits="userSpaceOnUse" x="159" y="72" width="9" height="41">
<path d="M163.674 112.483C165.442 112.708 167.204 111.816 167.316 108.818C167.429 105.82 167.661 97.8386 167.084 90.509C166.507 83.1795 165.75 72.9346 163.539 72.9346C161.328 72.9346 160.144 79.8969 159.499 87.811C158.855 95.7251 158.877 105.655 159.499 108.908C160.121 112.16 162.242 112.295 163.674 112.483Z" fill="white"/>
</mask>
<g mask="url(#mask7_152_11053)">
<path d="M159.642 77.9709C160.274 79.2436 160.99 80.4729 161.785 81.6506C162.452 82.6324 163.217 83.5692 164.266 84.1538C164.431 84.2437 164.588 83.9889 164.416 83.8915C163.336 83.2919 162.579 82.3026 161.905 81.2909C161.163 80.1791 160.495 79.02 159.904 77.821C159.814 77.6486 159.559 77.7985 159.642 77.9709Z" fill="#153D30"/>
<path d="M162.28 88.1786C162.692 89.7374 163.764 90.9965 165.045 91.9333C166.484 92.9825 167.841 94.0467 168.568 95.733C168.642 95.9128 168.905 95.7554 168.822 95.5831C168.185 94.0917 166.994 92.93 165.675 92.0082C164.356 91.0864 163.022 89.8124 162.572 88.0961C162.52 87.9088 162.235 87.9912 162.28 88.1786Z" fill="#153D30"/>
<path d="M164.296 93.7094C165.33 94.324 166.259 95.0509 166.874 96.1002C166.971 96.265 167.226 96.1151 167.129 95.9503C166.492 94.8561 165.525 94.0916 164.453 93.4546C164.419 93.4358 164.38 93.4306 164.342 93.4403C164.305 93.45 164.273 93.4738 164.252 93.5067C164.232 93.5395 164.225 93.579 164.233 93.6167C164.241 93.6545 164.264 93.6877 164.296 93.7094Z" fill="#153D30"/>
<path d="M157.873 98.4381C159.093 98.9843 160.203 99.7488 161.148 100.694C162.017 101.578 162.812 102.613 164.108 102.86C164.303 102.89 164.378 102.605 164.191 102.568C162.812 102.313 162.04 101.114 161.088 100.222C160.19 99.3759 159.157 98.6868 158.03 98.1833C157.85 98.1009 157.701 98.3632 157.873 98.4381Z" fill="#153D30"/>
<path d="M161.755 103.347C162.699 104.059 163.621 104.711 164.828 104.838C165.023 104.861 165.015 104.561 164.828 104.539C163.689 104.419 162.797 103.759 161.905 103.092C161.755 102.972 161.605 103.235 161.755 103.347Z" fill="#153D30"/>
</g>
<ellipse cx="163.76" cy="120.411" rx="4.20896" ry="1.08852" fill="#95CE49"/>
<path d="M152.447 108.196C152.447 107.831 152.166 107.653 151.885 107.653C151.604 107.653 151.323 107.831 151.323 108.196C151.323 111.953 151.005 115.7 150.995 119.457C150.995 120.056 153.066 120.056 153.066 119.457C153.056 115.691 152.457 111.962 152.447 108.196Z" fill="#6B472F"/>
<path d="M152.185 110.435C154.396 110.716 156.597 109.601 156.738 105.854C156.878 102.107 157.169 92.13 156.447 82.9681C155.726 73.8061 154.78 61 152.016 61C149.253 61 147.773 69.7029 146.967 79.5956C146.161 89.4882 146.189 101.901 146.967 105.967C147.745 110.032 150.396 110.201 152.185 110.435Z" fill="#508560"/>
<mask id="mask8_152_11053" style="mask-type:luminance" maskUnits="userSpaceOnUse" x="146" y="61" width="11" height="50">
<path d="M152.185 110.435C154.396 110.716 156.597 109.601 156.738 105.854C156.878 102.107 157.169 92.13 156.447 82.9681C155.726 73.8061 154.78 61 152.016 61C149.253 61 147.773 69.7029 146.967 79.5956C146.161 89.4882 146.189 101.901 146.967 105.967C147.745 110.032 150.396 110.201 152.185 110.435Z" fill="white"/>
</mask>
<g mask="url(#mask8_152_11053)">
<path d="M147.145 67.2955C147.935 68.8864 148.83 70.423 149.824 71.8952C150.658 73.1224 151.614 74.2934 152.925 75.0241C153.131 75.1365 153.328 74.818 153.112 74.6962C151.763 73.9468 150.817 72.7102 149.974 71.4455C149.047 70.0558 148.211 68.6069 147.473 67.1081C147.36 66.8926 147.042 67.08 147.145 67.2955Z" fill="#153D30"/>
<path d="M150.443 80.0548C150.958 82.0033 152.297 83.5771 153.899 84.7481C155.698 86.0597 157.394 87.3899 158.302 89.4977C158.396 89.7226 158.724 89.5258 158.621 89.3104C157.825 87.4461 156.335 85.9941 154.686 84.8418C153.037 83.6896 151.37 82.097 150.808 79.9517C150.742 79.7175 150.386 79.8206 150.443 80.0548Z" fill="#153D30"/>
<path d="M152.963 86.9683C154.255 87.7365 155.417 88.6452 156.185 89.9567C156.307 90.1628 156.626 89.9755 156.504 89.7694C155.708 88.4016 154.499 87.4461 153.159 86.6498C153.117 86.6262 153.068 86.6199 153.021 86.632C152.974 86.6441 152.934 86.6738 152.909 86.7149C152.883 86.756 152.875 86.8053 152.885 86.8525C152.895 86.8997 152.923 86.9412 152.963 86.9683Z" fill="#153D30"/>
<path d="M144.934 92.8798C146.459 93.5625 147.847 94.5182 149.028 95.6996C150.115 96.805 151.108 98.0978 152.728 98.407C152.972 98.4444 153.066 98.0885 152.832 98.0416C151.108 97.7231 150.143 96.2242 148.953 95.1094C147.831 94.0521 146.539 93.1907 145.131 92.5613C144.906 92.4583 144.719 92.7861 144.934 92.8798Z" fill="#153D30"/>
<path d="M149.787 99.0156C150.967 99.9055 152.119 100.721 153.628 100.88C153.871 100.908 153.862 100.533 153.628 100.505C152.204 100.355 151.089 99.5308 149.974 98.6971C149.787 98.5472 149.599 98.8751 149.787 99.0156Z" fill="#153D30"/>
</g>
<ellipse cx="152.152" cy="120.817" rx="5.7784" ry="1.49441" fill="#95CE49"/>
</svg>
