<svg width="106" height="121" viewBox="0 0 106 121" fill="none" xmlns="http://www.w3.org/2000/svg">
<ellipse cx="55.5" cy="114.5" rx="22.5" ry="6.5" fill="#98D049"/>
<path d="M57.6802 99.5641C57.6747 98.5024 56.5207 98.1808 55.8275 98.6018C55.1312 98.1816 53.9811 98.5008 53.9811 99.5641V114.824C53.9811 116.113 58.4156 116.115 58.4086 114.824C58.3859 110.728 57.7029 103.661 57.681 99.5641H57.6802Z" fill="#7D322D"/>
<path d="M46.996 95.6217C46.996 95.6217 22.2916 108.297 6.80674 90.5276C-7.00696 74.6758 2.60145 53.0962 14.4083 49.7719C14.4083 49.7719 14.9498 41.3566 20.1495 36.6717C24.6372 32.6284 30.5003 32.2239 30.5003 32.2239C30.5003 32.2239 34.7056 15.8088 42.0639 6.75195C49.4222 -2.30488 64.544 -4.32655 73.8434 13.8677C73.8434 13.8677 83.0622 17.911 86.054 26.5634C89.0458 35.2157 88.8033 42.3322 88.8033 42.3322C88.8033 42.3322 100.296 45.4258 103.763 56.4026C107.512 68.2674 104.355 77.8977 100.063 84.5776C96.0677 90.7952 89.1264 94.9747 82.2532 92.7918C82.2532 92.7918 77.6442 101.526 67.4553 102.253C54.927 103.148 46.9968 95.6225 46.9968 95.6225L46.996 95.6217Z" fill="#D6DE7C"/>
<path d="M104.448 74.2079C103.762 78.2622 102.232 80.8668 100.731 83.7139C97.289 90.2467 89.1264 94.9747 82.2532 92.791C82.2532 92.791 77.645 101.525 67.4545 102.252C54.9263 103.147 46.9968 95.6217 46.9968 95.6217C46.9968 95.6217 22.2916 108.298 6.80675 90.5268C5.09568 88.5638 3.74373 86.514 2.71255 84.4188C22.7743 106.264 50.4964 89.491 50.4964 89.491C71.4368 105.866 82.8995 80.5757 82.8995 80.5757C95.0866 91.1214 104.308 74.4575 104.448 74.2095V74.2079Z" fill="#BFC763"/>
<path d="M14.4982 50C23.4527 51.029 26.3794 55.8804 25.9982 61" stroke="#404040" stroke-width="0.5" stroke-linecap="round"/>
<path d="M30.4982 32.5C34.5773 32.9529 35.8134 33.9483 35.4982 37.5" stroke="#404040" stroke-width="0.5" stroke-linecap="round"/>
</svg>
