<svg width="155" height="150" viewBox="0 0 155 150" fill="none" xmlns="http://www.w3.org/2000/svg">
<path d="M24.9207 69.4067C16.4519 61.6455 31.6882 44.9984 40.5086 53.8188L53.9156 67.2258C68.381 81.6912 83.8047 63.445 70.7506 50.3908L48.5232 28.1635C36.1748 15.8151 48.4232 -5.60643 65.3581 11.3285C65.3581 11.3285 94.8715 38.9712 130.047 77.8874C165.221 116.804 107.479 151.965 81.724 126.21L24.9207 69.4067Z" fill="#9BD552"/>
<path d="M0.145836 47.6612C0.56636 45.5289 1.77074 43.5142 3.5683 42.2653C3.84476 42.0725 4.13182 41.9052 4.42841 41.7548C3.96128 40.8946 3.55981 39.9996 3.25687 39.0748C2.55564 36.932 2.40311 34.5709 3.36385 32.4799C4.20702 30.6442 5.73235 29.2111 7.48859 28.2535C9.53402 27.1381 11.875 26.7525 14.1831 26.7504C16.631 26.7472 19.08 27.154 21.4687 27.6635C23.7492 28.1518 26.0001 28.7863 28.1981 29.567C30.3897 30.3445 32.5315 31.2671 34.6024 32.3221C34.7019 32.3729 34.7994 32.4248 34.8968 32.4767C35.0515 30.8518 35.6192 29.2619 36.5662 27.9304C38.9644 24.5599 43.4143 23.6002 47.3134 24.1415C49.6194 24.4624 51.8375 25.241 53.974 26.1456C55.8998 26.9612 57.7863 27.8743 59.6262 28.8668C63.2796 30.8381 66.7476 33.1525 69.9752 35.7636C71.8797 37.3048 73.7037 38.9509 75.4293 40.6934C76.8095 38.095 79.6144 36.7847 82.4394 36.4627C85.3386 36.1344 88.3024 36.7625 90.9452 37.9594C93.6252 39.1723 96.0201 40.991 97.9342 43.224C98.8166 44.2546 99.5941 45.3764 100.25 46.5659C103.709 47.139 106.991 48.713 109.565 51.1419C111.402 52.8748 113.015 55.2338 112.929 57.8639C112.874 59.5439 112.045 60.9856 110.859 62.0872C110.401 62.5119 109.888 62.888 109.348 63.2047C104.916 65.8105 99.361 64.6834 94.7745 63.1517C89.7546 61.4728 84.8471 59.0355 79.4756 58.7622C77.8031 58.6764 76.1633 58.7791 74.5437 59.01C73.9844 59.0895 73.4283 59.1859 72.8743 59.2939C64.7859 60.8775 57.1719 65.2575 48.7657 65.1463C43.1908 65.0732 38.2017 62.5066 32.9626 60.9474C30.0497 60.0809 27.1452 59.7229 24.1104 59.9771C21.0587 60.2335 18.043 60.8309 14.9701 60.7991C10.8221 60.7578 6.5162 59.5905 3.51109 56.7581C2.77174 56.0621 2.11076 55.2645 1.55042 54.3567C0.325912 52.377 -0.306465 49.9746 0.146896 47.6612H0.145836Z" fill="#52AE7D"/>
<path d="M74.3859 56.8662C74.5691 55.3027 75.4843 53.9077 77.0414 53.4512C78.6685 52.9745 80.4215 53.4713 82.0295 53.7901C83.0146 53.9861 83.9986 54.1767 84.9848 54.3632C85.4689 54.4564 85.9551 54.5613 86.4445 54.6269C86.8629 54.6831 87.3078 54.6968 87.6859 54.4808C88.0037 54.2986 88.242 53.9999 88.4814 53.7297C88.7483 53.4321 89.0216 53.162 89.3659 52.9544C90.0152 52.5635 90.7832 52.4544 91.5299 52.4904C92.3117 52.5275 93.0849 52.7224 93.8285 52.9607C94.6378 53.2192 95.4386 53.5105 96.2309 53.8145C99.4489 55.0422 102.55 56.5717 105.491 58.3661C107.351 59.5006 109.145 60.7431 110.858 62.0883C110.4 62.5131 109.887 62.8891 109.347 63.2058C104.915 65.8116 99.36 64.6846 94.7734 63.1529C89.7536 61.474 84.846 59.0366 79.4746 58.7633C77.802 58.6775 76.1623 58.7803 74.5427 59.0112C74.3742 58.3121 74.3001 57.595 74.3848 56.8683L74.3859 56.8662Z" fill="#41A668"/>
<path d="M6.24395 53.7868C8.46415 52.2668 11.1907 51.5327 13.7922 50.9724C18.0568 50.053 22.4622 49.9354 26.785 50.482C28.9396 50.7553 31.074 51.1895 33.1702 51.7552C34.2528 52.0465 35.3248 52.3738 36.3883 52.7329C37.117 52.9786 38.3542 53.683 39.1084 53.1937C39.5808 52.8886 39.7334 52.1916 40.0204 51.7351C40.3117 51.2722 40.7079 50.8633 41.1475 50.5381C42.0987 49.8337 43.2628 49.4608 44.4354 49.3772C45.9141 49.2702 47.3727 49.553 48.808 49.8708C50.1183 50.161 51.4212 50.483 52.7167 50.8358C55.3754 51.5592 57.9981 52.4162 60.5711 53.4002C64.8219 55.0251 68.9424 56.9974 72.8733 59.2929C64.7848 60.8764 57.1708 65.2565 48.7646 65.1452C43.1897 65.0722 38.2006 62.5056 32.9616 60.9464C30.0486 60.0799 27.1441 59.7219 24.1094 59.9761C21.0576 60.2324 18.0419 60.8298 14.969 60.7981C10.821 60.7567 6.51512 59.5894 3.51001 56.757C4.15298 55.5675 5.13808 54.5421 6.24395 53.7868Z" fill="#41A668"/>
<path d="M40.4251 57.4044C41.5595 61.259 42.8211 65.0723 44.4015 68.7755C46.5645 73.8429 49.2942 78.6213 52.7379 82.9303C56.2429 87.3177 60.2787 91.2349 64.0941 95.3448C67.6924 99.2206 71.1191 103.322 73.6529 107.989C74.9102 110.305 75.9218 112.753 76.5902 115.303C77.3348 118.146 77.6357 121.083 77.8486 124.006C77.8507 124.032 77.8518 124.056 77.8539 124.081C76.2131 124.315 74.5448 124.348 72.8754 124.129C71.4952 123.947 70.151 123.6 68.8566 123.118C68.4053 118.25 66.9626 113.545 64.95 109.102C62.8622 104.493 60.1919 100.181 57.3287 96.0185C54.331 91.6596 51.1299 87.4449 48.1248 83.0913C45.2489 78.9253 42.5468 74.6173 40.424 70.0127C38.5068 65.854 37.0323 61.4338 36.4465 56.879C37.778 56.9838 39.1063 57.1681 40.4261 57.4044H40.4251Z" fill="#944D3A"/>
<path d="M32.7127 77.225C34.4678 79.3255 36.5175 81.1696 38.797 82.6971C41.7704 84.6896 45.1218 86.145 48.6153 86.932C50.3736 87.3282 52.1744 87.5665 53.9772 87.6173C54.1467 88.023 54.2855 88.4457 54.4211 88.8609C54.653 89.5727 54.9221 90.2792 55.1583 90.9932C55.0958 90.9932 55.0322 90.9911 54.9697 90.9911C54.9348 90.9974 54.8998 90.9974 54.8659 90.99C51.3164 90.9455 47.8018 90.2305 44.5096 88.9001C41.0956 87.5199 37.9369 85.5126 35.2528 82.9905C33.7656 81.5923 32.4288 80.0373 31.2933 78.3404C31.2763 78.334 31.2594 78.3266 31.2424 78.3181C31.2117 78.3012 31.1831 78.2789 31.1587 78.2525C31.5888 77.8287 32.1385 77.5152 32.7127 77.225Z" fill="#944D3A"/>
<path d="M94.9006 59.0344C94.1135 60.905 93.0627 62.6581 91.78 64.2364C90.1064 66.2956 88.0482 68.056 85.7443 69.3748C84.5845 70.0379 83.36 70.5993 82.0942 71.0273C82.0624 71.3514 82.056 71.6819 82.0507 72.005C82.0412 72.56 82.0041 73.1193 81.9925 73.6765C82.037 73.6627 82.0814 73.6479 82.1259 73.6341C82.1524 73.6309 82.1768 73.6235 82.199 73.6108C84.7042 72.8068 87.0398 71.5357 89.0831 69.8758C91.2016 68.1556 93.0034 66.0445 94.3561 63.6739C95.1061 62.3594 95.7151 60.9664 96.1505 59.5163C96.1611 59.5078 96.1717 59.4994 96.1812 59.4898C96.1992 59.4708 96.214 59.4485 96.2267 59.4252C95.8295 59.2187 95.3719 59.1159 94.9016 59.0354L94.9006 59.0344Z" fill="#944D3A"/>
<path d="M51.0229 70.8864C51.8555 69.4586 52.5609 67.9682 53.0948 66.3941C53.7643 64.4239 54.1763 62.37 54.3161 60.2939C54.35 59.7897 54.3659 59.2844 54.3691 58.7781C54.9157 58.6478 55.4644 58.4794 56.0237 58.311C56.102 58.2877 56.1804 58.2644 56.2588 58.24C56.4611 60.7102 56.2832 63.2079 55.7345 65.6262C55.2271 67.8633 54.4263 70.0306 53.348 72.0527C52.5948 71.6163 51.8131 71.2402 51.0219 70.8854L51.0229 70.8864Z" fill="#944D3A"/>
<path d="M69.1902 103.673C68.3608 102.96 67.4943 102.278 66.6904 101.544C66.7921 98.9598 67.2528 96.3879 68.0452 93.9262C69.1786 90.4063 71.0397 87.184 73.0681 84.1111C75.0934 81.0425 77.2946 78.0893 79.1832 74.9316C81.1249 71.6861 82.6396 68.2043 83.4203 64.4926C84.0452 61.5236 84.2147 58.4634 83.8503 55.4551C84.4838 55.5271 85.1129 55.6097 85.74 55.7093C86.2262 58.4898 86.2516 61.3403 85.8608 64.1484C85.3333 67.9373 84.0738 71.578 82.2794 74.9496C80.5507 78.1973 78.4312 81.2088 76.3963 84.2658C74.3732 87.3058 72.4156 90.4253 71.0895 93.8425C69.8756 96.9715 69.2347 100.319 69.1913 103.675L69.1902 103.673Z" fill="#944D3A"/>
<path d="M2.42326 69.6005C3.09058 68.592 4.07252 67.8347 5.1572 67.322C6.27789 66.7924 7.51192 66.5032 8.73854 66.357C9.38045 66.2807 10.0255 66.2458 10.6717 66.2363C11.3952 66.2257 12.2065 66.3581 12.8982 66.0986C13.5401 65.8592 13.9501 65.2734 14.3611 64.7575C14.7869 64.2194 15.2625 63.7279 15.8165 63.3201C16.9637 62.4727 18.3333 61.9558 19.7336 61.7228C23.0141 61.1762 26.3836 62.1677 29.4798 63.1708C32.6428 64.194 35.7083 65.5011 38.6466 67.0593C41.3679 68.5031 44.3772 70.3557 47.5846 70.1068C49.1301 69.986 50.4806 69.2869 51.8301 68.5793C54.6636 67.0932 57.9611 66.8824 61.0202 67.7404C62.7076 68.2139 64.4872 68.9024 65.9182 69.9278C67.183 70.8334 68.2211 72.1702 68.4107 73.7125C68.614 75.3586 67.8196 77.0025 66.6788 78.2069C65.4278 79.5278 63.7891 80.4027 62.0286 80.8932C61.1484 81.1389 60.2385 81.2883 59.3318 81.3487C55.8818 81.5796 52.4922 80.6538 49.1915 79.7661C46.7648 79.1136 44.3105 78.476 41.7884 78.3446C39.171 78.2101 36.58 78.7048 33.9901 79.0045C28.8718 79.5988 23.6793 79.5172 18.5737 78.8382C14.986 78.3605 11.3496 77.8298 7.9494 76.5365C7.40918 76.3299 6.77044 76.0842 6.11159 75.7907C3.42319 74.598 0.407494 72.6458 2.42113 69.6005H2.42326Z" fill="#52AE7D"/>
<path d="M6.43677 75.4868C7.30854 74.6955 8.29047 74.0314 9.3296 73.4774C13.6927 71.1502 18.8703 71.0464 23.5946 72.1777C24.8975 72.4891 26.1802 72.8831 27.4386 73.3429C28.0604 73.5706 28.6769 73.8132 29.2881 74.0685C29.8622 74.31 30.4384 74.5705 31.0443 74.7188C31.5941 74.8544 32.1841 74.9063 32.7137 74.6744C33.2391 74.4456 33.6236 73.9752 34.0759 73.6373C34.9371 72.9933 35.9529 72.6035 37.0037 72.4044C39.2133 71.9828 41.5066 72.38 43.6738 72.8514C46.1959 73.4001 48.6788 74.1341 51.0908 75.0536C53.508 75.9741 55.8542 77.0799 58.1041 78.3606C59.4546 79.1285 60.7935 79.9463 62.0297 80.8932C61.1495 81.139 60.2395 81.2883 59.3328 81.3487C55.8828 81.5796 52.4932 80.6538 49.1926 79.7662C46.7658 79.1137 44.3115 78.476 41.7894 78.3447C39.172 78.2101 36.5811 78.7048 33.9912 79.0046C28.8729 79.5988 23.6804 79.5173 18.5748 78.8383C14.9871 78.3606 11.3507 77.8299 7.95044 76.5365C7.41022 76.33 6.77149 76.0842 6.11264 75.7908C6.2175 75.6881 6.32661 75.5864 6.43677 75.4868Z" fill="#41A668"/>
<path d="M25.712 43.3585C24.5405 42.1986 23.1317 41.2823 21.5905 40.6934C20.8448 40.4084 20.0132 40.1182 19.2061 40.1161C18.7877 40.1161 18.365 40.2188 18.043 40.4995C17.7697 40.7379 17.5854 41.0609 17.4816 41.4062C17.1882 42.3723 17.5452 43.3712 17.8672 44.2811C17.9138 44.4114 17.7528 44.5152 17.6426 44.4537C14.5718 42.7303 11.0784 41.7897 7.55745 41.7261C6.56811 41.7081 5.57876 41.76 4.59683 41.8797C4.40193 41.903 4.40405 41.598 4.59683 41.5747C8.14216 41.1435 11.7881 41.6139 15.1121 42.9178C16.0347 43.2801 16.9319 43.7048 17.7962 44.19C17.721 44.2472 17.6469 44.3054 17.5717 44.3626C17.2602 43.4813 16.9393 42.5439 17.1194 41.598C17.2655 40.8268 17.757 40.1192 18.5377 39.8968C19.384 39.6553 20.3257 39.9424 21.1318 40.2072C21.9697 40.4826 22.7779 40.8491 23.5374 41.2971C24.406 41.8098 25.2099 42.4327 25.9271 43.1424C26.0669 43.2811 25.8508 43.4972 25.711 43.3585H25.712Z" fill="#191626"/>
<path d="M75.2301 40.8692C73.781 40.0938 72.155 39.6627 70.5111 39.6277C69.7918 39.6129 69.0292 39.6436 68.3587 39.9318C67.7062 40.2114 67.2698 40.7474 67.0854 41.4274C66.8842 42.17 66.9456 42.9623 67.0155 43.7197C67.0261 43.834 66.8778 43.9124 66.7857 43.851C64.7498 42.5036 62.4099 41.6255 59.9874 41.3109C59.3042 41.2219 58.6156 41.1796 57.9261 41.1785C57.729 41.1785 57.729 40.8724 57.9261 40.8734C60.4015 40.8766 62.8622 41.4486 65.0887 42.5301C65.7285 42.8415 66.3461 43.1953 66.9393 43.5883C66.863 43.6317 66.7857 43.6762 66.7094 43.7197C66.5823 42.3522 66.5442 40.6679 67.8661 39.8449C68.507 39.4456 69.2908 39.3439 70.0312 39.3248C70.8903 39.3026 71.7525 39.3884 72.5915 39.5716C73.5649 39.7845 74.5055 40.1362 75.3847 40.6065C75.5584 40.6997 75.4038 40.9635 75.2301 40.8703V40.8692Z" fill="#191626"/>
</svg>
