<svg width="399" height="543" viewBox="0 0 399 543" fill="none" xmlns="http://www.w3.org/2000/svg">
<g clip-path="url(#clip0_1959_11478)">
<path d="M150 444.45C146.59 441.62 135.82 435.42 135.82 435.42L111.65 449.42C111.65 449.42 131.25 461.76 133.56 463.52C135.87 465.28 145.7 479.98 158.07 493.6C169.64 506.34 188.06 522.87 188.06 522.87L196.61 517.21C196.61 517.21 155.66 449.16 150 444.46V444.45Z" fill="#FFC099"/>
<path d="M131.62 466.17C128.73 462.96 109.17 446.07 109.17 446.07L84 465.16C84 465.16 107.91 478.65 110.08 480.58C112.25 482.51 120.14 496.9 133.39 509.67C146.64 522.44 157.6 532.07 157.6 532.07L166.75 526.83C166.75 526.83 134.59 469.46 131.62 466.17Z" fill="#FFC099"/>
<path d="M136.27 435.53C125.97 443.95 119.46 455.2 119.46 455.2L116.03 452.3H116.02C115.97 452.36 115.8 452.53 115.37 452.91C114.28 453.87 111.54 456.17 105.19 461.07C98.3697 466.32 89.6497 473.72 89.6497 473.72C89.6497 473.72 86.4196 471.84 81.6396 468.94C81.3796 468.79 81.1196 468.62 80.8496 468.46C71.0596 462.47 55.5696 452.61 47.5396 445.41C35.7296 434.83 31.6396 411.75 31.6396 411.75C31.6396 411.75 39.0497 407.5 51.0597 403.88C75.2497 396.61 87.9496 399.64 87.9496 399.64C87.9496 399.64 90.5396 405.98 91.3196 407.71C91.4296 407.95 113.57 421.64 126.75 429.72C127.02 429.88 127.28 430.04 127.53 430.19C132.67 433.35 136.26 435.53 136.26 435.53H136.27Z" fill="#524469"/>
<path d="M89.9699 461.02C89.0099 461.8 88.0599 462.58 87.1199 463.38C86.8599 463.22 86.5999 463.05 86.3399 462.88C77.7399 457.35 69.3799 451.43 61.3299 445.17C54.8899 440.19 49.4199 435.28 45.8399 427.84C42.2799 420.45 39.7399 412.62 38.1499 404.6C37.7199 402.38 41.1099 401.44 41.5599 403.66C43.1499 411.69 45.6499 419.61 49.3099 426.95C52.8899 434.11 58.6799 438.76 64.9199 443.53C72.7599 449.52 80.8699 455.2 89.1899 460.52C89.4499 460.7 89.7099 460.86 89.9799 461.03L89.9699 461.02Z" fill="#FFE5DE"/>
<path d="M95.6301 455.96C94.6701 456.74 93.7201 457.52 92.7801 458.32C92.5201 458.16 92.2601 457.99 92.0001 457.82C83.4001 452.29 75.0401 446.37 66.9901 440.11C60.5501 435.13 55.0801 430.22 51.5001 422.78C47.9401 415.39 45.4001 407.56 43.8101 399.54C43.3801 397.32 46.7701 396.38 47.2201 398.6C48.8101 406.63 51.3101 414.55 54.9701 421.89C58.5501 429.05 64.3401 433.7 70.5801 438.47C78.4201 444.46 86.5301 450.14 94.8501 455.46C95.1101 455.64 95.3701 455.8 95.6401 455.97L95.6301 455.96Z" fill="#FFE5DE"/>
<path d="M109.18 447.42C103.5 450.93 98.0501 454.78 92.8701 458.98C91.9101 459.76 90.9601 460.54 90.0201 461.34C87.1401 463.77 84.3601 466.31 81.6601 468.95C81.4001 468.8 81.1401 468.63 80.8701 468.47C83.5701 465.82 86.3701 463.28 89.2401 460.84C90.1801 460.04 91.1301 459.25 92.0801 458.48C97.3601 454.19 102.93 450.25 108.73 446.67C109.22 446.38 109.66 447.14 109.18 447.43V447.42Z" fill="#2F2031"/>
<path d="M127.54 430.19C121.7 435.96 116.54 442.4 111.76 449.07C111.43 449.53 110.67 449.08 111 448.62C115.78 441.95 120.95 435.49 126.77 429.71C127.04 429.87 127.3 430.03 127.55 430.18L127.54 430.19Z" fill="#2F2031"/>
<path d="M91.58 401.03C91.58 401.03 87.93 404.85 70.95 409.1C62.04 411.33 33.08 417.96 33.08 417.96C33.08 417.96 31.83 414.22 30.26 410.12C28.7 406.02 27.73 399.64 27.49 396.39C27.43 395.64 27.43 395.04 27.41 394.46C27.41 394.15 27.41 393.85 27.39 393.53C27.3 391.9 23.78 385.6 21.9 380.45C18.56 371.33 15.4 360.49 16.9 354.16C18.49 347.48 23.58 343.86 27.48 341.11C29.57 339.63 31.32 338.5 32.67 337.96C48.45 331.69 55.92 337 59.77 342.06C63.62 347.11 69.95 359.59 71.57 362.41C74.46 367.4 75.25 371.81 77.23 376.02C78.84 379.43 82.47 383.82 83.68 386.38C84.92 389 84.75 390.29 85.18 391.49C85.33 391.91 85.56 392.32 85.96 392.78C86.05 392.89 86.16 393 86.28 393.12C88.8 395.65 91.58 401.01 91.58 401.01V401.03Z" fill="#E04C4C"/>
<path d="M36.6604 353.58C42.3404 355.44 47.8804 357.63 53.3004 360.16C53.8104 360.4 54.2604 359.64 53.7404 359.4C48.2604 356.83 42.6504 354.61 36.8904 352.73C36.3504 352.55 36.1204 353.4 36.6604 353.58Z" fill="#B54141"/>
<path d="M46.9998 375.05C46.6298 377.15 46.2698 379.26 45.8998 381.36C45.7998 381.91 46.6498 382.15 46.7498 381.59C47.1198 379.49 47.4798 377.38 47.8498 375.28C47.9498 374.73 47.0998 374.49 46.9998 375.05Z" fill="#B54141"/>
<path d="M119.19 304.57C119.19 304.57 82.1697 341.48 78.4397 342.61C73.3997 344.14 59.7597 339.13 59.2197 338.59L54.9697 357.79C54.9697 357.79 77.9197 360.5 85.3197 357.79C92.7297 355.08 124.25 316.68 124.25 316.68L119.19 304.57Z" fill="#FFC099"/>
<path d="M49.1898 335.44C49.1898 335.44 53.3098 335.49 58.5798 336.56C62.9298 337.44 75.6398 342.8 75.6398 342.8C75.6398 342.8 68.7998 346.59 71.4498 359.54L52.4398 358.51C52.4398 358.51 46.5598 340.2 49.1898 335.44Z" fill="#E04C4C"/>
<path d="M62.7299 352.85C65.6299 356.28 68.2799 359.91 70.8899 363.56C71.2199 364.02 71.9799 363.58 71.6499 363.12C68.9999 359.4 66.2999 355.72 63.3499 352.23C62.9799 351.8 62.3599 352.42 62.7299 352.85Z" fill="#B54141"/>
<path d="M108.47 323.76C108.47 323.76 75.2702 357.41 66.8902 359.83C64.1802 360.61 59.3902 360.54 53.0702 359.05C53.0702 359.05 50.9102 362.49 49.1202 367.47C47.3802 372.32 46.6602 377.17 46.6602 377.17C46.6602 377.17 67.1302 379.42 74.4802 376.57C84.1202 372.84 114.72 337 114.72 337L108.47 323.75V323.76Z" fill="#FFC099"/>
<path d="M109.48 325.63C96.4697 336.01 83.5597 346.53 71.0997 357.56C71.0397 357.21 71.0097 356.86 70.9697 356.51C83.2797 345.64 96.0197 335.24 108.86 325C109.29 324.65 109.92 325.27 109.48 325.62V325.63Z" fill="#B85F3E"/>
<path d="M34.1598 337.71C28.1498 337.71 23.2998 333.69 23.2998 327.68V318.67C23.2998 312.66 28.1698 307.79 34.1798 307.79C40.1898 307.79 45.0598 312.66 45.0598 318.67V327.68C45.0598 333.69 40.1698 337.71 34.1698 337.71H34.1598Z" fill="#FFC099"/>
<path d="M49.9005 340.98C49.0005 342.73 46.2205 345.31 39.5405 345.14C32.8605 344.95 27.4805 341.12 27.4805 341.12C27.9005 340.73 28.9605 339.92 30.3905 339.02C30.7705 338.79 31.1705 338.55 31.5805 338.32C31.6005 338.3 31.6405 338.28 31.6605 338.26C33.9405 336.94 36.8305 335.59 39.5505 335.12C42.1305 334.67 44.5405 334.74 46.3005 334.94C48.0605 335.13 49.1805 335.43 49.1805 335.43C49.1805 335.43 50.8005 339.22 49.9005 340.97V340.98Z" fill="#FFC099"/>
<path d="M47.0998 339.08L32.3698 342.38L31.7398 339.15L31.5798 338.32V338.3L31.5698 338.26L31.4198 337.47L31.4098 337.41L30.3398 331.95L45.0498 328.35L46.3098 334.95L47.0998 339.08Z" fill="#FFC099"/>
<path d="M36.1097 337.66C34.6197 338.15 33.1197 338.36 31.5897 338.31V338.26L31.4297 337.47V337.41H31.5097C32.9397 337.49 34.3597 337.3 35.7697 336.85C36.3097 336.67 36.6497 337.48 36.1097 337.66Z" fill="#B85F3E"/>
<path d="M23.4097 316.52C26.0097 312.95 32.3697 313.34 34.9997 315.79C38.4497 319.01 39.6997 321.4 40.8397 323.06C41.9797 324.73 45.0497 327.37 45.0497 327.37C45.0497 327.37 46.6697 318.03 45.6897 313.98C44.7197 309.99 39.8697 304.12 31.5697 306.32C23.1897 308.54 23.4097 316.52 23.4097 316.52Z" fill="#2F2031"/>
<path d="M22.8901 307.53C22.8901 307.53 20.9801 307.45 19.9001 308.89C18.8201 310.33 18.9401 313.64 21.3601 315.89C23.1901 317.6 25.6901 317.03 31.9801 314.37C31.9801 314.37 32.2101 316.34 34.3001 316.98C39.3701 318.54 40.9801 315.01 42.5901 315.22C44.1901 315.43 45.8401 320.63 45.8401 320.63C45.8401 320.63 47.8101 313.63 48.4601 310.68C49.8501 304.36 44.7901 305.8 44.7901 305.8C44.7901 305.8 43.5601 301.64 40.2101 300.38C36.8701 299.12 35.7001 301.15 35.7001 301.15C35.7001 301.15 31.3601 299.13 27.4201 300.7C23.4801 302.27 22.8901 307.53 22.8901 307.53Z" fill="#2F2031"/>
<path d="M35.9295 316.95C35.9295 316.95 35.7795 319.6 36.5595 321.26C36.8395 321.85 38.0195 322.73 38.3995 322.25C38.7795 321.78 38.9295 320.31 38.9295 320.31C38.9295 320.31 38.7195 313.77 35.9295 316.95Z" fill="#2F2031"/>
<path d="M31.5996 378.57C36.4896 379.58 41.3096 380.86 46.1996 381.87C46.7496 381.98 46.9896 381.14 46.4296 381.02C41.5396 380.01 36.7196 378.73 31.8296 377.72C31.2796 377.61 31.0396 378.45 31.5996 378.57Z" fill="#B54141"/>
<path d="M85.9702 392.8C83.8902 391.91 81.8202 390.96 79.6402 390.31C75.1702 388.99 70.5502 388.13 65.9502 387.42C65.3902 387.34 65.6302 386.49 66.1802 386.57C70.7802 387.27 75.4002 388.16 79.8702 389.46C81.7002 390 83.4502 390.75 85.1902 391.5C85.3402 391.92 85.5702 392.33 85.9702 392.79V392.8Z" fill="#B54141"/>
<path d="M44.6396 399.08C38.8696 397.6 33.1396 396.06 27.4096 394.46C27.4096 394.15 27.4096 393.85 27.3896 393.53C33.1996 395.16 39.0297 396.72 44.8797 398.23C45.4297 398.37 45.1996 399.22 44.6396 399.08Z" fill="#B54141"/>
<path d="M116.02 452.31C116.02 452.31 115.8 452.53 115.37 452.91C106.25 445.68 95.2398 434.51 86.5598 426.74C86.1398 426.35 86.7598 425.74 87.1798 426.12C95.8598 433.88 106.87 445.06 116 452.29C116 452.29 116.003 452.297 116.01 452.31H116.02Z" fill="#2F2031"/>
<path d="M26.0196 322.86C25.7196 323.62 24.7796 323.58 24.5496 322.8C24.4296 322.4 24.4596 321.81 24.6096 321.4C24.8896 320.64 25.8396 320.68 26.0796 321.46C26.1796 321.79 26.1996 322.41 26.0196 322.86Z" fill="#2F2031"/>
<path d="M33.0899 323.01C32.7899 323.77 31.8499 323.73 31.6199 322.95C31.4999 322.55 31.5299 321.96 31.6799 321.55C31.9599 320.79 32.9099 320.83 33.1499 321.61C33.2499 321.94 33.2699 322.56 33.0899 323.01Z" fill="#2F2031"/>
<path d="M41.0497 319.15C42.6597 319.04 42.7897 321.81 42.4197 323.21C42.0497 324.61 40.9397 326.64 40.9397 326.64L38.9297 320.28C38.9297 320.28 39.4397 319.26 41.0497 319.15Z" fill="#FFC099"/>
<path d="M26.2596 330.94C27.5396 331.26 29.0596 331.37 30.3596 331.06C30.9096 330.93 30.6796 330.08 30.1296 330.21C28.9996 330.48 27.6196 330.36 26.4996 330.09C25.9496 329.95 25.7096 330.8 26.2696 330.94H26.2596Z" fill="#B85F3E"/>
<path d="M27.4299 321.98C27.1399 322.78 26.8799 323.58 26.6399 324.39C26.4799 324.95 26.0699 325.81 26.2199 326.41C26.4499 327.36 27.8299 327.17 28.5799 327.24C29.1399 327.29 29.1399 326.41 28.5799 326.36C28.2399 326.33 27.8699 326.34 27.5399 326.27C26.9099 326.12 27.1899 325.69 27.3399 325.15C27.6199 324.16 27.9399 323.18 28.2799 322.21C28.4699 321.68 27.6199 321.45 27.4299 321.98Z" fill="#B85F3E"/>
<path d="M40.1504 401.41C43.3604 402.17 46.5804 402.93 49.7904 403.69C50.3404 403.82 50.5804 402.97 50.0204 402.84C46.8104 402.08 43.5904 401.32 40.3804 400.56C39.8304 400.43 39.5904 401.28 40.1504 401.41Z" fill="#B54141"/>
<path d="M383.79 497.9C375.66 500.34 360.3 510.37 360.3 510.37C374.75 493.57 384.24 473.24 385.59 466.65C386.95 460.06 383.42 458.07 378.09 459.51C372.76 460.96 354.78 474.14 354.78 474.14C354.78 474.14 354.78 470.71 361.65 460.32C368.52 449.93 372.4 437.56 370.05 432.13C367.7 426.71 347.29 431.68 332.92 438.82C318.56 445.96 298.05 465.02 298.05 465.02C298.05 465.02 298.32 459.78 297.24 458.43C296.16 457.08 288.39 457.62 282.79 462.13C277.19 466.65 271.05 474.93 271.05 474.93L264.79 525.34C264.79 525.34 260.69 536.54 260.21 542.99H357.05C357.05 542.99 397.61 506.49 398.33 501.53C399.05 496.56 391.92 495.48 383.79 497.92V497.9Z" fill="#B0D0E8"/>
<path d="M267.8 438.73C267.8 438.73 281.7 412.17 285.68 406.21C289.66 400.25 291.83 397.72 293.45 398.08C295.08 398.44 294.35 408.74 288.75 416.69C283.15 424.64 278.63 430.96 267.79 438.73H267.8Z" fill="#B0D0E8"/>
<path d="M288.09 432.04C288.09 432.04 300.56 430.29 307.42 425.96C314.29 421.62 317.06 419.34 316.75 415.54C316.45 411.75 311.27 412.3 304.22 416.56C294.76 422.28 288.08 432.04 288.08 432.04H288.09Z" fill="#B0D0E8"/>
<path d="M245.76 375.31C229.66 400.72 195.14 431.88 180.83 444.28C176.81 447.76 174.39 449.75 174.39 449.75C174.39 449.75 144.65 387.59 113.78 314.33C110.26 305.98 106.72 297.49 103.21 288.93C98.9904 278.64 94.4403 266.64 89.6703 253.5C89.5403 253.14 89.4103 252.77 89.2703 252.4C82.4803 233.61 75.3104 212.55 68.1504 190.87C68.0304 190.51 67.9004 190.13 67.7904 189.75C61.3704 170.24 54.9804 150.26 48.9304 131.01C48.8104 130.63 48.7004 130.25 48.5804 129.87C42.0904 109.17 35.9904 89.3401 30.7104 71.9101C30.5904 71.5301 30.4904 71.1601 30.3704 70.7801C20.1004 36.9501 12.9304 12.3801 11.7704 8.38009C11.6604 8.00009 11.6104 7.82009 11.6104 7.82009C11.6104 7.82009 78.0904 0.590088 91.8204 0.590088C106.97 0.590088 111.6 4.31009 119.65 14.8701C120.89 16.5001 126.04 23.4001 133.8 33.9201C134.05 34.2501 134.29 34.5901 134.54 34.9301C144.17 48.0001 157.59 66.3701 172.5 87.1201C172.75 87.4801 173.01 87.8401 173.26 88.2001C185.43 105.17 198.54 123.69 211.37 142.19C211.62 142.55 211.88 142.93 212.12 143.29C226.22 163.68 239.94 184.02 251.57 202.2C251.81 202.58 252.05 202.95 252.27 203.32C260.97 216.95 268.5 229.37 274.09 239.61C279.73 249.97 283.43 258.13 284.41 263.18C291.64 299.93 266.35 342.8 245.75 375.32L245.76 375.31Z" fill="#496CD6"/>
<path d="M245.761 375.31C229.661 400.72 195.141 431.88 180.831 444.28C176.811 447.76 174.391 449.75 174.391 449.75C174.391 449.75 144.651 387.59 113.781 314.33C103.321 278.66 96.4307 250.34 96.4307 250.34C96.4307 250.34 129.431 245.37 176.861 242.69C240.491 239.09 274.101 239.59 274.101 239.59C279.741 249.95 283.441 258.11 284.421 263.16C291.651 299.91 266.361 342.78 245.761 375.3V375.31Z" fill="#524469"/>
<path d="M251.571 202.19L54.8408 155L134.541 34.9199C144.171 47.9899 157.591 66.3599 172.501 87.1099C172.751 87.4699 173.011 87.8299 173.261 88.1899C185.431 105.16 198.541 123.68 211.371 142.18C211.621 142.54 211.881 142.92 212.121 143.28C226.221 163.67 239.941 184.01 251.571 202.19Z" fill="#FFE5DE"/>
<path d="M213.68 527.93C209.51 530.61 203.16 528.89 200.82 524.56C198.26 519.79 198.65 514.88 196.12 510.09C175.22 470.43 154.04 429.81 135.66 388.92C129.89 376.1 123 360.51 115.75 343.75C115.62 343.47 115.5 343.19 115.39 342.9C113.8 339.27 112.22 335.57 110.61 331.84C110.5 331.57 110.39 331.29 110.26 331.01C94.1704 293.43 77.2404 252.06 67.2504 223.08C2.52039 35.0201 1.73039 18.9001 1.73039 18.9001C0.0303875 13.9101 -1.59961 7.63013 3.00039 6.14013C8.03039 4.51013 12.9804 8.05013 14.5604 12.6901C15.4604 15.3301 16.3504 17.9701 17.2304 20.6201C24.0304 41.0501 30.3104 61.6401 36.7504 82.1801C44.5804 107.15 52.7304 132 61.4004 156.68C74.2904 193.34 88.1604 229.66 102.54 265.76C110.28 285.18 118.1 304.37 126.13 323.45C126.25 323.72 126.36 323.99 126.47 324.26C127.83 327.47 129.19 330.67 130.56 333.88C130.68 334.15 130.79 334.42 130.91 334.69C139.59 355.04 148.54 375.32 157.86 395.68C176.37 436.08 196 475.96 217.06 515.08C219.55 519.72 218.08 525.1 213.69 527.94L213.68 527.93Z" fill="#E3D5D5"/>
<path d="M308.631 490.94C304.301 506.84 293.81 522.74 286.59 530.69C279.371 538.64 274.671 542.97 274.671 542.97L161.021 539.72L170.771 530.5C170.771 530.5 194.931 508.88 219.131 493.71C243.351 478.54 271.051 468.54 290.201 468.9C302.661 469.13 308.54 471.67 309.93 477.8C310.02 478.16 310.081 478.53 310.131 478.92C310.551 482.04 309.981 486 308.631 490.95V490.94Z" fill="#496CD6"/>
<path d="M310.141 478.91C303.901 475.62 295.891 474.55 289.071 475.18C271.051 476.82 254.281 483.46 238.751 492.47C222.511 501.89 207.281 512.96 192.601 524.62C192.151 524.97 191.531 524.35 191.981 524C200.661 517.11 209.531 510.44 218.671 504.16C233.981 493.67 250.161 483.69 268.091 478.38C280.961 474.58 297.271 471.35 309.951 477.79C310.041 478.15 310.101 478.52 310.151 478.91H310.141Z" fill="#2748AB"/>
<path d="M286.461 286.87C210.721 294.47 146.651 323.7 130.531 331.58C130.251 331.71 129.991 331.83 129.741 331.96C127.781 332.92 126.701 333.49 126.621 333.53L123.881 328.34C123.971 328.29 125.181 327.65 127.411 326.56C127.661 326.44 127.931 326.31 128.201 326.17C145.151 317.94 209.731 288.67 285.871 281.04C285.871 281.04 288.391 280.96 288.391 283.7C288.391 286.44 286.451 286.88 286.451 286.88L286.461 286.87Z" fill="#E3D5D5"/>
<path d="M125.86 322.83C125.86 322.83 110.22 331.83 108.46 333.52C106.97 334.96 110.98 345.67 113.58 344.05C114.26 343.63 114.37 343.56 115.32 342.93C120.94 339.19 131.02 335.03 131.02 335.03L125.85 322.83H125.86Z" fill="#E3D5D5"/>
<path d="M252.27 203.31C242.68 204.32 233.15 205.88 223.7 207.78C199.55 212.65 175.84 219.65 152.6 227.79C133.56 234.45 114.77 241.92 96.43 250.34C94.16 251.37 91.91 252.43 89.67 253.5C89.04 253.79 88.41 254.09 87.78 254.39C87.1 254.72 86.5 253.71 87.18 253.38C87.87 253.05 88.58 252.71 89.27 252.39C91.51 251.32 93.76 250.28 96.01 249.25C104.34 245.43 112.76 241.82 121.25 238.38C144.61 228.9 168.51 220.62 192.83 213.96C212.07 208.69 231.7 204.31 251.57 202.18C251.81 202.56 252.05 202.93 252.27 203.3V203.31Z" fill="#E3D5D5"/>
<path d="M212.121 143.29C208.821 143.85 205.531 144.48 202.261 145.13C178.111 149.99 154.401 156.99 131.161 165.13C111.401 172.06 91.9005 179.83 72.9005 188.65C71.3105 189.38 69.7305 190.12 68.1605 190.87C67.5505 191.16 66.9505 191.45 66.3405 191.74C65.6605 192.07 65.0605 191.05 65.7405 190.73C66.4205 190.4 67.1105 190.07 67.8005 189.76C69.3605 189.01 70.9405 188.28 72.5105 187.55C81.5105 183.38 90.6205 179.45 99.8105 175.72C123.171 166.24 147.071 157.96 171.391 151.3C184.551 147.69 197.901 144.51 211.381 142.18C211.631 142.54 211.891 142.92 212.131 143.28L212.121 143.29Z" fill="#E3D5D5"/>
<path d="M173.26 88.2001C151.33 92.9601 129.77 99.4301 108.61 106.84C89.4403 113.55 70.5403 121.07 52.0803 129.55C51.0303 130.03 49.9803 130.52 48.9303 131.02C47.2003 131.82 45.4903 132.63 43.7703 133.45C43.1003 133.77 42.5003 132.76 43.1803 132.43C44.9803 131.57 46.7703 130.73 48.5703 129.88C49.6203 129.4 50.6603 128.92 51.6903 128.44C60.1203 124.58 68.6403 120.92 77.2303 117.44C100.6 107.96 124.49 99.6801 148.81 93.0201C156.64 90.8701 164.53 88.8701 172.49 87.1201C172.74 87.4801 173 87.8401 173.25 88.2001H173.26Z" fill="#E3D5D5"/>
<path d="M134.541 34.9299C118.161 39.1099 101.991 44.1599 86.0406 49.7499C68.1406 56.0199 50.4707 62.9999 33.1807 70.7999C32.3507 71.1799 31.5207 71.5499 30.7007 71.9299C27.5207 73.3699 24.3607 74.8499 21.2106 76.3699C20.5306 76.6999 19.9307 75.6799 20.6107 75.3599C23.8407 73.8099 27.0907 72.2899 30.3607 70.7999C31.1807 70.4199 32.0007 70.0499 32.8407 69.6799C40.0607 66.4299 47.3407 63.3299 54.6807 60.3399C78.0407 50.8599 101.941 42.5799 126.261 35.9199C128.761 35.2399 131.271 34.5599 133.801 33.9099C134.051 34.2399 134.291 34.5799 134.541 34.9199V34.9299Z" fill="#E3D5D5"/>
<path d="M130.9 334.69C125.38 336.79 120.28 339.83 115.76 343.76C115.63 343.48 115.51 343.2 115.4 342.91C119.94 339.03 125.04 335.99 130.55 333.88C130.67 334.15 130.78 334.42 130.9 334.69Z" fill="#918080"/>
<path d="M126.461 324.26C120.851 326.05 115.541 328.58 110.621 331.85C110.511 331.58 110.401 331.3 110.271 331.02C115.201 327.79 120.511 325.25 126.121 323.46C126.241 323.73 126.351 324 126.461 324.27V324.26Z" fill="#918080"/>
<path d="M130.53 331.58C130.25 331.71 129.99 331.83 129.74 331.96C129.04 330.13 128.27 328.33 127.41 326.56C127.66 326.44 127.93 326.31 128.2 326.17C129.06 327.94 129.83 329.74 130.53 331.58Z" fill="#918080"/>
<path d="M284.99 263.06C284.03 258.17 280.64 250.41 274.61 239.32C269.35 229.68 262 217.46 252.78 203.01C252.64 202.79 252.5 202.56 252.36 202.34L252.07 201.89C241.46 185.3 228.19 165.48 212.61 142.97L211.85 141.86C200.22 125.09 187.4 106.92 173.74 87.87L173.52 87.56C173.34 87.31 173.16 87.05 172.97 86.78C157.13 64.72 143.58 46.22 135.01 34.59C134.76 34.25 134.51 33.9 134.27 33.58C126.62 23.21 121.39 16.19 120.11 14.52C112.24 4.21002 107.48 0.0100202 91.8101 0.0100202C78.2101 2.02309e-05 12.2101 7.16002 11.5401 7.24002L10.8301 7.32002L11.0401 8.00002C11.0401 8.00002 11.1001 8.19002 11.2001 8.55002C13.1001 15.08 20.0601 38.88 29.7901 70.97L30.1301 72.09C35.9901 91.41 42.0001 110.91 48.0101 130.05L48.3601 131.19C55.0401 152.44 61.3801 172.21 67.2201 189.93C67.2901 190.16 67.3701 190.38 67.4401 190.6L67.5901 191.05C75.3601 214.61 82.4701 235.31 88.7101 252.6C88.8301 252.92 88.9401 253.22 89.0501 253.53L89.1101 253.7C94.2001 267.74 98.6401 279.34 102.66 289.15C106.11 297.55 109.66 306.1 113.23 314.56C137.27 371.59 160.84 422.38 169.93 441.71C170.16 441.3 170.4 440.88 170.65 440.48C161.33 420.63 138.04 370.41 114.31 314.1C110.74 305.64 107.19 297.1 103.74 288.7C99.7201 278.9 95.3001 267.32 90.2101 253.29L90.1501 253.13C90.0401 252.82 89.9301 252.5 89.8101 252.19C83.5701 234.92 76.4701 214.22 68.7001 190.68L68.5501 190.22C68.4801 190 68.4101 189.78 68.3301 189.56C62.4901 171.83 56.1501 152.07 49.4701 130.82L49.1201 129.68C43.1201 110.54 37.1101 91.05 31.2501 71.72L30.9101 70.6C21.2501 38.71 14.3101 15 12.3701 8.33002C19.5101 7.56002 79.0301 1.18002 91.8201 1.18002C107.03 1.18002 111.4 5.03002 119.19 15.23C120.46 16.9 125.69 23.91 133.34 34.28C133.58 34.6 133.83 34.94 134.08 35.28C142.65 46.91 156.19 65.41 172.02 87.45C172.2 87.72 172.39 87.98 172.57 88.24L172.79 88.55C186.45 107.6 199.27 125.76 210.89 142.52L211.65 143.63C227.22 166.13 240.49 185.95 251.08 202.52L251.37 202.98C251.51 203.2 251.65 203.42 251.79 203.64C261.01 218.08 268.34 230.28 273.59 239.89C279.48 250.72 282.93 258.59 283.85 263.29C285.15 269.88 285.33 276.72 284.71 283.66C285.11 283.51 285.51 283.38 285.92 283.27C286.5 276.39 286.29 269.6 285 263.06H284.99Z" fill="#E3D5D5"/>
<path d="M254.91 533.46C240.72 530.6 198.02 521.42 179.51 521.42C158.67 521.42 142.77 533.71 142.77 533.71C142.77 533.71 82.5496 500.95 78.8096 506.37C75.0796 511.79 90.0096 520.82 90.0096 520.82C90.0096 520.82 53.0296 507.93 37.8596 504.32C22.6796 500.71 16.2996 505.04 15.4596 508.54C14.6196 512.03 15.8896 520.91 38.5896 530.34C60.7496 539.55 74.2396 542.99 74.2396 542.99H282.43C280.5 541.07 269.97 536.85 254.91 533.47V533.46Z" fill="#D3E6F5"/>
<path d="M62.1292 486.06C62.1292 486.06 53.0992 476.24 46.5292 472.21C39.9692 468.17 35.0892 467.09 34.3592 468.72C33.6392 470.35 35.4392 475.53 40.4992 478.66C45.5592 481.79 62.1192 486.07 62.1192 486.07L62.1292 486.06Z" fill="#D3E6F5"/>
</g>
<defs>
<clipPath id="clip0_1959_11478">
<rect width="398.39" height="542.98" fill="white"/>
</clipPath>
</defs>
</svg>
